<svg xmlns="http://www.w3.org/2000/svg" width="32" height="32" viewBox="0 0 32 32"><defs><style>.cls-1{fill:#ff6b22;fill-rule:evenodd;}.cls-2{fill:#fff;}</style></defs><title>金额</title><g id="图层_2" data-name="图层 2"><g id="图层_1-2" data-name="图层 1"><path class="cls-1" d="M5,0H27a5,5,0,0,1,5,5V27a5,5,0,0,1-5,5H5a5,5,0,0,1-5-5V5A5,5,0,0,1,5,0Z"/><rect class="cls-2" x="15" y="8.64" width="2" height="12" rx="1" ry="1" transform="translate(30.64 -1.36) rotate(90)"/><rect class="cls-2" x="11.53" y="6.95" width="2" height="8.12" rx="1" ry="1" transform="translate(28.89 14.28) rotate(150)"/><rect class="cls-2" x="18.47" y="6.95" width="2" height="8.12" rx="1" ry="1" transform="matrix(0.87, 0.5, -0.5, 0.87, 8.11, -8.26)"/><rect class="cls-2" x="15" y="13.5" width="2" height="12" rx="1" ry="1" transform="translate(35.5 3.5) rotate(90)"/><rect class="cls-2" x="15" y="13.64" width="2" height="11" rx="1" ry="1" transform="translate(32 38.28) rotate(-180)"/></g></g></svg>