<?xml version="1.0" encoding="utf-8"?>
<!-- Generator: Adobe Illustrator 21.0.2, SVG Export Plug-In . SVG Version: 6.00 Build 0)  -->
<svg version="1.1" id="图层_1" xmlns="http://www.w3.org/2000/svg" xmlns:xlink="http://www.w3.org/1999/xlink" x="0px" y="0px"
	 width="222.9px" height="309px" viewBox="0 0 222.9 309" style="enable-background:new 0 0 222.9 309;" xml:space="preserve">
<style type="text/css">
	.st0{fill:#F2F2F2;}
	.st1{fill:#CCCCCC;}
	.st2{fill:#E2E2E2;}
	.st3{fill:#FFFFFF;}
</style>
<title>暂无数据</title>
<ellipse class="st0" cx="111.5" cy="154.2" rx="53.2" ry="20.8"/>
<path class="st1" d="M111.5,175.5c-29.6,0-53.7-9.6-53.7-21.3s24.1-21.3,53.7-21.3s53.7,9.6,53.7,21.3S141.1,175.5,111.5,175.5z
	 M111.5,133.9c-29.1,0-52.7,9.1-52.7,20.3s23.7,20.3,52.7,20.3s52.7-9.1,52.7-20.3S140.5,133.9,111.5,133.9z"/>
<path class="st0" d="M93.3,177.9c0,0-4.4,3.3-2.3,10.4s3.5,19.6,20.4,39.8c2.7,2.9,6.4,3.1,9.5,0s13.9-13.6,20.6-40.8
	c0.3-3.2,0.5-7.4-3.1-10.2"/>
<path class="st1" d="M116.2,230.9L116.2,230.9c-2-0.1-3.8-0.9-5.1-2.4c-14.7-17.4-17.7-29-19.7-36.7c-0.3-1.2-0.6-2.3-0.9-3.3
	c-2.2-7.4,2.2-10.8,2.4-11l0.6,0.8c-0.2,0.1-4.1,3.2-2.1,9.9c0.3,1,0.6,2.1,0.9,3.3c2,7.6,4.9,19,19.4,36.3c1.1,1.2,2.6,2,4.3,2.1
	h0.1c1.7-0.1,3.3-0.8,4.5-2.1l0.2-0.2c3.4-3.4,13.8-13.8,20.3-40.4c0.3-3.3,0.4-7.1-2.9-9.6l0.6-0.8c4,3.1,3.5,8,3.3,10.6
	c-6.6,27-17.2,37.5-20.6,40.9l-0.2,0.2C120,229.9,118.1,230.8,116.2,230.9z"/>
<path class="st2" d="M103.7,175c0,0-0.1,17,9.7,27.7c2.4,2.8,4.1,3.2,6.2,0s8.9-12.6,8.4-28.8"/>
<path class="st1" d="M116.7,205.5c-1.1,0-2.3-0.8-3.7-2.4c-9.8-10.8-9.8-27.9-9.8-28.1h1c0,0.2,0,16.9,9.6,27.4
	c1.3,1.5,2.2,2.1,3,2.1s1.6-0.7,2.4-2l0.3-0.4c2.3-3.5,8.5-12.7,8.1-28.1h1c0.4,15.7-5.9,25.1-8.3,28.7l-0.3,0.4
	c-1.1,1.6-2.1,2.4-3.2,2.5L116.7,205.5z"/>
<path class="st0" d="M160.8,157.3c0,0-2.3,1.8-1.2,5.5s1.8,10.3,10.7,20.9c1.1,1.4,3.2,1.6,4.6,0.4c0.2-0.1,0.3-0.3,0.4-0.4
	c1.6-1.6,7.3-7.1,10.9-21.4c0.2-1.7,0.3-3.9-1.6-5.3"/>
<path class="st1" d="M172.8,185.4L172.8,185.4c-1.1,0-2.1-0.5-2.8-1.3c-7.8-9.2-9.3-15.4-10.4-19.4c-0.2-0.6-0.3-1.2-0.5-1.7
	c-1.2-4,1.3-5.9,1.4-6l0.6,0.8l-0.3-0.4l0.3,0.4c-0.1,0.1-2,1.6-1,4.9c0.2,0.5,0.3,1.1,0.5,1.8c1,4,2.6,10,10.2,19
	c0.5,0.6,1.3,1,2.1,1c0.8,0,1.6-0.4,2.2-1l0.1-0.1c1.8-1.8,7.2-7.2,10.6-21.1c0.2-1.6,0.2-3.6-1.4-4.8l0.6-0.8
	c2.2,1.7,1.9,4.4,1.8,5.8c-3.5,14.3-9.1,19.9-10.9,21.7l-0.1,0.1C175,184.9,173.9,185.4,172.8,185.4z"/>
<path class="st2" d="M166.3,155.8c0,0-0.1,8.9,5.1,14.6c1.2,1.5,2.1,1.7,3.3,0c3.1-4.4,4.7-9.7,4.4-15.1"/>
<path class="st1" d="M173.1,172.1c-0.9-0.1-1.6-0.6-2.1-1.4c-5.2-5.7-5.2-14.5-5.2-14.9h1c0,0.1,0,8.8,5,14.3c0.6,0.7,1.1,1,1.4,1
	s0.7-0.3,1.1-1l0.1-0.2c3-4.3,4.5-9.4,4.2-14.6h1c0.3,5.4-1.3,10.8-4.4,15.2l-0.1,0.2c-0.6,0.9-1.2,1.4-1.9,1.4L173.1,172.1z"/>
<path class="st0" d="M41.8,157.3c0,0-2.3,1.8-1.2,5.5s1.8,10.3,10.7,20.9c1.1,1.4,3.2,1.6,4.6,0.4c0.2-0.1,0.3-0.3,0.4-0.4
	c1.6-1.6,7.3-7.1,10.8-21.4c0.2-1.7,0.3-3.9-1.6-5.3"/>
<path class="st1" d="M53.8,185.4L53.8,185.4c-1.1,0-2.1-0.5-2.8-1.3c-7.8-9.2-9.3-15.4-10.4-19.4c-0.2-0.6-0.3-1.2-0.5-1.7
	c-1.2-4,1.3-5.9,1.4-6l0.6,0.8l-0.3-0.4l0.3,0.4c-0.1,0.1-2,1.6-1,4.9c0.2,0.5,0.3,1.1,0.5,1.8c1,4,2.6,10,10.2,19
	c0.5,0.6,1.3,1,2.1,1c0.8,0,1.6-0.4,2.2-1l0.1-0.1c1.8-1.8,7.2-7.2,10.6-21.1c0.2-1.6,0.2-3.6-1.4-4.8l0.6-0.8
	c2.2,1.7,1.9,4.4,1.8,5.8c-3.6,14.2-9.1,19.8-11,21.6l-0.1,0.1C56,184.9,54.9,185.4,53.8,185.4z"/>
<path class="st2" d="M47.3,155.8c0,0,0,8.9,5.1,14.6c1.2,1.5,2.2,1.7,3.3,0c3.1-4.4,4.7-9.7,4.4-15.1"/>
<path class="st1" d="M54.1,172.1c-0.9-0.1-1.6-0.6-2.1-1.4c-5.2-5.7-5.2-14.5-5.2-14.9h1c0,0.1,0,8.8,5,14.3c0.6,0.7,1,1,1.4,1
	s0.7-0.3,1.1-1l0.1-0.2c3-4.3,4.5-9.4,4.2-14.6h1c0.3,5.4-1.3,10.8-4.4,15.2l-0.1,0.2c-0.6,0.9-1.2,1.4-1.9,1.4L54.1,172.1z"/>
<path class="st1" d="M109.3,40.2c-0.3,0-0.5-0.2-0.5-0.5V10c0-0.3,0.2-0.5,0.5-0.5s0.5,0.2,0.5,0.5v29.7
	C109.8,40,109.6,40.2,109.3,40.2z"/>
<circle class="st1" cx="109.1" cy="5.5" r="5.5"/>
<ellipse class="st3" cx="111.5" cy="124.8" rx="111" ry="41.5"/>
<path class="st1" d="M111.5,166.8C50,166.8,0,148,0,124.8s50-42,111.5-42s111.5,18.9,111.5,42S172.9,166.8,111.5,166.8z M111.5,83.8
	C50.5,83.8,1,102.2,1,124.8s49.5,41,110.5,41s110.5-18.4,110.5-41S172.4,83.8,111.5,83.8z"/>
<path class="st0" d="M111.5,83.3h-1.1c59.6,0.2,107.8,18.4,107.8,40.7s-48.7,40.7-108.8,40.7c-59.8,0-108.2-18-108.8-40.3
	c0,0.1,0,0.3,0,0.4c0,22.9,49.7,41.5,111,41.5s111-18.6,111-41.5S172.8,83.3,111.5,83.3z"/>
<circle class="st0" cx="47.4" cy="134.7" r="8.5"/>
<path class="st1" d="M47.4,143.7c-5,0-9-4-9-9s4-9,9-9s9,4,9,9S52.4,143.7,47.4,143.7z M47.4,126.7c-4.4,0-8,3.6-8,8s3.6,8,8,8
	s8-3.6,8-8C55.4,130.3,51.8,126.7,47.4,126.7L47.4,126.7z"/>
<circle class="st0" cx="179.8" cy="129.7" r="8.5"/>
<path class="st1" d="M179.8,138.7c-5,0-9-4-9-9s4-9,9-9s9,4,9,9S184.8,138.7,179.8,138.7z M179.8,121.7c-4.4,0-8,3.6-8,8
	c0,4.4,3.6,8,8,8s8-3.6,8-8C187.8,125.3,184.2,121.7,179.8,121.7L179.8,121.7z"/>
<path class="st1" d="M112.6,127.4c-17.4-0.1-34.7-1.8-51.8-5.1c-0.1,0-0.2,0-0.2-0.1C49.2,113.1,43,101.2,43,88.7
	c0-27.3,29.7-49.5,66.3-49.5s66.3,22.2,66.3,49.5c0,12.7-6.5,24.8-18.2,34.1c-0.1,0-0.1,0.1-0.2,0.1
	C142.5,126,127.6,127.5,112.6,127.4z M61,121.4c23.9,4.6,59.8,8.3,95.9,0.5c11.4-9,17.7-20.8,17.7-33.2c0-26.8-29.3-48.5-65.3-48.5
	S44,62,44,88.7C44,100.8,50.1,112.4,61,121.4L61,121.4z"/>
<path class="st0" d="M61.9,121.8c21.3,3.7,58,7.6,94.5,0.5c10.9-7.7,17.6-18.1,17.6-29.6c0-23.8-28.9-43.1-64.6-43.1
	S44.9,68.9,44.9,92.7C44.9,103.9,51.3,114.1,61.9,121.8z"/>
<path class="st1" d="M94.3,80.4H70.7c-0.3,0-0.5-0.2-0.5-0.5s0.2-0.5,0.5-0.5h23.6c0.3,0,0.5,0.2,0.5,0.5S94.5,80.4,94.3,80.4z"/>
<path class="st1" d="M110.4,80.4H101c-0.3,0-0.5-0.2-0.5-0.5s0.2-0.5,0.5-0.5h9.3c0.3,0,0.5,0.2,0.5,0.5S110.6,80.4,110.4,80.4
	L110.4,80.4z"/>
<path class="st1" d="M43.5,250.1L43.5,250.1c-0.4-0.1-0.5-0.3-0.5-0.6l6.9-36.1c0.1-0.3,0.3-0.5,0.6-0.4s0.5,0.3,0.4,0.6L44,249.7
	C44,249.9,43.8,250.1,43.5,250.1z"/>
<path class="st1" d="M182.5,250.1c-0.2,0-0.4-0.2-0.5-0.4l-6.9-36.1c-0.1-0.3,0.1-0.5,0.4-0.6s0.5,0.1,0.6,0.4l6.8,36.1
	C183,249.8,182.9,250,182.5,250.1L182.5,250.1z"/>
<path class="st1" d="M116.1,281c-0.3,0-0.5-0.2-0.5-0.5v-30.1c0-0.3,0.2-0.5,0.5-0.5s0.5,0.2,0.5,0.5v30.1
	C116.6,280.8,116.4,281,116.1,281z"/>
<path class="st1" d="M39.9,39.4h-9.9c-0.3,0-0.5-0.2-0.5-0.5s0.2-0.5,0.5-0.5h9.9c0.3,0,0.5,0.2,0.5,0.5S40.2,39.4,39.9,39.4z"/>
<path class="st1" d="M35,44.3c-0.3,0-0.5-0.2-0.5-0.5V34c0-0.3,0.2-0.5,0.5-0.5s0.5,0.2,0.5,0.5v9.9C35.5,44.1,35.3,44.4,35,44.3z"
	/>
<path class="st1" d="M175.3,33.7c-0.1,0-0.3-0.1-0.4-0.2l-8.1-8.1c-0.2-0.2-0.2-0.5,0-0.7s0.5-0.2,0.7,0l8.1,8.1
	c0.2,0.2,0.2,0.5,0,0.7C175.6,33.6,175.5,33.7,175.3,33.7L175.3,33.7z"/>
<path class="st1" d="M167.3,33.7c-0.3,0-0.5-0.2-0.5-0.5c0-0.1,0.1-0.3,0.1-0.3l8.1-8.1c0.2-0.2,0.5-0.2,0.7,0s0.2,0.5,0,0.7
	l-8.1,8.1C167.5,33.6,167.4,33.7,167.3,33.7z"/>
<circle class="st0" cx="203" cy="67.3" r="5.2"/>
<path class="st1" d="M203,73c-3.1,0-5.7-2.5-5.7-5.7c0-3.1,2.5-5.7,5.7-5.7s5.7,2.5,5.7,5.7S206.1,73,203,73L203,73z M203,62.7
	c-2.6,0-4.7,2.1-4.7,4.7c0,2.6,2.1,4.7,4.7,4.7c2.6,0,4.7-2.1,4.7-4.7l0,0C207.7,64.8,205.6,62.7,203,62.7
	C203,62.7,203,62.7,203,62.7L203,62.7z"/>
<circle class="st0" cx="6.8" cy="67.3" r="5.2"/>
<path class="st1" d="M6.8,73c-3.1,0-5.7-2.5-5.7-5.7c0-3.1,2.5-5.7,5.7-5.7s5.7,2.5,5.7,5.7S10,73,6.8,73C6.8,73,6.8,73,6.8,73z
	 M6.8,62.7c-2.6,0-4.7,2.1-4.7,4.7c0,2.6,2.1,4.7,4.7,4.7s4.7-2.1,4.7-4.7c0,0,0,0,0,0C11.5,64.8,9.4,62.7,6.8,62.7
	C6.9,62.7,6.8,62.7,6.8,62.7L6.8,62.7z"/>
<circle class="st0" cx="114" cy="145.6" r="8.5"/>
<path class="st1" d="M114,154.6c-5,0-9-4-9-9s4-9,9-9s9,4,9,9S119,154.6,114,154.6z M114,137.6c-4.4,0-8,3.6-8,8s3.6,8,8,8
	s8-3.6,8-8C122,141.1,118.4,137.6,114,137.6L114,137.6z"/>
<ellipse class="st0" cx="116.1" cy="302.8" rx="44.7" ry="6.2"/>
</svg>
