<svg xmlns="http://www.w3.org/2000/svg" width="43" height="43" viewBox="0 0 43 43"><defs><style>.cls-1{fill:#29ab91;}</style></defs><title>B1</title><g id="图层_2" data-name="图层 2"><g id="图层_1-2" data-name="图层 1"><path class="cls-1" d="M38.5,0H4.5A4.5,4.5,0,0,0,0,4.5v34A4.5,4.5,0,0,0,4.5,43h34A4.5,4.5,0,0,0,43,38.5V4.5A4.5,4.5,0,0,0,38.5,0Zm.67,37.57a1.6,1.6,0,0,1-1.59,1.59H5.43a1.6,1.6,0,0,1-1.59-1.59V5.43A1.6,1.6,0,0,1,5.43,3.83H37.57a1.6,1.6,0,0,1,1.59,1.59Z"/><path class="cls-1" d="M32.84,13.33A.67.67,0,0,0,32.7,13c-.07-.11-.1-.14-.11-.14l0,0a.6.6,0,0,0-.14-.1,1,1,0,0,0-.19-.11.87.87,0,0,0-.19,0,.68.68,0,0,0-.18,0h-6.2a1,1,0,0,0,0,2.09h3.85l-7,7.8-6.2-5.74-5.88,6.53a1,1,0,0,0-.27.76,1,1,0,0,0,.34.72,1,1,0,0,0,1.48-.08l4.46-5,6.2,5.74,8.19-9.1v4.16a1,1,0,1,0,2.09,0V13.57a1,1,0,0,0,0-.24Z"/><rect class="cls-1" x="10.12" y="29.16" width="22.76" height="2" rx="0.97" ry="0.97"/></g></g></svg>