<?xml version="1.0" encoding="utf-8"?>
<!-- Generator: Adobe Illustrator 21.0.2, SVG Export Plug-In . SVG Version: 6.00 Build 0)  -->
<svg version="1.1" id="图层_1" xmlns="http://www.w3.org/2000/svg" xmlns:xlink="http://www.w3.org/1999/xlink" x="0px" y="0px"
	 width="30.5px" height="30.5px" viewBox="0 0 30.5 30.5" style="enable-background:new 0 0 30.5 30.5;" xml:space="preserve">
<style type="text/css">
	.st0{fill:#FF9500;}
</style>
<path id="形状_1.svg" class="st0" d="M15.2,30.5C6.8,30.5,0,23.7,0,15.2C0,6.8,6.8,0,15.2,0s15.2,6.8,15.2,15.2
	c0,4-1.6,7.9-4.5,10.8C23.2,28.9,19.3,30.5,15.2,30.5L15.2,30.5z M15.2,2.2C8,2.2,2.2,8,2.2,15.3c0,7.2,5.8,13.1,13.1,13
	s13.1-5.8,13-13.1c0-3.5-1.4-6.8-3.8-9.2C22,3.6,18.7,2.2,15.2,2.2L15.2,2.2z M22.9,14.2h-6.5V7.6c0-0.6-0.5-1.1-1.1-1.1
	S14.1,7,14.1,7.6v6.6H7.6c-0.6,0-1.1,0.5-1.1,1.1c0,0.6,0.5,1,1.1,1.1h6.5v6.6c0,0.6,0.5,1.1,1.1,1.1s1.1-0.5,1.1-1.1v-6.6h6.5
	c0.6,0,1.1-0.5,1.1-1.1C23.9,14.6,23.4,14.2,22.9,14.2L22.9,14.2L22.9,14.2z"/>
</svg>
