<svg xmlns="http://www.w3.org/2000/svg" width="30.468" height="30.468" viewBox="0 0 30.468 30.468">
  <defs>
    <style>
      .cls-1 {
        fill-rule: evenodd;
      }
    </style>
  </defs>
  <path id="删除.svg" class="cls-1" d="M707.561,301.617a1.087,1.087,0,0,1-1.088-1.088V288.562a1.089,1.089,0,0,1,2.177,0v11.967a1.087,1.087,0,0,1-1.089,1.088h0Zm-6.529,0a1.087,1.087,0,0,1-1.088-1.088V288.562a1.089,1.089,0,0,1,2.177,0v11.967a1.087,1.087,0,0,1-1.089,1.088h0Zm17.411-18.5H713v-2.176a3.255,3.255,0,0,0-3.239-3.264H698.856a3.268,3.268,0,0,0-3.264,3.264v2.176h-5.441a1.088,1.088,0,1,0,0,2.176h28.292a1.088,1.088,0,1,0,0-2.176h0Zm-20.675-2.176a1.09,1.09,0,0,1,1.088-1.088h10.907a1.064,1.064,0,0,1,1.063,1.088v2.176H697.768v-2.176h0Zm14.15,27.2H696.682a3.268,3.268,0,0,1-3.265-3.264V288.546a1.089,1.089,0,0,1,2.177,0v16.335a1.088,1.088,0,0,0,1.088,1.088h15.236a1.089,1.089,0,0,0,1.089-1.088V288.59a1.088,1.088,0,0,1,2.176,0v16.291a3.268,3.268,0,0,1-3.265,3.264h0Z" transform="translate(-689.063 -277.688)"/>
</svg>
