<?xml version="1.0" encoding="utf-8"?>
<!-- Generator: Adobe Illustrator 21.0.2, SVG Export Plug-In . SVG Version: 6.00 Build 0)  -->
<svg version="1.1" id="图层_1" xmlns="http://www.w3.org/2000/svg" xmlns:xlink="http://www.w3.org/1999/xlink" x="0px" y="0px"
	 width="30.5px" height="30.4px" viewBox="0 0 30.5 30.4" style="enable-background:new 0 0 30.5 30.4;" xml:space="preserve">
<style type="text/css">
	.st0{fill:#FF9500;}
</style>
<path id="选中.svg" class="st0" d="M15.2,0C6.8,0,0,6.8,0,15.2c0,8.4,6.8,15.2,15.2,15.2c8.4,0,15.2-6.8,15.2-15.2
	C30.4,6.8,23.6,0,15.2,0L15.2,0L15.2,0z M22.6,12.7l-8.8,8.8c0,0,0,0,0,0c0,0,0,0,0,0c-0.1,0.1-0.2,0.1-0.2,0.2c0,0-0.1,0.1-0.1,0.1
	c-0.1,0.1-0.3,0.1-0.4,0.1c-0.1,0-0.3,0-0.4-0.1c0,0-0.1-0.1-0.1-0.1c-0.1,0-0.2-0.1-0.2-0.2c0,0,0,0,0,0s0,0,0,0L8,17.1
	c-0.4-0.4-0.4-1.1,0-1.5s1.1-0.4,1.5,0l3.5,3.6l8-8c0.4-0.4,1.1-0.4,1.5,0C23,11.6,23,12.3,22.6,12.7L22.6,12.7L22.6,12.7L22.6,12.7
	z"/>
</svg>
