<svg xmlns="http://www.w3.org/2000/svg" width="12" height="20" viewBox="0 0 12 20">
  <defs>
    <style>
      .cls-1 {
        fill-rule: evenodd;
      }
    </style>
  </defs>
  <path id="粗箭头.svg" class="cls-1" d="M711.82,299.539c0.014-.026.036-0.048,0.048-0.074a1.21,1.21,0,0,0-.258-1.441l-9.444-8.683a1.312,1.312,0,0,0-1.815.049,1.224,1.224,0,0,0,.05,1.764l8.475,7.793-8.441,7.907a1.223,1.223,0,0,0-.034,1.764,1.31,1.31,0,0,0,1.815.033l9.359-8.768c0.018-.018.025-0.042,0.043-0.06s0.028-.022.041-0.035a1.15,1.15,0,0,0,.161-0.249h0Z" transform="translate(-700 -289)"/>
</svg>
