<svg xmlns="http://www.w3.org/2000/svg" width="28.125" height="30.468" viewBox="0 0 28.125 30.468">
  <defs>
    <style>
      .cls-1 {
        fill-rule: evenodd;
      }
    </style>
  </defs>
  <path id="编辑.svg" class="cls-1" d="M653.13,308.145H633.706a3.258,3.258,0,0,1-3.237-3.271V283.067a3.258,3.258,0,0,1,3.237-3.271h15.107a1.091,1.091,0,0,1,0,2.181H633.706a1.086,1.086,0,0,0-1.079,1.09v21.807a1.085,1.085,0,0,0,1.079,1.09H653.13a1.085,1.085,0,0,0,1.079-1.09V287.428a1.079,1.079,0,1,1,2.158,0v17.446a3.258,3.258,0,0,1-3.237,3.271h0ZM646.79,290.7a1.07,1.07,0,0,1-.763-0.319,1.1,1.1,0,0,1,0-1.542L656.751,278a1.071,1.071,0,0,1,1.526,0,1.1,1.1,0,0,1,0,1.542L647.553,290.38a1.064,1.064,0,0,1-.763.319h0Zm-4.451,0h-6.475a1.09,1.09,0,0,1,0-2.18h6.475a1.09,1.09,0,0,1,0,2.18h0Zm6.474,6.543H635.864a1.091,1.091,0,0,1,0-2.181h12.949a1.091,1.091,0,0,1,0,2.181h0Z" transform="translate(-630.469 -277.688)"/>
</svg>
