<svg xmlns="http://www.w3.org/2000/svg" width="333.28" height="335.07" viewBox="0 0 333.28 335.07"><defs><style>.cls-1,.cls-14,.cls-5,.cls-6{fill:#f2f2f2;}.cls-2{fill:#ccc;}.cls-16,.cls-3{fill:none;}.cls-14,.cls-16,.cls-3,.cls-5,.cls-6,.cls-8{stroke:#ccc;}.cls-14,.cls-16,.cls-3,.cls-6{stroke-linecap:round;}.cls-14,.cls-16,.cls-3{stroke-linejoin:round;}.cls-4{fill:#f9f9f9;}.cls-5,.cls-6,.cls-8{stroke-miterlimit:10;}.cls-7{fill:#e8e8e8;}.cls-12,.cls-8{fill:#fff;}.cls-9{fill:#d8d8d8;}.cls-10{fill:#e5e5e5;}.cls-11{fill:#c9c9c9;}.cls-13{fill:#ddd;}.cls-15{fill:#ebf0f2;}.cls-16{stroke-dasharray:4;}</style></defs><title>地址</title><g id="图层_2" data-name="图层 2"><g id="图层_1-2" data-name="图层 1"><path class="cls-1" d="M122.64,35.51l-.15-.24a5.35,5.35,0,0,1-.86-2.85c0-3.49,3.5-6.34,7.8-6.34l.43,0a11.07,11.07,0,0,1,9.25-4.46c5.31,0,9.7,3.13,10.42,7.36,3.14.15,5.63,2.28,5.63,4.87a4,4,0,0,1-.23,1.28l-.11.34Z"/><path class="cls-2" d="M139.11,22.15c5.27,0,9.54,3.24,10,7.36h.09c3,0,5.48,2,5.48,4.38a3.54,3.54,0,0,1-.21,1.13H122.91a4.87,4.87,0,0,1-.79-2.58c0-3.22,3.27-5.84,7.3-5.84.24,0,.46,0,.69.06a10.5,10.5,0,0,1,9-4.49m0-1a11.66,11.66,0,0,0-9.49,4.44h-.19c-4.58,0-8.3,3.07-8.3,6.84a5.84,5.84,0,0,0,.94,3.11l.29.47h32.82l.23-.68a4.46,4.46,0,0,0,.26-1.44c0-2.75-2.5-5-5.72-5.34-1-4.27-5.45-7.39-10.84-7.39Z"/><line class="cls-3" x1="42.84" y1="203.18" x2="42.75" y2="214.81"/><line class="cls-3" x1="48.6" y1="209.04" x2="36.98" y2="208.95"/><ellipse class="cls-1" cx="188.1" cy="324.91" rx="88" ry="10.16"/><path class="cls-1" d="M189.05,280.17A128.41,128.41,0,1,1,317.46,151.76,128.55,128.55,0,0,1,189.05,280.17Z"/><path class="cls-2" d="M189.05,23.86A127.91,127.91,0,1,1,61.15,151.76,127.91,127.91,0,0,1,189.05,23.86m0-1A128.91,128.91,0,0,0,97.9,242.91a128.91,128.91,0,0,0,182.3-182.3,128.06,128.06,0,0,0-91.15-37.76Z"/><path class="cls-4" d="M71.2,162.61a127.9,127.9,0,0,1,215.6-93.11A127.9,127.9,0,1,0,101.62,245.41,127.39,127.39,0,0,1,71.2,162.61Z"/><path class="cls-5" d="M313.67,247a6.26,6.26,0,0,0-6.26,6.26h0a6.26,6.26,0,0,0-6.26-6.26h0a6.26,6.26,0,0,0,6.26-6.26h0a6.26,6.26,0,0,0,6.26,6.26Z"/><path class="cls-5" d="M110.9,24.4a6.26,6.26,0,0,0-6.26,6.26h0a6.26,6.26,0,0,0-6.26-6.26h0a6.26,6.26,0,0,0,6.26-6.26h0a6.26,6.26,0,0,0,6.26,6.26Z"/><line class="cls-3" x1="76.96" y1="45.55" x2="83.72" y2="52.3"/><line class="cls-3" x1="83.72" y1="45.55" x2="76.96" y2="52.3"/><circle class="cls-5" cx="327.66" cy="214.96" r="5.11"/><path class="cls-6" d="M100,82.16a89.12,89.12,0,0,1,27.83-26.79"/><line class="cls-6" x1="135.39" y1="52.1" x2="141.4" y2="49.01"/><path class="cls-7" d="M263.08,155.38c-40.53-2.2-95.49,2.89-140.15,3.57-31.88.49-52.55-3.38-61.77-5.64a127.9,127.9,0,0,0,255.73,2.36C305.31,156.15,287.09,156.68,263.08,155.38Z"/><path class="cls-5" d="M260.95.5c-.29,0-.52.9-.52,2v13s0,.06,0,.09a2.5,2.5,0,0,0-1.83,2.45,2.61,2.61,0,0,0,.28,1.14c-1.16.35-1.94,1-1.94,1.71v12A8,8,0,0,0,254.26,39a8.55,8.55,0,0,0,.36,2.44c-4.46,1-7.26,3.1-7.26,5.34,0,3.34,6.09,6,13.6,6s13.6-2.71,13.6-6c0-2.24-2.8-4.3-7.26-5.34a8.51,8.51,0,0,0,.36-2.44A8,8,0,0,0,265,32.93v-12c0-.73-.78-1.36-1.94-1.71a2.6,2.6,0,0,0,.26-1.14,2.49,2.49,0,0,0-1.82-2.45s0-.06,0-.09v-13C261.49,1.4,261.24.5,260.95.5Z"/><path class="cls-8" d="M234.18,200.72,247.51,83.36h27.61l12,118.07Z"/><polygon class="cls-4" points="287.13 201.43 275.12 83.36 272.16 83.36 284.17 201.39 287.13 201.43"/><path class="cls-1" d="M260.66,180.71c-5.15,0-9.3,2.5-9.3,5.6v11.83H270V186.31C270,183.21,265.81,180.71,260.66,180.71Z"/><path class="cls-9" d="M231.68,198.14h58a2.17,2.17,0,0,1,1.9,2.37v2.25a2.17,2.17,0,0,1-1.9,2.37h-58a2.17,2.17,0,0,1-1.9-2.37v-2.25A2.17,2.17,0,0,1,231.68,198.14Z"/><path class="cls-10" d="M238.29,171l2.43-21.73,40.37.05L283.21,171Z"/><path class="cls-10" d="M245.91,104.77,248.27,84h26.12l2.11,20.79Z"/><path class="cls-5" d="M247.27,63.46h27.39v19.9H247.27Z"/><path class="cls-11" d="M241.73,71.64a.92.92,0,0,0-.92.92v.74a.92.92,0,0,0,.92.92h.86L243.65,83a2,2,0,0,0,2.15,1.69h30.72a2,2,0,0,0,1.89-1.52l1.08-8.91h.45a.92.92,0,0,0,.92-.92v-.74a.92.92,0,0,0-.92-.92Zm3.86,2.58h5.16v6.24h-4.41Zm7.23,0h7.1v6.24h-7.1Zm9.17,0h7.23v6.24H262Zm9.3,0h5.18l-.75,6.24H271.3Z"/><path class="cls-5" d="M247.68,48.47h26.56V63.17H247.68Z"/><path class="cls-9" d="M247.62,46.19H274.3c.2,0,.36.22.36.49v1.6c0,.27-.16.49-.36.49H247.62c-.2,0-.36-.22-.36-.49v-1.6C247.26,46.41,247.42,46.19,247.62,46.19Z"/><path class="cls-9" d="M247.09,61.52h27.74a.92.92,0,0,1,.92.92v.74a.92.92,0,0,1-.92.92H247.09a.92.92,0,0,1-.92-.92v-.74A.92.92,0,0,1,247.09,61.52Z"/><path class="cls-9" d="M260.87,48.59a.84.84,0,0,0-.84.84v1.26c-1.82.28-3.17,1.32-3.32,2.58a.35.35,0,0,0,0,.19v.76c0,.13.05.24.11.24h0v6.88h8.34V54.46h0c.06,0,.11-.1.11-.24v-.76a.34.34,0,0,0,0-.19c-.16-1.31-1.6-2.38-3.51-2.61V49.43a.83.83,0,0,0-.84-.84Z"/><path class="cls-12" d="M258.45,53.31h5a.68.68,0,0,1,.68.68v2.6a.68.68,0,0,1-.68.68h-5a.68.68,0,0,1-.68-.68V54A.68.68,0,0,1,258.45,53.31Z"/><path class="cls-13" d="M261.93,112.79c2.68,0,4.84,1.26,4.84,2.83v6.08c0,1.57-2.16,2.83-4.84,2.83s-4.84-1.26-4.84-2.83v-6.08C257.08,114.06,259.24,112.79,261.93,112.79Z"/><path class="cls-13" d="M261.93,132.16c2.68,0,4.84,1.26,4.84,2.83v6.08c0,1.57-2.16,2.83-4.84,2.83s-4.84-1.26-4.84-2.83V135c0-1.57,2.16-2.83,4.84-2.83Z"/><path class="cls-1" d="M292.09,34.07c-4.63,0-8.41-3.47-8.41-7.74a7.75,7.75,0,0,1,5-7.05l1.49-.62L289.26,20a6.29,6.29,0,0,0-1,3.43c0,3.72,3.32,6.74,7.41,6.74a8,8,0,0,0,3.06-.61l1.49-.62-.88,1.35A8.52,8.52,0,0,1,292.09,34.07Z"/><path class="cls-2" d="M288.84,19.74h0m0,0a6.77,6.77,0,0,0-1.12,3.7c0,4,3.54,7.24,7.91,7.24a8.49,8.49,0,0,0,3.25-.65,8.06,8.06,0,0,1-6.79,3.54c-4.37,0-7.91-3.24-7.91-7.24a7.24,7.24,0,0,1,4.66-6.59m2.6-2.16-3,1.23a8.25,8.25,0,0,0-5.27,7.52c0,4.54,4,8.24,8.91,8.24a9,9,0,0,0,7.63-4l1.76-2.7-3,1.23a7.47,7.47,0,0,1-2.87.57c-3.81,0-6.91-2.8-6.91-6.24a5.79,5.79,0,0,1,1-3.15l1.76-2.7Z"/><path class="cls-1" d="M275.06,100.15l-.15-.24a8.58,8.58,0,0,1-1.38-4.57c0-5.64,5.68-10.22,12.67-10.22a7.3,7.3,0,0,1,.79.06h.1c3-4.6,8.82-7.45,15.25-7.45,8.8,0,16,5.23,17.09,12.25,5.18.13,9.34,3.57,9.34,7.79a6.31,6.31,0,0,1-.37,2l-.11.34Z"/><path class="cls-2" d="M302.34,78.24c8.78,0,15.9,5.4,16.65,12.26h.15c5,0,9.13,3.27,9.13,7.3a5.89,5.89,0,0,1-.34,1.88H275.34A8.11,8.11,0,0,1,274,95.35c0-5.37,5.45-9.72,12.17-9.72.39,0,.76.06,1.15.09,2.75-4.42,8.4-7.48,15-7.48m0-1c-6.47,0-12.34,2.83-15.49,7.42a6.34,6.34,0,0,0-.64,0c-7.26,0-13.17,4.81-13.17,10.72a9.07,9.07,0,0,0,1.46,4.83l.29.47h53.85l.23-.68a6.79,6.79,0,0,0,.4-2.19c0-4.38-4.16-8-9.41-8.28-1.29-7.05-8.64-12.27-17.51-12.27Z"/><path class="cls-4" d="M261.35,53.31,177,212.45l-77.56,1.15,161.1-160.3Z"/><line class="cls-14" x1="96.72" y1="214.98" x2="186.04" y2="214.98"/><path class="cls-9" d="M170.6,199.31l-1.33.13c-9.14,1.06-6.53,7.53-38.53,11.39-6.71.14-10.32-.91-12.32-2,1.86.4,4,0,5.71-2.52,2.92-4.38-1.33-12.61,1.2-15,1.86-1.73-5.71.93-9.16,4.78a7.38,7.38,0,0,0-.93,1.2c-.13,0-.13.13-.27.27a5.75,5.75,0,0,1-.53.93c0,.13-.13.13-.13.27a4,4,0,0,0-.53,1.06V200a8.68,8.68,0,0,1-.27.93v.27a2.27,2.27,0,0,0-.13.93c0,.27-.13.66-.13.93l-.13.13v.93a5.18,5.18,0,0,0,.93,2.12c-.26-.13-.4-.27-.66-.4a7.51,7.51,0,0,0-1.59-.53h-.13c-.27,0-.53-.13-.8-.13h-.13a5.32,5.32,0,0,0-2,.4c-.13,0-.13.13-.27.13s-.66.27-.93.4a.13.13,0,0,1-.13.13,4,4,0,0,0-1.06.53c-.13,0-.13.13-.27.13a5.58,5.58,0,0,0-.93.66l-.27.27c-.27.26-.66.53-1.06.93a20.32,20.32,0,0,0-3.8,5.58h16.08a5.53,5.53,0,0,0-.06-4.79l.13.13c.27.27.4.53.66.8a.13.13,0,0,1,.13.13c.27.4.66.66.93,1.06l.27.27,1.06,1.06a8,8,0,0,0,1.06,1.06l.27.27H178v-6.38C178,203.69,173.12,199.31,170.6,199.31ZM114.7,207a.13.13,0,0,1-.13-.13l.13.13.4.4c0,.13.13.27.13.4C115.1,207.54,114.83,207.28,114.7,207Z"/><path class="cls-15" d="M171.45,208.63a.8.8,0,1,1,.8.8.8.8,0,0,1-.8-.8Zm0,0"/><path class="cls-7" d="M161.76,179.28a2.61,2.61,0,0,1,2.52-2.52,2.52,2.52,0,0,1,2.52,2.52c0,1.46-1.2,9.3-2.52,9.3s-2.52-7.83-2.52-9.3Zm0,0"/><path class="cls-7" d="M155.92,189.77a1.78,1.78,0,1,1,2.52-2.52c.66.66,4,5.18,3.32,5.84s-5.18-2.66-5.84-3.32Zm0,0"/><path class="cls-7" d="M170.26,187.51a1.63,1.63,0,0,1,2.52,0,1.85,1.85,0,0,1,0,2.52c-.66.66-5.18,4-5.84,3.32s2.66-5.18,3.32-5.84Zm0,0"/><path class="cls-7" d="M164.15,195.75a.93.93,0,1,1,.93.93.93.93,0,0,1-.93-.93Zm0,0"/><path class="cls-7" d="M160,199.73a.8.8,0,1,1,.8.8.8.8,0,0,1-.8-.8Zm0,0"/><path class="cls-7" d="M153.53,176.23a2.12,2.12,0,1,1,2.12,2.12,2.13,2.13,0,0,1-2.12-2.12Zm0,0"/><line class="cls-14" x1="192.91" y1="214.38" x2="205.31" y2="214.38"/><path class="cls-8" d="M305.16,205.47a6.82,6.82,0,0,0-2.11-.33H229.59c-3.24,0-5.9,2.23-5.9,5s2.65,5,5.9,5h17.06c-3.24,0-5.9,2.23-5.9,5s2.65,5,5.9,5H235.29c-3.24,0-5.9,2.23-5.9,5s2.65,5,5.9,5h51A128,128,0,0,0,305.16,205.47Z"/><path class="cls-16" d="M20.48,84.32s-14.33,21.74,2,38.82C40.75,142.26,52,137,56,127.64c7.55-17.21-18.38-17.42-16.64-2.46,3.58,30.86,40.42,50.32,67,51.61"/><path class="cls-9" d="M43.89,96.21,36.85,82l-10.3,5.13Zm-17.35-9"/><path class="cls-5" d="M17.4,101.51,37.09,87.37l6,7.45-.47-10.69,15.52-7.53L.83,51.25ZM.83,51.25"/><path class="cls-2" d="M42.38,83.46l.42,10.43L37.15,87,.84,50.78ZM.84,50.78"/><line class="cls-14" x1="187.06" y1="244.67" x2="149.9" y2="244.67"/><line class="cls-14" x1="141.4" y1="244.67" x2="134.79" y2="244.67"/><line class="cls-3" x1="159" y1="253.31" x2="217.43" y2="253.31"/><line class="cls-3" x1="226.37" y1="253.31" x2="237.11" y2="253.31"/><line class="cls-3" x1="170" y1="261.94" x2="195.37" y2="261.94"/><line class="cls-3" x1="203" y1="261.94" x2="223.09" y2="261.94"/><path class="cls-1" d="M53.65,242.43l-.15-.24a8.78,8.78,0,0,1-1.42-4.67c0-5.76,5.81-10.45,13-10.45a7.56,7.56,0,0,1,.82.06H66c3.08-4.71,9-7.63,15.6-7.63,9,0,16.42,5.36,17.48,12.54,5.3.12,9.56,3.65,9.56,8a6.47,6.47,0,0,1-.38,2.08l-.11.34Z"/><path class="cls-2" d="M81.56,220c9,0,16.27,5.53,17,12.55h.15c5.16,0,9.35,3.34,9.35,7.47a6,6,0,0,1-.35,1.92H53.93a8.3,8.3,0,0,1-1.34-4.41c0-5.5,5.58-10,12.46-10,.4,0,.78.06,1.17.09C69,223.14,74.81,220,81.56,220m0-1c-6.62,0-12.63,2.9-15.85,7.6a6.53,6.53,0,0,0-.67,0c-7.42,0-13.46,4.91-13.46,11a9.26,9.26,0,0,0,1.49,4.94l.29.47h55.09l.23-.68a6.93,6.93,0,0,0,.4-2.24c0-4.47-4.26-8.15-9.63-8.45C98.15,224.34,90.64,219,81.56,219Z"/></g></g></svg>