<svg xmlns="http://www.w3.org/2000/svg" width="12.907" height="23.406" viewBox="0 0 12.907 23.406">
  <defs>
    <style>
      .cls-1 {
        fill: #ccc;
        fill-rule: evenodd;
      }
    </style>
  </defs>
  <path id="灰色.svg" class="cls-1" d="M719.338,367.327c0.015,0.03.039,0.055,0.052,0.086a1.5,1.5,0,0,1-.278,1.685l-10.145,10.159a1.328,1.328,0,0,1-1.95-.058,1.521,1.521,0,0,1,.055-2.063l9.1-9.117-9.067-9.251a1.521,1.521,0,0,1-.036-2.064,1.326,1.326,0,0,1,1.949-.038l10.053,10.258c0.02,0.02.027,0.048,0.046,0.07a0.574,0.574,0,0,1,.045.041,1.346,1.346,0,0,1,.173.292h0Z" transform="translate(-706.656 -356.25)"/>
</svg>
