<svg xmlns="http://www.w3.org/2000/svg" width="32" height="29" viewBox="0 0 32 29">
  <defs>
    <style>
      .cls-1 {
        fill: #ff9500;
        fill-rule: evenodd;
      }
    </style>
  </defs>
  <path id="商城.svg" class="cls-1" d="M61.963,434.959L55.11,423H36.923L30.21,434.713l-0.21.359a3.621,3.621,0,0,0,3.249,3.376v12.329A1.222,1.222,0,0,0,34.469,452H48.954v-8.69h4.079V452h4.651a1.222,1.222,0,0,0,1.22-1.222V438.43a3.623,3.623,0,0,0,3.1-3.358Zm-4.584,15.512H54.558V443a1.222,1.222,0,0,0-1.22-1.222H48.649A1.222,1.222,0,0,0,47.429,443v7.468H34.774v-12.2A3.629,3.629,0,0,0,36.7,436.7a3.606,3.606,0,0,0,6.2,0,3.606,3.606,0,0,0,6.2,0,3.606,3.606,0,0,0,6.2,0,3.623,3.623,0,0,0,2.083,1.615v12.152h0Zm1.016-13.533a2.092,2.092,0,0,1-2.075-1.866H54.272a2.087,2.087,0,0,1-4.15,0H48.075a2.087,2.087,0,0,1-4.15,0H41.877a2.087,2.087,0,0,1-4.15,0H35.68a2.086,2.086,0,0,1-4.093.307l6.218-10.851H54.227l6.2,10.812A2.092,2.092,0,0,1,58.395,436.938Z" transform="translate(-30 -423)"/>
</svg>
