<svg xmlns="http://www.w3.org/2000/svg" width="24" height="29" viewBox="0 0 24 29">
  <defs>
    <style>
      .cls-1 {
        fill: #ff9500;
        fill-rule: evenodd;
      }
    </style>
  </defs>
  <path id="地址.svg" class="cls-1" d="M44,282a12.076,12.076,0,0,0-12,12.15h0C32,302.473,44,311,44,311s12-8.527,12-16.85A12.076,12.076,0,0,0,44,282Zm0,26.784c-3.587-2.8-10.241-9.151-10.241-14.634a10.242,10.242,0,1,1,20.483,0C54.241,299.624,47.578,305.98,44,308.784Zm0-18.693a4.451,4.451,0,1,0,4.4,4.451h0a4.424,4.424,0,0,0-4.387-4.46H44v0.009Zm0,7.121a2.671,2.671,0,1,1,2.637-2.67h0A2.654,2.654,0,0,1,44,297.2v0.009Z" transform="translate(-32 -282)"/>
</svg>
