<svg xmlns="http://www.w3.org/2000/svg" width="254.63" height="96" viewBox="0 0 254.63 96"><defs><style>.cls-1{fill:#383a3a;}.cls-2{fill:red;}.cls-3{fill:#676b6b;}.cls-4{fill:#edeeef;}.cls-5{fill:#63696b;}.cls-6{fill:#1e262b;}.cls-7{fill:#3f4649;}.cls-8{fill:#444747;}.cls-9{fill:#d8d8d8;}.cls-10,.cls-11{fill:#333;}.cls-10{fill-rule:evenodd;}.cls-12{fill:#ff9500;}</style></defs><title>资源 43</title><g id="图层_2" data-name="图层 2"><g id="图层_1-2" data-name="图层 1"><path class="cls-1" d="M23.06,70.12a1.36,1.36,0,0,1,1.35,1.35v.84H21.47v-.24a.27.27,0,0,0-.3-.3H8.56v.54l-2.94,0V70.12H8L7.51,69h3.07l.52,1.14h2L12.62,69h3.07l.52,1.14H19L19.45,69h3.07L22,70.12ZM11.12,74.35l-.24.62H24.41v2.49q-.86.43-1.79.83t-1.92.78q.88.24,1.79.4t1.92.27v2a27.17,27.17,0,0,1-3.55-.57,35.11,35.11,0,0,1-3.38-1q-1.72.52-3.48.88a24.77,24.77,0,0,1-3.56.47v-2q1-.06,2-.2T14.25,79q-.9-.36-1.76-.75l-1.67-.77V75.14L8.46,81.71H5.64l2.66-7.37H5.62V72.76H8.86l.19-.52,2.81,0-.19.54H24.41v1.59Zm-5-7.21,17.91-1V68L6.07,69Zm11.4,11q1-.34,2-.73l2-.79H13.7l1.89.78Z"/><path class="cls-1" d="M41.22,79.56h3.22v2.13H25.55V79.56H28.7L27,76.92h3l1.72,2.64h1.83V76.34H26.26V74.22h7.24V72.46H27.2V71.6H25.55l1.65-5.43H42.75L44.4,71.6H42.77v.86H36.48v1.76h7.24v2.13H36.48v3.22h1.76L40,76.92h3Zm-12-11.27-.6,2H41.35l-.6-2Z"/><path class="cls-1" d="M48.5,71.15h-3V67.6l7.94,0-.58-1.44h3.27l.56,1.42h5.35a2.29,2.29,0,0,1,.9.18,2.36,2.36,0,0,1,.75.5,2.51,2.51,0,0,1,.52.75,2.18,2.18,0,0,1,.19.9v1.2h-3v-.74a.66.66,0,0,0-.19-.48.63.63,0,0,0-.47-.2H48.5ZM61.39,81.69H45.52V79.56h8.16V77.5H46V75.38h7.69V74H45.52V71.9h18.9V74H56.66v1.35h7.26V77.5H56.66v2.06h3.86l-.47-1.18h3l1.35,3.31h-3Z"/><path class="cls-1" d="M10.63,85.28,15.77,95.8h-.48l-1.95-3.92H7.85L5.94,95.8H5.51Zm0,.95L8,91.49h5.15Z"/><path class="cls-1" d="M17.27,85.52h.45V95.8h-.45Z"/><path class="cls-1" d="M21.2,85.92v-.4h3v7.12a3.55,3.55,0,0,1-.81,2.43,2.7,2.7,0,0,1-2.13.93h-.14a3,3,0,0,1-2-.78v-.56a2.71,2.71,0,0,0,2.07.94,2.34,2.34,0,0,0,1.89-.82,3.14,3.14,0,0,0,.68-2.09V85.92Z"/><path class="cls-1" d="M26.31,85.52h.45V95.79h-.45Z"/><path class="cls-1" d="M36.45,85.51h.4V95.93l-7.57-9.3v9.15h-.4V85.36l7.57,9.28Z"/><path class="cls-1" d="M38.9,85.51h.44a2.12,2.12,0,0,1,1.49.55,1.84,1.84,0,0,1,.6,1.42,2,2,0,0,1-.33,1.06,1.6,1.6,0,0,1-.79.71,3.19,3.19,0,0,1,1.75,1.12,3.34,3.34,0,0,1,.7,2.17,3.06,3.06,0,0,1-1,2.27,3.36,3.36,0,0,1-2.42,1h-.44Zm.44.38v3.23h.11a1.46,1.46,0,0,0,1.09-.5A1.63,1.63,0,0,0,41,87.47a1.52,1.52,0,0,0-.47-1.12,1.5,1.5,0,0,0-1.1-.47Zm0,3.6v5.9h.11a2.75,2.75,0,0,0,2-.88,3,3,0,0,0,0-4.16,2.75,2.75,0,0,0-2-.87Z"/><path class="cls-1" d="M48.71,85.26l5.14,10.52h-.48l-1.95-3.92H45.93L44,95.78h-.42Zm0,.95-2.56,5.26h5.15Z"/><path class="cls-1" d="M55.39,94.35a5.21,5.21,0,0,1-1.56-3.75,5.06,5.06,0,0,1,1.57-3.71,5.33,5.33,0,0,1,7.55,0,5.08,5.08,0,0,1,1.56,3.72A5.22,5.22,0,0,1,63,94.35a5,5,0,0,1-3.7,1.6h-.21A5,5,0,0,1,55.39,94.35Zm8.68-3.73a4.75,4.75,0,0,0-1.43-3.46,4.85,4.85,0,0,0-6.91,0,4.9,4.9,0,0,0,0,6.94,4.83,4.83,0,0,0,6.9,0A4.76,4.76,0,0,0,64.07,90.62Z"/><path class="cls-1" d="M61,92.44a5,5,0,0,1,0-3.69,5,5,0,0,1-3.69,0,5,5,0,0,1,0,3.69,5,5,0,0,1,3.69,0Z"/><path class="cls-2" d="M60.48,91.88a3.46,3.46,0,0,1,0-2.56,3.46,3.46,0,0,1-2.56,0,3.46,3.46,0,0,1,0,2.56,3.46,3.46,0,0,1,2.56,0Z"/><path class="cls-3" d="M18.88,3.6A10.82,10.82,0,1,0,3.22,18.52C5.93,12.12,11.58,6.81,18.88,3.6Z"/><path class="cls-4" d="M32.45,37.38H35V.3A40.18,40.18,0,0,0,18.88,3.6c-7.3,3.21-13,8.52-15.67,14.92a22,22,0,0,0-1.78,8.64C1.44,42,16.47,54,35,54V45.15a3,3,0,0,1-2.5-1.06L30.08,41C28.88,39.41,30.23,37.38,32.45,37.38Z"/><path class="cls-5" d="M17.24,21.42c5.43-1.37,10.72,1,11.8,5.32S26.61,35.65,21.17,37,10.46,36,9.37,31.7s2.44-8.91,7.87-10.28Zm0,0"/><path class="cls-6" d="M25.23,30.41a4.67,4.67,0,1,1-4.67-4.67,4.67,4.67,0,0,1,4.67,4.67Zm0,0"/><path class="cls-7" d="M32.45,37.38c-2.23,0-3.57,2-2.37,3.58l2.43,3.13A3,3,0,0,0,35,45.15V37.38Z"/><path class="cls-4" d="M21.92,31.76a3.66,3.66,0,0,1,0-2.71,3.66,3.66,0,0,1-2.71,0,3.66,3.66,0,0,1,0,2.71,3.66,3.66,0,0,1,2.71,0Z"/><path class="cls-8" d="M66.82,18.52A10.82,10.82,0,1,0,51.15,3.6C58.45,6.81,64.1,12.12,66.82,18.52Z"/><path class="cls-9" d="M66.82,18.52C64.1,12.12,58.45,6.81,51.15,3.6A40.18,40.18,0,0,0,35,.3V37.38h2.56c2.23,0,3.57,2,2.37,3.58l-2.43,3.13A3,3,0,0,1,35,45.15V54C53.56,54,68.6,42,68.6,27.16A22,22,0,0,0,66.82,18.52Z"/><path class="cls-5" d="M52.79,21.42c5.43,1.37,9,6,7.87,10.28S54.29,38.39,48.86,37s-9-6-7.87-10.28,6.37-6.69,11.8-5.32Zm0,0"/><path class="cls-6" d="M44.8,30.41a4.67,4.67,0,1,1,4.67,4.67,4.67,4.67,0,0,1-4.67-4.67Zm0,0"/><path class="cls-1" d="M37.58,37.38c2.23,0,3.57,2,2.37,3.58l-2.43,3.13A3,3,0,0,1,35,45.15V37.38Z"/><path class="cls-4" d="M48.12,31.76a3.66,3.66,0,0,0,0-2.71,3.66,3.66,0,0,0,2.71,0,3.66,3.66,0,0,0,0,2.71,3.66,3.66,0,0,0-2.71,0Z"/><path class="cls-10" d="M242.14,18.09A29.56,29.56,0,0,0,234,5.64a36.8,36.8,0,0,1,3.35,12.12,32.73,32.73,0,0,1,4.82.34Z"/><path class="cls-10" d="M254.13,27.27c-1.7-4.71-6.94-9.44-21.57-8.51-.34,1-.75,2-1.21,3.07a42.89,42.89,0,0,1-2.91,5.51,43.71,43.71,0,0,1,8.57.39,37.38,37.38,0,0,1-20.95,27.62,27.87,27.87,0,0,0,27.48-25.62c4.87,2.59,5.28,6.73,2.5,9.71,4.23-1.11,10.35-5.92,8.1-12.17Z"/><path class="cls-10" d="M230.06,21.54c7.49-17.36-1.23-22.79-9.53-21.31a16.85,16.85,0,0,0-11.24,7.64s14.67-5,10.15,9.21a41.3,41.3,0,0,1-1.5,4C204.83,24.43,189.77,34.19,185.38,43c5.73-5.6,16-10.67,27.8-13.44a49,49,0,0,1-13.67,13.54c-7.6,4.69-14.06,5.37-11.3-.25-3.57,3.19-4.25,7.65.73,9.56,8,3.07,32.89-11.85,41.11-30.87Z"/><path class="cls-10" d="M222.94,66.61,221,73.82h1.32v8.42S225,81.65,225,79.8V69.86l.73-3.23h-2.8v0Z"/><path class="cls-10" d="M187.09,82.23a2.23,2.23,0,0,0,2.3-1.91v-1h1.3a1.88,1.88,0,0,0,1.87-1.87V74c0-.66-.73-1.12-1.09-1.39.36-.3,1.09-.82,1.09-1.48V66.59h-5.48V82.23Zm2.3-13.72h.91v3.27a1.7,1.7,0,0,1-.48,1,2,2,0,0,1-.16.18s-.05,0-.09,0h.75v4.51h-.91v-9Z"/><path class="cls-10" d="M192.93,68.5h6.62V82.23A2.44,2.44,0,0,0,201.88,80V68.5a2.56,2.56,0,0,0,.87-1.91h-9.83V68.5Z"/><path class="cls-10" d="M193.36,79.28h2.73a2.65,2.65,0,0,0,2.78-2.57v-7h-5.51v9.56Zm2.18-7.73h1.18v6h-1.18v-6Z"/><path class="cls-10" d="M213.34,79.07h4.6c.66,0,1.28-1.14,1.64-1.77h-6.23V76h3.5a3,3,0,0,0,2.66-2.28V66.59H204.58V76h6.1V77.3h-6.17v1.77h6.16v1.36h-6.51v1.82h14.33c.57,0,1.11-1.14,1.55-1.8h-6.67V79.07Zm0-6.91h1.39a1.19,1.19,0,0,0,.62-.18c.21-.12,1.23-1.46,1.37-1.59h-3.37v-2h3.55V74.2h-3.55v-2Zm-2.68,2h-3.52v-2h3.52v2Zm0-3.8h-3.52v-2h3.5v2Z"/><path class="cls-10" d="M239.23,70.06v1.87h11.21c.71,0,1.05-1,1.05-1l.43,1h2.71l-1.07-2.48H251l.36.71h-8.9l.79-1.11h10.47c.59,0,.93-1.75.93-1.75h-6.21a2.4,2.4,0,0,0-3.68,0H239v1.75h1l-.75,1Z"/><path class="cls-10" d="M237.23,67.58H232.5V66.52h-2.59v1.05h-4.26v1.84H227l-1.68,12.33h2.32l1.78-12.33h.45V78.8H228.4v1.8h1.52v1.66s2.34-.5,2.57-1.66H233c.55,0,1.09-1.09,1.34-1.8H232.5V69.41H233L234.79,82s2.28-.52,2.09-1.75-1.46-10.87-1.46-10.87h.75c.75,0,1.07-1.84,1.07-1.84Z"/><path class="cls-10" d="M239.12,82.26s2.64-.59,2.64-2.21v-.5h8.1c.55,0,1.09-1.12,1.52-1.77h-9.62v-.86h8.1c.55,0,1.09-1.12,1.52-1.77h-9.62v-.82h9.8v6h-5.5v1.77h5.73a2.35,2.35,0,0,0,2.46-2.19V72.57H239.12v9.69Z"/><path class="cls-11" d="M190.33,86.35h1.31l2.91,7.55h-1.24L192.61,92h-3.25l-.71,1.95h-1.23ZM189.71,91h2.55L191,87.59h0Z"/><path class="cls-11" d="M195.31,86.2h1.12v7.7h-1.12Z"/><path class="cls-11" d="M199.19,86.46a.69.69,0,0,1,.22.54.75.75,0,0,1-.23.55.82.82,0,0,1-1.1,0,.75.75,0,0,1-.22-.55.69.69,0,0,1,.22-.54.74.74,0,0,1,.55-.21A.76.76,0,0,1,199.19,86.46Zm-1.12,2h1.12v5.47h-1.12Z"/><path class="cls-11" d="M205.07,90H204a1,1,0,0,0-.39-.61,1.58,1.58,0,0,0-.87-.19,1.48,1.48,0,0,0-.76.15.52.52,0,0,0-.3.49q0,.28.44.49a9.62,9.62,0,0,0,1.1.33,4.74,4.74,0,0,1,1.39.52,1.29,1.29,0,0,1,.66,1.14q0,1.73-2.43,1.74-2.24,0-2.43-1.92h1.1a1.22,1.22,0,0,0,.39.78,1.57,1.57,0,0,0,.91.21q1.31,0,1.31-.74a.69.69,0,0,0-.49-.62,6,6,0,0,0-1.1-.32,4.4,4.4,0,0,1-1.35-.48,1.24,1.24,0,0,1-.64-1.1,1.32,1.32,0,0,1,.61-1.16,2.78,2.78,0,0,1,1.61-.42Q204.88,88.29,205.07,90Z"/><path class="cls-11" d="M210.83,89.15a3.57,3.57,0,0,1,0,4.05,2.21,2.21,0,0,1-1.85.86,2,2,0,0,1-1.67-1V96H206.2V88.44h1v.66a1.94,1.94,0,0,1,1.69-.8A2.31,2.31,0,0,1,210.83,89.15Zm-3.19.63a2.35,2.35,0,0,0-.35,1.35v.1a2.17,2.17,0,0,0,.43,1.42,1.22,1.22,0,0,0,1,.5A1.4,1.4,0,0,0,210,92.6a2.43,2.43,0,0,0,.36-1.41,2.64,2.64,0,0,0-.33-1.41,1.35,1.35,0,0,0-1.22-.59A1.28,1.28,0,0,0,207.64,89.78Z"/><path class="cls-11" d="M217,89.11a3,3,0,0,1,.74,2.06,2.9,2.9,0,0,1-.73,2,2.81,2.81,0,0,1-4,0,3.23,3.23,0,0,1,0-4.1,2.81,2.81,0,0,1,4,0Zm-3.2.71a2.64,2.64,0,0,0,0,2.7,1.39,1.39,0,0,0,1.21.61,1.44,1.44,0,0,0,1.22-.61,2.27,2.27,0,0,0,.38-1.34,2.23,2.23,0,0,0-.38-1.35,1.42,1.42,0,0,0-1.22-.61A1.38,1.38,0,0,0,213.84,89.82Z"/><path class="cls-11" d="M222.09,88.43v1.12a2.69,2.69,0,0,0-.79-.12,1.24,1.24,0,0,0-.91.41A1.6,1.6,0,0,0,220,91v2.9h-1.12V88.44H220v.83a1.64,1.64,0,0,1,.53-.67,1.34,1.34,0,0,1,.89-.31A1.6,1.6,0,0,1,222.09,88.43Z"/><path class="cls-11" d="M224.44,86.67v1.77h1.25v.93h-1.25v3.17a.5.5,0,0,0,.1.33.4.4,0,0,0,.3.11h.72v.93h-.9a1.28,1.28,0,0,1-1-.37,1.43,1.43,0,0,1-.31-1V89.37h-1v-.93h1v-1.3Z"/><path class="cls-11" d="M231,90h-1.09a1,1,0,0,0-.39-.61,1.58,1.58,0,0,0-.87-.19,1.48,1.48,0,0,0-.76.15.52.52,0,0,0-.3.49q0,.28.44.49a9.62,9.62,0,0,0,1.1.33,4.74,4.74,0,0,1,1.39.52,1.29,1.29,0,0,1,.66,1.14q0,1.73-2.43,1.74-2.24,0-2.43-1.92h1.1a1.22,1.22,0,0,0,.39.78,1.57,1.57,0,0,0,.91.21q1.31,0,1.31-.74a.69.69,0,0,0-.49-.62,6,6,0,0,0-1.1-.32A4.4,4.4,0,0,1,227,91a1.24,1.24,0,0,1-.64-1.1,1.32,1.32,0,0,1,.61-1.16,2.78,2.78,0,0,1,1.61-.42Q230.76,88.29,231,90Z"/><path class="cls-11" d="M233.2,93a.48.48,0,0,1,.16.38.53.53,0,0,1-.17.38.55.55,0,0,1-.37.15.5.5,0,0,1-.38-.16.51.51,0,0,1-.16-.37.48.48,0,0,1,.16-.38.49.49,0,0,1,.38-.15A.52.52,0,0,1,233.2,93Z"/><path class="cls-11" d="M238.75,88.76a2.08,2.08,0,0,1,.75,1.46h-.63a1.56,1.56,0,0,0-.55-1,1.83,1.83,0,0,0-1.16-.35,1.64,1.64,0,0,0-1.38.67,3.17,3.17,0,0,0,0,3.37,1.64,1.64,0,0,0,1.39.62,1.61,1.61,0,0,0,1.76-1.56h.62a2.49,2.49,0,0,1-.78,1.58,2.36,2.36,0,0,1-1.6.53,2.28,2.28,0,0,1-1.88-.83,3.07,3.07,0,0,1-.62-2,3.18,3.18,0,0,1,.65-2.05,2.25,2.25,0,0,1,1.87-.87A2.54,2.54,0,0,1,238.75,88.76Z"/><path class="cls-11" d="M244.87,89.16a3.38,3.38,0,0,1,0,4,2.59,2.59,0,0,1-3.87,0,3.07,3.07,0,0,1-.67-2,3,3,0,0,1,.68-2,2.35,2.35,0,0,1,1.92-.87A2.41,2.41,0,0,1,244.87,89.16Zm-3.41.4a2.92,2.92,0,0,0,0,3.23,1.87,1.87,0,0,0,3,0,2.65,2.65,0,0,0,.49-1.61,2.61,2.61,0,0,0-.49-1.62,1.87,1.87,0,0,0-3,0Z"/><path class="cls-11" d="M250.59,89.41a2.13,2.13,0,0,1,.73-.84,1.7,1.7,0,0,1,1-.29,1.8,1.8,0,0,1,1.38.54,2.16,2.16,0,0,1,.5,1.5v3.58h-.63V90.42a1.79,1.79,0,0,0-.32-1.16,1.35,1.35,0,0,0-1.09-.41,1.26,1.26,0,0,0-1,.46,1.6,1.6,0,0,0-.4,1.13v3.48h-.65V90.42q0-1.58-1.36-1.58a1.26,1.26,0,0,0-1,.5,1.78,1.78,0,0,0-.42,1.21v3.36h-.63V88.44h.63v.83a1.78,1.78,0,0,1,1.59-1A1.65,1.65,0,0,1,250.59,89.41Z"/><path class="cls-12" d="M130.37,51.42q2.25-2.64,2.25-4,0-.81-1.17-1.14v-.33l5.33-.36v.39a6.16,6.16,0,0,0-2.36,1.57q-1.14,1.15-3.67,4.38,2.22,3.06,3.94,3.06a3.05,3.05,0,0,0,1.92-.83.41.41,0,0,1,.22-.11c.11,0,.17.08.17.25a2.25,2.25,0,0,1-.26.89,2.11,2.11,0,0,1-1,.93,3.45,3.45,0,0,1-1.61.37,3.81,3.81,0,0,1-2.22-.69,16.64,16.64,0,0,1-2.47-2.28,10.41,10.41,0,0,1-2.94,2.25,7.59,7.59,0,0,1-3.39.75,5,5,0,0,1-3.75-1.39A4.76,4.76,0,0,1,118,51.61q0-3.58,5.31-5.31A10.57,10.57,0,0,1,121.66,44a3.7,3.7,0,0,1-.35-1.49,2.66,2.66,0,0,1,1-2.15,4.25,4.25,0,0,1,2.76-.85,3.82,3.82,0,0,1,2.6.83,2.77,2.77,0,0,1,1,2.19Q128.68,45,126,46Zm-6.64-4.61a5.37,5.37,0,0,0-2.53,1.71,3.92,3.92,0,0,0-.92,2.49,3.4,3.4,0,0,0,1.33,2.81,5,5,0,0,0,3.22,1.06A5.38,5.38,0,0,0,129,53Zm1.72-1.25a2.91,2.91,0,0,0,1.67-2.78,3,3,0,0,0-.58-2,2,2,0,0,0-2.86-.22,1.58,1.58,0,0,0-.53,1.21,2.63,2.63,0,0,0,.4,1.35A20.58,20.58,0,0,0,125.46,45.56Z"/></g></g></svg>