<svg xmlns="http://www.w3.org/2000/svg" width="750" height="314" viewBox="0 0 750 314"><defs><style>.cls-1{fill:#fff;}.cls-2,.cls-6{fill:#ff9500;}.cls-3,.cls-5{fill:#e5e5e5;}.cls-4,.cls-5,.cls-6{fill-rule:evenodd;}</style></defs><title>资源 14</title><g id="图层_2" data-name="图层 2"><g id="图层_1-2" data-name="图层 1"><rect class="cls-1" width="750" height="314"/><path class="cls-2" d="M313.4,282.18q3.64,4.14,7.16,8.89l-1.26,1.32a102.1,102.1,0,0,0-6.48-8.41,57,57,0,0,1-7.31,10l-1.15-1.49a56.64,56.64,0,0,0,7.49-10.28Zm-7,15.29H319V299a43.62,43.62,0,0,1-5.54,8.83q2.16,2,4,4.07l-1.37,1.32a64,64,0,0,0-9-8.34l1.33-1.25q2.16,1.67,3.74,3a50.24,50.24,0,0,0,4.75-7.44H306.38Zm5.72-7.89a40.88,40.88,0,0,1,3.74,5.52l-1.44,1a37.88,37.88,0,0,0-3.71-5.66ZM327.76,294h1.87v5.91a17.45,17.45,0,0,1-2.2,8.86,13.56,13.56,0,0,1-6.7,4.83l-1-1.56a12.1,12.1,0,0,0,6.26-4.48,15.61,15.61,0,0,0,1.8-7.64Zm-7.67-10.56H337v1.81H329.6a36.74,36.74,0,0,1-.76,4.34h6.8V305.7H333.7V291.39h-10v14.52h-1.91V289.58h5.11a29,29,0,0,0,.76-4.34h-7.6ZM331.18,306a47.51,47.51,0,0,1,6.34,6.22l-1.37,1.35a45.53,45.53,0,0,0-6.3-6.36Z"/><path class="cls-2" d="M341.15,283.33h17.06v1.77h-3.06v20.19l3.6-.9v1.88q-.68.14-1.8.42-1.3.35-1.8.45v6.5h-1.94v-6q-5.62,1.18-11.84,2.08l-.47-1.84,3.21-.42V285.1h-3Zm4.9,7.78h7.16v-6h-7.16Zm0,7.61h7.16v-5.87h-7.16Zm0,8.37q3.56-.63,7.16-1.36v-5.32h-7.16ZM359.84,287h-1.3v-1.81h13.39v1.74a46.35,46.35,0,0,1-5,16.85,38.32,38.32,0,0,0,6.66,8.23l-1.3,1.46a41.7,41.7,0,0,1-6.41-8,30.16,30.16,0,0,1-7.31,8L357.28,312a29.81,29.81,0,0,0,7.49-8.41A41.54,41.54,0,0,1,359.84,287Zm1.76,0a39.65,39.65,0,0,0,4.18,14.84A43.81,43.81,0,0,0,370.13,287Z"/><path class="cls-2" d="M376.72,292.6H384v15.64q2.16-1.74,4.21-3.72l.5,2a45.69,45.69,0,0,1-6.44,5.21l-.76-1.74a1.65,1.65,0,0,0,.65-1.18V294.44h-5.47Zm4-10.42a41.76,41.76,0,0,1,6.08,5.49L385.47,289a39.27,39.27,0,0,0-6.12-5.56Zm18.54,3.3H388.93v-1.84h20v1.84h-7.71v10.39h7.24v1.77h-7.24v12.79h8.46v1.84H387.85v-1.84h3.82v-18.8h1.91v18.8h5.69Z"/><path class="cls-2" d="M426.08,281.62H428v6.29h10.58v.9l-.79,8.44H443q0,9.73-1.62,11.4a4.24,4.24,0,0,1-2.12,1.08,16.8,16.8,0,0,1-2.12.21h-2.38l-.54-1.77h3.24a3.38,3.38,0,0,0,2.59-.9q.86-1.08,1-8.16H428v14.42h-1.94V299.1H413v-1.84h13.07v-7.5h-11v-1.84h11ZM428,297.26h7.92l.72-7.5H428Zm9.21-15.43a33.71,33.71,0,0,1,7.42,5l-1.08,1.53a32.44,32.44,0,0,0-7.34-5.11Z"/><polygon class="cls-3" points="360.45 9.21 289.83 9.21 289.83 161.09 360.45 164.71 360.45 9.21"/><path class="cls-4" d="M360.52,172.25h-65.6A12.17,12.17,0,0,1,283,159.88V13A12.16,12.16,0,0,1,294.92.65H419.1A12.16,12.16,0,0,1,431,13v80.8H419.1V13l-124.17-.38V159.88l65.59.39v12h0m0,0"/><path class="cls-4" d="M307.6,36H406v8H307.6V36h0m0,0"/><path class="cls-4" d="M307.6,59.61H406v8H307.6v-8h0m0,0"/><path class="cls-4" d="M307.6,83.21H383v8H307.6v-8h0m0,0"/><polygon class="cls-5" points="390.72 181.36 401.93 183.61 416.51 165.58 426.6 167.84 443.42 189.24 449.02 180.23 459.11 183.61 443.42 156.57 426.6 163.33 407.54 163.33 397.45 158.82 390.72 181.36"/><path class="cls-6" d="M417.51,160.76s12.36-3,15.94-17.72c1.79-7.34-1.79-18.08-8.58-23.26,0,0,23.51,3,19.66,24.4S417.51,160.76,417.51,160.76Z"/><path class="cls-4" d="M466.63,184.34l-16.56-31a31.26,31.26,0,1,0-57.06,0L376.16,184a2.86,2.86,0,0,0,.21,3.09,2.81,2.81,0,0,0,2.9,1.07l14.28-3.24,4.84,13.69a2.86,2.86,0,0,0,2.43,1.9h.23a2.85,2.85,0,0,0,2.51-1.49l14.73-27.33c1,.12,2,.31,3.09.33a28.51,28.51,0,0,0,2.86-.29l14.85,27.45a2.8,2.8,0,0,0,2.51,1.5.52.52,0,0,0,.21,0,2.92,2.92,0,0,0,2.48-1.85l4.93-13.66,14.25,3.34a2.82,2.82,0,0,0,2.9-1,2.91,2.91,0,0,0,.26-3.09h0m-65.68-3.79-1.78-5a1.42,1.42,0,0,0-1.66-.93l-5.31,1.2,7.5-13.55a30.6,30.6,0,0,0,8.1,5.73l-6.85,12.58h0m20.47-20a20.06,20.06,0,1,1,20-20,20,20,0,0,1-20,20h0m24.48,16.26a1.69,1.69,0,0,0-2,1.07l-2.11,5.95-8-14.86c3.64-2,6.29-3.47,9.56-6.75l8.82,16-6.25-1.42h0m0,0"/><path d="M328.13,116.09a1.59,1.59,0,0,1,1.58,1.59v1h-3.44v-.28a.31.31,0,0,0-.35-.35H311.17v.63l-3.44,0v-2.55h2.79l-.58-1.34h3.59l.6,1.34h2.36l-.58-1.34h3.59l.6,1.34h3.22l.58-1.34h3.59l-.58,1.34Zm-14,5-.28.73h15.83v2.93q-1,.51-2.1,1t-2.25.92q1,.28,2.1.47t2.25.32v2.32a31.65,31.65,0,0,1-4.16-.67,40.92,40.92,0,0,1-4-1.12q-2,.61-4.07,1a28.85,28.85,0,0,1-4.17.56v-2.35q1.18-.08,2.29-.24t2.19-.42q-1.06-.43-2.06-.88l-2-.91V122L311,129.72h-3.29l3.12-8.66h-3.14v-1.87h3.79l.23-.61,3.29,0-.23.63h14.9v1.87Zm-5.91-8.49,21-1.14v2.2l-21,1.14Zm13.34,12.88q1.21-.4,2.36-.86l2.36-.93h-9.15l2.21.92Q320.47,125,321.6,125.46Z"/><path d="M349.39,127.2h3.77v2.5H331v-2.5h3.69l-2-3.11h3.49l2,3.11h2.14v-3.79h-8.47v-2.5h8.47v-2.07H333v-1H331l1.93-6.39h18.19l1.93,6.39H351.2v1h-7.36v2.07h8.47v2.5h-8.47v3.79h2.06l2-3.11h3.47Zm-14.07-13.26-.7,2.4h14.93l-.7-2.4Z"/><path d="M357.91,117.3h-3.49v-4.17l9.29,0-.68-1.69h3.83l.65,1.67h6.26a2.66,2.66,0,0,1,1.06.21,2.76,2.76,0,0,1,.88.59,3,3,0,0,1,.6.88,2.57,2.57,0,0,1,.23,1.06v1.41H373v-.87a.78.78,0,0,0-.23-.56.74.74,0,0,0-.55-.24H357.91ZM373,129.7H354.41v-2.5H364v-2.42h-9v-2.5h9v-1.59h-9.55v-2.5h22.11v2.5h-9.07v1.59h8.49v2.5h-8.49v2.42H372l-.55-1.39h3.52l1.58,3.89H373Z"/><path d="M313.59,133.92l6,12.37H319l-2.28-4.61h-6.43l-2.24,4.61h-.5Zm0,1.11-3,6.19h6Z"/><path d="M321.36,134.21h.53v12.08h-.53Z"/><path d="M326,134.67v-.47h3.49v8.38a4.19,4.19,0,0,1-1,2.85,3.15,3.15,0,0,1-2.49,1.1h-.16a3.55,3.55,0,0,1-2.36-.92v-.66a3.16,3.16,0,0,0,2.42,1.11,2.73,2.73,0,0,0,2.21-1,3.7,3.7,0,0,0,.8-2.46v-8Z"/><path d="M331.94,134.2h.53v12.08h-.53Z"/><path d="M343.8,134.19h.46v12.26l-8.86-10.93v10.76H335V134l8.86,10.92Z"/><path d="M346.67,134.19h.51a2.48,2.48,0,0,1,1.75.65,2.17,2.17,0,0,1,.71,1.67,2.37,2.37,0,0,1-.39,1.25,1.87,1.87,0,0,1-.92.83,3.73,3.73,0,0,1,2.05,1.32,3.94,3.94,0,0,1,.82,2.55,3.61,3.61,0,0,1-1.17,2.68,3.92,3.92,0,0,1-2.84,1.14h-.51Zm.51.45v3.8h.13a1.7,1.7,0,0,0,1.27-.59,1.92,1.92,0,0,0,.55-1.35,1.8,1.8,0,0,0-.55-1.31,1.75,1.75,0,0,0-1.28-.55Zm0,4.24v6.94h.13a3.21,3.21,0,0,0,2.38-1,3.49,3.49,0,0,0,0-4.89,3.21,3.21,0,0,0-2.39-1Z"/><path d="M358.15,133.89l6,12.37h-.56l-2.28-4.61H354.9l-2.24,4.61h-.5Zm0,1.11-3,6.19h6Z"/><path d="M366,144.58a6.14,6.14,0,0,1-1.82-4.4,6,6,0,0,1,1.84-4.37,6.24,6.24,0,0,1,10.66,4.36,6.15,6.15,0,0,1-1.81,4.42,5.81,5.81,0,0,1-4.33,1.88h-.24A5.78,5.78,0,0,1,366,144.58Zm10.15-4.38a5.6,5.6,0,0,0-1.68-4.07,5.66,5.66,0,0,0-8.09,0,5.79,5.79,0,0,0,0,8.16,5.63,5.63,0,0,0,8.08,0A5.61,5.61,0,0,0,376.12,140.2Z"/><path d="M372.57,142.34a5.88,5.88,0,0,1,0-4.34,5.8,5.8,0,0,1-4.31,0,5.88,5.88,0,0,1,0,4.34,5.8,5.8,0,0,1,4.32,0Z"/><path class="cls-2" d="M371.92,141.68a4.09,4.09,0,0,1,0-3,4,4,0,0,1-3,0,4.09,4.09,0,0,1,0,3,4,4,0,0,1,3,0Z"/></g></g></svg>