<svg xmlns="http://www.w3.org/2000/svg" width="750" height="1218.65" viewBox="0 0 750 1218.65"><defs><style>.cls-1{fill:#348182;}.cls-2{fill:#9cceab;}.cls-3{fill:#60b780;}.cls-16,.cls-25,.cls-29,.cls-3,.cls-30,.cls-4,.cls-7,.cls-8{fill-rule:evenodd;}.cls-17,.cls-37,.cls-4{fill:#fff;}.cls-5{fill:#616262;}.cls-6{fill:#3c1500;}.cls-7{fill:#003d16;}.cls-8{fill:#005c1f;}.cls-9{fill:#252626;}.cls-10,.cls-16{fill:#ffc5a6;}.cls-11{fill:#121212;}.cls-12{fill:#249dad;}.cls-13{fill:#2c0c00;}.cls-14{fill:aqua;}.cls-15{fill:#9a4a43;}.cls-18{fill:#fccaa7;}.cls-19{fill:#515f75;}.cls-20{fill:#626f86;}.cls-21{fill:#34bdcd;}.cls-22{fill:#eba33d;}.cls-23{fill:#c1272d;}.cls-24{fill:#f0f;}.cls-25,.cls-27{fill:#ffd09c;}.cls-26{fill:#ef655b;}.cls-28{fill:#6e6c6b;}.cls-29{fill:#f7c383;}.cls-30{fill:#62bf46;}.cls-31{fill:#f6786a;}.cls-32{fill:#bcbcbc;}.cls-33{fill:#fefffd;}.cls-34,.cls-36{fill:#ebf2f2;}.cls-34{opacity:0.5;}.cls-35{fill:#fdab0b;}.cls-36{opacity:0.6;}.cls-37{opacity:0.2;}.cls-38{fill:#f0f2f2;}.cls-39{fill:#e5e5e5;}.cls-40{fill:#ededed;}</style></defs><title>zhengshubg</title><g id="图层_2" data-name="图层 2"><g id="图层_1-2" data-name="图层 1"><rect class="cls-1" width="750" height="1218"/><rect class="cls-2" y="1192.65" width="750" height="26"/><path class="cls-3" d="M750,1192.54H0V939.2H46.88l46.87-35.88,46.88,35.88,93.75-89.7,93.75,89.7L375,912.29l46.88,26.91,93.75-107.64L609.38,939.2h46.88l46.87-44.85L750,939.2Z"/><path class="cls-4" d="M78.87,914.71l14.88-11.39,8.92,6.83-17.39,8.5-6.41-3.94Zm110.52-22.17,45-43L287.21,900l-41.13-15.82-17.69,8.31Zm171.43,27.89L375,912.29l12.45,7.14L374.84,924l-14-3.56Zm127-56.91,27.83-32,23.09,26.51-24.44,9.55-26.49-4.1Zm196.95,48.43,18.39-17.59,19.62,18.78-18,9.68Z"/><rect class="cls-5" y="1026" width="750" height="59.98"/><rect class="cls-6" x="642.11" y="982.63" width="7.71" height="43.77"/><polygon class="cls-7" points="645.97 919.09 673.26 1014.02 645.97 1014.02 618.67 1014.02 645.97 919.09"/><path class="cls-8" d="M652.23,940.89l2.31,8-13.34,4.83-4.77-1.51,4.06-14.14,5.75-.67,6,3.45Zm9.26,32.22,8.61,29.94-3.09,1.73-18.1-12.16-12.16,5.93-12.27-4.74L631,971.25l8.16,6.53h16Z"/><rect class="cls-6" x="712.93" y="997.02" width="5.18" height="29.38"/><polygon class="cls-7" points="715.52 954.37 697.2 1018.09 715.52 1018.09 733.84 1018.09 715.52 954.37"/><path class="cls-8" d="M711.31,969l-1.55,5.39,9,3.24,3.2-1-2.73-9.49-3.86-.45-4,2.32Zm-6.22,21.63-5.78,20.1,2.07,1.16,12.15-8.16,8.16,4,8.24-3.18-4.35-15.14-5.48,4.38H709.36Z"/><rect class="cls-6" x="109.29" y="993.47" width="5.8" height="32.93"/><polygon class="cls-7" points="112.19 945.67 91.66 1017.09 112.19 1017.09 132.72 1017.09 112.19 945.67"/><path class="cls-8" d="M107.48,962.07l-1.74,6,10,3.63,3.59-1.13L116.31,960l-4.33-.5-4.5,2.6Zm-7,24.24L94,1008.83l2.32,1.3L110,1001l9.15,4.46,9.23-3.56-4.88-17-6.14,4.91H105.28Z"/><path class="cls-2" d="M266.82,1130.59H37.5a5.7,5.7,0,1,1,0-11.39H266.82a5.7,5.7,0,1,1,0,11.39Z"/><path class="cls-2" d="M525.52,1162.24H296.2a5.7,5.7,0,0,1,0-11.39H525.52a5.7,5.7,0,0,1,0,11.39Z"/><path class="cls-2" d="M675,1129.53H445.73a5.7,5.7,0,0,1,0-11.39H675a5.7,5.7,0,1,1,0,11.39Z"/><path class="cls-2" d="M200.36,1165.8H115.82a5.7,5.7,0,0,1,0-11.39h84.54a5.7,5.7,0,0,1,0,11.39Z"/><path class="cls-2" d="M691.15,1165.8H606.61a5.7,5.7,0,1,1,0-11.39h84.54a5.7,5.7,0,0,1,0,11.39Z"/><path class="cls-9" d="M679.57,1052.27h-47.5a3.8,3.8,0,0,1,0-7.59h47.5a3.8,3.8,0,1,1,0,7.59Z"/><path class="cls-9" d="M85,1051.86H37.53a3.8,3.8,0,0,1,0-7.59H85a3.8,3.8,0,1,1,0,7.59Z"/><path class="cls-9" d="M175.73,1073.26H78.17a3.8,3.8,0,1,1,0-7.59h97.56a3.8,3.8,0,1,1,0,7.59Z"/><path class="cls-9" d="M724.38,1072.37h-47.5a3.8,3.8,0,0,1,0-7.6h47.5a3.8,3.8,0,1,1,0,7.6Z"/><path class="cls-9" d="M501.38,1048.37h-47.5a3.8,3.8,0,0,1,0-7.6h47.5a3.8,3.8,0,1,1,0,7.6Z"/><path class="cls-9" d="M504.28,1071.4H305c-1,0-1.85-1.7-1.85-3.8s.83-3.8,1.85-3.8h199.3c1,0,1.85,1.7,1.85,3.8S505.3,1071.4,504.28,1071.4Z"/><path class="cls-10" d="M175.47,1080.11s-2.25,7.72,2,21.62c0,0-16.34-8.4-39.25-7.87,0,0-19.76-4.46-26.06-9.45l-5.51,10.24s58,40.94,81.36,31.49c0,0,18.5-7.08,14.11-44.62Z"/><path class="cls-10" d="M244.83,1052.48s14.4,14,18.14,24.27c0,0,15.78,55.59,14.71,107.93l-11.34.46s-11.1-33-14.3-45.86-9.05-45.41-9.05-45.41l-22.27-22.67Z"/><path class="cls-10" d="M224.47,936.06s10.15,5.14,10.85,16.53c0,0,6.5,21.14,4.18,40.43,0,0,26.72-9.06,40.66-10.45l3.72,6.27s-25.32,20.68-51.58,16.73c0,0-10.45-4.18-16-28.34Z"/><path class="cls-10" d="M174.22,931.46s-12.34.64-19.72,7.7c0,0-22.77,6.89-33.51,24.21,0,0-15.23,28.22,23.25,64.45l5.45-5.45s-17-34.63-17.31-46.49c0,0,21.64-8.18,26.13-16.83,0,0,7.86,2.08,13.31-3.85Z"/><path class="cls-10" d="M207.45,927.49s17.42,4.18,17.42,10.11,7.32,14.29,0,40.08a185.74,185.74,0,0,0-7.09,47.39s-24.28,12.2-42.75-2.79c0,0,2.24-41.94-4.38-66l2.81-24.79S189.32,925.05,207.45,927.49Z"/><path class="cls-11" d="M175,1022.28s-6,8.72-5.9,25.22,4.33,35.33,4.33,35.33l32.76,1.25s.91-13.83-3.66-33.22c-.68-2.9,22.3,27.42,22.3,27.42s19.42-18.41,25.46-19.58c0,0-16.22-28.95-32.54-33.63Z"/><path class="cls-12" d="M227,968.4c-.07.31-.14.67-.2,1.06C226.91,969.11,227,968.75,227,968.4Z"/><polygon class="cls-12" points="213.02 929.15 213.02 929.15 213.02 929.15 213.02 929.15"/><path class="cls-12" d="M227.06,968.32a22.17,22.17,0,0,0,.53-3.36c-.15,1.1-.33,2.25-.54,3.45Z"/><polygon class="cls-12" points="188.13 927.78 188.13 927.78 188.13 927.78 188.13 927.78"/><path class="cls-12" d="M175,1022.28c18.47,15,42.75,2.79,42.75,2.79a185.74,185.74,0,0,1,7.09-47.39c.84-3,1.48-5.68,2-8.21.06-.39.13-.75.2-1.06.21-1.19.4-2.35.54-3.45.57-7.51-3.2-13-6.66-20.27a51.16,51.16,0,0,1-4.65-14.31L213,929.15h0v10.66c0,3.95-2.79,8.83-13.53,7.2s-11.35-19.22-11.35-19.23h0l-5.33,1c6.72,22.54-9.33,33.22-9.33,33.22l-1.27,1C177.11,987.32,175,1022.28,175,1022.28Z"/><path class="cls-10" d="M214.28,917.88s-4.53,4.34-4,7.39,1.16,7.66,1.16,7.66-11.87,9.45-22.67-2.15c0,0,5.68-7.08,4.12-14.7l7.19-9.51,9.1,1.29Z"/><path class="cls-10" d="M224.4,879.27s2.64,8,2.8,10.81-1.86,2.37-1.27,3.72,5.83,7.48,5,9-4.21.63-4.21.63a5.23,5.23,0,0,0-1.06,2.51l-5.43.82s2,3.62,4.12,3.49c0,0-1.23.9-.27,3.37s1.51,3.5-.33,4.29-7.89.93-12.3-1.87-18.55,0-18.55,0L193.4,885l7.85-2.23,11.64-5.93Z"/><path class="cls-13" d="M227.58,872.65s1.68,7.71-6,8.61-11.07.23-10.1,4,4.6,4.92,1.1,7.54-6.3,8.26-3.71,11.53,9.12,3.33,11.05,1.86,6-1.23,6-1.23l-.2.82-5.46,1s1.63,3,4.12,3.49a3.15,3.15,0,0,0-.27,3.37c1,1.81,1.67,5.1-1.61,5.21s-9.27-.22-12-3.27-4.1-4.87-4.71-8.9.55-11.51-1.38-13.5-5.86-2.51-5.74.47.75,6.68,2.79,7.68-3.48,8.56-3.48,8.56-1.79,4.58-6.14,6c0,0-3.48-5.74-5.53-7.26s-7.72-14-5.59-21.49,8.24-19,16.78-21.2,22.77-.56,22.77-.56S224.52,865.06,227.58,872.65Z"/><polygon class="cls-14" points="106.67 1094.65 101.5 1090.76 104.09 1082.22 108.99 1081.01 112.18 1084.41 106.67 1094.65"/><path class="cls-14" d="M103,1073s-1.68-4-3.6-2.91-7.87,8.63-12.13,14.65-18,24.52-14.14,27.15,1.5.54,1.5.54Z"/><path class="cls-15" d="M113.08,1082s-9.11,5-9.29,9.09.37,4.58.37,4.58-6,1.55-7.37,3.33-7.63,4-12.23,9.75-7.43,6.67-9,5-2.51-3.63,5.61-14.2S101.35,1072.88,103,1073,112.66,1075.41,113.08,1082Z"/><polygon class="cls-14" points="277.52 1181.92 278.36 1188.33 270.45 1192.46 266.14 1189.81 266.35 1185.15 277.52 1181.92"/><path class="cls-14" d="M264.59,1199.68s-1.71,4,.44,4.61,11.67-.42,19-1.58,30.13-4.27,29.29-8.9-.66-1.45-.66-1.45Z"/><path class="cls-15" d="M264,1186.19s9.91,3,13,.27,3-3.47,3-3.47,5.33,3.23,7.53,2.93,8.2,2.65,15.52,1.91,10,.64,9.9,2.91-.84,4.33-14.07,5.93-33.19,4.28-34.3,3S259.58,1191.1,264,1186.19Z"/><path class="cls-16" d="M155.12,1022.22l-2,.18-2.07-2.19-8.54,9.3,5.45,5.77c3,3.14,7.29,3.61,9.65,1s1.86-7.19-1.11-10.33l-.58-.61H156a1.24,1.24,0,0,0,1-1.7A1.9,1.9,0,0,0,155.12,1022.22Z"/><path class="cls-16" d="M274.57,978.51l.54,2-1.79,2.43L284,989.66l4.71-6.39c2.57-3.48,2.26-7.82-.69-9.68s-7.41-.56-10,2.92l-.5.68,0-.09a1.24,1.24,0,0,0-1.85-.66A1.9,1.9,0,0,0,274.57,978.51Z"/><path class="cls-17" d="M202,899.35c2.7,0,2.7-4.18,0-4.18s-2.7,4.18,0,4.18Z"/><path class="cls-17" d="M200.88,898.25c-.05,15-.78,29.8,10.38,41.26.47.48,1.21-.26.74-.74-10.95-11.24-10.12-25.93-10.07-40.52a.52.52,0,0,0-1,0Z"/><path class="cls-17" d="M215.29,918.69c-.23,7.87-2.64,15.37-3.2,23.19-.33,4.64.79,9.32,1,13.94.25,5,.13,10.1.36,15.15.44,9.35,3.41,18.33,5.25,27.46,1.79,8.89-.37,18.09,2.15,26.81a.52.52,0,0,0,1-.28c-2.3-8-.34-16.24-1.73-24.34-1.7-10-4.88-19.53-5.64-29.65-.67-8.95-.88-18-1.41-27-.5-8.44,3-16.84,3.22-25.31a.52.52,0,0,0-1,0Z"/><path class="cls-18" d="M559,1082.87s-.25,21.42,0,32.91c0,0-.71,1.53-4.73,3.07s-42.71,23-53.44,31.6l3.64,6.32s50.18-16.66,62.63-28.73S583.33,1089,583.33,1089Z"/><polygon class="cls-19" points="588.7 1078.71 583.34 1088.96 555.75 1082.07 558.36 1067.1 588.7 1078.71"/><path class="cls-18" d="M569.2,916s4,16.07-1.45,20.6c0,0,.17,1-5,.68,0,0,13,11.2,27.18,6.32,0,0-4.19-.43-5-6.84a28.86,28.86,0,0,1,1.2-11.88S584.41,896.82,569.2,916Z"/><path class="cls-18" d="M594.39,891.53s5.39,4.23,4.71,9.28c0,0-1.61,2.68-1.14,4.86s6.23,8.55,6.13,9.84-4.91,1.75-4.91,1.75a5.8,5.8,0,0,0-.36,2.39s.76.74.11,1.14c0,0,.79,1.21,0,1.94,0,0-.52-.3-1,1.17s1.46,6-2.47,5.95-19.44-6.74-27.12-16.71-2.88-7.48-.89-14.07S585.57,888.93,586,888.8,594.39,891.53,594.39,891.53Z"/><path class="cls-18" d="M606.7,1059.46s24.13,25.16,28,34.35c0,0,4.6,20.81,4.6,28.09s4.6,39.77,3.06,71.41l-8.08.1s-3.48-16.35-9.58-37.42-4.18-50.18-4.18-50.18a75,75,0,0,0-35.83-23.75L576.44,1072l15.07-8.17Z"/><path class="cls-18" d="M595.36,936.24s5.85,2.94,8.15,8.55c0,0,16.09,27.45,18.9,40,0,0,1.53,5.36,3.32,0S639,951.57,639,951.57l6.64,1.53s-8.94,44.95-18.9,46-24.47-21.92-24.47-21.92l-6.91-34.27Z"/><path class="cls-18" d="M567,935a31.64,31.64,0,0,1,24.52,1l2.68,2.68,2.43,5.62,3.06,15.32-1.4,18.77s-15.58-3.06-16.22-4.21S567,965.61,567,965.61l-10.22-5.87-1.66-9.7,4.61-11.92,3.94-1.37Z"/><polygon class="cls-14" points="506.99 1156.98 502.07 1159.82 496.06 1154.79 496.77 1150.4 500.62 1149 506.99 1156.98"/><path class="cls-14" d="M488.23,1152.46s-3.84,0-3.59,1.91,4.27,9.33,7.66,14.86,13.61,23,17.07,20.79,1-1,1-1Z"/><path class="cls-20" d="M499,1147.44s.87,9.07,4.15,10.64,3.83,1.28,3.83,1.28-.82,5.41.15,7.1.6,7.55,3.67,13.24,2.83,8.3,1,9-3.8.78-9.54-9.43-14.64-25.51-14-26.83S493.51,1145.51,499,1147.44Z"/><polygon class="cls-14" points="642.58 1185.69 644.9 1191.03 640.41 1197.46 635.98 1197.13 634.25 1193.41 642.58 1185.69"/><path class="cls-14" d="M638.76,1205.46s.3,3.83,2.21,3.42,8.93-5.05,14.14-8.91,21.76-15.54,19.24-18.8-1.1-.87-1.1-.87Z"/><path class="cls-20" d="M632.84,1195.18s9-1.65,10.25-5.05.94-3.93.94-3.93,5.47.36,7.06-.76,7.47-1.25,12.88-4.79,8-3.54,8.89-1.75,1.1,3.72-8.57,10.32-24.15,16.78-25.53,16.23S631.39,1200.8,632.84,1195.18Z"/><path class="cls-21" d="M567,935s7.15,19.15,17.11,20.18,11.49-.26,11.24-7.41A21.81,21.81,0,0,0,591.51,936l3.86.26s4.06,14,5.08,15.32,11.24,10.47,9.19,15.83-8.17,10.47-8.17,10.47.25,10.73-1.79,13.28L567,989.87l-10.22-30.14a7.7,7.7,0,0,0,7.92-7.66,65,65,0,0,0-1-15.32Z"/><path class="cls-18" d="M563.67,936.75s-10.41,3-13.28,7.21c0,0-29.88,13.41-36.58,22.79s2.49,16.47,2.49,16.47l33.14,19.54,2.49-7.09s-21.26-17.81-29.11-21.07c0,0,21.64-8,27.2-14,0,0,3.9-.4,6.77-.89Z"/><path class="cls-18" d="M568,989.91s4.08,13,1.52,16.81-9.19,12.77-9.19,12.77,13.28,12.77,21.2,13.28,8.17-1.53,8.17-1.53,3.06-29.88,10-40.09Z"/><path class="cls-22" d="M597.23,895.5s-5.14-4.34-8.78-1.22-3.64,8.69-6.78,11.47a26.88,26.88,0,0,0-4,4s-5-5.56-6.79-2.78-.74,9.73,2.16,11.94l.32.22c3.14,1.91-4.3,4.69-5.46,4.34,0,0-.16-3.65-2.15-5.91s-7.94-17.21-3.14-24.41c0,0-1.65-2.34-5,1.83s-14.07,9.9-19.53,4.17c0,0,11.75-3,8.27-10.95s-5.79-15.29-.33-19.29,14.4-1.22,16.22,4.69,1.82,13.55,4.14,13.73,4.8-1.39,8.11-2.78,20.86-3.82,23.83,8C598.39,892.55,599.78,898,597.23,895.5Z"/><path class="cls-23" d="M563.94,885.11c-1.25,2.14-2.8,4.07-4,6.26-1.6,3,2.75,5.62,4.34,2.66,1.18-2.19,2.73-4.12,4-6.26,1.7-2.91-2.65-5.55-4.34-2.66Z"/><path class="cls-20" d="M574.18,1065.66c-6.19-4.46-12.29-10.67-14.3-18.27-2.47-9.3-1-19.47,5-26.09l-4.5-1.8s-23,15.07-16.09,31.54,39.08,31,39.08,31l8.19-7.92a32.93,32.93,0,0,1-4.4-1.3A57.26,57.26,0,0,1,574.18,1065.66Z"/><path class="cls-20" d="M567.52,1052.86c5.46,7.14,14.11,14.1,23,16.19,1.71.4,3.43.75,5.12,1.11l11.05-10.69-18.51-16,1.53-12.26-20.16-8.06C561.67,1030.21,560.88,1044.17,567.52,1052.86Z"/><path class="cls-24" d="M590.53,1069c-8.9-2.08-17.55-9.05-23-16.19-6.64-8.68-5.85-22.65,2-29.67l-4.71-1.88c-6,6.62-7.44,16.79-5,26.09,2,7.6,8.11,13.81,14.3,18.27a57.26,57.26,0,0,0,13,7.18,32.93,32.93,0,0,0,4.4,1.3l4.12-4C594,1069.79,592.25,1069.44,590.53,1069Z"/><path class="cls-16" d="M636,949.72l1.21,1.18-.26,2.48,10.45.36.69-6.54c.38-3.56-1.66-6.53-4.55-6.63s-5.53,2.7-5.9,6.27l-.07.69-.05-.05a1,1,0,0,0-1.6.3A1.57,1.57,0,0,0,636,949.72Z"/><path class="cls-16" d="M555.6,994.1l-1.52.75-2.25-1.07L548,1003.5l5.93,2.84c3.23,1.54,6.71.62,7.77-2.07s-.7-6.12-3.93-7.66l-.63-.3.07,0a1,1,0,0,0,.25-1.61A1.57,1.57,0,0,0,555.6,994.1Z"/><path class="cls-25" d="M411.17,1068.41c-8.12-6.48-13.69-9-30.42,12.95-8.66,11.35-14.68,23-17.38,32.47a65.16,65.16,0,0,0-21.56,8.74c-23.38,14.21-43.9,41.46-39.89,48.37s21.94-6.38,45.33-20.59c10.34-6.28,20-11.69,27.24-16.37,9.82-2.47,23.62-13.38,35.65-29.15C426.89,1082.89,419.29,1074.88,411.17,1068.41Z"/><path class="cls-26" d="M389.32,1068.92s-8.14,8.81-9.27,13.18l31.44,24.18,11.31-13.16Z"/><path class="cls-25" d="M478.93,965.75l.74,2.72-2.27,2.68,13.91,11.79,6-7.05a9.12,9.12,0,0,0-13.91-11.79l-.63.75,0-.12a2,2,0,0,0-3.78,1Z"/><path class="cls-25" d="M422.8,956.42s18,0,17.39,15.24c0,0,15.58,6.72,16.93,15.63,0,0,11.33-11.66,23.19-14.56l8.26-.48,1.17,6.94S477,1004,456.27,1008.13c0,0-15.41,1.46-24.72-15Z"/><path class="cls-25" d="M423.79,970.53V944.16c0-7.07-20.15-6.34-20.62-6.41s1.13,20.07-13.27,27.25c-11.74,5.86,28.21,8.82,28.21,8.82Z"/><path class="cls-27" d="M429.59,908.56s4.16,4.73,3.15,9.69-1.11,4.37.16,6.55,7.49,6.72,6.65,7.57-3.61,1.68-6,1.34a2.86,2.86,0,0,0,0,1.77,12.08,12.08,0,0,1,.41,3.05s-4.2.67-5.16-1c0,0,2,3.52,5.27,2.66a5.33,5.33,0,0,1,1.62,5.47c-1,3.31-1.73,4.93-5.09,4.76s-5.58-.2-6.92-2v10.75l-23.28-5.38,4.81-10.42-1.45-22.69,3.87-8.32s7.9-4.87,8.15-4.87,5.63-.59,5.63-.59Z"/><path class="cls-28" d="M434.68,934.89s.84,2.1,0,2.52-5.38.34-6.64,0,1.22,5,3.51,4.71,2.83-1.16,3.82,0,1.44,5.2,0,6.88-6,5.54-10.77,1.68-4.12-9.58-3.78-11.51,3-4.29,7.14-4.29S433.42,933.8,434.68,934.89Z"/><path class="cls-28" d="M418.63,910.3s13.78.45,12.1-4.48-7.62-7.17-19.83-5.38-19.61,8.74-18.71,21.62,5.38,18.6,7.51,18.15,9.08-1.79,8.41-6.16,5.38-7.62,5.38-7.62l3,7.84,1.9-1.35S413.48,915.68,418.63,910.3Z"/><path class="cls-27" d="M413.48,926.43s-1.68-3.47-3.7-3.36-3.36,2.35-3.36,4.37,1.34,7.51,4.37,8.18,3.7-.45,3.58-1.91-1.57-2.6-1.57-4.27A7.47,7.47,0,0,1,413.48,926.43Z"/><path class="cls-29" d="M438.36,999.54a22,22,0,0,1-8,17V1044H392.51V959.15c4.93-5.83,11.58-4,23.77-4h0a22.08,22.08,0,0,1,22.08,22.08Z"/><path class="cls-30" d="M416.28,955.13c-7.63,0-13.1-.71-17.33.19a21.72,21.72,0,1,1,2.72,43.27,21.64,21.64,0,0,1-9.17-2V1044h37.82v-27.46a22,22,0,0,0,8-17V977.21A22.08,22.08,0,0,0,416.28,955.13Z"/><path class="cls-25" d="M478.38,1142.7c-5.53-18.54-9.26-34.75-13.74-40.65-3.37-8.6-10.32-19-19.88-28.83-17.7-18.17-25.7-12-32.4-5.07s-9.56,11.82,8.13,30c10.11,10.38,20.89,17.79,29.53,21a62.9,62.9,0,0,0,2.87,22.5c7.33,24.58,26.69,49.37,33.61,47.19S485.71,1167.28,478.38,1142.7Z"/><path class="cls-25" d="M401.38,955.14s-13.44-.32-17.6,15.83c0,0-17.05,7-24.52,19.56,0,0-12.45,12.58,0,51.79l12.6-1.85s8.75-8.75,2.4-29.95c0,0,12.37-.11,25.37-20.08,0,0,21.75-.35,19.39-18.89C419,971.54,419.39,954.66,401.38,955.14Z"/><path class="cls-25" d="M377.74,1043.52l-2.54-1.22-.55-3.47-18,2.83,1.44,9.13a9.11,9.11,0,0,0,18-2.83l-.15-1,.11.05a2,2,0,1,0,1.69-3.53Z"/><path class="cls-31" d="M400.79,1044.57l-8.28.07s-14,7.21-3,24.59a136.31,136.31,0,0,0,25.92,29.44l14.39-10.85C415.23,1077.22,402.89,1061.93,400.79,1044.57Z"/><path class="cls-31" d="M407.48,1044.51l-2.56,0c2.1,16.31,14.55,30.76,28.47,40.6l3-2.28C423,1073.36,411.35,1059.91,407.48,1044.51Z"/><path class="cls-31" d="M440,1080.15l7.17-5.41s-10.8-13-16.85-16.25v-14.19l-18.61.16C415.69,1058.83,427.32,1071.42,440,1080.15Z"/><path class="cls-32" d="M404.92,1044.53l-4.13,0c2.1,17.36,14.44,32.66,29,43.26l3.57-2.69C419.47,1075.29,407,1060.84,404.92,1044.53Z"/><path class="cls-32" d="M411.71,1044.47l-4.23,0c3.86,15.41,15.53,28.86,28.93,38.35l3.59-2.7C427.32,1071.42,415.69,1058.83,411.71,1044.47Z"/><path class="cls-33" d="M296.57,1166.81s-4.12,1.44-3.1,3.49,8.21,8.63,14,13.39,23.55,20.08,26.4,16.28.63-1.5.63-1.5Z"/><path class="cls-15" d="M306.11,1157.14s4.47,9.64,8.6,10.11,4.6-.07,4.6-.07,1.23,6.28,2.94,7.76,3.6,8.08,9.1,13.16,6.28,8,4.56,9.54-3.77,2.32-13.91-6.69-25.64-22.42-25.44-24.13S299.5,1157.12,306.11,1157.14Z"/><path class="cls-33" d="M480.58,1192.34s.38,4.47,2.61,4,10.39-6,16.45-10.51,25.3-18.31,22.32-22.11-1.29-1-1.29-1Z"/><path class="cls-15" d="M473.58,1180.39s10.45-2,11.92-6,1.07-4.6,1.07-4.6,6.39.38,8.24-.94,8.72-1.52,15-5.7,9.35-4.19,10.38-2.1,1.31,4.34-9.93,12.12-28.08,19.79-29.69,19.16S471.93,1187,473.58,1180.39Z"/><path class="cls-34" d="M184.47,189H168.4a8.86,8.86,0,0,0-8.12-12.41H85.12a8.86,8.86,0,0,0,0,17.73h16.08a8.86,8.86,0,0,0,8.12,12.41h75.16a8.86,8.86,0,0,0,0-17.73Z"/><circle class="cls-35" cx="679.91" cy="173.65" r="33.98"/><path class="cls-36" d="M683.14,161H574.66a12.33,12.33,0,1,0,0,24.65H551.24a12.1,12.1,0,0,0,0,24.21H658.16a12.1,12.1,0,0,0,0-24.21h25a12.33,12.33,0,0,0,0-24.65Z"/><path class="cls-36" d="M415.72,225.56H396a12.66,12.66,0,0,0-12-16.65H344.28a12.66,12.66,0,0,0-12,16.65H326.4a15.27,15.27,0,0,0,0,30.54h41.41a8.12,8.12,0,0,0,7.59,11.07h28.79a8.12,8.12,0,0,0,7.59-11.07h3.95a15.27,15.27,0,0,0,0-30.54Z"/><polygon class="cls-37" points="176.24 169.18 0.13 195.2 0.13 203.83 176.24 169.18"/><path class="cls-38" d="M179.12,168.1l-2,9.33h0l2.05-.54,3.29-6.51,8.13-1.8-1.46,15,3.36-.76,7.86-16.45,6.43-1.43,3.73-.83a2.5,2.5,0,0,0,1.55-1.07,2.93,2.93,0,0,0,.53-2.44.69.69,0,0,0,0-.09.74.74,0,0,0,0-.09,2.91,2.91,0,0,0-1.51-2,2.49,2.49,0,0,0-1.85-.32l-3.73.82-6.44,1.4-14-11.63-3.37.72,7.6,13-8.13,1.77L175,159.6l-1.68.36Z"/><polygon class="cls-39" points="189.23 162.34 199.04 160.29 185 148.66 181.63 149.38 189.23 162.34"/><polygon class="cls-40" points="190.61 168.57 189.15 183.52 192.51 182.76 200.37 166.31 190.61 168.57"/></g></g></svg>