<svg xmlns="http://www.w3.org/2000/svg" width="750" height="314" viewBox="0 0 750 314"><defs><style>.cls-1{fill:#fff;}.cls-2{fill:#ff9500;}.cls-3{fill:#e5e5e5;}</style></defs><title>资源 13</title><g id="图层_2" data-name="图层 2"><g id="图层_1-2" data-name="图层 1"><rect class="cls-1" width="750" height="314"/><path class="cls-2" d="M351.57,297.71q-2.05,1.12-4,2v11.05q0,2.6-2.84,2.6H341.7l-.43-1.82q1.94.14,2.81.14,1.58,0,1.58-1.4v-9.72q-2.48,1-4.72,1.68l-.5-1.9a54.06,54.06,0,0,0,5.22-1.68v-8.49h-4.9v-1.86h4.9v-6.53h1.94v6.53h3.74v1.86h-3.74v7.68q2.16-1,4-2Zm20.09-9.61v25.3h-1.91v-1.86H355.67v1.89h-1.91V288.1h7.92v-6.42h1.94v6.42Zm-16,10.6h6v-8.77h-6Zm0,11h6v-9.23h-6Zm8-19.79v8.77h6.12v-8.77Zm0,10.56v9.23h6.12v-9.23Z"/><path class="cls-2" d="M377.34,301.43h14.36q.18-1.26.25-3.23h1.94a22.33,22.33,0,0,1-.25,3.23h14.51v1.86H394.08q3.35,6.18,14.87,8.35l-.83,1.79q-12.21-2.56-15.26-9.19-3,6.53-15.52,9.37l-.83-1.79q12.2-2.53,14.69-8.53H377.34Zm9.86-19.65h1.94v16h-1.94v-5.58a53.1,53.1,0,0,1-9.5,4l-.79-1.75a48.13,48.13,0,0,0,10.3-4.21Zm-8.35,1.61a30.14,30.14,0,0,1,6.08,4l-1,1.58a26.78,26.78,0,0,0-6.12-4Zm20.88-1.58a19.58,19.58,0,0,1-1.51,2.81h9.14v1.65q-3,8-15,11.26l-1-1.65a31.24,31.24,0,0,0,7.6-3,32.32,32.32,0,0,0-3.64-3.12l1.37-1a33.07,33.07,0,0,1,3.67,3.23,14.19,14.19,0,0,0,4.93-5.65h-8.53a21.94,21.94,0,0,1-4.9,3.89l-1.19-1.47a15.87,15.87,0,0,0,7-7.19Z"/><circle class="cls-2" cx="394.44" cy="25.06" r="17.36"/><polygon class="cls-3" points="375.18 56.75 375.37 198.64 457.86 193.9 457.89 71.74 468.39 68.82 466.89 56.75 375.18 56.75"/><path d="M400.3,148.82a1.44,1.44,0,0,1,1.43,1.43v.89h-3.12v-.25a.28.28,0,0,0-.32-.32H384.93v.57l-3.12,0v-2.3h2.53l-.52-1.21h3.26l.55,1.21h2.14l-.52-1.21h3.26l.55,1.21H396l.52-1.21h3.26l-.52,1.21Zm-12.66,4.49-.25.66h14.35v2.64q-.91.46-1.9.88t-2,.83q.93.25,1.9.42t2,.28v2.1a28.82,28.82,0,0,1-3.77-.6,37.24,37.24,0,0,1-3.59-1q-1.82.55-3.69.93a26.27,26.27,0,0,1-3.78.5v-2.12q1.07-.07,2.07-.22t2-.38q-1-.39-1.87-.8l-1.78-.82v-2.46l-2.51,7h-3l2.82-7.81h-2.85v-1.69h3.44l.2-.55,3,0-.21.57h13.51v1.69Zm-5.35-7.65,19-1v2l-19,1Zm12.09,11.62q1.09-.36,2.14-.77l2.14-.84h-8.29l2,.83Z"/><path d="M419.57,158.84H423v2.26h-20v-2.26h3.35l-1.84-2.8h3.17l1.82,2.8h1.94v-3.42H403.7v-2.25h7.68V151.3H404.7v-.91h-1.75l1.75-5.76h16.49l1.75,5.76h-1.73v.91h-6.67v1.87h7.68v2.25h-7.68v3.42h1.87l1.84-2.8h3.14Zm-12.75-12-.64,2.16h13.53l-.64-2.16Z"/><path d="M427.29,149.91h-3.17v-3.76l8.42,0-.62-1.53h3.47l.59,1.5h5.67a2.43,2.43,0,0,1,1,.19,2.5,2.5,0,0,1,.8.54,2.67,2.67,0,0,1,.55.8,2.31,2.31,0,0,1,.2,1v1.28H441v-.79a.7.7,0,0,0-.2-.5.67.67,0,0,0-.5-.21h-13ZM441,161.1H424.13v-2.26h8.65v-2.19h-8.15V154.4h8.15V153h-8.65v-2.25h20V153h-8.22v1.43h7.7v2.25h-7.7v2.19H440l-.5-1.25h3.19l1.43,3.51H441Z"/><path d="M387.12,164.9l5.46,11.16h-.51L390,171.9h-5.83l-2,4.16h-.45Zm0,1-2.71,5.58h5.46Z"/><path d="M394.17,165.16h.48v10.9h-.48Z"/><path d="M398.34,165.58v-.42h3.17v7.56a3.76,3.76,0,0,1-.86,2.57,2.86,2.86,0,0,1-2.26,1h-.15a3.22,3.22,0,0,1-2.14-.83v-.6a2.87,2.87,0,0,0,2.19,1,2.48,2.48,0,0,0,2-.87,3.33,3.33,0,0,0,.72-2.22v-7.19Z"/><path d="M403.76,165.15h.48v10.9h-.48Z"/><path d="M414.51,165.15h.42V176.2l-8-9.86V176h-.42V165l8,9.85Z"/><path d="M417.11,165.14h.46a2.25,2.25,0,0,1,1.58.59,2,2,0,0,1,.64,1.5,2.13,2.13,0,0,1-.36,1.13,1.69,1.69,0,0,1-.83.75,3.38,3.38,0,0,1,1.86,1.19,3.54,3.54,0,0,1,.74,2.3,3.25,3.25,0,0,1-1.06,2.41,3.57,3.57,0,0,1-2.57,1h-.46Zm.47.41V169h.12a1.55,1.55,0,0,0,1.15-.53,1.72,1.72,0,0,0,.5-1.22,1.62,1.62,0,0,0-.49-1.18,1.59,1.59,0,0,0-1.16-.49Zm0,3.82v6.26h.12a2.91,2.91,0,0,0,2.16-.93,3.14,3.14,0,0,0,0-4.41,2.92,2.92,0,0,0-2.17-.92Z"/><path d="M427.51,164.88,433,176h-.51l-2.07-4.15h-5.83l-2,4.16h-.45Zm0,1-2.71,5.58h5.46Z"/><path d="M434.6,174.52a5.53,5.53,0,0,1-1.65-4,5.37,5.37,0,0,1,1.67-3.94,5.66,5.66,0,0,1,8,0,5.39,5.39,0,0,1,1.66,3.94,5.53,5.53,0,0,1-1.64,4,5.28,5.28,0,0,1-3.92,1.7h-.22A5.26,5.26,0,0,1,434.6,174.52Zm9.2-4a5,5,0,0,0-1.52-3.67,5.15,5.15,0,0,0-7.33,0,5.2,5.2,0,0,0,0,7.36,5.12,5.12,0,0,0,7.32,0A5,5,0,0,0,443.8,170.57Z"/><path d="M440.59,172.5a5.28,5.28,0,0,1,0-3.91,5.28,5.28,0,0,1-3.91,0,5.28,5.28,0,0,1,0,3.91,5.28,5.28,0,0,1,3.91,0Z"/><path class="cls-2" d="M440,171.9a3.67,3.67,0,0,1,0-2.72,3.67,3.67,0,0,1-2.72,0,3.67,3.67,0,0,1,0,2.72,3.67,3.67,0,0,1,2.72,0Z"/><path d="M462.15,38.15H415a25,25,0,0,0-40.39-29,25,25,0,0,0-40.39,29H287.15a12.5,12.5,0,0,0-12.5,12.5v12.5a12.5,12.5,0,0,0,12.5,12.5v112.5a12.5,12.5,0,0,0,12.5,12.5h150a12.5,12.5,0,0,0,12.5-12.5V75.65a12.5,12.5,0,0,0,12.5-12.5V50.65A12.5,12.5,0,0,0,462.15,38.15Zm-68.75-25a12.5,12.5,0,1,1-12.5,12.5A12.51,12.51,0,0,1,393.4,13.15Zm-37.5,0a12.5,12.5,0,1,1-12.5,12.5A12.51,12.51,0,0,1,355.91,13.15Zm93.75,175h-150V131.9h150Zm0-68.75h-150V75.65h150Zm12.5-56.25h-175V50.65h175Z"/><circle class="cls-2" cx="313.14" cy="88.4" r="5.25"/></g></g></svg>