<svg xmlns="http://www.w3.org/2000/svg" width="594" height="510" viewBox="0 0 594 510"><defs><style>.cls-1{fill:#2d7070;}.cls-2{fill:#fff;}.cls-3{fill:#f46c90;}.cls-4,.cls-6{fill:#333;}.cls-4,.cls-5{fill-rule:evenodd;}.cls-5{fill:#ffe14d;}</style></defs><title>zhengshukuang</title><g id="图层_2" data-name="图层 2"><g id="图层_1-2" data-name="图层 1"><rect class="cls-1" x="11.11" y="53.47" width="582.89" height="456.53" rx="20" ry="20"/><rect class="cls-2" y="42" width="582.89" height="456.53" rx="20" ry="20"/><path class="cls-3" d="M562.86,42H20A20.07,20.07,0,0,0,0,62v79H582.89V62A20.07,20.07,0,0,0,562.86,42Z"/><path class="cls-2" d="M222.54,79.76l-3,7.75-6.82,0,5.7-13.28h8l6,13.2-6.42,0Zm-8.67,16.06h17.7v5.35L227,109.25l3.51,3.9h-7.93L214,104.24h7.48l1,.93,3-4.8-11.56,0Zm8.76-8.68a4.37,4.37,0,0,1,1.9.52A3.51,3.51,0,0,1,226,89.09a4.12,4.12,0,0,1,.53,2,3.79,3.79,0,0,1-.5,2,4,4,0,0,1-3.42,2,3.78,3.78,0,0,1-2-.51,3.87,3.87,0,0,1-1.46-1.45,3.75,3.75,0,0,1-.51-2,3.89,3.89,0,0,1,.54-2,3.72,3.72,0,0,1,1.49-1.45A4,4,0,0,1,222.63,87.14Zm30.84-12.9-2.06,5h-5l-.66,3.93,7.31,0L253,101l-5.72,2.23V88h-8.58v14l-5.72,2.4V83.17h5.89l.7-3.9h-6.74v-5ZM246,90.07v11.2l6.69,12.05h-6.55L243,107.39l-3.17,5.94h-7l7-11.93,0-11.33Z"/><path class="cls-2" d="M259.48,105.24V79H257.8V74.37h38.91L294.27,79H276.2v25.76l3.51-.11-2.44,4.65-1.06,0v2.12l-6.4,2.8v-4.71l-12,.4v-4.65Zm6.4-20.75h3.93V79h-3.93Zm3.93,1.21L268.74,89h-2.87v5.73h3.93Zm0,19.25v-9l-1,3.31h-2.93v5.81Zm19.72-4.6,6.89,12.86h-6.89l-3.15-6.09-2.8,6.09h-6.89l6.08-12.86-5.06-9.63h6.63l1.59,3L289.1,87H277.29V82.35h18v5.43Z"/><path class="cls-2" d="M310.08,87.14l0,21.18,3.1,0-2.23,4.86-7.61,0,0-20.86h-2.15V87.14ZM306.38,74a4.32,4.32,0,0,1,2.05.55A3.91,3.91,0,0,1,310,76.13a4.39,4.39,0,0,1,.57,2.14,4,4,0,0,1-.54,2.1,4.34,4.34,0,0,1-1.56,1.56,3.93,3.93,0,0,1-2.11.56,4.2,4.2,0,0,1-2.11-.56,4.15,4.15,0,0,1-1.56-1.55,4,4,0,0,1-.55-2.13,4.21,4.21,0,0,1,.58-2.12,3.91,3.91,0,0,1,1.59-1.55A4.57,4.57,0,0,1,306.38,74Zm9.48,10.38h6.71V108H326V79.38H314.73v-5h25.76l-2.38,5h-5.42V89h7.16l-2.38,5h-4.78V108H340l-2.38,5.11H314.18V108h1.68Z"/><path class="cls-2" d="M354.17,81.39H344.7V76.21h9.48v-2.4h.6v0h6v0h.57v2.4h11.52v0h.59V93h2.15v0h7.12v15.28l-7.14,4.92H367.9v-5.14l7.63,0,0-9.89H361.29v12.92l-7.12,3.08v-16H344.7V93h9.48ZM361.29,93h5V81.39h-5ZM381,74l1.93,12.5-6.82-.06L374.21,74Z"/><path class="cls-4" d="M123.41,94H101.93a2.24,2.24,0,1,0,0,4.49h21.48a2.24,2.24,0,1,0,0-4.49Zm-3.25,6.48h-15a2.24,2.24,0,1,0,0,4.49h15a2.24,2.24,0,0,0,2.25-2.24,2.1,2.1,0,0,0-2.25-2.24Zm-46-54.62H65.71a2.24,2.24,0,1,0,0,4.49H74.2a2.24,2.24,0,1,0,0-4.49Zm85.43,0h-8.49a2.24,2.24,0,1,0,0,4.49h8.49a2.24,2.24,0,1,0,0-4.49ZM81.94,75.32,77.7,79.56a2.12,2.12,0,0,0,3,3l4.25-4.24a2.27,2.27,0,0,0,0-3c-.5-.75-2-.75-3,0Zm62.2-61.85-4,4.24a2.27,2.27,0,0,0,0,3,2.28,2.28,0,0,0,3,0l4.25-4.24a2.27,2.27,0,0,0,0-3,2.63,2.63,0,0,0-3.25,0ZM82.19,20.7a2.28,2.28,0,0,0,3,0,2.27,2.27,0,0,0,0-3l-4.25-4.24a2.28,2.28,0,0,0-3,0,2.27,2.27,0,0,0,0,3l4.25,4.24Zm60.95,54.62a2.12,2.12,0,1,0-3,3l4.25,4.24a2.12,2.12,0,0,0,3-3l-4.25-4.24Zm-30.47-62.6a2.24,2.24,0,0,0,2.25-2.24V2.24a2.25,2.25,0,0,0-4.5,0v8.48a2.2,2.2,0,0,0,2.25,2Zm0,4.24a32,32,0,0,0-17,59.11V87.29a4.37,4.37,0,0,0,4.25,4.24h25.73a4.37,4.37,0,0,0,4.25-4.24V76.07A32,32,0,0,0,112.67,17Zm15,55.62a4.3,4.3,0,0,0-2,3.49V87.29H114.92V68.84l10.24-10a2.12,2.12,0,0,0-3-3l-9.49,9.73-9.49-9.23a2.12,2.12,0,0,0-3,3l10.24,10V87.79H99.68V76.57a4,4,0,0,0-2-3.49,27.7,27.7,0,1,1,42.46-23.44,26.58,26.58,0,0,1-12.49,22.95Z"/><path class="cls-5" d="M140.39,49.13a27.73,27.73,0,0,0-55.45,0,27,27,0,0,0,13,23.44,4.3,4.3,0,0,1,2,3.49V87.29h10.74V68.84l-10.24-10a2.12,2.12,0,0,1,3-3l9.49,9.23,9.49-9.23a2.12,2.12,0,0,1,3,3l-10.24,10V87.29h10.74V76.07a3.71,3.71,0,0,1,2-3.49,28,28,0,0,0,12.49-23.44ZM103.67,32.42a25.19,25.19,0,0,0-10.24,14,2.43,2.43,0,0,1-2.5,2h-.75a2.44,2.44,0,0,1-1.75-3.24,30.42,30.42,0,0,1,12.24-16.71,2.46,2.46,0,0,1,3.5.75,2,2,0,0,1-.5,3.24Z"/><path class="cls-6" d="M100.68,28.88A30.42,30.42,0,0,0,88.44,45.59a2.44,2.44,0,0,0,1.75,3.24h.75a2.43,2.43,0,0,0,2.5-2,25.19,25.19,0,0,1,10.24-14,2,2,0,0,0,.5-3.24A2.46,2.46,0,0,0,100.68,28.88Z"/></g></g></svg>