<svg xmlns="http://www.w3.org/2000/svg" xmlns:xlink="http://www.w3.org/1999/xlink" width="750" height="1218" viewBox="0 0 750 1218"><defs><style>.cls-1{fill:#fef3d6;}.cls-2{fill:#fad9be;}.cls-3{fill:#5b564b;}.cls-4{fill:#7dcbc8;}.cls-5{fill:#e62949;}.cls-6{fill:#90dcd4;}.cls-7{fill:#f0c545;}.cls-8{fill:#f47920;}.cls-9{fill:#fff;}.cls-10{fill:#68ad9f;}.cls-11{fill:#8ce1da;}.cls-12{fill:#bc1b3d;}.cls-13{fill:#ea6581;}.cls-14,.cls-15{fill:none;stroke-linecap:round;stroke-miterlimit:10;}.cls-14{stroke:#776a6a;}.cls-15{stroke:#666158;}.cls-16{fill:url(#未命名的渐变_15);}.cls-17{fill:#f89712;}.cls-18{fill:#815384;}.cls-19{fill:#693267;}.cls-20{fill:#522c62;}.cls-21{fill:#fcb316;}.cls-22{fill:#3f2054;}.cls-23{fill:#e55e7b;}.cls-24{fill:#a3193d;}.cls-25{fill:#d1466b;}.cls-26{fill:#c12345;}.cls-27{fill:#724973;}.cls-28{fill:#623563;}.cls-29{fill:#5c2b62;}.cls-30{fill:#de4b5e;}.cls-31{fill:#ce3457;}.cls-32{fill:#bd1d50;}.cls-33{fill:#841943;}.cls-34{fill:#ffb92c;}.cls-35{fill:#e8e8e8;}.cls-36{fill:#720c11;}.cls-37{fill:#dd375a;}.cls-38{fill:#ea8913;}.cls-39{fill:#d87912;}</style><linearGradient id="未命名的渐变_15" x1="375" y1="1218" x2="375" y2="1162" gradientUnits="userSpaceOnUse"><stop offset="0" stop-color="#b71631"/><stop offset="1" stop-color="#e62949"/></linearGradient></defs><title>choujiangbg</title><g id="图层_2" data-name="图层 2"><g id="图层_1-2" data-name="图层 1"><rect class="cls-1" width="750" height="1218"/><circle id="_路径_" data-name="&lt;路径&gt;" class="cls-2" cx="364.2" cy="643.78" r="3.96"/><circle id="_路径_2" data-name="&lt;路径&gt;" class="cls-2" cx="498.35" cy="647.58" r="3.96"/><path id="_路径_3" data-name="&lt;路径&gt;" class="cls-3" d="M353.27,166.78c-56.89,0-106.46-2.88-147.49-6.78C76.78,147.75,1.89,123,1.15,122.79a1.72,1.72,0,0,1-1.07-2.16,1.66,1.66,0,0,1,2.09-1.1c.74.25,75.36,24.86,204,37.07C325,167.88,515.37,170.59,748,119.49a1.66,1.66,0,0,1,2,1.32,1.71,1.71,0,0,1-1.28,2C596,156.39,461.39,166.78,353.27,166.78Z"/><g id="_编组_" data-name="&lt;编组&gt;"><path class="cls-4" d="M37.82,163.83l2.06,2.62,4.57,5.67,6.74,8.25L61,132.31l-4.85-1c-2.9-.63-6.82-1.35-10.66-2.26l-15.4-3.53-11.48,47.7,9.64-4.68Z"/></g><g id="_编组_2" data-name="&lt;编组&gt;"><g id="_编组_3" data-name="&lt;编组&gt;"><path id="_路径_4" data-name="&lt;路径&gt;" class="cls-5" d="M127,179.79l14.48,15.53,6.37-48.65L132,144.52c-4-.53-7.91-1.06-10.85-1.56l-4.92-.79-7.53,48.48,9.16-5.34Z"/></g></g><g id="_编组_4" data-name="&lt;编组&gt;"><path class="cls-4" d="M216.8,189.72l7.64,7.39,5.29,5.09,2.42,2.25,3.47-48.94s-2-.08-5-.36l-11-.94-15.93-1.36-4.49,48.86Z"/></g><g id="_编组_5" data-name="&lt;编组&gt;"><g id="_编组_6" data-name="&lt;编组&gt;"><path id="_路径_5" data-name="&lt;路径&gt;" class="cls-5" d="M307,194.53l8,7,5.55,4.8,2.53,2.11.84-49.06s-2,0-5-.09l-11-.35-16-.51-1.78,49Z"/></g></g><g id="_编组_7" data-name="&lt;编组&gt;"><polygon class="cls-4" points="397.27 194.56 414.05 207.59 412.43 158.56 380.39 159.32 381.13 208.38 397.27 194.56"/></g><g id="_编组_8" data-name="&lt;编组&gt;"><g id="_编组_9" data-name="&lt;编组&gt;"><path id="_路径_6" data-name="&lt;路径&gt;" class="cls-5" d="M487.42,190.25l17.37,12-4-48.9-16,1.33c-8,.76-16,1.11-16,1.11l3.13,49,7.76-7.16Z"/></g></g><g id="_编组_10" data-name="&lt;编组&gt;"><polygon class="cls-6" points="577.23 181.51 595.16 192.99 588.94 144.32 557.07 147.96 562.48 196.73 577.23 181.51"/></g><g id="_编组_11" data-name="&lt;编组&gt;"><path class="cls-7" d="M82.28,172.64l6.93,8.09,7,7.93,8-48.41-4.92-.79c-3-.44-6.86-1.18-10.78-1.89L72.9,134.7l-9.3,48.18Z"/></g><g id="_编组_12" data-name="&lt;编组&gt;"><path class="cls-7" d="M261.87,192.75l7.84,7.19c3.93,3.64,7.91,7.09,7.91,7.09l2.13-49s-2,0-5-.19l-11-.65-16-.94-3.1,49Z"/></g><g id="_编组_13" data-name="&lt;编组&gt;"><polygon class="cls-7" points="442.37 192.91 459.46 205.46 456.65 156.47 424.63 158.18 426.59 207.21 442.37 192.91"/></g><g id="_编组_14" data-name="&lt;编组&gt;"><polygon class="cls-7" points="621.95 175.63 640.12 186.55 632.81 138.03 601.06 142.68 607.58 191.31 621.95 175.63"/></g><g id="_编组_15" data-name="&lt;编组&gt;"><g id="_编组_16" data-name="&lt;编组&gt;"><path id="_路径_7" data-name="&lt;路径&gt;" class="cls-5" d="M666.56,168.93l18.37,10.36-8.38-48.34-15.8,2.83c-2,.35-3.95.73-5.8,1l-5.09.74-5,.73,7.61,48.47,7.07-7.82c1.76-1.93,3.51-3.94,4.81-5.46Z"/></g></g><g id="_编组_17" data-name="&lt;编组&gt;"><g id="_编组_18" data-name="&lt;编组&gt;"><polygon id="_路径_8" data-name="&lt;路径&gt;" class="cls-8" points="171.82 185.42 186.75 200.59 191.62 151.77 159.87 148.25 153.92 196.95 171.82 185.42"/></g></g><g id="_编组_19" data-name="&lt;编组&gt;"><g id="_编组_20" data-name="&lt;编组&gt;"><polygon id="_路径_9" data-name="&lt;路径&gt;" class="cls-8" points="352.13 195.12 368.59 208.62 368.18 159.56 336.15 159.42 335.65 208.48 352.13 195.12"/></g></g><g id="_编组_21" data-name="&lt;编组&gt;"><g id="_编组_22" data-name="&lt;编组&gt;"><path id="_路径_10" data-name="&lt;路径&gt;" class="cls-8" d="M532.39,186.5l2.75,1.88c1.65,1.15,3.85,2.59,6.05,4l8.84,5.75-5.11-48.8-5,.57c-3,.34-7,.83-11,1.12l-16,1.33,4.28,48.88Z"/></g></g><g id="_编组_23" data-name="&lt;编组&gt;"><g id="_编组_24" data-name="&lt;编组&gt;"><polygon id="_路径_11" data-name="&lt;路径&gt;" class="cls-8" points="710.96 160.97 729.62 171.28 720.19 123.13 688.59 128.78 697.26 177.08 710.96 160.97"/></g></g><circle id="_路径_12" data-name="&lt;路径&gt;" class="cls-9" cx="720.75" cy="792.5" r="3.96"/><circle id="_路径_13" data-name="&lt;路径&gt;" class="cls-9" cx="50.75" cy="914.5" r="3.96"/><circle id="_路径_14" data-name="&lt;路径&gt;" class="cls-9" cx="335.03" cy="286.03" r="3.96"/><circle id="_路径_15" data-name="&lt;路径&gt;" class="cls-9" cx="632.22" cy="226.03" r="3.96"/><circle id="_路径_16" data-name="&lt;路径&gt;" class="cls-9" cx="55.23" cy="221.97" r="3.96"/><circle id="_路径_17" data-name="&lt;路径&gt;" class="cls-9" cx="183.27" cy="116.26" r="3.96"/><circle id="_路径_18" data-name="&lt;路径&gt;" class="cls-9" cx="34.71" cy="667.63" r="3.96"/><circle id="_路径_19" data-name="&lt;路径&gt;" class="cls-9" cx="728.79" cy="233.03" r="3.96"/><circle id="_路径_20" data-name="&lt;路径&gt;" class="cls-9" cx="344.24" cy="131.26" r="3.96"/><circle id="_路径_21" data-name="&lt;路径&gt;" class="cls-9" cx="535.9" cy="282.02" r="3.96"/><circle id="_路径_22" data-name="&lt;路径&gt;" class="cls-9" cx="724.88" cy="534.06" r="3.96"/><circle id="_路径_23" data-name="&lt;路径&gt;" class="cls-2" cx="38.12" cy="430.1" r="3.96"/><circle id="_路径_24" data-name="&lt;路径&gt;" class="cls-2" cx="413.58" cy="852.56" r="6.42"/><path id="_路径_25" data-name="&lt;路径&gt;" class="cls-2" d="M424.15,235.8l1.58,1.24a2.56,2.56,0,0,0,2.34.43l1.92-.6a2.56,2.56,0,0,1,3.17,3.32l-.69,1.89a2.56,2.56,0,0,0,.32,2.36l1.17,1.64a2.56,2.56,0,0,1-2.18,4l-2-.07a2.56,2.56,0,0,0-2.15,1l-1.2,1.62a2.56,2.56,0,0,1-4.51-.82l-.55-1.94a2.56,2.56,0,0,0-1.64-1.72l-1.91-.64a2.56,2.56,0,0,1-.61-4.55l1.67-1.12a2.56,2.56,0,0,0,1.13-2.1l0-2A2.56,2.56,0,0,1,424.15,235.8Z"/><path id="_路径_26" data-name="&lt;路径&gt;" class="cls-2" d="M261.16,244.76l1.58,1.24a2.56,2.56,0,0,0,2.34.43l1.92-.6a2.56,2.56,0,0,1,3.17,3.32l-.69,1.89a2.56,2.56,0,0,0,.32,2.36L271,255a2.56,2.56,0,0,1-2.18,4l-2-.07a2.56,2.56,0,0,0-2.15,1l-1.2,1.62a2.56,2.56,0,0,1-4.51-.82l-.55-1.94a2.56,2.56,0,0,0-1.64-1.72l-1.91-.64a2.56,2.56,0,0,1-.61-4.55l1.67-1.12a2.56,2.56,0,0,0,1.13-2.1l0-2A2.56,2.56,0,0,1,261.16,244.76Z"/><path id="_路径_27" data-name="&lt;路径&gt;" class="cls-2" d="M682.79,199.14l1.58,1.24a2.56,2.56,0,0,0,2.34.43l1.92-.6a2.56,2.56,0,0,1,3.17,3.32l-.69,1.89a2.56,2.56,0,0,0,.32,2.36l1.17,1.64a2.56,2.56,0,0,1-2.18,4l-2-.07a2.56,2.56,0,0,0-2.15,1l-1.2,1.62a2.56,2.56,0,0,1-4.51-.82l-.55-1.94a2.56,2.56,0,0,0-1.64-1.72l-1.91-.64a2.56,2.56,0,0,1-.61-4.55l1.67-1.12a2.56,2.56,0,0,0,1.13-2.1l0-2A2.56,2.56,0,0,1,682.79,199.14Z"/><path id="_路径_28" data-name="&lt;路径&gt;" class="cls-2" d="M699.16,669.28l1.58,1.24a2.56,2.56,0,0,0,2.34.43l1.92-.6a2.56,2.56,0,0,1,3.17,3.32l-.69,1.89a2.56,2.56,0,0,0,.32,2.36l1.17,1.64a2.56,2.56,0,0,1-2.18,4l-2-.07a2.56,2.56,0,0,0-2.15,1l-1.2,1.62a2.56,2.56,0,0,1-4.51-.82l-.55-1.94a2.56,2.56,0,0,0-1.64-1.72l-1.91-.64a2.56,2.56,0,0,1-.61-4.55l1.67-1.12a2.56,2.56,0,0,0,1.13-2.1l0-2A2.56,2.56,0,0,1,699.16,669.28Z"/><path id="_路径_29" data-name="&lt;路径&gt;" class="cls-2" d="M714.16,915l1.58,1.24a2.56,2.56,0,0,0,2.34.43L720,916a2.56,2.56,0,0,1,3.17,3.32l-.69,1.89a2.56,2.56,0,0,0,.32,2.36l1.17,1.64a2.56,2.56,0,0,1-2.18,4l-2-.07a2.56,2.56,0,0,0-2.15,1l-1.2,1.62a2.56,2.56,0,0,1-4.51-.82l-.55-1.94a2.56,2.56,0,0,0-1.64-1.72l-1.91-.64a2.56,2.56,0,0,1-.61-4.55l1.67-1.12A2.56,2.56,0,0,0,710,919l0-2A2.56,2.56,0,0,1,714.16,915Z"/><path id="_路径_30" data-name="&lt;路径&gt;" class="cls-2" d="M521.13,821l-.63,1.91a2.56,2.56,0,0,0,.4,2.35l1.22,1.6a2.56,2.56,0,0,1-2,4.11h-2a2.56,2.56,0,0,0-2.11,1.1l-1.14,1.66a2.56,2.56,0,0,1-4.54-.67l-.62-1.92a2.56,2.56,0,0,0-1.7-1.67l-1.93-.58a2.56,2.56,0,0,1-.77-4.52l1.63-1.18a2.56,2.56,0,0,0,1.06-2.13l0-2A2.56,2.56,0,0,1,512,817l1.63,1.19a2.56,2.56,0,0,0,2.36.35l1.9-.67A2.56,2.56,0,0,1,521.13,821Z"/><path id="_路径_31" data-name="&lt;路径&gt;" class="cls-2" d="M551.65,542.45l.46,2a2.56,2.56,0,0,0,1.56,1.8l1.88.73a2.56,2.56,0,0,1,.4,4.57l-1.72,1a2.56,2.56,0,0,0-1.23,2l-.11,2a2.56,2.56,0,0,1-4.22,1.79l-1.53-1.31a2.56,2.56,0,0,0-2.32-.54l-1.95.51a2.56,2.56,0,0,1-3-3.46l.78-1.86a2.56,2.56,0,0,0-.21-2.37l-1.09-1.69a2.56,2.56,0,0,1,2.36-3.93l2,.17a2.56,2.56,0,0,0,2.19-.93l1.27-1.56A2.56,2.56,0,0,1,551.65,542.45Z"/><path id="_路径_32" data-name="&lt;路径&gt;" class="cls-2" d="M308.29,363.38l.46,2a2.56,2.56,0,0,0,1.56,1.8l1.88.73a2.56,2.56,0,0,1,.4,4.57l-1.72,1a2.56,2.56,0,0,0-1.23,2l-.11,2a2.56,2.56,0,0,1-4.22,1.79L303.78,378a2.56,2.56,0,0,0-2.32-.54l-1.95.51a2.56,2.56,0,0,1-3-3.46l.78-1.86a2.56,2.56,0,0,0-.21-2.37L296,368.6a2.56,2.56,0,0,1,2.36-3.93l2,.17a2.56,2.56,0,0,0,2.19-.93l1.27-1.56A2.56,2.56,0,0,1,308.29,363.38Z"/><path id="_路径_33" data-name="&lt;路径&gt;" class="cls-2" d="M595.33,740.83l.46,2a2.56,2.56,0,0,0,1.56,1.8l1.88.73a2.56,2.56,0,0,1,.4,4.57l-1.72,1a2.56,2.56,0,0,0-1.23,2l-.11,2a2.56,2.56,0,0,1-4.22,1.79l-1.53-1.31a2.56,2.56,0,0,0-2.32-.54l-1.95.51a2.56,2.56,0,0,1-3-3.46l.78-1.86a2.56,2.56,0,0,0-.21-2.37L583,746.06a2.56,2.56,0,0,1,2.36-3.93l2,.17a2.56,2.56,0,0,0,2.19-.93l1.27-1.56A2.56,2.56,0,0,1,595.33,740.83Z"/><path id="_路径_34" data-name="&lt;路径&gt;" class="cls-2" d="M388.88,636.59l.46,2a2.56,2.56,0,0,0,1.56,1.8l1.88.73a2.56,2.56,0,0,1,.4,4.57l-1.72,1a2.56,2.56,0,0,0-1.23,2l-.11,2a2.56,2.56,0,0,1-4.22,1.79l-1.53-1.31a2.56,2.56,0,0,0-2.32-.54l-1.95.51a2.56,2.56,0,0,1-3-3.46l.78-1.86a2.56,2.56,0,0,0-.21-2.37l-1.09-1.69a2.56,2.56,0,0,1,2.36-3.93l2,.17a2.56,2.56,0,0,0,2.19-.93l1.27-1.56A2.56,2.56,0,0,1,388.88,636.59Z"/><path id="_路径_35" data-name="&lt;路径&gt;" class="cls-2" d="M689.08,383.38l.46,2a2.56,2.56,0,0,0,1.56,1.8l1.88.73a2.56,2.56,0,0,1,.4,4.57l-1.72,1a2.56,2.56,0,0,0-1.23,2l-.11,2a2.56,2.56,0,0,1-4.22,1.79L684.58,398a2.56,2.56,0,0,0-2.32-.54l-1.95.51a2.56,2.56,0,0,1-3-3.46l.78-1.86a2.56,2.56,0,0,0-.21-2.37l-1.09-1.69a2.56,2.56,0,0,1,2.36-3.93l2,.17a2.56,2.56,0,0,0,2.19-.93l1.27-1.56A2.56,2.56,0,0,1,689.08,383.38Z"/><path id="_路径_36" data-name="&lt;路径&gt;" class="cls-2" d="M61.43,541.46l.46,2a2.56,2.56,0,0,0,1.56,1.8l1.88.73a2.56,2.56,0,0,1,.4,4.57l-1.72,1a2.56,2.56,0,0,0-1.23,2l-.11,2a2.56,2.56,0,0,1-4.22,1.79l-1.53-1.31a2.56,2.56,0,0,0-2.32-.54l-1.95.51a2.56,2.56,0,0,1-3-3.46l.78-1.86a2.56,2.56,0,0,0-.21-2.37l-1.09-1.69a2.56,2.56,0,0,1,2.36-3.93l2,.17a2.56,2.56,0,0,0,2.19-.93L57,540.42A2.56,2.56,0,0,1,61.43,541.46Z"/><path id="_路径_37" data-name="&lt;路径&gt;" class="cls-2" d="M534.39,126.16l1.68,1.1a2.56,2.56,0,0,0,2.37.23l1.86-.76a2.56,2.56,0,0,1,3.43,3l-.53,1.94a2.56,2.56,0,0,0,.51,2.32l1.3,1.54a2.56,2.56,0,0,1-1.83,4.21l-2,.1a2.56,2.56,0,0,0-2.05,1.21l-1.06,1.71a2.56,2.56,0,0,1-4.57-.44l-.71-1.88a2.56,2.56,0,0,0-1.78-1.58l-2-.48a2.56,2.56,0,0,1-1-4.48l1.57-1.26a2.56,2.56,0,0,0,1-2.18l-.15-2A2.56,2.56,0,0,1,534.39,126.16Z"/><path id="_路径_38" data-name="&lt;路径&gt;" class="cls-2" d="M455.52,432.33l.46,2a2.56,2.56,0,0,0,1.56,1.8l1.88.73a2.56,2.56,0,0,1,.4,4.57l-1.72,1a2.56,2.56,0,0,0-1.23,2l-.11,2a2.56,2.56,0,0,1-4.22,1.79L451,447a2.56,2.56,0,0,0-2.32-.54l-1.95.51a2.56,2.56,0,0,1-3-3.46l.78-1.86a2.56,2.56,0,0,0-.21-2.37l-1.09-1.69a2.56,2.56,0,0,1,2.36-3.93l2,.17a2.56,2.56,0,0,0,2.19-.93l1.27-1.56A2.56,2.56,0,0,1,455.52,432.33Z"/><path id="_路径_39" data-name="&lt;路径&gt;" class="cls-2" d="M87.95,798.14l.46,2A2.56,2.56,0,0,0,90,801.9l1.88.73a2.56,2.56,0,0,1,.4,4.57l-1.72,1a2.56,2.56,0,0,0-1.23,2l-.11,2A2.56,2.56,0,0,1,85,814.09l-1.53-1.31a2.56,2.56,0,0,0-2.32-.54l-1.95.51a2.56,2.56,0,0,1-3-3.46l.78-1.86a2.56,2.56,0,0,0-.21-2.37l-1.09-1.69A2.56,2.56,0,0,1,78,799.43l2,.17a2.56,2.56,0,0,0,2.19-.93l1.27-1.56A2.56,2.56,0,0,1,87.95,798.14Z"/><path id="_路径_40" data-name="&lt;路径&gt;" class="cls-2" d="M288.24,828.11l.46,2a2.56,2.56,0,0,0,1.56,1.8l1.88.73a2.56,2.56,0,0,1,.4,4.57l-1.72,1a2.56,2.56,0,0,0-1.23,2l-.11,2a2.56,2.56,0,0,1-4.22,1.79l-1.53-1.31a2.56,2.56,0,0,0-2.32-.54l-1.95.51a2.56,2.56,0,0,1-3-3.46l.78-1.86A2.56,2.56,0,0,0,277,835l-1.09-1.69a2.56,2.56,0,0,1,2.36-3.93l2,.17a2.56,2.56,0,0,0,2.19-.93l1.27-1.56A2.56,2.56,0,0,1,288.24,828.11Z"/><polygon class="cls-5" points="159 819 180 842 154 830 159 819"/><polygon class="cls-7" points="137 872 107 898 137 890 137 872"/><polygon class="cls-5" points="573.07 830.81 564.18 859.28 587.83 837.31 573.07 830.81"/><polygon class="cls-5" points="35 977 58 988 58 969 35 977"/><polygon class="cls-6" points="363 901 377 915 381 904 363 901"/><polygon class="cls-5" points="229 867 235 874 243 862 229 867"/><path class="cls-10" d="M315,909l-5,4s-3-12-2-17,4-9,7-10C315,887,310,895,315,909Z"/><path class="cls-6" d="M315,886s13-9,24,1c0,2-2,5-3,5-1-1-13.29-10.23-21.65-4.11C314,888,315,886,315,886Z"/><path class="cls-11" d="M300,906a12.38,12.38,0,0,1,3-2c1.62-.81,7.19,1,10.3,3.33A7.2,7.2,0,0,1,315,909c-1,1-5,4-5,4S306,907,300,906Z"/><path class="cls-12" d="M477.7,875.46l-4.54-4.51s11.58-4.34,16.66-3.91,9.4,3,10.73,5.82C499.56,873,491,868.9,477.7,875.46Z"/><path class="cls-13" d="M500.56,872.85s10.42,11.9,1.73,24c-2,.23-5.19-1.42-5.31-2.41.88-1.11,8.66-14.36,1.63-22C498.45,872.08,500.56,872.85,500.56,872.85Z"/><path class="cls-13" d="M479,860.21a12.38,12.38,0,0,1,2.33,2.75c1,1.52-.19,7.26-2.14,10.62a7.2,7.2,0,0,1-1.47,1.87c-1.11-.88-4.54-4.51-4.54-4.51S478.67,866.29,479,860.21Z"/><ellipse class="cls-5" cx="664.45" cy="882.38" rx="42.3" ry="51.93"/><path class="cls-5" d="M660.14,934s3.38,2,.85,4.49-1.69,3.38-1.69,3.38h6.76c0-2.53-2.53-3.38-2.53-4.22s.84-3.38,1.69-3.38-2.53-2.53-2.53-2.53Z"/><path class="cls-1" d="M649.13,842.72s-13.67,13.82-16.69,28.74c-3.39,16.74,1,30.49,4.09,35.72-.63-4.26-5.65-18-2.53-33.1C636.24,863.2,640.27,850.72,649.13,842.72Z"/><path class="cls-14" d="M662.68,942.76s-5.07,7.6-5.07,15.2,5.07,6.76,5.91,11,5.07,20.27.84,32.09"/><ellipse class="cls-6" cx="620.37" cy="919.65" rx="36.6" ry="44.93"/><path class="cls-6" d="M616.65,964.34s2.92,1.69.73,3.88-1.46,2.92-1.46,2.92h5.84c0-2.19-2.19-2.92-2.19-3.65s.73-2.92,1.46-2.92-2.19-2.19-2.19-2.19Z"/><path class="cls-1" d="M607.13,885.34s-11.82,12-14.44,24.86c-2.94,14.48.84,26.38,3.54,30.9-.54-3.69-4.89-15.59-2.19-28.64C596,903.05,599.46,892.26,607.13,885.34Z"/><path class="cls-15" d="M618.84,971.88s-4.38,6.57-4.38,13.15,4.38,5.84,5.11,9.5,4.38,17.53.73,27.76"/><rect class="cls-16" y="1162" width="750" height="56"/><g id="_编组_25" data-name="&lt;编组&gt;"><path id="_路径_41" data-name="&lt;路径&gt;" class="cls-17" d="M138.24,1064.08c0-3.92-4.7-7.23-11.13-8.29,3.8-5.3,4.78-11,2-13.73s-8.43-1.79-13.73,2c-1.06-6.44-4.37-11.13-8.29-11.13s-7.23,4.7-8.29,11.13c-5.3-3.8-11-4.78-13.74-2s-1.79,8.43,2,13.73c-6.44,1.06-11.13,4.37-11.13,8.29s4.7,7.23,11.13,8.29c-3.8,5.3-4.78,11-2,13.73s8.43,1.79,13.74-2c1.06,6.44,4.37,11.13,8.29,11.13s7.23-4.7,8.29-11.13c5.3,3.8,11,4.78,13.73,2s1.79-8.43-2-13.73C133.55,1071.3,138.24,1068,138.24,1064.08Z"/><rect id="_矩形_" data-name="&lt;矩形&gt;" class="cls-18" x="34.53" y="1070.91" width="145.13" height="42.42"/><rect id="_矩形_2" data-name="&lt;矩形&gt;" class="cls-19" x="43.02" y="1113.33" width="128.16" height="48.97"/><rect id="_矩形_3" data-name="&lt;矩形&gt;" class="cls-20" x="43.02" y="1113.33" width="128.16" height="21.21"/><rect id="_矩形_4" data-name="&lt;矩形&gt;" class="cls-21" x="89.47" y="1070.91" width="35.26" height="91.39"/><rect id="_矩形_5" data-name="&lt;矩形&gt;" class="cls-19" x="124.73" y="1070.91" width="15.5" height="91.39" transform="translate(264.95 2233.21) rotate(180)"/><rect id="_路径_42" data-name="&lt;路径&gt;" class="cls-20" x="124.73" y="1113.33" width="15.5" height="48.97"/><rect id="_路径_43" data-name="&lt;路径&gt;" class="cls-22" x="124.73" y="1113.33" width="15.5" height="21.21"/></g><rect id="_矩形_6" data-name="&lt;矩形&gt;" class="cls-23" x="372.91" y="932" width="205.05" height="48.31"/><rect id="_矩形_7" data-name="&lt;矩形&gt;" class="cls-5" x="384.9" y="980.31" width="181.07" height="71.92"/><rect id="_矩形_8" data-name="&lt;矩形&gt;" class="cls-24" x="384.9" y="980.31" width="181.07" height="20.46"/><g id="_编组_26" data-name="&lt;编组&gt;"><rect id="_路径_44" data-name="&lt;路径&gt;" class="cls-25" x="372.91" y="932" width="205.05" height="11.3"/><rect id="_路径_45" data-name="&lt;路径&gt;" class="cls-25" x="372.91" y="957.75" width="205.05" height="11.3"/></g><g id="_编组_27" data-name="&lt;编组&gt;"><rect id="_路径_46" data-name="&lt;路径&gt;" class="cls-26" x="385.73" y="989.43" width="180.24" height="11.3"/><rect id="_路径_47" data-name="&lt;路径&gt;" class="cls-26" x="385.73" y="1015.18" width="180.24" height="11.3"/><rect id="_路径_48" data-name="&lt;路径&gt;" class="cls-26" x="385.73" y="1040.93" width="180.24" height="11.3"/></g><rect id="_矩形_9" data-name="&lt;矩形&gt;" class="cls-27" x="346.01" y="1052" width="267.18" height="54.6"/><rect id="_矩形_10" data-name="&lt;矩形&gt;" class="cls-28" x="357.63" y="1106.6" width="243.96" height="55.7"/><rect id="_矩形_11" data-name="&lt;矩形&gt;" class="cls-29" x="357.63" y="1106.6" width="243.96" height="27.3"/><g id="_编组_28" data-name="&lt;编组&gt;"><ellipse id="_路径_49" data-name="&lt;路径&gt;" class="cls-18" cx="370.15" cy="1069.47" rx="5.81" ry="5.46"/><ellipse id="_路径_50" data-name="&lt;路径&gt;" class="cls-18" cx="415.47" cy="1069.47" rx="5.81" ry="5.46"/><ellipse id="_路径_51" data-name="&lt;路径&gt;" class="cls-18" cx="460.8" cy="1069.47" rx="5.81" ry="5.46"/><ellipse id="_路径_52" data-name="&lt;路径&gt;" class="cls-18" cx="506.13" cy="1069.47" rx="5.81" ry="5.46"/><ellipse id="_路径_53" data-name="&lt;路径&gt;" class="cls-18" cx="551.46" cy="1069.47" rx="5.81" ry="5.46"/><ellipse id="_路径_54" data-name="&lt;路径&gt;" class="cls-18" cx="596.78" cy="1069.47" rx="5.81" ry="5.46"/></g><g id="_编组_29" data-name="&lt;编组&gt;"><ellipse id="_路径_55" data-name="&lt;路径&gt;" class="cls-18" cx="392.81" cy="1092.41" rx="5.81" ry="5.46"/><ellipse id="_路径_56" data-name="&lt;路径&gt;" class="cls-18" cx="438.14" cy="1092.41" rx="5.81" ry="5.46"/><ellipse id="_路径_57" data-name="&lt;路径&gt;" class="cls-18" cx="483.46" cy="1092.41" rx="5.81" ry="5.46"/><ellipse id="_路径_58" data-name="&lt;路径&gt;" class="cls-18" cx="528.79" cy="1092.41" rx="5.81" ry="5.46"/><ellipse id="_路径_59" data-name="&lt;路径&gt;" class="cls-18" cx="574.12" cy="1092.41" rx="5.81" ry="5.46"/></g><g id="_编组_30" data-name="&lt;编组&gt;"><ellipse id="_路径_60" data-name="&lt;路径&gt;" class="cls-28" cx="367.46" cy="1123.53" rx="5.81" ry="5.46"/><ellipse id="_路径_61" data-name="&lt;路径&gt;" class="cls-28" cx="412.79" cy="1123.53" rx="5.81" ry="5.46"/><ellipse id="_路径_62" data-name="&lt;路径&gt;" class="cls-28" cx="458.12" cy="1123.53" rx="5.81" ry="5.46"/><ellipse id="_路径_63" data-name="&lt;路径&gt;" class="cls-28" cx="503.45" cy="1123.53" rx="5.81" ry="5.46"/><ellipse id="_路径_64" data-name="&lt;路径&gt;" class="cls-28" cx="548.77" cy="1123.53" rx="5.81" ry="5.46"/><ellipse id="_路径_65" data-name="&lt;路径&gt;" class="cls-28" cx="594.1" cy="1123.53" rx="5.81" ry="5.46"/></g><g id="_编组_31" data-name="&lt;编组&gt;"><ellipse id="_路径_66" data-name="&lt;路径&gt;" class="cls-27" cx="390.13" cy="1146.47" rx="5.81" ry="5.46"/><ellipse id="_路径_67" data-name="&lt;路径&gt;" class="cls-27" cx="435.46" cy="1146.47" rx="5.81" ry="5.46"/><ellipse id="_路径_68" data-name="&lt;路径&gt;" class="cls-27" cx="480.78" cy="1146.47" rx="5.81" ry="5.46"/><ellipse id="_路径_69" data-name="&lt;路径&gt;" class="cls-27" cx="526.11" cy="1146.47" rx="5.81" ry="5.46"/><ellipse id="_路径_70" data-name="&lt;路径&gt;" class="cls-27" cx="571.44" cy="1146.47" rx="5.81" ry="5.46"/></g><g id="_编组_32" data-name="&lt;编组&gt;"><path id="_复合路径_" data-name="&lt;复合路径&gt;" class="cls-17" d="M699.21,991.78c-1.32-4.24-4.71-7.31-9.55-8.64-8.5-2.33-17.91,2.14-23.06,7.29a53.82,53.82,0,0,0-8.88,12.31h-7.29a53.79,53.79,0,0,0-8.87-12.3c-5.15-5.14-14.56-9.62-23.06-7.29-4.84,1.33-8.23,4.4-9.55,8.64-1.61,5.18.2,11.51,4.51,15.75,4.67,4.59,11.22,6.62,17,8.41l2.22.69a140.76,140.76,0,0,0,16.75,4.26l1.63-6.8,3-1.28,3,1.28,1.63,6.8a140.76,140.76,0,0,0,16.75-4.26l2.22-.69c5.77-1.79,12.32-3.82,17-8.41C699,1003.29,700.82,997,699.21,991.78Zm-63.58,17.63-2.3-.72c-5-1.56-10.22-3.17-13.41-6.3-2.34-2.3-3.43-5.9-2.59-8.57a4.92,4.92,0,0,1,3.75-3.34,9.86,9.86,0,0,1,4.36-.08,19.53,19.53,0,0,1,9.62,5.12c4.46,4.45,7.32,10,10.35,15.83l.46.9C642.47,1011.45,639,1010.5,635.63,1009.41Zm52.61-7c-3.18,3.13-8.38,4.74-13.41,6.3l-2.3.72c-3.41,1.09-6.85,2-10.25,2.84l.46-.9c3-5.85,5.9-11.38,10.35-15.83a19.53,19.53,0,0,1,9.62-5.12,9.86,9.86,0,0,1,4.36.08,4.92,4.92,0,0,1,3.75,3.34C691.66,996.49,690.57,1000.1,688.24,1002.39Z"/><rect id="_矩形_12" data-name="&lt;矩形&gt;" class="cls-30" x="592.16" y="1008.7" width="123.84" height="32.01"/><rect id="_矩形_13" data-name="&lt;矩形&gt;" class="cls-31" x="599.4" y="1040.72" width="109.36" height="121.58"/><rect id="_矩形_14" data-name="&lt;矩形&gt;" class="cls-32" x="599.4" y="1040.72" width="109.36" height="16.01"/><rect id="_矩形_15" data-name="&lt;矩形&gt;" class="cls-21" x="639.04" y="1008.7" width="30.09" height="153.6"/><rect id="_矩形_16" data-name="&lt;矩形&gt;" class="cls-31" x="669.12" y="1008.7" width="13.67" height="153.6" transform="translate(1351.92 2171.01) rotate(180)"/><rect id="_路径_71" data-name="&lt;路径&gt;" class="cls-32" x="669.12" y="1040.72" width="13.67" height="121.58"/><rect id="_路径_72" data-name="&lt;路径&gt;" class="cls-33" x="669.12" y="1040.72" width="13.67" height="16.01"/></g><circle class="cls-34" cx="46" cy="1192.5" r="7.81"/><circle class="cls-35" cx="105.82" cy="1192.5" r="7.81"/><circle class="cls-34" cx="165.64" cy="1192.5" r="7.81"/><circle class="cls-35" cx="225.45" cy="1192.5" r="7.81"/><circle class="cls-34" cx="285.27" cy="1192.5" r="7.81"/><circle class="cls-35" cx="345.09" cy="1192.5" r="7.81"/><circle class="cls-34" cx="404.91" cy="1192.5" r="7.81"/><circle class="cls-35" cx="464.73" cy="1192.5" r="7.81"/><circle class="cls-34" cx="524.55" cy="1192.5" r="7.81"/><circle class="cls-35" cx="584.36" cy="1192.5" r="7.81"/><circle class="cls-34" cx="644.18" cy="1192.5" r="7.81"/><circle class="cls-35" cx="704" cy="1192.5" r="7.81"/><rect class="cls-36" y="1162" width="750" height="4"/><path id="_复合路径_2" data-name="&lt;复合路径&gt;" class="cls-37" d="M343,956.58a23.87,23.87,0,0,0-16.51-16.88c-14.68-4.56-30.94,4.19-39.84,14.24-6.48,7.32-11.2,15.62-15.34,24.06l-.53,0H258.7c-4.14-8.43-8.85-16.72-15.33-24-8.9-10.05-25.16-18.8-39.84-14.24A23.87,23.87,0,0,0,187,956.58c-2.79,10.13.34,22.5,7.8,30.78,8.07,9,19.38,12.94,29.36,16.43l3.83,1.36a220.56,220.56,0,0,0,29,8.31l2.82-13.29,5.22-2.49,5.22,2.49,2.82,13.29a220.56,220.56,0,0,0,29-8.31l3.83-1.36c10-3.5,21.29-7.46,29.36-16.43C342.64,979.08,345.77,966.71,343,956.58ZM233.11,991l-4-1.4c-8.68-3-17.66-6.19-23.17-12.31-4-4.49-5.92-11.53-4.48-16.75A9,9,0,0,1,208,954a15.12,15.12,0,0,1,7.53-.15c6.08,1.26,12.5,5.35,16.62,10,7.7,8.7,12.65,19.5,17.89,30.93l.8,1.75C244.94,995,239,993.17,233.11,991ZM324,977.32c-5.5,6.12-14.48,9.26-23.17,12.31l-4,1.4c-5.9,2.13-11.83,4-17.71,5.54l.8-1.75c5.24-11.43,10.19-22.23,17.89-30.93,4.12-4.66,10.54-8.75,16.62-10A15.12,15.12,0,0,1,322,954a9,9,0,0,1,6.48,6.53C329.95,965.79,328.06,972.84,324,977.32Z"/><rect id="_矩形_17" data-name="&lt;矩形&gt;" class="cls-21" x="158" y="989.65" width="214" height="62.55"/><rect id="_矩形_18" data-name="&lt;矩形&gt;" class="cls-17" x="170.51" y="1052.21" width="188.98" height="110.09"/><rect id="_矩形_19" data-name="&lt;矩形&gt;" class="cls-38" x="170.51" y="1052.21" width="188.98" height="19.04"/><rect id="_矩形_20" data-name="&lt;矩形&gt;" class="cls-38" x="170.51" y="1082.47" width="188.98" height="19.04"/><rect id="_矩形_21" data-name="&lt;矩形&gt;" class="cls-38" x="170.51" y="1112.73" width="188.98" height="19.04"/><rect id="_矩形_22" data-name="&lt;矩形&gt;" class="cls-38" x="170.51" y="1142.99" width="188.98" height="19.04"/><rect id="_矩形_23" data-name="&lt;矩形&gt;" class="cls-17" x="290.28" y="989.65" width="20.22" height="172.65"/><rect id="_路径_73" data-name="&lt;路径&gt;" class="cls-39" x="290.28" y="1052.21" width="20.22" height="110.09"/><rect id="_路径_74" data-name="&lt;路径&gt;" class="cls-39" x="290.28" y="1052.21" width="20.22" height="31.28"/><rect id="_矩形_24" data-name="&lt;矩形&gt;" class="cls-30" x="239" y="989.65" width="51.99" height="172.65"/></g></g></svg>