<svg xmlns="http://www.w3.org/2000/svg" width="594" height="504" viewBox="0 0 594 504"><defs><style>.cls-1{fill:#d8cbba;}.cls-2{fill:#fff;}.cls-3{fill:#e62949;}.cls-4{fill:#ce2449;}.cls-5{fill:#f9be00;}.cls-6{opacity:0.1;}.cls-6,.cls-9{isolation:isolate;}.cls-7{fill:#7dcbc8;}.cls-8{fill:#66b2ac;}.cls-9{opacity:0.15;}.cls-10{fill:#1e252b;}</style></defs><title>choujinagkuang</title><g id="图层_2" data-name="图层 2"><g id="图层_1-2" data-name="图层 1"><rect class="cls-1" x="11.11" y="47.47" width="582.89" height="456.53" rx="20" ry="20"/><rect class="cls-2" y="36" width="582.89" height="456.53" rx="20" ry="20"/><path class="cls-3" d="M562.86,36H20A20.07,20.07,0,0,0,0,56v79H582.89V56A20.07,20.07,0,0,0,562.86,36Z"/><path class="cls-2" d="M185,74.37V69.81h15.87v-2h7.08v2h16l-2,4.56H207.95v4.5h16l-2,4.54H184.61V78.87h16.26v-4.5Zm22.78,29.47v1.42l-7.12,3.1v-4.52H185.12V99.28h15.54V95H185.12V90.5h39.29l-2,4.54H207.78v4.24H224l-2,4.56ZM197,84.07l4,5.75h-7.65l-4-5.75ZM212,84h7.65l-3.8,5.73h-7.65Z"/><path class="cls-2" d="M237.64,81.06v18l6.21,3.33,23.72,0-2.21,4.75H240.7l-3.06-1.8-6.52,3.1,0-22.7H228.5V81.06Zm-3.46-13.24a4.54,4.54,0,0,1,2,.54,3.76,3.76,0,0,1,1.56,1.52,4.32,4.32,0,0,1,.57,2.11,4,4,0,0,1-.54,2.07,4,4,0,0,1-1.53,1.51,4.17,4.17,0,0,1-2.08.55,3.94,3.94,0,0,1-2.08-.53,4.16,4.16,0,0,1-1.53-1.53A3.92,3.92,0,0,1,230,72a4.07,4.07,0,0,1,.58-2.07,4,4,0,0,1,1.55-1.54A4.16,4.16,0,0,1,234.17,67.82Zm6.38,5.64v-5h26.63l-2.3,5Zm19.17,19.67-1.27-4.48h6.4l2.72,9.59h-6.4l-1.13-4-2,4h-17.3V94L245,84.81h-4.38l0-5,26.73,0L265,84.9l-12.79-.06-4,8.3Z"/><path class="cls-2" d="M295,74.37h16.43l-2.51,5.3H295.52l16.41,27.58H303l-11.73-20-11.26,20h-9l16-27.58h-15v-5.3h15.47l0-6.71H295Z"/><path class="cls-2" d="M327.89,80.4h3.7l-3.7,6.71v15.15l-5.76,5.11h-5.87v-4.71h4.93V96.48h-6.4l6.4-11.25v-8.7h-5.44v-4.8h5.44v-3.5h6.69v3.5h3.32L329,76.54h-1.13Zm12-12.46h6.18v3.67h7.8v29.62l-5,5.67H332.25V71.61h7.63Zm0,8.45h-1.34v8.93h1.34Zm-1.34,14V102h1.34V90.35Zm8.9-14h-1.36v8.93h1.36Zm0,14h-1.36V102h1.36Z"/><path class="cls-2" d="M368.27,78.79V76.9h-5.14l-4.29-7.72h6.55l2.89,5V68.39h6.27V87l-6.27,2.44V80.61l-2.4,6.81h-6.61l3.61-8.64Zm4.48,18H359.13l0-4.52h15.92V89.1h6.74v3.12h16l-2,4.52h-12l14,10.63-9.56,0-9.82-7.77-9.54,7.64-9.73,0Zm14.07-28.79L386,69.45h11.48V82.92l-6.31,5.22H375.43V83.33h15.62V74.27h-7.8l-.87,1.19h-7l4.74-7.51Zm-3.21,7.62a3.2,3.2,0,0,1,3,1.42,5,5,0,0,1,.81,2.38,3.86,3.86,0,0,1-.54,1.89,3.75,3.75,0,0,1-1.39,1.39,3.7,3.7,0,0,1-1.87.5,3.79,3.79,0,0,1-3.32-1.88,3.84,3.84,0,0,1-.5-1.89,3.73,3.73,0,0,1,.5-1.92A3.38,3.38,0,0,1,381.72,76,4,4,0,0,1,383.61,75.56Z"/><ellipse class="cls-4" cx="73.71" cy="107" rx="63.6" ry="7.7"/><path class="cls-5" d="M74.95,28.58a4.72,4.72,0,0,1,0,6.67L68.21,42a4.74,4.74,0,0,1-6.68,0L36,16.48a4.72,4.72,0,0,1,0-6.67l6.74-6.73a4.74,4.74,0,0,1,6.68,0Z"/><path class="cls-6" d="M74.95,28.58,66,19.67H57.77L41.95,3.87,36,9.82a4.72,4.72,0,0,0,0,6.67L61.53,42a4.74,4.74,0,0,0,6.68,0l6.74-6.73A4.72,4.72,0,0,0,74.95,28.58Z"/><path class="cls-5" d="M74.59,28.58a4.72,4.72,0,0,0,0,6.67L81.34,42A4.74,4.74,0,0,0,88,42l25.54-25.5a4.72,4.72,0,0,0,0-6.67l-6.74-6.73a4.74,4.74,0,0,0-6.68,0Z"/><path class="cls-6" d="M103.66,19.67l3.19-3.18a4.72,4.72,0,0,0,0-6.67L100.11,3.1,74.59,28.58a4.72,4.72,0,0,0,0,6.67L81.34,42A4.74,4.74,0,0,0,88,42l22.35-22.32Z"/><path class="cls-7" d="M120.08,39.45a4.73,4.73,0,0,0-4.72-4.72H34.19a4.73,4.73,0,0,0-4.72,4.72v61.13a4.73,4.73,0,0,0,4.72,4.72h81.17a4.73,4.73,0,0,0,4.72-4.72Z"/><ellipse class="cls-8" cx="53.6" cy="89.93" rx="8.66" ry="8.64"/><ellipse class="cls-8" cx="65.28" cy="62.31" rx="8.66" ry="8.64"/><ellipse class="cls-8" cx="90.64" cy="78.18" rx="8.66" ry="8.64"/><ellipse class="cls-8" cx="99.3" cy="44.21" rx="8.66" ry="8.64"/><ellipse class="cls-8" cx="43.27" cy="48.9" rx="8.66" ry="8.64"/><path class="cls-8" d="M96.13,105.29a8.66,8.66,0,0,1,17.32,0Z"/><path class="cls-8" d="M29.46,64.9a8.64,8.64,0,1,1,0,17.29Z"/><path class="cls-8" d="M120.08,71a8.64,8.64,0,1,1,0-17.29Z"/><path class="cls-6" d="M115.36,34.74H34.19a4.73,4.73,0,0,0-4.72,4.72v61.13a4.73,4.73,0,0,0,4.72,4.72H103.4a4.73,4.73,0,0,0,4.72-4.72V49.84h12V39.45A4.73,4.73,0,0,0,115.36,34.74Z"/><path class="cls-3" d="M126.71,30A4.73,4.73,0,0,0,122,25.26H27.56A4.73,4.73,0,0,0,22.83,30V39.5a4.73,4.73,0,0,0,4.72,4.72H122a4.73,4.73,0,0,0,4.72-4.72Z"/><path class="cls-9" d="M108.72,25.26H27.56A4.73,4.73,0,0,0,22.83,30V39.5a4.73,4.73,0,0,0,4.72,4.72h81.16a4.73,4.73,0,0,0,4.72-4.72V30A4.73,4.73,0,0,0,108.72,25.26Z"/><path class="cls-5" d="M65.28,25.26v54c0,2.59,1.66,3.39,3.69,1.78l2.1-1.67a6.24,6.24,0,0,1,7.39,0l2.1,1.67c2,1.62,3.69.82,3.69-1.78v-54Z"/><path class="cls-10" d="M122,23.55h-13.1l5.87-5.86a6.42,6.42,0,0,0,0-9.08L108,1.88a6.45,6.45,0,0,0-9.09,0L77.22,23.55H72.33L50.62,1.88a6.45,6.45,0,0,0-9.09,0L34.78,8.61a6.42,6.42,0,0,0,0,9.08l5.87,5.86H27.56A6.43,6.43,0,0,0,21.13,30V39.5a6.43,6.43,0,0,0,6.43,6.42h.2v54.66A6.43,6.43,0,0,0,34.19,107h81.17a6.43,6.43,0,0,0,6.43-6.42V45.92h.2a6.43,6.43,0,0,0,6.43-6.42V30A6.43,6.43,0,0,0,122,23.55ZM101.34,4.29a3,3,0,0,1,4.26,0L112.35,11a3,3,0,0,1,0,4.26l-8.29,8.28H82ZM82.55,27V79.28a2.23,2.23,0,0,1-.14.89,2.23,2.23,0,0,1-.78-.45l-2.1-1.67a7.91,7.91,0,0,0-9.52,0l-2.1,1.67a2.24,2.24,0,0,1-.78.45,2.23,2.23,0,0,1-.14-.89V27ZM37.2,15.28a3,3,0,0,1,0-4.26l6.74-6.73a3,3,0,0,1,4.26,0L67.5,23.55h-22ZM27.56,42.51a3,3,0,0,1-3-3V30a3,3,0,0,1,3-3h36V42.51h-36Zm90.82,58.07a3,3,0,0,1-3,3H34.19a3,3,0,0,1-3-3V45.92h32.4V79.28c0,1.92.75,3.38,2.05,4s2.91.3,4.42-.89l2.1-1.67a4.56,4.56,0,0,1,5.26,0l2.1,1.67a5,5,0,0,0,3,1.2,3.19,3.19,0,0,0,1.39-.31c1.3-.63,2.05-2.09,2.05-4V45.92h32.4v54.66ZM125,39.5a3,3,0,0,1-3,3H86V27h36a3,3,0,0,1,3,3Z"/></g></g></svg>