<svg xmlns="http://www.w3.org/2000/svg" width="328.84" height="323.5" viewBox="0 0 328.84 323.5"><defs><style>.cls-1{fill:#fff;}.cls-2{fill:#ccc;}.cls-3,.cls-5,.cls-7{fill:#f2f2f2;}.cls-4{fill:none;stroke-linecap:round;stroke-linejoin:round;}.cls-16,.cls-4,.cls-5,.cls-9{stroke:#ccc;}.cls-16,.cls-5,.cls-7,.cls-9{stroke-miterlimit:10;}.cls-6{fill:#d3d3d3;}.cls-7{stroke:#f2f2f2;}.cls-16,.cls-8{fill:#e5e5e5;}.cls-9{fill:#e2e2e2;}.cls-10{fill:#d6d6d6;}.cls-11{fill:#e8e8e8;}.cls-12{fill:#d8d8d8;}.cls-13{fill:#e6e6e6;}.cls-14{fill:#dbdbdb;}.cls-15{fill:#c6c6c6;}.cls-17{fill:#e8e6e6;}</style></defs><title>资产记录</title><g id="图层_2" data-name="图层 2"><g id="图层_1-2" data-name="图层 1"><path class="cls-1" d="M20.93,236.84l-.15-.24a11.86,11.86,0,0,1-1.92-6.31c0-7.81,7.89-14.16,17.59-14.16a10.06,10.06,0,0,1,1.09.08l.25,0c4.18-6.47,12.31-10.48,21.31-10.48,12.32,0,22.46,7.36,23.82,17.2,7.24.1,13.09,4.88,13.09,10.74a8.67,8.67,0,0,1-.51,2.79l-.11.34Z"/><path class="cls-2" d="M59.12,206.26c12.33,0,22.33,7.58,23.38,17.22l.21,0c7.08,0,12.82,4.59,12.82,10.25a8.27,8.27,0,0,1-.48,2.64H21.21a11.39,11.39,0,0,1-1.84-6c0-7.54,7.65-13.66,17.09-13.66.55,0,1.07.09,1.61.13,3.86-6.2,11.79-10.51,21.05-10.51m0-1c-9.05,0-17.25,4-21.56,10.45a10,10,0,0,0-1.1-.07c-10,0-18.09,6.58-18.09,14.66a12.35,12.35,0,0,0,2,6.58l.29.47H95.77l.23-.68a9.15,9.15,0,0,0,.53-3c0-6-5.84-11-13.16-11.23-1.62-9.87-11.85-17.21-24.25-17.21Z"/><ellipse class="cls-3" cx="167.85" cy="313.35" rx="87.94" ry="10.15"/><line class="cls-4" x1="16.3" y1="163.82" x2="30.33" y2="163.82"/><line class="cls-4" x1="23.31" y1="156.81" x2="23.31" y2="170.83"/><ellipse class="cls-5" cx="24.92" cy="65.88" rx="5.59" ry="5.46" transform="translate(-31.75 24.04) rotate(-32.84)"/><path class="cls-5" d="M17.41,131.38a8.78,8.78,0,0,0-6.16,2.49,8.4,8.4,0,0,0-2.55,6h0a8.4,8.4,0,0,0-2.55-6A8.78,8.78,0,0,0,0,131.38H0a8.78,8.78,0,0,0,6.16-2.49,8.4,8.4,0,0,0,2.55-6h0a8.4,8.4,0,0,0,2.55,6,8.78,8.78,0,0,0,6.16,2.49Z"/><path class="cls-5" d="M313.94,240.61a7.31,7.31,0,0,0-5.13,2.08,7,7,0,0,0-2.12,5h0a7,7,0,0,0-2.12-5,7.31,7.31,0,0,0-5.13-2.08h0a7.31,7.31,0,0,0,5.13-2.08,7,7,0,0,0,2.12-5h0a7,7,0,0,0,2.12,5,7.31,7.31,0,0,0,5.13,2.08Z"/><path class="cls-5" d="M328.84,208.88a9.62,9.62,0,0,0-6.75,2.73,9.2,9.2,0,0,0-2.79,6.6h0a9.2,9.2,0,0,0-2.79-6.6,9.62,9.62,0,0,0-6.75-2.73h0a9.62,9.62,0,0,0,6.75-2.73,9.2,9.2,0,0,0,2.79-6.6h0a9.2,9.2,0,0,0,2.79,6.6,9.62,9.62,0,0,0,6.75,2.73Z"/><path class="cls-5" d="M246.8,35.15l-169.7.44c-8.94,0-12.2-4.9-7.66-10.42l14.82-18C87.19,3.57,94.67.83,101.07.82L222.63.5c6.41,0,13.9,2.68,16.85,6.23l14.91,18C259,30.19,255.74,35.13,246.8,35.15Z"/><rect class="cls-6" x="62.26" y="25.98" width="198.01" height="229.07" rx="11.34" ry="11.34" transform="translate(-0.37 0.42) rotate(-0.15)"/><rect class="cls-1" x="71.6" y="42.94" width="180.2" height="205.31" rx="11.34" ry="11.34" transform="translate(-0.38 0.42) rotate(-0.15)"/><rect class="cls-7" x="64.9" y="41.79" width="191.87" height="209.36" transform="translate(-0.38 0.42) rotate(-0.15)"/><path class="cls-8" d="M247.36,250.92l-169.7.44c-8.94,0-12.2-3-7.65-6.38l14.84-11.07c2.94-2.19,10.42-3.88,16.83-3.89l121.56-.32c6.41,0,13.9,1.63,16.85,3.81l14.9,11C259.54,247.86,256.3,250.9,247.36,250.92Z"/><path class="cls-9" d="M247.19,185.16l-169.7.44c-8.94,0-12.2-3-7.65-6.38l14.84-11.07c2.94-2.19,10.42-3.88,16.83-3.89l121.56-.32c6.41,0,13.9,1.63,16.85,3.81l14.9,11C259.37,182.1,256.13,185.14,247.19,185.16Z"/><path class="cls-10" d="M247.18,180.56,77.47,181c-8.94,0-12.2-3-7.65-6.38l14.84-11.07c2.94-2.19,10.42-3.88,16.83-3.89L223,159.33c6.41,0,13.9,1.63,16.85,3.81l14.9,11C259.36,177.5,256.12,180.53,247.18,180.56Z"/><path class="cls-9" d="M245,24.5,77,24.94c-8.85,0-16.08,6.53-16.06,14.45l.53,202.78c0,7.92,7.28,14.39,16.14,14.37l168-.44c8.85,0,16.08-6.53,16.06-14.45L261.1,38.87C261.08,30.94,253.82,24.48,245,24.5ZM252,233.61c0,7.92-7.21,14.43-16.06,14.45l-148,.39c-8.85,0-16.12-6.44-16.14-14.37l-.46-176.5c0-7.92,7.21-14.43,16.06-14.45l148-.39c8.85,0,16.12,6.44,16.14,14.37Z"/><rect class="cls-6" x="172.01" y="232.15" width="72.22" height="8.63" transform="translate(3.11 -2.7) rotate(0.75)"/><path class="cls-11" d="M184.21,223.62l-12.14,8.06,72.22.94-11.93-8.37Zm-3.62,4.82,3.89-2.92c2.52,0,5.14-.41,5.82-1l36.21.47c.67.65,2.73,1.15,5.25,1.18l3.77,3c-2.93,0-3.87.78-2.89,1.74l-48.53-.63C185.1,229.33,183.52,228.48,180.6,228.44Z"/><path class="cls-1" d="M232.42,231.14c-1-.95,0-1.76,2.86-1.72l-3.74-3c-2.5,0-4.55-.53-5.21-1.17l-35.93-.47c-.67.62-3.27,1.06-5.77,1l-3.86,2.9c2.9,0,4.47.89,3.48,1.81Zm-9.86-4.07a4.09,4.09,0,0,1,2.41.6c.28.33-.4.6-1.53.59a3.79,3.79,0,0,1-2.44-.64C220.79,227.3,221.49,227.05,222.56,227.07Zm-14.19-1.61c3.32,0,6.3.93,6.69,2.11.45,1.33-2.53,2.51-6.72,2.46s-7.15-1.31-6.69-2.63C202.06,226.23,205,225.41,208.37,225.46Zm-14.21,1.24c1.06,0,1.76.27,1.55.59a3.75,3.75,0,0,1-2.44.58c-1.13,0-1.81-.3-1.52-.63A4,4,0,0,1,194.16,226.7Z"/><path class="cls-11" d="M208.34,230c4.18.05,7.16-1.12,6.72-2.46-.39-1.17-3.37-2.06-6.69-2.11s-6.31.77-6.71,1.93C201.19,228.71,204.16,230,208.34,230Zm-2.48-3.68a9.17,9.17,0,0,1,2-.17l0-.39h.9v.38l1.12.06c.38,0,.84.06,1.13.09l.06.46c-.29-.06-.77-.1-1.16-.14s-.86-.06-1.14-.07v.54H209a10.69,10.69,0,0,1,2.14.29c.43.13.66.32.71.57s-.17.46-.67.6a10.33,10.33,0,0,1-2.33.22v.75h-1.09l0-.73c-.54,0-1.08-.05-1.58-.09s-.84-.1-1.46-.17l.1-.57c.6.09,1,.16,1.49.21s.95.08,1.57.1l0-.65-.25,0a10.12,10.12,0,0,1-2-.29c-.38-.12-.56-.29-.53-.5S205.37,226.45,205.86,226.34Z"/><path class="cls-11" d="M209.87,228c0-.09-.09-.17-.25-.21a4.7,4.7,0,0,0-.81-.1v.58a3.72,3.72,0,0,0,.81-.06C209.8,228.2,209.88,228.13,209.87,228Z"/><path class="cls-11" d="M207.92,227.06v-.49a3.38,3.38,0,0,0-.7.06c-.17,0-.28.09-.28.16s.1.13.25.18A3.74,3.74,0,0,0,207.92,227.06Z"/><path class="cls-11" d="M193.27,227.86a3.75,3.75,0,0,0,2.44-.58c.21-.32-.49-.58-1.55-.59a4,4,0,0,0-2.42.54C191.46,227.56,192.14,227.85,193.27,227.86Z"/><path class="cls-11" d="M223.43,228.26c1.13,0,1.81-.25,1.53-.59a4.09,4.09,0,0,0-2.41-.6c-1.06,0-1.76.23-1.56.55A3.79,3.79,0,0,0,223.43,228.26Z"/><path class="cls-1" d="M207.65,227.63l.25,0,0,.65c-.62,0-1.08,0-1.57-.1s-.89-.12-1.49-.21l-.1.57c.62.07,1,.12,1.46.16s1,.09,1.57.1v.73h1.09v-.75a10.32,10.32,0,0,0,2.33-.22c.49-.14.71-.34.67-.6s-.28-.44-.71-.57a10.66,10.66,0,0,0-2.14-.29h-.18v-.54c.28,0,.76,0,1.14.07s.86.08,1.16.14l-.06-.46c-.28,0-.75-.07-1.13-.09l-1.12-.06v-.38h-.9l0,.39a9.17,9.17,0,0,0-2,.17c-.48.11-.75.28-.79.5s.15.38.54.5A10.12,10.12,0,0,0,207.65,227.63Zm1.15.09a4.7,4.7,0,0,1,.81.1c.17,0,.25.12.26.21s-.07.16-.25.21a3.74,3.74,0,0,1-.81.06Zm-1.58-1.08a3.38,3.38,0,0,1,.7-.06v.49a3.88,3.88,0,0,1-.73-.09c-.15,0-.22-.1-.22-.18S207.06,226.68,207.23,226.64Z"/><rect class="cls-6" x="172.14" y="222.31" width="72.22" height="8.63" transform="translate(2.98 -2.7) rotate(0.75)"/><path class="cls-11" d="M184.34,213.78l-12.14,8.06,72.22.94-11.93-8.37Zm-3.62,4.82,3.89-2.92c2.52,0,5.14-.41,5.82-1l36.21.47c.67.65,2.73,1.15,5.25,1.18l3.77,3c-2.93,0-3.87.78-2.89,1.74l-48.53-.63C185.23,219.49,183.65,218.64,180.72,218.6Z"/><path class="cls-1" d="M232.54,221.3c-1-.95,0-1.76,2.86-1.72l-3.74-3c-2.5,0-4.55-.53-5.21-1.17l-35.93-.47c-.67.62-3.27,1.06-5.77,1l-3.86,2.9c2.9,0,4.47.89,3.48,1.81Zm-9.86-4.07a4.09,4.09,0,0,1,2.41.6c.28.33-.4.6-1.53.59a3.79,3.79,0,0,1-2.44-.64C220.92,217.45,221.62,217.21,222.68,217.23Zm-14.19-1.61c3.32,0,6.3.93,6.69,2.11.45,1.33-2.53,2.51-6.72,2.46s-7.15-1.31-6.69-2.63C202.19,216.38,205.18,215.57,208.49,215.62Zm-14.21,1.24c1.06,0,1.76.27,1.55.59a3.75,3.75,0,0,1-2.44.58c-1.13,0-1.81-.3-1.52-.63A4,4,0,0,1,194.29,216.86Z"/><path class="cls-11" d="M208.47,220.18c4.18.05,7.16-1.12,6.72-2.46-.39-1.17-3.37-2.06-6.69-2.11s-6.31.77-6.71,1.93C201.32,218.87,204.29,220.13,208.47,220.18ZM206,216.5a9.17,9.17,0,0,1,2-.17l0-.39h.9v.38l1.12.06c.38,0,.84.06,1.13.09l.06.46c-.29-.06-.77-.1-1.16-.14s-.86-.06-1.14-.07v.54h.18a10.69,10.69,0,0,1,2.14.29c.43.13.66.32.71.57s-.17.46-.67.6A10.33,10.33,0,0,1,209,219v.75h-1.09l0-.73c-.54,0-1.08-.05-1.58-.09s-.84-.1-1.46-.17l.1-.57c.6.09,1,.16,1.49.21s.95.08,1.57.1l0-.65-.25,0a10.12,10.12,0,0,1-2-.29c-.38-.12-.56-.29-.53-.5S205.5,216.61,206,216.5Z"/><path class="cls-11" d="M210,218.19c0-.09-.09-.17-.25-.21a4.7,4.7,0,0,0-.81-.1v.58a3.72,3.72,0,0,0,.81-.06C209.93,218.36,210,218.29,210,218.19Z"/><path class="cls-11" d="M208,217.22v-.49a3.38,3.38,0,0,0-.7.06c-.17,0-.28.09-.28.16s.1.13.25.18A3.74,3.74,0,0,0,208,217.22Z"/><path class="cls-11" d="M193.4,218a3.75,3.75,0,0,0,2.44-.58c.21-.32-.49-.58-1.55-.59a4,4,0,0,0-2.42.54C191.59,217.72,192.27,218,193.4,218Z"/><path class="cls-11" d="M223.56,218.42c1.13,0,1.81-.25,1.53-.59a4.09,4.09,0,0,0-2.41-.6c-1.06,0-1.76.23-1.56.55A3.79,3.79,0,0,0,223.56,218.42Z"/><path class="cls-1" d="M207.78,217.79l.25,0,0,.65c-.62,0-1.08,0-1.57-.1s-.89-.12-1.49-.21l-.1.57c.62.07,1,.12,1.46.16s1,.09,1.57.1v.73H209V219a10.32,10.32,0,0,0,2.33-.22c.49-.14.71-.34.67-.6s-.28-.44-.71-.57a10.66,10.66,0,0,0-2.14-.29h-.18v-.54c.28,0,.76,0,1.14.07s.86.08,1.16.14l-.06-.46c-.28,0-.75-.07-1.13-.09l-1.12-.06V216H208l0,.39a9.17,9.17,0,0,0-2,.17c-.48.11-.75.28-.79.5s.15.38.54.5A10.12,10.12,0,0,0,207.78,217.79Zm1.15.09a4.7,4.7,0,0,1,.81.1c.17,0,.25.12.26.21s-.07.16-.25.21a3.74,3.74,0,0,1-.81.06Zm-1.58-1.08a3.38,3.38,0,0,1,.7-.06v.49a3.88,3.88,0,0,1-.73-.09c-.15,0-.22-.1-.22-.18S207.19,216.84,207.36,216.8Z"/><rect class="cls-6" x="172.27" y="212.41" width="72.22" height="8.63" transform="translate(2.85 -2.7) rotate(0.75)"/><path class="cls-11" d="M184.47,203.88l-12.14,8.06,72.22.94-11.93-8.37Zm-3.62,4.82,3.89-2.92c2.52,0,5.14-.41,5.82-1l36.21.47c.67.65,2.73,1.15,5.25,1.18l3.77,3c-2.93,0-3.87.78-2.89,1.74l-48.53-.63C185.36,209.6,183.78,208.74,180.85,208.7Z"/><path class="cls-1" d="M232.67,211.4c-1-.95,0-1.76,2.86-1.72l-3.74-3c-2.5,0-4.55-.53-5.21-1.17L190.66,205c-.67.62-3.27,1.06-5.77,1L181,209c2.9,0,4.47.89,3.48,1.81Zm-9.86-4.07a4.09,4.09,0,0,1,2.41.6c.28.33-.4.6-1.53.59a3.79,3.79,0,0,1-2.44-.64C221.05,207.56,221.75,207.31,222.81,207.33Zm-14.19-1.61c3.32,0,6.3.93,6.69,2.11.45,1.33-2.53,2.51-6.72,2.46s-7.15-1.31-6.69-2.63C202.32,206.49,205.3,205.68,208.62,205.72ZM194.42,207c1.06,0,1.76.27,1.55.59a3.75,3.75,0,0,1-2.44.58c-1.13,0-1.81-.3-1.52-.63A4,4,0,0,1,194.42,207Z"/><path class="cls-11" d="M208.6,210.28c4.18.05,7.16-1.12,6.72-2.46-.39-1.17-3.37-2.06-6.69-2.11s-6.31.77-6.71,1.93C201.45,209,204.41,210.23,208.6,210.28Zm-2.48-3.68a9.17,9.17,0,0,1,2-.17l0-.39h.9v.38l1.12.06c.38,0,.84.06,1.13.09l.06.46c-.29-.06-.77-.1-1.16-.14s-.86-.06-1.14-.07v.54h.18a10.69,10.69,0,0,1,2.14.29c.43.13.66.32.71.57s-.17.46-.67.6a10.33,10.33,0,0,1-2.33.22v.75H208l0-.73c-.54,0-1.08-.05-1.58-.09s-.84-.1-1.46-.17l.1-.57c.6.09,1,.16,1.49.21s.95.08,1.57.1l0-.65-.25,0a10.12,10.12,0,0,1-2-.29c-.38-.12-.56-.29-.53-.5S205.63,206.71,206.11,206.6Z"/><path class="cls-11" d="M210.13,208.3c0-.09-.09-.17-.25-.21a4.7,4.7,0,0,0-.81-.1v.58a3.72,3.72,0,0,0,.81-.06C210.06,208.46,210.14,208.39,210.13,208.3Z"/><path class="cls-11" d="M208.18,207.33v-.49a3.38,3.38,0,0,0-.7.06c-.17,0-.28.09-.28.16s.1.13.25.18A3.74,3.74,0,0,0,208.18,207.33Z"/><path class="cls-11" d="M193.53,208.13a3.75,3.75,0,0,0,2.44-.58c.21-.32-.49-.58-1.55-.59a4,4,0,0,0-2.42.54C191.72,207.83,192.4,208.11,193.53,208.13Z"/><path class="cls-11" d="M223.69,208.52c1.13,0,1.81-.25,1.53-.59a4.09,4.09,0,0,0-2.41-.6c-1.06,0-1.76.23-1.56.55A3.79,3.79,0,0,0,223.69,208.52Z"/><path class="cls-1" d="M207.91,207.9l.25,0,0,.65c-.62,0-1.08,0-1.57-.1s-.89-.12-1.49-.21l-.1.57c.62.07,1,.12,1.46.16s1,.09,1.57.1v.73h1.09v-.75a10.32,10.32,0,0,0,2.33-.22c.49-.14.71-.34.67-.6s-.28-.44-.71-.57a10.66,10.66,0,0,0-2.14-.29h-.18v-.54c.28,0,.76,0,1.14.07s.86.08,1.16.14l-.06-.46c-.28,0-.75-.07-1.13-.09l-1.12-.06v-.38h-.9l0,.39a9.17,9.17,0,0,0-2,.17c-.48.11-.75.28-.79.5s.15.38.54.5A10.12,10.12,0,0,0,207.91,207.9Zm1.15.09a4.7,4.7,0,0,1,.81.1c.17,0,.25.12.26.21s-.07.16-.25.21a3.74,3.74,0,0,1-.81.06Zm-1.58-1.08a3.38,3.38,0,0,1,.7-.06v.49a3.88,3.88,0,0,1-.73-.09c-.15,0-.22-.1-.22-.18S207.32,206.94,207.49,206.9Z"/><path class="cls-12" d="M289,112.19a1.6,1.6,0,0,0-1.07-1.94L241.22,95.64l-9.68-16.9a1.6,1.6,0,0,0-.91-.73l-21.42-6.7a1.6,1.6,0,0,0-1.27.13l-16.31,9.22a1.61,1.61,0,0,0-.76,1l-18.76,70.71a1.6,1.6,0,0,0,1.07,1.94l95,29.72a1.6,1.6,0,0,0,2-1.12Z"/><path class="cls-13" d="M281.45,121.64l-90-24.9a1.6,1.6,0,0,0-2,1.12l-14.64,52.92a1.6,1.6,0,0,0,1.12,2l90,24.9a1.6,1.6,0,0,0,2-1.12l14.64-52.92A1.6,1.6,0,0,0,281.45,121.64Z"/><path class="cls-3" d="M287.42,117.35,198.74,88.13a1.6,1.6,0,0,0-2,1L179.53,141.3a1.6,1.6,0,0,0,1,2l88.68,29.22a1.6,1.6,0,0,0,2-1l17.18-52.15A1.6,1.6,0,0,0,287.42,117.35Z"/><path class="cls-1" d="M291.09,121.83,206,83.47a1.6,1.6,0,0,0-2.12.8l-22.56,50.06a1.6,1.6,0,0,0,.8,2.12l85.12,38.36a1.6,1.6,0,0,0,2.12-.8l22.56-50.06A1.6,1.6,0,0,0,291.09,121.83Z"/><path class="cls-8" d="M305.94,110.44a1.6,1.6,0,0,0-1-.9l-47.31-14.8a1.6,1.6,0,0,0-1.17.08l-17.58,8.38-33-10.33a1.6,1.6,0,0,0-1.89.77L172.26,152a1.6,1.6,0,0,0,.93,2.29l95,29.72a1.6,1.6,0,0,0,1.91-.81l35.77-71.42A1.6,1.6,0,0,0,305.94,110.44Z"/><path class="cls-14" d="M304.74,112.16,173,153.67s93.57,28.8,94.37,29a1.65,1.65,0,0,0,1.9-.79Z"/><path class="cls-3" d="M193,271a23.21,23.21,0,0,1-2.76-.17L79.41,257.51c-10.17-1.22-18.45-8.8-18.47-16.89L60.41,40.36a11.28,11.28,0,0,1,3.41-8.13,17.42,17.42,0,0,1,12.35-4.6,23.17,23.17,0,0,1,2.76.17L189.75,41.14c10.17,1.22,18.45,8.8,18.47,16.89l.52,200.26a11.28,11.28,0,0,1-3.41,8.13A17.41,17.41,0,0,1,193,271Z"/><path class="cls-2" d="M76.17,28.13a22.61,22.61,0,0,1,2.7.16L189.69,41.64c9.9,1.19,18,8.57,18,16.4l.52,200.26c0,7.1-6.63,12.23-15.26,12.23a22.61,22.61,0,0,1-2.7-.16L79.47,257c-9.9-1.19-18-8.57-18-16.4L60.91,40.36c0-7.1,6.63-12.23,15.26-12.23m0-1c-5.06,0-9.69,1.73-12.7,4.74a11.77,11.77,0,0,0-3.56,8.49l.52,200.26c0,8.33,8.51,16.13,18.91,17.39l110.82,13.35a23.7,23.7,0,0,0,2.82.17c5.06,0,9.69-1.73,12.7-4.74a11.77,11.77,0,0,0,3.56-8.49L208.73,58c0-8.33-8.51-16.13-18.91-17.39L79,27.3a23.7,23.7,0,0,0-2.82-.17Z"/><path class="cls-6" d="M189.69,41.64,78.87,28.29c-5.71-.69-10.8.83-14.09,3.74a21.24,21.24,0,0,1,6.66-.23L182.26,45.15c9.9,1.19,18,8.57,18,16.4l.52,200.26a10.9,10.9,0,0,1-3.87,8.32c6.62-1.31,11.32-5.87,11.3-11.84L207.73,58C207.71,50.21,199.59,42.83,189.69,41.64Z"/><path class="cls-15" d="M154.67,113.33c.09,15-9.27,26.7-20.91,26.2s-21.15-13-21.25-28,9.27-26.7,20.91-26.2S154.58,98.36,154.67,113.33Z"/><path class="cls-12" d="M149.64,112.79c.09,15-9.27,26.7-20.91,26.2s-21.15-13-21.25-28,9.27-26.7,20.91-26.2S149.54,97.82,149.64,112.79Z"/><path class="cls-8" d="M142.4,112.48c.06,9.83-6.09,17.54-13.73,17.21s-13.9-8.56-14-18.4,6.09-17.54,13.73-17.21S142.34,102.65,142.4,112.48Z"/><path class="cls-16" d="M132.46,111.89c.06,9.15-5.66,16.32-12.78,16s-12.93-8-13-17.12,5.66-16.32,12.78-16S132.4,102.74,132.46,111.89Z"/><polygon class="cls-9" points="177.91 243.84 84.29 233.34 84.47 183.33 177.91 191.39 177.91 243.84"/><polygon class="cls-12" points="177.38 191.94 84.82 232.89 177.31 243.18 177.38 191.94"/><path class="cls-1" d="M272.68,80.15l-.15-.24a6.85,6.85,0,0,1-1.1-3.65c0-4.49,4.51-8.14,10.06-8.14a5.91,5.91,0,0,1,.64,0h0c2.4-3.62,7-5.85,12-5.85,6.92,0,12.64,4.11,13.51,9.63,4.08.14,7.35,2.88,7.35,6.23a5.06,5.06,0,0,1-.3,1.63l-.11.34Z"/><path class="cls-2" d="M294.16,62.82c6.9,0,12.49,4.24,13.08,9.63h.12c4,0,7.17,2.57,7.17,5.73a4.63,4.63,0,0,1-.27,1.47H273a6.37,6.37,0,0,1-1-3.38c0-4.22,4.28-7.64,9.56-7.64.31,0,.6,0,.9.07,2.16-3.47,6.6-5.88,11.77-5.88m0-1c-5.11,0-9.74,2.22-12.28,5.82l-.4,0c-5.82,0-10.56,3.88-10.56,8.64a7.34,7.34,0,0,0,1.18,3.91l.29.47H315l.23-.68a5.54,5.54,0,0,0,.32-1.79c0-3.51-3.27-6.39-7.43-6.7-1.12-5.56-6.93-9.65-13.94-9.65Z"/><polygon class="cls-17" points="177.91 183.67 84.4 174.69 84.29 165.86 177.91 174.86 177.91 183.67"/></g></g></svg>