<?xml version="1.0" encoding="utf-8"?>
<!-- Generator: Adobe Illustrator 21.0.2, SVG Export Plug-In . SVG Version: 6.00 Build 0)  -->
<svg version="1.1" id="图层_1" xmlns="http://www.w3.org/2000/svg" xmlns:xlink="http://www.w3.org/1999/xlink" x="0px" y="0px"
	 width="17px" height="30px" viewBox="0 0 17 30" style="enable-background:new 0 0 17 30;" xml:space="preserve">
<style type="text/css">
	.st0{fill:#FFFFFF;}
</style>
<path id="箭头.svg" class="st0" d="M15.2,30c-0.5,0-0.9-0.2-1.3-0.5L0.5,16.3c-0.7-0.7-0.7-1.8,0-2.5c0,0,0,0,0,0L13.9,0.5
	c0.7-0.7,1.9-0.7,2.6,0c0.7,0.7,0.7,1.8,0,2.5c0,0,0,0,0,0L4.4,15l12.1,11.9c0.7,0.7,0.7,1.8,0,2.5c0,0,0,0,0,0
	C16.1,29.8,15.7,30,15.2,30L15.2,30L15.2,30z"/>
</svg>
