<svg xmlns="http://www.w3.org/2000/svg" width="13" height="23" viewBox="0 0 13 23">
  <defs>
    <style>
      .cls-1 {
        fill: #ccc;
        fill-rule: evenodd;
      }
    </style>
  </defs>
  <path id="充值-箭头.svg" class="cls-1" d="M719.805,308.119c0.015-.029.039-0.054,0.052-0.085a1.449,1.449,0,0,0-.28-1.656l-10.231-9.986a1.362,1.362,0,0,0-1.966.057,1.467,1.467,0,0,0,.055,2.028l9.18,8.961-9.144,9.1a1.467,1.467,0,0,0-.036,2.028,1.36,1.36,0,0,0,1.966.037l10.138-10.083c0.02-.02.027-0.047,0.047-0.068s0.03-.025.045-0.041a1.3,1.3,0,0,0,.174-0.287h0Z" transform="translate(-707 -296)"/>
</svg>
