<svg xmlns="http://www.w3.org/2000/svg" width="40" height="30" viewBox="0 0 40 30">
  <defs>
    <style>
      .cls-1 {
        fill: #ff9500;
        fill-rule: evenodd;
      }
    </style>
  </defs>
  <path id="credit_C.svg" data-name="credit C.svg" class="cls-1" d="M97.25,298H64.75A3.759,3.759,0,0,0,61,301.75v22.5A3.759,3.759,0,0,0,64.75,328h32.5a3.762,3.762,0,0,0,3.75-3.75v-22.5A3.762,3.762,0,0,0,97.25,298Zm1.25,26.25a1.266,1.266,0,0,1-1.25,1.25H64.75a1.266,1.266,0,0,1-1.25-1.25V313h35v11.25Zm0-18.75h-35v-3.75a1.266,1.266,0,0,1,1.25-1.25h32.5a1.266,1.266,0,0,1,1.25,1.25v3.75ZM66,318h2.5v5H66v-5Zm5,0h2.5v5H71v-5Zm5,0h2.5v5H76v-5Z" transform="translate(-61 -298)"/>
</svg>
