<svg xmlns="http://www.w3.org/2000/svg" width="38" height="38" viewBox="0 0 38 38">
  <defs>
    <style>
      .cls-1 {
        fill-rule: evenodd;
      }
    </style>
  </defs>
  <path id="nav_per.svg" class="cls-1" d="M719.152,79.364a3.412,3.412,0,0,0-2.712-1.221H694.2a1.357,1.357,0,0,0,0,2.714H716.44a1.037,1.037,0,0,1,.678.271,0.761,0.761,0,0,1,.136.814l-2.034,14.25a1.056,1.056,0,0,1-1.085.814h-20.61a1.3,1.3,0,0,1-1.085-1.221l-2.305-15.743-1.22-6.65A3.956,3.956,0,0,0,684.983,70h-1.627a1.357,1.357,0,0,0,0,2.714h1.627A1.285,1.285,0,0,1,686.2,73.8l1.221,6.65,2.169,15.743a4.059,4.059,0,0,0,3.8,3.664H714a3.808,3.808,0,0,0,3.8-3.121l2.169-14.386a3.886,3.886,0,0,0-.813-2.986h0Zm-26.169,25.922-2.712,0a2.712,2.712,0,1,0,2.712-2.715,2.713,2.713,0,0,0-2.712,2.715m24.271,0-2.712,0a2.712,2.712,0,1,0,2.712-2.715,2.713,2.713,0,0,0-2.712,2.715" transform="translate(-682 -70)"/>
</svg>
