<svg xmlns="http://www.w3.org/2000/svg" width="543" height="93" viewBox="0 0 543 93"><defs><style>.cls-1{fill:#fff;stroke:#000;stroke-miterlimit:10;stroke-width:3px;}.cls-2{opacity:0.05;}</style></defs><title>输入框</title><g id="图层_2" data-name="图层 2"><g id="图层_1-2" data-name="图层 1"><rect class="cls-1" x="1.5" y="1.5" width="540" height="90" rx="20" ry="20"/><g class="cls-2"><circle cx="17.75" cy="16.56" r="1.92"/><circle cx="17.75" cy="30.95" r="1.92"/><circle cx="17.75" cy="45.34" r="1.92"/><circle cx="17.75" cy="59.73" r="1.92"/><circle cx="17.75" cy="75.08" r="1.92"/><circle cx="11.04" cy="24.23" r="1.92"/><circle cx="11.04" cy="38.62" r="1.92"/><circle cx="11.04" cy="53.01" r="1.92"/><circle cx="11.04" cy="67.4" r="1.92"/><circle cx="25.43" cy="9.84" r="1.92"/><circle cx="25.43" cy="24.23" r="1.92"/><circle cx="25.43" cy="38.62" r="1.92"/><circle cx="25.43" cy="53.01" r="1.92"/><circle cx="25.43" cy="67.4" r="1.92"/><circle cx="25.43" cy="82.75" r="1.92"/><circle cx="33.1" cy="16.56" r="1.92"/><circle cx="33.1" cy="30.95" r="1.92"/><circle cx="33.1" cy="45.34" r="1.92"/><circle cx="33.1" cy="59.73" r="1.92"/><circle cx="33.1" cy="75.08" r="1.92"/><circle cx="46.53" cy="16.56" r="1.92"/><circle cx="46.53" cy="30.95" r="1.92"/><circle cx="46.53" cy="45.34" r="1.92"/><circle cx="46.53" cy="59.73" r="1.92"/><circle cx="46.53" cy="75.08" r="1.92"/><circle cx="39.82" cy="9.84" r="1.92"/><circle cx="39.82" cy="24.23" r="1.92"/><circle cx="39.82" cy="38.62" r="1.92"/><circle cx="39.82" cy="53.01" r="1.92"/><circle cx="39.82" cy="67.4" r="1.92"/><circle cx="39.82" cy="82.75" r="1.92"/><circle cx="53.25" cy="9.84" r="1.92"/><circle cx="53.25" cy="24.23" r="1.92"/><circle cx="53.25" cy="38.62" r="1.92"/><circle cx="53.25" cy="53.01" r="1.92"/><circle cx="53.25" cy="67.4" r="1.92"/><circle cx="53.25" cy="82.75" r="1.92"/><circle cx="60.92" cy="16.56" r="1.92"/><circle cx="60.92" cy="30.95" r="1.92"/><circle cx="60.92" cy="45.34" r="1.92"/><circle cx="60.92" cy="59.73" r="1.92"/><circle cx="60.92" cy="75.08" r="1.92"/><circle cx="74.35" cy="16.56" r="1.92"/><circle cx="74.35" cy="30.95" r="1.92"/><circle cx="74.35" cy="45.34" r="1.92"/><circle cx="74.35" cy="59.73" r="1.92"/><circle cx="74.35" cy="75.08" r="1.92"/><circle cx="67.64" cy="9.84" r="1.92"/><circle cx="67.64" cy="24.23" r="1.92"/><circle cx="67.64" cy="38.62" r="1.92"/><circle cx="67.64" cy="53.01" r="1.92"/><circle cx="67.64" cy="67.4" r="1.92"/><circle cx="67.64" cy="82.75" r="1.92"/><circle cx="82.03" cy="9.84" r="1.92"/><circle cx="82.03" cy="24.23" r="1.92"/><circle cx="82.03" cy="38.62" r="1.92"/><circle cx="82.03" cy="53.01" r="1.92"/><circle cx="82.03" cy="67.4" r="1.92"/><circle cx="82.03" cy="82.75" r="1.92"/><circle cx="89.7" cy="16.56" r="1.92"/><circle cx="89.7" cy="30.95" r="1.92"/><circle cx="89.7" cy="45.34" r="1.92"/><circle cx="89.7" cy="59.73" r="1.92"/><circle cx="89.7" cy="75.08" r="1.92"/><circle cx="103.13" cy="16.56" r="1.92"/><circle cx="103.13" cy="30.95" r="1.92"/><circle cx="103.13" cy="45.34" r="1.92"/><circle cx="103.13" cy="59.73" r="1.92"/><circle cx="103.13" cy="75.08" r="1.92"/><circle cx="96.42" cy="9.84" r="1.92"/><circle cx="96.42" cy="24.23" r="1.92"/><circle cx="96.42" cy="38.62" r="1.92"/><circle cx="96.42" cy="53.01" r="1.92"/><circle cx="96.42" cy="67.4" r="1.92"/><circle cx="96.42" cy="82.75" r="1.92"/><circle cx="117.52" cy="16.56" r="1.92"/><circle cx="117.52" cy="30.95" r="1.92"/><circle cx="117.52" cy="45.34" r="1.92"/><circle cx="117.52" cy="59.73" r="1.92"/><circle cx="117.52" cy="75.08" r="1.92"/><circle cx="110.81" cy="9.84" r="1.92"/><circle cx="110.81" cy="24.23" r="1.92"/><circle cx="110.81" cy="38.62" r="1.92"/><circle cx="110.81" cy="53.01" r="1.92"/><circle cx="110.81" cy="67.4" r="1.92"/><circle cx="110.81" cy="82.75" r="1.92"/><circle cx="125.19" cy="9.84" r="1.92"/><circle cx="125.19" cy="24.23" r="1.92"/><circle cx="125.19" cy="38.62" r="1.92"/><circle cx="125.19" cy="53.01" r="1.92"/><circle cx="125.19" cy="67.4" r="1.92"/><circle cx="125.19" cy="82.75" r="1.92"/><circle cx="132.87" cy="16.56" r="1.92"/><circle cx="132.87" cy="30.95" r="1.92"/><circle cx="132.87" cy="45.34" r="1.92"/><circle cx="132.87" cy="59.73" r="1.92"/><circle cx="132.87" cy="75.08" r="1.92"/><circle cx="146.3" cy="16.56" r="1.92"/><circle cx="146.3" cy="30.95" r="1.92"/><circle cx="146.3" cy="45.34" r="1.92"/><circle cx="146.3" cy="59.73" r="1.92"/><circle cx="146.3" cy="75.08" r="1.92"/><circle cx="139.58" cy="9.84" r="1.92"/><circle cx="139.58" cy="24.23" r="1.92"/><circle cx="139.58" cy="38.62" r="1.92"/><circle cx="139.58" cy="53.01" r="1.92"/><circle cx="139.58" cy="67.4" r="1.92"/><circle cx="139.58" cy="82.75" r="1.92"/><circle cx="153.01" cy="9.84" r="1.92"/><circle cx="153.01" cy="24.23" r="1.92"/><circle cx="153.01" cy="38.62" r="1.92"/><circle cx="153.01" cy="53.01" r="1.92"/><circle cx="153.01" cy="67.4" r="1.92"/><circle cx="153.01" cy="82.75" r="1.92"/><circle cx="160.69" cy="16.56" r="1.92"/><circle cx="160.69" cy="30.95" r="1.92"/><circle cx="160.69" cy="45.34" r="1.92"/><circle cx="160.69" cy="59.73" r="1.92"/><circle cx="160.69" cy="75.08" r="1.92"/><circle cx="174.12" cy="16.56" r="1.92"/><circle cx="174.12" cy="30.95" r="1.92"/><circle cx="174.12" cy="45.34" r="1.92"/><circle cx="174.12" cy="59.73" r="1.92"/><circle cx="174.12" cy="75.08" r="1.92"/><circle cx="167.4" cy="9.84" r="1.92"/><circle cx="167.4" cy="24.23" r="1.92"/><circle cx="167.4" cy="38.62" r="1.92"/><circle cx="167.4" cy="53.01" r="1.92"/><circle cx="167.4" cy="67.4" r="1.92"/><circle cx="167.4" cy="82.75" r="1.92"/><circle cx="181.79" cy="9.84" r="1.92"/><circle cx="181.79" cy="24.23" r="1.92"/><circle cx="181.79" cy="38.62" r="1.92"/><circle cx="181.79" cy="53.01" r="1.92"/><circle cx="181.79" cy="67.4" r="1.92"/><circle cx="181.79" cy="82.75" r="1.92"/><circle cx="189.47" cy="16.56" r="1.92"/><circle cx="189.47" cy="30.95" r="1.92"/><circle cx="189.47" cy="45.34" r="1.92"/><circle cx="189.47" cy="59.73" r="1.92"/><circle cx="189.47" cy="75.08" r="1.92"/><circle cx="202.9" cy="16.56" r="1.92"/><circle cx="202.9" cy="30.95" r="1.92"/><circle cx="202.9" cy="45.34" r="1.92"/><circle cx="202.9" cy="59.73" r="1.92"/><circle cx="202.9" cy="75.08" r="1.92"/><circle cx="196.18" cy="9.84" r="1.92"/><circle cx="196.18" cy="24.23" r="1.92"/><circle cx="196.18" cy="38.62" r="1.92"/><circle cx="196.18" cy="53.01" r="1.92"/><circle cx="196.18" cy="67.4" r="1.92"/><circle cx="196.18" cy="82.75" r="1.92"/><circle cx="217.29" cy="16.56" r="1.92"/><circle cx="217.29" cy="30.95" r="1.92"/><circle cx="217.29" cy="45.34" r="1.92"/><circle cx="217.29" cy="59.73" r="1.92"/><circle cx="217.29" cy="75.08" r="1.92"/><circle cx="210.57" cy="9.84" r="1.92"/><circle cx="210.57" cy="24.23" r="1.92"/><circle cx="210.57" cy="38.62" r="1.92"/><circle cx="210.57" cy="53.01" r="1.92"/><circle cx="210.57" cy="67.4" r="1.92"/><circle cx="210.57" cy="82.75" r="1.92"/><circle cx="224.96" cy="9.84" r="1.92"/><circle cx="224.96" cy="24.23" r="1.92"/><circle cx="224.96" cy="38.62" r="1.92"/><circle cx="224.96" cy="53.01" r="1.92"/><circle cx="224.96" cy="67.4" r="1.92"/><circle cx="224.96" cy="82.75" r="1.92"/><circle cx="232.64" cy="16.56" r="1.92"/><circle cx="232.64" cy="30.95" r="1.92"/><circle cx="232.64" cy="45.34" r="1.92"/><circle cx="232.64" cy="59.73" r="1.92"/><circle cx="232.64" cy="75.08" r="1.92"/><circle cx="246.07" cy="16.56" r="1.92"/><circle cx="246.07" cy="30.95" r="1.92"/><circle cx="246.07" cy="45.34" r="1.92"/><circle cx="246.07" cy="59.73" r="1.92"/><circle cx="246.07" cy="75.08" r="1.92"/><circle cx="239.35" cy="9.84" r="1.92"/><circle cx="239.35" cy="24.23" r="1.92"/><circle cx="239.35" cy="38.62" r="1.92"/><circle cx="239.35" cy="53.01" r="1.92"/><circle cx="239.35" cy="67.4" r="1.92"/><circle cx="239.35" cy="82.75" r="1.92"/><circle cx="252.78" cy="9.84" r="1.92"/><circle cx="252.78" cy="24.23" r="1.92"/><circle cx="252.78" cy="38.62" r="1.92"/><circle cx="252.78" cy="53.01" r="1.92"/><circle cx="252.78" cy="67.4" r="1.92"/><circle cx="252.78" cy="82.75" r="1.92"/><circle cx="260.46" cy="16.56" r="1.92"/><circle cx="260.46" cy="30.95" r="1.92"/><circle cx="260.46" cy="45.34" r="1.92"/><circle cx="260.46" cy="59.73" r="1.92"/><circle cx="260.46" cy="75.08" r="1.92"/><circle cx="273.89" cy="16.56" r="1.92"/><circle cx="273.89" cy="30.95" r="1.92"/><circle cx="273.89" cy="45.34" r="1.92"/><circle cx="273.89" cy="59.73" r="1.92"/><circle cx="273.89" cy="75.08" r="1.92"/><circle cx="267.17" cy="9.84" r="1.92"/><circle cx="267.17" cy="24.23" r="1.92"/><circle cx="267.17" cy="38.62" r="1.92"/><circle cx="267.17" cy="53.01" r="1.92"/><circle cx="267.17" cy="67.4" r="1.92"/><circle cx="267.17" cy="82.75" r="1.92"/><circle cx="281.56" cy="9.84" r="1.92"/><circle cx="281.56" cy="24.23" r="1.92"/><circle cx="281.56" cy="38.62" r="1.92"/><circle cx="281.56" cy="53.01" r="1.92"/><circle cx="281.56" cy="67.4" r="1.92"/><circle cx="281.56" cy="82.75" r="1.92"/><circle cx="289.24" cy="16.56" r="1.92"/><circle cx="289.24" cy="30.95" r="1.92"/><circle cx="289.24" cy="45.34" r="1.92"/><circle cx="289.24" cy="59.73" r="1.92"/><circle cx="289.24" cy="75.08" r="1.92"/><circle cx="302.67" cy="16.56" r="1.92"/><circle cx="302.67" cy="30.95" r="1.92"/><circle cx="302.67" cy="45.34" r="1.92"/><circle cx="302.67" cy="59.73" r="1.92"/><circle cx="302.67" cy="75.08" r="1.92"/><circle cx="295.95" cy="9.84" r="1.92"/><circle cx="295.95" cy="24.23" r="1.92"/><circle cx="295.95" cy="38.62" r="1.92"/><circle cx="295.95" cy="53.01" r="1.92"/><circle cx="295.95" cy="67.4" r="1.92"/><circle cx="295.95" cy="82.75" r="1.92"/><circle cx="317.06" cy="16.56" r="1.92"/><circle cx="317.06" cy="30.95" r="1.92"/><circle cx="317.06" cy="45.34" r="1.92"/><circle cx="317.06" cy="59.73" r="1.92"/><circle cx="317.06" cy="75.08" r="1.92"/><circle cx="310.34" cy="9.84" r="1.92"/><circle cx="310.34" cy="24.23" r="1.92"/><circle cx="310.34" cy="38.62" r="1.92"/><circle cx="310.34" cy="53.01" r="1.92"/><circle cx="310.34" cy="67.4" r="1.92"/><circle cx="310.34" cy="82.75" r="1.92"/><circle cx="324.73" cy="9.84" r="1.92"/><circle cx="324.73" cy="24.23" r="1.92"/><circle cx="324.73" cy="38.62" r="1.92"/><circle cx="324.73" cy="53.01" r="1.92"/><circle cx="324.73" cy="67.4" r="1.92"/><circle cx="324.73" cy="82.75" r="1.92"/><circle cx="332.4" cy="16.56" r="1.92"/><circle cx="332.4" cy="30.95" r="1.92"/><circle cx="332.4" cy="45.34" r="1.92"/><circle cx="332.4" cy="59.73" r="1.92"/><circle cx="332.4" cy="75.08" r="1.92"/><circle cx="345.83" cy="16.56" r="1.92"/><circle cx="345.83" cy="30.95" r="1.92"/><circle cx="345.83" cy="45.34" r="1.92"/><circle cx="345.83" cy="59.73" r="1.92"/><circle cx="345.83" cy="75.08" r="1.92"/><circle cx="339.12" cy="9.84" r="1.92"/><circle cx="339.12" cy="24.23" r="1.92"/><circle cx="339.12" cy="38.62" r="1.92"/><circle cx="339.12" cy="53.01" r="1.92"/><circle cx="339.12" cy="67.4" r="1.92"/><circle cx="339.12" cy="82.75" r="1.92"/><circle cx="360.22" cy="16.56" r="1.92"/><circle cx="360.22" cy="30.95" r="1.92"/><circle cx="360.22" cy="45.34" r="1.92"/><circle cx="360.22" cy="59.73" r="1.92"/><circle cx="360.22" cy="75.08" r="1.92"/><circle cx="353.51" cy="9.84" r="1.92"/><circle cx="353.51" cy="24.23" r="1.92"/><circle cx="353.51" cy="38.62" r="1.92"/><circle cx="353.51" cy="53.01" r="1.92"/><circle cx="353.51" cy="67.4" r="1.92"/><circle cx="353.51" cy="82.75" r="1.92"/><circle cx="366.94" cy="9.84" r="1.92"/><circle cx="366.94" cy="24.23" r="1.92"/><circle cx="366.94" cy="38.62" r="1.92"/><circle cx="366.94" cy="53.01" r="1.92"/><circle cx="366.94" cy="67.4" r="1.92"/><circle cx="366.94" cy="82.75" r="1.92"/><circle cx="374.61" cy="16.56" r="1.92"/><circle cx="374.61" cy="30.95" r="1.92"/><circle cx="374.61" cy="45.34" r="1.92"/><circle cx="374.61" cy="59.73" r="1.92"/><circle cx="374.61" cy="75.08" r="1.92"/><circle cx="388.04" cy="16.56" r="1.92"/><circle cx="388.04" cy="30.95" r="1.92"/><circle cx="388.04" cy="45.34" r="1.92"/><circle cx="388.04" cy="59.73" r="1.92"/><circle cx="388.04" cy="75.08" r="1.92"/><circle cx="381.33" cy="9.84" r="1.92"/><circle cx="381.33" cy="24.23" r="1.92"/><circle cx="381.33" cy="38.62" r="1.92"/><circle cx="381.33" cy="53.01" r="1.92"/><circle cx="381.33" cy="67.4" r="1.92"/><circle cx="381.33" cy="82.75" r="1.92"/><circle cx="395.72" cy="9.84" r="1.92"/><circle cx="395.72" cy="24.23" r="1.92"/><circle cx="395.72" cy="38.62" r="1.92"/><circle cx="395.72" cy="53.01" r="1.92"/><circle cx="395.72" cy="67.4" r="1.92"/><circle cx="395.72" cy="82.75" r="1.92"/><circle cx="403.39" cy="16.56" r="1.92"/><circle cx="403.39" cy="30.95" r="1.92"/><circle cx="403.39" cy="45.34" r="1.92"/><circle cx="403.39" cy="59.73" r="1.92"/><circle cx="403.39" cy="75.08" r="1.92"/><circle cx="416.82" cy="16.56" r="1.92"/><circle cx="416.82" cy="30.95" r="1.92"/><circle cx="416.82" cy="45.34" r="1.92"/><circle cx="416.82" cy="59.73" r="1.92"/><circle cx="416.82" cy="75.08" r="1.92"/><circle cx="410.11" cy="9.84" r="1.92"/><circle cx="410.11" cy="24.23" r="1.92"/><circle cx="410.11" cy="38.62" r="1.92"/><circle cx="410.11" cy="53.01" r="1.92"/><circle cx="410.11" cy="67.4" r="1.92"/><circle cx="410.11" cy="82.75" r="1.92"/><circle cx="431.21" cy="16.56" r="1.92"/><circle cx="431.21" cy="30.95" r="1.92"/><circle cx="431.21" cy="45.34" r="1.92"/><circle cx="431.21" cy="59.73" r="1.92"/><circle cx="431.21" cy="75.08" r="1.92"/><circle cx="424.5" cy="9.84" r="1.92"/><circle cx="424.5" cy="24.23" r="1.92"/><circle cx="424.5" cy="38.62" r="1.92"/><circle cx="424.5" cy="53.01" r="1.92"/><circle cx="424.5" cy="67.4" r="1.92"/><circle cx="424.5" cy="82.75" r="1.92"/><circle cx="438.89" cy="9.84" r="1.92"/><circle cx="438.89" cy="24.23" r="1.92"/><circle cx="438.89" cy="38.62" r="1.92"/><circle cx="438.89" cy="53.01" r="1.92"/><circle cx="438.89" cy="67.4" r="1.92"/><circle cx="438.89" cy="82.75" r="1.92"/><circle cx="446.56" cy="16.56" r="1.92"/><circle cx="446.56" cy="30.95" r="1.92"/><circle cx="446.56" cy="45.34" r="1.92"/><circle cx="446.56" cy="59.73" r="1.92"/><circle cx="446.56" cy="75.08" r="1.92"/><circle cx="459.99" cy="16.56" r="1.92"/><circle cx="459.99" cy="30.95" r="1.92"/><circle cx="459.99" cy="45.34" r="1.92"/><circle cx="459.99" cy="59.73" r="1.92"/><circle cx="459.99" cy="75.08" r="1.92"/><circle cx="453.28" cy="9.84" r="1.92"/><circle cx="453.28" cy="24.23" r="1.92"/><circle cx="453.28" cy="38.62" r="1.92"/><circle cx="453.28" cy="53.01" r="1.92"/><circle cx="453.28" cy="67.4" r="1.92"/><circle cx="453.28" cy="82.75" r="1.92"/><circle cx="467.67" cy="9.84" r="1.92"/><circle cx="467.67" cy="24.23" r="1.92"/><circle cx="467.67" cy="38.62" r="1.92"/><circle cx="467.67" cy="53.01" r="1.92"/><circle cx="467.67" cy="67.4" r="1.92"/><circle cx="467.67" cy="82.75" r="1.92"/><circle cx="475.34" cy="16.56" r="1.92"/><circle cx="475.34" cy="30.95" r="1.92"/><circle cx="475.34" cy="45.34" r="1.92"/><circle cx="475.34" cy="59.73" r="1.92"/><circle cx="475.34" cy="75.08" r="1.92"/><circle cx="488.77" cy="16.56" r="1.92"/><circle cx="488.77" cy="30.95" r="1.92"/><circle cx="488.77" cy="45.34" r="1.92"/><circle cx="488.77" cy="59.73" r="1.92"/><circle cx="488.77" cy="75.08" r="1.92"/><circle cx="482.06" cy="9.84" r="1.92"/><circle cx="482.06" cy="24.23" r="1.92"/><circle cx="482.06" cy="38.62" r="1.92"/><circle cx="482.06" cy="53.01" r="1.92"/><circle cx="482.06" cy="67.4" r="1.92"/><circle cx="482.06" cy="82.75" r="1.92"/><circle cx="503.16" cy="16.56" r="1.92"/><circle cx="503.16" cy="30.95" r="1.92"/><circle cx="503.16" cy="45.34" r="1.92"/><circle cx="503.16" cy="59.73" r="1.92"/><circle cx="503.16" cy="75.08" r="1.92"/><circle cx="496.44" cy="9.84" r="1.92"/><circle cx="496.44" cy="24.23" r="1.92"/><circle cx="496.44" cy="38.62" r="1.92"/><circle cx="496.44" cy="53.01" r="1.92"/><circle cx="496.44" cy="67.4" r="1.92"/><circle cx="496.44" cy="82.75" r="1.92"/><circle cx="510.83" cy="9.84" r="1.92"/><circle cx="510.83" cy="24.23" r="1.92"/><circle cx="510.83" cy="38.62" r="1.92"/><circle cx="510.83" cy="53.01" r="1.92"/><circle cx="510.83" cy="67.4" r="1.92"/><circle cx="510.83" cy="82.75" r="1.92"/><circle cx="518.51" cy="16.56" r="1.92"/><circle cx="518.51" cy="30.95" r="1.92"/><circle cx="518.51" cy="45.34" r="1.92"/><circle cx="518.51" cy="59.73" r="1.92"/><circle cx="518.51" cy="75.08" r="1.92"/><circle cx="531.94" cy="16.56" r="1.92"/><circle cx="531.94" cy="30.95" r="1.92"/><circle cx="531.94" cy="45.34" r="1.92"/><circle cx="531.94" cy="59.73" r="1.92"/><circle cx="531.94" cy="75.08" r="1.92"/><circle cx="525.22" cy="9.84" r="1.92"/><circle cx="525.22" cy="24.23" r="1.92"/><circle cx="525.22" cy="38.62" r="1.92"/><circle cx="525.22" cy="53.01" r="1.92"/><circle cx="525.22" cy="67.4" r="1.92"/><circle cx="525.22" cy="82.75" r="1.92"/></g></g></g></svg>