<svg xmlns="http://www.w3.org/2000/svg" width="614.79" height="592.18" viewBox="0 0 614.79 592.18"><defs><style>.cls-1,.cls-3,.cls-4,.cls-6{fill:#f63050;}.cls-1,.cls-15,.cls-2,.cls-3,.cls-4,.cls-5,.cls-6,.cls-7,.cls-8{stroke:#000;}.cls-1,.cls-15,.cls-16,.cls-18,.cls-19,.cls-2,.cls-20,.cls-21,.cls-22,.cls-23,.cls-24,.cls-25,.cls-26,.cls-27,.cls-28,.cls-3,.cls-4,.cls-5,.cls-6,.cls-7{stroke-miterlimit:10;}.cls-1{stroke-width:1.69px;}.cls-2,.cls-5,.cls-8,.cls-9{fill:#fddc00;}.cls-2{stroke-width:1.65px;}.cls-3{stroke-width:0.84px;}.cls-4{stroke-width:1.38px;}.cls-5{stroke-width:1.34px;}.cls-6{stroke-width:0.69px;}.cls-12,.cls-7{fill:#fff;}.cls-7,.cls-8{stroke-width:4px;}.cls-13,.cls-8{stroke-linejoin:round;}.cls-10{opacity:0.2;}.cls-11{fill:#201a19;}.cls-13,.cls-16,.cls-18,.cls-19,.cls-20,.cls-21,.cls-22,.cls-23,.cls-24,.cls-25,.cls-26,.cls-27,.cls-28{fill:none;}.cls-13{stroke:#201a19;stroke-width:0.82px;}.cls-13,.cls-18,.cls-19,.cls-20,.cls-22,.cls-23,.cls-24,.cls-26,.cls-27,.cls-28{stroke-linecap:round;}.cls-14{fill:#d40e7c;}.cls-15{fill:#f7e51a;stroke-width:2.59px;}.cls-16,.cls-21,.cls-25{stroke:#ffb002;}.cls-16{stroke-width:3.89px;}.cls-17{fill:#f7b200;}.cls-18,.cls-19,.cls-20,.cls-22,.cls-23,.cls-24,.cls-26,.cls-27,.cls-28{stroke:#f7b200;}.cls-18{stroke-width:1.94px;}.cls-19{stroke-width:1.99px;}.cls-20{stroke-width:2.46px;}.cls-21{stroke-width:2.65px;}.cls-22{stroke-width:1.32px;}.cls-23{stroke-width:1.36px;}.cls-24{stroke-width:1.67px;}.cls-25{stroke-width:1.76px;}.cls-26{stroke-width:0.88px;}.cls-27{stroke-width:0.9px;}.cls-28{stroke-width:1.11px;}</style></defs><title>活动流程</title><g id="图层_2" data-name="图层 2"><g id="图层_1-2" data-name="图层 1"><rect class="cls-1" x="145.81" y="49.51" width="36.33" height="45.62" rx="3.38" ry="3.38" transform="translate(343.13 76.85) rotate(157.65)"/><path class="cls-2" d="M171,46s4.5,15.17-9.62,21-20.85-8.45-20.85-8.45Z"/><circle class="cls-3" cx="159.08" cy="61.54" r="2.53" transform="translate(-11.45 65.11) rotate(-22.35)"/><rect class="cls-4" x="183.96" y="55.8" width="29.57" height="37.13" rx="2.75" ry="2.75" transform="translate(382.65 180.26) rotate(-170.58)"/><path class="cls-5" d="M214.86,59.17s-3.39,12.43-15.65,10.4S188.4,54.78,188.4,54.78Z"/><circle class="cls-6" cx="199.98" cy="64.82" r="2.06" transform="translate(103.32 251.5) rotate(-80.58)"/><rect x="74.5" y="94.18" width="528" height="498"/><polygon class="cls-7" points="596 578.18 48.09 578.18 2 543.18 2 80.18 596 80.18 596 578.18"/><polygon class="cls-8" points="3.5 544.18 45.5 577.18 51.5 540.18 3.5 544.18"/><path class="cls-9" d="M250.08,166.71l-1.92,9.43a1.36,1.36,0,0,1-.41.82,1.38,1.38,0,0,1-.89.23H243.1q-1,0-1-.82a1.86,1.86,0,0,1,.06-.41l2.18-9.45a1.34,1.34,0,0,1,.42-.81,1.42,1.42,0,0,1,.89-.23h3.44q1.05,0,1.05.83A1.75,1.75,0,0,1,250.08,166.71Zm-1.13-9h-3.57a1.6,1.6,0,0,1-.91-.21,1.5,1.5,0,0,1-.48-.78l-1.17-3.28a1.51,1.51,0,0,1-.1-.47q0-.73,1-.73h3.43a1.65,1.65,0,0,1,.91.21,1.68,1.68,0,0,1,.51.76l1.27,3.3a1.41,1.41,0,0,1,.1.47Q249.89,157.75,248.95,157.75Zm.31,6.65h-3.6a1.49,1.49,0,0,1-.89-.22,1.45,1.45,0,0,1-.45-.79l-1.07-3.6a1.58,1.58,0,0,1-.09-.45q0-.76,1-.76h3.41a1.57,1.57,0,0,1,.89.21,1.59,1.59,0,0,1,.48.79l1.2,3.62a1.63,1.63,0,0,1,.1.47Q250.24,164.4,249.26,164.4Zm15.7-1.35h3.12a1.07,1.07,0,0,1,1.22,1.22V176a1.07,1.07,0,0,1-1.22,1.22H252.45a1.07,1.07,0,0,1-1.22-1.22V164.27a1.07,1.07,0,0,1,1.22-1.22h3.27q1.22,0,1.22-1.11v-.41q0-1.11-1.22-1.11h-3.87q-1.22,0-1.22-1.13v-.54q0-1.13,1.22-1.13h3.87q1.22,0,1.22-1.1v-.38q0-1.1-1.22-1.1h-3.57q-1.23,0-1.23-1.13v-.54q0-1.13,1.23-1.13h16.38q1.22,0,1.22,1.13v.54q0,1.13-1.22,1.13H265q-1.23,0-1.23,1.1v.38q0,1.1,1.23,1.1h4.1q1.22,0,1.22,1.13v.54q0,1.13-1.22,1.13H265q-1.23,0-1.23,1.11v.41Q263.73,163.05,265,163.05Zm-3.28,2.59h-2.83a1.07,1.07,0,0,0-1.22,1.22v6.47a1.08,1.08,0,0,0,1.22,1.23h2.83a1.08,1.08,0,0,0,1.22-1.23v-6.47A1.07,1.07,0,0,0,261.68,165.64Z"/><path class="cls-9" d="M283.69,176.62a1,1,0,0,1-1.1.63h-9.36q-1.22,0-1.22-1.17v-.34a33,33,0,0,1,.47-4.56l1.26-8a2,2,0,0,0,0-.38.82.82,0,0,0-.21-.56.87.87,0,0,0-.69-.32h-.06q-1,0-1-1.13v-.54q0-1.13,1.22-1.13h9.71q1.22,0,1.22,1.13v.54q0,1.13-1.22,1.13h-1.92a1.14,1.14,0,0,0-1.25,1.07L278,173.09a2.64,2.64,0,0,0,0,.4.86.86,0,0,0,.22.59,1,1,0,0,0,.75.34h0a1,1,0,0,0,.75-.32,1,1,0,0,0,.25-.73q0-.09,0-.25l-.19-2.26a1.61,1.61,0,0,1,0-.25q0-1,1.14-1H282a1.12,1.12,0,0,1,1.25,1.14l.42,4.86,1.44-18.13v-.12a.44.44,0,0,0-.45-.48.53.53,0,0,1-.5-.62v-1.63a.66.66,0,0,1,.62-.76.73.73,0,0,0,.67-.76l0-.48q.07-1,1.23-1h3.43q1.23,0,1.16,1.05v.18a.92.92,0,0,0,.26.69,1.25,1.25,0,0,0,1,.32h6a1.08,1.08,0,0,1,1.23,1.22V176a1.08,1.08,0,0,1-1.23,1.22h-4a1.07,1.07,0,0,1-1.22-1.22V158.1q0-1.22-1.05-1.22H292q-1,0-1.1,1.14l-1.32,18.06a1.11,1.11,0,0,1-1.25,1.16h-3.56A1.06,1.06,0,0,1,283.69,176.62Zm-11.53-22.71v-.54q0-1.13,1.22-1.13h9.08q1.23,0,1.23,1.13v.54q0,1.13-1.23,1.13h-9.08Q272.17,155,272.17,153.91Z"/><path class="cls-9" d="M309.62,166.71l-1.52,9.42a1.16,1.16,0,0,1-1.27,1.08h-3.65q-1.07,0-1.07-.85a2.32,2.32,0,0,1,0-.38l1.71-9.43a1.37,1.37,0,0,1,.4-.83,1.42,1.42,0,0,1,.89-.23h3.43q1.08,0,1.08.86A2.62,2.62,0,0,1,309.62,166.71Zm-1.42-9h-3.68a1.38,1.38,0,0,1-.89-.23,1.35,1.35,0,0,1-.42-.82l-.72-3.18a2.1,2.1,0,0,1,0-.44q0-.79,1-.79H307a1.42,1.42,0,0,1,.88.22,1.4,1.4,0,0,1,.44.81l.82,3.21a1.7,1.7,0,0,1,.07.44Q309.23,157.75,308.2,157.75Zm.6,6.65h-3.72a1.12,1.12,0,0,1-1.3-1.05L303,159.8a2.1,2.1,0,0,1,0-.44q0-.79,1-.79h3.52a1.49,1.49,0,0,1,.89.22,1.47,1.47,0,0,1,.44.81l.92,3.57a1.7,1.7,0,0,1,.07.44Q309.81,164.4,308.8,164.4Zm15.29-11.25h5q1.22,0,1.22,1.13v.54q0,1.13-1.22,1.13h-7.92a1.42,1.42,0,0,0-.73.15,1.53,1.53,0,0,0-.47.59l-1.17,2.23a1.65,1.65,0,0,0-.22.73.92.92,0,0,0,.34.69,1.29,1.29,0,0,0,.89.25h3.27q1.22,0,1.22-1a1.55,1.55,0,0,0-.07-.42l-.18-.62a1.87,1.87,0,0,1-.07-.45q0-.78,1-.78h2.68a1.42,1.42,0,0,1,.88.22,1.46,1.46,0,0,1,.45.81l1,3.57a1.86,1.86,0,0,1,.09.45q0,.78-1,.78H311.7q-1.22,0-1.22-1V162a6,6,0,0,1,.76-2.64l.92-1.79a1.58,1.58,0,0,0,.21-.72.89.89,0,0,0-.34-.69,1,1,0,0,0-.72-.25h-.7q-1.22,0-1.22-1.13v-.54q0-1.13,1.22-1.13h4.69a.78.78,0,0,0,.89-.73.78.78,0,0,1,.89-.73h5.2a.79.79,0,0,1,.91.73Q323.27,153.15,324.09,153.15Zm-7.92,12.38V176a1.08,1.08,0,0,1-1.22,1.23h-4.25q-1.22,0-1.22-1.1v-.6a.79.79,0,0,1,.73-.91.78.78,0,0,0,.75-.89v-8.19a1.08,1.08,0,0,1,1.22-1.23H315A1.08,1.08,0,0,1,316.17,165.53ZM317.46,176v-10.5a1.08,1.08,0,0,1,1.22-1.23h2.77a1.08,1.08,0,0,1,1.22,1.23V176a1.07,1.07,0,0,1-1.22,1.22h-2.77A1.07,1.07,0,0,1,317.46,176Zm7.65-11.72h2.77a1.08,1.08,0,0,1,1.22,1.23v8.36a.63.63,0,0,0,.6.72.64.64,0,0,1,.59.73v.78q0,1.1-1.22,1.1h-4a1.08,1.08,0,0,1-1.22-1.23V165.53A1.08,1.08,0,0,1,325.11,164.3Z"/><path class="cls-9" d="M333.37,152.24h9.73q1.22,0,1.22,1.1v.4q0,1.1-1,1.1h-.18a1,1,0,0,0-.75.29,1,1,0,0,0-.29.78v.34a.87.87,0,0,0,.88,1,.91.91,0,0,1,.88,1v.56a.91.91,0,0,1-.88,1q-.88.09-.88.88V161a.75.75,0,0,0,.75.83.81.81,0,0,1,.76.92v.76a.81.81,0,0,1-.76.92.8.8,0,0,0-.75.92V176a1.08,1.08,0,0,1-1.22,1.23h-3.37a1.07,1.07,0,0,1-1.22-1.22V165q0-.57-.48-.57t-.47.57V176q0,1.22-1.17,1.22h-.66q-1.17,0-1.17-1.22V163a1.08,1.08,0,0,1,1.22-1.23H335q1.22,0,1.22-1t-1.22-1h-2q-1.22,0-1.22-1.1v-.4q0-1.11,1.22-1.11H335q1.23,0,1.23-1.05v-.25q0-1.07-1.23-1.07h-1.66q-1.22,0-1.22-1.1v-.4Q332.15,152.24,333.37,152.24Zm25.75,25H344.71q-1.22,0-1.22-1.1v-.4q0-1.1,1.22-1.1h2.87a1.08,1.08,0,0,0,1.22-1.23v-1.16a1.07,1.07,0,0,0-1.22-1.22h-2.21q-1.22,0-1.22-1.11v-.4q0-1.1,1.22-1.1h2.21q1.22,0,1.22-1.13v-.54q0-1.13-1.22-1.13h-2.42q-1.22,0-1.22-1.11v-.4q0-1.1,1.22-1.1h14q1.23,0,1.23,1.1v.4q0,1.11-1.23,1.11h-2.3q-1.23,0-1.23,1.13v.53q0,1.14,1.23,1.14h2q1.23,0,1.23,1.1v.4q0,1.11-1.23,1.11h-2a1.08,1.08,0,0,0-1.23,1.22v1.16a1.09,1.09,0,0,0,1.23,1.23h2.3q1.22,0,1.22,1.1v.4Q360.33,177.25,359.12,177.25Zm-14.52-17v-6.8a1.08,1.08,0,0,1,1.22-1.23h12.89a1.07,1.07,0,0,1,1.22,1.22v6.83a1.08,1.08,0,0,1-1.22,1.23H345.82A1.08,1.08,0,0,1,344.6,160.27Zm6-4.42v2a1.07,1.07,0,0,0,1.22,1.22h.88a1.07,1.07,0,0,0,1.22-1.22v-2a1.08,1.08,0,0,0-1.22-1.23h-.88A1.08,1.08,0,0,0,350.61,155.84Z"/><path d="M248.08,164.6,246.13,174a1.36,1.36,0,0,1-.41.82,1.37,1.37,0,0,1-.89.23h-3.75q-1,0-1-.82a1.93,1.93,0,0,1,.06-.41l2.21-9.44a1.33,1.33,0,0,1,.43-.8,1.41,1.41,0,0,1,.89-.23h3.44q1.05,0,1.05.84A1.7,1.7,0,0,1,248.08,164.6Zm-1.11-9h-3.57a1.6,1.6,0,0,1-.91-.21,1.5,1.5,0,0,1-.48-.78l-1.16-3.28a1.5,1.5,0,0,1-.1-.47q0-.73,1-.73h3.43a1.64,1.64,0,0,1,.91.21,1.67,1.67,0,0,1,.51.76l1.27,3.3a1.4,1.4,0,0,1,.1.47Q247.91,155.63,247,155.63Zm.29,6.65h-3.6a1.49,1.49,0,0,1-.89-.22,1.46,1.46,0,0,1-.45-.79l-1.06-3.61a1.58,1.58,0,0,1-.09-.45q0-.76,1-.76h3.41a1.55,1.55,0,0,1,.89.21,1.59,1.59,0,0,1,.48.79l1.19,3.62a1.66,1.66,0,0,1,.1.47Q248.24,162.28,247.26,162.28ZM263,161h3.12a1.07,1.07,0,0,1,1.21,1.22l0,11.76a1.07,1.07,0,0,1-1.22,1.21l-15.63,0a1.07,1.07,0,0,1-1.21-1.22l0-11.76a1.07,1.07,0,0,1,1.22-1.21h3.27q1.22,0,1.22-1.11v-.41q0-1.11-1.21-1.12h-3.87q-1.22,0-1.21-1.13v-.54q0-1.13,1.22-1.12h3.87q1.22,0,1.22-1.1V154q0-1.1-1.21-1.1h-3.57q-1.23,0-1.23-1.13v-.54q0-1.13,1.23-1.13l16.38,0q1.22,0,1.21,1.13v.54q0,1.13-1.22,1.13H263q-1.23,0-1.23,1.1v.38q0,1.1,1.23,1.1h4.1q1.22,0,1.21,1.13v.54q0,1.13-1.22,1.13H263q-1.23,0-1.23,1.11v.41Q261.74,161,263,161Zm-3.29,2.58h-2.83a1.07,1.07,0,0,0-1.22,1.21v6.47a1.08,1.08,0,0,0,1.21,1.23h2.83a1.08,1.08,0,0,0,1.22-1.23v-6.47A1.07,1.07,0,0,0,259.68,163.55Z"/><path d="M281.67,174.58a1,1,0,0,1-1.1.63l-9.36,0q-1.22,0-1.21-1.17v-.34a32.9,32.9,0,0,1,.48-4.55l1.28-8a2.08,2.08,0,0,0,0-.38.82.82,0,0,0-.2-.56.87.87,0,0,0-.69-.32h-.06q-1,0-1-1.13v-.54q0-1.13,1.22-1.12l9.71,0q1.22,0,1.21,1.13v.54q0,1.13-1.22,1.13h-1.92a1.14,1.14,0,0,0-1.25,1.07L276,171a2.82,2.82,0,0,0,0,.4.86.86,0,0,0,.22.59.94.94,0,0,0,.75.34h0a1,1,0,0,0,.75-.32,1,1,0,0,0,.25-.73c0-.06,0-.14,0-.25l-.18-2.26a1.61,1.61,0,0,1,0-.25q0-1,1.15-1H280a1.12,1.12,0,0,1,1.24,1.15l.41,4.86,1.48-18.13s0-.08,0-.12a.44.44,0,0,0-.45-.48.54.54,0,0,1-.5-.62V152.6a.66.66,0,0,1,.62-.76.73.73,0,0,0,.68-.76l0-.48q.07-1,1.23-1h3.43q1.23,0,1.16,1.06v.09l0,.09a.92.92,0,0,0,.26.69,1.25,1.25,0,0,0,1,.32h6a1.08,1.08,0,0,1,1.23,1.22l0,20.93a1.08,1.08,0,0,1-1.23,1.21h-4a1.07,1.07,0,0,1-1.21-1.22l0-17.93q0-1.22-1.05-1.22h-.28q-1,0-1.1,1.14l-1.36,18.06a1.11,1.11,0,0,1-1.25,1.15h-3.56A1.06,1.06,0,0,1,281.67,174.58ZM270.2,151.84v-.54q0-1.13,1.22-1.12l9.08,0q1.23,0,1.23,1.13v.54q0,1.13-1.23,1.13l-9.08,0Q270.19,153,270.2,151.84Z"/><path d="M307.62,164.73l-1.54,9.42a1.16,1.16,0,0,1-1.28,1.08h-3.65q-1.07,0-1.07-.85a2.32,2.32,0,0,1,0-.38l1.74-9.43a1.37,1.37,0,0,1,.4-.83,1.42,1.42,0,0,1,.89-.23h3.43q1.08,0,1.08.87A2.49,2.49,0,0,1,307.62,164.73Zm-1.4-9h-3.68a1.38,1.38,0,0,1-.89-.24,1.36,1.36,0,0,1-.42-.82l-.71-3.18a2,2,0,0,1,0-.44q0-.79,1-.79H305a1.41,1.41,0,0,1,.88.22,1.4,1.4,0,0,1,.44.81l.81,3.21a1.74,1.74,0,0,1,.07.44Q307.25,155.77,306.22,155.77Zm.58,6.65h-3.72a1.42,1.42,0,0,1-.89-.24,1.41,1.41,0,0,1-.41-.82l-.8-3.55a2.1,2.1,0,0,1,0-.44q0-.79,1-.79h3.52a1.48,1.48,0,0,1,.89.22,1.46,1.46,0,0,1,.44.81l.92,3.58a1.74,1.74,0,0,1,.07.44Q307.82,162.42,306.81,162.42Zm15.32-11.21h5q1.22,0,1.21,1.13v.54q0,1.13-1.22,1.13l-7.92,0a1.42,1.42,0,0,0-.73.15,1.52,1.52,0,0,0-.47.58l-1.18,2.22a1.65,1.65,0,0,0-.22.73.92.92,0,0,0,.34.69,1.29,1.29,0,0,0,.89.25h3.27q1.22,0,1.22-1a1.51,1.51,0,0,0-.07-.42l-.17-.62a1.86,1.86,0,0,1-.07-.45q0-.78,1-.77h2.68a1.41,1.41,0,0,1,.88.22,1.46,1.46,0,0,1,.45.81l.94,3.58a1.9,1.9,0,0,1,.09.45q0,.78-1,.77l-17.29,0q-1.22,0-1.21-1V160a5.94,5.94,0,0,1,.77-2.63l.93-1.79a1.59,1.59,0,0,0,.21-.72.89.89,0,0,0-.34-.69,1,1,0,0,0-.72-.25h-.7q-1.22,0-1.21-1.13v-.54q0-1.13,1.22-1.12h4.69a.78.78,0,0,0,.89-.73.78.78,0,0,1,.9-.73h5.2a.79.79,0,0,1,.91.73Q321.31,151.2,322.13,151.2Zm-8,12.36,0,10.46a1.08,1.08,0,0,1-1.22,1.23h-4.25q-1.22,0-1.21-1.1v-.6a.79.79,0,0,1,.73-.91.77.77,0,0,0,.75-.89l0-8.19a1.08,1.08,0,0,1,1.22-1.23H313A1.08,1.08,0,0,1,314.17,163.56Zm1.26,10.49,0-10.5a1.08,1.08,0,0,1,1.22-1.23h2.77a1.08,1.08,0,0,1,1.21,1.23l0,10.5a1.07,1.07,0,0,1-1.22,1.21h-2.77A1.07,1.07,0,0,1,315.44,174.05Zm7.67-11.7h2.77a1.08,1.08,0,0,1,1.21,1.23l0,8.36a.63.63,0,0,0,.6.72.64.64,0,0,1,.58.73v.78q0,1.1-1.22,1.1h-4a1.08,1.08,0,0,1-1.21-1.23l0-10.46A1.08,1.08,0,0,1,323.11,162.35Z"/><path d="M331.4,150.32l9.73,0q1.22,0,1.21,1.1v.4q0,1.1-1,1.1h-.18a1,1,0,0,0-.75.29,1,1,0,0,0-.29.78v.34a.87.87,0,0,0,.88,1,.91.91,0,0,1,.88,1v.56a.91.91,0,0,1-.88,1q-.88.09-.88.88v.26a.75.75,0,0,0,.75.84.81.81,0,0,1,.76.92v.76a.81.81,0,0,1-.76.92.8.8,0,0,0-.75.92l0,10.69a1.08,1.08,0,0,1-1.22,1.23h-3.37a1.07,1.07,0,0,1-1.21-1.22l0-11.06c0-.38-.16-.57-.48-.57s-.47.19-.47.57l0,11.06q0,1.22-1.17,1.21h-.66q-1.17,0-1.17-1.22l0-13a1.08,1.08,0,0,1,1.22-1.23H333q1.22,0,1.22-1t-1.21-1h-2q-1.22,0-1.21-1.1v-.4q0-1.11,1.22-1.11H333q1.23,0,1.23-1.05V154q0-1.07-1.23-1.07h-1.66q-1.22,0-1.21-1.1v-.4Q330.18,150.31,331.4,150.32Zm25.69,25.06-14.41,0q-1.22,0-1.21-1.1v-.4q0-1.1,1.22-1.1h2.87a1.08,1.08,0,0,0,1.22-1.23v-1.16a1.07,1.07,0,0,0-1.21-1.22h-2.21q-1.22,0-1.21-1.12v-.4q0-1.1,1.22-1.1h2.21q1.22,0,1.22-1.12v-.54q0-1.13-1.21-1.13h-2.42q-1.22,0-1.21-1.12v-.4q0-1.1,1.22-1.1l14,0q1.23,0,1.23,1.1v.4q0,1.11-1.23,1.11h-2.3q-1.23,0-1.23,1.13v.53q0,1.14,1.23,1.15h2q1.23,0,1.23,1.1v.4q0,1.11-1.23,1.11h-2a1.08,1.08,0,0,0-1.23,1.21v1.16a1.09,1.09,0,0,0,1.23,1.23h2.3q1.22,0,1.21,1.1v.4Q358.31,175.38,357.09,175.38Zm-14.48-17,0-6.8a1.08,1.08,0,0,1,1.22-1.23h12.89a1.07,1.07,0,0,1,1.21,1.22l0,6.83a1.08,1.08,0,0,1-1.22,1.23l-12.89,0A1.08,1.08,0,0,1,342.62,158.37Zm6-4.41v2a1.08,1.08,0,0,0,1.21,1.22h.88a1.07,1.07,0,0,0,1.22-1.21v-2a1.08,1.08,0,0,0-1.21-1.23h-.88A1.08,1.08,0,0,0,348.63,154Z"/><g class="cls-10"><path d="M128.49,9.7c-8-7.36-22.1-7.32-27.12-1.33a17.91,17.91,0,0,0-4.3,10.4,41.2,41.2,0,0,0-14.63.42,41.26,41.26,0,0,0-13.86,5,17.9,17.9,0,0,0-7.84-8.12c-6.87-3.73-20,1.4-24.74,11.2-4.87,10-2.93,20.65,10.79,27.28l.1-.13c-3.11,18.64,4.4,41.53,31,42.1a97.92,97.92,0,0,0,18.95-1.69,97.92,97.92,0,0,0,18.24-5.39c24.5-10.3,23.12-34.28,13.42-50.48C138.8,27.82,136.69,17.19,128.49,9.7Z"/></g><path class="cls-11" d="M123.69,7.33C115.65,0,101.59,0,96.57,6a17.91,17.91,0,0,0-4.3,10.4,41.2,41.2,0,0,0-14.63.42,41.26,41.26,0,0,0-13.86,5,17.9,17.9,0,0,0-7.84-8.12c-6.87-3.73-20,1.4-24.74,11.2-4.87,10-2.93,20.65,10.79,27.28l.1-.13C39,70.74,46.5,93.62,73.1,94.2A97.92,97.92,0,0,0,92,92.5a97.92,97.92,0,0,0,18.24-5.39c24.5-10.3,23.12-34.28,13.42-50.48C134,25.45,131.89,14.83,123.69,7.33Z"/><path class="cls-12" d="M110.45,26.33A42.72,42.72,0,0,0,50.63,37.72c-11,16.24-9.29,53,23.31,53.68a91,91,0,0,0,17.61-1.57,91,91,0,0,0,17-5C138.55,72.19,126.69,37.38,110.45,26.33Z"/><circle class="cls-11" cx="61.76" cy="65.72" r="12.11" transform="translate(-11.2 12.71) rotate(-10.78)"/><circle class="cls-12" cx="66.81" cy="61.31" r="3.26" transform="translate(-10.29 13.57) rotate(-10.78)"/><circle class="cls-12" cx="64.86" cy="67.12" r="1.37" transform="translate(-11.41 13.31) rotate(-10.78)"/><circle class="cls-11" cx="110.38" cy="56.46" r="12.11" transform="translate(-8.61 21.63) rotate(-10.78)"/><circle class="cls-12" cx="115.43" cy="52.05" r="3.26" transform="translate(-7.7 22.5) rotate(-10.78)"/><circle class="cls-12" cx="113.48" cy="57.87" r="1.37" transform="translate(-8.82 22.24) rotate(-10.78)"/><ellipse class="cls-11" cx="86.16" cy="61.59" rx="1.92" ry="1.49" transform="translate(-10 17.2) rotate(-10.78)"/><path class="cls-13" d="M79.73,68.25s3.54,3.18,7.57-.65"/><path class="cls-13" d="M94.59,65.42s-2.13,4.26-7.28,2.18"/><ellipse class="cls-14" cx="59.94" cy="81.49" rx="3.09" ry="1.24" transform="translate(-14.18 12.64) rotate(-10.78)"/><ellipse class="cls-14" cx="117.87" cy="70.47" rx="3.09" ry="1.24" transform="translate(-11.1 23.28) rotate(-10.78)"/><circle class="cls-15" cx="566.83" cy="96.18" r="46.66" transform="translate(194.2 534.01) rotate(-59.23)"/><ellipse class="cls-16" cx="560.99" cy="92.7" rx="38.88" ry="35" transform="translate(194.34 527.29) rotate(-59.23)"/><path class="cls-17" d="M567.33,97.89l5.1,3q1.79,1.06,1.19,2.06t-2.3-.09l-5.6-3.33q-.45.76-.75,1.19l-.74,1.19-1.69,2.84,5.6,3.33q1.79,1.06,1.19,2.06t-2.3-.09l-5.62-3.35-5.29,9.3-.31.53L541.39,108l.52-.87,4.91-7.89.52-.87-6.56-3.91q-1.77-1.05-1.2-2t2.38.07l6.52,3.88.45-.69,1.3-2.18.72-1.14.72-1.21-6.6-3.93q-1.76-1-1.2-2t2.38.07L552.39,89q.06-1.53,0-3.24-.24-9.57-1.08-20.43L567.64,75l-.44,20.69,15.34-9.47a16.37,16.37,0,0,1,2.15-1.31,1,1,0,0,1,.89.1,1.28,1.28,0,0,1,.59.71.94.94,0,0,1-.07.81,2.3,2.3,0,0,1-.84.75,9.26,9.26,0,0,1-.93.55l-1.5.78Z"/><line class="cls-18" x1="587.9" y1="64.6" x2="603.77" y2="74.05"/><line class="cls-19" x1="578.19" y1="54.3" x2="594.9" y2="64.24"/><line class="cls-18" x1="593.27" y1="74.58" x2="607.47" y2="83.04"/><line class="cls-18" x1="596.96" y1="83.57" x2="609.49" y2="91.03"/><line class="cls-18" x1="597.32" y1="90.57" x2="609.85" y2="98.03"/><line class="cls-18" x1="596.01" y1="96.58" x2="608.54" y2="104.04"/><line class="cls-18" x1="593.7" y1="104.26" x2="606.23" y2="111.72"/><line class="cls-18" x1="589.72" y1="110.94" x2="602.25" y2="118.4"/><line class="cls-18" x1="585.74" y1="117.62" x2="598.27" y2="125.08"/><line class="cls-18" x1="580.09" y1="123.31" x2="592.62" y2="130.77"/><line class="cls-18" x1="572.77" y1="128" x2="585.3" y2="135.46"/><line class="cls-18" x1="564.78" y1="130.03" x2="577.31" y2="137.49"/><line class="cls-18" x1="555.11" y1="131.06" x2="567.64" y2="138.52"/><line class="cls-20" x1="539.76" y1="126.45" x2="559.81" y2="138.38"/><circle class="cls-15" cx="515.76" cy="109.77" r="31.74" transform="translate(-10.85 136.93) rotate(-14.97)"/><ellipse class="cls-21" cx="520.24" cy="108.58" rx="23.81" ry="26.45" transform="translate(-10.39 138.04) rotate(-14.97)"/><path class="cls-17" d="M506.61,101.87l-.84-.79a6.15,6.15,0,0,1-.51-.53,1.57,1.57,0,0,1-.41-.64.64.64,0,0,1,.1-.54.88.88,0,0,1,.52-.35.67.67,0,0,1,.6.1,11,11,0,0,1,1.16,1.26l8.29,9,3.54-13.62,12.49-3.34q-2.56,6.95-4.49,13.17-.35,1.1-.6,2.12l4.7-1.26q1.37-.37,1.57.4T531.6,108l-5,1.35.25.92.26.88.45,1.67.17.54,5-1.33q1.37-.37,1.57.4t-1.16,1.08l-5,1.34.18.66,1.75,6.08.18.66-11,2.95-.11-.4-1.74-7.07-4.3,1.15q-1.33.35-1.52-.37t1.16-1.13l4.28-1.14-.58-2.17-.27-.92c-.07-.22-.16-.53-.27-.92l-4.28,1.14q-1.33.35-1.52-.37t1.16-1.13l3.9-1Z"/><line class="cls-22" x1="507.83" y1="85.2" x2="495.69" y2="88.44"/><line class="cls-23" x1="516.09" y1="80.25" x2="503.31" y2="83.67"/><line class="cls-22" x1="502.46" y1="90.74" x2="491.6" y2="93.64"/><line class="cls-22" x1="498.38" y1="95.94" x2="488.79" y2="98.5"/><line class="cls-22" x1="496.84" y1="100.46" x2="487.26" y2="103.02"/><line class="cls-22" x1="496.59" y1="104.63" x2="487.01" y2="107.19"/><line class="cls-22" x1="496.68" y1="110.08" x2="487.1" y2="112.65"/><line class="cls-22" x1="498.05" y1="115.19" x2="488.46" y2="117.76"/><line class="cls-22" x1="499.41" y1="120.31" x2="489.83" y2="122.87"/><line class="cls-22" x1="502.06" y1="125.07" x2="492.47" y2="127.64"/><line class="cls-22" x1="505.98" y1="129.5" x2="496.4" y2="132.06"/><line class="cls-22" x1="510.84" y1="132.31" x2="501.25" y2="134.87"/><line class="cls-22" x1="516.97" y1="134.78" x2="507.39" y2="137.34"/><line class="cls-24" x1="527.88" y1="134.6" x2="512.54" y2="138.7"/><circle class="cls-15" cx="576.94" cy="22.42" r="21.12" transform="translate(406.22 573.98) rotate(-75.03)"/><ellipse class="cls-25" cx="573.96" cy="21.62" rx="17.6" ry="15.84" transform="translate(404.78 570.51) rotate(-75.03)"/><path class="cls-17" d="M577.4,23.06l2.59.69q.91.24.77.75t-1,.25L576.91,24c-.07.26-.13.46-.18.61l-.18.61-.39,1.44,2.85.76q.91.24.77.75t-1,.25l-2.86-.77-1.16,4.7-.07.27-7.34-2,.12-.44,1.17-4,.12-.44-3.34-.89q-.9-.24-.77-.72t1-.26l3.31.89.11-.36.3-1.11.17-.58.16-.61-3.36-.9q-.9-.24-.77-.72t1-.27l3.13.84q-.16-.67-.4-1.41-1.28-4.14-3-8.76l8.31,2.22,2.36,9.06,5.51-6a7.37,7.37,0,0,1,.78-.84.44.44,0,0,1,.4-.06.59.59,0,0,1,.35.24.42.42,0,0,1,.07.36,1,1,0,0,1-.27.43,4.11,4.11,0,0,1-.34.35l-.56.52Z"/><line class="cls-26" x1="582.22" y1="6.07" x2="590.3" y2="8.23"/><line class="cls-27" x1="576.73" y1="2.78" x2="585.23" y2="5.05"/><line class="cls-26" x1="585.79" y1="9.76" x2="593.02" y2="11.69"/><line class="cls-26" x1="588.51" y1="13.22" x2="594.88" y2="14.92"/><line class="cls-26" x1="589.53" y1="16.22" x2="595.9" y2="17.93"/><line class="cls-26" x1="589.7" y1="19" x2="596.07" y2="20.7"/><line class="cls-26" x1="589.64" y1="22.63" x2="596.01" y2="24.33"/><line class="cls-26" x1="588.73" y1="26.03" x2="595.1" y2="27.73"/><line class="cls-26" x1="587.82" y1="29.43" x2="594.19" y2="31.13"/><line class="cls-26" x1="586.06" y1="32.6" x2="592.43" y2="34.3"/><line class="cls-26" x1="583.45" y1="35.54" x2="589.82" y2="37.25"/><line class="cls-26" x1="580.22" y1="37.41" x2="586.59" y2="39.12"/><line class="cls-26" x1="576.13" y1="39.05" x2="582.51" y2="40.76"/><line class="cls-28" x1="568.88" y1="38.93" x2="579.08" y2="41.66"/></g></g></svg>