<svg xmlns="http://www.w3.org/2000/svg" width="553" height="108.5" viewBox="0 0 553 108.5"><defs><style>.cls-1,.cls-3{fill:#fddc00;}.cls-1,.cls-2{stroke:#000;stroke-miterlimit:10;stroke-width:3px;}.cls-2{fill:#ccc;}</style></defs><title>兑奖-按下</title><g id="图层_2" data-name="图层 2"><g id="图层_1-2" data-name="图层 1"><rect class="cls-1" x="5.5" y="13" width="546" height="94" rx="21.68" ry="21.68"/><path d="M531,13h.07l18.25,12.73q.42.94.76,1.92L529.08,13Z"/><path d="M519.74,13l31.73,22.13c0,.27,0,.53,0,.8v.61L517.75,13Z"/><polygon points="508.16 13 551.5 43.23 551.5 44.61 506.18 13 508.16 13"/><polygon points="495.1 13 551.5 52.34 551.5 53.72 493.11 13 495.1 13"/><polygon points="483.53 13 551.5 60.41 551.5 61.8 481.54 13 483.53 13"/><polygon points="472.05 13 551.5 68.42 551.5 70.21 469.48 13 472.05 13"/><polygon points="460.48 13 551.5 76.49 551.5 78.28 457.91 13 460.48 13"/><path d="M447.41,13l104,72.55q0,.85-.15,1.68L444.85,13Z"/><path d="M435.84,13,550,92.62c-.17.48-.37.94-.57,1.4L433.27,13Z"/><path d="M424.51,13,547,98.4c-.29.4-.6.78-.91,1.16L421.94,13Z"/><path d="M412.94,13l129.32,90.2q-.63.47-1.3.89L410.37,13Z"/><path d="M399.88,13,534.2,106.69a18.25,18.25,0,0,1-2.2.25L397.31,13Z"/><polygon points="388.3 13 523.07 107 520.5 107 385.74 13 388.3 13"/><polygon points="376.17 13 510.93 107 508.37 107 373.6 13 376.17 13"/><polygon points="364.59 13 499.36 107 496.79 107 362.02 13 364.59 13"/><polygon points="351.53 13 486.3 107 483.73 107 348.96 13 351.53 13"/><polygon points="339.96 13 474.73 107 472.16 107 337.39 13 339.96 13"/><polygon points="328.63 13 463.39 107 460.83 107 326.06 13 328.63 13"/><polygon points="317.05 13 451.82 107 449.25 107 314.49 13 317.05 13"/><polygon points="303.99 13 438.76 107 436.19 107 301.42 13 303.99 13"/><polygon points="292.42 13 427.19 107 424.62 107 289.85 13 292.42 13"/><polygon points="279.54 13 414.31 107 411.74 107 276.97 13 279.54 13"/><polygon points="266.48 13 401.25 107 398.68 107 263.91 13 266.48 13"/><polygon points="254.91 13 389.68 107 387.11 107 252.34 13 254.91 13"/><polygon points="243.58 13 378.35 107 375.78 107 241.01 13 243.58 13"/><polygon points="232 13 366.77 107 364.2 107 229.44 13 232 13"/><polygon points="218.94 13 353.71 107 351.14 107 216.37 13 218.94 13"/><polygon points="207.37 13 342.14 107 339.57 107 204.8 13 207.37 13"/><polygon points="193.35 13 328.12 107 325.55 107 190.78 13 193.35 13"/><polygon points="182.02 13 316.79 107 314.22 107 179.45 13 182.02 13"/><polygon points="170.45 13 305.21 107 302.65 107 167.88 13 170.45 13"/><polygon points="157.38 13 292.15 107 289.58 107 154.82 13 157.38 13"/><polygon points="145.81 13 280.58 107 278.01 107 143.24 13 145.81 13"/><polygon points="133.28 13 268.05 107 265.48 107 130.71 13 133.28 13"/><polygon points="121.95 13 256.72 107 254.15 107 119.38 13 121.95 13"/><polygon points="110.38 13 245.15 107 242.58 107 107.81 13 110.38 13"/><polygon points="97.31 13 232.08 107 229.52 107 94.75 13 97.31 13"/><polygon points="85.74 13 220.51 107 217.94 107 83.17 13 85.74 13"/><polygon points="73.6 13 208.37 107 205.8 107 71.03 13 73.6 13"/><polygon points="62.03 13 196.8 107 194.23 107 59.46 13 62.03 13"/><polygon points="48.97 13 183.74 107 181.17 107 46.4 13 48.97 13"/><polygon points="37.4 13 172.16 107 169.6 107 34.83 13 37.4 13"/><path d="M26,13h.07l134.77,94h-2.57L23.71,13.15A18.29,18.29,0,0,1,26,13Z"/><path d="M17.5,15.1,149.26,107h-2.57L16.07,15.9C16.54,15.61,17,15.35,17.5,15.1Z"/><path d="M11.36,19.93,136.2,107h-2.57L10.44,21.07C10.73,20.68,11,20.3,11.36,19.93Z"/><path d="M7.78,25.5,124.63,107h-2.57L7.18,26.88C7.36,26.41,7.57,26,7.78,25.5Z"/><path d="M5.69,33l106.06,74h-2.57L5.56,34.72C5.58,34.15,5.62,33.58,5.69,33Z"/><polygon points="5.5 42 98.69 107 96.12 107 5.5 43.79 5.5 42"/><polygon points="5.5 50.08 87.11 107 84.55 107 5.5 51.87 5.5 50.08"/><polygon points="5.5 57.98 75.78 107 73.22 107 5.5 59.77 5.5 57.98"/><polygon points="5.5 66.05 64.21 107 61.64 107 5.5 67.84 5.5 66.05"/><polygon points="5.5 75.16 51.15 107 48.58 107 5.5 76.95 5.5 75.16"/><path d="M5.5,84.07v-.83L39.58,107H37L5.54,85.05C5.53,84.72,5.5,84.4,5.5,84.07Z"/><path d="M9.5,97.59a23.56,23.56,0,0,1-1.66-2.95L25.52,107a18.27,18.27,0,0,1-3.06-.34Z"/><rect class="cls-2" x="1.5" y="1.5" width="540" height="90" rx="20" ry="20"/><path class="cls-3" d="M245,29.56l.33-.81a2.32,2.32,0,0,1,2.39-1.42h8q1.6,0,1.6,1.24a2.79,2.79,0,0,1-.08.53,2.24,2.24,0,0,0-.08.53q0,1.25,1.57,1.24h2.87A1.87,1.87,0,0,1,263.76,33V49.34a1.86,1.86,0,0,1-2.11,2.11h-3.22a1.87,1.87,0,0,0-2.11,2.13V65.05a1.86,1.86,0,0,0,2.11,2.11H263q2.11,0,2.11,1.9v.71q0,1.9-2.11,1.9H246.29a1.86,1.86,0,0,1-2.11-2.11v-16a1.87,1.87,0,0,0-2.11-2.13h-3.3a1.88,1.88,0,0,0-2.16,1.65l-4.82,16.83a2.54,2.54,0,0,1-.79,1.4,2.58,2.58,0,0,1-1.55.38h-8.4q-1.73,0-1.73-1.32a3,3,0,0,1,.15-.81l4.62-15.51a3.46,3.46,0,0,0,.18-1q0-1.65-2.11-1.65H220a1.86,1.86,0,0,1-2.11-2.11V33A1.87,1.87,0,0,1,220,30.88h2.31q1.52,0,1.52-1.17a2.29,2.29,0,0,0-.1-.61,2.46,2.46,0,0,1-.1-.56q0-1.22,1.52-1.22h8a2.49,2.49,0,0,1,2.49,1.4l.43.91a2.1,2.1,0,0,0,2.08,1.24h4.8A2,2,0,0,0,245,29.56ZM229.68,37.5v7.34a1.86,1.86,0,0,0,2.11,2.11h18.05A1.87,1.87,0,0,0,252,44.84V37.5a1.87,1.87,0,0,0-2.13-2.11H231.79A1.86,1.86,0,0,0,229.68,37.5Z"/><path class="cls-3" d="M293.67,54.21l.05-.08a2.33,2.33,0,0,1,2.13-.91h10.23q.71,0,.71.61a.78.78,0,0,1-.1.3,1,1,0,0,0-.08.36q0,.56.74.56H329q2.11,0,2.11,2v.94q0,2-2.11,2h-1.35a1.8,1.8,0,0,0-1.4.58,1.63,1.63,0,0,0-.43,1.07,2.79,2.79,0,0,0,.46,1.32l4.09,6.78a1.73,1.73,0,0,1,.3.79q0,1.14-1.4,1.14h-8.15a3.51,3.51,0,0,1-1.68-.3A3.41,3.41,0,0,1,318.3,70L313,61.07a2.75,2.75,0,0,0-.81-.94A2.62,2.62,0,0,0,311,59.9h-6.55a2.55,2.55,0,0,0-1.22.23,2.64,2.64,0,0,0-.84.91l-5.64,9a2.7,2.7,0,0,1-2.87,1.57h-9.22q-1.35,0-1.35-1.09a1.66,1.66,0,0,1,.33-.81L288,62.89a2.5,2.5,0,0,0,.51-1.32,1.64,1.64,0,0,0-.56-1.22,1.88,1.88,0,0,0-1.35-.46h-1.88q-2.11,0-2.11-2V57q0-2,2.11-2h7.08A2,2,0,0,0,293.67,54.21Zm-7-16.07h3.83q1.9,0,1.9,1.52a5.38,5.38,0,0,1-.05.63l-1.42,9.65a2,2,0,0,1-2.21,1.9h-3.91q-1.9,0-1.9-1.5a4.14,4.14,0,0,1,.05-.63l1.5-9.67A2,2,0,0,1,286.66,38.14Zm3.78-1.57h-4a2.34,2.34,0,0,1-1.52-.41,2.45,2.45,0,0,1-.74-1.42l-1.07-4.82a4,4,0,0,1-.08-.74q0-1.4,1.8-1.4h3.78a2.58,2.58,0,0,1,1.55.38,2.42,2.42,0,0,1,.76,1.4l1.22,4.87a3.32,3.32,0,0,1,.1.74Q292.22,36.57,290.44,36.56Zm12.09,13.15a1.88,1.88,0,0,1-2.11,2.06h-5.84a1.86,1.86,0,0,1-2.11-2.11V29.43a1.86,1.86,0,0,1,2.11-2.11h5.84a1.86,1.86,0,0,1,2.11,2.11v19.7q.05-1.85,1.78-1.85h.1a1.49,1.49,0,0,0,1.19-.58,1.34,1.34,0,0,0,.3-.86,3.55,3.55,0,0,0-.1-.71l-1.4-6.3a3.75,3.75,0,0,1-.08-.74q0-1.4,1.8-1.4h5.31a2.46,2.46,0,0,1,1.55.41,2.52,2.52,0,0,1,.74,1.4l1.63,7.06a2,2,0,0,0,2.06,1.73h.86q1.88,0,1.88-2.13v-8.3A1.86,1.86,0,0,0,318,34.74H304.92q-1.5,0-1.5-1.19a2,2,0,0,1,.23-.84l1.8-3.76A2.33,2.33,0,0,1,308,27.32h7.06q1.24,0,1.24,1a1.62,1.62,0,0,1-.1.46,1.68,1.68,0,0,0-.1.51q0,.94,1.24.94h11.07a1.87,1.87,0,0,1,2.11,2.13V49.67a1.86,1.86,0,0,1-2.11,2.11H304.64q-2.11,0-2.11-1.9Z"/><path d="M242,27.56l.33-.81a2.32,2.32,0,0,1,2.39-1.42h8q1.6,0,1.6,1.24a2.79,2.79,0,0,1-.08.53,2.24,2.24,0,0,0-.08.53q0,1.25,1.57,1.24h2.87A1.87,1.87,0,0,1,260.76,31V47.34a1.86,1.86,0,0,1-2.11,2.11h-3.22a1.87,1.87,0,0,0-2.11,2.13V63.05a1.86,1.86,0,0,0,2.11,2.11H260q2.11,0,2.11,1.9v.71q0,1.9-2.11,1.9H243.29a1.86,1.86,0,0,1-2.11-2.11v-16a1.87,1.87,0,0,0-2.11-2.13h-3.3a1.88,1.88,0,0,0-2.16,1.65l-4.82,16.83a2.54,2.54,0,0,1-.79,1.4,2.58,2.58,0,0,1-1.55.38h-8.4q-1.73,0-1.73-1.32a3,3,0,0,1,.15-.81l4.62-15.51a3.46,3.46,0,0,0,.18-1q0-1.65-2.11-1.65H217a1.86,1.86,0,0,1-2.11-2.11V31A1.87,1.87,0,0,1,217,28.88h2.31q1.52,0,1.52-1.17a2.29,2.29,0,0,0-.1-.61,2.46,2.46,0,0,1-.1-.56q0-1.22,1.52-1.22h8a2.49,2.49,0,0,1,2.49,1.4l.43.91a2.1,2.1,0,0,0,2.08,1.24h4.8A2,2,0,0,0,242,27.56ZM226.68,35.5v7.34a1.86,1.86,0,0,0,2.11,2.11h18.05A1.87,1.87,0,0,0,249,42.84V35.5a1.87,1.87,0,0,0-2.13-2.11H228.79A1.86,1.86,0,0,0,226.68,35.5Z"/><path d="M290.67,52.21l.05-.08a2.33,2.33,0,0,1,2.13-.91h10.23q.71,0,.71.61a.78.78,0,0,1-.1.3,1,1,0,0,0-.08.36q0,.56.74.56H326q2.11,0,2.11,2v.94q0,2-2.11,2h-1.35a1.8,1.8,0,0,0-1.4.58,1.63,1.63,0,0,0-.43,1.07,2.79,2.79,0,0,0,.46,1.32l4.09,6.78a1.73,1.73,0,0,1,.3.79q0,1.14-1.4,1.14h-8.15a3.51,3.51,0,0,1-1.68-.3A3.41,3.41,0,0,1,315.3,68L310,59.07a2.75,2.75,0,0,0-.81-.94A2.62,2.62,0,0,0,308,57.9h-6.55a2.55,2.55,0,0,0-1.22.23,2.64,2.64,0,0,0-.84.91l-5.64,9a2.7,2.7,0,0,1-2.87,1.57h-9.22q-1.35,0-1.35-1.09a1.66,1.66,0,0,1,.33-.81L285,60.89a2.5,2.5,0,0,0,.51-1.32,1.64,1.64,0,0,0-.56-1.22,1.88,1.88,0,0,0-1.35-.46h-1.88q-2.11,0-2.11-2V55q0-2,2.11-2h7.08A2,2,0,0,0,290.67,52.21Zm-7-16.07h3.83q1.9,0,1.9,1.52a5.38,5.38,0,0,1-.05.63l-1.42,9.65a2,2,0,0,1-2.21,1.9h-3.91q-1.9,0-1.9-1.5a4.14,4.14,0,0,1,.05-.63l1.5-9.67A2,2,0,0,1,283.66,36.14Zm3.78-1.57h-4a2.34,2.34,0,0,1-1.52-.41,2.45,2.45,0,0,1-.74-1.42l-1.07-4.82a4,4,0,0,1-.08-.74q0-1.4,1.8-1.4h3.78a2.58,2.58,0,0,1,1.55.38,2.42,2.42,0,0,1,.76,1.4l1.22,4.87a3.32,3.32,0,0,1,.1.74Q289.22,34.57,287.44,34.56Zm12.09,13.15a1.88,1.88,0,0,1-2.11,2.06h-5.84a1.86,1.86,0,0,1-2.11-2.11V27.43a1.86,1.86,0,0,1,2.11-2.11h5.84a1.86,1.86,0,0,1,2.11,2.11v19.7q.05-1.85,1.78-1.85h.1a1.49,1.49,0,0,0,1.19-.58,1.34,1.34,0,0,0,.3-.86,3.55,3.55,0,0,0-.1-.71l-1.4-6.3a3.75,3.75,0,0,1-.08-.74q0-1.4,1.8-1.4h5.31a2.46,2.46,0,0,1,1.55.41,2.52,2.52,0,0,1,.74,1.4l1.63,7.06a2,2,0,0,0,2.06,1.73h.86q1.88,0,1.88-2.13v-8.3A1.86,1.86,0,0,0,315,32.74H301.92q-1.5,0-1.5-1.19a2,2,0,0,1,.23-.84l1.8-3.76a3,3,0,0,1,1-1.29,3,3,0,0,1,1.6-.33h7.06q1.24,0,1.24,1a1.62,1.62,0,0,1-.1.46,1.68,1.68,0,0,0-.1.51q0,.94,1.24.94h11.07a1.87,1.87,0,0,1,2.11,2.13V47.67a1.86,1.86,0,0,1-2.11,2.11H301.64q-2.11,0-2.11-1.9Z"/></g></g></svg>