<svg xmlns="http://www.w3.org/2000/svg" width="21" height="19" viewBox="0 0 21 19">
  <defs>
    <style>
      .cls-1 {
        fill: #ff6b22;
        fill-rule: evenodd;
      }
    </style>
  </defs>
  <path id="积分.svg" class="cls-1" d="M650,411.53a3.046,3.046,0,0,0-1.45-2.439,3.1,3.1,0,0,0,1.45-2.437c0-1.37-1.184-2.6-3.334-3.459a22.084,22.084,0,0,0-14.332,0c-2.15.86-3.334,2.089-3.334,3.459a3.1,3.1,0,0,0,1.449,2.436A3.044,3.044,0,0,0,629,411.53a3.079,3.079,0,0,0,1.409,2.406,3.021,3.021,0,0,0-1.409,2.41c0,1.37,1.184,2.6,3.334,3.459a22.084,22.084,0,0,0,14.332,0c2.15-.86,3.334-2.089,3.334-3.459a3.025,3.025,0,0,0-1.41-2.409A3.081,3.081,0,0,0,650,411.53Zm-17.063-6.908a20.481,20.481,0,0,1,13.126,0c1.473,0.589,2.352,1.348,2.352,2.032s-0.879,1.443-2.352,2.032a20.481,20.481,0,0,1-13.126,0c-1.472-.589-2.352-1.348-2.352-2.032S631.465,405.211,632.937,404.622Zm-0.6,5.491a22.084,22.084,0,0,0,14.332,0c0.128-.052.253-0.1,0.375-0.158l0,0a2.207,2.207,0,0,1,1.377,1.57c0,0.684-.879,1.443-2.352,2.032a20.481,20.481,0,0,1-13.126,0c-1.472-.589-2.352-1.348-2.352-2.032a2.232,2.232,0,0,1,1.382-1.572C632.086,410.011,632.208,410.062,632.334,410.113Zm16.081,6.233c0,0.683-.879,1.443-2.352,2.032a20.5,20.5,0,0,1-13.126,0c-1.472-.589-2.352-1.349-2.352-2.032a2.175,2.175,0,0,1,1.323-1.539c0.137,0.063.279,0.123,0.426,0.182a22.084,22.084,0,0,0,14.332,0c0.147-.059.289-0.119,0.427-0.182A2.156,2.156,0,0,1,648.415,416.346Z" transform="translate(-629 -402)"/>
</svg>
