<svg xmlns="http://www.w3.org/2000/svg" width="54.47" height="43" viewBox="0 0 54.47 43"><defs><style>.cls-1{fill:#1d8fe1;}</style></defs><title>B2</title><g id="图层_2" data-name="图层 2"><g id="图层_1-2" data-name="图层 1"><path class="cls-1" d="M27.23,22.15a4.5,4.5,0,1,0,4.43,4.5A4.48,4.48,0,0,0,27.23,22.15Zm0,7.13a2.64,2.64,0,1,1,2.6-2.64A2.63,2.63,0,0,1,27.23,29.28Z"/><path class="cls-1" d="M51.44,7.68a3.06,3.06,0,0,0-3,3.07,2.63,2.63,0,0,0,.45,1.54l-10.74,6L28.29,6a3,3,0,0,0,2-2.92,3,3,0,1,0-6.05,0,3,3,0,0,0,2,2.92L16.34,18.27l-10.74-6a2.63,2.63,0,0,0,.45-1.54A3.06,3.06,0,0,0,3,7.68a3.07,3.07,0,0,0,0,6.14h.61L9.38,43H45.09l5.75-29.18h.61a3.07,3.07,0,0,0,0-6.14ZM42.67,39.93H11.8L7.26,16.74,14.83,21l2.27,1.23,1.66-2L27.23,9.52l8.47,10.75,1.66,2L39.64,21l7.57-4.3Z"/><rect class="cls-1" x="22.81" y="33.16" width="8.86" height="1.7" rx="0.8" ry="0.8"/></g></g></svg>