<svg xmlns="http://www.w3.org/2000/svg" width="31.969" height="30" viewBox="0 0 31.969 30">
  <defs>
    <style>
      .cls-1 {
        fill: #ff9500;
        fill-rule: evenodd;
      }
    </style>
  </defs>
  <path id="王冠.svg" class="cls-1" d="M162.138,347.851a2.535,2.535,0,0,0,3.192-.559,2.634,2.634,0,0,0-4.083-3.32,2.553,2.553,0,0,0-.026,3.09l-11.712,4.323-1.787-9.164a2.048,2.048,0,0,0,1.938-.7,2.208,2.208,0,1,0-3.013.224,2.588,2.588,0,0,0,.8.428L142,352.819c-0.051,1.93,3.079,5.921,7.685,9.666,4.5,3.656,9.023,5.8,10.962,5.494l9.555-7.085-9.119.035Zm11,10.085a2.077,2.077,0,1,0,.408,3A2.13,2.13,0,0,0,173.14,357.936Z" transform="translate(-142 -338)"/>
</svg>
