<svg xmlns="http://www.w3.org/2000/svg" width="58" height="58" viewBox="0 0 58 58"><defs><style>.cls-1{fill:#ff5d45;fill-rule:evenodd;}.cls-2{fill:#fff;}</style></defs><title>提金</title><g id="图层_2" data-name="图层 2"><g id="图层_1-2" data-name="图层 1"><path class="cls-1" d="M29,0A29,29,0,1,1,0,29,29,29,0,0,1,29,0Z"/><path class="cls-2" d="M41.34,27.23a.92.92,0,0,0-1,1V39a.9.9,0,0,1-.77,1H18.2a.89.89,0,0,1-.77-1V28.21a1,1,0,1,0-1.93,0V39a2.84,2.84,0,0,0,2.7,3H39.8a2.84,2.84,0,0,0,2.7-3V28.21A1.09,1.09,0,0,0,41.34,27.23Zm-14.16-4H23.52a1,1,0,0,0,0,1.93H28v2.08H23.52a1,1,0,0,0,0,1.93H28v3.27a1,1,0,1,0,1.9,0V29.2h4.53a1,1,0,0,0,0-1.93H30V25.2h4.53a1,1,0,0,0,0-1.93H30.83l4.61-5.75a1,1,0,0,0-.23-1.34.94.94,0,0,0-1.32.24L29,22.56l-4.88-6.14a.94.94,0,0,0-1.32-.24,1,1,0,0,0-.23,1.34Z"/></g></g></svg>