<svg xmlns="http://www.w3.org/2000/svg" width="44.37" height="43" viewBox="0 0 44.37 43"><defs><style>.cls-1{fill:#29ab91;}</style></defs><title>C2</title><g id="图层_2" data-name="图层 2"><g id="图层_1-2" data-name="图层 1"><path class="cls-1" d="M39.93,43H4.44A4.68,4.68,0,0,1,0,38.11V20.2a1.52,1.52,0,0,1,1.58-1.63A1.52,1.52,0,0,1,3.17,20.2V38.11a1.48,1.48,0,0,0,1.27,1.63H39.61a1.48,1.48,0,0,0,1.27-1.63V20.2a1.52,1.52,0,0,1,1.58-1.63,1.79,1.79,0,0,1,1.9,1.63V38.11A4.68,4.68,0,0,1,39.93,43Z"/><path class="cls-1" d="M32.75,2.51,25.18,12h6a1.59,1.59,0,0,1,0,3.19H23.75v3.44h7.45a1.59,1.59,0,0,1,0,3.19H23.75v5.41a1.56,1.56,0,1,1-3.12,0V21.83H13.17a1.59,1.59,0,0,1,0-3.19h7.45V15.21H13.17a1.59,1.59,0,0,1,0-3.19h6L11.61,2.51A1.61,1.61,0,0,1,12,.29a1.54,1.54,0,0,1,2.18.39l8,10.16L30.2.68A1.54,1.54,0,0,1,32.37.29a1.61,1.61,0,0,1,.38,2.22Z"/></g></g></svg>