<svg xmlns="http://www.w3.org/2000/svg" width="58" height="58" viewBox="0 0 58 58"><defs><style>.cls-1{fill:#2ebefd;fill-rule:evenodd;}.cls-2{fill:#fff;}</style></defs><title>卖金</title><g id="图层_2" data-name="图层 2"><g id="图层_1-2" data-name="图层 1"><path class="cls-1" d="M29,0A29,29,0,1,1,0,29,29,29,0,0,1,29,0Z"/><path class="cls-2" d="M38.18,42H19.82A3.81,3.81,0,0,1,16,38.21V22.06a3.81,3.81,0,0,1,3.82-3.79h.77a.76.76,0,1,1,0,1.52h-.77a2.28,2.28,0,0,0-2.29,2.27V38.21a2.28,2.28,0,0,0,2.29,2.27H38.18a2.28,2.28,0,0,0,2.29-2.27V22.06a2.28,2.28,0,0,0-2.29-2.27h-.77a.76.76,0,1,1,0-1.52h.77A3.81,3.81,0,0,1,42,22.06V38.21A3.81,3.81,0,0,1,38.18,42ZM34.36,22.06a.76.76,0,0,1-.77-.76V16.76a.76.76,0,0,1,1.53,0V21.3a.76.76,0,0,1-.76.76Zm-3.06-2.27H26.71a.76.76,0,1,1,0-1.52h4.59a.76.76,0,1,1,0,1.52Zm2.39,5.79a.84.84,0,0,1,1.19,1.19l-6.66,6.66a.84.84,0,0,1-1.19,0l-3.15-3.15a.84.84,0,0,1,1.19-1.19l2.56,2.56,6.07-6.06Zm-10-3.52a.76.76,0,0,1-.77-.76V16.76a.76.76,0,0,1,1.53,0V21.3a.76.76,0,0,1-.76.76Z"/></g></g></svg>