<svg xmlns="http://www.w3.org/2000/svg" width="42.28" height="43" viewBox="0 0 42.28 43"><defs><style>.cls-1{fill:#f15a4a;}</style></defs><title>C3</title><g id="图层_2" data-name="图层 2"><g id="图层_1-2" data-name="图层 1"><path class="cls-1" d="M36.07,43H6.22A6.24,6.24,0,0,1,0,36.74V10A6.24,6.24,0,0,1,6.22,3.76H7.46a1.25,1.25,0,0,1,0,2.51H6.22A3.74,3.74,0,0,0,2.49,10V36.74A3.74,3.74,0,0,0,6.22,40.5H36.07a3.74,3.74,0,0,0,3.73-3.76V10a3.74,3.74,0,0,0-3.73-3.76H34.82a1.25,1.25,0,0,1,0-2.51h1.24A6.24,6.24,0,0,1,42.28,10V36.74A6.24,6.24,0,0,1,36.07,43ZM29.85,10A1.25,1.25,0,0,1,28.6,8.77V1.25a1.24,1.24,0,1,1,2.49,0V8.77A1.25,1.25,0,0,1,29.85,10Zm-5-3.76H17.41a1.25,1.25,0,0,1,0-2.51h7.46a1.25,1.25,0,0,1,0,2.51Zm3.88,9.58a1.35,1.35,0,0,1,1.93,0,1.4,1.4,0,0,1,0,2l-10.83,11a1.35,1.35,0,0,1-1.93,0L12.8,23.6a1.4,1.4,0,0,1,0-2,1.35,1.35,0,0,1,1.93,0l4.16,4.23,9.86-10ZM12.44,10a1.25,1.25,0,0,1-1.24-1.25V1.25a1.24,1.24,0,1,1,2.49,0V8.77A1.25,1.25,0,0,1,12.44,10Z"/></g></g></svg>