<svg xmlns="http://www.w3.org/2000/svg" width="41.09" height="43" viewBox="0 0 41.09 43"><defs><style>.cls-1{fill:#1d8fe1;}</style></defs><title>C1</title><g id="图层_2" data-name="图层 2"><g id="图层_1-2" data-name="图层 1"><path class="cls-1" d="M30.09,23.13h11V15.81A5.28,5.28,0,0,0,39.57,12a5,5,0,0,0-3.69-1.57H5.21A5,5,0,0,0,1.52,12,5.28,5.28,0,0,0,0,15.81V37.55a5.22,5.22,0,0,0,.43,2.17,4.73,4.73,0,0,0,1.16,1.72,5.55,5.55,0,0,0,1.67,1.12,4.71,4.71,0,0,0,2,.45H36a5.33,5.33,0,0,0,2-.37,5,5,0,0,0,1.59-1.2,4.31,4.31,0,0,0,1.09-1.72,6.66,6.66,0,0,0,.36-2.09V28.29H30a2.49,2.49,0,0,1-1.45-.3,2.66,2.66,0,0,1-.72-.9,4.16,4.16,0,0,1-.29-1.42,2.51,2.51,0,0,1,2.53-2.54Zm-4.63,5.15A4.54,4.54,0,0,0,27,30.15a5,5,0,0,0,3.11.9h8.17v6.57a2.48,2.48,0,0,1-.14,1,3.14,3.14,0,0,1-.51.82,2.62,2.62,0,0,1-.72.52,2,2,0,0,1-.94.23H5.28A1.77,1.77,0,0,1,4.34,40a2.59,2.59,0,0,1-.87-.6,3.33,3.33,0,0,1-.58-.82,2.12,2.12,0,0,1-.22-1V15.81A2.47,2.47,0,0,1,3.4,14a2.12,2.12,0,0,1,1.74-.75V13.2H35.88a2.3,2.3,0,0,1,1.73.75,2.24,2.24,0,0,1,.72,1.79V20.3H30.09a5,5,0,0,0-3.69,1.57,5.28,5.28,0,0,0-1.52,3.81v.07A5.66,5.66,0,0,0,25.46,28.29Z"/><path class="cls-1" d="M30.38,3.9a4.2,4.2,0,0,0-1.08-.82,6.08,6.08,0,0,0-1.45-.3,4,4,0,0,0-2,.6c-.65.37-1.59.82-2.75,1.5S20.83,6.14,19.6,6.81a7.14,7.14,0,0,1-.8.45c-.58.37-1.23.75-1.88,1.12L15.7,5.91c.64-.37,1.29-.73,1.93-1l0-.09c.29-.15.51-.3.8-.45,1.23-.67,2.39-1.27,3.55-1.94S24,1.28,24.67.91A5.89,5.89,0,0,1,28,0a7.14,7.14,0,0,1,2.39.52l.07.07a6,6,0,0,1,2,1.57l.15.15,1.81,3.58L32,7.18,30.38,3.9Z"/><path class="cls-1" d="M31.25,26.87a1.54,1.54,0,0,1-2.17,0,1.66,1.66,0,0,1,0-2.24,1.54,1.54,0,0,1,2.17,0,1.66,1.66,0,0,1,0,2.24Z"/><path class="cls-1" d="M31.39,26.94a1.74,1.74,0,0,1-3-1.27,1.78,1.78,0,0,1,.51-1.27,1.72,1.72,0,0,1,1.23-.52,1.67,1.67,0,0,1,1.23.52,1.84,1.84,0,0,1,.5,1.27,1.78,1.78,0,0,1-.5,1.27Z"/><path class="cls-1" d="M31.1,24.7a1.37,1.37,0,0,0-1.88,0,1.48,1.48,0,0,0,0,1.94,1.38,1.38,0,0,0,1.88,0,1.48,1.48,0,0,0,0-1.94Z"/></g></g></svg>