<svg xmlns="http://www.w3.org/2000/svg" width="58" height="58" viewBox="0 0 58 58"><defs><style>.cls-1{fill:#ff9500;fill-rule:evenodd;}.cls-2{fill:#fff;}</style></defs><title>资产记录</title><g id="图层_2" data-name="图层 2"><g id="图层_1-2" data-name="图层 1"><path class="cls-1" d="M29,0A29,29,0,1,1,0,29,29,29,0,0,1,29,0Z"/><path class="cls-2" d="M34.81,26.83H41.5V22.41a3.18,3.18,0,0,0-.92-2.3,3,3,0,0,0-2.24-.95H19.67a3,3,0,0,0-2.24.95,3.18,3.18,0,0,0-.92,2.3V35.55a3.14,3.14,0,0,0,.26,1.31,2.86,2.86,0,0,0,.7,1,3.38,3.38,0,0,0,1,.68,2.88,2.88,0,0,0,1.23.27H38.38a3.26,3.26,0,0,0,1.19-.23,3,3,0,0,0,1-.72,2.6,2.6,0,0,0,.66-1,4,4,0,0,0,.22-1.26V29.95H34.77a1.53,1.53,0,0,1-.88-.18,1.61,1.61,0,0,1-.44-.54,2.5,2.5,0,0,1-.18-.86,1.42,1.42,0,0,1,.44-1.08A1.44,1.44,0,0,1,34.81,26.83ZM32,29.95a2.75,2.75,0,0,0,.92,1.13,3.06,3.06,0,0,0,1.89.54h5v4a1.49,1.49,0,0,1-.09.63,1.9,1.9,0,0,1-.31.5,1.59,1.59,0,0,1-.44.32,1.21,1.21,0,0,1-.57.14H19.71a1.08,1.08,0,0,1-.57-.14,1.58,1.58,0,0,1-.53-.36,2,2,0,0,1-.35-.5,1.28,1.28,0,0,1-.13-.59V22.41a1.49,1.49,0,0,1,.44-1.08,1.29,1.29,0,0,1,1.06-.45v0H38.33a1.41,1.41,0,0,1,1.06.45,1.35,1.35,0,0,1,.44,1.08v2.76h-5a3,3,0,0,0-2.25.95,3.18,3.18,0,0,0-.92,2.3v0A3.41,3.41,0,0,0,32,29.95Z"/></g></g></svg>