<svg xmlns="http://www.w3.org/2000/svg" width="127.13" height="67.66" viewBox="0 0 127.13 67.66"><defs><style>.cls-1{fill:#fff;fill-rule:evenodd;}.cls-2{fill:#fdbe43;}</style></defs><title>资源 27</title><g id="图层_2" data-name="图层 2"><g id="图层_1-2" data-name="图层 1"><path class="cls-1" d="M118.54,0H8.59A8.58,8.58,0,0,0,0,8.6V46.42A8.59,8.59,0,0,0,8.58,55H51.39l.14,7.48c.09,4.72,3.4,6.55,7.4,4L76.95,55h41.59a8.6,8.6,0,0,0,8.59-8.6V8.6A8.6,8.6,0,0,0,118.54,0Z"/><path class="cls-2" d="M20.92,14.32l.64.64a4,4,0,0,0,.71,1.85,59.52,59.52,0,0,1,6.25-.6l.6.46a1.34,1.34,0,0,1-.46,1.42l-1,.21a41.85,41.85,0,0,0-5.26.32L22.59,21l-.25.92a21.85,21.85,0,0,1,4.3.78l2.1,1.17a10.47,10.47,0,0,1,2.45,3.3,4.44,4.44,0,0,1-1,4,11.08,11.08,0,0,1-4.23,2,25.59,25.59,0,0,1-7.64,1,8.66,8.66,0,0,1-6.82-2.27,4.28,4.28,0,0,1-.6-4.3A11,11,0,0,1,13.1,24l2.2-1.81a22.87,22.87,0,0,1,4.94-.39,27.17,27.17,0,0,1-.5-7.1l.5-.46ZM15.17,35.74a1.51,1.51,0,0,1,.28,1.49,8.45,8.45,0,0,1-2,3.8,1.45,1.45,0,0,1-1.31-.14,1.24,1.24,0,0,1-.39-1.24l2-3.45.64-.46Zm7.42-11.4a41.41,41.41,0,0,0-7.28.28A10.43,10.43,0,0,0,13,28.31a2.09,2.09,0,0,0,.25,2,8.79,8.79,0,0,0,6.32,1.42,22.86,22.86,0,0,0,8.6-2.06,1.7,1.7,0,0,0,.71-1.63,6.47,6.47,0,0,0-1-1.78L26.18,25A13,13,0,0,0,22.59,24.33ZM18.82,35.56a3.26,3.26,0,0,1,.92.57A30.28,30.28,0,0,1,21,39.86l-.25.78a1.36,1.36,0,0,1-1.71.32,3.21,3.21,0,0,1-.89-2.49,6.08,6.08,0,0,1,.11-2.52Zm6.71-.39a1.19,1.19,0,0,1,1.1.5,17,17,0,0,0,.92,3.13,1.78,1.78,0,0,1-.21,1.71,1.24,1.24,0,0,1-1.49.25,3.71,3.71,0,0,1-1.17-2.45A4.09,4.09,0,0,1,25,35.56ZM30.4,35l.67.53,1.67,2.13a1.5,1.5,0,0,1-.32,1.31,1.38,1.38,0,0,1-1.35.07,5.26,5.26,0,0,1-1.85-2.88.89.89,0,0,1,.07-1l.39-.28Z"/><path class="cls-2" d="M53.45,18.83l.39.39a23.14,23.14,0,0,0,.39,5.68q1.35-.21,2.81-.39l.64.32.39.78-.25.71-.53.46-2.81.46a7.13,7.13,0,0,0,.78,3.23l1,2.17.32.18,1.74-3.62.46-.46h.53a11,11,0,0,1-1.24,5.72l.32.39a2.55,2.55,0,0,0,2.42.46,5.2,5.2,0,0,1,2.42-1.49,2.62,2.62,0,0,1-.32,2L62,37a3.33,3.33,0,0,1-2.27.67,7,7,0,0,1-2.81-1l-1.31,1.49a2.11,2.11,0,0,1-1.88.67,1.21,1.21,0,0,1-.64-1.46,19.28,19.28,0,0,0,2.13-2.38,40.76,40.76,0,0,1-1.88-3.66,32.75,32.75,0,0,0-1.17-3.76l-6.11,1a.57.57,0,0,0,.25.78l1.1-.46a2.11,2.11,0,0,1,1.71.39,1.15,1.15,0,0,1-.25,1.1q-1.17.6-2.24,1.07a25,25,0,0,1-.78,5.33,7.54,7.54,0,0,1-1.88,2.59,3.33,3.33,0,0,1-4.37,0,2.49,2.49,0,0,1-.64-2.27,10.88,10.88,0,0,0,2.88.71l.89-.57a6.28,6.28,0,0,0,1.39-4.51q-1.56.39-3.05.92a1.56,1.56,0,0,1-1.85-.25,1.19,1.19,0,0,1,.14-1.17A24.73,24.73,0,0,0,44,30.48l-.32-1.42a39,39,0,0,0-4.37.25L38.54,29a.87.87,0,0,1-.14-1.1l.53-.46,3.76-.71-1.42-3-.07-1.31a10.55,10.55,0,0,1-3-.71q-.92-.78.07-1.56,2.52-.14,5.08-.21l3.05-.71a5.28,5.28,0,0,1,1.35.71v.92l-.71.71a13.48,13.48,0,0,1-4.48.92l-.14.18,2.66,3.73A45.64,45.64,0,0,0,52,25.22l.25-3.8a5.6,5.6,0,0,1,.92-2.59Zm5.08-1.63a4.49,4.49,0,0,1,2,.6l.57.78a2.37,2.37,0,0,1-.5,1.88l-.78.46a2.54,2.54,0,0,1-2-.28,2,2,0,0,1-.39-2.84Z"/><path class="cls-2" d="M68.16,17.83a1.46,1.46,0,0,1,1.17.64,38.18,38.18,0,0,1,6.39-.25A1.62,1.62,0,0,1,76.11,20a6.52,6.52,0,0,1-2.59.53,14.75,14.75,0,0,1,.25,2.66l-.46.64A1.3,1.3,0,0,1,72,23.69l-.39-.6a10,10,0,0,0-.14-2.66,3.43,3.43,0,0,0-1.71.07l-.11,2.73-.46.64a1.28,1.28,0,0,1-1.17,0,3.48,3.48,0,0,1-.46-3.05A3.6,3.6,0,0,1,68.16,17.83Zm10.55,5.54a45.28,45.28,0,0,1,6.93,3.3l3.13,2.42,1.1,1.1a3,3,0,0,1-.14,1.31,1.31,1.31,0,0,1-1.63.25,34.19,34.19,0,0,0-9.55-5.93,23.73,23.73,0,0,1-9.45,7.1A.9.9,0,0,1,69,31.69l3.2-3.23,5.4-4.83ZM76,33.07a4.48,4.48,0,0,1,.92,2.59,12.53,12.53,0,0,0,.39,3.66,1,1,0,0,0,.92-.14,31.41,31.41,0,0,0,.39-5l.39-.39a1.46,1.46,0,0,1,1.28.39l.39.92.14,4.08A1.77,1.77,0,0,0,82,39q1-2,2.13-3.91a1.59,1.59,0,0,1,1.46-.6,2.2,2.2,0,0,1,.5,1A11.48,11.48,0,0,0,84.85,39l2.27.25.64.46.21.71-.39.78A53.66,53.66,0,0,1,75.87,42a5.76,5.76,0,0,1-3.66-.39,1,1,0,0,1-.14-1.24l.78-.57a3.38,3.38,0,0,0,2-.39V34.63a1.73,1.73,0,0,1,.6-1.56Zm1-2.81q3.76.07,7.49.32a1.82,1.82,0,0,1,.5,1.71,8.46,8.46,0,0,1-4.69.39q-3.13-.14-6.18-.46-1-.71-.07-1.56A10.82,10.82,0,0,1,77,30.27ZM79.7,16.59a1.56,1.56,0,0,1,1,.39,2,2,0,0,0,.39,1.24,27.81,27.81,0,0,1,4.62-.71,7.22,7.22,0,0,1,3.27.32l.39.64a1.51,1.51,0,0,1-.71,1.24l-2.56.14a10.72,10.72,0,0,1,.46,2.52l-.39.6a1.12,1.12,0,0,1-1.42.11l-.39-.57L84.07,20a15.77,15.77,0,0,0-3,.28l-.32,1.67-.57.53a1.18,1.18,0,0,1-1.31-.14l-.39-.78a18,18,0,0,1,.71-4.48Z"/><path class="cls-2" d="M98.74,19.22q4.44.25,9.06.32l.64.64a1.15,1.15,0,0,1-.57,1.17h-3.73l-.5.21a28.89,28.89,0,0,0-3.91,4.94,1.19,1.19,0,0,0-.07,1.24l.78.07A9.15,9.15,0,0,0,103.36,26l.85-1a2.44,2.44,0,0,1,.21-1.63,1.09,1.09,0,0,1,1.1-.18l1,1.42,2.95,2.27.5.53a1.81,1.81,0,0,1-.39,1.35,1.07,1.07,0,0,1-1.17.07l-3-2.42-2,2a6.86,6.86,0,0,1-3.05,1.39,2.84,2.84,0,0,1-2.27-.6A3,3,0,0,1,98,25.72a18.87,18.87,0,0,1,3.27-4.16,14,14,0,0,1-3.13-.92.73.73,0,0,1-.07-1.1ZM103,29.63l.46.46a2.78,2.78,0,0,0,.32,1.63l2.42-.53.71.25a1.67,1.67,0,0,1-.11.92,5.12,5.12,0,0,1-2.56,1.1l-.25.21a3.31,3.31,0,0,0,.57,1.88,8.81,8.81,0,0,1,2.63-.53,1.46,1.46,0,0,1,.57,1.31l-.57.57a22.45,22.45,0,0,1-5,1.24,2.05,2.05,0,0,1-2.2-.32.85.85,0,0,1,.39-1.17l1.81-.46.28-.32a5.68,5.68,0,0,0-.39-2.1,8.22,8.22,0,0,1-2.73-.32L98.81,33v-.78l.53-.39a4.63,4.63,0,0,0,2.66,0l.25-1.74.46-.46Zm9-5.22.6.14,1.56,3.91a1.47,1.47,0,0,1-.46,1.63.83.83,0,0,1-1.1-.21,7,7,0,0,1-1.1-3.13A2.29,2.29,0,0,1,112,24.41Zm4.69-1.17A22.5,22.5,0,0,1,118.2,31a7.78,7.78,0,0,1-.39,3.59,2.77,2.77,0,0,1-2,.85,4.22,4.22,0,0,1-2.66-1l-.71-.92.14-.14a8.92,8.92,0,0,0,3.45-.25q-.14-4.69-.71-9.38l.18-.53L116,23Z"/></g></g></svg>