<svg xmlns="http://www.w3.org/2000/svg" width="345.33" height="373.93" viewBox="0 0 345.33 373.93"><defs><style>.cls-1,.cls-3,.cls-5,.cls-8{fill:none;}.cls-1,.cls-12,.cls-13,.cls-15,.cls-7{stroke:#ccc;}.cls-1,.cls-8{stroke-linecap:round;}.cls-1,.cls-12,.cls-8{stroke-linejoin:round;}.cls-2,.cls-7{fill:#f2f2f2;}.cls-3{stroke:#f2f2f2;}.cls-13,.cls-15,.cls-3,.cls-5,.cls-7{stroke-miterlimit:10;}.cls-12,.cls-15,.cls-4{fill:#e5e5e5;}.cls-5{stroke:#d3d3d3;}.cls-6{fill:#d8d8d8;}.cls-8{stroke:#ddd;stroke-dasharray:4;}.cls-9{fill:#ccc;}.cls-10{fill:#d3d3d3;}.cls-11{fill:#e2e2e2;}.cls-13{fill:#ededed;}.cls-14{fill:#fff;}</style></defs><title>收藏</title><g id="图层_2" data-name="图层 2"><g id="图层_1-2" data-name="图层 1"><line class="cls-1" x1="15.38" y1="285.2" x2="27.31" y2="285.2"/><line class="cls-1" x1="21.35" y1="279.23" x2="21.35" y2="291.17"/><ellipse class="cls-2" cx="158.19" cy="363.78" rx="87.94" ry="10.15"/><path class="cls-3" d="M207.58,119.63l-93.75,25.86a4.56,4.56,0,0,1-5.59-3.06L78.8,40.29a4.43,4.43,0,0,1,3.13-5.46L175.67,9A4.56,4.56,0,0,1,181.26,12l29.45,102.14A4.43,4.43,0,0,1,207.58,119.63Z" transform="translate(-32.8)"/><polygon class="cls-4" points="184.86 65.12 197.56 64.6 252.77 256.07 240.87 259.36 184.86 65.12"/><path class="cls-5" d="M193.81,123.43l-93.75,25.86a4.56,4.56,0,0,1-5.59-3.06L65,44.09a4.43,4.43,0,0,1,3.13-5.46L161.9,12.77a4.56,4.56,0,0,1,5.59,3.06L196.94,118A4.43,4.43,0,0,1,193.81,123.43Z" transform="translate(-32.8)"/><polygon class="cls-2" points="240.87 259.36 73.88 305.42 17.54 110.05 184.53 63.98 240.87 259.36"/><path class="cls-6" d="M92.47,123.82a4.19,4.19,0,0,1-3,5.18,4.31,4.31,0,0,1-5.3-2.9,4.19,4.19,0,0,1,3-5.18A4.31,4.31,0,0,1,92.47,123.82Z" transform="translate(-32.8)"/><path class="cls-6" d="M194.94,95.55a4.19,4.19,0,0,1-3,5.18,4.31,4.31,0,0,1-5.3-2.9,4.19,4.19,0,0,1,3-5.18A4.31,4.31,0,0,1,194.94,95.55Z" transform="translate(-32.8)"/><path class="cls-4" d="M0,60" transform="translate(-32.8)"/><path class="cls-6" d="M129.4,199.5l2-.66a.17.17,0,0,0,.1-.23l-5-17.41-2.26.5c-.28-1-.56-2.08-.81-3.08,1.87-.56,5.59-1.66,7.73-2.25,3.66-1,6.37-1.76,8.83-1.4a5.82,5.82,0,0,1,4.52,3.69c.72,2.51-.67,5-2.83,6.55l.09.29c3.32-.36,6.52,1.31,7.41,4.4,1.12,3.87-1.89,8-8.38,9.75l-5.29,1.42-5.28,1.46C130,201.58,129.64,200.47,129.4,199.5Zm5.33-13a7.3,7.3,0,0,0,1-.22c2.38-.66,3.65-2.6,3-4.88a3.9,3.9,0,0,0-4.77-2.71,5.16,5.16,0,0,0-1.25.46Zm2.75,9.83c.23.81,1.08.78,1.95.54,2.41-.67,3.89-2.47,3.18-4.94-.6-2.07-3-3.56-6-2.71a6.61,6.61,0,0,0-1,.31Z" transform="translate(-32.8)"/><path class="cls-6" d="M159.54,184.06c.81,2.8,1.66,3.92,2.81,4.68a4,4,0,0,0,3.36.35A3.59,3.59,0,0,0,168.2,187c.59-1.2.41-3.38-.29-5.81-.86-3-2.16-7.49-3.11-10.49,0-.07-.11-.09-.18-.07l-2.67.62c-.29-1-.57-2.11-.86-3.11l5-1.38,4.49-1.24c.29,1,.6,2.07.86,3.11l-1.74.6,2.79,10.1c1.28,4.43.72,7.56-.32,9.32s-2.56,3.41-6.06,4.38c-3.32.92-5.84.93-8.2-.21-2.7-1.33-4.08-4.13-4.87-6.86l-3.19-11.06c0-.11-.1-.21-.25-.17l-1.68.38c-.3-1-.61-2.1-.86-3.11l5.2-1.44,5.84-1.61c.28,1,.61,2.1.87,3.14l-2.54.78Z" transform="translate(-32.8)"/><path class="cls-6" d="M185.54,183.77c.11,0,.13-.12.1-.23l-1.58-5.49c-2.42-2.32-7.13-7.23-9.68-9.87,0-.07-.18-.19-.25-.17l-1.53.34c-.3-1-.63-2.17-.87-3.14l4.75-1.31,6.67-1.84c.28,1,.57,2.11.83,3.15l-2.23.74c1.92,2.42,4.15,5.07,6,7.15l.19-.05a77,77,0,0,0,1.51-9c0-.08-.08-.14-.17-.15l-2.06.49c-.3-1-.58-2.15-.84-3.19l5.32-1.47,3.39-.94c.29,1,.62,2.14.84,3.19l-1.64.53c-.88,3.43-2.58,9.83-3.78,13.7l1.57,5.74,2.83-.62c.29,1,.61,2.1.88,3.18-1.62.45-3.93,1-5.89,1.59-1.81.5-4,1.14-5.79,1.64-.3-1-.62-2.14-.88-3.18Z" transform="translate(-32.8)"/><ellipse class="cls-7" cx="6.52" cy="255.27" rx="6.02" ry="5.89"/><path class="cls-7" d="M378.13,177.23a8.28,8.28,0,0,0-5.81,2.35,7.92,7.92,0,0,0-2.41,5.68h0a7.92,7.92,0,0,0-2.41-5.68,8.28,8.28,0,0,0-5.81-2.35h0a8.28,8.28,0,0,0,5.81-2.35,7.92,7.92,0,0,0,2.41-5.68h0a7.92,7.92,0,0,0,2.41,5.68,8.28,8.28,0,0,0,5.81,2.35Z" transform="translate(-32.8)"/><path class="cls-7" d="M332.24,144.81a9.47,9.47,0,0,0-6.64,2.69,9.06,9.06,0,0,0-2.75,6.5h0a9.06,9.06,0,0,0-2.75-6.5,9.47,9.47,0,0,0-6.64-2.69h0a9.47,9.47,0,0,0,6.64-2.69,9.06,9.06,0,0,0,2.75-6.5h0a9.06,9.06,0,0,0,2.75,6.5,9.47,9.47,0,0,0,6.64,2.69Z" transform="translate(-32.8)"/><path class="cls-7" d="M56.16,191.73a9.47,9.47,0,0,0-6.64,2.69,9.06,9.06,0,0,0-2.75,6.5h0a9.06,9.06,0,0,0-2.75-6.5,9.47,9.47,0,0,0-6.64-2.69h0A9.47,9.47,0,0,0,44,189a9.06,9.06,0,0,0,2.75-6.5h0a9.06,9.06,0,0,0,2.75,6.5,9.47,9.47,0,0,0,6.64,2.69Z" transform="translate(-32.8)"/><path class="cls-7" d="M310.16,92.59s-8.25-1.74-9.37,3.68,3.8,7.81,7.55,8c14.36.56,21.31,6.59,21.31,6.59s-.64-17.1-9.52-24C311.53,80.21,306.2,88.48,310.16,92.59Z" transform="translate(-32.8)"/><path class="cls-8" d="M217.43.5S241.52,44.78,304,70" transform="translate(-32.8)"/><path class="cls-8" d="M276.58,66.41s9,16.54,32.34,26" transform="translate(-32.8)"/><rect class="cls-4" x="74.51" y="146.17" width="164.78" height="145.86" rx="0.5" ry="0.5"/><path class="cls-9" d="M271.59,146.67V291.52H107.81V146.67H271.59m0-1H107.81a1,1,0,0,0-1,1V291.52a1,1,0,0,0,1,1H271.59a1,1,0,0,0,1-1V146.67a1,1,0,0,0-1-1Z" transform="translate(-32.8)"/><polygon class="cls-10" points="75.01 146.13 54.56 189.45 54.56 317.19 78.04 294.71 75.01 146.13"/><polygon class="cls-10" points="238.79 146.13 259.23 189.45 259.23 317.19 235.76 294.71 238.79 146.13"/><rect class="cls-11" x="54.06" y="188.95" width="205.67" height="128.74"/><path class="cls-9" d="M292,189.45V317.19H87.36V189.45H292m1-1H86.36V318.19H293V188.45Z" transform="translate(-32.8)"/><path class="cls-12" d="M292,189.45l21.42,24.1-29-51.65-12.57-15.64a.08.08,0,0,0-.14.09Z" transform="translate(-32.8)"/><polygon class="cls-6" points="259.23 189.45 54.56 317.19 259.23 317.19 259.23 189.45"/><polygon class="cls-13" points="273.12 227.2 43.26 227.2 54.56 188.58 259.23 188.58 273.12 227.2"/><path class="cls-14" d="M111,273.82a6.86,6.86,0,0,1,.49-2.42,9.75,9.75,0,0,1,1.35-2.44,8.12,8.12,0,0,1,2-1.88,4.19,4.19,0,0,1,2.36-.75h5.58a2.61,2.61,0,0,1,.85.16,3.49,3.49,0,0,1,.85.44,2.87,2.87,0,0,1,.67.65,1.29,1.29,0,0,1,.28.77,1.5,1.5,0,0,1-.12.71c-.08.13-.3.2-.67.2a2.44,2.44,0,0,1-.51-.06c-.19,0-.25-.22-.2-.53a3.9,3.9,0,0,0-1.9-.85,19,19,0,0,0-2-.1h-1l-.55.06-.4,0a6.85,6.85,0,0,0-1.72.79,8.23,8.23,0,0,0-1.62,1.33,6.8,6.8,0,0,0-1.19,1.7,4.24,4.24,0,0,0-.46,1.88.92.92,0,0,0,.38.79,2.39,2.39,0,0,0,.91.4,6,6,0,0,0,1.09.14l.91,0a7.77,7.77,0,0,0,2.4-.38q1.17-.37,2.28-.83t2.24-.83a7.3,7.3,0,0,1,2.32-.38c.34,0,.55.07.61.22a1.8,1.8,0,0,1,.1.69v.59a35.31,35.31,0,0,1-5.07,2.16,17,17,0,0,1-5.35.81q-1,0-1.86-.08a4.55,4.55,0,0,1-1.54-.4,2.51,2.51,0,0,1-1.07-.93A3.07,3.07,0,0,1,111,273.82Z" transform="translate(-32.8)"/><path class="cls-14" d="M129.55,275.2c0-.08,0-.22,0-.44v-1.62a7.92,7.92,0,0,1,.5-2.87,6.58,6.58,0,0,1,1.39-2.22,6.16,6.16,0,0,1,2.16-1.45,7.52,7.52,0,0,1,2.85-.51h.79a3.88,3.88,0,0,1,.85.06,1.92,1.92,0,0,1,.46.2,1.43,1.43,0,0,1,.4.34,9.46,9.46,0,0,0-2.55.28,7.71,7.71,0,0,0-2.36,1,5.69,5.69,0,0,0-1.74,1.76,4.65,4.65,0,0,0-.67,2.53,4,4,0,0,0,.26,1.58,1.83,1.83,0,0,0,.77.89,3.09,3.09,0,0,0,1.21.38,14.08,14.08,0,0,0,1.6.08,7.82,7.82,0,0,0,2.08-.36,11.28,11.28,0,0,0,2.42-1,8.71,8.71,0,0,0,2-1.5,2.64,2.64,0,0,0,.83-1.88,1.81,1.81,0,0,0-.16-.77,4.67,4.67,0,0,0-.38-.65,4.12,4.12,0,0,1-.38-.67,2.14,2.14,0,0,1-.16-.87,2.65,2.65,0,0,1,2.38,1.13,4.77,4.77,0,0,1-.2,5.42,7.81,7.81,0,0,1-2.38,2,11.62,11.62,0,0,1-3.07,1.17,13.5,13.5,0,0,1-3,.38q-.95,0-1.8,0a6.59,6.59,0,0,1-1.58-.26,4.27,4.27,0,0,1-1.37-.69A4,4,0,0,1,129.55,275.2Z" transform="translate(-32.8)"/><path class="cls-14" d="M148.48,273.46v-.51a1.56,1.56,0,0,1,0-.48q.24-1.86.55-3.88t.73-4.08q.41-2.06,1-4.06t1.23-3.82a7.87,7.87,0,0,1,.57-.61,7.51,7.51,0,0,1,.61-.57l.14,0,.14,0v2.14l-.89,3.82q-.46,2-.85,4t-.63,4.06a34.78,34.78,0,0,0-.24,4v.24c0,.16.08.44.16.83l.24,1.23q.16.67.28,1.25a8.35,8.35,0,0,0,.2.81,3.53,3.53,0,0,0,.79.71c.34.24.67.48,1,.73a5.42,5.42,0,0,1,.83.81,1.42,1.42,0,0,1,.36.91v.48c0,.29-.11.44-.32.44h-2.06l-2.93-2.93a2.51,2.51,0,0,1-.16-.55L149,277.1c-.08-.45-.17-.92-.26-1.41a11.76,11.76,0,0,1-.18-1.21,1.12,1.12,0,0,1,0-.44Z" transform="translate(-32.8)"/><path class="cls-14" d="M159.6,273.46v-.51a1.56,1.56,0,0,1,0-.48q.24-1.86.55-3.88t.73-4.08q.41-2.06,1-4.06t1.23-3.82a7.87,7.87,0,0,1,.57-.61,7.51,7.51,0,0,1,.61-.57l.14,0,.14,0v2.14l-.89,3.82q-.46,2-.85,4t-.63,4.06a34.78,34.78,0,0,0-.24,4v.24c0,.16.08.44.16.83l.24,1.23q.16.67.28,1.25a8.35,8.35,0,0,0,.2.81,3.53,3.53,0,0,0,.79.71c.34.24.67.48,1,.73a5.42,5.42,0,0,1,.83.81,1.42,1.42,0,0,1,.36.91v.48c0,.29-.11.44-.32.44h-2.06l-2.93-2.93a2.51,2.51,0,0,1-.16-.55l-.28-1.23c-.08-.45-.17-.92-.26-1.41a11.76,11.76,0,0,1-.18-1.21,1.12,1.12,0,0,1,0-.44Z" transform="translate(-32.8)"/><path class="cls-14" d="M169.54,276a4.26,4.26,0,0,0,0-.44v-1.74q0-4.32,2.46-6.36a10.16,10.16,0,0,1,6.69-2l.83,0a5.73,5.73,0,0,1,1,0,5.08,5.08,0,0,1,.91.2,2.54,2.54,0,0,1,.79.42q.16.12.42.36l.5.48.4.4a.82.82,0,0,1,.16.24v2.61a1.07,1.07,0,0,1-.51.79,6.55,6.55,0,0,1-1.31.75,15.67,15.67,0,0,1-1.74.65q-1,.3-1.84.53t-1.58.38a5.87,5.87,0,0,1-.93.14l-.79,0-1.17,0-1.17-.06h-.75a1.92,1.92,0,0,1-.1.55,2.63,2.63,0,0,0-.12.63,1.33,1.33,0,0,0,.08.57.69.69,0,0,0,.5.38h.44l.67.06.67,0h1l.69,0,.61-.06h.32q.28,0,1-.22t1.52-.42q.79-.24,1.48-.48t1-.36H182a.78.78,0,0,1,.59.18,1,1,0,0,1,.16.63,1.09,1.09,0,0,1-.53.85,6.16,6.16,0,0,1-1.37.73,16.59,16.59,0,0,1-1.84.61q-1,.28-2,.46t-1.76.28a10.89,10.89,0,0,1-1.21.1h-1.35a4.74,4.74,0,0,1-1.23-.16,3.3,3.3,0,0,1-1.11-.53A2.64,2.64,0,0,1,169.54,276Zm2.34-4.4a2.89,2.89,0,0,0,.71.16l.75.16h.16a9.47,9.47,0,0,0,1.86-.22q1.07-.22,2.16-.55t2.08-.69l1.66-.59a2.93,2.93,0,0,0,.46-.55,1.25,1.25,0,0,0,.14-.63,1.11,1.11,0,0,0-.42-.87,2.77,2.77,0,0,0-1-.53,6.61,6.61,0,0,0-1.17-.26,8,8,0,0,0-1-.08,7.78,7.78,0,0,0-2,.3,8.48,8.48,0,0,0-2.12.89,6.25,6.25,0,0,0-1.7,1.45,3,3,0,0,0-.69,1.92Z" transform="translate(-32.8)"/><path class="cls-14" d="M186.45,273.82a6.86,6.86,0,0,1,.49-2.42,9.75,9.75,0,0,1,1.35-2.44,8.12,8.12,0,0,1,2-1.88,4.19,4.19,0,0,1,2.36-.75h5.58a2.61,2.61,0,0,1,.85.16,3.49,3.49,0,0,1,.85.44,2.87,2.87,0,0,1,.67.65,1.29,1.29,0,0,1,.28.77,1.5,1.5,0,0,1-.12.71c-.08.13-.3.2-.67.2a2.44,2.44,0,0,1-.51-.06c-.19,0-.25-.22-.2-.53a3.9,3.9,0,0,0-1.9-.85,19,19,0,0,0-2-.1h-1l-.55.06-.4,0a6.85,6.85,0,0,0-1.72.79,8.23,8.23,0,0,0-1.62,1.33,6.8,6.8,0,0,0-1.19,1.7,4.24,4.24,0,0,0-.46,1.88.92.92,0,0,0,.38.79,2.39,2.39,0,0,0,.91.4,6,6,0,0,0,1.09.14l.91,0a7.77,7.77,0,0,0,2.4-.38q1.17-.37,2.28-.83t2.24-.83a7.3,7.3,0,0,1,2.32-.38c.34,0,.55.07.61.22a1.8,1.8,0,0,1,.1.69v.59a35.31,35.31,0,0,1-5.07,2.16,17,17,0,0,1-5.35.81q-1,0-1.86-.08a4.55,4.55,0,0,1-1.54-.4,2.51,2.51,0,0,1-1.07-.93A3.07,3.07,0,0,1,186.45,273.82Z" transform="translate(-32.8)"/><path class="cls-14" d="M209.42,274a7.91,7.91,0,0,1,.26-2,7.75,7.75,0,0,0,.26-2l-.4,0-.59-.08a4.19,4.19,0,0,1-.59,0H208a2.55,2.55,0,0,0-.44.1l-.73.2-.73.2a2.48,2.48,0,0,1-.44.1h-.28a3.35,3.35,0,0,1-.57,0,2.52,2.52,0,0,1-.61-.24l.32-.32,6.42-1.74c0-.05.07-.15.12-.3l.16-.46a3.21,3.21,0,0,1,.18-.44l.14-.28.61-1.13q.38-.69.75-1.35l.65-1.15a2,2,0,0,1,.32-.5l.83-.4-1.7,5.11v.55a11.2,11.2,0,0,0,2.08-.34,8,8,0,0,1,2-.26l.61,0a2.29,2.29,0,0,1,.61,0,.89.89,0,0,1,.46.24.79.79,0,0,1,.18.57.89.89,0,0,1,0,.22c0,.09-.05.14-.08.14l-6.46.87-.4,1.58q-.12.67-.28,1.35l-.2,1.19v.59a1.75,1.75,0,0,0,.24,1,1.52,1.52,0,0,0,.63.51,2.51,2.51,0,0,0,1,.2l1.15,0h.28l5.54-2.06h.44a.93.93,0,0,1,.61.16.84.84,0,0,1,.18.63,1.76,1.76,0,0,1-1,1.42,9.69,9.69,0,0,1-2.2,1.07,16,16,0,0,1-2.46.65,11.17,11.17,0,0,1-1.72.22,13.33,13.33,0,0,1-2-.14,3.64,3.64,0,0,1-1.48-.53,2.49,2.49,0,0,1-.91-1.15A5,5,0,0,1,209.42,274Z" transform="translate(-32.8)"/><path class="cls-14" d="M224.35,257.07a3.5,3.5,0,0,1,1.13.16,4.92,4.92,0,0,1,1,.52l1,.69,1.52,1q.79.56,1.46,1.07l1,.71v.28a2.59,2.59,0,0,1,0,.32c0,.45-.07.71-.2.79a1.88,1.88,0,0,1-.83.12,4,4,0,0,1-1.9-.59,10.52,10.52,0,0,1-2-1.45,9.82,9.82,0,0,1-1.58-1.84A3.37,3.37,0,0,1,224.35,257.07Zm5.39,8.28a3.51,3.51,0,0,1,.51.06q.36.06.36.26v13.78a.47.47,0,0,1-.44.53,5.43,5.43,0,0,1-.71.06h-.2a.62.62,0,0,1-.28,0,.78.78,0,0,1-.3-.1.26.26,0,0,1-.14-.24V266.85a2,2,0,0,1,.26-1.11A1,1,0,0,1,229.73,265.34Z" transform="translate(-32.8)"/><path class="cls-14" d="M235.83,275.2c0-.08,0-.22,0-.44v-1.62a7.92,7.92,0,0,1,.5-2.87,6.58,6.58,0,0,1,1.39-2.22,6.16,6.16,0,0,1,2.16-1.45,7.52,7.52,0,0,1,2.85-.51h.79a3.88,3.88,0,0,1,.85.06,1.92,1.92,0,0,1,.46.2,1.43,1.43,0,0,1,.4.34,9.46,9.46,0,0,0-2.55.28,7.71,7.71,0,0,0-2.36,1,5.69,5.69,0,0,0-1.74,1.76,4.65,4.65,0,0,0-.67,2.53,4,4,0,0,0,.26,1.58,1.83,1.83,0,0,0,.77.89,3.09,3.09,0,0,0,1.21.38,14.08,14.08,0,0,0,1.6.08,7.82,7.82,0,0,0,2.08-.36,11.28,11.28,0,0,0,2.42-1,8.71,8.71,0,0,0,2-1.5,2.64,2.64,0,0,0,.83-1.88,1.81,1.81,0,0,0-.16-.77,4.67,4.67,0,0,0-.38-.65,4.12,4.12,0,0,1-.38-.67,2.14,2.14,0,0,1-.16-.87,2.65,2.65,0,0,1,2.38,1.13,4.77,4.77,0,0,1-.2,5.42,7.81,7.81,0,0,1-2.38,2,11.62,11.62,0,0,1-3.07,1.17,13.5,13.5,0,0,1-3,.38q-.95,0-1.8,0a6.59,6.59,0,0,1-1.58-.26,4.27,4.27,0,0,1-1.37-.69A4,4,0,0,1,235.83,275.2Z" transform="translate(-32.8)"/><path class="cls-14" d="M253.88,265.14a5.53,5.53,0,0,1,1.31,1.64,5,5,0,0,0,1.31,1.6,11.43,11.43,0,0,1,2.34-1.45,18.8,18.8,0,0,1,2.73-1,19.88,19.88,0,0,1,2.89-.61,20.77,20.77,0,0,1,2.77-.2h1.07a6.09,6.09,0,0,0,.67,0h.44q.59.52.93.85a3.8,3.8,0,0,1,.53.65,1.9,1.9,0,0,1,.26.75,8.58,8.58,0,0,1,.06,1.11,5.22,5.22,0,0,1-.44,2.16,8.17,8.17,0,0,1-1.11,1.8,15.48,15.48,0,0,1-1.5,1.6q-.83.77-1.66,1.64a1.7,1.7,0,0,1-.42.69,1.25,1.25,0,0,1-.77.18q-1.19,0-1.19-1.35a2.13,2.13,0,0,1,.83-1.66,21.72,21.72,0,0,1,1.84-1.41,13.79,13.79,0,0,0,1.84-1.5,2.68,2.68,0,0,0,.83-2,2,2,0,0,0-.22-1,2.44,2.44,0,0,0-.69-.75l-.38,0-.57-.06h-1a12.56,12.56,0,0,0-4.47.79,36.78,36.78,0,0,0-4.2,1.9l-.4.32a.53.53,0,0,0-.2.44v.08a0,0,0,0,0,0,0,14.4,14.4,0,0,0,.71,1.52q.4.73.75,1.49a12.89,12.89,0,0,1,.61,1.54,5.37,5.37,0,0,1,.26,1.66,2.77,2.77,0,0,1-.1.91c-.07.16-.32.24-.77.24h-.32a.66.66,0,0,1-.28,0,19.87,19.87,0,0,1-1.45-2.81q-.65-1.54-1.21-3.15t-1-3.23q-.44-1.62-.75-3.09Z" transform="translate(-32.8)"/><polygon class="cls-15" points="54.46 190.03 34.61 213.56 63.57 161.9 74.76 146.66 54.46 190.03"/></g></g></svg>