<svg xmlns="http://www.w3.org/2000/svg" width="18" height="10" viewBox="0 0 18 10">
  <defs>
    <style>
      .cls-1 {
        fill-rule: evenodd;
      }
    </style>
  </defs>
  <path id="形状_1.svg" data-name="形状 1.svg" class="cls-1" d="M149.515,184.85c0.023,0.012.043,0.03,0.067,0.04a1.15,1.15,0,0,0,1.3-.215l7.815-7.87a1.036,1.036,0,0,0-.044-1.513,1.164,1.164,0,0,0-1.588.043l-7.013,7.061-7.117-7.034a1.162,1.162,0,0,0-1.587-.027,1.034,1.034,0,0,0-.03,1.512l7.891,7.8c0.016,0.015.038,0.02,0.054,0.035s0.02,0.024.032,0.035a1.023,1.023,0,0,0,.224.134h0Z" transform="translate(-141 -175)"/>
</svg>
