<svg id="今天.svg" xmlns="http://www.w3.org/2000/svg" width="50" height="30" viewBox="0 0 50 30">
  <defs>
    <style>
      .cls-1 {
        fill: #fff;
      }

      .cls-2 {
        fill: #ff9500;
        fill-rule: evenodd;
      }
    </style>
  </defs>
  <rect id="圆角矩形_2_拷贝" data-name="圆角矩形 2 拷贝" class="cls-1" width="50" height="30" rx="15" ry="15"/>
  <path id="今天" class="cls-2" d="M237.75,179.088a18.449,18.449,0,0,1,4.122,2.556l0.54-.828a22.193,22.193,0,0,0-4.14-2.52Zm-4.176,4.446h11.394a12.239,12.239,0,0,1-6.642,5.688l0.648,0.828a12.608,12.608,0,0,0,7.128-6.678v-0.756H233.574v0.918Zm6.012-9.7a26.489,26.489,0,0,1-7.956,6.1l0.486,0.9a25.992,25.992,0,0,0,7.812-6.084,25.52,25.52,0,0,0,7.794,6.066l0.5-.9a25.867,25.867,0,0,1-7.956-6.084h-0.684Zm11.178,7.236h6.426a12.774,12.774,0,0,1-1.224,3.24,14.014,14.014,0,0,1-5.814,4.986l0.63,0.792a14.64,14.64,0,0,0,6.12-5.436,13.029,13.029,0,0,0,1.278-3.528,15.089,15.089,0,0,0,7.65,8.964l0.594-.792a14.518,14.518,0,0,1-7.326-8.226h6.8v-0.954H258.4a38.264,38.264,0,0,0,.5-4.464h6.462v-0.936H251.25v0.936h6.66a33.193,33.193,0,0,1-.522,4.464h-6.624v0.954Z" transform="translate(-224 -166.938)"/>
</svg>
