<svg xmlns="http://www.w3.org/2000/svg" width="28" height="28" viewBox="0 0 28 28">
  <defs>
    <style>
      .cls-1 {
        fill-rule: evenodd;
      }
    </style>
  </defs>
  <path id="删除.svg" class="cls-1" d="M708,238a1,1,0,0,1-1-1V226a1,1,0,0,1,2,0v11a1,1,0,0,1-1,1h0Zm-6,0a1,1,0,0,1-1-1V226a1,1,0,0,1,2,0v11a1,1,0,0,1-1,1h0Zm16-17h-5v-2a2.992,2.992,0,0,0-2.977-3H700a3,3,0,0,0-3,3v2h-5a1,1,0,0,0,0,2h26a1,1,0,0,0,0-2h0Zm-19-2a1,1,0,0,1,1-1h10.023a0.978,0.978,0,0,1,.977,1v2H699v-2h0Zm13,25H698a3,3,0,0,1-3-3V225.985a1,1,0,0,1,2,0V241a1,1,0,0,0,1,1h14a1,1,0,0,0,1-1V226.026a1,1,0,1,1,2,0V241a3,3,0,0,1-3,3h0Z" transform="translate(-691 -216)"/>
</svg>
