<svg xmlns="http://www.w3.org/2000/svg" width="24" height="25" viewBox="0 0 24 25">
  <defs>
    <style>
      .cls-1 {
        fill-rule: evenodd;
      }
    </style>
  </defs>
  <path id="分类图标.svg" class="cls-1" d="M1437.58,281a0.9,0.9,0,0,1-.46-0.126l-5.16-3.049a0.914,0.914,0,0,1-.45-0.789V269.7l-8.35-12.267a0.912,0.912,0,0,1-.05-0.942,0.891,0.891,0,0,1,.8-0.488h22.18a0.891,0.891,0,0,1,.8.488,0.912,0.912,0,0,1-.05.942l-8.35,12.267v10.388a0.915,0.915,0,0,1-.45.794A0.947,0.947,0,0,1,1437.58,281Zm-4.25-4.487,3.34,1.973v-9.072a0.943,0.943,0,0,1,.16-0.515l7.53-11.07h-18.72l7.53,11.07a0.943,0.943,0,0,1,.16.515v7.1Z" transform="translate(-1423 -256)"/>
</svg>
