<svg xmlns="http://www.w3.org/2000/svg" width="39.812" height="39.812" viewBox="0 0 39.812 39.812">
  <defs>
    <style>
      .cls-1 {
        fill: #fff;
        fill-rule: evenodd;
      }
    </style>
  </defs>
  <path id="卖钻.svg" class="cls-1" d="M556.639,750.053a5.855,5.855,0,0,0-5.849-5.848H522.649a5.854,5.854,0,0,0-5.848,5.848v14.9a2.533,2.533,0,0,1,0,3.311v9.932a5.855,5.855,0,0,0,5.848,5.849H550.79a5.856,5.856,0,0,0,5.849-5.849v-9.932a2.533,2.533,0,0,1,0-3.311v-14.9ZM554.1,774H519.338a0.774,0.774,0,0,1-.773-0.774v-4.966a0.774,0.774,0,0,1,.773-0.773h5.2a12.46,12.46,0,0,0-.282,2.374h-0.777a0.882,0.882,0,0,0,0,1.764h3.31a0.882,0.882,0,1,0,0-1.764h-0.769a10.665,10.665,0,0,1,.339-2.374h20.726a10.573,10.573,0,0,1,.338,2.374h-0.769a0.882,0.882,0,1,0,0,1.764h3.311a0.882,0.882,0,0,0,0-1.764h-0.777a12.542,12.542,0,0,0-.283-2.374h5.2a0.774,0.774,0,0,1,.774.773v4.966A0.775,0.775,0,0,1,554.1,774ZM536.72,763.21a2.92,2.92,0,0,0,2.078-.861l2.063-2.064a10.7,10.7,0,0,1,5.594,5.44H526.984a10.7,10.7,0,0,1,5.594-5.439l2.064,2.063A2.92,2.92,0,0,0,536.72,763.21Zm0.882-2.16v-3.81a6.6,6.6,0,0,0,3.7-1.761l0.1,0.1a1.176,1.176,0,0,1,0,1.662Zm-4.215-6.819,0.445-.445a4.085,4.085,0,0,1,5.776,0l0.445,0.445A4.917,4.917,0,0,1,533.387,754.231Zm-1.7,2.184a1.167,1.167,0,0,1,.345-0.83l0.105-.105a6.6,6.6,0,0,0,3.7,1.76v3.81l-3.8-3.8A1.168,1.168,0,0,1,531.689,756.415Zm22.412,9.31h-5.723a12.516,12.516,0,0,0-6.185-6.772l0.46-.459a2.939,2.939,0,0,0,0-4.157l-1.8-1.8a5.848,5.848,0,0,0-8.271,0l-1.8,1.8a2.939,2.939,0,0,0,0,4.157l0.46,0.459a12.516,12.516,0,0,0-6.185,6.772h-5.723a0.774,0.774,0,0,1-.773-0.774v-14.9a4.089,4.089,0,0,1,4.084-4.084H550.79a4.089,4.089,0,0,1,4.085,4.084v14.9A0.775,0.775,0,0,1,554.1,765.725Zm0.774,9.92v2.549a4.09,4.09,0,0,1-4.085,4.085H522.649a4.089,4.089,0,0,1-4.084-4.085v-2.549a2.523,2.523,0,0,0,.773.121H554.1A2.535,2.535,0,0,0,554.875,775.645Z" transform="translate(-516.813 -744.219)"/>
</svg>
