<svg xmlns="http://www.w3.org/2000/svg" width="31" height="28" viewBox="0 0 31 28">
  <defs>
    <style>
      .cls-1 {
        fill: #ff9500;
        fill-rule: evenodd;
      }
    </style>
  </defs>
  <path id="liebiao.svg" class="cls-1" d="M1419.64,257h-5.51a4.114,4.114,0,0,0-4.13,4.1v4.78a4.114,4.114,0,0,0,4.13,4.1h5.51a4.116,4.116,0,0,0,4.14-4.1V261.1a4.116,4.116,0,0,0-4.14-4.1h0Zm2.07,9.562a1.374,1.374,0,0,1-1.38,1.365h-6.89a1.366,1.366,0,0,1-1.37-1.365v-6.147a1.365,1.365,0,0,1,1.37-1.366h6.89a1.374,1.374,0,0,1,1.38,1.366v6.147h0Zm-2.07,5.463h-5.51a4.115,4.115,0,0,0-4.13,4.1v4.78a4.113,4.113,0,0,0,4.13,4.1h5.51a4.116,4.116,0,0,0,4.14-4.1v-4.78a4.117,4.117,0,0,0-4.14-4.1h0Zm2.07,9.56a1.375,1.375,0,0,1-1.38,1.367h-6.89a1.366,1.366,0,0,1-1.37-1.367V275.44a1.365,1.365,0,0,1,1.37-1.366h6.89a1.374,1.374,0,0,1,1.38,1.366v6.145h0Zm18.6-20.487h-13.09a0.688,0.688,0,0,1-.69-0.684v-0.682a0.687,0.687,0,0,1,.69-0.683h13.09a0.687,0.687,0,0,1,.69.683v0.682a0.688,0.688,0,0,1-.69.684h0Zm0,6.829h-13.09a0.687,0.687,0,0,1-.69-0.682v-0.684a0.687,0.687,0,0,1,.69-0.683h13.09a0.687,0.687,0,0,1,.69.683v0.684a0.687,0.687,0,0,1-.69.682h0Zm0,7.512h-13.09a0.687,0.687,0,0,1-.69-0.683v-0.682a0.687,0.687,0,0,1,.69-0.683h13.09a0.687,0.687,0,0,1,.69.683v0.682a0.687,0.687,0,0,1-.69.683h0Zm0,6.829h-13.09a0.687,0.687,0,0,1-.69-0.683V280.9a0.687,0.687,0,0,1,.69-0.683h13.09a0.687,0.687,0,0,1,.69.683v0.681a0.687,0.687,0,0,1-.69.683h0Z" transform="translate(-1410 -257)"/>
</svg>
