<svg xmlns="http://www.w3.org/2000/svg" width="30.156" height="30.188" viewBox="0 0 30.156 30.188">
  <defs>
    <style>
      .cls-1 {
        fill: #fff;
        fill-rule: evenodd;
      }
    </style>
  </defs>
  <path id="关闭.svg" class="cls-1" d="M698.641,793.681a15.088,15.088,0,1,1,15.087-15.087A15.087,15.087,0,0,1,698.641,793.681Zm0-28.289a13.217,13.217,0,1,0,13.2,13.2A13.217,13.217,0,0,0,698.641,765.392Zm5.333,18.536a0.943,0.943,0,0,1-1.333,0l-4-4-4,4a0.943,0.943,0,0,1-1.334-1.334l4-4-4-4a0.943,0.943,0,1,1,1.334-1.334l4,4,4-4a0.943,0.943,0,1,1,1.333,1.334l-4,4,4,4A0.942,0.942,0,0,1,703.974,783.928Z" transform="translate(-683.563 -763.5)"/>
</svg>
