<svg xmlns="http://www.w3.org/2000/svg" width="24.437" height="22" viewBox="0 0 24.437 22">
  <defs>
    <style>
      .cls-1 {
        fill: #ff9500;
        fill-rule: evenodd;
      }
    </style>
  </defs>
  <path id="zuanshi-cheng.svg" class="cls-1" d="M193.487,1022.85l-5.532-6.56a0.664,0.664,0,0,0-.519-0.25h-12a0.667,0.667,0,0,0-.519.25l-5.532,6.56a0.684,0.684,0,0,0-.1.72l-0.02.01,12.171,14.45,12.053-14.31,0.117-.14-0.018-.01A0.684,0.684,0,0,0,193.487,1022.85Zm-6.88-.24-3.83-5.21h4.344l4.387,5.21h-4.9Zm4.9,1.35-8.2,9.74,3.432-9.74h4.765Zm-6.2,0-3.87,10.98-3.869-10.98H185.3Zm-7.356-1.35,3.486-4.74,3.487,4.74h-6.973Zm-6.588,1.35h4.765l3.432,9.74Zm0-1.35,4.388-5.21h4.343l-3.83,5.21h-4.9Z" transform="translate(-169.219 -1016.03)"/>
</svg>
