<svg xmlns="http://www.w3.org/2000/svg" width="29.03" height="25.844" viewBox="0 0 29.03 25.844">
  <defs>
    <style>
      .cls-1 {
        fill: #333;
        fill-rule: evenodd;
      }
    </style>
  </defs>
  <path id="wancheng-b.svg" class="cls-1" d="M1462.7,174.216h-3.01c0.06-.04.13-0.079,0.19-0.119a5.414,5.414,0,0,0,2.59-2.656,2.13,2.13,0,0,0-1.26-2.5,6.128,6.128,0,0,0-4.59-.39,16.684,16.684,0,0,0-3.93,1.577c-0.73.393-1.42,0.813-2.05,1.234q-0.225.153-.42,0.29c-0.23-.2-0.45-0.4-0.69-0.587a11.739,11.739,0,0,0-5.79-2.893,5.349,5.349,0,0,0-4.19,1.2l-0.09.085-0.12.137c-1.24,1.553-.67,3.175.89,4.615h-1.96a2.285,2.285,0,0,0-2.29,2.287v2.533a2.291,2.291,0,0,0,1.14,1.98v9.939a3.049,3.049,0,0,0,3.06,3.043h20.61a3.041,3.041,0,0,0,3.05-3.043v-9.938a2.277,2.277,0,0,0,1.15-1.981V176.5A2.293,2.293,0,0,0,1462.7,174.216Zm-11.21-1.587c0.59-.395,1.24-0.791,1.93-1.159a14.878,14.878,0,0,1,3.56-1.436,4.67,4.67,0,0,1,3.46.227c0.54,0.307.64,0.512,0.57,0.749a4.534,4.534,0,0,1-1.93,1.793c-0.48.3-1.01,0.578-1.53,0.832-0.31.151-.55,0.26-0.68,0.315a0.752,0.752,0,0,0-.33.266h-3.94a0.8,0.8,0,0,0-.15-0.28c-0.04-.049-0.11-0.137-0.22-0.256-0.17-.2-0.37-0.415-0.59-0.649l-0.3-.3Q1451.415,172.68,1451.49,172.629Zm-1.9,6.913v-3.8h1.79v3.8h-1.79Zm1.79,1.781v11.153h-1.79V181.323h1.79Zm-10.84-10.775,0.03-.037a3.815,3.815,0,0,1,2.98-.825,10.427,10.427,0,0,1,5.01,2.555,22.74,22.74,0,0,1,1.97,1.838,1.81,1.81,0,0,1,.13.137h-7.87c-0.04-.026-0.07-0.05-0.11-0.071-0.07-.04-0.21-0.124-0.39-0.245a7.8,7.8,0,0,1-.9-0.686C1440.25,172.208,1439.91,171.33,1440.54,170.548Zm-2.65,8.994a0.7,0.7,0,0,0-.17.02,0.765,0.765,0,0,1-.21-0.526V176.5a0.761,0.761,0,0,1,.76-0.765h10.12v3.8h-10.5Zm2.29,12.934a1.52,1.52,0,0,1-1.53-1.521v-9.632h9.74v11.153h-8.21Zm22.14-1.521a1.52,1.52,0,0,1-1.53,1.521h-8.22V181.323h9.75v9.632Zm1.14-11.919a0.762,0.762,0,0,1-.21.526,0.7,0.7,0,0,0-.17-0.02h-10.51v-3.8h10.13a0.763,0.763,0,0,1,.76.765v2.533Z" transform="translate(-1435.97 -168.156)"/>
</svg>
