<svg xmlns="http://www.w3.org/2000/svg" width="26" height="26" viewBox="0 0 26 26">
  <defs>
    <style>
      .cls-1 {
        fill: #ff9500;
        fill-rule: evenodd;
      }
    </style>
  </defs>
  <path id="DP.SVG" class="cls-1" d="M34.767,1002.97a0.882,0.882,0,0,0-1.225,0,0.872,0.872,0,0,0,0,1.23l1.225,1.23a0.882,0.882,0,0,0,1.226,0,0.872,0.872,0,0,0,0-1.23l-1.226-1.23h0Zm16.467,0-1.226,1.23a0.872,0.872,0,0,0,0,1.23,0.882,0.882,0,0,0,1.226,0l1.225-1.23a0.872,0.872,0,0,0,0-1.23,0.882,0.882,0,0,0-1.225,0h0ZM32.6,1009.83H30.867a0.87,0.87,0,0,0,0,1.74H32.6a0.87,0.87,0,0,0,0-1.74h0Zm22.533,0H53.4a0.87,0.87,0,0,0,0,1.74h1.733a0.87,0.87,0,0,0,0-1.74h0Zm-13-9.964v1.734a0.867,0.867,0,1,0,1.733,0v-1.734a0.867,0.867,0,0,0-1.733,0h0ZM36.933,1012A6.067,6.067,0,1,1,43,1018.07a6.07,6.07,0,0,1-6.066-6.07h0Zm-1.733,0a7.8,7.8,0,1,0,7.8-7.8,7.8,7.8,0,0,0-7.8,7.8h0Zm6.066,12.13a0.869,0.869,0,0,0,.867.87h1.733a0.865,0.865,0,1,0,0-1.73H42.133a0.86,0.86,0,0,0-.867.86h0Zm-1.733-2.6a0.869,0.869,0,0,0,.867.87h5.2a0.865,0.865,0,1,0,0-1.73H40.4a0.86,0.86,0,0,0-.867.86h0Z" transform="translate(-30 -999)"/>
</svg>
