<svg xmlns="http://www.w3.org/2000/svg" width="32.063" height="39.968" viewBox="0 0 32.063 39.968">
  <defs>
    <style>
      .cls-1 {
        fill: #fff;
        fill-rule: evenodd;
      }
    </style>
  </defs>
  <path id="定制.svg" class="cls-1" d="M233.057,768.125a16.032,16.032,0,1,1-22.511-14.267l-2.21-4.419c-0.008-.018-0.015-0.036-0.022-0.054s-0.013-.029-0.019-0.043-0.018-.057-0.025-0.085c0-.009-0.005-0.017-0.007-0.026a0.865,0.865,0,0,1-.006-0.351s0,0,0-.007a0.934,0.934,0,0,1,.027-0.1,0.292,0.292,0,0,1,.013-0.034c0.009-.024.018-0.049,0.029-0.073s0.016-.029.024-0.044,0.015-.031.024-0.046a0.147,0.147,0,0,1,.01-0.013,0.083,0.083,0,0,1,.007-0.013l2.632-3.948a0.889,0.889,0,0,1,.741-0.4H222.3a0.889,0.889,0,0,1,.741.4l2.632,3.948,0.008,0.013,0.009,0.013c0.009,0.015.016,0.031,0.025,0.046s0.016,0.029.023,0.044,0.021,0.049.03,0.073,0.009,0.023.013,0.034a0.93,0.93,0,0,1,.026.1,0.019,0.019,0,0,0,0,.007,0.883,0.883,0,0,1-.007.351c0,0.009,0,.017-0.007.026a0.829,0.829,0,0,1-.025.085c0,0.014-.012.029-0.018,0.043s-0.014.036-.023,0.054l-2.21,4.419A15.834,15.834,0,0,1,233.057,768.125Zm-20.815-22.142-1.444,2.166h1.915l1.306-1.306,0.86-.86h-2.637Zm-1.667,3.948,1.741,3.483h1.956l-0.791-1.583-0.95-1.9h-1.956Zm3.948,0,0.791,1.583,0.951,1.9H217.8l1.741-3.483h-5.014Zm2.507-3.579-1.8,1.8h3.6Zm4.788-.369h-2.637l2.167,2.166h1.915Zm-0.289,3.948-0.609,1.219-1.132,2.264h1.956l1.742-3.483h-1.957Zm0.593,5.265H211.938A14.25,14.25,0,1,0,222.122,755.2ZM217.03,780.2a12.079,12.079,0,1,1,12.078-12.078A12.091,12.091,0,0,1,217.03,780.2Zm0-22.375a10.3,10.3,0,1,0,10.3,10.3A10.308,10.308,0,0,0,217.03,757.828Z" transform="translate(-201 -744.188)"/>
</svg>
