<svg xmlns="http://www.w3.org/2000/svg" width="26" height="26" viewBox="0 0 26 26">
  <defs>
    <style>
      .cls-1 {
        fill: #fff;
        fill-rule: evenodd;
      }
    </style>
  </defs>
  <path id="zuantuo-w.svg" class="cls-1" d="M1216.35,176.387c-1.54-3.194-5.83-4.076-9.47-3.745l-2.42-4.3h0a0.416,0.416,0,0,0-.22-0.22h0a0.4,0.4,0,0,0-.33-0.11h-7.81a0.4,0.4,0,0,0-.33.11h0a0.416,0.416,0,0,0-.22.22h0l-3.86,6.72h0a0.552,0.552,0,0,0,0,.661h0l2.32,4.077-0.11.11c-2.76,3.525-3.64,7.271-2.21,10.135a7,7,0,0,0,4.3,3.526,11.136,11.136,0,0,0,3.41.441,19.417,19.417,0,0,0,9.03-2.534C1214.81,187.955,1218.55,181.015,1216.35,176.387Zm-12.55,4.3-1.76-3.085a0.812,0.812,0,1,0-1.43.771l1.76,3.085h-4.95l1.76-3.085a0.812,0.812,0,1,0-1.43-.771l-1.76,3.085-2.53-4.3h3.52a0.771,0.771,0,0,0,0-1.542h-3.52l2.53-4.3,1.76,3.085a0.906,0.906,0,0,0,.66.441,0.661,0.661,0,0,0,.44-0.11,0.788,0.788,0,0,0,.33-1.1l-1.76-3.195h4.95l-1.76,3.085a0.763,0.763,0,0,0,.33,1.1,0.527,0.527,0,0,0,.44.111,0.6,0.6,0,0,0,.66-0.441l1.76-3.085,2.53,4.3h-3.52a0.771,0.771,0,0,0,0,1.542h3.41Zm3.31,9.695c-3.86,2.2-8.04,2.864-11.01,1.983a5.432,5.432,0,0,1-3.31-2.644c-0.99-2.2-.33-5.178,1.77-8.042l0.66,1.211h0c0.11,0.111.11,0.221,0.22,0.331a0.531,0.531,0,0,0,.44.11h7.81a0.661,0.661,0,0,0,.44-0.11,0.582,0.582,0,0,0,.22-0.331h0l3.86-6.72h0a0.552,0.552,0,0,0,0-.661h0l-0.55-.881c3.41-.11,6.16.881,7.04,2.864C1216.79,180.9,1213.27,186.853,1207.11,190.379Z" transform="translate(-1191 -168)"/>
</svg>
