<svg xmlns="http://www.w3.org/2000/svg" width="44.281" height="39.718" viewBox="0 0 44.281 39.718">
  <defs>
    <style>
      .cls-1 {
        fill: #fff;
        fill-rule: evenodd;
      }
    </style>
  </defs>
  <path id="提钻.svg" class="cls-1" d="M397.872,752.264l-22.108,31.655-0.082-.118-22.067-31.6,0.043-.057,5.836-7.958h32.541l0.03,0.04,5.848,7.975ZM375.7,779.275l7.617-26.237H368.2Zm-2.074-1.282L366.5,753.038H356.2Zm-17.384-26.6h8.891l-5.129-5.129Zm5.647-5.565,5.276,5.276,6.33-5.276H361.891Zm7.492,5.565h12.762l-6.381-5.317Zm8.648-5.565,6.331,5.275,5.275-5.275H378.031Zm13.492,0.436-5.129,5.129h8.89Zm-6.494,6.771L377.7,778.279l17.628-25.241h-10.3Zm5.729,3.363h-4.524v-1.642h4.524V756.4Zm-30.468-1.642h4.524V756.4H360.29v-1.642Zm19.418,0V756.4H371.82v-1.642h7.888Z" transform="translate(-353.625 -744.188)"/>
</svg>
