<svg xmlns="http://www.w3.org/2000/svg" width="22" height="21" viewBox="0 0 22 21">
  <defs>
    <style>
      .cls-1 {
        fill-rule: evenodd;
      }
    </style>
  </defs>
  <path id="钻石.svg" class="cls-1" d="M51.783,529.265l-2.963-5.259A2.08,2.08,0,0,0,47.112,523H34.876a2.081,2.081,0,0,0-1.711,1l-2.942,5.181a1.93,1.93,0,0,0,.149,2.034l9.571,12.27a1.391,1.391,0,0,0,.3.243l0.029,0.1,0.062-.02a1.239,1.239,0,0,0,.63.193,1.224,1.224,0,0,0,.637-0.2l0.052,0.016,0.024-.079a1.313,1.313,0,0,0,.3-0.245L51.626,531.3a1.931,1.931,0,0,0,.157-2.033h0Zm-1.887-.392H46.32l1.57-3.557,2,3.557h0Zm-7.1-4.405h3.88L45.2,527.83l-2.4-3.362h0Zm-1.785,0,3.138,4.405H37.8l3.138-4.405h0.079Zm-4.259,3.362-1.486-3.362h3.881l-2.4,3.362h0Zm7.4,2.511-3.22,10.8-3.4-10.8h6.622Zm-10.085-5,1.558,3.527H32.067l2-3.527h0Zm-2.541,5h4.486l3.04,9.647-7.526-9.647h0Zm11.2,9.849,2.938-9.849h4.839a0.24,0.24,0,0,1-.011.038L42.73,540.19h0Z" transform="translate(-30 -523)"/>
</svg>
