<svg xmlns="http://www.w3.org/2000/svg" width="41.531" height="41.563" viewBox="0 0 41.531 41.563">
  <defs>
    <style>
      .cls-1 {
        fill: #ff9500;
        fill-rule: evenodd;
      }
    </style>
  </defs>
  <path id="编辑.svg" class="cls-1" d="M697.51,632.915a20.771,20.771,0,1,1-20.771,20.771A20.77,20.77,0,0,1,697.51,632.915Zm9.281,16.727-1.022,1.021-5.3-5.3,1.021-1.021a2.082,2.082,0,0,1,2.943,0l2.356,2.355A2.082,2.082,0,0,1,706.791,649.642Zm-5.985-2.464-9.682,9.682a0.774,0.774,0,0,1-1.094-1.094l9.682-9.681c0.026-.026.057-0.047,0.085-0.07l1.078,1.077A0.634,0.634,0,0,1,700.806,647.178Zm-7.679,13.587a1.238,1.238,0,0,0,1.106,1.326l-6.626,1.545,1.326-6.4a1.419,1.419,0,0,0,1.545.883S690.035,660.765,693.127,660.765Zm-1.378-1.406a1.435,1.435,0,0,1,0-2.03l9.68-9.681,2.031,2.03-9.682,9.681A1.433,1.433,0,0,1,691.749,659.359Zm2.478,0.605,9.68-9.682a0.8,0.8,0,0,1,.086-0.07l1.077,1.077a0.619,0.619,0,0,1-.07.085l-9.681,9.682A0.772,0.772,0,0,1,694.227,659.964Z" transform="translate(-676.75 -632.906)"/>
</svg>
