<svg xmlns="http://www.w3.org/2000/svg" width="43" height="43" viewBox="0 0 43 43"><defs><style>.cls-1,.cls-2{fill:#e5e5e5;}.cls-2,.cls-3{fill-rule:evenodd;}.cls-3{fill:#ff9500;}</style></defs><title>zuanshidingzhi</title><g id="图层_2" data-name="图层 2"><g id="图层_1-2" data-name="图层 1"><rect class="cls-1" x="8.79" y="1.02" width="4.1" height="28.67"/><polygon class="cls-2" points="21.59 29.69 21.59 41.63 41.15 41.63 41.89 39.42 41.89 29.69 21.59 29.69"/><polygon class="cls-3" points="23.85 14.04 26.71 17.62 29.48 17.62 31.1 14.04 28.64 11.82 26.02 11.82 23.85 14.04"/><path d="M41.93,28.71H39.75A20.9,20.9,0,0,0,34,25.85a6.74,6.74,0,0,0-3.88-8.14l2.18-3a1.07,1.07,0,0,0-.16-1.43l-2.28-2a1.07,1.07,0,0,0-.71-.27H26a1.07,1.07,0,0,0-.71.27l-2.28,2a1.07,1.07,0,0,0-.16,1.43l2.18,3a6.74,6.74,0,0,0-3.88,8.14,20.88,20.88,0,0,0-5.71,2.86H14.29V1.07A1.07,1.07,0,0,0,13.22,0H8.8A8.81,8.81,0,0,0,0,8.8V22.05a8.81,8.81,0,0,0,8.8,8.8h3.36v8.74A3.41,3.41,0,0,0,15.56,43h24A3.41,3.41,0,0,0,43,39.59V29.78a1.07,1.07,0,0,0-1.07-1.07ZM25.11,14.23l1.25-1.1h2.42L30,14.23l-2.14,3h-.64Zm2.46,5.1a4.61,4.61,0,0,1,4.4,6l-.74-.14a3.86,3.86,0,1,0-7.32,0l-.74.14a4.62,4.62,0,0,1,4.41-6Zm-1.44,5.56a1.71,1.71,0,0,1-.29-.95,1.73,1.73,0,0,1,3.45,0,1.71,1.71,0,0,1-.29.95,21.45,21.45,0,0,0-2.88,0ZM22.8,27.58a18.77,18.77,0,0,1,3-.52,19.3,19.3,0,0,1,3.59,0,18.88,18.88,0,0,1,6.15,1.66H19.64a18.75,18.75,0,0,1,3.17-1.13ZM2.13,22.05V8.8A6.67,6.67,0,0,1,8.8,2.13h3.36V28.71H8.8a6.67,6.67,0,0,1-6.66-6.66ZM40.87,39.59a1.28,1.28,0,0,1-1.28,1.28h-24a1.28,1.28,0,0,1-1.27-1.28V30.85H40.87Zm0,0"/><path d="M27.58,8.65a1.07,1.07,0,0,0,1.07-1.07V3.9a1.07,1.07,0,1,0-2.13,0V7.58a1.07,1.07,0,0,0,1.07,1.07Zm0,0"/><path d="M32.94,10.87a1.06,1.06,0,0,0,.75-.31L36.3,8a1.07,1.07,0,0,0-1.51-1.51L32.18,9a1.07,1.07,0,0,0,.76,1.82Zm0,0"/><path d="M21.46,10.56A1.07,1.07,0,1,0,23,9l-2.6-2.6A1.07,1.07,0,0,0,18.86,8Zm0,0"/></g></g></svg>