<svg xmlns="http://www.w3.org/2000/svg" width="30" height="26" viewBox="0 0 30 26">
  <defs>
    <style>
      .cls-1 {
        fill: #fff;
        fill-rule: evenodd;
      }
    </style>
  </defs>
  <path id="zuanshi-1.svg" class="cls-1" d="M967.791,176.047l-6.775-7.727a0.689,0.689,0,0,0-.677-0.327H945.66a0.991,0.991,0,0,0-.678.327l-6.775,7.727a0.8,0.8,0,0,0-.113.871h0L953,194.005l14.792-16.869,0.113-.218h0A0.847,0.847,0,0,0,967.791,176.047Zm-8.469-.217-4.742-6.2h5.307l5.42,6.2h-5.985Zm6.1,1.523L955.371,188.89l4.177-11.537h5.872Zm-7.678,0L953,190.305l-4.742-12.952h9.485Zm-9.034-1.523L953,170.17l4.291,5.66h-8.582Zm-8.017,1.523h5.872l4.178,11.537Zm0-1.523,5.42-6.2h5.307l-4.742,6.2h-5.985Z" transform="translate(-938 -168)"/>
</svg>
