<svg xmlns="http://www.w3.org/2000/svg" width="747" height="1" viewBox="0 0 747 1">
  <defs>
    <style>
      .cls-1 {
        fill: #e8e8e8;
        fill-rule: evenodd;
      }
    </style>
  </defs>
  <path id="虚线.svg" class="cls-1" d="M736,774v-1h11v1H736Zm-18.872-1h11v1h-11v-1Zm-18.872,0h11v1h-11v-1Zm-18.871,0h11v1h-11v-1Zm-18.872,0h11v1h-11v-1Zm-18.872,0h11v1h-11v-1Zm-18.872,0h11v1h-11v-1ZM603.9,773h11v1h-11v-1Zm-18.871,0h11v1h-11v-1Zm-18.872,0h11v1h-11v-1Zm-18.872,0h11v1h-11v-1Zm-18.872,0h11v1h-11v-1Zm-18.872,0h11v1h-11v-1Zm-18.871,0h11v1h-11v-1ZM471.8,773h11v1h-11v-1Zm-18.872,0h11v1h-11v-1Zm-18.872,0h11v1h-11v-1Zm-18.872,0h11v1h-11v-1Zm-18.871,0h11v1h-11v-1Zm-18.872,0h11v1h-11v-1Zm-18.872,0h11v1h-11v-1Zm-18.872,0h11v1h-11v-1Zm-18.872,0h11v1h-11v-1Zm-18.871,0h11v1h-11v-1Zm-18.872,0h11v1h-11v-1Zm-18.872,0h11v1h-11v-1Zm-18.872,0h11v1h-11v-1Zm-18.871,0h11v1h-11v-1Zm-18.872,0h11v1h-11v-1Zm-18.872,0h11v1h-11v-1Zm-18.872,0h11v1h-11v-1Zm-18.872,0h11v1h-11v-1ZM132.1,773h11v1h-11v-1Zm-18.872,0h11v1h-11v-1Zm-18.872,0h11v1h-11v-1Zm-18.872,0h11v1h-11v-1Zm-18.872,0h11v1h-11v-1Zm-18.872,0h11v1h-11v-1Zm-18.872,0h11v1h-11v-1ZM0,773H11v1H0v-1Z" transform="translate(0 -773)"/>
</svg>
