<svg xmlns="http://www.w3.org/2000/svg" width="58.906" height="58.906" viewBox="0 0 58.906 58.906">
  <defs>
    <style>
      .cls-1 {
        fill: #c9c9c9;
        fill-rule: evenodd;
      }
    </style>
  </defs>
  <path id="关闭.svg" class="cls-1" d="M617.261,404.712a29.452,29.452,0,1,1,29.451-29.451A29.451,29.451,0,0,1,617.261,404.712Zm0-55.958a26.507,26.507,0,1,0,26.506,26.507A26.508,26.508,0,0,0,617.261,348.754ZM628.714,388.8l-11.453-11.453L605.807,388.8l-2.082-2.082,11.453-11.453-11.453-11.454,2.082-2.082,11.454,11.453,11.453-11.453,2.083,2.082-11.454,11.454L630.8,386.714Z" transform="translate(-587.813 -345.813)"/>
</svg>
