<svg xmlns="http://www.w3.org/2000/svg" width="18" height="11" viewBox="0 0 18 11">
  <defs>
    <style>
      .cls-1 {
        fill-rule: evenodd;
      }
    </style>
  </defs>
  <path id="箭头.svg" class="cls-1" d="M256.515,398.835c0.023,0.013.043,0.033,0.067,0.044a1.072,1.072,0,0,0,1.3-.237l7.815-8.657a1.217,1.217,0,0,0-.044-1.663,1.087,1.087,0,0,0-1.588.046l-7.013,7.768-7.117-7.737a1.086,1.086,0,0,0-1.587-.031,1.216,1.216,0,0,0-.03,1.663l7.891,8.579c0.016,0.017.038,0.023,0.054,0.039s0.02,0.026.032,0.039a1.006,1.006,0,0,0,.224.147h0Z" transform="translate(-248 -388)"/>
</svg>
