<svg id="兑.svg" xmlns="http://www.w3.org/2000/svg" width="42" height="42" viewBox="0 0 42 42">
  <defs>
    <style>
      .cls-1 {
        fill: #ff9500;
      }

      .cls-2 {
        fill: #fff;
        fill-rule: evenodd;
      }
    </style>
  </defs>
  <circle id="椭圆_2_拷贝_3" data-name="椭圆 2 拷贝 3" class="cls-1" cx="21" cy="21" r="21"/>
  <path id="形状_2_拷贝_6" data-name="形状 2 拷贝 6" class="cls-2" d="M708.069,513.651a0.931,0.931,0,0,0-.957.9c0,2.029-.73,2.514-0.875,2.6h-3.875a1.454,1.454,0,0,1-.518-0.069v-5.346H705.1a1.986,1.986,0,0,0,2.039-1.926v-4.27a1.987,1.987,0,0,0-2.039-1.926h-1.865l2.05-3.007a0.869,0.869,0,0,0-.289-1.246,0.99,0.99,0,0,0-1.32.27l-2.716,3.983H697.9l-4.312-4.364a0.993,0.993,0,0,0-1.349-.045,0.867,0.867,0,0,0-.049,1.275l3.095,3.134H692.9a1.989,1.989,0,0,0-2.042,1.926v4.27a1.987,1.987,0,0,0,2.042,1.926h1.65a7.189,7.189,0,0,1-4.9,5.481,0.9,0.9,0,0,0-.631,1.129,0.955,0.955,0,0,0,.914.636,0.989,0.989,0,0,0,.283-0.041,9.019,9.019,0,0,0,6.288-7.2h3.43v5.309a1.6,1.6,0,0,0,.418,1.2,2.6,2.6,0,0,0,2.012.713h4.016l0.166-.015c0.256-.042,2.48-0.524,2.48-4.384A0.93,0.93,0,0,0,708.069,513.651Zm-15.17-3.722a0.123,0.123,0,0,1-.129-0.121v-4.27a0.123,0.123,0,0,1,.129-0.119h8.353a1.205,1.205,0,0,0,.213.027,1.084,1.084,0,0,0,.234-0.027h3.4a0.122,0.122,0,0,1,.127.119v4.27a0.123,0.123,0,0,1-.127.121H692.9Z" transform="translate(-678 -488)"/>
</svg>
