<svg xmlns="http://www.w3.org/2000/svg" width="45.25" height="41.5" viewBox="0 0 45.25 41.5">
  <defs>
    <style>
      .cls-1 {
        fill: #ffa312;
        fill-rule: evenodd;
      }
    </style>
  </defs>
  <path id="优惠券.svg" class="cls-1" d="M556.291,226.869h-3.772V223.1a3.771,3.771,0,0,0-3.772-3.771H518.572A3.771,3.771,0,0,0,514.8,223.1v33.948a3.771,3.771,0,0,0,3.772,3.771h37.719a3.771,3.771,0,0,0,3.772-3.771v-26.4A3.772,3.772,0,0,0,556.291,226.869ZM518.572,223.1h30.175v3.772H518.572V223.1Zm37.719,33.948H518.572v-26.4h37.719v26.4Zm-9.43-7.544a5.658,5.658,0,1,0-5.657-5.658A5.658,5.658,0,0,0,546.861,249.5Zm0-7.544a1.886,1.886,0,1,1-1.886,1.886A1.885,1.885,0,0,1,546.861,241.957Z" transform="translate(-514.813 -219.313)"/>
</svg>
