<svg xmlns="http://www.w3.org/2000/svg" width="40.42" height="43" viewBox="0 0 40.42 43"><defs><style>.cls-1{fill:#ff9500;fill-rule:evenodd;}</style></defs><title>B5</title><g id="图层_2" data-name="图层 2"><g id="图层_1-2" data-name="图层 1"><path class="cls-1" d="M29.32,17c-7.29,0-11.1,2.85-11.1,5.66V37.34C18.22,40.15,22,43,29.32,43c7.06,0,10.88-2.7,11.09-5.42V22.7c0-2.81-3.82-5.66-11.1-5.66Zm0,8.08c-5.41,0-7.86-1.86-7.86-2.42s2.45-2.42,7.86-2.42,7.86,1.86,7.86,2.42-2.45,2.42-7.86,2.42Zm0,7.32c-5.41,0-7.86-1.86-7.86-2.42V26.81a17.7,17.7,0,0,0,7.86,1.55,17.74,17.74,0,0,0,7.86-1.55V30c0,.56-2.45,2.42-7.86,2.42Zm7.86,1.69v3.21c0,.56-2.45,2.42-7.86,2.42s-7.86-1.86-7.86-2.42V34.14a17.7,17.7,0,0,0,7.86,1.55,17.72,17.72,0,0,0,7.86-1.55Z"/><path class="cls-1" d="M3.24,19.3V12.77c3,1.88,8,3,13.14,3s10.14-1.16,13.14-3v2.79a23.5,23.5,0,0,1,3.24.24V7.9c0-5.13-8.44-7.9-16.37-7.9S0,2.77,0,7.9V30.69c0,5.13,8.43,7.9,16.37,7.9h.18V35.36h-.18c-8,0-13.14-2.76-13.14-4.67V24.16c3,1.88,8,3,13.14,3h.18V24h-.18c-8,0-13.14-2.76-13.14-4.67ZM16.37,3.24c8,0,13.14,2.76,13.14,4.67s-5.12,4.67-13.14,4.67S3.24,9.81,3.24,7.9,8.35,3.24,16.37,3.24Z"/></g></g></svg>