<svg xmlns="http://www.w3.org/2000/svg" width="56" height="56" viewBox="0 0 56 56"><defs><style>.cls-1{fill:#fff;}</style></defs><title>资源 2</title><g id="图层_2" data-name="图层 2"><g id="图层_1-2" data-name="图层 1"><path class="cls-1" d="M28,2.67A25.33,25.33,0,1,1,2.67,28,25.36,25.36,0,0,1,28,2.67M28,0A28,28,0,1,0,56,28,28,28,0,0,0,28,0Z"/><path class="cls-1" d="M36.49,17.45a1.83,1.83,0,0,0-1.3.54L18,35.19a1.84,1.84,0,0,0,0,2.6l.23.23a1.84,1.84,0,0,0,2.6,0L38,20.81a1.84,1.84,0,0,0,0-2.6L37.79,18a1.83,1.83,0,0,0-1.3-.54Z"/><path class="cls-1" d="M19.51,17.45a1.83,1.83,0,0,0-1.3.54l-.23.23a1.84,1.84,0,0,0,0,2.6L35.19,38a1.84,1.84,0,0,0,2.6,0l.23-.23a1.84,1.84,0,0,0,0-2.6L20.81,18a1.83,1.83,0,0,0-1.3-.54Z"/></g></g></svg>