<svg xmlns="http://www.w3.org/2000/svg" width="16.875" height="21.469" viewBox="0 0 16.875 21.469">
  <defs>
    <style>
      .cls-1 {
        fill: #ff9500;
        fill-rule: evenodd;
      }
    </style>
  </defs>
  <path id="Shape_2.svg" data-name="Shape 2.svg" class="cls-1" d="M264.441,187.612a8.45,8.45,0,0,0-8.441,8.44c0,4.492,7.564,12.469,7.885,12.806a0.765,0.765,0,0,0,.556.238h0.016a0.754,0.754,0,0,0,.561-0.262l2.619-3c3.48-4.262,5.244-7.553,5.244-9.781a8.45,8.45,0,0,0-8.44-8.44h0Zm0,12.276a3.837,3.837,0,1,1,3.836-3.836,3.836,3.836,0,0,1-3.836,3.836h0Z" transform="translate(-256 -187.625)"/>
</svg>
