<svg id="金.svg" xmlns="http://www.w3.org/2000/svg" width="35.156" height="35.156" viewBox="0 0 35.156 35.156">
  <defs>
    <style>
      .cls-1 {
        fill: #ffcb5b;
        fill-rule: evenodd;
      }
    </style>
  </defs>
  <path id="圆角矩形_2" data-name="圆角矩形 2" class="cls-1" d="M38.672,360.87H66.8a3.515,3.515,0,0,1,3.516,3.515V392.5a3.515,3.515,0,0,1-3.516,3.515H38.672a3.515,3.515,0,0,1-3.516-3.515V364.385A3.515,3.515,0,0,1,38.672,360.87ZM39,363H66a2,2,0,0,1,2,2v27a2,2,0,0,1-2,2H39a2,2,0,0,1-2-2V365A2,2,0,0,1,39,363Z" transform="translate(-35.156 -360.875)"/>
  <path id="金" class="cls-1" d="M45.958,375.231H51.7v3.645H42.667v1.7H51.7v6.758H48.793a29.849,29.849,0,0,0-2.152-5.138L45,382.8a24.025,24.025,0,0,1,2.025,4.531h-5.24v1.746H63.423v-1.746h-5.24a33.691,33.691,0,0,0,2.1-4.733l-1.671-.582a39.977,39.977,0,0,1-2.278,5.315h-2.81v-6.758h9.011v-1.7H53.526v-3.645h5.746v-1.392a29.751,29.751,0,0,0,3.746,1.873l1.038-1.518q-7.088-2.961-10.707-7.466H51.881A31.787,31.787,0,0,1,41.1,374.27l1.063,1.518a37.849,37.849,0,0,0,3.8-2.024v1.467Zm0.278-1.645a32.6,32.6,0,0,0,6.379-5.137,24.329,24.329,0,0,0,6.227,5.137H46.236Z" transform="translate(-35.156 -360.875)"/>
</svg>
