<svg xmlns="http://www.w3.org/2000/svg" width="321.88" height="368.4" viewBox="0 0 321.88 368.4"><defs><style>.cls-1{fill:#fff6ee;}.cls-15,.cls-2{fill:#ffe3c7;}.cls-3{fill:#fdffff;}.cls-15,.cls-3,.cls-8,.cls-9{stroke:#eaab52;}.cls-3,.cls-8{stroke-linecap:round;}.cls-15,.cls-3,.cls-8{stroke-linejoin:round;}.cls-4{fill:#fb8;}.cls-5{fill:#f28b7c;}.cls-6{fill:#fff;}.cls-7{fill:#f29b5f;}.cls-8{fill:none;stroke-dasharray:4;}.cls-9{fill:#ffe9d4;stroke-miterlimit:10;}.cls-10{fill:#eff6f9;}.cls-11{fill:#7dead5;}.cls-12{fill:#efbc8f;}.cls-13{fill:#ffb564;}.cls-14{fill:#f2a35c;}</style></defs><title>购物车</title><g id="图层_2" data-name="图层 2"><g id="图层_1-2" data-name="图层 1"><ellipse class="cls-1" cx="160.94" cy="349.82" rx="160.94" ry="18.58"/><rect class="cls-2" x="5.42" y="143.6" width="307" height="188.95" rx="11.34" ry="11.34"/><rect class="cls-3" x="15.83" y="153.41" width="286.17" height="169.34" rx="11.34" ry="11.34"/><path class="cls-4" d="M4.88,332.55h306a1,1,0,0,1,1,1v3.06a10.51,10.51,0,0,1-10.51,10.51h-287A10.51,10.51,0,0,1,3.88,336.6v-3.06a1,1,0,0,1,1-1Z"/><circle class="cls-5" cx="163.56" cy="149.39" r="2.63"/><circle class="cls-6" cx="163.56" cy="149.39" r="1.25"/><circle class="cls-6" cx="263.75" cy="344.09" r="1"/><circle class="cls-6" cx="267.65" cy="344.09" r="1"/><circle class="cls-6" cx="271.56" cy="344.09" r="1"/><circle class="cls-6" cx="275.46" cy="344.09" r="1"/><circle class="cls-6" cx="279.36" cy="344.09" r="1"/><circle class="cls-6" cx="283.26" cy="344.09" r="1"/><circle class="cls-7" cx="14.5" cy="338.89" r="1.73"/><path class="cls-8" d="M165.9,97s59-5.67,87.26-38.8c10.5-10.51-16.38-31.42-22.88-18.15s18.78,18.54,36.51-7.42C275.14,20.49,292.86,1.75,305.9.5"/><path class="cls-9" d="M164.36,97.29s7.78,1.25,6.87,6.45-6,5.66-9.33,4.51c-12.69-4.37-20.83-1.37-20.83-1.37s6.5-15,16.6-18.08C167.47,85.81,169.23,95,164.36,97.29Z"/><path class="cls-10" d="M27.17,322.27H290.66A11.37,11.37,0,0,0,302,310.93V164.27a11.25,11.25,0,0,0-2.23-6.71L19.58,319.32A11.28,11.28,0,0,0,27.17,322.27Z"/><circle class="cls-11" cx="80.49" cy="318.36" r="12.88"/><circle class="cls-11" cx="235" cy="318.36" r="12.88"/><path class="cls-12" d="M80.5,322.65h0a5.23,5.23,0,0,1-5.13-4.21l-3.45-17.25H89.08l-3.45,17.25A5.24,5.24,0,0,1,80.5,322.65Z"/><path class="cls-12" d="M235,322.65h0a5.23,5.23,0,0,1-5.13-4.21l-3.45-17.25h17.17l-3.45,17.25A5.24,5.24,0,0,1,235,322.65Z"/><path class="cls-13" d="M256.46,142.4a4.29,4.29,0,0,0-4.29,4.29V155L235,152.92V144a4.29,4.29,0,0,0-8.58,0v7.86l-18.15-2.22V141a4.29,4.29,0,0,0-8.58,0v7.62l-18.33-2.24v-9a4.29,4.29,0,0,0-8.58,0v7.91L153.83,143l-.38-9.13a4.37,4.37,0,0,0-4.46-4.11,4.29,4.29,0,0,0-4.11,4.46l.32,7.72-21.79-2.67-1.28-10a4.29,4.29,0,0,0-8.52,1.08l1,7.89-24.53-3-2-9.42a4.29,4.29,0,1,0-8.39,1.81l1.4,6.5-7.44-.91L76,141l6.73.82L91.19,181H71.06l-23.6-77.87a12.87,12.87,0,0,0-9.8-8.89L21.25,91a4.29,4.29,0,0,0-1.69,8.42L36,102.68a4.3,4.3,0,0,1,3.27,3l40.91,135L57.78,282.21a12.87,12.87,0,0,0,11.33,19H247.87a4.29,4.29,0,0,0,0-8.58H69.12a4.29,4.29,0,0,1-3.78-6.33l22.11-41.07,161.38-12.1a12.93,12.93,0,0,0,11.92-12.84V146.69A4.29,4.29,0,0,0,256.46,142.4Zm-140.87,3.48L120.05,181H100L91.76,143ZM87.9,236.57l-14.23-47H93l9.89,45.84Zm23.67-1.78-9.75-45.19h19.33l5.6,44Zm12.82-87.84,21.13,2.59,1.3,31.49H128.71ZM135.31,233l-5.51-43.41h17.37L148.92,232Zm37.46-2.81-15.28,1.15-1.73-41.74h17ZM155.4,181l-1.26-30.43,18.62,2.28V181Zm44.28,47.16-18.33,1.37v-40h18.33ZM181.35,181v-27.1l18.33,2.24V181Zm45.06,45.16-18.15,1.36V189.61h18.15ZM208.26,181v-23.8l18.15,2.22V181Zm43.9,39.25a4.31,4.31,0,0,1-4,4.28l-13.19,1V189.61h17.17ZM235,181V160.49l17.17,2.1V181Z"/><path class="cls-14" d="M252.17,146.69V155l-14.42-1.77-11.33,6.54V181H208.26V170.28l-8.58,5V181h-10l-16.88,9.75V230.2l-15.28,1.15-1.28-31-8.39,4.84L148.92,232l-13.61,1-2.44-19.21-8.06,4.66,1.93,15.2-15.17,1.14-1.67-7.73-7.81,4.51.83,3.86-8.65.65-16.92,9.77L57.78,282.21a12.87,12.87,0,0,0,11.33,19H247.87a4.29,4.29,0,0,0,0-8.58H69.12a4.29,4.29,0,0,1-3.78-6.33l22.11-41.07,161.38-12.1a12.93,12.93,0,0,0,11.92-12.84V146.69a4.28,4.28,0,0,0-4.21-4.28l-3.82,2.2A4.25,4.25,0,0,0,252.17,146.69Zm-52.49,81.5-18.33,1.37v-40h18.33Zm26.74-2-18.15,1.36V189.61h18.15Zm25.75-5.91a4.31,4.31,0,0,1-4,4.28l-13.19,1V189.61h17.17Zm0-39.25H235V160.49l17.17,2.1Z"/><path class="cls-15" d="M285.88,194.64a6.08,6.08,0,0,0-6.08,6.08h0a6.08,6.08,0,0,0-6.08-6.08h0a6.08,6.08,0,0,0,6.08-6.08h0a6.08,6.08,0,0,0,6.08,6.08Z"/><path class="cls-15" d="M206.91,249.5a6.08,6.08,0,0,0-6.08,6.08h0a6.08,6.08,0,0,0-6.08-6.08h0a6.08,6.08,0,0,0,6.08-6.08h0a6.08,6.08,0,0,0,6.08,6.08Z"/></g></g></svg>