<svg xmlns="http://www.w3.org/2000/svg" width="681.87" height="689.52" viewBox="0 0 681.87 689.52"><defs><style>.cls-1{fill:#ed3714;stroke-width:4px;}.cls-1,.cls-3,.cls-4{stroke:#000;}.cls-1,.cls-2,.cls-3,.cls-4{stroke-miterlimit:10;}.cls-2{fill:#991f36;stroke:#2d0912;stroke-width:2.06px;}.cls-3{fill:#fbef62;}.cls-3,.cls-4{stroke-width:0.99px;}.cls-4{fill:#ff9239;}</style></defs><title>抽奖背景</title><g id="图层_2" data-name="图层 2"><g id="图层_1-2" data-name="图层 1"><path class="cls-1" d="M70,8C30.4-.42-9.58,17.33,5.11,111.92c19.47,125.32,10,362.66,2.06,453.88C-.78,657.35,15.91,672.12,54.51,680c58.37,12,304-12.74,346.84-9.26,38.08,3.09,232.21,44.37,261.42-15.44,21.61-44.26,2.56-189.92,1-301.56-1-75.13,2.65-175.9,9.26-214.07,17-98.34,3.09-144.09-53-137C564.4,9.77,137.88,22.37,70,8Z"/><rect class="cls-2" x="46.28" y="50.16" width="586.65" height="586.65" rx="4.21" ry="4.21"/><circle class="cls-3" cx="33.58" cy="34.89" r="6.93"/><circle class="cls-4" cx="67.65" cy="34.89" r="6.93"/><circle class="cls-3" cx="101.73" cy="34.89" r="6.93"/><circle class="cls-4" cx="135.8" cy="34.89" r="6.93"/><circle class="cls-3" cx="169.87" cy="34.89" r="6.93"/><circle class="cls-4" cx="203.95" cy="34.89" r="6.93"/><circle class="cls-3" cx="238.02" cy="34.89" r="6.93"/><circle class="cls-4" cx="272.09" cy="34.89" r="6.93"/><circle class="cls-3" cx="306.17" cy="34.89" r="6.93"/><circle class="cls-4" cx="340.24" cy="34.89" r="6.93"/><circle class="cls-3" cx="374.32" cy="34.89" r="6.93"/><circle class="cls-4" cx="408.39" cy="34.89" r="6.93"/><circle class="cls-3" cx="442.46" cy="34.89" r="6.93"/><circle class="cls-4" cx="476.54" cy="34.89" r="6.93"/><circle class="cls-3" cx="510.61" cy="34.89" r="6.93"/><circle class="cls-4" cx="544.69" cy="34.89" r="6.93"/><circle class="cls-3" cx="578.76" cy="34.89" r="6.93"/><circle class="cls-3" cx="646.91" cy="34.89" r="6.93"/><circle class="cls-4" cx="612.83" cy="34.89" r="6.93"/><circle class="cls-4" cx="30.69" cy="70.7" r="6.93"/><circle class="cls-3" cx="30.69" cy="104.77" r="6.93"/><circle class="cls-4" cx="30.69" cy="138.84" r="6.93"/><circle class="cls-3" cx="30.69" cy="172.92" r="6.93"/><circle class="cls-4" cx="30.69" cy="206.99" r="6.93"/><circle class="cls-3" cx="30.69" cy="241.07" r="6.93"/><circle class="cls-4" cx="30.69" cy="275.14" r="6.93"/><circle class="cls-3" cx="30.69" cy="309.21" r="6.93"/><circle class="cls-4" cx="30.69" cy="343.29" r="6.93"/><circle class="cls-3" cx="30.69" cy="377.36" r="6.93"/><circle class="cls-4" cx="30.69" cy="411.44" r="6.93"/><circle class="cls-3" cx="30.69" cy="445.51" r="6.93"/><circle class="cls-4" cx="30.69" cy="479.58" r="6.93"/><circle class="cls-3" cx="30.69" cy="513.66" r="6.93"/><circle class="cls-4" cx="30.69" cy="547.73" r="6.93"/><circle class="cls-3" cx="30.69" cy="581.8" r="6.93"/><circle class="cls-4" cx="30.69" cy="615.88" r="6.93"/><circle class="cls-4" cx="648.64" cy="70.7" r="6.93"/><circle class="cls-3" cx="648.64" cy="104.77" r="6.93"/><circle class="cls-4" cx="648.64" cy="138.84" r="6.93"/><circle class="cls-3" cx="648.64" cy="172.92" r="6.93"/><circle class="cls-4" cx="648.64" cy="206.99" r="6.93"/><circle class="cls-3" cx="648.64" cy="241.07" r="6.93"/><circle class="cls-4" cx="648.64" cy="275.14" r="6.93"/><circle class="cls-3" cx="648.64" cy="309.21" r="6.93"/><circle class="cls-4" cx="648.64" cy="343.29" r="6.93"/><circle class="cls-3" cx="648.64" cy="377.36" r="6.93"/><circle class="cls-4" cx="648.64" cy="411.44" r="6.93"/><circle class="cls-3" cx="648.64" cy="445.51" r="6.93"/><circle class="cls-4" cx="648.64" cy="479.58" r="6.93"/><circle class="cls-3" cx="648.64" cy="513.66" r="6.93"/><circle class="cls-4" cx="648.64" cy="547.73" r="6.93"/><circle class="cls-3" cx="648.64" cy="581.8" r="6.93"/><circle class="cls-4" cx="648.64" cy="615.88" r="6.93"/><circle class="cls-3" cx="33.58" cy="652.84" r="6.93"/><circle class="cls-4" cx="67.65" cy="652.84" r="6.93"/><circle class="cls-3" cx="101.73" cy="652.84" r="6.93"/><circle class="cls-4" cx="135.8" cy="652.84" r="6.93"/><circle class="cls-3" cx="169.87" cy="652.84" r="6.93"/><circle class="cls-4" cx="203.95" cy="652.84" r="6.93"/><circle class="cls-3" cx="238.02" cy="652.84" r="6.93"/><circle class="cls-4" cx="272.09" cy="652.84" r="6.93"/><circle class="cls-3" cx="306.17" cy="652.84" r="6.93"/><circle class="cls-4" cx="340.24" cy="652.84" r="6.93"/><circle class="cls-3" cx="374.32" cy="652.84" r="6.93"/><circle class="cls-4" cx="408.39" cy="652.84" r="6.93"/><circle class="cls-3" cx="442.46" cy="652.84" r="6.93"/><circle class="cls-4" cx="476.54" cy="652.84" r="6.93"/><circle class="cls-3" cx="510.61" cy="652.84" r="6.93"/><circle class="cls-4" cx="544.69" cy="652.84" r="6.93"/><circle class="cls-3" cx="578.76" cy="652.84" r="6.93"/><circle class="cls-3" cx="646.91" cy="652.84" r="6.93"/><circle class="cls-4" cx="612.83" cy="652.84" r="6.93"/></g></g></svg>