<svg xmlns="http://www.w3.org/2000/svg" width="160" height="160" viewBox="0 0 160 160"><defs><style>.cls-1{fill:#ed3714;opacity:0.3;}.cls-2{opacity:0.1;}</style></defs><title>遮罩</title><g id="图层_2" data-name="图层 2"><g id="图层_1-2" data-name="图层 1"><rect class="cls-1" width="160" height="160" rx="9.9" ry="9.9"/><g class="cls-2"><polygon points="86.77 160 160 114.36 160 113.25 84.99 160 86.77 160"/><polygon points="97.14 160 160 120.82 160 119.71 95.36 160 97.14 160"/><polygon points="108.85 160 160 128.12 160 127.01 107.07 160 108.85 160"/><polygon points="119.22 160 160 134.59 160 133.47 117.44 160 119.22 160"/><polygon points="129.38 160 160 140.92 160 139.81 127.6 160 129.38 160"/><polygon points="139.75 160 160 147.38 160 146.27 137.97 160 139.75 160"/><polygon points="16.79 0 0 10.46 0 11.57 18.57 0 16.79 0"/><polygon points="27.16 0 0 16.93 0 18.04 28.95 0 27.16 0"/><polygon points="37.94 0 0 23.65 0 24.76 39.72 0 37.94 0"/><polygon points="48.31 0 0 30.11 0 31.22 50.1 0 48.31 0"/><polygon points="60.02 0 0 37.41 0 38.52 61.8 0 60.02 0"/><polygon points="70.39 0 0 43.88 0 44.99 72.17 0 70.39 0"/><polygon points="80.55 0 0 50.21 0 51.32 82.33 0 80.55 0"/><polygon points="90.93 0 0 56.67 0 57.78 92.71 0 90.93 0"/><polygon points="102.63 0 0 63.97 0 65.08 104.41 0 102.63 0"/><polygon points="113.01 0 0 70.44 0 71.55 114.79 0 113.01 0"/><polygon points="123.89 0 0 77.22 0 78.33 125.67 0 123.89 0"/><polygon points="134.26 0 0 83.68 0 84.79 136.04 0 134.26 0"/><polygon points="145.97 0 0 90.98 0 92.09 147.75 0 145.97 0"/><path d="M154.59,1.09,0,97.45v1.11L155.51,1.63A9.92,9.92,0,0,0,154.59,1.09Z"/><path d="M158.63,4.91,0,103.78v1.11L159.07,5.74Q158.87,5.31,158.63,4.91Z"/><polygon points="160 10.52 0 110.24 0 111.35 160 11.63 160 10.52"/><polygon points="160 17.81 0 117.54 0 118.65 160 18.92 160 17.81"/><polygon points="160 24.28 0 124.01 0 125.12 160 25.39 160 24.28"/><polygon points="160 31.47 0 131.2 0 132.31 160 32.58 160 31.47"/><polygon points="160 38.77 0 138.5 0 139.61 160 39.88 160 38.77"/><polygon points="160 45.24 0 144.96 0 146.07 160 46.35 160 45.24"/><path d="M160,51.57.07,151.25a9.82,9.82,0,0,0,.17,1L160,52.68Z"/><path d="M160,58,2.25,156.36q.3.37.64.71L160,59.14Z"/><path d="M160,65.33,8.33,159.86a9.81,9.81,0,0,0,1.56.14L160,66.44Z"/><polygon points="160 71.8 18.49 160 20.27 160 160 72.91 160 71.8"/><polygon points="160 79.63 31.05 160 32.83 160 160 80.74 160 79.63"/><polygon points="160 85.96 41.21 160 42.99 160 160 87.07 160 85.96"/><polygon points="160 92.42 51.58 160 53.36 160 160 93.53 160 92.42"/><polygon points="160 99.72 63.29 160 65.07 160 160 100.83 160 99.72"/><polygon points="160 106.19 73.67 160 75.44 160 160 107.3 160 106.19"/></g></g></g></svg>