<svg xmlns="http://www.w3.org/2000/svg" width="177.75" height="177.75" viewBox="0 0 177.75 177.75"><defs><style>.cls-1,.cls-4{fill:#fff;}.cls-1{stroke:#000;stroke-width:1.14px;}.cls-1,.cls-3{stroke-miterlimit:10;}.cls-2{fill:#661608;}.cls-3{fill:#f03e32;stroke:#9e240b;stroke-width:1.16px;}.cls-5{fill:#cc322e;}</style></defs><title>11</title><g id="图层_2" data-name="图层 2"><g id="图层_1-2" data-name="图层 1"><rect class="cls-1" x="0.57" y="0.57" width="176.61" height="176.61" rx="3.49" ry="3.49"/><path class="cls-2" d="M65.15,115.94l1.55.25-.49,1.47H78V119H65.64a11.4,11.4,0,0,1-.73,1.63h10.7v1.39a18.8,18.8,0,0,1-4.33,3.35q2.94.65,6.86,1.14a3.31,3.31,0,0,0-.33.49,5.16,5.16,0,0,1-.57,1,26.37,26.37,0,0,1-7.76-2,29,29,0,0,1-8,2.21q-.33-.57-.82-1.39a49.69,49.69,0,0,0,7-1.55,14.86,14.86,0,0,1-3.68-3.1,17.22,17.22,0,0,1-4.74,4.82,5.74,5.74,0,0,0-.82-1.23A16,16,0,0,0,64.09,119H58.94v-1.39h5.64a2.57,2.57,0,0,0,.16-.49A5,5,0,0,0,65.15,115.94Zm-3.59-4.08,1.14-.57c-.33,0-.84,0-1.55.08H59.92q-.08-.41-.16-1a4,4,0,0,1-.08-.49q9.48,0,17.07-.49l.41,1.31q-1.23.08-5.06.25-2.45.08-3.68.16.74,1.23,1.39,2.37l-1.39.57A23.22,23.22,0,0,0,67,111.61l1.06-.49q-.9,0-2.61.08t-2.61.08l.49.74q.33.49,1.06,1.47l-1.23.65h8.58Q73.4,111.86,74,111l1.47.74q-.41.49-1.06,1.31a9.29,9.29,0,0,1-.9,1.14h3.84v2.94H75.85v-1.55h-15v1.55H59.43v-2.94H63a3.86,3.86,0,0,0-.33-.49A13.53,13.53,0,0,0,61.56,111.86ZM73.49,122H65.73a14.55,14.55,0,0,0,3.76,2.61A15,15,0,0,0,73.49,122Z"/><path class="cls-2" d="M88.93,108.59l1.8.41-.25.25a2.52,2.52,0,0,1-.25.33,20.93,20.93,0,0,0,8.9,6q-.74,1-1.06,1.47a19.57,19.57,0,0,1-2.53-1.23,4.23,4.23,0,0,0-.41-.25v1.14H90v2.78H97.1v1.39H90v5h8.5v1.47H80.1v-1.47h8.41v-5H81.41v-1.39h7.11v-2.78H83.29V115.7q-.65.41-2.21,1.23a7.3,7.3,0,0,0-.74.41,5.54,5.54,0,0,0-1-1.47Q86.15,112.76,88.93,108.59Zm-6.45,13.81,1.14-.9L85.09,123q.9,1,1.39,1.55l-1.31,1.06Q83.62,123.62,82.47,122.39Zm6.86-11.76a24.26,24.26,0,0,1-5.56,4.66h11A21,21,0,0,1,89.33,110.63Zm2.61,13.89a37.93,37.93,0,0,0,3-3l1.23.9q-1.8,2-3,3.19Z"/><path class="cls-2" d="M102.41,119.94h6.94V117h-7.6v-1.47h16.58V117H110.9v2.94h7v1.39h-7v4.41h8.9v1.31H100.53v-1.31h8.82v-4.41h-6.94Zm6.21-10.54,1.47-.65a13.63,13.63,0,0,1,1.39,2.29l-.9.49h8.58v3.35h-1.63V113H102.81v1.88h-1.63v-3.35h8.66q-.08-.16-.33-.57Q108.94,109.9,108.61,109.41Zm4.74,13.4,1.14-.9a24.15,24.15,0,0,1,2.37,2.61l-1.23,1Q115.07,124.76,113.35,122.8Z"/><path class="cls-2" d="M62.37,140.79q4.74.24,5.07,5.39-.16,5.56-5.31,5.72-4.66,0-5.56-4.41l1.8-.49q.49,3.43,3.59,3.51,3.51-.16,3.68-4.17-.16-3.76-3.59-3.92a4.06,4.06,0,0,0-3.59,1.8L57.23,144l1-8.58h8.41V137h-7l-.49,5A5,5,0,0,1,62.37,140.79Z"/><path class="cls-2" d="M74.71,151.9q-5.47-.08-5.47-8.33t5.39-8.5q5.31.16,5.39,8.5Q79.94,151.74,74.71,151.9Zm-.16-15.36q-3.35.24-3.43,7,0,7,3.51,6.94,3.51.08,3.51-6.94T74.55,136.55Z"/><path class="cls-2" d="M81.9,141H101v1.55H94.73v7.35q-.08,1.39,1.47,1.31h1.14q1.88.08,2-1.31a11.62,11.62,0,0,0,.25-2.7,8.82,8.82,0,0,0,1.72.49,21.85,21.85,0,0,1-.33,2.86q-.33,2.21-3.35,2.12h-1.8q-2.78.16-2.61-2.53v-7.6h-4v.65a10.26,10.26,0,0,1-6.37,10.13,7.17,7.17,0,0,0-1.14-1.39q6.21-2.7,5.88-8.66v-.73H81.9Zm2-5.72H99.14v1.47H83.86Z"/><path class="cls-2" d="M115.56,137.2a23.64,23.64,0,0,0,2.45-2.86l1.31.82q-1.31,1.63-2.45,2.94H121v1.31h-8.82a16.76,16.76,0,0,1-1.06,2.21H122V143h-5.64a11.18,11.18,0,0,0,5.88,2.94,11.84,11.84,0,0,0-.82,1.23.89.89,0,0,1-.16.33,15.49,15.49,0,0,1-3.19-1.39q-.08,1.06-.41,4-.16,2.86-3.84,2.78h-2.53c-.11-.54-.25-1.09-.41-1.63q.74.08,2.86.08,2.37.08,2.37-1.39c0-.22,0-.57.08-1.06q.16-1.39.16-1.88h-5.88q-.33,4.82-6.62,6.37a.89.89,0,0,1-.16-.33q-.41-.57-.74-1.06,5.8-1.23,6-5h-2.78v-.74a27.89,27.89,0,0,1-2.61,1.47q-.74-1-1.06-1.39A19,19,0,0,0,108,143h-5.23v-1.39h6.45a9.6,9.6,0,0,0,1.23-2.21h-6.86V138.1H111a20.58,20.58,0,0,0,.9-4.25l1.55.08a29,29,0,0,1-.9,4.17h4.17Zm-10.21-2,1.14-.9.9.9q1.06,1,1.63,1.63l-1.23,1.06q-.57-.65-1.63-1.8A9,9,0,0,1,105.35,135.24Zm12,10.38a10.44,10.44,0,0,1-2.78-2.61h-4.49a12,12,0,0,1-2.94,2.61Z"/><rect class="cls-3" x="46.26" y="41.82" width="85.98" height="53.45" rx="2.32" ry="2.32"/><path class="cls-4" d="M68.72,61.22a9.64,9.64,0,0,0,1.47-.38l.54-.16V56.87H69v-1h1.74V52.84H68.88v-.93h4.74v.93H71.72v3.05h1.69v1H71.72v3.54q1-.27,2-.6c0,.11,0,.33.05.65a1.51,1.51,0,0,1,.05.33q-1.42.49-4.68,1.36Zm8.06-7.9h1v2.18a11,11,0,0,1-.27,3h.87v3q0,.93.82.93h.6c.54,0,.82-.15.82-.54s.09-.85.16-1.8a3.16,3.16,0,0,0,1,.33,14.33,14.33,0,0,1-.22,1.74q-.11,1.2-1.58,1.2h-1a1.47,1.47,0,0,1-1.69-1.63V59.1q-.71,2.72-4.41,4.63-.33-.44-.71-.87a7.61,7.61,0,0,0,3.54-2.78,7.71,7.71,0,0,0,1-4.47ZM74,51.42h6.75v7.9h-1V52.4H75v7.13H74Z"/><path class="cls-4" d="M89,50.66l1.2.27-.16.16a1.78,1.78,0,0,1-.16.22,14,14,0,0,0,5.94,4q-.49.65-.71,1a13.07,13.07,0,0,1-1.69-.82l-.27-.16v.76H89.74V58h4.74v.93H89.74v3.32h5.66v1H83.15v-1h5.61V58.88H84V58h4.74V56.1H85.28V55.4q-.44.27-1.47.82a5,5,0,0,0-.49.27,3.7,3.7,0,0,0-.65-1A14.83,14.83,0,0,0,89,50.66Zm-4.3,9.2.76-.6,1,1q.6.65.93,1l-.87.71Q85.5,60.68,84.73,59.86ZM89.31,52a16.21,16.21,0,0,1-3.7,3.1H93A14,14,0,0,1,89.31,52Zm1.74,9.26a25,25,0,0,0,2-2l.82.6q-1.2,1.31-2,2.13Z"/><path class="cls-4" d="M105.32,53A15.74,15.74,0,0,0,107,51.09l.87.54q-.87,1.09-1.63,2h2.72v.87H103a11.21,11.21,0,0,1-.71,1.47h7.3v.93h-3.76a7.46,7.46,0,0,0,3.92,2,7.78,7.78,0,0,0-.54.82.59.59,0,0,1-.11.22,10.31,10.31,0,0,1-2.12-.93q-.05.71-.27,2.67t-2.56,1.85h-1.69q-.11-.54-.27-1.09c.33,0,1,.05,1.91.05s1.58-.27,1.58-.93q0-.22.05-.71.11-.92.11-1.25h-3.92q-.22,3.21-4.41,4.25a.59.59,0,0,1-.11-.22l-.49-.71q3.87-.82,4-3.32H99.06V59a18.78,18.78,0,0,1-1.74,1l-.71-.93a12.69,12.69,0,0,0,3.7-2.23H96.82v-.93h4.3a6.4,6.4,0,0,0,.82-1.47H97.37V53.6h4.9a13.73,13.73,0,0,0,.6-2.83l1,.05a19.29,19.29,0,0,1-.6,2.78h2.78Zm-6.81-1.31.76-.6.6.6q.71.65,1.09,1.09l-.82.71c-.25-.29-.62-.69-1.09-1.2A6,6,0,0,1,98.51,51.69Zm8,6.92a7,7,0,0,1-1.85-1.74h-3a8,8,0,0,1-2,1.74Z"/><path class="cls-4" d="M68.76,82.17l3.89-.79q.56,2.62,2.86,2.7,2.54-.24,2.7-3-.08-2.94-2.86-3a4.36,4.36,0,0,0-2.7,1H69.48l.64-9.94h11v3.18H73.37L73,76.36a6.16,6.16,0,0,1,3.42-1q5.48.16,5.72,5.56-.16,5.72-6.6,5.88Q70.11,86.77,68.76,82.17Z"/><path class="cls-4" d="M97.06,77.87q.16,9.14-6.76,8.9-6.68-.16-6.76-8.9.24-8.9,6.76-9.22Q97,68.81,97.06,77.87Zm-4.13,0q.08-6.44-2.54-6.2-2.7-.08-2.7,6.2,0,6.12,2.7,6.12T92.93,77.87Z"/><path class="cls-4" d="M109.37,82.2a12.88,12.88,0,0,0,1.8.65,16.92,16.92,0,0,1-.49,2.07,1.9,1.9,0,0,1-2,1.2h-1.31q-2,0-2-1.85V80h-1.91q-.16,4.63-3.76,6.32-.49-.54-1.42-1.42a5.34,5.34,0,0,0,3.38-4.9H98.43v-1.8h12.64V80H107.2v3.65c0,.62.27.93.82.93h.44q.49,0,.65-.6a3.24,3.24,0,0,1,.05-.49Q109.32,82.69,109.37,82.2Zm-9.86-6v-1.8H110v1.8Z"/><polygon class="cls-5" points="48.99 52.83 48.99 65.06 74.55 43.94 60.47 43.94 48.99 52.83"/></g></g></svg>