<svg xmlns="http://www.w3.org/2000/svg" width="177.75" height="177.75" viewBox="0 0 177.75 177.75"><defs><style>.cls-1,.cls-4{fill:#fff;}.cls-1{stroke:#000;stroke-width:1.14px;}.cls-1,.cls-3{stroke-miterlimit:10;}.cls-2{fill:#661608;}.cls-3{fill:#7dc90f;stroke:#9e240b;stroke-width:1.16px;}.cls-5{fill:#7fb210;}</style></defs><title>33</title><g id="图层_2" data-name="图层 2"><g id="图层_1-2" data-name="图层 1"><rect class="cls-1" x="0.57" y="0.57" width="176.61" height="176.61" rx="3.49" ry="3.49"/><path class="cls-2" d="M65.15,114.78l1.55.25-.49,1.47H78v1.39H65.64a11.3,11.3,0,0,1-.74,1.63h10.7v1.39a18.78,18.78,0,0,1-4.33,3.35q2.94.65,6.86,1.14a3.33,3.33,0,0,0-.33.49,5.15,5.15,0,0,1-.57,1,26.37,26.37,0,0,1-7.76-2,29,29,0,0,1-8,2.21q-.33-.57-.82-1.39a49.69,49.69,0,0,0,7-1.55,14.84,14.84,0,0,1-3.68-3.1,17.22,17.22,0,0,1-4.74,4.82,5.74,5.74,0,0,0-.82-1.23,16,16,0,0,0,5.64-6.78H58.95v-1.39h5.64a2.58,2.58,0,0,0,.16-.49A5,5,0,0,0,65.15,114.78Zm-3.59-4.08,1.14-.57c-.33,0-.85,0-1.55.08H59.92q-.08-.41-.16-1a4,4,0,0,1-.08-.49q9.48,0,17.07-.49l.41,1.31q-1.23.08-5.07.25-2.45.08-3.68.16.73,1.23,1.39,2.37l-1.39.57A23.12,23.12,0,0,0,67,110.45l1.06-.49q-.9,0-2.61.08t-2.61.08l.49.74q.33.49,1.06,1.47l-1.22.65h8.58q1.63-2.29,2.21-3.19l1.47.74q-.41.49-1.06,1.31a9.25,9.25,0,0,1-.9,1.14h3.84v2.94H75.86v-1.55h-15v1.55H59.43V113H63a3.83,3.83,0,0,0-.33-.49A13.45,13.45,0,0,0,61.56,110.69Zm11.93,10.13H65.73a14.54,14.54,0,0,0,3.76,2.61A15,15,0,0,0,73.49,120.82Z"/><path class="cls-2" d="M88.93,107.43l1.8.41-.25.25a2.62,2.62,0,0,1-.25.33,20.92,20.92,0,0,0,8.9,6q-.74,1-1.06,1.47a19.51,19.51,0,0,1-2.53-1.23,4.17,4.17,0,0,0-.41-.25v1.14H90v2.78H97.1v1.39H90v5h8.5v1.47H80.1v-1.47h8.42v-5H81.41v-1.39h7.11v-2.78H83.29v-1.06q-.65.41-2.21,1.23a7.47,7.47,0,0,0-.74.41,5.54,5.54,0,0,0-1-1.47Q86.15,111.59,88.93,107.43Zm-6.45,13.81,1.14-.9,1.47,1.47q.9,1,1.39,1.55l-1.31,1.06Q83.62,122.46,82.47,121.23Zm6.86-11.76a24.28,24.28,0,0,1-5.56,4.66h11A21,21,0,0,1,89.34,109.47Zm2.61,13.89a37.81,37.81,0,0,0,3-3l1.23.9q-1.8,2-3,3.19Z"/><path class="cls-2" d="M102.41,118.78h6.94v-2.94h-7.6v-1.47h16.58v1.47H110.9v2.94h7v1.39h-7v4.41h8.9v1.31H100.53v-1.31h8.82v-4.41h-6.94Zm6.21-10.54,1.47-.65a13.56,13.56,0,0,1,1.39,2.29l-.9.49h8.58v3.35h-1.63v-1.88H102.81v1.88h-1.63v-3.35h8.66q-.08-.16-.33-.57Q108.94,108.73,108.61,108.24Zm4.74,13.4,1.14-.9a24.21,24.21,0,0,1,2.37,2.61l-1.23,1Q115.07,123.6,113.35,121.64Z"/><path class="cls-2" d="M56.41,142a4.14,4.14,0,0,1-2.61-3.68q.33-4.17,4.9-4.41,4.41.33,4.82,4.41A4,4,0,0,1,61.07,142a4.6,4.6,0,0,1,3.19,4.41q-.24,4.17-5.55,4.33-5.39-.17-5.56-4.49A4.54,4.54,0,0,1,56.41,142Zm2.21.65q-3.27.16-3.59,3.59.33,2.94,3.68,3.19,3.35-.24,3.68-3Q62.13,142.82,58.62,142.65Zm.08-7.27a2.79,2.79,0,0,0-2.94,2.78q.08,3,2.94,3.19,2.7-.08,2.86-3A2.9,2.9,0,0,0,58.7,135.38Z"/><path class="cls-2" d="M67.2,150.41V148h2.53v2.37Z"/><path class="cls-2" d="M75.77,142a4.14,4.14,0,0,1-2.61-3.68q.33-4.17,4.9-4.41,4.41.33,4.82,4.41A4,4,0,0,1,80.43,142a4.6,4.6,0,0,1,3.19,4.41q-.24,4.17-5.55,4.33-5.39-.17-5.56-4.49A4.54,4.54,0,0,1,75.77,142Zm2.21.65q-3.27.16-3.59,3.59.33,2.94,3.68,3.19,3.35-.24,3.68-3Q81.49,142.82,78,142.65Zm.08-7.27a2.79,2.79,0,0,0-2.94,2.78q.08,3,2.94,3.19,2.7-.08,2.86-3A2.9,2.9,0,0,0,78.06,135.38Z"/><path class="cls-2" d="M85,143.39q.81-.16,2.94-.82v-4.33H85.33v-1.39h2.61v-3.92H89.5v3.92h2.61v1.39H89.5v3.92q1.22-.41,2.37-.74a11.53,11.53,0,0,0,.08,1.55,1.35,1.35,0,0,0-.33.08q-1.23.33-2.12.65v5.72a2,2,0,0,1-2.21,2.29,12.25,12.25,0,0,1-1.72.08,10.25,10.25,0,0,0-.25-1.71,12,12,0,0,0,1.8.08.72.72,0,0,0,.82-.82V144.2l-2.78.9Zm8.17-9q4.49-.08,10.78-.82l.41,1.47q-3.68.49-9.64.74v4.58h10v1.47H101.1V152H99.55V141.84H94.73q.16,6.7-2.7,10.29L90.72,151q2.61-3.1,2.45-9.4Z"/><path class="cls-2" d="M119,136a23.56,23.56,0,0,0,2.45-2.86l1.31.82q-1.31,1.63-2.45,2.94h4.08v1.31h-8.82a16.76,16.76,0,0,1-1.06,2.21h10.95v1.39h-5.64a11.18,11.18,0,0,0,5.88,2.94,11.85,11.85,0,0,0-.82,1.23.9.9,0,0,1-.16.33,15.47,15.47,0,0,1-3.19-1.39q-.08,1.06-.41,4-.16,2.86-3.84,2.78h-2.53c-.11-.54-.25-1.09-.41-1.63q.74.08,2.86.08,2.37.08,2.37-1.39a10.56,10.56,0,0,1,.08-1.06q.16-1.39.16-1.88h-5.88q-.33,4.82-6.62,6.37a.89.89,0,0,1-.16-.33q-.41-.57-.73-1.06,5.8-1.23,6-5H109.6v-.74a28,28,0,0,1-2.61,1.47q-.74-1-1.06-1.39a19,19,0,0,0,5.55-3.35h-5.23v-1.39h6.45a9.6,9.6,0,0,0,1.23-2.21h-6.86v-1.31h7.35a20.54,20.54,0,0,0,.9-4.25l1.55.08a28.9,28.9,0,0,1-.9,4.17h4.17Zm-10.21-2,1.14-.9.9.9q1.06,1,1.63,1.63l-1.23,1.06q-.57-.65-1.63-1.8A8.94,8.94,0,0,1,108.78,134.07Zm12,10.38a10.43,10.43,0,0,1-2.78-2.61h-4.49a12.05,12.05,0,0,1-2.94,2.61Z"/><rect class="cls-3" x="46.26" y="40.66" width="85.98" height="53.45" rx="2.32" ry="2.32"/><path class="cls-4" d="M68.72,56.74q.54-.11,2-.54V53.31H68.94v-.93h1.74V49.77h1v2.61h1.74v.93H71.72v2.61q.82-.27,1.58-.49a7.55,7.55,0,0,0,.05,1l-.22.05q-.82.22-1.42.44v3.81a1.3,1.3,0,0,1-1.47,1.52,8.08,8.08,0,0,1-1.14.05,6.86,6.86,0,0,0-.16-1.14,8,8,0,0,0,1.2.05.48.48,0,0,0,.54-.54V57.29l-1.85.6Zm5.45-6q3-.05,7.19-.54l.27,1q-2.45.33-6.43.49v3h6.64v1h-2.4v6.81h-1V55.71H75.2q.11,4.47-1.8,6.86l-.87-.76q1.74-2.07,1.63-6.26Z"/><path class="cls-4" d="M82.72,56.74l1-.22a7.84,7.84,0,0,1,1.09-.27v-3H82.88v-.93h1.91V49.77h1v2.56h1.85v.93H85.82V56l1.8-.49a7.72,7.72,0,0,0,.05,1l-.27.05L85.82,57v3.7q.11,1.69-1.53,1.63H83.1a2.32,2.32,0,0,0-.11-.54c0-.25-.07-.46-.11-.6a9.26,9.26,0,0,0,1.25.05c.47,0,.69-.16.65-.6V57.34l-1.14.33-.82.22ZM88.33,51H95V62.35h-1V61.21H89.31v1.14h-1Zm1,1v8.33h4.63V52Z"/><path class="cls-4" d="M105.32,51.84A15.87,15.87,0,0,0,107,49.93l.87.54q-.87,1.09-1.63,2h2.72v.87H103a11.1,11.1,0,0,1-.71,1.47h7.3v.93h-3.76a7.46,7.46,0,0,0,3.92,2,7.86,7.86,0,0,0-.54.82.61.61,0,0,1-.11.22,10.36,10.36,0,0,1-2.12-.93q-.05.71-.27,2.67t-2.56,1.85h-1.69q-.11-.54-.27-1.09.49.05,1.91.05,1.58.05,1.58-.93a7,7,0,0,1,.05-.71q.11-.93.11-1.25h-3.92q-.22,3.21-4.41,4.25a.59.59,0,0,1-.11-.22l-.49-.71q3.87-.82,4-3.32H99.06v-.49a18.66,18.66,0,0,1-1.74,1l-.71-.93a12.64,12.64,0,0,0,3.7-2.23H96.82v-.93h4.3a6.37,6.37,0,0,0,.82-1.47H97.37v-.87h4.9a13.7,13.7,0,0,0,.6-2.83l1,.05a19.37,19.37,0,0,1-.6,2.78h2.78Zm-6.81-1.31.76-.6.6.6q.71.65,1.09,1.09l-.82.71q-.38-.44-1.09-1.2A6.13,6.13,0,0,1,98.51,50.53Zm8,6.92a7,7,0,0,1-1.85-1.74h-3a8,8,0,0,1-2,1.74Z"/><path class="cls-4" d="M69.09,76.31a4,4,0,0,1-3.26-4.05q.48-4.53,6.28-4.77,5.8.24,6.28,4.69.08,3.18-3.66,4.05v.08q4,.71,4.13,4.21-.08,5.09-7.15,5.09-6.2-.16-6.44-4.85Q65.44,77.35,69.09,76.31Zm5.8,4.29Q75,78.46,72,77.74q-2.7.71-2.7,2.86Q69.41,82.83,72,83,74.81,82.91,74.89,80.61Zm-.48-8.19q-.08-2-2.3-2.07-2.23.08-2.3,2.07-.08,1.75,2.3,2.38Q74.5,74.17,74.42,72.42Z"/><path class="cls-4" d="M83.33,85.37H79.2v-4h4.13Z"/><path class="cls-4" d="M87.56,76.31a4,4,0,0,1-3.26-4.05q.48-4.53,6.28-4.77,5.8.24,6.28,4.69.08,3.18-3.66,4.05v.08q4,.71,4.13,4.21-.08,5.09-7.15,5.09-6.2-.16-6.44-4.85Q83.91,77.35,87.56,76.31Zm5.8,4.29q.08-2.15-2.94-2.86-2.7.71-2.7,2.86.16,2.23,2.78,2.38Q93.28,82.91,93.37,80.61Zm-.48-8.19q-.08-2-2.3-2.07-2.23.08-2.3,2.07-.08,1.75,2.3,2.38Q93,74.17,92.89,72.42Z"/><path class="cls-4" d="M102.1,76.41V74.77h1.42V72.59h1.8v2.18h1.31v1.63h-1.31v2a7.53,7.53,0,0,1,1.47-.27v.11q-.11.76-.16,1.63a1.49,1.49,0,0,0-.33.05,8.56,8.56,0,0,1-1,.22v3.27A1.32,1.32,0,0,1,104,85a10.82,10.82,0,0,1-1.52.11q-.16-.82-.38-1.63l1,.05c.29,0,.44-.2.44-.6v-2.4l-.71.16a6.19,6.19,0,0,0-.65.11L102,78.91a9.36,9.36,0,0,0,1.47-.22V76.41Zm12.09-3.65.6,1.74q-.71.11-2.67.27l-3.21.33v2h6v1.69H113v6.32h-1.8V78.75h-2.34v.05a10.3,10.3,0,0,1-1.74,6.37,17.25,17.25,0,0,0-1.42-1.47q1.42-1.58,1.42-5.28v-5A43.21,43.21,0,0,0,114.19,72.76Z"/><polygon class="cls-5" points="48.99 51.67 48.99 63.89 74.55 42.78 60.47 42.78 48.99 51.67"/></g></g></svg>