<svg xmlns="http://www.w3.org/2000/svg" width="177.75" height="177.75" viewBox="0 0 177.75 177.75"><defs><style>.cls-1,.cls-4{fill:#fff;}.cls-1{stroke:#000;stroke-width:1.14px;}.cls-1,.cls-3{stroke-miterlimit:10;}.cls-2{fill:#661608;}.cls-3{fill:#7dc90f;stroke:#9e240b;stroke-width:1.16px;}.cls-5{fill:#7fb210;}</style></defs><title>21</title><g id="图层_2" data-name="图层 2"><g id="图层_1-2" data-name="图层 1"><rect class="cls-1" x="0.57" y="0.57" width="176.61" height="176.61" rx="3.49" ry="3.49"/><path class="cls-2" d="M65.15,118.26l1.55.25L66.22,120H78v1.39H65.64a11.4,11.4,0,0,1-.73,1.63h10.7v1.39a18.8,18.8,0,0,1-4.33,3.35q2.94.65,6.86,1.14a3.31,3.31,0,0,0-.33.49,5.16,5.16,0,0,1-.57,1,26.37,26.37,0,0,1-7.76-2,29,29,0,0,1-8,2.21q-.33-.57-.82-1.39a49.69,49.69,0,0,0,7-1.55,14.86,14.86,0,0,1-3.68-3.1,17.22,17.22,0,0,1-4.74,4.82,5.74,5.74,0,0,0-.82-1.23,16,16,0,0,0,5.64-6.78H58.94V120h5.64a2.57,2.57,0,0,0,.16-.49A5,5,0,0,0,65.15,118.26Zm-3.59-4.08,1.14-.57c-.33,0-.84,0-1.55.08H59.92q-.08-.41-.16-1a4,4,0,0,1-.08-.49q9.48,0,17.07-.49l.41,1.31q-1.23.08-5.06.25-2.45.08-3.68.16.74,1.23,1.39,2.37l-1.39.57A23.22,23.22,0,0,0,67,113.93l1.06-.49q-.9,0-2.61.08t-2.61.08l.49.74q.33.49,1.06,1.47l-1.23.65h8.58q1.63-2.29,2.21-3.19l1.47.74q-.41.49-1.06,1.31a9.29,9.29,0,0,1-.9,1.14h3.84v2.94H75.85v-1.55h-15v1.55H59.43v-2.94H63a3.86,3.86,0,0,0-.33-.49A13.53,13.53,0,0,0,61.56,114.18Zm11.93,10.13H65.73a14.55,14.55,0,0,0,3.76,2.61A15,15,0,0,0,73.49,124.31Z"/><path class="cls-2" d="M88.93,110.91l1.8.41-.25.25a2.52,2.52,0,0,1-.25.33,20.93,20.93,0,0,0,8.9,6q-.74,1-1.06,1.47a19.57,19.57,0,0,1-2.53-1.23,4.23,4.23,0,0,0-.41-.25v1.14H90v2.78H97.1v1.39H90v5h8.5v1.47H80.1v-1.47h8.41v-5H81.41v-1.39h7.11v-2.78H83.29V118q-.65.41-2.21,1.23a7.3,7.3,0,0,0-.74.41,5.54,5.54,0,0,0-1-1.47Q86.15,115.08,88.93,110.91Zm-6.45,13.81,1.14-.9,1.47,1.47q.9,1,1.39,1.55l-1.31,1.06Q83.62,125.94,82.47,124.72ZM89.33,113a24.26,24.26,0,0,1-5.56,4.66h11A21,21,0,0,1,89.33,113Zm2.61,13.89a37.93,37.93,0,0,0,3-3l1.23.9q-1.8,2-3,3.19Z"/><path class="cls-2" d="M102.41,122.27h6.94v-2.94h-7.6v-1.47h16.58v1.47H110.9v2.94h7v1.39h-7v4.41h8.9v1.31H100.53v-1.31h8.82v-4.41h-6.94Zm6.21-10.54,1.47-.65a13.63,13.63,0,0,1,1.39,2.29l-.9.49h8.58v3.35h-1.63v-1.88H102.81v1.88h-1.63v-3.35h8.66q-.08-.16-.33-.57Q108.94,112.22,108.61,111.73Zm4.74,13.4,1.14-.9a24.15,24.15,0,0,1,2.37,2.61l-1.23,1Q115.07,127.09,113.35,125.13Z"/><path class="cls-2" d="M57.8,154h-2A36.46,36.46,0,0,1,62,139.36H53.55v-1.63H64.17v1.14A33.47,33.47,0,0,0,57.8,154Z"/><path class="cls-2" d="M67.2,153.9v-2.37h2.53v2.37Z"/><path class="cls-2" d="M78.31,143.12q4.74.24,5.07,5.39-.16,5.56-5.31,5.72-4.66,0-5.56-4.41l1.8-.49q.49,3.43,3.59,3.51,3.51-.16,3.68-4.17-.16-3.76-3.59-3.92a4.06,4.06,0,0,0-3.59,1.8l-1.23-.25,1-8.58h8.41v1.63h-7l-.49,5A5,5,0,0,1,78.31,143.12Z"/><path class="cls-2" d="M84.76,146.87q.82-.16,2.94-.82v-4.33H85.09v-1.39H87.7v-3.92h1.55v3.92h2.61v1.39H89.25v3.92q1.23-.41,2.37-.74a11.42,11.42,0,0,0,.08,1.55,1.36,1.36,0,0,0-.33.08q-1.23.33-2.12.65v5.72A2,2,0,0,1,87,155.21a12.25,12.25,0,0,1-1.72.08,10.3,10.3,0,0,0-.25-1.71,12,12,0,0,0,1.8.08.72.72,0,0,0,.82-.82v-5.15l-2.78.9Zm8.17-9q4.49-.08,10.78-.82l.41,1.47q-3.68.49-9.64.74v4.58h10v1.47h-3.59v10.21H99.3V145.32H94.48q.16,6.7-2.7,10.29l-1.31-1.14q2.61-3.1,2.45-9.4Z"/><path class="cls-2" d="M118.74,139.52a23.64,23.64,0,0,0,2.45-2.86l1.31.82q-1.31,1.63-2.45,2.94h4.08v1.31h-8.82a16.76,16.76,0,0,1-1.06,2.21H125.2v1.39h-5.64a11.18,11.18,0,0,0,5.88,2.94,11.84,11.84,0,0,0-.82,1.23.89.89,0,0,1-.16.33,15.49,15.49,0,0,1-3.19-1.39q-.08,1.06-.41,4-.16,2.86-3.84,2.78H114.5c-.11-.54-.25-1.09-.41-1.63q.74.08,2.86.08,2.37.08,2.37-1.39c0-.22,0-.57.08-1.06q.16-1.39.16-1.88h-5.88q-.33,4.82-6.62,6.37a.89.89,0,0,1-.16-.33q-.41-.57-.74-1.06,5.8-1.23,6-5h-2.78v-.74a27.89,27.89,0,0,1-2.61,1.47q-.74-1-1.06-1.39a19,19,0,0,0,5.56-3.35H106v-1.39h6.45a9.6,9.6,0,0,0,1.23-2.21h-6.86v-1.31h7.35a20.58,20.58,0,0,0,.9-4.25l1.55.08a29,29,0,0,1-.9,4.17h4.17Zm-10.21-2,1.14-.9.9.9q1.06,1,1.63,1.63L111,140.26q-.57-.65-1.63-1.8A9,9,0,0,1,108.53,137.56Zm12,10.38a10.44,10.44,0,0,1-2.78-2.61h-4.49a12,12,0,0,1-2.94,2.61Z"/><rect class="cls-3" x="46.26" y="44.14" width="85.98" height="53.45" rx="2.32" ry="2.32"/><path class="cls-4" d="M68.72,60.23q.54-.11,2-.54V56.8H68.94v-.93h1.74V53.26h1v2.61h1.74v.93H71.72v2.61q.82-.27,1.58-.49a7.63,7.63,0,0,0,.05,1l-.22.05q-.82.22-1.42.44v3.81a1.3,1.3,0,0,1-1.47,1.52,8.08,8.08,0,0,1-1.14.05,6.9,6.9,0,0,0-.16-1.14,7.94,7.94,0,0,0,1.2.05.48.48,0,0,0,.54-.54V60.77l-1.85.6Zm5.45-6q3-.05,7.19-.54l.27,1q-2.45.33-6.43.49v3h6.64v1h-2.4V66h-1V59.19H75.2q.11,4.47-1.8,6.86l-.87-.76q1.74-2.07,1.63-6.26Z"/><path class="cls-4" d="M82.72,60.23l1-.22a7.82,7.82,0,0,1,1.09-.27v-3H82.88v-.93h1.91V53.26h1v2.56h1.85v.93H85.82v2.72l1.8-.49a7.73,7.73,0,0,0,.05,1l-.27.05-1.58.44v3.7q.11,1.69-1.52,1.63H83.1a2.32,2.32,0,0,0-.11-.54q-.05-.38-.11-.6a9.24,9.24,0,0,0,1.25.05c.47,0,.69-.16.65-.6V60.83l-1.14.33-.82.22Zm5.61-5.77H95V65.84h-1V64.69H89.31v1.14h-1Zm1,1v8.33h4.63V55.49Z"/><path class="cls-4" d="M105.32,55.33A15.74,15.74,0,0,0,107,53.42l.87.54q-.87,1.09-1.63,2h2.72v.87H103a11.16,11.16,0,0,1-.71,1.47h7.3v.93h-3.76a7.45,7.45,0,0,0,3.92,2,7.78,7.78,0,0,0-.54.82.61.61,0,0,1-.11.22,10.36,10.36,0,0,1-2.12-.93q-.05.71-.27,2.67t-2.56,1.85h-1.69q-.11-.54-.27-1.09.49.05,1.91.05,1.58.05,1.58-.93c0-.14,0-.38.05-.71q.11-.93.11-1.25h-3.92q-.22,3.21-4.41,4.25a.57.57,0,0,1-.11-.22l-.49-.71q3.87-.82,4-3.32H99.06v-.49a18.78,18.78,0,0,1-1.74,1l-.71-.93a12.65,12.65,0,0,0,3.7-2.23H96.82v-.93h4.3a6.39,6.39,0,0,0,.82-1.47H97.37v-.87h4.9a13.73,13.73,0,0,0,.6-2.83l1,.05a19.23,19.23,0,0,1-.6,2.78h2.78ZM98.51,54l.76-.6.6.6A15.14,15.14,0,0,1,101,55.11l-.82.71q-.38-.44-1.09-1.2A6.11,6.11,0,0,1,98.51,54Zm8,6.92a7,7,0,0,1-1.85-1.74h-3a8,8,0,0,1-2,1.74Z"/><path class="cls-4" d="M72,88.78h-4a29,29,0,0,1,5.72-14.07H65.12V71.53h13v2.86A25.51,25.51,0,0,0,72,88.78Z"/><path class="cls-4" d="M82.46,88.86H78.33v-4h4.13Z"/><path class="cls-4" d="M83.89,84.49l3.89-.79q.56,2.62,2.86,2.7,2.54-.24,2.7-3-.08-2.94-2.86-3a4.36,4.36,0,0,0-2.7,1H84.61l.64-9.94h11v3.18H88.5l-.4,4.05a6.16,6.16,0,0,1,3.42-1q5.48.16,5.72,5.56-.16,5.72-6.6,5.88Q85.24,89.1,83.89,84.49Z"/><path class="cls-4" d="M101.15,79.89V78.26h1.42V76.08h1.8v2.18h1.31v1.63h-1.31v2a7.53,7.53,0,0,1,1.47-.27v.11q-.11.76-.16,1.63a1.49,1.49,0,0,0-.33.05,8.58,8.58,0,0,1-1,.22v3.27a1.32,1.32,0,0,1-1.31,1.53,10.83,10.83,0,0,1-1.52.11q-.16-.82-.38-1.63l1,.05c.29,0,.44-.2.44-.6V84l-.71.16a6.22,6.22,0,0,0-.65.11l-.11-1.85a9.37,9.37,0,0,0,1.47-.22V79.89Zm12.09-3.65.6,1.74q-.71.11-2.67.27l-3.21.33v2h6v1.69H112.1v6.32h-1.8V82.24H108v.05a10.31,10.31,0,0,1-1.74,6.37,17.33,17.33,0,0,0-1.42-1.47q1.42-1.58,1.42-5.28v-5A43.21,43.21,0,0,0,113.24,76.24Z"/><polygon class="cls-5" points="48.99 55.15 48.99 67.38 74.55 46.26 60.47 46.26 48.99 55.15"/></g></g></svg>