<svg xmlns="http://www.w3.org/2000/svg" width="548" height="91" viewBox="0 0 548 91"><defs><style>.cls-1{fill:#fddc00;}.cls-1,.cls-2{stroke:#000;stroke-miterlimit:10;stroke-width:3px;}.cls-2{fill:#fff;}</style></defs><title>中奖显示框</title><g id="图层_2" data-name="图层 2"><g id="图层_1-2" data-name="图层 1"><rect class="cls-1" x="6.5" y="9.5" width="540" height="80" rx="19.89" ry="19.89"/><path d="M26.77,9.5H26.7L8.65,20.34q-.42.8-.76,1.63L28.67,9.5Z"/><path d="M37.92,9.5,6.54,28.33c0,.23,0,.45,0,.68v.52l33.38-20Z"/><polygon points="49.36 9.5 6.5 35.23 6.5 36.41 51.33 9.5 49.36 9.5"/><polygon points="62.28 9.5 6.5 42.98 6.5 44.16 64.24 9.5 62.28 9.5"/><polygon points="73.72 9.5 6.5 49.85 6.5 51.03 75.69 9.5 73.72 9.5"/><polygon points="85.08 9.5 6.5 56.66 6.5 58.19 87.62 9.5 85.08 9.5"/><polygon points="96.52 9.5 6.5 63.53 6.5 65.06 99.06 9.5 96.52 9.5"/><path d="M109.44,9.5,6.57,71.25q0,.72.15,1.43L112,9.5Z"/><path d="M120.89,9.5,8,77.26c.17.4.36.8.56,1.19l114.88-69Z"/><path d="M132.09,9.5,11,82.19c.29.34.59.66.9,1L134.63,9.5Z"/><path d="M143.54,9.5,15.64,86.26q.63.4,1.28.75L146.08,9.5Z"/><path d="M156.46,9.5,23.61,89.24a20.86,20.86,0,0,0,2.18.22L159,9.5Z"/><polygon points="167.9 9.5 34.62 89.5 37.16 89.5 170.44 9.5 167.9 9.5"/><polygon points="179.91 9.5 46.62 89.5 49.16 89.5 182.45 9.5 179.91 9.5"/><polygon points="191.35 9.5 58.07 89.5 60.61 89.5 193.89 9.5 191.35 9.5"/><polygon points="204.27 9.5 70.98 89.5 73.52 89.5 206.81 9.5 204.27 9.5"/><polygon points="215.72 9.5 82.43 89.5 84.97 89.5 218.26 9.5 215.72 9.5"/><polygon points="226.93 9.5 93.64 89.5 96.18 89.5 229.46 9.5 226.93 9.5"/><polygon points="238.37 9.5 105.08 89.5 107.62 89.5 240.91 9.5 238.37 9.5"/><polygon points="251.29 9.5 118 89.5 120.54 89.5 253.83 9.5 251.29 9.5"/><polygon points="262.73 9.5 129.45 89.5 131.99 89.5 265.27 9.5 262.73 9.5"/><polygon points="275.47 9.5 142.18 89.5 144.72 89.5 278.01 9.5 275.47 9.5"/><polygon points="288.39 9.5 155.1 89.5 157.64 89.5 290.93 9.5 288.39 9.5"/><polygon points="299.83 9.5 166.55 89.5 169.09 89.5 302.37 9.5 299.83 9.5"/><polygon points="311.04 9.5 177.75 89.5 180.29 89.5 313.58 9.5 311.04 9.5"/><polygon points="322.49 9.5 189.2 89.5 191.74 89.5 325.02 9.5 322.49 9.5"/><polygon points="335.4 9.5 202.12 89.5 204.66 89.5 337.94 9.5 335.4 9.5"/><polygon points="346.85 9.5 213.56 89.5 216.1 89.5 349.39 9.5 346.85 9.5"/><polygon points="360.71 9.5 227.43 89.5 229.97 89.5 363.25 9.5 360.71 9.5"/><polygon points="371.92 9.5 238.63 89.5 241.17 89.5 374.46 9.5 371.92 9.5"/><polygon points="383.37 9.5 250.08 89.5 252.62 89.5 385.91 9.5 383.37 9.5"/><polygon points="396.29 9.5 263 89.5 265.54 89.5 398.82 9.5 396.29 9.5"/><polygon points="407.73 9.5 274.44 89.5 276.98 89.5 410.27 9.5 407.73 9.5"/><polygon points="420.12 9.5 286.84 89.5 289.38 89.5 422.66 9.5 420.12 9.5"/><polygon points="431.33 9.5 298.04 89.5 300.58 89.5 433.87 9.5 431.33 9.5"/><polygon points="442.78 9.5 309.49 89.5 312.03 89.5 445.32 9.5 442.78 9.5"/><polygon points="455.69 9.5 322.41 89.5 324.95 89.5 458.23 9.5 455.69 9.5"/><polygon points="467.14 9.5 333.85 89.5 336.39 89.5 469.68 9.5 467.14 9.5"/><polygon points="479.14 9.5 345.86 89.5 348.4 89.5 481.69 9.5 479.14 9.5"/><polygon points="490.59 9.5 357.3 89.5 359.84 89.5 493.13 9.5 490.59 9.5"/><polygon points="503.51 9.5 370.22 89.5 372.76 89.5 506.05 9.5 503.51 9.5"/><polygon points="514.96 9.5 381.67 89.5 384.21 89.5 517.5 9.5 514.96 9.5"/><path d="M526.23,9.5h-.07l-133.29,80h2.54L528.49,9.63A21,21,0,0,0,526.23,9.5Z"/><path d="M534.63,11.29,404.32,89.5h2.54L536,12C535.58,11.72,535.11,11.5,534.63,11.29Z"/><path d="M540.7,15.4,417.24,89.5h2.54L541.62,16.37C541.32,16,541,15.71,540.7,15.4Z"/><path d="M544.25,20.14,428.68,89.5h2.54L544.84,21.31C544.66,20.91,544.45,20.52,544.25,20.14Z"/><path d="M546.32,26.54l-104.9,63H444L546.45,28C546.42,27.5,546.38,27,546.32,26.54Z"/><polygon points="546.5 34.18 454.34 89.5 456.88 89.5 546.5 35.71 546.5 34.18"/><polygon points="546.5 41.05 465.78 89.5 468.32 89.5 546.5 42.58 546.5 41.05"/><polygon points="546.5 47.78 476.99 89.5 479.53 89.5 546.5 49.3 546.5 47.78"/><polygon points="546.5 54.65 488.43 89.5 490.97 89.5 546.5 56.17 546.5 54.65"/><polygon points="546.5 62.4 501.35 89.5 503.89 89.5 546.5 63.93 546.5 62.4"/><path d="M546.5,70v-.71L512.8,89.5h2.54l31.12-18.68C546.47,70.54,546.5,70.27,546.5,70Z"/><path d="M542.55,81.49A19.48,19.48,0,0,0,544.19,79L526.7,89.48a20.89,20.89,0,0,0,3-.29Z"/><rect class="cls-2" x="1.5" y="1.5" width="540" height="80" rx="20" ry="20"/></g></g></svg>