<svg xmlns="http://www.w3.org/2000/svg" width="177.75" height="177.75" viewBox="0 0 177.75 177.75"><defs><style>.cls-1,.cls-4{fill:#fff;}.cls-1{stroke:#000;stroke-width:1.14px;}.cls-1,.cls-3{stroke-miterlimit:10;}.cls-2{fill:#661608;}.cls-3{fill:#7dc90f;stroke:#9e240b;stroke-width:1.16px;}.cls-5{fill:#7fb210;}</style></defs><title>12</title><g id="图层_2" data-name="图层 2"><g id="图层_1-2" data-name="图层 1"><rect class="cls-1" x="0.57" y="0.57" width="176.61" height="176.61" rx="3.49" ry="3.49"/><path class="cls-2" d="M64,115.94l1.55.25-.49,1.47H76.82V119H64.48a11.4,11.4,0,0,1-.73,1.63h10.7v1.39a18.8,18.8,0,0,1-4.33,3.35q2.94.65,6.86,1.14a3.31,3.31,0,0,0-.33.49,5.16,5.16,0,0,1-.57,1,26.37,26.37,0,0,1-7.76-2,29,29,0,0,1-8,2.21q-.33-.57-.82-1.39a49.69,49.69,0,0,0,7-1.55,14.86,14.86,0,0,1-3.68-3.1,17.22,17.22,0,0,1-4.74,4.82,5.74,5.74,0,0,0-.82-1.23A16,16,0,0,0,62.93,119H57.78v-1.39h5.64a2.57,2.57,0,0,0,.16-.49A5,5,0,0,0,64,115.94Zm-3.59-4.08,1.14-.57c-.33,0-.84,0-1.55.08H58.76q-.08-.41-.16-1a4,4,0,0,1-.08-.49q9.48,0,17.07-.49l.41,1.31q-1.23.08-5.06.25-2.45.08-3.68.16.74,1.23,1.39,2.37l-1.39.57a23.22,23.22,0,0,0-1.39-2.45l1.06-.49q-.9,0-2.61.08t-2.61.08l.49.74q.33.49,1.06,1.47l-1.23.65h8.58q1.63-2.29,2.21-3.19l1.47.74q-.41.49-1.06,1.31a9.29,9.29,0,0,1-.9,1.14h3.84v2.94H74.69v-1.55h-15v1.55H58.27v-2.94h3.59a3.86,3.86,0,0,0-.33-.49A13.53,13.53,0,0,0,60.4,111.86ZM72.32,122H64.56a14.55,14.55,0,0,0,3.76,2.61A15,15,0,0,0,72.32,122Z"/><path class="cls-2" d="M87.76,108.59l1.8.41-.25.25a2.52,2.52,0,0,1-.25.33,20.92,20.92,0,0,0,8.91,6q-.74,1-1.06,1.47a19.63,19.63,0,0,1-2.53-1.23,4,4,0,0,0-.41-.25v1.14H88.83v2.78h7.11v1.39H88.83v5h8.5v1.47H78.94v-1.47h8.41v-5H80.25v-1.39h7.11v-2.78H82.13V115.7q-.65.41-2.21,1.23a7.3,7.3,0,0,0-.74.41,5.54,5.54,0,0,0-1-1.47Q85,112.76,87.76,108.59Zm-6.45,13.81,1.14-.9L83.93,123q.9,1,1.39,1.55L84,125.58Q82.45,123.62,81.31,122.39Zm6.86-11.76a24.26,24.26,0,0,1-5.56,4.66h11A21,21,0,0,1,88.17,110.63Zm2.61,13.89a38,38,0,0,0,3-3l1.22.9q-1.8,2-3,3.19Z"/><path class="cls-2" d="M101.24,119.94h6.94V117h-7.6v-1.47h16.58V117h-7.43v2.94h7v1.39h-7v4.41h8.9v1.31H99.37v-1.31h8.82v-4.41h-6.94Zm6.21-10.54,1.47-.65a13.56,13.56,0,0,1,1.39,2.29l-.9.49H118v3.35h-1.63V113H101.65v1.88H100v-3.35h8.66q-.08-.16-.33-.57Q107.78,109.9,107.45,109.41Zm4.74,13.4,1.14-.9a24.21,24.21,0,0,1,2.37,2.61l-1.23,1Q113.91,124.76,112.19,122.8Z"/><path class="cls-2" d="M56.64,151.66h-2A36.46,36.46,0,0,1,60.81,137H52.39V135.4H63v1.14A33.47,33.47,0,0,0,56.64,151.66Z"/><path class="cls-2" d="M66,151.58v-2.37h2.53v2.37Z"/><path class="cls-2" d="M77.14,140.79q4.74.24,5.07,5.39-.16,5.56-5.31,5.72-4.66,0-5.56-4.41l1.8-.49q.49,3.43,3.59,3.51,3.51-.16,3.68-4.17-.16-3.76-3.59-3.92a4.06,4.06,0,0,0-3.59,1.8L72,144l1-8.58h8.41V137h-7l-.49,5A5,5,0,0,1,77.14,140.79Z"/><path class="cls-2" d="M83.6,144.55q.82-.16,2.94-.82V139.4H83.92V138h2.61v-3.92h1.55V138h2.61v1.39H88.09v3.92q1.23-.41,2.37-.74a11.55,11.55,0,0,0,.08,1.55,1.36,1.36,0,0,0-.33.08q-1.22.33-2.12.65v5.72a2,2,0,0,1-2.21,2.29,12.25,12.25,0,0,1-1.72.08,10.3,10.3,0,0,0-.25-1.71,12,12,0,0,0,1.8.08.72.72,0,0,0,.82-.82v-5.15l-2.78.9Zm8.17-9q4.49-.08,10.78-.82l.41,1.47q-3.68.49-9.64.74v4.58h10V143H99.69v10.21H98.14V143H93.32q.16,6.7-2.7,10.29l-1.31-1.14q2.61-3.1,2.45-9.4Z"/><path class="cls-2" d="M117.58,137.2a23.56,23.56,0,0,0,2.45-2.86l1.31.82q-1.31,1.63-2.45,2.94H123v1.31h-8.82a16.76,16.76,0,0,1-1.06,2.21H124V143H118.4a11.18,11.18,0,0,0,5.88,2.94,11.85,11.85,0,0,0-.82,1.23.9.9,0,0,1-.16.33,15.47,15.47,0,0,1-3.19-1.39q-.08,1.06-.41,4-.16,2.86-3.84,2.78h-2.53c-.11-.54-.25-1.09-.41-1.63q.74.08,2.86.08,2.37.08,2.37-1.39a10.56,10.56,0,0,1,.08-1.06q.16-1.39.16-1.88h-5.88q-.33,4.82-6.62,6.37a.89.89,0,0,1-.16-.33q-.41-.57-.73-1.06,5.8-1.23,6-5h-2.78v-.74a28,28,0,0,1-2.61,1.47q-.74-1-1.06-1.39a19,19,0,0,0,5.55-3.35h-5.23v-1.39h6.45a9.6,9.6,0,0,0,1.23-2.21h-6.86V138.1H113a20.54,20.54,0,0,0,.9-4.25l1.55.08a28.9,28.9,0,0,1-.9,4.17h4.17Zm-10.21-2,1.14-.9.9.9q1.06,1,1.63,1.63l-1.23,1.06q-.57-.65-1.63-1.8A8.94,8.94,0,0,1,107.37,135.24Zm12,10.38A10.43,10.43,0,0,1,116.6,143h-4.49a12.05,12.05,0,0,1-2.94,2.61Z"/><rect class="cls-3" x="45.1" y="41.82" width="85.98" height="53.45" rx="2.32" ry="2.32"/><path class="cls-4" d="M67.56,57.9q.54-.11,2-.54V54.47H67.78v-.93h1.74V50.93h1v2.62H72.3v.93H70.55v2.61q.82-.27,1.58-.49a7.64,7.64,0,0,0,.05,1l-.22.05q-.82.22-1.42.44v3.81a1.3,1.3,0,0,1-1.47,1.53,8.23,8.23,0,0,1-1.14.05,6.89,6.89,0,0,0-.16-1.14,8.09,8.09,0,0,0,1.2.05.48.48,0,0,0,.54-.54V58.45l-1.85.6Zm5.45-6q3-.05,7.19-.54l.27,1q-2.45.33-6.43.49v3.05h6.64v1h-2.4v6.81h-1V56.87H74q.11,4.46-1.8,6.86L71.37,63Q73.11,60.9,73,56.7Z"/><path class="cls-4" d="M81.56,57.9l1-.22a7.82,7.82,0,0,1,1.09-.27v-3H81.72v-.93h1.91V50.93h1v2.56h1.85v.93H84.66v2.72l1.8-.49a7.73,7.73,0,0,0,.05,1l-.27.05-1.58.44v3.7q.11,1.69-1.52,1.63h-1.2a2.31,2.31,0,0,0-.11-.54q-.05-.38-.11-.6a9.41,9.41,0,0,0,1.25.05q.71.05.65-.6V58.5l-1.14.33-.82.22Zm5.61-5.77h6.64V63.51h-1V62.37H88.15v1.14h-1Zm1,1V61.5h4.63V53.16Z"/><path class="cls-4" d="M104.16,53a15.87,15.87,0,0,0,1.63-1.91l.87.54q-.87,1.09-1.63,2h2.72v.87h-5.88a11.14,11.14,0,0,1-.71,1.47h7.3v.93H104.7a7.46,7.46,0,0,0,3.92,2,7.86,7.86,0,0,0-.54.82.6.6,0,0,1-.11.22,10.3,10.3,0,0,1-2.12-.93q-.05.71-.27,2.67T103,63.46h-1.69q-.11-.54-.27-1.09c.33,0,1,.05,1.91.05s1.58-.27,1.58-.93a7.09,7.09,0,0,1,.05-.71q.11-.92.11-1.25h-3.92q-.22,3.21-4.41,4.25a.6.6,0,0,1-.11-.22l-.49-.71q3.87-.82,4-3.32H97.89V59a18.66,18.66,0,0,1-1.74,1l-.71-.93a12.68,12.68,0,0,0,3.7-2.23H95.66v-.93H100a6.38,6.38,0,0,0,.82-1.47H96.21V53.6h4.9a13.7,13.7,0,0,0,.6-2.83l1,.05a19.43,19.43,0,0,1-.6,2.78h2.78Zm-6.81-1.31.76-.6.6.6q.71.65,1.09,1.09l-.82.71c-.25-.29-.62-.69-1.09-1.2A6,6,0,0,1,97.35,51.69Zm8,6.92a7,7,0,0,1-1.85-1.74h-3a8,8,0,0,1-2,1.74Z"/><path class="cls-4" d="M70.87,86.46h-4a29,29,0,0,1,5.72-14.07H64V69.21h13v2.86A25.51,25.51,0,0,0,70.87,86.46Z"/><path class="cls-4" d="M81.3,86.54H77.17v-4H81.3Z"/><path class="cls-4" d="M82.73,82.17l3.89-.79q.56,2.62,2.86,2.7,2.54-.24,2.7-3-.08-2.94-2.86-3a4.36,4.36,0,0,0-2.7,1H83.44l.64-9.94H95v3.18H87.34l-.4,4.05a6.17,6.17,0,0,1,3.42-1q5.48.16,5.72,5.56-.16,5.72-6.6,5.88Q84.08,86.77,82.73,82.17Z"/><path class="cls-4" d="M100,77.57V75.94h1.42V73.76h1.8v2.18h1.31v1.63H103.2v2a7.53,7.53,0,0,1,1.47-.27v.11q-.11.76-.16,1.63a1.49,1.49,0,0,0-.33.05,8.56,8.56,0,0,1-1,.22v3.27a1.32,1.32,0,0,1-1.31,1.53,10.82,10.82,0,0,1-1.52.11q-.16-.82-.38-1.63l1,.05c.29,0,.44-.2.44-.6v-2.4l-.71.16a6.19,6.19,0,0,0-.65.11l-.11-1.85a9.36,9.36,0,0,0,1.47-.22V77.57Zm12.09-3.65.6,1.74q-.71.11-2.67.27l-3.21.33v2h6v1.69h-1.85v6.32h-1.8V79.91H106.8V80a10.3,10.3,0,0,1-1.74,6.37,17.25,17.25,0,0,0-1.42-1.47q1.42-1.58,1.42-5.28v-5A43.21,43.21,0,0,0,112.08,73.92Z"/><polygon class="cls-5" points="47.83 52.83 47.83 65.06 73.39 43.94 59.31 43.94 47.83 52.83"/></g></g></svg>