<svg xmlns="http://www.w3.org/2000/svg" width="177.75" height="177.75" viewBox="0 0 177.75 177.75"><defs><style>.cls-1,.cls-4{fill:#fff;}.cls-1{stroke:#000;stroke-width:1.14px;}.cls-1,.cls-3{stroke-miterlimit:10;}.cls-2{fill:#661608;}.cls-3{fill:#f03e32;stroke:#9e240b;stroke-width:1.16px;}.cls-5{fill:#cc322e;}</style></defs><title>23</title><g id="图层_2" data-name="图层 2"><g id="图层_1-2" data-name="图层 1"><rect class="cls-1" x="0.57" y="0.57" width="176.61" height="176.61" rx="3.49" ry="3.49"/><path class="cls-2" d="M65.15,118.26l1.55.25L66.22,120H78v1.39H65.64a11.3,11.3,0,0,1-.74,1.63h10.7v1.39a18.78,18.78,0,0,1-4.33,3.35q2.94.65,6.86,1.14a3.33,3.33,0,0,0-.33.49,5.15,5.15,0,0,1-.57,1,26.37,26.37,0,0,1-7.76-2,29,29,0,0,1-8,2.21q-.33-.57-.82-1.39a49.69,49.69,0,0,0,7-1.55,14.84,14.84,0,0,1-3.68-3.1,17.22,17.22,0,0,1-4.74,4.82,5.74,5.74,0,0,0-.82-1.23,16,16,0,0,0,5.64-6.78H58.95V120h5.64a2.58,2.58,0,0,0,.16-.49A5,5,0,0,0,65.15,118.26Zm-3.59-4.08,1.14-.57c-.33,0-.85,0-1.55.08H59.92q-.08-.41-.16-1a4,4,0,0,1-.08-.49q9.48,0,17.07-.49l.41,1.31q-1.23.08-5.07.25-2.45.08-3.68.16.73,1.23,1.39,2.37l-1.39.57A23.12,23.12,0,0,0,67,113.93l1.06-.49q-.9,0-2.61.08t-2.61.08l.49.74q.33.49,1.06,1.47l-1.22.65h8.58q1.63-2.29,2.21-3.19l1.47.74q-.41.49-1.06,1.31a9.25,9.25,0,0,1-.9,1.14h3.84v2.94H75.86v-1.55h-15v1.55H59.43v-2.94H63a3.83,3.83,0,0,0-.33-.49A13.45,13.45,0,0,0,61.56,114.18Zm11.93,10.13H65.73a14.54,14.54,0,0,0,3.76,2.61A15,15,0,0,0,73.49,124.31Z"/><path class="cls-2" d="M88.93,110.91l1.8.41-.25.25a2.62,2.62,0,0,1-.25.33,20.92,20.92,0,0,0,8.9,6q-.74,1-1.06,1.47a19.51,19.51,0,0,1-2.53-1.23,4.17,4.17,0,0,0-.41-.25v1.14H90v2.78H97.1v1.39H90v5h8.5v1.47H80.1v-1.47h8.42v-5H81.41v-1.39h7.11v-2.78H83.29V118q-.65.41-2.21,1.23a7.47,7.47,0,0,0-.74.41,5.54,5.54,0,0,0-1-1.47Q86.15,115.08,88.93,110.91Zm-6.45,13.81,1.14-.9,1.47,1.47q.9,1,1.39,1.55l-1.31,1.06Q83.62,125.94,82.47,124.72ZM89.34,113a24.28,24.28,0,0,1-5.56,4.66h11A21,21,0,0,1,89.34,113Zm2.61,13.89a37.81,37.81,0,0,0,3-3l1.23.9q-1.8,2-3,3.19Z"/><path class="cls-2" d="M102.41,122.27h6.94v-2.94h-7.6v-1.47h16.58v1.47H110.9v2.94h7v1.39h-7v4.41h8.9v1.31H100.53v-1.31h8.82v-4.41h-6.94Zm6.21-10.54,1.47-.65a13.56,13.56,0,0,1,1.39,2.29l-.9.49h8.58v3.35h-1.63v-1.88H102.81v1.88h-1.63v-3.35h8.66q-.08-.16-.33-.57Q108.94,112.22,108.61,111.73Zm4.74,13.4,1.14-.9a24.21,24.21,0,0,1,2.37,2.61l-1.23,1Q115.07,127.09,113.35,125.13Z"/><path class="cls-2" d="M62.38,143.12q4.74.24,5.06,5.39-.16,5.56-5.31,5.72-4.66,0-5.56-4.41l1.8-.49q.49,3.43,3.59,3.51,3.51-.16,3.68-4.17-.16-3.76-3.59-3.92a4.06,4.06,0,0,0-3.59,1.8l-1.23-.25,1-8.58h8.42v1.63h-7l-.49,5A5,5,0,0,1,62.38,143.12Z"/><path class="cls-2" d="M74.71,154.23q-5.47-.08-5.47-8.33t5.39-8.5q5.31.16,5.39,8.5Q79.94,154.06,74.71,154.23Zm-.16-15.36q-3.35.24-3.43,7,0,7,3.51,6.94,3.51.08,3.51-6.94T74.55,138.87Z"/><path class="cls-2" d="M81.9,143.28H101v1.55H94.73v7.35q-.08,1.39,1.47,1.31h1.14q1.88.08,2-1.31a11.64,11.64,0,0,0,.25-2.7,8.82,8.82,0,0,0,1.71.49,21.85,21.85,0,0,1-.33,2.86q-.33,2.21-3.35,2.12h-1.8q-2.78.16-2.61-2.53v-7.6h-4v.65a10.26,10.26,0,0,1-6.37,10.13,7.14,7.14,0,0,0-1.14-1.39q6.21-2.7,5.88-8.66v-.73H81.9Zm2-5.72H99.14V139H83.86Z"/><path class="cls-2" d="M115.56,139.52a23.56,23.56,0,0,0,2.45-2.86l1.31.82q-1.31,1.63-2.45,2.94H121v1.31h-8.82a16.76,16.76,0,0,1-1.06,2.21H122v1.39h-5.64a11.18,11.18,0,0,0,5.88,2.94,11.85,11.85,0,0,0-.82,1.23.9.9,0,0,1-.16.33,15.47,15.47,0,0,1-3.19-1.39q-.08,1.06-.41,4-.16,2.86-3.84,2.78h-2.53c-.11-.54-.25-1.09-.41-1.63q.74.08,2.86.08,2.37.08,2.37-1.39a10.56,10.56,0,0,1,.08-1.06q.16-1.39.16-1.88h-5.88q-.33,4.82-6.62,6.37a.89.89,0,0,1-.16-.33q-.41-.57-.73-1.06,5.8-1.23,6-5h-2.78v-.74a28,28,0,0,1-2.61,1.47q-.74-1-1.06-1.39a19,19,0,0,0,5.55-3.35h-5.23v-1.39h6.45a9.6,9.6,0,0,0,1.23-2.21h-6.86v-1.31H111a20.54,20.54,0,0,0,.9-4.25l1.55.08a28.9,28.9,0,0,1-.9,4.17h4.17Zm-10.21-2,1.14-.9.9.9q1.06,1,1.63,1.63l-1.23,1.06q-.57-.65-1.63-1.8A8.94,8.94,0,0,1,105.35,137.56Zm12,10.38a10.43,10.43,0,0,1-2.78-2.61h-4.49a12.05,12.05,0,0,1-2.94,2.61Z"/><rect class="cls-3" x="46.26" y="44.14" width="85.98" height="53.45" rx="2.32" ry="2.32"/><path class="cls-4" d="M68.72,63.55a9.71,9.71,0,0,0,1.47-.38l.54-.16V59.19H69v-1h1.74v-3H68.88v-.93h4.74v.93H71.72v3h1.69v1H71.72v3.54q1-.27,2-.6c0,.11,0,.33.05.65a1.51,1.51,0,0,1,.05.33q-1.42.49-4.68,1.36Zm8.06-7.9h1v2.18a10.94,10.94,0,0,1-.27,3h.87v3q0,.93.82.93h.6c.54,0,.82-.15.82-.54s.09-.85.16-1.8a3.14,3.14,0,0,0,1,.33,14.31,14.31,0,0,1-.22,1.74q-.11,1.2-1.58,1.2h-1A1.47,1.47,0,0,1,77.38,64V61.43q-.71,2.72-4.41,4.63-.33-.44-.71-.87a7.6,7.6,0,0,0,3.54-2.78,7.71,7.71,0,0,0,1-4.47ZM74,53.75h6.75v7.9h-1V54.73H75v7.13H74Z"/><path class="cls-4" d="M89,53l1.2.27-.16.16a1.83,1.83,0,0,1-.16.22,14,14,0,0,0,5.94,4q-.49.65-.71,1a13,13,0,0,1-1.69-.82l-.27-.16v.76H89.74v1.85h4.74v.93H89.74v3.32h5.66v1H83.15v-1h5.61V61.21H84v-.93h4.74V58.43H85.28v-.71q-.44.27-1.47.82a4.84,4.84,0,0,0-.49.27,3.69,3.69,0,0,0-.65-1A14.82,14.82,0,0,0,89,53Zm-4.3,9.2.76-.6,1,1q.6.65.93,1l-.87.71Q85.49,63,84.73,62.19Zm4.57-7.84a16.19,16.19,0,0,1-3.7,3.1H93A14.06,14.06,0,0,1,89.31,54.35Zm1.74,9.26a25.3,25.3,0,0,0,2-2l.82.6q-1.2,1.31-2,2.12Z"/><path class="cls-4" d="M105.32,55.33A15.87,15.87,0,0,0,107,53.42l.87.54q-.87,1.09-1.63,2h2.72v.87H103a11.1,11.1,0,0,1-.71,1.47h7.3v.93h-3.76a7.46,7.46,0,0,0,3.92,2,7.86,7.86,0,0,0-.54.82.61.61,0,0,1-.11.22,10.36,10.36,0,0,1-2.12-.93q-.05.71-.27,2.67t-2.56,1.85h-1.69q-.11-.54-.27-1.09.49.05,1.91.05,1.58.05,1.58-.93a7,7,0,0,1,.05-.71q.11-.93.11-1.25h-3.92q-.22,3.21-4.41,4.25a.59.59,0,0,1-.11-.22l-.49-.71q3.87-.82,4-3.32H99.06v-.49a18.66,18.66,0,0,1-1.74,1l-.71-.93a12.64,12.64,0,0,0,3.7-2.23H96.82v-.93h4.3a6.37,6.37,0,0,0,.82-1.47H97.37v-.87h4.9a13.7,13.7,0,0,0,.6-2.83l1,.05a19.37,19.37,0,0,1-.6,2.78h2.78ZM98.51,54l.76-.6.6.6q.71.65,1.09,1.09l-.82.71q-.38-.44-1.09-1.2A6.13,6.13,0,0,1,98.51,54Zm8,6.92a7,7,0,0,1-1.85-1.74h-3a8,8,0,0,1-2,1.74Z"/><path class="cls-4" d="M68.76,84.49l3.9-.79q.56,2.62,2.86,2.7,2.54-.24,2.7-3-.08-2.94-2.86-3a4.36,4.36,0,0,0-2.7,1H69.48l.64-9.94h11v3.18H73.37L73,78.69a6.16,6.16,0,0,1,3.42-1q5.48.16,5.72,5.56-.16,5.72-6.6,5.88Q70.11,89.1,68.76,84.49Z"/><path class="cls-4" d="M97.06,80.2q.16,9.14-6.76,8.9-6.68-.16-6.76-8.9.24-8.9,6.76-9.22Q97,71.14,97.06,80.2Zm-4.13,0Q93,73.76,90.38,74q-2.7-.08-2.7,6.2,0,6.12,2.7,6.12T92.92,80.2Z"/><path class="cls-4" d="M109.37,84.52a12.87,12.87,0,0,0,1.8.65,16.82,16.82,0,0,1-.49,2.07,1.9,1.9,0,0,1-2,1.2h-1.31q-2,0-2-1.85v-4.3h-1.91q-.16,4.63-3.76,6.32-.49-.54-1.42-1.42a5.34,5.34,0,0,0,3.38-4.9H98.42v-1.8h12.64v1.8h-3.87v3.65c0,.62.27.93.82.93h.44q.49,0,.65-.6a3.17,3.17,0,0,1,.05-.49Q109.32,85,109.37,84.52Zm-9.86-6v-1.8H110v1.8Z"/><polygon class="cls-5" points="48.99 55.15 48.99 67.38 74.55 46.26 60.47 46.26 48.99 55.15"/></g></g></svg>