<svg xmlns="http://www.w3.org/2000/svg" width="177.77" height="177.77" viewBox="0 0 177.77 177.77"><defs><style>.cls-1{fill:#b81807;stroke:#000;stroke-miterlimit:10;stroke-width:1.16px;}.cls-2{fill:#f32e09;}.cls-3{fill:#ffdc20;}</style></defs><title>22-普通</title><g id="图层_2" data-name="图层 2"><g id="图层_1-2" data-name="图层 1"><rect class="cls-1" x="0.58" y="0.58" width="176.61" height="176.61" rx="3.49" ry="3.49"/><path class="cls-2" d="M5.61,2.32H172.16a3.29,3.29,0,0,1,3.29,3.29V143.25A19.42,19.42,0,0,1,156,162.66H21.74A19.42,19.42,0,0,1,2.32,143.25V5.61A3.29,3.29,0,0,1,5.61,2.32Z"/><path class="cls-3" d="M43.63,55.42h5.82q1.59,0,1.59,1.21a2.91,2.91,0,0,1-.11.71L49.09,64.2a2.18,2.18,0,0,1-.68,1.25A2.25,2.25,0,0,1,47,65.8H40.85q-1.55,0-1.55-1.18a2.46,2.46,0,0,1,.14-.71L41.53,57a1.81,1.81,0,0,1,2.09-1.57ZM51.41,34.1V28a1.68,1.68,0,0,1,1.89-1.91h7.85a1,1,0,0,1,1.14.93,1,1,0,0,0,1.14,1h17.5q1.89,0,1.89,1.75v.84q0,1.75-1.89,1.75H64.17q-1.89,0-1.89,1.64v.36q0,1.64,1.89,1.64H79.9a1.67,1.67,0,0,1,1.89,1.89V51.05a1.67,1.67,0,0,1-1.89,1.89H42.6a1.67,1.67,0,0,1-1.89-1.89V37.88A1.67,1.67,0,0,1,42.6,36h6.92A1.67,1.67,0,0,0,51.41,34.1ZM53.16,48.6H69.34a1.68,1.68,0,0,0,1.89-1.91V42.25a1.68,1.68,0,0,0-1.89-1.91H53.16a1.68,1.68,0,0,0-1.89,1.91v4.44A1.68,1.68,0,0,0,53.16,48.6ZM59.83,57l1.87,6.87a2.91,2.91,0,0,1,.11.71q0,1.21-1.57,1.21h-5a2.31,2.31,0,0,1-1.39-.34,2.36,2.36,0,0,1-.68-1.25l-1.77-6.87a2.69,2.69,0,0,1-.11-.71q0-1.21,1.59-1.21h4.89a2.2,2.2,0,0,1,1.37.34A2.28,2.28,0,0,1,59.83,57Zm10.35,0,2,6.92a2.71,2.71,0,0,1,.11.71q0,1.18-1.55,1.18H65.9a2.31,2.31,0,0,1-1.39-.34,2.24,2.24,0,0,1-.73-1.23l-2.07-6.92a2.3,2.3,0,0,1-.14-.71q0-1.18,1.55-1.18h4.94a2.25,2.25,0,0,1,1.39.34A2.36,2.36,0,0,1,70.18,57Zm10.17,0,2,6.89a2.68,2.68,0,0,1,.14.73q0,1.18-1.57,1.18H75.87a1.81,1.81,0,0,1-2.09-1.57l-2-6.89a2.68,2.68,0,0,1-.14-.73q0-1.18,1.57-1.18h5a2.31,2.31,0,0,1,1.39.34A2.26,2.26,0,0,1,80.35,57Z"/><path class="cls-3" d="M119.53,29.48H131.4q1.91,0,1.91,1.75v.84q0,1.75-1.91,1.75H119.53a1.67,1.67,0,0,0-1.89,1.89v1.52a1.68,1.68,0,0,0,1.89,1.91h12.74q1.91,0,1.91,1.75v.84q0,1.75-1.91,1.75H119.53a1.67,1.67,0,0,0-1.89,1.89V59.54a1.68,1.68,0,0,0,1.89,1.91H121a1.69,1.69,0,0,0,1.91-1.91V48.21a1.67,1.67,0,0,1,1.89-1.89h6.46a1.68,1.68,0,0,1,1.91,1.89v15.7a1.68,1.68,0,0,1-1.91,1.89h-38a1.67,1.67,0,0,1-1.89-1.89V48.21a1.67,1.67,0,0,1,1.89-1.89h6.44a1.68,1.68,0,0,1,1.91,1.89V59.54a1.68,1.68,0,0,0,1.89,1.91h1.34a1.69,1.69,0,0,0,1.91-1.91V45.39a1.68,1.68,0,0,0-1.91-1.89H92q-1.89,0-1.89-1.75v-.84q0-1.75,1.89-1.75h12.86a1.69,1.69,0,0,0,1.91-1.91V35.72a1.68,1.68,0,0,0-1.91-1.89h-12Q91,33.83,91,32.08v-.84q0-1.75,1.89-1.75h12q1.91,0,1.91-1.59v-.11q0-1.59,1.89-1.59h7.08q1.91,0,1.91,1.59v.11Q117.64,29.48,119.53,29.48Z"/><path class="cls-3" d="M56.44,84.87a1.64,1.64,0,0,1-1.37.68h-.32q-1.64,0-1.64,1.89V92q0,1.09.84,1.09l.32,0a1.64,1.64,0,0,1,.32,0q.82,0,.82,1.09V96q0,1.66-1.14,1.93h0q-1.12.25-1.12,1.84v16.91a1.68,1.68,0,0,1-1.89,1.91H41.4q-1.89,0-1.89-1.77V116q0-1.75,1.64-1.75h.39q1.64,0,1.64-1.91v-8.53q0-1.89-1.55-1.89a1.72,1.72,0,0,0-.5.07l-.41.11a1.76,1.76,0,0,1-.59.11q-1.18,0-1.18-1.5v-1.3a1.78,1.78,0,0,1,1.5-2.09l1.3-.39a2.24,2.24,0,0,0,1.14-.66,2.2,2.2,0,0,0,.3-1.27V87.44q0-1.89-1.75-1.89h-.75a1.56,1.56,0,0,1-1.75-1.77V83a1.56,1.56,0,0,1,1.75-1.77h1.07A1.24,1.24,0,0,0,43.17,80a1.25,1.25,0,0,1,1.43-1.18h7.08A1.25,1.25,0,0,1,53.12,80a1.22,1.22,0,0,0,1.39,1.16h.57a1.42,1.42,0,0,1,1.59,1.34,1.93,1.93,0,0,1,1.66-.71h4.46a1.59,1.59,0,0,0,1.82-1.48q.16-1.48,1.82-1.48h5.69q1.66,0,1.82,1.48a1.59,1.59,0,0,0,1.82,1.48H80.4a1.67,1.67,0,0,1,1.89,1.89v32.88a1.68,1.68,0,0,1-1.89,1.91H58.33a1.68,1.68,0,0,1-1.89-1.91Zm9.69,9.78V87q0-1.16-1-1.16T64.2,87v7.62q0,1.18,1,1.18T66.13,94.65Zm-1.93,6.1v12.51q0,1.21,1,1.21t1-1.21V100.75q0-1.18-1-1.18T64.2,100.75ZM74.53,94.7V87q0-1.14-.93-1.14T72.66,87V94.7q0,1.14.93,1.14T74.53,94.7Zm-1.87,6v12.63q0,1.14.93,1.14t.93-1.14V100.68q0-1.14-.93-1.14T72.66,100.68Z"/><path class="cls-3" d="M100.28,102.89l0-.07a2.09,2.09,0,0,1,1.91-.82h9.17q.64,0,.64.55a.69.69,0,0,1-.09.27.9.9,0,0,0-.07.32c0,.33.22.5.66.5h19.38q1.89,0,1.89,1.75v.84q0,1.75-1.89,1.75h-1.21a1.61,1.61,0,0,0-1.25.52,1.46,1.46,0,0,0-.39,1,2.51,2.51,0,0,0,.41,1.18l3.66,6.08a1.56,1.56,0,0,1,.27.71q0,1-1.25,1h-7.3a3.14,3.14,0,0,1-1.5-.27,3,3,0,0,1-1-1.16l-4.73-8a2.47,2.47,0,0,0-.73-.84,2.35,2.35,0,0,0-1.12-.21H109.9a2.28,2.28,0,0,0-1.09.21,2.34,2.34,0,0,0-.75.82L103,117a2.42,2.42,0,0,1-2.57,1.41H92.18c-.8,0-1.21-.33-1.21-1a1.48,1.48,0,0,1,.29-.73l3.94-6.07a2.23,2.23,0,0,0,.46-1.18,1.47,1.47,0,0,0-.5-1.09A1.68,1.68,0,0,0,94,108H92.27q-1.89,0-1.89-1.75v-.84q0-1.75,1.89-1.75h6.35A1.78,1.78,0,0,0,100.28,102.89ZM94,88.49h3.44q1.71,0,1.71,1.37a5.1,5.1,0,0,1,0,.57l-1.28,8.65a1.79,1.79,0,0,1-2,1.71h-3.5q-1.71,0-1.71-1.34a3.88,3.88,0,0,1,0-.57L92,90.19A1.79,1.79,0,0,1,94,88.49Zm3.39-1.41H93.77a2.09,2.09,0,0,1-1.37-.36,2.19,2.19,0,0,1-.66-1.27l-1-4.32a3.65,3.65,0,0,1-.07-.66q0-1.25,1.62-1.25h3.39a2.31,2.31,0,0,1,1.39.34,2.18,2.18,0,0,1,.68,1.25l1.09,4.37a3,3,0,0,1,.09.66Q99,87.07,97.39,87.07Zm10.83,11.79a1.69,1.69,0,0,1-1.89,1.84H101.1a1.67,1.67,0,0,1-1.89-1.89V80.68a1.67,1.67,0,0,1,1.89-1.89h5.23a1.67,1.67,0,0,1,1.89,1.89V98.34c0-1.11.56-1.66,1.59-1.66h.09a1.34,1.34,0,0,0,1.07-.52,1.21,1.21,0,0,0,.27-.77,3.15,3.15,0,0,0-.09-.64L109.9,89.1a3.41,3.41,0,0,1-.07-.66q0-1.25,1.62-1.25h4.76a2.21,2.21,0,0,1,1.39.36,2.27,2.27,0,0,1,.66,1.25l1.46,6.33a1.76,1.76,0,0,0,1.84,1.55h.77q1.68,0,1.68-1.91V87.32a1.67,1.67,0,0,0-1.89-1.89H110.36q-1.34,0-1.34-1.07a1.8,1.8,0,0,1,.21-.75l1.62-3.37a2.09,2.09,0,0,1,2.32-1.46h6.33q1.11,0,1.11.89a1.43,1.43,0,0,1-.09.41,1.51,1.51,0,0,0-.09.46q0,.84,1.12.84h9.92a1.68,1.68,0,0,1,1.89,1.91V98.82a1.67,1.67,0,0,1-1.89,1.89H110.11q-1.89,0-1.89-1.71Z"/><path class="cls-3" d="M34,138.13a13.29,13.29,0,0,1-4.19,2.53V139q3.64-1.66,4.67-4.19h1.19v16.07H34Z"/><path class="cls-3" d="M46.91,151.11q-5.3-.08-5.3-8.07t5.22-8.23Q52,135,52.06,143,52,151,46.91,151.11Zm-.16-14.88q-3.25.24-3.32,6.81,0,6.81,3.4,6.73,3.4.08,3.4-6.73T46.76,136.23Z"/><path class="cls-3" d="M60.27,151.11Q55,151,55,143t5.22-8.23q5.14.16,5.22,8.23Q65.34,151,60.27,151.11Zm-.16-14.88q-3.25.24-3.32,6.81,0,6.81,3.4,6.73,3.4.08,3.4-6.73T60.11,136.23Z"/><path class="cls-3" d="M72,134.65q3.24.08,3.32,4.27-.08,4-3.4,4.12-3.17-.24-3.32-4.12Q68.8,134.81,72,134.65Zm0,7.12q1.9-.16,2-2.93-.08-2.77-2-2.85-1.9.08-2,2.93Q70.15,141.62,72,141.77Zm0,9.58h1.58l8.79-16.62H80.83Zm10.37-8.23q3.24.16,3.32,4.19-.08,4-3.48,4-3.09-.24-3.24-4Q79.09,143.28,82.42,143.12Zm-.08,7q2-.08,2.06-2.93-.08-2.77-2-2.85t-2,2.93Q80.52,149.93,82.34,150.16Z"/><path class="cls-3" d="M89.92,137.82h7.44v-4.2h1.58v4.2h7.44v8.71h-1.5v-1H98.94v7H97.36v-7H91.42v1h-1.5Zm1.5,1.42v4.83h5.94v-4.83Zm13.45,0H98.94v4.83h5.94Z"/><path class="cls-3" d="M114.91,133.78h1.5V144.7h-1.5v-4q-.87.47-2.85,1.42-1,.56-1.58.79l-.55-1.5q2.77-1.11,5-2.22Zm14,17a13.8,13.8,0,0,0-.79,1.5q-6.49-1.19-8.63-4.83-1.66,3.64-8.86,5a.61.61,0,0,0-.08-.24q-.4-.71-.63-1.11,6.81-1.11,8.23-4.19h-7.83v-1.35h8.39a12.08,12.08,0,0,0,.24-1.19h1.5a5.77,5.77,0,0,1-.32,1.19h8.47v1.35h-8Q122.9,150.16,128.92,150.8Zm-18.36-15,1-.87a28.72,28.72,0,0,1,2.77,2.85l-1.11.95Q112.06,137.5,110.56,135.84Zm6.41,3.24a14.33,14.33,0,0,0,4-5.46l1.5.32q-.48,1-1,1.74h6.41v1.19q-2.21,5.3-9.81,7.12-.32-.63-.71-1.35,6.57-1.43,8.94-5.62h-5.62a5.87,5.87,0,0,1-.55.63,19.34,19.34,0,0,1,2.53,2.14l-1,.95a28.21,28.21,0,0,0-2.29-2.06q-.63.71-1.35,1.42l-.71-.71Z"/><path class="cls-3" d="M140,145.26h1.42V147h8.71v1.35h-8.71v4.12H140v-4.12h-8.71V147H140Zm-3.88-3.56.71,1.11q-2.3,1.27-4.67,2.85l-.79-1.19Q134.13,143,136.11,141.69Zm3.32-7.76,1.5-.39.87,2.14h8V137h-9.42l.87.48q-1.74,1.66-2.85,2.53.87-.08,3.09-.08a17.35,17.35,0,0,0,2-2l1.27.71a51.68,51.68,0,0,1-6.09,5.14q1.19-.08,3.32-.16-.56,0,1-.08-.56-.71-1-1.27l1-.63q.71.87,2.45,3.25l-1.11.71a11.35,11.35,0,0,0-.71-.95q-.63,0-1.9.08-2.61.08-3.8.16a2.19,2.19,0,0,0-.48.08,5.47,5.47,0,0,0-.87.16l-.47-1.27a13.84,13.84,0,0,0,1.27-.63c-.05,0,0,0,.16-.08a20.06,20.06,0,0,0,2.69-2.14q-.47,0-1.35.08h-1.27a1.36,1.36,0,0,1-.55.08,2.12,2.12,0,0,1-.47.08l-.4-1.11a.33.33,0,0,1,.24-.08l.63-.4a14.06,14.06,0,0,0,2.61-2.69H131.6v-1.34h8.55c-.05-.16-.16-.45-.32-.87A3.74,3.74,0,0,1,139.43,133.94Zm-7.36,4.91.95-1a28,28,0,0,1,2.77,2.38l-1.11,1.11Q133.65,140.27,132.07,138.85Zm13.69,2.77q.39.24,1.11.71,2,1.27,3.17,2.14l-.79,1.11q-2.77-2-4.27-2.93Zm3.48-2.77a6.77,6.77,0,0,1-.79.63q-1.5,1.19-2.45,1.82l-.79-1a2.38,2.38,0,0,1,.32-.24q1.9-1.43,2.77-2.22Z"/></g></g></svg>