<svg xmlns="http://www.w3.org/2000/svg" width="60.37" height="60.37" viewBox="0 0 60.37 60.37"><defs><style>.cls-1{opacity:0.4;}.cls-2{fill:#fdda48;}.cls-3{fill:#f5cc27;}.cls-4{fill:#be8000;}</style></defs><title>qian3</title><g id="图层_2" data-name="图层 2"><g id="图层_1-2" data-name="图层 1"><path class="cls-1" d="M6,44.24a28.63,28.63,0,1,0,28.19-41l-28.52,41Z"/><path class="cls-2" d="M0,28.63A28.63,28.63,0,0,0,28.63,57.26V0A28.63,28.63,0,0,0,0,28.63Z"/><path class="cls-3" d="M28.63,0V57.26A28.63,28.63,0,0,0,28.63,0Z"/><path class="cls-4" d="M34.22,22.23a6.89,6.89,0,0,0-4.68-2.16c-1.94,0-2.88.54-2.88,2.34,0,3.42,11.61,3.6,11.61,11.79a8.57,8.57,0,0,1-7,8.91v4.77h-5v-4.5a15.21,15.21,0,0,1-8-3.42l3.33-5.22c2.43,1.8,4.32,2.52,6.21,2.52,2.25,0,3.15-.77,3.15-2.52,0-3.6-11.61-4.1-11.61-12a8.29,8.29,0,0,1,6.93-8.64V9.45h5V14A11.77,11.77,0,0,1,38,17.82Z"/></g></g></svg>