<svg xmlns="http://www.w3.org/2000/svg" width="61" height="99.11" viewBox="0 0 61 99.11"><defs><style>.cls-1{fill:#ff7043;}.cls-2{fill:#ecbe13;}.cls-3{fill:#ba623a;}</style></defs><title>qiqiu1</title><g id="图层_2" data-name="图层 2"><g id="图层_1-2" data-name="图层 1"><path class="cls-1" d="M61,24.28c0,28.59-30.5,60-30.5,60S0,52.87,0,24.28C0,5.13,13.66,0,30.5,0S61,4.1,61,24.28Z"/><path class="cls-2" d="M54.45,24.28c0,28.59-24,60-24,60s-24-31.38-24-60C6.55,5.13,17.27,0,30.5,0S54.45,4.1,54.45,24.28Z"/><path class="cls-1" d="M43.49,24.28c0,28.59-13,60-13,60s-13-31.38-13-60C17.51,5.13,23.33,0,30.5,0S43.49,4.1,43.49,24.28Z"/><path class="cls-2" d="M25.27,90.13H35.73a0,0,0,0,1,0,0v5.24A3.74,3.74,0,0,1,32,99.11H29a3.74,3.74,0,0,1-3.74-3.74V90.13A0,0,0,0,1,25.27,90.13Z"/><rect class="cls-3" x="23.71" y="88.95" width="13.57" height="3.13"/></g></g></svg>