<svg xmlns="http://www.w3.org/2000/svg" width="67" height="108.86" viewBox="0 0 67 108.86"><defs><style>.cls-1{fill:#26a69a;}.cls-2{fill:#efe68b;}.cls-3{fill:#ff6138;}.cls-4{fill:#6d4c41;}</style></defs><title>qiqiu2</title><g id="图层_2" data-name="图层 2"><g id="图层_1-2" data-name="图层 1"><path class="cls-1" d="M67,26.67c0,31.4-33.5,65.87-33.5,65.87S0,58.07,0,26.67C0,5.63,15,0,33.5,0S67,4.51,67,26.67Z"/><path class="cls-2" d="M59.81,26.67c0,31.4-26.31,65.87-26.31,65.87S7.19,58.07,7.19,26.67C7.19,5.63,19,0,33.5,0S59.81,4.51,59.81,26.67Z"/><path class="cls-1" d="M47.77,26.67c0,31.4-14.27,65.87-14.27,65.87S19.23,58.07,19.23,26.67C19.23,5.63,25.62,0,33.5,0S47.77,4.51,47.77,26.67Z"/><path class="cls-3" d="M27.76,99H39.24a0,0,0,0,1,0,0v6.12a3.74,3.74,0,0,1-3.74,3.74h-4a3.74,3.74,0,0,1-3.74-3.74V99A0,0,0,0,1,27.76,99Z"/><rect class="cls-4" x="27" y="97.18" width="13" height="4" rx="2" ry="2"/></g></g></svg>