<svg xmlns="http://www.w3.org/2000/svg" width="38.85" height="43.04" viewBox="0 0 38.85 43.04"><defs><style>.cls-1{fill:#e5e5e5;}.cls-2{fill:#333;}.cls-2,.cls-3{fill-rule:evenodd;}.cls-3{fill:#ff9500;}.cls-4{fill:#fff;}</style></defs><title>geren</title><g id="图层_2" data-name="图层 2"><g id="图层_1-2" data-name="图层 1"><polygon class="cls-1" points="17.99 1.22 18.09 40.55 21.78 41.42 36.03 41.9 37.41 40.93 37.41 28.01 33.54 26.73 22.36 27.12 22.36 24.04 25.05 19.65 26.54 12.86 25.03 4.85 17.99 1.22"/><path class="cls-2" d="M35.28,28.12a1.15,1.15,0,0,1,1.14,1.14v10.2a1.15,1.15,0,0,1-1.14,1.14H21.21a1.15,1.15,0,0,1-1.14-1.14V29.27a1.15,1.15,0,0,1,1.14-1.14H35.28Zm0-2.43H21.21a3.57,3.57,0,0,0-3.57,3.57v10.2A3.57,3.57,0,0,0,21.21,43H35.28a3.57,3.57,0,0,0,3.57-3.57V29.27a3.57,3.57,0,0,0-3.57-3.57h0m0,0"/><path class="cls-3" d="M32.33,33.33H24.47a1.21,1.21,0,0,1,0-2.43h7.85a1.21,1.21,0,0,1,0,2.43h0m0,0"/><path class="cls-3" d="M29.57,38.44h-5.1a1.21,1.21,0,0,1,0-2.43h5.1a1.21,1.21,0,0,1,0,2.43h0m0,0"/><path class="cls-2" d="M13.61,41.9a1.22,1.22,0,0,1-.32,0,53.09,53.09,0,0,1-6.36-2.24C2.27,37.61,0,35.56,0,33.35c0-1.34.81-2.55,2.39-3.6a18.28,18.28,0,0,1,4.36-2,44,44,0,0,1,5.08-1.28V24.25A16.75,16.75,0,0,1,8.1,18.31,22.21,22.21,0,0,1,6.94,10.7C6.94,3.9,10.54,0,16.82,0a9.8,9.8,0,0,1,7.86,3.42,12.19,12.19,0,0,1,2.53,7.89,16,16,0,0,1-3,9.64,1.21,1.21,0,0,1-1.88-1.53,10.78,10.78,0,0,0,1.25-2.19,14.74,14.74,0,0,0,1.23-5.92c0-2.08-.57-8.89-8-8.89-2.57,0-4.5.76-5.73,2.27a9.28,9.28,0,0,0-1.73,6c0,5.44,1.32,9,4.54,12.2a1.21,1.21,0,0,1,.36.86v3.77a1.21,1.21,0,0,1-1,1.2,42.72,42.72,0,0,0-5.75,1.38c-3.73,1.21-5.05,2.46-5.05,3.24s1.43,2.3,5.44,4a51.54,51.54,0,0,0,6.06,2.13,1.21,1.21,0,0,1-.32,2.38h0m0,0"/><circle class="cls-4" cx="33.64" cy="37.22" r="1.21"/></g></g></svg>