<svg xmlns="http://www.w3.org/2000/svg" width="93.23" height="79.04" viewBox="0 0 93.23 79.04"><defs><style>.cls-1{fill:#919191;}.cls-2{fill:#6d6d6d;}.cls-3{fill:#bfbfbf;}.cls-4{fill:#9b9b9b;}.cls-5{fill:#be8000;}.cls-6{fill:#d89112;}.cls-7{fill:#fbd609;}</style></defs><title>qian2</title><g id="图层_2" data-name="图层 2"><g id="图层_1-2" data-name="图层 1"><path class="cls-1" d="M93.23,32a27.9,27.9,0,0,1-.2,3.34,27.61,27.61,0,0,1-3.3,10.16q-.56,1-1.2,2a28.07,28.07,0,0,1-2.1,2.75q-.58.67-1.2,1.29a27.69,27.69,0,0,1-2.1,1.92q-.58.49-1.2.94c-.68.5-1.38,1-2.1,1.41-.39.24-.79.47-1.2.69q-1,.55-2.1,1-.59.26-1.2.49-1,.39-2.1.7-.59.17-1.2.32-1,.25-2.1.42-.6.1-1.2.17-1,.13-2.1.17l-1.2,0c-.71,0-1.41,0-2.1-.08-.4,0-.8-.07-1.2-.12-.71-.08-1.41-.19-2.1-.33L58.86,59q-1.07-.26-2.1-.6-.61-.2-1.2-.42c-.71-.27-1.41-.57-2.1-.9q-.61-.29-1.2-.61A27.56,27.56,0,0,1,49.87,55q-.61-.41-1.2-.86a27.22,27.22,0,0,1-2.1-1.76c-.41-.38-.81-.78-1.2-1.18a27.45,27.45,0,0,1-2.1-2.47q-.63-.84-1.2-1.72A27.61,27.61,0,0,1,40,43.05a27.32,27.32,0,0,1-1.2-3.32A27.78,27.78,0,1,1,93,28.18c0,.15,0,.3.06.46A27.9,27.9,0,0,1,93.23,32Z"/><path class="cls-2" d="M53.47,28.18V57q-.61-.29-1.2-.61V28.18Z"/><path class="cls-2" d="M56.76,28.18V58.36q-.61-.2-1.2-.42V28.18Z"/><path class="cls-2" d="M60.06,28.18v31L58.86,59V28.18Z"/><path class="cls-2" d="M63.36,28.18V59.67c-.4,0-.8-.07-1.2-.12V28.18Z"/><path class="cls-2" d="M66.66,28.18V59.72l-1.2,0V28.18Z"/><path class="cls-2" d="M70,28.18V59.38q-.6.1-1.2.17V28.18Z"/><path class="cls-2" d="M73.25,28.18V58.64q-.59.17-1.2.32V28.18Z"/><path class="cls-2" d="M76.55,28.18V57.45q-.59.26-1.2.49V28.18Z"/><path class="cls-2" d="M79.84,28.18V55.74c-.39.24-.79.47-1.2.69V28.18Z"/><path class="cls-2" d="M83.14,28.18V53.39q-.58.49-1.2.94V28.18Z"/><path class="cls-2" d="M86.44,28.18v22q-.58.67-1.2,1.29V28.18Z"/><path class="cls-2" d="M89.74,28.18v17.3q-.56,1-1.2,2V28.18Z"/><path class="cls-2" d="M93,28.18v7.14a27.49,27.49,0,0,1-1.2,5.39V28.18Z"/><path class="cls-2" d="M40,28.18V43.05a27.32,27.32,0,0,1-1.2-3.32V28.18Z"/><path class="cls-2" d="M43.28,28.18V48.69q-.63-.84-1.2-1.72V28.18Z"/><path class="cls-2" d="M46.57,28.18V52.34c-.41-.38-.81-.78-1.2-1.18v-23Z"/><path class="cls-2" d="M49.87,28.18V55q-.61-.41-1.2-.86V28.18Z"/><circle class="cls-3" cx="65.46" cy="27.78" r="27.78"/><path class="cls-4" d="M65.46,51.05A23.28,23.28,0,1,1,88.74,27.78,23.3,23.3,0,0,1,65.46,51.05Zm0-45.16A21.88,21.88,0,1,0,87.34,27.78,21.91,21.91,0,0,0,65.46,5.89Z"/><path class="cls-4" d="M71,19.88a4.76,4.76,0,0,1-1.12-.68A19.89,19.89,0,0,0,67,17.74L67,25q1.57.45,3,1a12.94,12.94,0,0,1,2.56,1.23,6,6,0,0,1,1.77,1.66A4,4,0,0,1,75,31.1a4.75,4.75,0,0,1-.65,2.51,5.75,5.75,0,0,1-1.74,1.8A9.22,9.22,0,0,1,70,36.58a17.21,17.21,0,0,1-3.1.59v2.35l-1.86.31,0-2.55h-.21q-1,0-2.28-.12A12.79,12.79,0,0,1,60,36.66,6.06,6.06,0,0,1,58,35.61c-1.06-.85-1.31-2.59.46-2.95,1.94-.4,2.64,1.42,3.71,2.25a5.21,5.21,0,0,0,2.93.87v-7.6q-1.5-.45-2.89-1a11.68,11.68,0,0,1-2.47-1.27A6.26,6.26,0,0,1,58,24.22a4.14,4.14,0,0,1-.65-2.33A4.37,4.37,0,0,1,58,19.54a5.31,5.31,0,0,1,1.67-1.67,8.65,8.65,0,0,1,2.44-1.05,16.08,16.08,0,0,1,2.94-.5V13.82l2-.18,0,2.61q.93,0,2.17.13a11.71,11.71,0,0,1,2.35.45,5.5,5.5,0,0,1,1.87.95,2,2,0,0,1,.76,1.61C74.17,20.9,72.28,20.5,71,19.88Zm-9.85.9a2.69,2.69,0,0,0,.32,1.35,3.4,3.4,0,0,0,.86,1,5.83,5.83,0,0,0,1.25.75q.71.32,1.48.58l0-6.72a7.12,7.12,0,0,0-1.54.32,4.24,4.24,0,0,0-1.23.62,3.14,3.14,0,0,0-.83.91A2.29,2.29,0,0,0,61.1,20.79Zm10,11.4a2.36,2.36,0,0,0-.35-1.29,3.51,3.51,0,0,0-.93-1,6.33,6.33,0,0,0-1.34-.72q-.76-.31-1.56-.55l0,7.07a7.52,7.52,0,0,0,1.65-.42,5,5,0,0,0,1.34-.75,3.4,3.4,0,0,0,.89-1A2.73,2.73,0,0,0,71.14,32.18Z"/><path class="cls-5" d="M55.55,51.27a27.91,27.91,0,0,1-.2,3.34,27.61,27.61,0,0,1-3.3,10.16q-.56,1-1.2,2a28.07,28.07,0,0,1-2.1,2.75q-.58.67-1.2,1.29a27.69,27.69,0,0,1-2.1,1.92q-.58.49-1.2.94c-.68.5-1.38,1-2.1,1.41-.39.24-.79.47-1.2.69q-1,.55-2.1,1-.59.26-1.2.49-1,.39-2.1.7-.59.17-1.2.32-1,.25-2.1.42-.6.1-1.2.17Q30,79,29,79l-1.2,0c-.71,0-1.41,0-2.1-.08-.4,0-.8-.07-1.2-.12-.71-.08-1.41-.19-2.1-.33l-1.2-.26q-1.07-.26-2.1-.6-.61-.2-1.2-.42c-.71-.27-1.41-.57-2.1-.9q-.61-.29-1.2-.61a27.55,27.55,0,0,1-2.4-1.46q-.61-.41-1.2-.86a27.22,27.22,0,0,1-2.1-1.76c-.41-.38-.81-.78-1.2-1.18A27.44,27.44,0,0,1,5.6,68Q5,67.15,4.4,66.27a27.61,27.61,0,0,1-2.1-3.92A27.32,27.32,0,0,1,1.1,59a27.78,27.78,0,1,1,54.2-11.56c0,.15,0,.3.06.46A27.91,27.91,0,0,1,55.55,51.27Z"/><path class="cls-6" d="M15.79,47.47V76.33q-.61-.29-1.2-.61V47.47Z"/><path class="cls-6" d="M19.08,47.47V77.66q-.61-.2-1.2-.42V47.47Z"/><path class="cls-6" d="M22.38,47.47v31l-1.2-.26V47.47Z"/><path class="cls-6" d="M25.68,47.47V79c-.4,0-.8-.07-1.2-.12V47.47Z"/><path class="cls-6" d="M29,47.47V79l-1.2,0V47.47Z"/><path class="cls-6" d="M32.27,47.47V78.68q-.6.1-1.2.17V47.47Z"/><path class="cls-6" d="M35.57,47.47V77.94q-.59.17-1.2.32V47.47Z"/><path class="cls-6" d="M38.87,47.47V76.74q-.59.26-1.2.49V47.47Z"/><path class="cls-6" d="M42.16,47.47V75c-.39.24-.79.47-1.2.69V47.47Z"/><path class="cls-6" d="M45.46,47.47V72.69q-.58.49-1.2.94V47.47Z"/><path class="cls-6" d="M48.76,47.47v22q-.58.67-1.2,1.29V47.47Z"/><path class="cls-6" d="M52.06,47.47v17.3q-.56,1-1.2,2V47.47Z"/><path class="cls-6" d="M55.35,47.47v7.14A27.49,27.49,0,0,1,54.15,60V47.47Z"/><path class="cls-6" d="M2.3,47.47V62.35A27.32,27.32,0,0,1,1.1,59V47.47Z"/><path class="cls-6" d="M5.6,47.47V68Q5,67.15,4.4,66.27V47.47Z"/><path class="cls-6" d="M8.89,47.47V71.64c-.41-.38-.81-.78-1.2-1.18v-23Z"/><path class="cls-6" d="M12.19,47.47V74.26q-.61-.41-1.2-.86V47.47Z"/><circle class="cls-7" cx="27.78" cy="47.07" r="27.78"/><path class="cls-5" d="M27.78,70.34A23.27,23.27,0,1,1,51,47.07,23.3,23.3,0,0,1,27.78,70.34Zm0-45.16A21.89,21.89,0,1,0,49.67,47.07,21.91,21.91,0,0,0,27.78,25.18Z"/><path class="cls-5" d="M33.27,39.18a4.76,4.76,0,0,1-1.11-.68A19.9,19.9,0,0,0,29.33,37l0,7.21q1.57.45,3,1a13,13,0,0,1,2.56,1.23,6,6,0,0,1,1.77,1.66,4,4,0,0,1,.66,2.29,4.75,4.75,0,0,1-.65,2.51,5.75,5.75,0,0,1-1.74,1.8,9.21,9.21,0,0,1-2.57,1.16,17.21,17.21,0,0,1-3.1.59v2.35l-1.86.31,0-2.55h-.21q-1,0-2.28-.12A12.78,12.78,0,0,1,22.34,56a6.06,6.06,0,0,1-2.07-1.05C19.21,54,19,52.32,20.73,52c1.94-.4,2.64,1.42,3.71,2.25a5.21,5.21,0,0,0,2.93.87v-7.6q-1.5-.45-2.89-1A11.68,11.68,0,0,1,22,45.23a6.26,6.26,0,0,1-1.72-1.72,4.14,4.14,0,0,1-.65-2.33,4.37,4.37,0,0,1,.62-2.35,5.31,5.31,0,0,1,1.67-1.67,8.65,8.65,0,0,1,2.44-1.05,16.08,16.08,0,0,1,2.94-.5V33.12l2-.18,0,2.61q.93,0,2.17.13a11.71,11.71,0,0,1,2.35.45,5.5,5.5,0,0,1,1.87.95,2,2,0,0,1,.76,1.61C36.48,40.19,34.6,39.8,33.27,39.18Zm-9.85.9a2.69,2.69,0,0,0,.32,1.35,3.4,3.4,0,0,0,.86,1,5.83,5.83,0,0,0,1.25.75q.71.32,1.48.58l0-6.72a7.12,7.12,0,0,0-1.54.32,4.24,4.24,0,0,0-1.23.62,3.14,3.14,0,0,0-.83.91A2.29,2.29,0,0,0,23.42,40.08Zm10,11.4a2.36,2.36,0,0,0-.35-1.29,3.51,3.51,0,0,0-.93-1,6.33,6.33,0,0,0-1.34-.72q-.76-.31-1.56-.55l0,7.07a7.52,7.52,0,0,0,1.65-.42,5,5,0,0,0,1.34-.75,3.4,3.4,0,0,0,.89-1A2.73,2.73,0,0,0,33.46,51.48Z"/></g></g></svg>