<svg xmlns="http://www.w3.org/2000/svg" width="690.16" height="299.92" viewBox="0 0 690.16 299.92"><defs><style>.cls-1{isolation:isolate;}.cls-2{fill:#fcca59;}.cls-3{fill:#f7c154;}.cls-20,.cls-4,.cls-5{fill:none;}.cls-5{stroke:#e55585;}.cls-20,.cls-5{stroke-linecap:round;}.cls-20,.cls-32,.cls-5{stroke-miterlimit:10;stroke-width:0.5px;}.cls-6{fill:#d84b2a;}.cls-7{fill:#f26d42;}.cls-8{fill:#dd512a;}.cls-9{fill:#bc362b;}.cls-10{fill:#6d3524;}.cls-11{fill:#f6d067;}.cls-12{fill:#546a9f;}.cls-13{fill:#dd3368;}.cls-14{fill:#83a3e2;}.cls-15{fill:#dd4a85;}.cls-16{fill:#7749f2;}.cls-17{fill:#a00a4e;}.cls-18{font-size:6.47px;}.cls-18,.cls-19,.cls-22,.cls-23,.cls-26,.cls-27{fill:#fff;}.cls-18,.cls-19,.cls-26,.cls-27{font-family:ArialMT, Arial;}.cls-19{font-size:3.8px;}.cls-20{stroke:#667af2;}.cls-21{fill:#f2a457;}.cls-23{opacity:0.1;}.cls-24{fill:#e8984f;}.cls-25{fill:#a156df;opacity:0.3;mix-blend-mode:multiply;}.cls-26{font-size:7.77px;}.cls-27{font-size:4.57px;}.cls-28{fill:#333;}.cls-29{fill:#d8340e;}.cls-30{fill:#c6240a;}.cls-31,.cls-33,.cls-34{fill:#ffc708;}.cls-32{fill:#cf0f13;stroke:#ffc708;}.cls-33{font-size:8.69px;}.cls-33,.cls-34{font-family:MicrosoftYaHei, Microsoft YaHei;}.cls-34{font-size:5.37px;}.cls-35{fill:#e04e27;}.cls-36{fill:#eebf8f;}.cls-37{fill:#e4ae7d;}.cls-38{fill:#e0a774;}.cls-39{fill:#fcece2;}.cls-40{fill:#966312;}.cls-41{fill:#9763db;}</style></defs><title>banner2</title><g class="cls-1"><g id="图层_2" data-name="图层 2"><g id="图层_1-2" data-name="图层 1"><rect class="cls-2" x="0.16" width="690" height="299.92"/><ellipse class="cls-3" cx="401.71" cy="148.95" rx="28.69" ry="28.6"/><path class="cls-3" d="M465.94,273.68c14,0,14.05,21.74,0,21.74s-14.05-21.74,0-21.74Z"/><path class="cls-3" d="M597,242.38q-9-16-19.32-31.06c-4-5.79,5.47-11.23,9.41-5.49q10.35,15.11,19.32,31.06c3.43,6.11-6,11.6-9.41,5.49Z"/><path class="cls-3" d="M556.6,240.24l-22.72-37.49c-3.64-6,5.79-11.47,9.41-5.49L566,234.76c3.64,6-5.79,11.47-9.41,5.49Z"/><path class="cls-3" d="M561,176.13l-21.2-41.05c-3.21-6.21,6.2-11.71,9.41-5.49l21.2,41.05c3.21,6.21-6.2,11.71-9.41,5.49Z"/><path class="cls-3" d="M513.16,159.78q-13.71-27.44-29.78-53.55c-3.68-6,5.75-11.44,9.41-5.49q16.08,26.13,29.78,53.55c3.12,6.24-6.28,11.75-9.41,5.49Z"/><path class="cls-3" d="M503.76,218.81a273.78,273.78,0,0,1-25.48-43.29c-3-6.29,6.43-11.82,9.41-5.49a273.78,273.78,0,0,0,25.48,43.29c4.1,5.69-5.36,11.13-9.41,5.49Z"/><path class="cls-3" d="M374.91,253c.07-17.75,15.38-32.81,33.24-32.4,7,.16,7,11,0,10.87-11.94-.28-22.29,9.56-22.34,21.53,0,7-10.93,7-10.9,0Z"/><path class="cls-3" d="M608.45,81.63c-23.1-22-13.16-54.22,6.59-74.58,4.89-5,12.59,2.65,7.71,7.69-15.6,16.08-25.32,41.35-6.59,59.21,5.08,4.84-2.64,12.52-7.71,7.69Z"/><path class="cls-3" d="M547.79,93.33l-1.09,1.09c-4,4-11.43,4.33-15.42,0a11,11,0,0,1,0-15.37L532.37,78c4-4,11.44-4.33,15.42,0a11,11,0,0,1,0,15.37Z"/><path class="cls-3" d="M440.93,68.65l-7.25-27.27c-1.8-6.77,8.71-9.66,10.51-2.89l7.25,27.27c1.8,6.77-8.71,9.66-10.51,2.89Z"/><path class="cls-3" d="M366.2,54.52,378.43,36.2c3.87-5.79,13.32-.36,9.41,5.49L375.61,60c-3.87,5.79-13.32.36-9.41-5.49Z"/><path class="cls-4" d="M537.9.46H503.19A48.08,48.08,0,0,0,537.9.46Z"/><path class="cls-4" d="M53.16,189.68c-2.25,2.25-5.4,1.82-7.71,0l-14-11c-2.32-1.83-1.89-5.8,0-7.69,2.25-2.25,5.4-1.82,7.71,0l14,11C55.48,183.82,55.05,187.79,53.16,189.68Z"/><path class="cls-4" d="M104.63,272.32c0,6.09-5,10.6-10.9,10.87s-10.9-5.18-10.9-10.87v-.72c0-6.09,5-10.61,10.9-10.87s10.9,5.18,10.9,10.87Z"/><path class="cls-4" d="M113.79,170.59l-1.09,1.09a11.12,11.12,0,0,1-15.42,0c-4.34-4-4-11.35,0-15.37l1.09-1.09a11.12,11.12,0,0,1,15.42,0C118.13,159.19,117.83,166.57,113.79,170.59Z"/><path class="cls-4" d="M115.43,120.24c-8.72,11-24-4.52-15.42-15.37,15.92-20,22.23-45.92,6-67.7-8.38-11.25,10.56-22.08,18.83-11C147.24,56.26,137,93.12,115.43,120.24Z"/><path class="cls-4" d="M182.5,117.38c-7.73,7.83-16.24,16-16.38,27.74-.13,10.59,4.82,22.07,8.63,31.81,5.11,13.06-16,18.67-21,5.78-5.5-14.07-11.38-30.15-8.77-45.49,2.44-14.31,12.25-25.2,22.13-35.21S192.35,107.4,182.5,117.38Z"/><path class="cls-4" d="M202,167.25c-14.05,0-14-21.74,0-21.74S216,167.25,202,167.25Z"/><path class="cls-4" d="M242.9,132.84c-2.71,1.58-5.74.43-7.46-1.95a25.53,25.53,0,0,0-10.83-8.55c-2.74-1.11-4.66-3.57-3.81-6.69.71-2.59,4-4.9,6.71-3.8a38.85,38.85,0,0,1,17.34,13.54C246.59,127.8,245.26,131.46,242.9,132.84Z"/><path class="cls-4" d="M244.5,75.17C237,71.26,234,61.81,226.86,57.82c-9.45-5.26-25.92,2.24-35.48,4.51-13.66,3.24-19.44-17.73-5.8-21,14.77-3.5,36.71-14,50.62-4.24,4.69,3.29,12.23,16.06,16.83,17,5.63,1.21,19.87-9.76,24.79-12.57,12.2-7,23.17,11.81,11,18.77C277.24,67,258.38,82.4,244.5,75.17Z"/><path class="cls-4" d="M286.25,105.41c-6.87,1.09-9.81-9.38-2.9-10.48a163.28,163.28,0,0,1,36.4-1.82c7,.45,7,11.32,0,10.87A150.59,150.59,0,0,0,286.25,105.41Z"/><path class="cls-4" d="M316.13,255.65l.73-.72Z"/><path class="cls-4" d="M321.24,220.65C302.32,225.3,287.5,239,282,257.72c-4,13.41-25,7.66-21-5.78a75.88,75.88,0,0,1,54.52-52.26C329.09,196.33,334.86,217.3,321.24,220.65Z"/><path class="cls-3" d="M83.68,65A71.09,71.09,0,0,0,42.22.46H12.3l.13,135.67A71.21,71.21,0,0,0,83.68,65Z"/><path class="cls-3" d="M40.39,239.67c-1.6-2.85-3.51-6.51-5.71-10.42q-4.65,3.19-9.21,6.52Z"/><path class="cls-3" d="M12.8,236.06c3.06,4.81,6,9.59,8.76,14.57,2.66,4.75,10.21,7.33,14.92,3.9A307.62,307.62,0,0,1,88,223.69q10.72-10.87,17.26,1l10.78,12,21.56,24.06c4.09,4.57,11.2,3.71,15.42,0A902.44,902.44,0,0,1,295,158.54c12.11-7.06,1.14-25.86-11-18.77a930.83,930.83,0,0,0-137.65,98.1q3.36,3.78,6.73,7.55H137.63q4.32-3.81,8.69-7.55c-8.48-9.56-16.93-19.16-25.6-28.54-6.43-7-11.4-12.62-21.17-12.62-11.18,0-26.54,9.89-36,14.9a296.4,296.4,0,0,0-28.87,17.62c2.2,3.91,4.11,7.57,5.71,10.42l-14.92-3.9q4.57-3.33,9.21-6.52c-6.42-11.42-15.3-25-26.12-26.94a19,19,0,0,0-8.56.62v24.56a11.94,11.94,0,0,1,2.52-.71C8.34,225.9,9,230,12.8,236.06Z"/><path class="cls-3" d="M153,245.43q-3.37-3.77-6.73-7.55-4.37,3.75-8.69,7.55Z"/><path class="cls-3" d="M167.08,102c-9.88,10-19.69,20.9-22.13,35.21-2.62,15.34,3.27,31.41,8.77,45.49,5,12.89,26.13,7.28,21-5.78-3.81-9.73-8.75-21.22-8.63-31.81.14-11.75,8.65-19.9,16.38-27.74C192.35,107.4,176.94,92,167.08,102Z"/><path class="cls-3" d="M53.16,182l-14-11c-2.31-1.82-5.46-2.25-7.71,0-1.89,1.89-2.32,5.86,0,7.69l14,11c2.31,1.82,5.46,2.25,7.71,0C55.05,187.79,55.48,183.82,53.16,182Z"/><path class="cls-3" d="M98.37,155.22l-1.09,1.09c-4,4-4.34,11.4,0,15.37a11.12,11.12,0,0,0,15.42,0l1.09-1.09c4-4,4.34-11.4,0-15.37A11.12,11.12,0,0,0,98.37,155.22Z"/><path class="cls-3" d="M106,37.16c16.21,21.78,9.9,47.68-6,67.7-8.63,10.85,6.7,26.33,15.42,15.37,21.57-27.12,31.81-64,9.43-94C116.59,15.08,97.65,25.91,106,37.16Z"/><path class="cls-3" d="M277.81,41.59C272.89,44.4,258.66,55.37,253,54.16c-4.6-1-12.14-13.75-16.83-17-13.91-9.76-35.85.74-50.62,4.24-13.65,3.23-7.87,24.2,5.8,21,9.56-2.27,26-9.77,35.48-4.51,7.17,4,10.14,13.44,17.64,17.35,13.88,7.24,32.74-8.18,44.32-14.81C301,53.4,290,34.61,277.81,41.59Z"/><path class="cls-3" d="M227.52,111.86c-2.73-1.11-6,1.2-6.71,3.8-.86,3.11,1.07,5.57,3.81,6.69a25.53,25.53,0,0,1,10.83,8.55c1.72,2.38,4.74,3.53,7.46,1.95,2.36-1.37,3.69-5,2-7.44A38.85,38.85,0,0,0,227.52,111.86Z"/><path class="cls-3" d="M202,145.52c-14,0-14.05,21.74,0,21.74S216.07,145.52,202,145.52Z"/><path class="cls-3" d="M93.72,260.73c-5.91.26-10.9,4.78-10.9,10.87v.72c0,5.69,5,11.13,10.9,10.87s10.9-4.78,10.9-10.87v-.72C104.63,265.91,99.61,260.46,93.72,260.73Z"/><path class="cls-3" d="M315.45,199.68a75.88,75.88,0,0,0-54.52,52.26c-4,13.44,17,19.18,21,5.78,5.55-18.71,20.37-32.42,39.29-37.08C334.86,217.3,329.09,196.33,315.45,199.68Z"/><path class="cls-3" d="M319.76,104c7,.45,7-10.42,0-10.87a163.28,163.28,0,0,0-36.4,1.82c-6.91,1.1-4,11.57,2.9,10.48A150.59,150.59,0,0,1,319.76,104Z"/><path class="cls-3" d="M647.75,260.64c6.95-6.51,13.45-12.62,15.5-22.24,7.45-34.95-52.34-51.09-25.47-85.74,13.61-17.55,39.71-22.9,44.71-47.24C687.88,79.1,665,60.82,645.62,48c-5.86-3.89-11.32,5.53-5.5,9.38,23.18,15.38,44.47,39,19.57,64-10.59,10.64-24.59,15.82-33.54,28.38-11.67,16.38-7.34,32.77,4.32,47.72,5.18,6.64,12,12.24,16.57,19.36,10.56,16.44,0,28.71-11.56,40.12-6.15,6-11.6,12.14-13.88,20.65a38,38,0,0,0,.67,21.83h11.59C628.71,286.76,636,271.61,647.75,260.64Z"/><path class="cls-3" d="M673.09,176.94V178c0,6.09,5,10.61,10.9,10.87a9.76,9.76,0,0,0,6-1.81V168a11.92,11.92,0,0,0-6-1.93C678.1,165.81,673.09,171.26,673.09,176.94Z"/><path class="cls-3" d="M674.1,299.46H690V285a10.21,10.21,0,0,0-7.1-2.58C673,282.37,670.12,293.08,674.1,299.46Z"/><path class="cls-3" d="M464.06,252.3c7.91-10.84,10-24.47,2.12-35.8s-26.83-.56-18.83,11c7.62,11-12.7,22-18.64,28.28a47.34,47.34,0,0,0-12.27,43.7h22.39C429.93,276.58,452.48,268.16,464.06,252.3Z"/><path class="cls-3" d="M483,14.63a70.81,70.81,0,0,0,76.78-1A10.8,10.8,0,0,0,563.93.46h-26a48.08,48.08,0,0,1-34.71,0H479.11C476.83,5.08,477.34,11.13,483,14.63Z"/><line class="cls-5" x1="431.64" y1="174.8" x2="361.26" y2="245.18"/><path class="cls-6" d="M516.47,269.92,393.44,246c-4.66-.91-7.37-5.17-6-9.48l26.44-84.58c1.35-4.3,6.26-7.07,10.91-6.14l122.87,24.44c4.61.92,7.28,5.17,5.94,9.45l-26.29,84.1A9.58,9.58,0,0,1,516.47,269.92Z"/><rect class="cls-7" x="396.95" y="165.84" width="161.88" height="105.01" rx="12" ry="12" transform="translate(86.85 -132.57) rotate(17.35)"/><path class="cls-8" d="M402.17,193.68h156.5a0,0,0,0,1,0,0V244a0,0,0,0,1,0,0H402.17a5.37,5.37,0,0,1-5.37-5.37V199.05A5.37,5.37,0,0,1,402.17,193.68Z" transform="translate(87 -132.5) rotate(17.35)"/><path class="cls-9" d="M532.27,216.9h6.26a12.81,12.81,0,0,1,12.81,12.81v26.8a1.18,1.18,0,0,1-1.18,1.18H520.64a1.18,1.18,0,0,1-1.18-1.18v-26.8a12.81,12.81,0,0,1,12.81-12.81Z" transform="translate(149.15 677.49) rotate(-72.64)"/><ellipse class="cls-8" cx="539.01" cy="238.57" rx="8.57" ry="10.2" transform="translate(150.56 681.91) rotate(-72.65)"/><ellipse class="cls-10" cx="539.01" cy="238.57" rx="4.29" ry="5.1" transform="translate(150.56 681.91) rotate(-72.65)"/><path class="cls-11" d="M560.87,131.55l1.93-1.33-.48-.7a1.79,1.79,0,0,0-2.5-.46l-1.08.74,1.06,1.55A.76.76,0,0,0,560.87,131.55Z"/><path class="cls-11" d="M557.41,133.23l-1.11-1.61-.06-.09-.54.37,1,1.49a1,1,0,0,1-.25,1.36l-1.93,1.33.39.57L557,135.2A1.42,1.42,0,0,0,557.41,133.23Z"/><path class="cls-11" d="M563.48,135.22l1.87-1.29-.33-.49-2.08,1.43a1.42,1.42,0,0,0-.36,2l1.16,1.69.06.09.57-.39-1.14-1.65A1,1,0,0,1,563.48,135.22Z"/><path class="cls-11" d="M560.77,138.13a1.42,1.42,0,0,0-2-.36l-2.11,1.45.35.51L559,138.4a1,1,0,0,1,1.36.25l1.09,1.59.54-.37-.06-.09Z"/><path class="cls-11" d="M559.22,132a1.42,1.42,0,0,0,2,.36l2.11-1.45-.37-.54L561,131.73a1,1,0,0,1-1.36-.25l-1.06-1.55-.54.37.06.09Z"/><path class="cls-11" d="M559.1,138.58l-1.93,1.33.51.74a1.79,1.79,0,0,0,2.49.46l1.08-.74-1.09-1.59A.76.76,0,0,0,559.1,138.58Z"/><path class="cls-11" d="M565.48,134.11l-1.87,1.29a.76.76,0,0,0-.2,1.06l1.14,1.65,1-.7a1.79,1.79,0,0,0,.46-2.5Z"/><path class="cls-11" d="M562.4,137a1.63,1.63,0,0,1,.42-2.27l2.08-1.43-1.47-2.14-2.11,1.45a1.63,1.63,0,0,1-2.27-.42l-1.13-1.64-.06-.09-1.43,1,.06.09,1.11,1.61a1.63,1.63,0,0,1-.42,2.27l-2.11,1.45,1.52,2.21,2.11-1.45A1.63,1.63,0,0,1,561,138l1.14,1.66.06.09,1.46-1-.06-.09Z"/><path class="cls-11" d="M556.55,133.51l-1-1.49-1.08.74a1.79,1.79,0,0,0-.46,2.49l.44.64,1.93-1.33A.76.76,0,0,0,556.55,133.51Z"/><path class="cls-12" d="M563.61,135.39l1.87-1.29-.12-.18-1.87,1.29a1,1,0,0,0-.25,1.36l1.14,1.65.18-.12-1.14-1.65A.76.76,0,0,1,563.61,135.39Z"/><path class="cls-12" d="M561,131.73l1.93-1.33-.12-.18-1.93,1.33a.76.76,0,0,1-1.06-.2l-1.06-1.55-.18.12,1.06,1.55A1,1,0,0,0,561,131.73Z"/><path class="cls-12" d="M556.73,133.39l-1-1.49-.18.12,1,1.49a.76.76,0,0,1-.2,1.06l-1.93,1.33.12.18,1.93-1.33A1,1,0,0,0,556.73,133.39Z"/><path class="cls-12" d="M559,138.4l-1.93,1.33.12.18,1.93-1.33a.76.76,0,0,1,1.06.2l1.09,1.59.18-.12-1.09-1.59A1,1,0,0,0,559,138.4Z"/><path class="cls-12" d="M557.59,133.11l-1.11-1.61-.06-.09-.18.12.06.09,1.11,1.61a1.42,1.42,0,0,1-.36,2l-2.11,1.45.12.18,2.11-1.45A1.63,1.63,0,0,0,557.59,133.11Z"/><path class="cls-12" d="M562.58,136.84a1.42,1.42,0,0,1,.36-2l2.08-1.43-.12-.18-2.08,1.43a1.63,1.63,0,0,0-.42,2.27l1.16,1.69.06.09.18-.12-.06-.09Z"/><path class="cls-12" d="M559,132.15a1.63,1.63,0,0,0,2.27.42l2.11-1.45-.12-.18-2.11,1.45a1.42,1.42,0,0,1-2-.36l-1.13-1.64-.06-.09-.18.12.06.09Z"/><path class="cls-12" d="M561,138a1.63,1.63,0,0,0-2.27-.42L556.58,139l.12.18,2.11-1.45a1.42,1.42,0,0,1,2,.36l1.14,1.66.06.09.18-.12-.06-.09Z"/><path class="cls-13" d="M579.41,108.43l-33.22,22.85a2.47,2.47,0,0,0-.64,3.43L569.16,169a2.47,2.47,0,0,0,3.43.64l2.64-1.82C598.83,138.33,579.41,108.43,579.41,108.43Zm-26.75,32.81a.3.3,0,1,1-.59-.11.68.68,0,0,0-.54-.79.3.3,0,1,1,.11-.59A1.28,1.28,0,0,1,552.66,141.24Zm1.31.16a.3.3,0,1,1-.59-.11,1.91,1.91,0,0,0-1.53-2.23.3.3,0,1,1,.11-.59,2.51,2.51,0,0,1,2,2.93Zm1.34.27a.3.3,0,0,1-.59-.11,3.31,3.31,0,0,0-2.65-3.85.3.3,0,0,1,.11-.59A3.91,3.91,0,0,1,555.31,141.67Zm10.26-4.26-1,.7-.18.12-.57.39-.18.12-1.46,1-.18.12-.54.37-.18.12-1.08.74a1.79,1.79,0,0,1-2.49-.46l-.51-.74-.12-.18-.35-.51-.12-.18-1.52-2.21-.12-.18-.39-.57-.12-.18-.44-.64a1.79,1.79,0,0,1,.46-2.49l1.08-.74.18-.12.54-.37.18-.12,1.43-1,.18-.12.54-.37.18-.12,1.08-.74a1.79,1.79,0,0,1,2.5.46l.48.7.12.18.37.54.12.18,1.47,2.14.12.18.33.49.12.18.55.8A1.79,1.79,0,0,1,565.57,137.41Z"/><path class="cls-14" d="M552.18,137.12a.3.3,0,0,0-.11.59,3.31,3.31,0,0,1,2.65,3.85.3.3,0,0,0,.59.11A3.91,3.91,0,0,0,552.18,137.12Z"/><path class="cls-14" d="M552,138.47a.3.3,0,1,0-.11.59,1.91,1.91,0,0,1,1.53,2.23.3.3,0,1,0,.59.11,2.51,2.51,0,0,0-2-2.93Z"/><path class="cls-14" d="M551.64,139.75a.3.3,0,1,0-.11.59.68.68,0,0,1,.54.79.3.3,0,1,0,.59.11A1.28,1.28,0,0,0,551.64,139.75Z"/><path class="cls-14" d="M633.48,124.79l-23.6-34.31a2.47,2.47,0,0,0-3.43-.64l-27,18.59s19.42,29.9-4.18,59.41l57.61-39.62A2.47,2.47,0,0,0,633.48,124.79ZM611.28,106,600,113.72a2.47,2.47,0,0,1-3.43-.64l-2.88-4.18a2.47,2.47,0,0,1,.64-3.43l11.28-7.76a2.47,2.47,0,0,1,3.43.64l2.88,4.18A2.47,2.47,0,0,1,611.28,106Z"/><path class="cls-15" d="M633.48,124.79l-23.6-34.31a2.47,2.47,0,0,0-3.43-.64l-27,18.59s19.42,29.9-4.18,59.41l57.61-39.62A2.47,2.47,0,0,0,633.48,124.79ZM611.28,106,600,113.72a2.47,2.47,0,0,1-3.43-.64l-2.88-4.18a2.47,2.47,0,0,1,.64-3.43l11.28-7.76a2.47,2.47,0,0,1,3.43.64l2.88,4.18A2.47,2.47,0,0,1,611.28,106Z"/><rect class="cls-16" x="593.48" y="100.71" width="18.63" height="10.01" rx="2.47" ry="2.47" transform="translate(46.23 360.23) rotate(-34.52)"/><rect class="cls-17" x="593.48" y="100.71" width="18.63" height="10.01" rx="2.47" ry="2.47" transform="translate(46.23 360.23) rotate(-34.52)"/><text class="cls-18" transform="matrix(0.82, -0.57, 0.57, 0.82, 568.67, 156.54)">0000 0000 0000 0000</text><text class="cls-19" transform="matrix(0.82, -0.57, 0.57, 0.82, 572.34, 161.49)">NAME SURNAME</text><text class="cls-19" transform="matrix(0.82, -0.57, 0.57, 0.82, 598.77, 143.32)">00/00</text><line class="cls-20" x1="404.04" y1="250.24" x2="366.78" y2="287.5"/><line class="cls-5" x1="608.28" y1="62.56" x2="537.9" y2="132.94"/><line class="cls-20" x1="605.52" y1="30.36" x2="568.26" y2="67.62"/><path class="cls-21" d="M453.48,77.22l-5.67-3.62a3,3,0,0,0-4.1.9l-1.64,2.57,3.79,2.42Z"/><path class="cls-21" d="M443,130.88l-.72-2.42-18.22-11.64,4.62-7.24,9.83,6.28-6.76-22.65-15,23.48a3,3,0,0,0,.9,4.1l15,9.57h0A94.55,94.55,0,0,0,443,130.88Z"/><polygon class="cls-22" points="428.69 109.59 424.06 116.83 442.28 128.46 438.52 115.87 428.69 109.59"/><path class="cls-21" d="M469,137.62c-.58-.37-1-.27-1.52.55L466.32,140c-.55.86-.47,1.28.11,1.65s1,.27,1.54-.59l1.17-1.83C469.67,138.41,469.58,138,469,137.62Z"/><path class="cls-21" d="M465.4,135.32c-.58-.37-1-.27-1.52.55l-1.17,1.83c-.55.86-.47,1.28.11,1.65s1,.27,1.54-.59l1.17-1.83C466.06,136.11,466,135.69,465.4,135.32Z"/><path class="cls-21" d="M521.37,127.73l-6.76,10.58-22.3-14.24-32.16,9.59-2.82,4.41-3.81-2.43-1.82.54-3.69,1.1a3,3,0,0,1-3.69-2L443,130.88a94.55,94.55,0,0,1-10.35-.52h0L492,168.25a3,3,0,0,0,4.1-.9L523,125.16a3,3,0,0,0-.9-4.1l-6.27-4-7.62,2.27Zm-58.9,12.18c-1-.62-1.15-1.38-.36-2.61l1.15-1.81c.77-1.2,1.52-1.35,2.5-.73s1.16,1.38.39,2.58L465,139.15C464.21,140.38,463.45,140.54,462.47,139.92Zm3.6,2.3c-1-.62-1.15-1.38-.36-2.61l1.15-1.81c.77-1.2,1.52-1.35,2.5-.73s1.16,1.38.39,2.58l-1.16,1.81C467.81,142.68,467.05,142.84,466.07,142.22Zm7.28-.27-1.15,1.81c-.79,1.23-1.54,1.39-2.53.76s-1.15-1.38-.36-2.61l1.16-1.81c.77-1.2,1.52-1.35,2.5-.73S474.12,140.75,473.35,141.94Zm17.14,19a5.52,5.52,0,0,1-4.85-4.49,5.51,5.51,0,1,1,4.06-6.34,5.51,5.51,0,1,1,.79,10.83Z"/><path class="cls-21" d="M472.61,139.93c-.58-.37-1-.27-1.52.55l-1.17,1.83c-.55.86-.47,1.28.11,1.65s1,.27,1.54-.59l1.17-1.83C473.27,140.71,473.18,140.29,472.61,139.93Z"/><path class="cls-22" d="M465.76,134.77c-1-.62-1.73-.47-2.5.73l-1.15,1.81c-.79,1.23-.61,2,.36,2.61s1.74.47,2.53-.77l1.15-1.81C466.92,136.14,466.74,135.39,465.76,134.77Zm-.22,2.16-1.17,1.83c-.55.86-1,1-1.54.59s-.66-.79-.11-1.65l1.17-1.83c.53-.83.94-.92,1.52-.55S466.06,136.11,465.54,136.93Z"/><path class="cls-23" d="M465.76,134.77c-1-.62-1.73-.47-2.5.73l-1.15,1.81c-.79,1.23-.61,2,.36,2.61s1.74.47,2.53-.77l1.15-1.81C466.92,136.14,466.74,135.39,465.76,134.77Zm-.22,2.16-1.17,1.83c-.55.86-1,1-1.54.59s-.66-.79-.11-1.65l1.17-1.83c.53-.83.94-.92,1.52-.55S466.06,136.11,465.54,136.93Z"/><path class="cls-22" d="M469.36,137.07c-1-.62-1.73-.47-2.5.73l-1.15,1.81c-.79,1.23-.61,2,.36,2.61s1.74.47,2.53-.77l1.16-1.81C470.52,138.44,470.34,137.7,469.36,137.07Zm-.22,2.16L468,141.07c-.55.86-1,1-1.54.59s-.66-.79-.11-1.65l1.17-1.83c.53-.83.94-.92,1.52-.55S469.67,138.41,469.14,139.23Z"/><path class="cls-23" d="M469.36,137.07c-1-.62-1.73-.47-2.5.73l-1.15,1.81c-.79,1.23-.61,2,.36,2.61s1.74.47,2.53-.77l1.16-1.81C470.52,138.44,470.34,137.7,469.36,137.07Zm-.22,2.16L468,141.07c-.55.86-1,1-1.54.59s-.66-.79-.11-1.65l1.17-1.83c.53-.83.94-.92,1.52-.55S469.67,138.41,469.14,139.23Z"/><path class="cls-22" d="M473,139.37c-1-.62-1.73-.47-2.5.73l-1.16,1.81c-.79,1.23-.61,2,.36,2.61s1.74.47,2.53-.76l1.15-1.81C474.12,140.75,473.94,140,473,139.37Zm-.22,2.16-1.17,1.83c-.55.86-1,1-1.54.59s-.66-.79-.11-1.65l1.17-1.83c.53-.83.94-.92,1.52-.55S473.27,140.71,472.74,141.53Z"/><path class="cls-23" d="M473,139.37c-1-.62-1.73-.47-2.5.73l-1.16,1.81c-.79,1.23-.61,2,.36,2.61s1.74.47,2.53-.76l1.15-1.81C474.12,140.75,473.94,140,473,139.37Zm-.22,2.16-1.17,1.83c-.55.86-1,1-1.54.59s-.66-.79-.11-1.65l1.17-1.83c.53-.83.94-.92,1.52-.55S473.27,140.71,472.74,141.53Z"/><polygon class="cls-16" points="514.61 138.31 521.37 127.73 508.21 119.33 492.31 124.07 514.61 138.31"/><polygon class="cls-23" points="514.61 138.31 521.37 127.73 508.21 119.33 492.31 124.07 514.61 138.31"/><polygon class="cls-22" points="457.33 138.08 460.15 133.67 453.52 135.65 457.33 138.08"/><polygon class="cls-23" points="457.33 138.08 460.15 133.67 453.52 135.65 457.33 138.08"/><path class="cls-14" d="M489.7,150.16a5.53,5.53,0,1,0-4.06,6.34,5.5,5.5,0,0,1,4.06-6.34Z"/><path class="cls-23" d="M489.7,150.16a5.53,5.53,0,1,0-4.06,6.34,5.5,5.5,0,0,1,4.06-6.34Z"/><path class="cls-16" d="M491.65,150a5.49,5.49,0,0,0-1.95.15,5.5,5.5,0,0,1-4.06,6.34,5.52,5.52,0,1,0,6-6.49Z"/><path class="cls-23" d="M491.65,150a5.49,5.49,0,0,0-1.95.15,5.5,5.5,0,0,1-4.06,6.34,5.52,5.52,0,1,0,6-6.49Z"/><path class="cls-16" d="M489.77,151.73a5.51,5.51,0,0,0-.06-1.58,5.5,5.5,0,0,0-4.06,6.34A5.51,5.51,0,0,0,489.77,151.73Z"/><path class="cls-23" d="M489.77,151.73a5.51,5.51,0,0,0-.06-1.58,5.5,5.5,0,0,0-4.06,6.34A5.51,5.51,0,0,0,489.77,151.73Z"/><path class="cls-21" d="M500.69,114.52q2.53-1.86,4.93-4L453.48,77.22l-7.62,2.27Z"/><path class="cls-24" d="M442.28,128.46l.72,2.42q1.43,0,3,0Z"/><path class="cls-21" d="M460.25,129.75a97.93,97.93,0,0,0,28.33-8.06l-53.27-34,.64-1-4.19,6.55,6.76,22.65Z"/><path class="cls-16" d="M435.31,87.66l53.27,34a72.59,72.59,0,0,0,12.12-7.16L442.07,77.08l-2.8,4.39-3.32,5.2Z"/><path class="cls-23" d="M435.31,87.66l53.27,34a72.59,72.59,0,0,0,12.12-7.16L442.07,77.08l-2.8,4.39-3.32,5.2Z"/><path class="cls-22" d="M460.25,129.75l-21.73-13.88,3.76,12.59,3.74,2.39A125.27,125.27,0,0,0,460.25,129.75Z"/><path class="cls-23" d="M460.25,129.75l-21.73-13.88,3.76,12.59,3.74,2.39A125.27,125.27,0,0,0,460.25,129.75Z"/><path class="cls-24" d="M500.69,114.52l7.52,4.8,7.62-2.27-10.22-6.53Q503.23,112.67,500.69,114.52Z"/><path class="cls-24" d="M443,130.88l1.32,4.41a3,3,0,0,0,3.69,2l3.69-1.1,1.82-.54-7.5-4.79Q444.43,130.89,443,130.88Z"/><path class="cls-24" d="M460.25,129.75l1.7,1.09-1.81,2.83,32.16-9.59-3.73-2.38A97.93,97.93,0,0,1,460.25,129.75Z"/><path class="cls-16" d="M492.31,124.07l15.9-4.74-7.52-4.8a72.59,72.59,0,0,1-12.12,7.16Z"/><path class="cls-23" d="M492.31,124.07l15.9-4.74-7.52-4.8a72.59,72.59,0,0,1-12.12,7.16Z"/><path class="cls-22" d="M460.25,129.75a125.27,125.27,0,0,1-14.23,1.1l7.5,4.79,6.63-2,1.81-2.83Z"/><path class="cls-23" d="M460.25,129.75a125.27,125.27,0,0,1-14.23,1.1l7.5,4.79,6.63-2,1.81-2.83Z"/><path class="cls-23" d="M460.25,129.75a125.27,125.27,0,0,1-14.23,1.1l7.5,4.79,6.63-2,1.81-2.83Z"/><path class="cls-14" d="M506.67,71.72,474,36a3,3,0,0,0-4.19-.19L432.83,69.55a3,3,0,0,0-.19,4.19l2.6,2.84C474.29,99.8,506.67,71.72,506.67,71.72ZM463.19,45.31a.36.36,0,1,1,0-.72.81.81,0,0,0,.85-.78.36.36,0,1,1,.72,0A1.54,1.54,0,0,1,463.19,45.31Zm0,1.59a.36.36,0,1,1,0-.72,2.3,2.3,0,0,0,2.4-2.19.36.36,0,1,1,.72,0,3,3,0,0,1-3.15,2.88Zm-.1,1.64a.36.36,0,0,1,0-.72A4,4,0,0,0,467.29,44a.36.36,0,0,1,.72,0A4.7,4.7,0,0,1,463.11,48.53ZM469.88,60l-1-1.1-.18-.19-.56-.61-.18-.19-1.44-1.57-.18-.19-.53-.58-.18-.19-1.06-1.16a2.16,2.16,0,0,1,.14-3l.8-.73.19-.18.55-.51.19-.18,2.37-2.17.19-.18.61-.56.19-.18.69-.63a2.16,2.16,0,0,1,3,.14l1.06,1.16.18.19.53.58.18.19,1.41,1.54.18.19.53.58.18.19,1.06,1.16a2.16,2.16,0,0,1-.14,3l-.75.69-.19.18-.58.53-.19.18-2.31,2.11-.19.18-.52.48-.19.18-.86.79A2.16,2.16,0,0,1,469.88,60Z"/><path class="cls-11" d="M476.08,53.48l1.9,2.08.75-.69a2.16,2.16,0,0,0,.14-3l-1.06-1.16-1.67,1.52A.92.92,0,0,0,476.08,53.48Z"/><path class="cls-11" d="M473.5,49.63l1.73-1.58.1-.08-.53-.58-1.6,1.46a1.18,1.18,0,0,1-1.66-.07l-1.9-2.08-.61.56,2.07,2.27A1.7,1.7,0,0,0,473.5,49.63Z"/><path class="cls-11" d="M472.15,57.2l1.84,2,.52-.48-2-2.23a1.7,1.7,0,0,0-2.4-.11l-1.82,1.66-.1.08.56.61,1.78-1.63A1.18,1.18,0,0,1,472.15,57.2Z"/><path class="cls-11" d="M468.23,54.45a1.7,1.7,0,0,0,.11-2.4l-2.07-2.27-.55.51,1.9,2.08a1.18,1.18,0,0,1-.07,1.66l-1.71,1.57.53.58.09-.09Z"/><path class="cls-11" d="M475.24,51.6a1.7,1.7,0,0,0-.11,2.4l2.07,2.27.58-.53-1.9-2.08A1.18,1.18,0,0,1,476,52l1.67-1.52-.53-.58L477,50Z"/><path class="cls-11" d="M467.42,52.54l-1.9-2.08-.8.73a2.16,2.16,0,0,0-.14,3l1.06,1.16,1.71-1.57A.92.92,0,0,0,467.42,52.54Z"/><path class="cls-11" d="M473.79,59.38l-1.84-2a.92.92,0,0,0-1.29-.06l-1.78,1.63,1,1.1a2.16,2.16,0,0,0,3,.14Z"/><path class="cls-11" d="M469.89,56.19a2,2,0,0,1,2.77.12l2,2.23L477,56.44l-2.07-2.27a2,2,0,0,1,.12-2.77l1.76-1.61.09-.09-1.41-1.54-.1.09-1.73,1.58a2,2,0,0,1-2.77-.12l-2.07-2.27-2.37,2.17,2.07,2.27a2,2,0,0,1-.12,2.77l-1.78,1.63-.09.09L468,57.94l.1-.08Z"/><path class="cls-11" d="M473,48.66l1.6-1.46L473.56,46a2.16,2.16,0,0,0-3-.14l-.69.63,1.9,2.08A.92.92,0,0,0,473,48.66Z"/><path class="cls-12" d="M472,57.37l1.84,2,.19-.18-1.84-2a1.18,1.18,0,0,0-1.66-.07l-1.78,1.63.18.19,1.78-1.63A.92.92,0,0,1,472,57.37Z"/><path class="cls-12" d="M475.89,53.66l1.9,2.08.19-.18-1.9-2.08a.92.92,0,0,1,.06-1.29l1.67-1.52-.18-.19L476,52A1.18,1.18,0,0,0,475.89,53.66Z"/><path class="cls-12" d="M473.2,48.85l1.6-1.46-.18-.19L473,48.66a.92.92,0,0,1-1.29-.06l-1.9-2.08-.19.18,1.9,2.08A1.18,1.18,0,0,0,473.2,48.85Z"/><path class="cls-12" d="M467.61,52.36l-1.9-2.08-.19.18,1.9,2.08a.92.92,0,0,1-.06,1.29l-1.71,1.57.18.19L467.53,54A1.18,1.18,0,0,0,467.61,52.36Z"/><path class="cls-12" d="M473.68,49.83l1.73-1.58.1-.09-.18-.19-.1.08-1.73,1.58a1.7,1.7,0,0,1-2.4-.11L469,47.26l-.19.18,2.07,2.27A2,2,0,0,0,473.68,49.83Z"/><path class="cls-12" d="M470.06,56.39a1.7,1.7,0,0,1,2.4.11l2,2.23.19-.18-2-2.23a2,2,0,0,0-2.77-.12l-1.82,1.66-.1.08.18.19.1-.08Z"/><path class="cls-12" d="M475.06,51.4a2,2,0,0,0-.12,2.77L477,56.44l.19-.18L475.13,54a1.7,1.7,0,0,1,.11-2.4L477,50l.09-.09-.18-.19-.09.09Z"/><path class="cls-12" d="M468.41,54.65a2,2,0,0,0,.12-2.77l-2.07-2.27-.19.18,2.07,2.27a1.7,1.7,0,0,1-.11,2.4l-1.78,1.63-.09.09.18.19.09-.09Z"/><path class="cls-22" d="M468,44.06a.36.36,0,0,0-.72,0,4,4,0,0,1-4.14,3.79.36.36,0,0,0,0,.72A4.7,4.7,0,0,0,468,44.06Z"/><path class="cls-22" d="M466.36,44a.36.36,0,1,0-.72,0,2.3,2.3,0,0,1-2.4,2.19.36.36,0,1,0,0,.72A3,3,0,0,0,466.36,44Z"/><path class="cls-22" d="M464.79,43.84a.36.36,0,1,0-.72,0,.81.81,0,0,1-.85.78.36.36,0,1,0,0,.72A1.54,1.54,0,0,0,464.79,43.84Z"/><path class="cls-14" d="M496.15,138.8,533.09,105a3,3,0,0,0,.19-4.19l-26.61-29.1s-32.38,28.07-71.43,4.86l56.71,62A3,3,0,0,0,496.15,138.8Zm18.73-29.54L503.78,97.11a3,3,0,0,1,.19-4.19l4.5-4.12a3,3,0,0,1,4.19.19l11.11,12.15a3,3,0,0,1-.19,4.19l-4.5,4.12A3,3,0,0,1,514.89,109.25Z"/><path class="cls-23" d="M496.15,138.8,533.09,105a3,3,0,0,0,.19-4.19l-26.61-29.1s-32.38,28.07-71.43,4.86l56.71,62A3,3,0,0,0,496.15,138.8Zm18.73-29.54L503.78,97.11a3,3,0,0,1,.19-4.19l4.5-4.12a3,3,0,0,1,4.19.19l11.11,12.15a3,3,0,0,1-.19,4.19l-4.5,4.12A3,3,0,0,1,514.89,109.25Z"/><rect class="cls-16" x="507.76" y="87.92" width="12.04" height="22.4" rx="2.97" ry="2.97" transform="translate(67.74 372.68) rotate(-42.44)"/><rect class="cls-25" x="507.76" y="87.92" width="12.04" height="22.4" rx="2.97" ry="2.97" transform="translate(67.74 372.68) rotate(-42.44)"/><text class="cls-26" transform="matrix(0.67, 0.74, -0.74, 0.67, 447.46, 66.91)">0000 0000 0000 0000</text><text class="cls-27" transform="matrix(0.67, 0.74, -0.74, 0.67, 442.18, 72.09)">NAME SURNAME</text><text class="cls-27" transform="matrix(0.67, 0.74, -0.74, 0.67, 468.2, 100.54)">00/00</text><path class="cls-28" d="M35.29,126.44l-7-1.73,4.64-17,1.88-16h7.37l-1.91,17ZM54.17,96.31h10.6l-.7,7.32H53.41L51.52,122H43.66L47.6,85.8H33.25L34.06,79H48l1-9.29H36.43l.83-7H49.79l.44-4.08h7.49l-.42,4.08h11l-.66,7h-11l-1,9.29H68.32l-.64,6.81H55.25Zm-9.84,22.56h56.21l-.51,7.57H41.2l-3.79-10,1.5-13.18ZM79.7,83.2l-7.52-1.3,7.65-15.05H74.48l.59-6.62h29.39L101.7,82.55H89.93l.55-7.1H94.9l1.26-8.6H87.68Zm-7.21,5.87h28.76l-1.52,22.31H70.49Zm7.36,7.57L79.23,104H92.16l.54-7.33Z"/><path class="cls-28" d="M176.22,101H123.34L122,126.44h-7.89L116,94h68l-.18,32.44H174l.09-6.89h2ZM117.81,67.48l.36-6.31h29.41l-1.16-2.51,7.85-1.56L156,61.18h27.85l0,6.31Zm63.79,4.45-.13,17.13H118.83l.94-17.13Zm-54.26,6.41-.2,4.2h46.43l.06-4.2ZM171,124H127.41l.86-18.38h43Zm-35.47-6.87h27.74l.1-4.76H135.77Z"/><path class="cls-28" d="M196.53,99l24.42-16.74,0-1.94H205l-1.86,5.52-5.44-4.87,2.18-7.4,28.73-.32,0,11.94-25,16.81Zm8.09-27.67h-7.57l0-10.44,12.51-.31-.65-2.19,9-1.25,1,3.44h10.63L229.84,71H222l-.08-3.5-17.29.32Zm-6.78,33,32.64-.33.64,22.13-33.18.35ZM231.3,99l-7,2.66-21.1-14.52,7.3-2.93Zm-8.72,12.75-16.25.34.07,6.47,16.33-.34Zm29.13,4.42-12,10.31-6.37-4.14,13.92-11.94L246.11,83.2h8l1.29,27.16L270,122.65l-6.35,3.8Zm-7.29-43.24,1-6H232.55l-.22-6.93h33.44l.4,6.93H253.6l-.66,6h12L267,109.69h-7.79L257.72,80H242.16L243.32,110h-8.12L234,72.89Z"/><path class="cls-28" d="M288.31,126.44l-8-1.73,1.34-14.35-3.33-49.82H313l-.83-2.19,8.3-1.25,1.28,3.44h22.83l.78,6.62H286.31l3.34,45.91ZM294.4,103l-.51-6.65h53.34l1.44,12.36-49.52,17.77-5.62-4.83,46-16.64-.22-2ZM331.3,73.53,331,70.66h7.88l.32,2.87h6.95l.8,6.75h-7l1.25,11.08H300.55l-.91-11.08h-7.3l-.52-6.75h7.26l-.24-2.87h7.88l.25,2.87ZM298.19,110l5.8-4.38,49.47,16-5,4.83Zm9.76-25.53h24.52L332,80.28H307.58Z"/><path class="cls-28" d="M31.68,167.9l4.58-1.53V155.83H31.68v-1.25h4.58v-9.16H31.54v-1.25H42.36v1.25H37.65v9.16h4.44v1.25H37.65V166l4.44-1.39V166l-10.41,3.33Zm11.93,3.75L53.6,160V147.78H52.22v11.79L41.95,171.65ZM44.31,144H61.65v18H60.26V145.29H45.69v16.79H44.31ZM62.62,165.4l-.42,6H53.33V161.24h1.39V170H61l.42-5.41Z"/><path class="cls-28" d="M73.17,153.06v18.45H71.78V154.72l-2.36,2.78h-1.8l9-10.68H68.31v-1.25h9.43l2.08-2.5h1.8l-2.08,2.5H98.14v1.25H78.44Zm14.29-4.72v9H97.59v1.25H87.46v11.52H97.59v1.25H75.94v-1.25H86.07V158.6H75.94v-1.25H86.07v-9Z"/><path class="cls-28" d="M104.52,171.79l5-10.27v-3.88h-6.8v-1.25h6.8v-11h-5.41v-1.25h28.3v1.25H127v11h7.21v1.25H127v14.29h-1.39V157.63H110.91v4.16l-4.86,10Zm6.38-26.36v11h14.71v-11Z"/><path class="cls-28" d="M139.07,160.82l3.47-1.53v-9.85h-3.47V148.2h3.47v-5.69h1.39v5.69h3.75v1.25h-3.75v9.3l3.47-1.53v1.39l-3.47,1.53v11.52h-3.47l-.69-1.25h2.78v-9.71l-3.47,1.53Zm8.6-9.3V150l11-7.91L169.46,150v1.67l-10.82-8Zm21.64,13.6-1.11,6.52H150.45V153.19h16.09v1.25l-.42,10.41h-8.6l-.83-1.25h8.19l.28-9.16H151.84v15.82H167.1l1.11-6.24Z"/><path class="cls-28" d="M232.79,161.66l-10.68-7.22v-.69H207.4l-3.19,8h-1.39l3.19-8.32v-9.71h24.28v10h-6.94l9.43,6.38Zm-25.67,4.72,21,4.58v1.25l-21-4.44ZM228.9,152.5V145H207.4v7.49Zm-17.76,5.83,13.46,3.61v1.53l-13.46-3.75Z"/><path class="cls-28" d="M269.69,144.31v1.25H238.48v-1.25Zm-5.13,13.18v1.39l-7.63,3.88v1h11.24v1.39H256.93v6.52h-9.16l-1-1.39h8.74v-5.13H239.31v-1.39h16.23v-1.8l6.52-3.05H243.33v-1.25h21.23Zm.14-9v6.1H243.06v-6.1Zm-20.12,1.39v3.33h18.59v-3.33Zm7.77-7.91H254l1.66,2.36H254Z"/><path class="cls-28" d="M280.24,142.79,274,156.66h-1.53l6.24-13.87Zm-2.64,10.54v18.18h-1.39V153.33ZM304.24,163l-.55,8.46H293.42V152.08h-2.5l-8.74,19.42h-1.53l8.88-19.42H280.8v-1.25h8.74v-8h1.39v8h12.76v1.25h-8.88v18.18h7.49l.56-7.91Zm-8.6-19.84,4,6h1.66l-4.16-6Z"/><path class="cls-28" d="M314.93,163.88l-4,7.63h-1.53l4-7.63Zm-2.64-15.4v9.71h11.79v2.91h1.39v-2.91h11.65v-9.71H325.47V145.7h13.6v-1.25h-13.6v-1.94h-1.39v1.94h-14v1.25h14v2.77Zm-1.8,13.87h28.44l-1.66-3.05H336l.83,1.8H310.49Zm13.6-12.49v2.78H313.68v-2.78Zm0,4v3.05H313.68v-3.05Zm8,11v5.69H318.26V164h-1.39v7.77h16.65V166Zm-8-1.25,3.19,4.86h1.66l-3.19-4.86Zm1.39-11v-2.78h10.27v2.78Zm10.27,4.3H325.47v-3.05h10.27Zm-1.53,6.8,4.86,8h1.53l-4.86-8Z"/><rect class="cls-28" x="34.98" y="204.08" width="145.36" height="44.32"/><rect class="cls-7" x="31.3" y="199.96" width="145.36" height="44.32"/><path class="cls-22" d="M61.53,232.22l5.81-14.71,2.85.47-5.69,14.23H71v2.73H45.87v-2.73ZM60,209.92l.71,2.13h10v2.61H46v-2.61H57.5l-.59-1.66Zm-10.32,7.47,5.1,11.27-2.85.71-5.1-11.27Z"/><path class="cls-22" d="M79.2,221.31h3.32v2.49H75.4l3.79-9.25H75.64v-2.49h7l-.47-1.66,3-.47.59,2.13H91.3v2.49H82Zm8.18-3.79L77.3,234.95l-1.78-2,10.2-17.43Zm-4,17.43-1.54-2.37,7.59-13.4,1.54,2.37Zm3.08-7.35L87.86,225l3.44,7.59-1.54,2.37Zm6.64,7.35v-2.61h5.34V211.11h3v23.84Zm2.85-23v17.91H93.19V211.94Z"/><path class="cls-22" d="M110.51,219.17l-2,8.89-2.13-1.78,1.9-8.89Zm15.77-6-.71,21.82h-6.76v-2.61h3.68l.59-16.72H106.71v-2.49Zm-19.21,21.23,11.39-23.84,3,.47-11.5,24Zm23.48-20.52,1.66,18L130,234.35l-1.66-18Z"/><path class="cls-22" d="M149.64,212.53h11.74V215H149.64v4.39h12.57V222H149.64v13h-3V222h-9.84v-2.61h9.84v-9h3Zm4.15,12.69,9,5.34-2,1.78-9.25-5.57Z"/><path d="M196.77,219a.68.68,0,0,1,0-1h0a.68.68,0,0,1,1,0l6.77,6.77a.68.68,0,0,1,0,1h0a.68.68,0,0,1-1,0Z"/><path d="M203.54,224.89a.68.68,0,0,1,1,0h0a.68.68,0,0,1,0,1l-6.77,6.77a.68.68,0,0,1-1,0h0a.68.68,0,0,1,0-1Z"/><path d="M206.89,219a.68.68,0,0,1,0-1h0a.68.68,0,0,1,1,0l6.77,6.77a.68.68,0,0,1,0,1h0a.68.68,0,0,1-1,0Z"/><path d="M213.66,224.89a.68.68,0,0,1,1,0h0a.68.68,0,0,1,0,1l-6.77,6.77a.68.68,0,0,1-1,0h0a.68.68,0,0,1,0-1Z"/><path d="M217.93,219a.68.68,0,0,1,0-1h0a.68.68,0,0,1,1,0l6.77,6.77a.68.68,0,0,1,0,1h0a.68.68,0,0,1-1,0Z"/><path d="M224.7,224.89a.68.68,0,0,1,1,0h0a.68.68,0,0,1,0,1l-6.77,6.77a.68.68,0,0,1-1,0h0a.68.68,0,0,1,0-1Z"/><path d="M229.89,219a.68.68,0,0,1,0-1h0a.68.68,0,0,1,1,0l6.77,6.77a.68.68,0,0,1,0,1h0a.68.68,0,0,1-1,0Z"/><path d="M236.66,224.89a.68.68,0,0,1,1,0h0a.68.68,0,0,1,0,1l-6.77,6.77a.68.68,0,0,1-1,0h0a.68.68,0,0,1,0-1Z"/><rect class="cls-29" x="575.71" y="206.36" width="42.92" height="27.84" rx="3.87" ry="3.87" transform="translate(276.81 770.29) rotate(-80.03)"/><path class="cls-30" d="M591.19,227.3c-4.28-9-3.11-20.77.72-29.73l-.91-.16a3.87,3.87,0,0,0-4.48,3.14l-6.09,34.66a3.87,3.87,0,0,0,3.14,4.48l19.8,3.48a3.86,3.86,0,0,0,1.11,0A39,39,0,0,1,591.19,227.3Z"/><path class="cls-31" d="M610.68,201.52,590.88,198a3.87,3.87,0,0,0-4.48,3.14l-.59,3.38,7.54,9a8,8,0,0,0,9.72,1.71l10.16-5.89.59-3.38A3.87,3.87,0,0,0,610.68,201.52Z"/><path class="cls-29" d="M610.79,200.89,591,197.4a3.87,3.87,0,0,0-4.48,3.14l-.59,3.38,7.54,9a8,8,0,0,0,9.72,1.71l10.16-5.89.59-3.38A3.87,3.87,0,0,0,610.79,200.89Z"/><circle class="cls-32" cx="598.1" cy="215.84" r="5.99" transform="translate(281.95 767.52) rotate(-80.03)"/><text class="cls-33" transform="translate(593.35 217.65) rotate(9.97)">￥</text><rect class="cls-29" x="547.41" y="51.04" width="26.54" height="17.22" rx="2.39" ry="2.39" transform="translate(119.62 410.91) rotate(-44.61)"/><path class="cls-30" d="M555.15,61c1.08-6.09,5.88-11.58,11-14.73l-.4-.41a2.39,2.39,0,0,0-3.38,0L546.89,61.16a2.39,2.39,0,0,0,0,3.38l8.73,8.85a2.39,2.39,0,0,0,.55.41A24.11,24.11,0,0,1,555.15,61Z"/><path class="cls-31" d="M574.21,55l-8.73-8.85a2.39,2.39,0,0,0-3.38,0l-1.51,1.49.58,7.24a4.93,4.93,0,0,0,4.28,4.34l7.23.68,1.51-1.49A2.39,2.39,0,0,0,574.21,55Z"/><path class="cls-29" d="M574.5,54.75l-8.73-8.85a2.39,2.39,0,0,0-3.38,0l-1.51,1.49.58,7.24a4.93,4.93,0,0,0,4.28,4.34l7.23.68,1.51-1.49A2.39,2.39,0,0,0,574.5,54.75Z"/><circle class="cls-32" cx="562.74" cy="57.74" r="3.71" transform="translate(121.55 411.8) rotate(-44.61)"/><text class="cls-34" transform="matrix(0.7, 0.71, -0.71, 0.7, 559.72, 56.98)">￥</text><polygon class="cls-35" points="631.28 53.36 641.4 57.04 625.76 68.08 631.28 53.36"/><path class="cls-4" d="M574.48,299.92H589v-.46H574.55Z"/><path class="cls-4" d="M488.68,299.46v.46H531l-.41-.46Z"/><path class="cls-4" d="M488.68,229.08v70.38h41.93a130.55,130.55,0,0,0-15.75-14.78l17.51,4.45c-.35-5.43-5.92-15.44-9.83-19.18a26.78,26.78,0,0,1-8-16,6.91,6.91,0,0,1,.1-2.19l0-.17c0-.15.06-.3.11-.44l0-.13v0a7.93,7.93,0,0,1,.91-2v0l0,0a7.75,7.75,0,0,1,2.52-2.45,3.57,3.57,0,0,1,2.53-.76,3.53,3.53,0,0,1,1.43.28,3.91,3.91,0,0,1,.69.42h0a6.2,6.2,0,0,1,2.21,2.16c6.45,7.38,17.85,27.24,19.43,28.05l.23-.76,6.55-21.22s19.55,15.47,23.8,23.88c1.59,3.16.83,11.39-.57,20.77H589V229.08Z"/><path class="cls-4" d="M684,166.07a11.92,11.92,0,0,1,6,1.93V.46H563.93a10.8,10.8,0,0,1-4.2,13.16,70.81,70.81,0,0,1-76.78,1c-5.61-3.5-6.12-9.55-3.84-14.17H42.22A71.09,71.09,0,0,1,83.68,65a71.21,71.21,0,0,1-71.25,71.17L12.3.46H0V202.92a19,19,0,0,1,8.56-.62c10.82,2,19.7,15.53,26.12,26.94a296.4,296.4,0,0,1,28.87-17.62c9.45-5,24.81-14.9,36-14.9,9.77,0,14.74,5.66,21.17,12.62,8.67,9.38,17.12,19,25.6,28.54A930.82,930.82,0,0,1,284,139.78c12.15-7.09,23.11,11.71,11,18.77A902.44,902.44,0,0,0,153,260.81c-4.21,3.71-11.32,4.57-15.42,0l-21.56-24.06-10.78-12q-6.55-11.89-17.26-1a307.62,307.62,0,0,0-51.55,30.84c-4.7,3.43-12.26.85-14.92-3.9-2.79-5-5.7-9.77-8.76-14.57C9,230,8.34,225.9,2.52,226.77a11.93,11.93,0,0,0-2.52.71v72H416.44a47.34,47.34,0,0,1,12.27-43.7c5.94-6.26,26.25-17.32,18.64-28.28-8-11.53,10.88-22.41,18.83-11s5.78,25-2.12,35.8c-11.57,15.86-34.13,24.28-25.22,47.16h49.85V229.08H589v70.38h33.3a38,38,0,0,1-.67-21.83c2.28-8.51,7.73-14.6,13.88-20.65,11.61-11.41,22.12-23.68,11.56-40.12-4.57-7.12-11.39-12.72-16.57-19.36-11.66-14.95-16-31.34-4.32-47.72,8.95-12.56,22.94-17.74,33.54-28.38,24.9-25,3.62-48.65-19.57-64-5.81-3.86-.36-13.28,5.5-9.38C665,60.82,687.88,79.1,682.48,105.42c-5,24.34-31.1,29.7-44.71,47.24-26.87,34.65,32.92,50.79,25.47,85.74-2,9.62-8.55,15.72-15.5,22.24-11.7,11-19,26.12-13.91,38.82H674.1c-4-6.38-1.06-17.09,8.8-17.09A10.21,10.21,0,0,1,690,285V187.09a9.76,9.76,0,0,1-6,1.81c-5.91-.26-10.9-4.78-10.9-10.87v-1.09C673.09,171.26,678.1,165.81,684,166.07Z"/><path class="cls-36" d="M574.54,299.46l-.07.46h0l.07-.46Z"/><path class="cls-36" d="M533,299.46c0,.15,0,.3,0,.46h40.6l.07-.46Z"/><path class="cls-36" d="M521.19,266.23c8.71,6.68,11.58,11.46,12.54,15.77.87,4-.67,9-.7,17.45H573.7c2.3-15,1.56-15.79.95-19.72s-18.39-21.12-23.45-24.55l.12-.38s19.55,15.47,23.8,23.88c-4.25-8.41-23.8-23.88-23.8-23.88L544.77,276l1.37-4.45s.17,1.9,3.29-.81,8.39-.71,8.39-.71c-.68.36-7.34.4-8.24,3.92a26.37,26.37,0,0,0-.83,6.39s2.31,3,3.23,3.09,7.31-4.59,9-5.77,6.06-1.17,2.83.68-10.62,5.48-10.62,5.48,2.21,1.09,2.47,4.93a5.67,5.67,0,0,0-3.88-4c-3.3-1-7.24-7.94-7.24-7.94-1.57-.81-13-20.68-19.43-28.05,1.53,2.16,2.85,5.33,2,6.84-1.27,2.27-3.83,4.39-7,2.85s-5-8.58-4.48-9.32a7.93,7.93,0,0,0-.91,2C515.28,254.48,518,263.81,521.19,266.23Zm11.63-2.8c-2.16,1-6.51,3.44-6.51,3.44S532.44,262.13,532.82,263.43Zm-1.08-1.18c-2.16,1-6.51,3.44-6.51,3.44S531.36,260.95,531.74,262.25Z"/><path class="cls-36" d="M522.18,246.14a3.53,3.53,0,0,0-1.43-.28,9,9,0,0,1,2.11.7A3.91,3.91,0,0,0,522.18,246.14Z"/><path class="cls-36" d="M518.22,246.62a7.75,7.75,0,0,0-2.52,2.45A12.81,12.81,0,0,1,518.22,246.62Z"/><path class="cls-36" d="M532.4,289c-.35-5.43-5.92-15.44-9.83-19.18a26.78,26.78,0,0,1-8-16,6.84,6.84,0,0,1,.07-2.07,6.91,6.91,0,0,0-.1,2.19,26.78,26.78,0,0,0,8,16c3.91,3.74,9.48,13.75,9.83,19.18l-.05,1.6C532.35,290.17,532.38,289.6,532.4,289Z"/><path class="cls-36" d="M574.54,299.46h0c1.4-9.38,2.16-17.61.57-20.77C576.71,281.85,575.94,290.08,574.54,299.46Z"/><path class="cls-36" d="M514.63,251.63c0-.15.07-.3.11-.44C514.69,251.33,514.66,251.48,514.63,251.63Z"/><path class="cls-37" d="M544.53,276.79l.23-.76Z"/><path class="cls-37" d="M551.78,284.73a5.67,5.67,0,0,1,3.88,4c-.26-3.84-2.47-4.93-2.47-4.93s7.39-3.62,10.62-5.48-1.13-1.87-2.83-.68-8.08,5.87-9,5.77-3.23-3.09-3.23-3.09a26.37,26.37,0,0,1,.83-6.39c.9-3.52,7.56-3.56,8.24-3.92,0,0-5.27-2-8.39.71s-3.29.81-3.29.81L544.77,276l-.23.76S548.48,283.71,551.78,284.73Z"/><path class="cls-38" d="M530.61,299.46l.41.46h.53q-.13-.22-.28-.46Z"/><path class="cls-38" d="M514.86,284.68a130.55,130.55,0,0,1,15.75,14.78h.65C528,294.5,514.86,284.68,514.86,284.68Z"/><path class="cls-38" d="M514.86,284.68s9,2.34,17.51,4.45Z"/><path class="cls-38" d="M531.26,299.46q.16.24.28.46h.37c0-.15,0-.31,0-.46Z"/><path class="cls-38" d="M531.26,299.46h.63c-.1-2.37.22-5.17.42-8.74l.05-1.6c-8.47-2.11-17.51-4.45-17.51-4.45S528,294.5,531.26,299.46Z"/><path class="cls-39" d="M518.22,246.62a5.05,5.05,0,0,1,2.53-.76A3.57,3.57,0,0,0,518.22,246.62Z"/><path class="cls-39" d="M515.69,249.09v0l0,0Z"/><path class="cls-39" d="M525.11,248.74a6.2,6.2,0,0,0-2.21-2.16h0A14.79,14.79,0,0,1,525.11,248.74Z"/><path class="cls-39" d="M520.16,258.43c3.13,1.55,5.69-.58,7-2.85.85-1.51-.48-4.68-2-6.84a14.79,14.79,0,0,0-2.24-2.17,9,9,0,0,0-2.11-.7,5.05,5.05,0,0,0-2.53.76,12.81,12.81,0,0,0-2.52,2.45l0,0C515.18,249.84,517,256.89,520.16,258.43Z"/><path class="cls-37" d="M525.23,265.69s4.35-2.41,6.51-3.44C531.36,260.95,525.23,265.69,525.23,265.69Z"/><path class="cls-37" d="M532.82,263.43c-.38-1.3-6.51,3.44-6.51,3.44S530.66,264.46,532.82,263.43Z"/><path class="cls-37" d="M573.7,299.46l-.07.46h.85l.07-.46Z"/><path class="cls-37" d="M551.31,254.81l-.12.38c5.06,3.44,22.86,20.76,23.45,24.55s1.36,4.67-.95,19.72h.85c1.4-9.38,2.16-17.61.57-20.77C570.87,270.28,551.31,254.81,551.31,254.81Z"/><path class="cls-38" d="M514.76,251.06l0,.13,0-.11Z"/><path class="cls-38" d="M514.59,251.8l0-.17Z"/><path class="cls-38" d="M532,299.46v.46h1c0-.16,0-.31,0-.46Z"/><path class="cls-38" d="M514.52,253.87a26.78,26.78,0,0,0,8,16c3.91,3.74,9.48,13.75,9.83,19.18,0,.59-.05,1.16-.08,1.71l-.28,8.74h1c0-8.41,1.57-13.48.7-17.45-1-4.31-3.83-9.1-12.54-15.77-3.16-2.42-5.91-11.75-6.42-15.15l0,.11c0,.15-.08.29-.11.44l0,.17A6.84,6.84,0,0,0,514.52,253.87Z"/><path class="cls-38" d="M531.9,299.46c0,.15,0,.31,0,.46h.1v-.46Z"/><path class="cls-38" d="M531.9,299.46H532l.28-8.74C532.12,294.29,531.8,297.09,531.9,299.46Z"/><polygon class="cls-40" points="70.05 111.24 98.37 114.8 99.75 111.24 70.05 111.24"/><polygon class="cls-40" points="154.27 57.11 159.94 61.14 156.03 61.18 154.27 57.11"/><polygon class="cls-40" points="118.83 89.07 179.9 91.16 181.47 89.07 118.83 89.07"/><polygon class="cls-40" points="206.3 113.47 222.58 111.72 206.33 112.06 206.3 113.47"/><polygon class="cls-40" points="286.47 69.46 345.4 67.17 286.31 67.17 286.47 69.46"/><polygon class="cls-40" points="242.16 79.96 257.75 81.38 257.72 79.96 242.16 79.96"/><polygon class="cls-40" points="160.33 123.59 170.65 123.59 170.63 122.43 160.33 123.59"/><polygon class="cls-40" points="294.4 102.97 339.8 105.42 339.29 102.97 294.4 102.97"/><polygon class="cls-40" points="249.28 117.89 263.67 126.44 251.71 116.14 249.28 117.89"/><polygon class="cls-40" points="36.25 123.01 41.1 128.8 100.03 126.44 41.4 126.44 37.8 117.52 36.25 123.01"/><polygon class="cls-41" points="380 186.14 370.91 191.92 373.11 180.29 380 186.14"/></g></g></g></svg>