<svg xmlns="http://www.w3.org/2000/svg" width="42.25" height="43.04" viewBox="0 0 42.25 43.04"><defs><style>.cls-1,.cls-4{fill:#fff;}.cls-1{opacity:0;}.cls-2{fill:#e5e5e5;}.cls-3{fill:#333;}.cls-5{fill:#ff9500;fill-rule:evenodd;}</style></defs><title>保险</title><g id="图层_2" data-name="图层 2"><g id="图层_1-2" data-name="图层 1"><rect class="cls-1" width="42.25" height="43.04"/><rect class="cls-2" x="21.12" y="10.59" width="19.28" height="30.63"/><path class="cls-3" d="M37,8.35H29V5.68A2.66,2.66,0,0,0,26.4,3H15.84A2.66,2.66,0,0,0,13.2,5.68V8.35H5.28A5.31,5.31,0,0,0,0,13.68v24A5.31,5.31,0,0,0,5.28,43H37a5.31,5.31,0,0,0,5.28-5.34v-24A5.31,5.31,0,0,0,37,8.35ZM15.84,7h0a1.33,1.33,0,0,1,1.32-1.33h7.92A1.33,1.33,0,0,1,26.4,7V8.35H15.84ZM37,40.37H5.28A2.65,2.65,0,0,1,2.64,37.7V23H16a5.25,5.25,0,0,0,3.61,6.43v4.84h3V29.45A5.25,5.25,0,0,0,26.22,23H39.61V37.7h0A2.66,2.66,0,0,1,37,40.37ZM21.12,27a2.66,2.66,0,0,1-2.27-4H23.4a2.66,2.66,0,0,1-2.27,4Zm18.48-6.67h-37V13.68A2.65,2.65,0,0,1,5.28,11H37a2.66,2.66,0,0,1,2.64,2.67Z"/><circle class="cls-4" cx="36" cy="14.55" r="1.9"/><path class="cls-5" d="M26.4,24.36A5.33,5.33,0,0,0,26.22,23H23.4a2.64,2.64,0,1,1-4.55,0H16a5.25,5.25,0,0,0,3.61,6.43v4.74s0,.07,0,.1a1.5,1.5,0,0,0,3,0s0-.06,0-.09V29.45A5.31,5.31,0,0,0,26.4,24.36Z"/></g></g></svg>