<svg xmlns="http://www.w3.org/2000/svg" xmlns:xlink="http://www.w3.org/1999/xlink" width="299.375" height="66.722" viewBox="0 0 299.375 66.722">
  <defs>
    <style>
      .cls-1 {
        fill: #fff;
        fill-rule: evenodd;
        filter: url(#filter);
      }
    </style>
    <filter id="filter" x="218.406" y="993.688" width="299.375" height="66.722" filterUnits="userSpaceOnUse">
      <feGaussianBlur result="blur" in="SourceAlpha"/>
      <feFlood result="flood" flood-color="#231815"/>
      <feComposite result="composite" operator="out" in2="blur"/>
      <feOffset result="offset" dx="2.121" dy="2.121"/>
      <feComposite result="composite-2" operator="in" in2="SourceAlpha"/>
      <feBlend result="blend" in2="SourceGraphic"/>
    </filter>
  </defs>
  <path id="立即签到2.svg" class="cls-1" d="M260.657,1024.07c-0.64.43-.8,0.86-0.48,1.28l1.6,1.28,0.32,0.48h-2.24a3.348,3.348,0,0,1-.48-1.76l-0.32.16a61.231,61.231,0,0,0-1.6,8.64,110.235,110.235,0,0,1-6.72,16.8l0.32,1.12a183.007,183.007,0,0,1-18.88.32q-4.32-.48-8.32-0.96l0.16,0.64a41.021,41.021,0,0,0,16.16,2.56q16.158-.15,32.32-1.44a10.387,10.387,0,0,0,5.44-1.92,8.888,8.888,0,0,1-.64-3.36l-0.96-.96-1.92-.8-1.44.48a6.453,6.453,0,0,0-1.44,4.48l-18.4,1.12-0.48-.16,0.32-.64,3.84-3.52a82.28,82.28,0,0,0,8.64-12.64,7.245,7.245,0,0,0-.96-8.64l-2.4-2.08Zm-29.12,1.6,1.76,1.12a101.1,101.1,0,0,0,4.64,16.64l1.28,1.28,0.64,0.16,0.96,0.96h2.4l1.28-.96a10.384,10.384,0,0,0,1.76-4,10.06,10.06,0,0,0-1.28-7.04l-8.96-7.68c-1.388-.64-2.72-1.22-4-1.76-0.64.43-.8,0.86-0.48,1.28h0Zm2.24-26.877,1.44,1.437a94.487,94.487,0,0,0,4,9.6l1.12,1.6c1.066,0.22,2.132.48,3.2,0.8h2.72l2.08-1.28a9.729,9.729,0,0,0,.96-6.08l-1.44-2.56a25.962,25.962,0,0,0-7.2-4.317q-3.2-.641-6.24-0.96-1.281.8-.64,1.76h0Zm30.24,12.477a3.765,3.765,0,0,0,0,3.68l-0.96.48q-22.56,0-44.64.96a376.468,376.468,0,0,0,44.16.96,14.217,14.217,0,0,0,6.72-2.72l0.48-1.92-0.8-1.6a15.178,15.178,0,0,0-3.68-.48Zm-1.44,16.64,1.28,0.96,0.32,0.8-1.6.64a3.313,3.313,0,0,1-.32-2.56Zm-22.4-24.48-0.32,2.08a4.134,4.134,0,0,1-1.28-3.04l0.32-.32Zm-4-4.637,1.6,0.48v0.48l-1.12.637-0.8-.8-0.64-.16-0.32-.64h1.28Zm6.56,8,0.64,1.28-0.16.48a1.462,1.462,0,0,1-.64-1.92Zm0.96,35.04a1.72,1.72,0,0,1-.48,1.28,1.066,1.066,0,0,1-.16-1.44Zm-1.92-40.48,1.28,0.96-0.32.32-0.64-.32-0.8-.96h0.48Zm20.8,30.56-0.16.96c-0.428-.21-0.48-0.58-0.16-1.12Zm-17.92-28,0.48,0.64-0.32.32-0.48-.96h0.32Zm-5.6,34.4v0.8h-0.32v-0.96Zm-0.48-1.28v0.8c-0.428-.21-0.48-0.53-0.16-0.96Zm5.6-.48-0.16.64-0.32-.48,0.32-.32Zm-5.92-.48-0.16.48-0.32-.32,0.32-.32Zm-2.88-7.84-0.32.48v-0.64Zm4,11.68v0.64l-0.32-.64h0.32Zm4.32-4.16-0.16.48v-0.64Zm-2.08,1.28-0.16.32v-0.48Zm79.52-36.32-0.96.96-3.52.32-16.8-.48-0.32-.64-0.48.16-0.8.8-1.12.32,0.16,0.64,1.28,0.48a18.176,18.176,0,0,0-.48,7.2q1.278,8.97,1.92,17.92a96.448,96.448,0,0,0,4,23.04,8.049,8.049,0,0,0,3.36.96l1.28-.48,6.56-8.32,0.16-1.28h0.32l1.6,4.8,0.64,0.64,0.96-.32,0.48-.48,1.12,1.12h1.44a6.774,6.774,0,0,0,2.24-3.68,6.46,6.46,0,0,0-1.76-5.28l-5.92-4.96a12.736,12.736,0,0,0-3.2-1.28,5.706,5.706,0,0,1-.48,1.6,28.9,28.9,0,0,0,2.4,6.88l-0.96,1.28-1.92.64-4,4-0.48-.16q-1.122-9.915-1.6-20.16l0.16-2.4a41.1,41.1,0,0,0,13.12.48l1.12,0.8,0.96-.64,0.48-.96a2.812,2.812,0,0,1,2.56-.64l1.12-.8a96.076,96.076,0,0,0,2.72-12.48,37.4,37.4,0,0,0-.64-10.877,3.676,3.676,0,0,0-2.08-.64,26.455,26.455,0,0,0-4.64,1.917h0Zm5.44,0.16a6.982,6.982,0,0,1,.16,2.56h-0.32l-0.64-2.4,0.64-.32Zm20.64,2.56a65.007,65.007,0,0,1-13.76-.48q-0.96.645,0,1.44l2.08,0.8a120.784,120.784,0,0,0,0,17.6q0.8,10.41,1.76,20.8a49.225,49.225,0,0,0,3.36,16.48l0.96-.16c0.32-1.38.586-2.88,0.8-4.48l0.48-10.72q-0.162-9.27-.48-18.88,0.639-6.075.8-12.16l-5.92-8.16,11.04-.32,5.6-1.12a169.258,169.258,0,0,1-1.76,26.56l-4.32-2.88-0.48.32,0.16,0.96,2.72,2.4a6.609,6.609,0,0,0,4.64,2.24l0.8,1.12,0.8-.32,2.24-5.76a179.3,179.3,0,0,1,2.56-18.08,28.19,28.19,0,0,0-.48-8.96,5.654,5.654,0,0,0-2.24-.48,101.1,101.1,0,0,1-11.36,2.24h0Zm-24.16-1.6-0.16,1.28-0.32.32a1.365,1.365,0,0,1,0-1.76Zm36.16,1.44a8.794,8.794,0,0,1,.16,2.88l-1.12-2.08-0.48-.48,0.96-.48Zm-56,.16,14.4,0.48,3.04-.48,0.32,0.64-0.32,6.88-0.96.48h-13.28a13.81,13.81,0,0,1-.96-3.2l-1.76-2.56-2.56-2.24h2.08Zm-1.12,3.36,0.48,0.64-0.16,2.56H302.1l-0.32-3.2h0.32Zm34.88,1.6-0.16,2.4v-2.56Zm0.32,4.32q0.48,5.28.48,10.4h-0.32l-0.64-9.12,0.32-1.44Zm-30.24.32a78.4,78.4,0,0,0,13.28.16,69.081,69.081,0,0,1-.64,9.44l-0.96.48a67.739,67.739,0,0,1-12.32.16v-10.4Zm16.32,2.08v6.4l-0.64.32-0.32-.32,0.64-6.4h0.32Zm31.52,16v0.48h-0.48l0.32-.64Zm-40.48,3.52,0.8,0.96-0.64.32-0.64-1.28h0.48Zm6.88,6.24,0.96,1.44-0.16,1.6h-0.48l-0.48-2.08-0.32-.96h0.48Zm86.24-46.557v1.6l0.8,0.16a82.559,82.559,0,0,1,.8,15.357q-0.48,3.84-1.12,7.52H407.7l-0.8-.8-1.6-.8-0.96.64a93.966,93.966,0,0,1-11.68,13.44,46.082,46.082,0,0,1-11.2,8.32,38.807,38.807,0,0,1-6.56,1.6l0.16,0.8a17.248,17.248,0,0,0,7.04.48,36.711,36.711,0,0,0,11.36-3.84,53.036,53.036,0,0,0,11.68,0q6.72-.48,13.44-1.44l0.48-1.28-0.8-1.28a3.908,3.908,0,0,0-2.56-.64l-0.96,1.76a159.292,159.292,0,0,1-17.44,1.28v-0.48a37.88,37.88,0,0,0,9.44-6.72,10.369,10.369,0,0,0,1.6-3.68,150.9,150.9,0,0,0,14.56,8.96,28.948,28.948,0,0,0,13.76,2.4l1.92-1.92,1.76-1.12a4.427,4.427,0,0,0,0-2.88q-7.2-.63-14.4-1.92a170.5,170.5,0,0,1-16.8-5.6l-0.96-.96-0.64-3.36h0.48l0.48,0.48,0.96-.16,0.64-1.12,1.28-.16a24.7,24.7,0,0,0,3.84-7.04,41.5,41.5,0,0,0,1.76-9.76q2.88,0.33,5.92.64a33.613,33.613,0,0,0,5.76-.16l0.32,0.32a10.964,10.964,0,0,1,2.4-1.76l0.48-.64-0.16-1.6-0.96-.64-1.76.16a1.646,1.646,0,0,0-.96,1.757,17.554,17.554,0,0,1-6.24.48l-4.96-.64a11.566,11.566,0,0,1-1.76-3.2l-2.56-2.24q-1.92-.48-3.68-0.96Zm-28.32.32-1.28.8,0.16,0.96a22.624,22.624,0,0,1,5.44-.32l1.76,1.12a13.081,13.081,0,0,1,1.44,6.557l-0.48-.16-0.8-3.36-1.44-2.077a6.726,6.726,0,0,1-3.2-1.76l-0.8.48-0.16,3.2a4.313,4.313,0,0,1-1.12-1.917l-0.48-.32q0.96,11.365,1.44,22.717l1.76,1.92,0.8-.16a63.262,63.262,0,0,0,4.8-8.8q0.8-3.675,1.92-7.52a58.377,58.377,0,0,0,12.96.48,10.528,10.528,0,0,0,4.64-1.44l0.48-.8-0.8-.8q-3.84.48-7.52,1.28a46.662,46.662,0,0,1-9.6-.64l-0.48-4.8-1.44-2.88a9.328,9.328,0,0,0-6.08-2.24Zm49.12,60.957q-24,1.92-48,1.76l-1.12.48v0.64a271.413,271.413,0,0,0,33.76.48,156.365,156.365,0,0,0,21.28-2.08,2.069,2.069,0,0,0,.16-2.08l-1.76-1.28-2.88-.64a3.359,3.359,0,0,0-1.44,2.72h0Zm-9.6-46.08a46.4,46.4,0,0,0,4.48,9.28,1.327,1.327,0,0,0,2.08.48l0.64-.8,1.44-1.28,1.28-2.24a6.88,6.88,0,0,0-.8-4.32l-2.56-2.08a9.523,9.523,0,0,0-5.28-1.28,3.473,3.473,0,0,0-1.28,2.24h0Zm0.16,32.32-1.12,4.48a28.614,28.614,0,0,0-3.36,8,2.062,2.062,0,0,0,2.56.16l2.24-1.6a20.235,20.235,0,0,0,4.96-6.24,6.265,6.265,0,0,0-1.12-5.28c-0.854-.21-1.654-0.42-2.4-0.64Zm-28.16,2.72a30.405,30.405,0,0,0,4.96,10.24,4.893,4.893,0,0,1,2.72.48l0.96-.48a8.445,8.445,0,0,0,.32-4,13.178,13.178,0,0,0-3.36-5.6c-1.814-.74-3.52-1.44-5.12-2.08a1.171,1.171,0,0,0-.48,1.44h0Zm14.56-1.6-0.96.64q0.318,5.28.8,10.4l0.64,0.96h1.12l0.64-.8a3.179,3.179,0,0,0,3.36,0q0.159-2.55.16-5.28l-1.6-2.88-3.2-2.88Zm-11.68-32.16-0.48.16v1.12l3.36,6.4a1.7,1.7,0,0,0,2.4.96,9.264,9.264,0,0,1,.48-1.6l0.96-.16a3.946,3.946,0,0,0,.8-3.36l-1.44-1.76a59.071,59.071,0,0,0-5.6-3.2,1.171,1.171,0,0,0-.48,1.44h0Zm18.72-10.24a46.53,46.53,0,0,1,0,9.44h-0.48l-0.48-1.44,0.48-8h0.48Zm8.96,8.48,2.56,1.12,2.72,2.24v0.8l-3.04-2.24a2.547,2.547,0,0,0-1.76.32l-1.76-2.24h1.28Zm-15.04,16.64a4.545,4.545,0,0,1-.8,2.72l-3.84,3.52h-0.64l4-4.48,1.12-1.92Zm20.16,8a39.113,39.113,0,0,0,8,1.76v0.32a18.274,18.274,0,0,1-8.96-1.92l0.64-.32Zm-16.96-38.4,1.12,0.48-0.16,2.72-1.6-3.04,0.48-.32Zm11.2,46.717a4.541,4.541,0,0,1-.32,2.4h-0.32l0.16-2.56Zm-12.32,6.08a3.151,3.151,0,0,1,.48,2.08,1.592,1.592,0,0,1-.64-2.24Zm16.48-33.44,0.96,1.28-0.48.32-1.12-1.44,0.32-.32Zm6.56,40.32,0.48,0.48-0.32.32-1.12-.16v-0.48l0.64-.32Zm-36.16-43.2,0.96,0.8-0.64.32-0.64-1.12h0.32Zm29.92,21.6-0.32.32-0.48-.16,0.32-.32Zm-24.16-1.12H400.5l0.32-.32,0.32,0.16Zm-1.76,1.12-0.48.32v-0.32h0.48Zm1.28-.8-0.32.32v-0.48Zm7.52,14.88-0.16.48v-0.64Zm-14.88-1.92-0.16.32v-0.48Zm117.76-51.2-0.8.64q-0.162,17.92.96,35.677,0,11.85-.64,23.36a8.165,8.165,0,0,1-2.88-.16,11.536,11.536,0,0,0,2.88,3.52l1.28,1.92a4.752,4.752,0,0,0,2.72,1.12l0.64-.48q0.8-3.2,1.44-6.72l1.28-24.32v-25.6a11.723,11.723,0,0,0-3.36-6.4l-2.72-2.4Zm0.48,1.76,0.48,0.48a1.986,1.986,0,0,0-.64,1.44,1.541,1.541,0,0,1-.32-2.08Zm-25.44,2.72a5.661,5.661,0,0,0-.64,2.557l-0.64.32q-13.44.165-26.72,0.48v0.64a53.114,53.114,0,0,0,10.24.64,30.341,30.341,0,0,1-1.6,7.36,80.777,80.777,0,0,0-4.96,13.6l1.12-.32a23.889,23.889,0,0,0,12,1.76,35.444,35.444,0,0,0,.64,8.32,40.8,40.8,0,0,1-10.24,0l-3.04.48,0.16,0.48,2.08,0.48,11.2,0.8,0.48,2.4,0.64,8.8-1.92.48-5.92.48a3.136,3.136,0,0,1-1.76-.16l0.8,1.6,3.2,4.16a5.368,5.368,0,0,0,6.24,1.12q6.558-3.51,12.96-7.52l3.52-3.68-0.16-.64a7.282,7.282,0,0,0-1.76-.64,26.558,26.558,0,0,1-10.24,4.16l-0.48-.48a44.939,44.939,0,0,1,1.44-9.76,22.19,22.19,0,0,0,8.8-.8l1.44-1.44a3.06,3.06,0,0,0-1.12-2.72l-2.72-1.12-0.96.32a7.323,7.323,0,0,0-.96,3.52,6.142,6.142,0,0,1-4.16.16,7.052,7.052,0,0,1-.48-4l-1.12-2.24-3.04-2.88q3.678-.795,7.52-1.28l1.44,2.88a5.153,5.153,0,0,0,3.52-1.44,8.361,8.361,0,0,0,1.92-5.12,8.176,8.176,0,0,0-2.56-4.8l-3.52-2.24a9.4,9.4,0,0,0-5.12-.48v1.12l0.8,0.64,2.4,5.44,0.48,1.76a16.654,16.654,0,0,1-6.08,1.44,67.752,67.752,0,0,1-14.72.32v-0.48l1.6-.8a37.092,37.092,0,0,0,6.4-8.16,27.242,27.242,0,0,0,.32-5.92q-0.8-2.235-1.6-4.64,7.839-.48,16-0.32a7.189,7.189,0,0,0,4.48-1.6v-1.44a11.025,11.025,0,0,0-4.8-2.237Zm1.92,0.96,1.44,1.117a2.772,2.772,0,0,1-2.24.32l0.16-1.437h0.64Zm27.68,1.437,0.48,1.6v5.92H515.7a45.155,45.155,0,0,1-.32-7.68Zm-3.84.96v1.92h-0.32l0.16-2.08Zm0.32,3.04a7.17,7.17,0,0,1,0,3.68,6.642,6.642,0,0,1-.16-3.84Zm-14.72,3.36-0.8.64q0.96,13.29,2.56,26.24l0.64,1.76,0.8,0.32,1.76-1.92q0.8-9.27,1.76-18.72a12.517,12.517,0,0,0-4.8-9.28,17.282,17.282,0,0,0-2.88-1.28,1.569,1.569,0,0,0,.96,2.24h0Zm-26.08,3.36-0.16.8q-0.642-.315,0-0.96Zm-0.48,1.12v0.64h-0.48l0.32-.8Zm13.76,1.76,0.64,0.64-0.64.48-0.64-.96,0.32-.32Zm3.68,2.08,1.6,1.6a1.436,1.436,0,0,1-1.6-.64l-0.48-.96h0.48Zm-11.84,9.6,0.64,0.48-0.32.32-0.64-.48v-0.48Zm4.16,4.32v0.64h-0.32l0.16-.8Zm8.96,1.6,1.6,1.12-0.16.48a1.917,1.917,0,0,1-2.08.32,2.161,2.161,0,0,1,.48-2.08Zm-18.24,17.44v1.44H470.9l-1.12-1.28,0.32-.32Zm10.4,0.48v0.32l-1.12.64v-0.64l0.96-.48Zm31.04,6.88v0.48h-0.48v-0.64Z" transform="translate(-218.406 -993.688)"/>
</svg>
