<?xml version="1.0" encoding="utf-8"?>
<!-- Generator: Adobe Illustrator 21.0.2, SVG Export Plug-In . SVG Version: 6.00 Build 0)  -->
<svg version="1.1" id="图层_1" xmlns="http://www.w3.org/2000/svg" xmlns:xlink="http://www.w3.org/1999/xlink" x="0px" y="0px"
	 width="34px" height="34px" viewBox="0 0 34 34" style="enable-background:new 0 0 34 34;" xml:space="preserve">
<style type="text/css">
	.st0{fill:#FFFFFF;}
</style>
<path id="加号.svg" class="st0" d="M32.5,18.5H18.5v14.1c0,0.8-0.7,1.5-1.5,1.5c-0.8,0-1.5-0.7-1.5-1.5V18.5H1.5
	C0.7,18.5,0,17.8,0,17s0.7-1.5,1.5-1.5l0,0h14.1V1.5C15.5,0.7,16.2,0,17,0c0.8,0,1.5,0.7,1.5,1.5l0,0v14.1h14.1
	c0.8,0,1.4,0.7,1.4,1.5C33.9,17.8,33.3,18.4,32.5,18.5z"/>
</svg>
