<svg xmlns="http://www.w3.org/2000/svg" width="68.03" height="162.12" viewBox="0 0 68.03 162.12"><defs><style>.cls-1{opacity:0.4;}.cls-2{fill:#fff;}.cls-3{fill:#f31e00;}.cls-4{fill:#fcfff5;}</style></defs><title>licai</title><g id="图层_2" data-name="图层 2"><g id="图层_1-2" data-name="图层 1"><rect class="cls-1" x="-43.29" y="50.8" width="158.72" height="63.94" transform="translate(118.83 46.7) rotate(90)"/><rect class="cls-2" x="-47" y="47" width="158" height="64" transform="translate(111 47) rotate(90)"/><rect class="cls-3" x="-43.93" y="50.35" width="151.98" height="57.94" transform="translate(111.39 47.25) rotate(90)"/><path class="cls-4" d="M32.17,77.49l2.91-.72V70.85H32.64V69.48h2.44V64.6H32.44V63.23h6.72V64.6H36.52v4.88H39v1.37H36.52v5.53l2.5-.72q.1.88.21,1.52-3.34.9-6.54,1.89Zm6.21,1.15h6.11V75.83h-5V74.46h5V71.88H41.37v.72H39.92V62.53H50.51V72.61H49.06v-.72H45.94v2.58h5v1.37h-5v2.81h5.84V80H38.38Zm3-12.09h3.13v-2.7H41.37Zm0,4h3.13V67.84H41.37Zm7.7-6.7H45.94v2.7h3.13Zm-3.12,6.7h3.13V67.84H45.94Z"/><path class="cls-4" d="M36.43,85.56h1.41v4.16a27,27,0,0,1-.45,5.63l.64-.57q1.52,1.64,3.65,4l-1.31,1.05Q38.95,98,37.21,96a9.83,9.83,0,0,1-3.69,4.61,15.05,15.05,0,0,0-1.09-1.29A7.9,7.9,0,0,0,35.66,96a14.94,14.94,0,0,0,.76-5.68Zm-3-3h7.5V94.75H39.47V83.93H34.79V94.87H33.38Zm8.42,3.2h6v-4.1h1.48v4.1h2.52v1.43H49.24V97.67q0,2.68-2.48,2.68l-2.73,0q-.12-.82-.29-1.66,1.86.14,2.75.14,1.27,0,1.27-1.45V89.29a28.7,28.7,0,0,1-6,7.83A8.48,8.48,0,0,0,40.59,96a27.94,27.94,0,0,0,6.74-8.83H41.8Z"/><path class="cls-4" d="M22.47,15.29H16.63v5.06H22v1.72H16.63v6.61h-2V13.55h7.79Z"/><path class="cls-4" d="M16.85,34.41a1.18,1.18,0,0,1,1.2-1.2,1.21,1.21,0,0,1,.87.34,1.14,1.14,0,0,1,.36.86,1.12,1.12,0,0,1-.36.84,1.22,1.22,0,0,1-.87.34,1.17,1.17,0,0,1-.86-.34A1.14,1.14,0,0,1,16.85,34.41ZM17.07,49V38.22H19V49Z"/><path class="cls-4" d="M22.71,66.65h-1.9V60.51q0-3.33-2.43-3.33a2.61,2.61,0,0,0-2.07.94,3.5,3.5,0,0,0-.81,2.37v6.16H13.58V55.85h1.91v1.79h0a3.89,3.89,0,0,1,3.54-2,3.29,3.29,0,0,1,2.71,1.14A5.14,5.14,0,0,1,22.71,60Z"/><path class="cls-4" d="M14.47,76.47a6.88,6.88,0,0,1,3.72-1q3.91,0,3.91,4.1v7H20.2V84.85h0a3.61,3.61,0,0,1-3.31,1.92,3.56,3.56,0,0,1-2.5-.85,3,3,0,0,1-.93-2.29q0-3,3.58-3.53l3.2-.45Q20.2,77,18,77a5.47,5.47,0,0,0-3.54,1.31Zm3.2,5a3.28,3.28,0,0,0-1.83.66,1.82,1.82,0,0,0-.5,1.37,1.61,1.61,0,0,0,.55,1.26,2.09,2.09,0,0,0,1.45.49,2.68,2.68,0,0,0,2.06-.88,3.13,3.13,0,0,0,.81-2.21v-1Z"/><path class="cls-4" d="M22.71,106.65h-1.9v-6.14q0-3.33-2.43-3.33a2.61,2.61,0,0,0-2.07.94,3.5,3.5,0,0,0-.81,2.37v6.16H13.58V95.85h1.91v1.79h0a3.9,3.9,0,0,1,3.54-2,3.29,3.29,0,0,1,2.71,1.14,5.14,5.14,0,0,1,.93,3.32Z"/><path class="cls-4" d="M22.19,126a5.71,5.71,0,0,1-3,.74,5,5,0,0,1-3.77-1.5,5.43,5.43,0,0,1-1.43-3.9,6,6,0,0,1,1.54-4.28,5.4,5.4,0,0,1,4.12-1.63,5.63,5.63,0,0,1,2.54.53v1.89a4.19,4.19,0,0,0-2.54-.84A3.44,3.44,0,0,0,17,118.19a4.35,4.35,0,0,0-1,3,4.15,4.15,0,0,0,1,2.92,3.39,3.39,0,0,0,2.62,1.05,4.36,4.36,0,0,0,2.64-.92Z"/><path class="cls-4" d="M22.87,141.61H15.31a3.89,3.89,0,0,0,.95,2.67,3.3,3.3,0,0,0,2.51.94,5.35,5.35,0,0,0,3.33-1.16v1.71a6.42,6.42,0,0,1-3.78,1,4.63,4.63,0,0,1-3.66-1.48,6,6,0,0,1-1.31-4.12,5.91,5.91,0,0,1,1.44-4.09,4.61,4.61,0,0,1,3.58-1.61,4.17,4.17,0,0,1,3.31,1.36,5.61,5.61,0,0,1,1.19,3.81ZM21,140.08a3.43,3.43,0,0,0-.69-2.27,2.39,2.39,0,0,0-1.92-.8,2.68,2.68,0,0,0-2,.85,3.94,3.94,0,0,0-1,2.22Z"/></g></g></svg>