<svg xmlns="http://www.w3.org/2000/svg" width="42.22" height="42.21" viewBox="0 0 42.22 42.21"><defs><style>.cls-1{fill:none;}.cls-2{fill:#e5e5e5;}.cls-3{fill:#333;}.cls-4{fill:#ff9500;}.cls-5{fill:#fff;}</style></defs><title>shangcheng</title><g id="图层_2" data-name="图层 2"><g id="图层_1-2" data-name="图层 1"><path class="cls-1" d="M39.3,13.31a6.2,6.2,0,0,0-1-2l-.12-.2L35,4.71V4.4a1.74,1.74,0,0,0-1.72-1.75H8.92A1.74,1.74,0,0,0,7.19,4.4v.31L3.89,11.33a6.25,6.25,0,0,0-1,2l-.15.58A6.38,6.38,0,0,0,8.91,21.5a6.21,6.21,0,0,0,5-2.55L15,17.52l1.06,1.42a6.26,6.26,0,0,0,10.09,0l1.06-1.42L28.25,19a6.21,6.21,0,0,0,5,2.55,6.33,6.33,0,0,0,6.29-6.36,7.15,7.15,0,0,0-.13-1.28Zm-6.86,1.16H9.75a1.63,1.63,0,1,1,0-3.25H32.44a1.63,1.63,0,1,1,0,3.25Z"/><path class="cls-2" d="M21.1,1.16v40.5s12,1.78,13-2.4.72-16.95.72-16.95,6.83-.89,5.67-7.86-4.28-12.51-6.4-12.9S21.1,1.16,21.1,1.16Z"/><path class="cls-3" d="M33.48,37.82a1.74,1.74,0,0,1-1.72,1.75H9.12A1.74,1.74,0,0,1,7.4,37.82V27H4.76V37.82a4.39,4.39,0,0,0,4.36,4.39H31.75a4.38,4.38,0,0,0,4.36-4.39V27H33.48Z"/><path class="cls-4" d="M32.44,12H9.75a1.63,1.63,0,1,0,0,3.25H32.44a1.63,1.63,0,1,0,0-3.25Z"/><path class="cls-3" d="M42,13.28l-.17-.66A9.18,9.18,0,0,0,40.5,9.84L37.63,4.06A4.37,4.37,0,0,0,33.29,0H8.93A4.38,4.38,0,0,0,4.58,4.06L1.71,9.84A9,9,0,0,0,.35,12.66l-.17.69a9,9,0,0,0,8.75,10.8A8.77,8.77,0,0,0,15,21.72a8.87,8.87,0,0,0,12.19,0,8.77,8.77,0,0,0,6.08,2.43,9,9,0,0,0,8.94-9A9.34,9.34,0,0,0,42,13.28ZM33.28,21.5a6.21,6.21,0,0,1-5-2.55L27.2,17.52l-1.06,1.42a6.26,6.26,0,0,1-10.09,0L15,17.52,13.94,19a6.21,6.21,0,0,1-5,2.55,6.38,6.38,0,0,1-6.18-7.57l.15-.58a6.25,6.25,0,0,1,1-2L7.19,4.71V4.4A1.74,1.74,0,0,1,8.92,2.65H33.28A1.74,1.74,0,0,1,35,4.4v.31l3.18,6.41.12.2a6.2,6.2,0,0,1,1,2l.14.56a7.15,7.15,0,0,1,.13,1.28A6.33,6.33,0,0,1,33.28,21.5Z"/><circle class="cls-5" cx="30.85" cy="7.88" r="2"/></g></g></svg>