<svg xmlns="http://www.w3.org/2000/svg" width="34.79" height="47.56" viewBox="0 0 34.79 47.56"><defs><style>.cls-1{fill:none;}.cls-2{fill:#e5e5e5;}.cls-3{fill:#333;}.cls-4{fill:#ff9500;}.cls-5{fill:#fff;}.cls-6{fill:#7f7f7f;}</style></defs><title>huodong</title><g id="图层_2" data-name="图层 2"><g id="图层_1-2" data-name="图层 1"><path class="cls-1" d="M17.39,2.09h-.21v0h.21Z"/><path class="cls-1" d="M17.67,2.1l-.5.08c-1.18,11,.08,22.07.21,33.11h3C23.25,23.74,25.74,13,22.7,3A16.4,16.4,0,0,0,17.67,2.1Z"/><path class="cls-1" d="M8.1,5c-5.62,6.88-5.28,14.54-.38,22.79C9,29.25,10.33,30.64,11.62,32c.85.87,1.68,1.73,2.45,2.57-2.85-9.55-8-22.21-1.45-31.63L11.91,3A15.55,15.55,0,0,0,8.1,5Z"/><path class="cls-1" d="M26.33,28.68a38.79,38.79,0,0,0,4.94-6.91,15.83,15.83,0,0,0,.94-2.83,13.5,13.5,0,0,0,.34-3,13.19,13.19,0,0,0-4.14-9.51C31.33,13,29.83,21.68,26.33,28.68Z"/><path class="cls-1" d="M17.52,2.09h-.34v.07l.5-.08Z"/><path class="cls-1" d="M11.91,3l.71-.11.11-.16C12.45,2.84,12.18,2.94,11.91,3Z"/><path d="M17.77,2.09h-.1Z"/><path class="cls-1" d="M17.67,2.1l.1,0h-.58v0A14.84,14.84,0,0,0,11.87,3h0A15.55,15.55,0,0,0,8.1,5c-5.62,6.88-5.28,14.54-.38,22.79C9,29.25,10.33,30.64,11.62,32c.85.87,1.68,1.73,2.45,2.57v0l-.25-.44.25.44C11.21,25,6.13,12.33,12.62,2.92l4.56-.74c-1.18,11,.08,22.05.21,33.08h0v0h3C23.25,23.74,25.74,13,22.7,3A16.4,16.4,0,0,0,17.67,2.1Z"/><path class="cls-1" d="M26.33,28.68a38.79,38.79,0,0,0,4.94-6.91,15.83,15.83,0,0,0,.94-2.83,13.5,13.5,0,0,0,.34-3,13.19,13.19,0,0,0-4.14-9.51C31.33,13,29.83,21.68,26.33,28.68Z"/><path class="cls-1" d="M28.44,6.49c.3.3.61.61.89,1-.29-.35-.59-.66-.89-1,2.88,6.6,1.37,15.21-2.11,22.19a38.79,38.79,0,0,0,4.94-6.91,15.83,15.83,0,0,0,.94-2.83,13.5,13.5,0,0,0,.34-3,13.19,13.19,0,0,0-4.14-9.51Z"/><path class="cls-1" d="M17.67,2.1l.1,0h-.58v0A14.84,14.84,0,0,0,11.87,3h0A15.55,15.55,0,0,0,8.1,5c-5.62,6.88-5.28,14.54-.38,22.79C9,29.25,10.33,30.64,11.62,32c.85.87,1.68,1.73,2.45,2.57v0l.44.78,2.88,0v0h3C23.25,23.75,25.74,13,22.7,3l-.37-.11L22.7,3V3A16.4,16.4,0,0,0,17.67,2.1Z"/><path class="cls-1" d="M28.44,6.49c2.87,6.58,1.38,15.15-2.08,22.11a8.64,8.64,0,0,0,.54-.84,8.64,8.64,0,0,1-.54.84l0,.08a38.79,38.79,0,0,0,4.94-6.91,15.83,15.83,0,0,0,.94-2.83,13.5,13.5,0,0,0,.34-3,13.19,13.19,0,0,0-4.14-9.51Z"/><path class="cls-2" d="M22.7,3V3a16.4,16.4,0,0,0-5-.86l.1,0h-.58v.09c-1.18,11,.08,22.05.21,33.08v0h3C23.25,23.75,25.74,13,22.7,3Z"/><path class="cls-2" d="M28.44,6.49c2.87,6.58,1.38,15.15-2.08,22.11l0,.08a38.79,38.79,0,0,0,4.94-6.91,15.83,15.83,0,0,0,.94-2.83,13.5,13.5,0,0,0,.34-3,13.19,13.19,0,0,0-4.14-9.51Z"/><polygon class="cls-3" points="14.87 47.56 20.56 47.56 21.38 41.29 13.98 41.29 14.87 47.56"/><path class="cls-4" d="M17.17,2.18V2.11A14.84,14.84,0,0,0,11.87,3h0c.27-.1.54-.2.82-.28l-.11.16c-6.49,9.41-1.41,22,1.44,31.59l.44.78,2.88,0C17.25,24.23,16,13.16,17.17,2.18Z"/><path class="cls-4" d="M28.44,6.49A15.48,15.48,0,0,0,22.7,3c3,10,.55,20.77-2.32,32.31a40.71,40.71,0,0,0,6-6.69C29.83,21.64,31.31,13.07,28.44,6.49Z"/><circle class="cls-5" cx="20.27" cy="17.09" r="1.84"/><path class="cls-1" d="M9,4.42l0,0Z"/><path class="cls-1" d="M7.72,27.79l.41.45c-.21-.27-.42-.55-.63-.84Z"/><path class="cls-1" d="M8.1,5,8,5.11c.27-.21.5-.38.67-.5C8.49,4.74,8.29,4.86,8.1,5Z"/><path class="cls-1" d="M28.44,6.49A15.48,15.48,0,0,0,22.7,3V3a16.4,16.4,0,0,0-5-.86l.1,0h-.58v0A14.84,14.84,0,0,0,11.87,3h0A15.89,15.89,0,0,0,9,4.39S16.62,37,14.09,34.56l.41.73,2.88,0v0h3a40.71,40.71,0,0,0,6-6.69l0,.08a38.79,38.79,0,0,0,4.94-6.91,15.83,15.83,0,0,0,.94-2.83,13.5,13.5,0,0,0,.34-3,13.19,13.19,0,0,0-4.14-9.51Z"/><path class="cls-3" d="M29.68,4.66A18.18,18.18,0,0,0,17.39,0,18.17,18.17,0,0,0,5.1,4.66,15.24,15.24,0,0,0,0,15.93C0,23.1,5.32,28.59,10,33.38c.92.95,1.82,1.87,2.62,2.75v2.07h10V36.28c.25-.25.54-.55.88-.94,3-3.43,8.56-9.73,9.9-12.8a17.77,17.77,0,0,0,1.06-3.19,15.45,15.45,0,0,0,.39-3.42A15.24,15.24,0,0,0,29.68,4.66Zm2.53,14.26a15.83,15.83,0,0,1-.94,2.83,38.79,38.79,0,0,1-4.94,6.91l0-.08a40.71,40.71,0,0,1-6,6.69h-3v0l-2.88,0-.41-.73h0a56.91,56.91,0,0,1-5.95-6.31l-.41-.45L7.5,27.4a24,24,0,0,1-4.29-9.84A12.73,12.73,0,0,1,8,5.11L8.1,5c.19-.13.39-.26.58-.38L9,4.42l0,0H9A15.89,15.89,0,0,1,11.91,3h0a14.84,14.84,0,0,1,5.31-.93v0h.58l-.1,0a16.4,16.4,0,0,1,5,.86V3a15.48,15.48,0,0,1,5.74,3.51l0-.06a13.19,13.19,0,0,1,4.14,9.51A13.5,13.5,0,0,1,32.22,18.93Z"/><path class="cls-6" d="M8.68,4.61,9,4.42Z"/><path class="cls-6" d="M9,4.39H9Z"/><path class="cls-6" d="M14.07,34.55h0l0,0Z"/></g></g></svg>