<svg xmlns="http://www.w3.org/2000/svg" width="42.84" height="29.77" viewBox="0 0 42.84 29.77"><defs><style>.cls-1{fill:#e5e5e5;}.cls-2{fill:#fff;}.cls-3{fill:#ff9500;}.cls-4{fill:#333;}</style></defs><title>xinyongka</title><g id="图层_2" data-name="图层 2"><g id="图层_1-2" data-name="图层 1"><polygon class="cls-1" points="21.42 1.12 21.42 28.65 39.21 28.65 41.25 26.53 41.25 3.57 37.98 1.12 21.42 1.12"/><circle class="cls-2" cx="35.58" cy="22.51" r="2.5"/><rect class="cls-3" x="4.73" y="12.67" width="23.44" height="3.06"/><path class="cls-4" d="M42.74,3.65A4.66,4.66,0,0,0,38.2,0h0L4.63,0A4.64,4.64,0,0,0,0,4.65V25.13a4.64,4.64,0,0,0,4.63,4.63H38.19a4.66,4.66,0,0,0,4.64-4.64V4.65A4.83,4.83,0,0,0,42.74,3.65ZM2.3,4.65A2.33,2.33,0,0,1,4.63,2.32l33.57,0h0a2.35,2.35,0,0,1,2.32,2.34v.6H2.3ZM40.53,25.13a2.34,2.34,0,0,1-2.34,2.34H4.63A2.34,2.34,0,0,1,2.3,25.13V9.79H40.54C40.54,12,40.53,25.13,40.53,25.13Z"/></g></g></svg>