<svg xmlns="http://www.w3.org/2000/svg" width="97.03" height="162.12" viewBox="0 0 97.03 162.12"><defs><style>.cls-1{opacity:0.4;}.cls-2{fill:#fff;}.cls-3{fill:#f31e00;}.cls-4{fill:#fcfff5;}</style></defs><title>chengfengxueyuan</title><g id="图层_2" data-name="图层 2"><g id="图层_1-2" data-name="图层 1"><rect class="cls-1" x="-28.79" y="36.3" width="158.72" height="92.94" transform="translate(133.33 32.2) rotate(90)"/><rect class="cls-2" x="-32.5" y="32.5" width="158" height="93" transform="translate(125.5 32.5) rotate(90)"/><rect class="cls-3" x="-29.43" y="35.85" width="151.98" height="86.94" transform="translate(125.89 32.75) rotate(90)"/><path class="cls-4" d="M58.79,55.73h8.55V52.88H60.8V51.53h6.54v-2.6h-7.7V47.58h17v1.35H68.9v2.6h6.62v1.35H68.9v2.85H77.5v1.35H58.79Zm2.27-16.09H75.11v6.84H73.59v-.88h-11v.88H61.05ZM73.59,41h-11v3.26h11Z"/><path class="cls-4" d="M58.71,62.6h2.54V58.68h1.41V62.6h2.23V64H62.65v2.38l.74-.53q1.19,1.66,1.84,2.6l-1.09.8q-.76-1.25-1.48-2.29V77.86H61.25V67.6a19.76,19.76,0,0,1-2.32,5.29,17.31,17.31,0,0,0-.62-1.72A23.08,23.08,0,0,0,61.21,64h-2.5Zm15.23-1.45H66.89v6.66Q67,74.44,64.43,77.9a12.24,12.24,0,0,0-1.05-1.29q2.27-2.75,2.11-8.87V59.79h9.84q0,13.11.47,15.14.29.6.55,0a21.2,21.2,0,0,0,.25-2.83,9.06,9.06,0,0,0,1.29.55,29.48,29.48,0,0,1-.43,3.3q-.37,1.56-1.13,1.56-1.66,0-2.13-3.61Q73.9,71.27,73.94,61.16Zm-6.68,2.48,1.15-.59q1.15,2.42,2.09,4.45a47.73,47.73,0,0,0,1.64-4.67l1.29.45a57.36,57.36,0,0,1-2.15,5.9Q73,72.88,73.9,75l-1.33.66q-1-2.4-2.05-4.88a35.91,35.91,0,0,1-2.95,5.1q-.49-.45-1.13-.94a37.74,37.74,0,0,0,3.36-5.86Q68.59,66.43,67.26,63.64Z"/><path class="cls-4" d="M58.53,91h9.14V89.91L71.4,87.8H62.22V86.37H73.69V88l-4.43,2.56V91h8.4v1.43h-8.4v2.95a2,2,0,0,1-2.32,2.3q-1.29,0-3,0Q63.84,97,63.67,96q1.56.16,3,.18,1,0,1-1.07V92.43H58.53Zm.66-8H77V87H75.46V84.46H60.74V87H59.2Zm1.54-3.18L61.89,79q1.19,1.31,2.34,2.83l-1.33.94A30.81,30.81,0,0,0,60.74,79.85ZM66,79.26l1.27-.74q1.19,1.56,2.21,3.18l-1.41.8Q67.22,81,66,79.26Zm5.55,2.64a29.72,29.72,0,0,0,2.46-3l1.41,1q-1.27,1.45-2.71,3Z"/><path class="cls-4" d="M64.86,110.16q.57,3.75-1.8,4.22a6.38,6.38,0,0,1-1.89,0,9.66,9.66,0,0,0-.41-1.58v5H59.33v-18h5.45v1.37q-.8,3.07-1.58,5.31A8.14,8.14,0,0,1,64.86,110.16Zm-2.34,2.77q1.31-.25.86-2.79a8.32,8.32,0,0,0-1.7-3.44q1.09-3.77,1.56-5.57H60.76v11.64A4.74,4.74,0,0,0,62.52,112.93Zm2.75-4.26H77.18V110H73.28v5q0,.92.66.92h1.31q.68,0,.82-.92t.2-2.6q.64.27,1.54.61-.16,1.5-.33,2.6a1.77,1.77,0,0,1-2,1.68h-2q-1.64,0-1.64-1.87V110H69.68a8.92,8.92,0,0,1-1,4.65,9.52,9.52,0,0,1-4.08,3.18q-.76-1-1.07-1.33A8.3,8.3,0,0,0,67.3,114a6.76,6.76,0,0,0,.92-3.93H65.27Zm.08-7.58h5.38q-.52-.9-1.18-1.89l1.25-.72q.8,1.15,1.39,2.11l-.88.51H77v3.13H75.48v-1.78H66.83v1.78H65.35Zm.82,3.79h10v1.35h-10Z"/><path class="cls-4" d="M18.18,13.6a6.88,6.88,0,0,1,3.72-1q3.91,0,3.91,4.1v7H23.92V22h0a3.61,3.61,0,0,1-3.31,1.92,3.56,3.56,0,0,1-2.5-.85,3,3,0,0,1-.93-2.29q0-3,3.58-3.53l3.2-.45q0-2.65-2.19-2.65a5.47,5.47,0,0,0-3.54,1.31Zm3.2,5a3.28,3.28,0,0,0-1.83.66,1.82,1.82,0,0,0-.5,1.37,1.61,1.61,0,0,0,.55,1.26,2.09,2.09,0,0,0,1.45.49,2.68,2.68,0,0,0,2.06-.88,3.13,3.13,0,0,0,.81-2.21v-1Z"/><path class="cls-4" d="M25.9,43.16a5.71,5.71,0,0,1-3,.74,5,5,0,0,1-3.77-1.5,5.43,5.43,0,0,1-1.43-3.9,6,6,0,0,1,1.54-4.28,5.4,5.4,0,0,1,4.12-1.63,5.63,5.63,0,0,1,2.54.53V35a4.19,4.19,0,0,0-2.54-.84,3.44,3.44,0,0,0-2.67,1.14,4.35,4.35,0,0,0-1,3,4.15,4.15,0,0,0,1,2.92,3.39,3.39,0,0,0,2.62,1.05,4.36,4.36,0,0,0,2.64-.92Z"/><path class="cls-4" d="M18.18,53.6a6.88,6.88,0,0,1,3.72-1q3.91,0,3.91,4.1v7H23.92V62h0a3.61,3.61,0,0,1-3.31,1.92,3.56,3.56,0,0,1-2.5-.85,3,3,0,0,1-.93-2.29q0-3,3.58-3.53l3.2-.45q0-2.65-2.19-2.65a5.47,5.47,0,0,0-3.54,1.31Zm3.2,5a3.28,3.28,0,0,0-1.83.66,1.82,1.82,0,0,0-.5,1.37,1.61,1.61,0,0,0,.55,1.26,2.09,2.09,0,0,0,1.45.49,2.68,2.68,0,0,0,2.06-.88,3.13,3.13,0,0,0,.81-2.21v-1Z"/><path class="cls-4" d="M26.44,86.11H24.52v-1.8h0a3.94,3.94,0,0,1-3.67,2.05,4,4,0,0,1-3.26-1.46A6,6,0,0,1,16.34,81a6.42,6.42,0,0,1,1.37-4.29,4.46,4.46,0,0,1,3.57-1.62,3.42,3.42,0,0,1,3.2,1.72h0V70.12h1.91Zm-1.9-6.43a3,3,0,0,0-.85-2.17,2.83,2.83,0,0,0-2.1-.87,2.87,2.87,0,0,0-2.4,1.14,5,5,0,0,0-.88,3.1,4.43,4.43,0,0,0,.84,2.86,2.74,2.74,0,0,0,2.25,1,2.84,2.84,0,0,0,2.27-1,3.81,3.81,0,0,0,.88-2.56Z"/><path class="cls-4" d="M26.58,98.74H19a3.89,3.89,0,0,0,.95,2.67,3.3,3.3,0,0,0,2.51.94,5.35,5.35,0,0,0,3.33-1.16v1.71a6.42,6.42,0,0,1-3.78,1,4.63,4.63,0,0,1-3.66-1.48,6,6,0,0,1-1.31-4.12A5.91,5.91,0,0,1,18.5,94.2a4.61,4.61,0,0,1,3.58-1.61A4.17,4.17,0,0,1,25.39,94a5.61,5.61,0,0,1,1.19,3.81ZM24.67,97.2A3.43,3.43,0,0,0,24,94.94a2.39,2.39,0,0,0-1.92-.8,2.68,2.68,0,0,0-2,.85,3.94,3.94,0,0,0-1,2.22Z"/><path class="cls-4" d="M29.63,123.77H27.72v-6.2a4.41,4.41,0,0,0-.55-2.51,2.06,2.06,0,0,0-1.8-.76,2.22,2.22,0,0,0-1.81,1,3.74,3.74,0,0,0-.75,2.33v6.15H20.9v-6.4q0-3.08-2.37-3.08a2.19,2.19,0,0,0-1.81.94,3.82,3.82,0,0,0-.72,2.39v6.14H14.09V113H16v1.71h0a3.69,3.69,0,0,1,3.37-2,3.2,3.2,0,0,1,1.91.6,3.07,3.07,0,0,1,1.15,1.61,3.86,3.86,0,0,1,3.59-2.21q3.56,0,3.56,4.39Z"/><path class="cls-4" d="M27,130.3l-4.9,12.43q-1.37,3.46-3.86,3.46A4.17,4.17,0,0,1,17,146v-1.68a3,3,0,0,0,1.07.21A2.09,2.09,0,0,0,20,143l.83-2L16.58,130.3H18.7l2.82,8.12.23.89h0a8.88,8.88,0,0,1,.23-.87L25,130.3Z"/><path class="cls-4" d="M48,63.85a8.93,8.93,0,0,1-4.19.88,6.8,6.8,0,0,1-5.2-2.07A7.65,7.65,0,0,1,36.7,57.2a8,8,0,0,1,2.19-5.88,7.46,7.46,0,0,1,5.56-2.23,9,9,0,0,1,3.58.62v2a7.23,7.23,0,0,0-3.56-.9,5.41,5.41,0,0,0-4.12,1.68,6.35,6.35,0,0,0-1.59,4.55,6.08,6.08,0,0,0,1.48,4.31A5.06,5.06,0,0,0,44.12,63,7.34,7.34,0,0,0,48,62Z"/><path class="cls-4" d="M46.85,71.08H41v5.06h5.41v1.72H41v6.61h-2V69.35h7.79Z"/><path class="cls-4" d="M48,103.85a8.93,8.93,0,0,1-4.19.88,6.8,6.8,0,0,1-5.2-2.07A7.65,7.65,0,0,1,36.7,97.2a8,8,0,0,1,2.19-5.88,7.46,7.46,0,0,1,5.56-2.23,9,9,0,0,1,3.58.62v2a7.23,7.23,0,0,0-3.56-.9,5.41,5.41,0,0,0-4.12,1.68,6.35,6.35,0,0,0-1.59,4.55,6.08,6.08,0,0,0,1.48,4.31,5.06,5.06,0,0,0,3.89,1.6A7.34,7.34,0,0,0,48,102Z"/></g></g></svg>