<svg xmlns="http://www.w3.org/2000/svg" width="88.72" height="84.01" viewBox="0 0 88.72 84.01"><defs><style>.cls-1{opacity:0.4;}.cls-2{fill:#fdbe43;}.cls-3{fill:#f2a31c;}.cls-4{fill:#d89302;}.cls-5{fill:#be8000;}.cls-6{fill:#fdda48;}.cls-7{fill:#f5cc27;}</style></defs><title>qian</title><g id="图层_2" data-name="图层 2"><g id="图层_1-2" data-name="图层 1"><path class="cls-1" d="M32.84,67.44a29.41,29.41,0,1,0,29-42.15V3.19H3.19V67.44H32.84Z"/><rect class="cls-2" width="29.3" height="12.85"/><rect class="cls-3" x="29.3" width="29.3" height="12.85"/><rect class="cls-4" y="12.85" width="29.3" height="12.85"/><rect class="cls-5" x="29.3" y="12.85" width="29.3" height="12.85"/><rect class="cls-3" x="29.3" y="25.7" width="29.3" height="12.85"/><rect class="cls-2" y="25.7" width="29.3" height="12.85"/><rect class="cls-5" x="29.3" y="38.55" width="29.3" height="12.85"/><rect class="cls-4" y="38.55" width="29.3" height="12.85"/><rect class="cls-3" x="29.3" y="51.4" width="29.3" height="12.85"/><rect class="cls-2" y="51.4" width="29.3" height="12.85"/><path class="cls-6" d="M26.7,51.4A29.41,29.41,0,0,0,56.11,80.81V22A29.41,29.41,0,0,0,26.7,51.4Z"/><path class="cls-7" d="M56.11,22V80.81a29.41,29.41,0,0,0,0-58.82Z"/><path class="cls-5" d="M61.85,44.82c-1.66-1.48-3.1-2.22-4.81-2.22-2,0-3,.55-3,2.4,0,3.51,11.93,3.7,11.93,12.12a8.81,8.81,0,0,1-7.21,9.16v4.9H53.62V66.56A15.63,15.63,0,0,1,45.39,63l3.42-5.36c2.5,1.85,4.44,2.59,6.38,2.59,2.31,0,3.24-.79,3.24-2.59,0-3.7-11.93-4.21-11.93-12.3a8.52,8.52,0,0,1,7.12-8.88V31.69H58.8v4.72a12.09,12.09,0,0,1,7,3.88Z"/></g></g></svg>