<svg xmlns="http://www.w3.org/2000/svg" width="64" height="103.99" viewBox="0 0 64 103.99"><defs><style>.cls-1{fill:#80cbc4;}.cls-2{fill:#ffe7c7;}.cls-3{fill:#f9a825;}.cls-4{fill:#6d4c41;}</style></defs><title>qiqiu3</title><g id="图层_2" data-name="图层 2"><g id="图层_1-2" data-name="图层 1"><path class="cls-1" d="M64,25.48c0,30-32,62.92-32,62.92S0,55.47,0,25.48C0,5.38,14.33,0,32,0S64,4.3,64,25.48Z"/><path class="cls-2" d="M57.13,25.48C57.13,55.47,32,88.4,32,88.4S6.87,55.47,6.87,25.48C6.87,5.38,18.12,0,32,0S57.13,4.3,57.13,25.48Z"/><path class="cls-1" d="M45.63,25.48C45.63,55.47,32,88.4,32,88.4S18.37,55.47,18.37,25.48C18.37,5.38,24.47,0,32,0S45.63,4.3,45.63,25.48Z"/><path class="cls-3" d="M26.51,94.57h11a0,0,0,0,1,0,0v5.68A3.74,3.74,0,0,1,33.74,104H30.25a3.74,3.74,0,0,1-3.74-3.74V94.57A0,0,0,0,1,26.51,94.57Z"/><rect class="cls-4" x="25.79" y="92.83" width="12.42" height="3.82" rx="1.91" ry="1.91"/></g></g></svg>