<svg xmlns="http://www.w3.org/2000/svg" width="67.63" height="52.16" viewBox="0 0 67.63 52.16"><defs><style>.cls-1{fill:#676b6b;}.cls-2{fill:#edeeef;}.cls-3{fill:#63696b;}.cls-4{fill:#1e262b;}.cls-5{fill:#3f4649;}.cls-6{fill:#444747;}.cls-7{fill:#d8d8d8;}.cls-8{fill:#383a3a;}</style></defs><title>xiongmao</title><g id="图层_2" data-name="图层 2"><g id="图层_1-2" data-name="图层 1"><path class="cls-1" d="M18.24,3.48A10.45,10.45,0,1,0,3.11,17.88C5.73,11.71,11.18,6.58,18.24,3.48Z"/><path class="cls-2" d="M31.34,36.1h2.48V.29A38.8,38.8,0,0,0,18.24,3.48c-7.05,3.1-12.51,8.23-15.13,14.4a21.26,21.26,0,0,0-1.72,8.35c0,14.32,14.52,25.93,32.43,25.93V43.6a2.91,2.91,0,0,1-2.42-1l-2.35-3C27.89,38.06,29.19,36.1,31.34,36.1Z"/><path class="cls-3" d="M16.65,20.69c5.25-1.32,10.35,1,11.4,5.13s-2.36,8.6-7.6,9.92S10.1,34.77,9,30.61s2.36-8.6,7.6-9.92Zm0,0"/><path class="cls-4" d="M24.37,29.36a4.51,4.51,0,1,1-4.51-4.51,4.51,4.51,0,0,1,4.51,4.51Zm0,0"/><path class="cls-5" d="M31.34,36.1c-2.15,0-3.45,2-2.29,3.45l2.35,3a2.91,2.91,0,0,0,2.42,1V36.1Z"/><path class="cls-2" d="M21.17,30.67a3.53,3.53,0,0,1,0-2.62,3.53,3.53,0,0,1-2.62,0,3.53,3.53,0,0,1,0,2.62,3.53,3.53,0,0,1,2.62,0Z"/><path class="cls-6" d="M64.52,17.88A10.45,10.45,0,1,0,49.39,3.48C56.44,6.58,61.9,11.71,64.52,17.88Z"/><path class="cls-7" d="M64.52,17.88C61.9,11.71,56.44,6.58,49.39,3.48A38.8,38.8,0,0,0,33.81.29V36.1h2.48c2.15,0,3.45,2,2.29,3.45l-2.35,3a2.91,2.91,0,0,1-2.42,1v8.57c17.91,0,32.43-11.61,32.43-25.93A21.26,21.26,0,0,0,64.52,17.88Z"/><path class="cls-3" d="M51,20.69c5.25,1.32,8.65,5.77,7.6,9.92s-6.15,6.46-11.4,5.13-8.65-5.76-7.6-9.92,6.15-6.46,11.4-5.13Zm0,0"/><path class="cls-4" d="M43.26,29.36a4.51,4.51,0,1,1,4.51,4.51,4.51,4.51,0,0,1-4.51-4.51Zm0,0"/><path class="cls-8" d="M36.29,36.1c2.15,0,3.45,2,2.29,3.45l-2.35,3a2.91,2.91,0,0,1-2.42,1V36.1Z"/><path class="cls-2" d="M46.46,30.67a3.53,3.53,0,0,0,0-2.62,3.53,3.53,0,0,0,2.62,0,3.53,3.53,0,0,0,0,2.62,3.53,3.53,0,0,0-2.62,0Z"/></g></g></svg>