<svg xmlns="http://www.w3.org/2000/svg" width="28.032" height="26.468" viewBox="0 0 28.032 26.468">
  <defs>
    <style>
      .cls-1 {
        fill: #333;
        fill-rule: evenodd;
      }
    </style>
  </defs>
  <path id="扫一扫.svg" class="cls-1" d="M565.117,187.584h5.918a0.8,0.8,0,0,1,.793.8V193.4a1.181,1.181,0,1,0,2.361,0v-5.013a3.183,3.183,0,0,0-3.153-3.205h-5.919A1.2,1.2,0,0,0,565.117,187.584Zm-8.876,21.661h-4.932a0.8,0.8,0,0,1-.792-0.805v-5.013a1.181,1.181,0,1,0-2.362,0v5.013a3.184,3.184,0,0,0,3.154,3.206h4.931a1.205,1.205,0,0,0,.838-2.047A1.16,1.16,0,0,0,556.241,209.245Zm-6.9-14.643a1.191,1.191,0,0,0,1.18-1.2v-5.014a0.8,0.8,0,0,1,.793-0.8h4.931a1.2,1.2,0,0,0,0-2.4h-4.932a3.183,3.183,0,0,0-3.153,3.205V193.4A1.193,1.193,0,0,0,549.337,194.6Zm23.671,7.624a1.192,1.192,0,0,0-1.18,1.2v5.012a0.8,0.8,0,0,1-.793.805h-5.918a1.2,1.2,0,0,0,0,2.4h5.918a3.184,3.184,0,0,0,3.154-3.206v-5.013A1.193,1.193,0,0,0,573.008,202.226Zm0.986-5.012H548.351a1.2,1.2,0,0,0,0,2.4h25.643A1.2,1.2,0,0,0,573.994,197.214Z" transform="translate(-547.156 -185.188)"/>
</svg>
