<svg xmlns="http://www.w3.org/2000/svg" width="60" height="173" viewBox="0 0 60 173"><defs><style>.cls-1{fill:#fff;}</style></defs><title>资源 1</title><g id="图层_2" data-name="图层 2"><g id="图层_1-2" data-name="图层 1"><path class="cls-1" d="M30,4A26,26,0,1,1,4,30,26,26,0,0,1,30,4m0-4A30,30,0,1,0,60,30,30,30,0,0,0,30,0Z"/><path class="cls-1" d="M18.75,16.1a2.65,2.65,0,0,0-1.87,4.52l22.5,22.5a2.66,2.66,0,0,0,3.75,0h0a2.66,2.66,0,0,0,0-3.75l-22.5-22.5a2.64,2.64,0,0,0-1.87-.77Z"/><path class="cls-1" d="M41.25,16.1a2.64,2.64,0,0,0-1.87.77l-22.5,22.5a2.65,2.65,0,0,0,3.75,3.75l22.5-22.5a2.66,2.66,0,0,0,0-3.75h0a2.64,2.64,0,0,0-1.87-.77Z"/><polygon class="cls-1" points="31 59 29 59 29 173 31 173 31 59 31 59"/></g></g></svg>