<svg xmlns="http://www.w3.org/2000/svg" width="33.96" height="46.35" viewBox="0 0 33.96 46.35"><defs><style>.cls-1{fill:#e5e5e5;}.cls-2{fill:#333;}.cls-2,.cls-3{fill-rule:evenodd;}.cls-3{fill:#ff9500;}.cls-4{fill:#fff;}</style></defs><title>licai</title><g id="图层_2" data-name="图层 2"><g id="图层_1-2" data-name="图层 1"><path class="cls-1" d="M9.75,3.39S28.13,26.3,15.54,45.91l11.24-4.78s3.53.64,4.56-1.39,3.21-9.29-2.18-14.89a172.14,172.14,0,0,1-11.3-13.48s6.43-6,5.19-7.57-4.34-2.39-4.34-2.39Z"/><path class="cls-2" d="M21.53,14l-.83-.79a9,9,0,0,1-1.5-1.58,3.72,3.72,0,0,1,1-1c1.33-1,4.55-5.64,3.6-8.2C23.25.89,21.54.89,20.89.89h-1A2.44,2.44,0,0,0,18,0a5.46,5.46,0,0,0-2.54.9c-.22.12-.44.25-.66.35a1,1,0,0,1-.37.12.92.92,0,0,1-.25-.12A2.53,2.53,0,0,0,12.92.86a3.33,3.33,0,0,0-2.06.89,3.39,3.39,0,0,1-1.6.84,1.85,1.85,0,0,1-.55-.13,3.87,3.87,0,0,0-1.25-.24,3.6,3.6,0,0,0-1.74.49A3.44,3.44,0,0,0,3.62,5.41,3.92,3.92,0,0,0,.29,8.3a2.4,2.4,0,0,0,1.36,2.8,12.59,12.59,0,0,0,2.26.75c.85.23,2.14.58,4.38,1.25l.68.2c.32.09.67.19.93.28-.32.53-1,1.39-1.25,1.71C1.08,24.93-1.75,34.16,1.07,40c1.41,2.91,5,6.38,13.81,6.38.69,0,1.42,0,2.16-.06,3.41-.2,5-.29,9-2.93,3.62-.27,6.21-2,7.31-5,2.25-6-2.19-15.15-11.86-24.41ZM9,10.85c-2.27-.67-3.57-1-4.44-1.26A10.5,10.5,0,0,1,2.62,9l0,0a.72.72,0,0,1,.17-.5,1.85,1.85,0,0,1,1.59-.74h.13A1.57,1.57,0,0,0,6,5.89c0-.34,0-.61.89-1.11a1.37,1.37,0,0,1,.62-.2A1.81,1.81,0,0,1,8,4.7a4,4,0,0,0,1.27.24,5,5,0,0,0,3.06-1.36,2.36,2.36,0,0,1,.57-.37l.16.09a2.72,2.72,0,0,0,1.4.42,3.17,3.17,0,0,0,1.39-.36c.25-.12.51-.27.77-.41a4.3,4.3,0,0,1,1.4-.6s.07,0,.18.16a2.11,2.11,0,0,0,1.87.74h.81a2.85,2.85,0,0,1,.74.06c.24,1.14-1.79,4.61-2.85,5.43A4.69,4.69,0,0,0,16.9,11a18,18,0,0,0-5.33.76A7.45,7.45,0,0,0,9.62,11L9,10.85ZM31.18,37.54a5,5,0,0,1-3.41,3.12,12.29,12.29,0,0,0,.69-1.35,14.29,14.29,0,0,0,1.16-5.58h0v-.1h0c0-.06,0-.09,0-.09s0-1-1.27-1a1.18,1.18,0,0,0-1.06,1.22h0c0,.36.22,8.93-8.63,10.1-.52,0-1.09.08-1.74.12s-1.38.06-2,.06C8.75,44,4.82,42.3,3.19,38.95.8,34,3.6,25.53,10.5,16.75a12.55,12.55,0,0,0,1.73-2.56,21.53,21.53,0,0,1,5.4-.76,18.31,18.31,0,0,0,1.46,1.46l.81.77C30.47,25.77,32.66,33.6,31.18,37.54Z"/><path class="cls-3" d="M22.2,30.38a4.46,4.46,0,0,0-3-.69l-2,.21a1.92,1.92,0,0,1-.92-.17.71.71,0,0,1-.38-.53q-.11-.67.74-1.4a3.78,3.78,0,0,1,1.85-.89,5.18,5.18,0,0,1,1.15,0,5.14,5.14,0,0,0,1.14,0,1,1,0,0,0,.75-.55,1.36,1.36,0,0,0,.14-.89q-.11-.67-1.61-1a5.89,5.89,0,0,0-2-.1h0l-.09-.55c-.07-.36-.22-1.11-1.25-.76a1.14,1.14,0,0,0-.92,1.27c0,.21.09.58.16,1a6.19,6.19,0,0,0-1.18,1.17,4.58,4.58,0,0,0-1.1,3.57,2.37,2.37,0,0,0,1.81,2A5.67,5.67,0,0,0,18,32.2a7.21,7.21,0,0,1,2.4-.08,1.52,1.52,0,0,1,1.08,1.39q.14.85-1.06,1.78a5.55,5.55,0,0,1-2.52,1.13,2,2,0,0,1-2.23-.79A1.13,1.13,0,0,0,14.46,35a1,1,0,0,0-.77.52,1.53,1.53,0,0,0-.14,1,2.65,2.65,0,0,0,1.31,1.84,4.6,4.6,0,0,0,3.29.52l.1.59c.07.36.22,1.11,1.25.76a1.14,1.14,0,0,0,.92-1.27l-.11-.68a8,8,0,0,0,1.78-1,3.94,3.94,0,0,0,1.73-4,4.15,4.15,0,0,0-1.63-2.87Z"/><circle class="cls-4" cx="16.74" cy="6.32" r="1.5"/></g></g></svg>