<svg xmlns="http://www.w3.org/2000/svg" width="41.37" height="42.24" viewBox="0 0 41.37 42.24"><defs><style>.cls-1{fill:#333;}.cls-1,.cls-2,.cls-3{fill-rule:evenodd;}.cls-2{fill:#e5e5e5;}.cls-3{fill:#ff9500;}.cls-4{fill:#fff;}</style></defs><title>shenghuo</title><g id="图层_2" data-name="图层 2"><g id="图层_1-2" data-name="图层 1"><path class="cls-1" d="M40.92,25l-1.61-.28c-.26,0-.53-.12-.79-.18l-1.6-.42-.11,0-1.2-.45-1.12-.42-.09,0c-.29-.16-.59-.31-.87-.49a10.8,10.8,0,0,1-1.22-.85,10.29,10.29,0,0,1-.94-1,.53.53,0,0,1,0-.64,10,10,0,0,1,.56-.87,7.41,7.41,0,0,1,.87-1c.47-.43,1-.81,1.48-1.2a5,5,0,0,1,.6-.4c.45-.26.91-.5,1.36-.74l.68-.36c.32-.16.64-.33,1-.47s.73-.28,1.09-.43l1.26-.51c.28-.11.34-.19.24-.47s-.21-.51-.32-.76l-.44-1c-.07-.16-.14-.32-.23-.48a1.71,1.71,0,0,0-.24-.35.3.3,0,0,0-.38,0l-1.1.5-1.07.45-.51.24-.82.42-.81.47c-.25.14-.51.28-.74.44-.42.29-.83.57-1.22.89a16.29,16.29,0,0,0-1.29,1.18,6.12,6.12,0,0,0-1.08,1.52,3.59,3.59,0,0,0-.5,1.44,13.59,13.59,0,0,0,0,1.65,7.07,7.07,0,0,0,.59,2.93,6.24,6.24,0,0,0,.5.79,5.66,5.66,0,0,0,1.35,1.29c.47.32,1,.61,1.44.9.25.15.51.26.77.38s.68.34,1,.47.9.28,1.35.42l.15.05.83.24.42.11.86.2.54.12.7.2a1.2,1.2,0,0,0,.3-.24,1.6,1.6,0,0,0,.18-.46c.16-.57.31-1.15.47-1.73a2.35,2.35,0,0,1,.1-.28c.18-.43.08-.59-.37-.66Z"/><path class="cls-1" d="M5.39,29.84l.86-.47c.28-.15.56-.28.83-.45.53-.35,1.05-.73,1.58-1.1a8,8,0,0,0,1.63-1.51,5.25,5.25,0,0,0,.84-1.23c.13-.31.28-.62.4-.93a2.6,2.6,0,0,0,.14-.64c0-.34,0-.68,0-.94a16.05,16.05,0,0,0-.13-1.85,4,4,0,0,0-.49-1.7,5,5,0,0,0-.8-1.13,9.09,9.09,0,0,0-1.1-1A16.51,16.51,0,0,0,7.78,16,9.12,9.12,0,0,0,7,15.61c-.36-.16-.71-.34-1.08-.47s-.9-.29-1.35-.43-1.17-.35-1.76-.51-1-.22-1.48-.33a.43.43,0,0,0-.56.27,2.91,2.91,0,0,0-.09.3c-.08.24-.16.49-.22.73-.14.51-.28,1-.42,1.54a.28.28,0,0,0,0,.06.32.32,0,0,0,.3.39l1.09.17.72.14.78.19,1.52.4.09,0,1.25.46L6.87,19,7,19c.28.16.57.3.84.47A11.48,11.48,0,0,1,9,20.38a10.75,10.75,0,0,1,1,1,.41.41,0,0,1,.06.46,7.22,7.22,0,0,1-.43.77c-.15.23-.32.43-.49.64a9.42,9.42,0,0,1-1.72,1.56c-.41.32-.87.58-1.31.86-.24.15-.5.29-.75.42l-.88.43c-.33.16-.65.34-1,.49s-.73.28-1.1.42L1.09,28c-.24.1-.29.19-.2.42s.24.58.36.87l.44,1,.26.55a.4.4,0,0,0,.58.24c.36-.19.73-.34,1.1-.5l1.06-.45c.23-.1.47-.21.69-.33Z"/><path class="cls-1" d="M3,10.4l.14.1c.5.39,1,.78,1.51,1.16.35.26.71.5,1.07.73s1,.59,1.47.87l.89.49.25.1.31.12,1.47.53c.15.05.32.09.47.13a4.34,4.34,0,0,0,.57.13c.34,0,.68.05,1,.07A4.29,4.29,0,0,0,15.11,14l.61-.43c.34-.24.7-.47,1-.74A4.53,4.53,0,0,0,18.1,11a7.77,7.77,0,0,0,.48-1.72,15.45,15.45,0,0,0,.1-1.73,16.55,16.55,0,0,0-.18-1.85,10.16,10.16,0,0,0-.44-2.1A2,2,0,0,1,18,3.32L17.6,1.79s0-.06,0-.09l-.19-.54c-.08-.22-.15-.44-.24-.64s-.24-.23-.44-.16-.55.16-.83.23l-.63.15L14.66.9,14.27,1c-.42.13-.5.37-.28.75a2,2,0,0,1,.18.39c.15.45.28.9.42,1.35l0,.09.23.75.09.34c.07.25.14.51.2.76s.11.47.15.71.12.61.17.91.09.68.11,1a9.79,9.79,0,0,1,.06,1.38,6.42,6.42,0,0,1-.49,2.38.71.71,0,0,1-.61.47,7,7,0,0,1-2.88-.41,7.82,7.82,0,0,1-.77-.31c-.27-.12-.54-.24-.8-.38s-.57-.32-.85-.49S8.39,10.23,8,10,7,9.22,6.47,8.83,5.46,8,5,7.6a.34.34,0,0,0-.53,0c-.27.36-.55.72-.82,1.08s-.52.71-.76,1.07-.11.45.16.6Z"/><path class="cls-1" d="M38.35,31.83a.61.61,0,0,1-.15-.1c-.5-.39-1-.78-1.51-1.16-.34-.25-.7-.49-1.06-.72s-1-.6-1.5-.89c-.23-.13-.47-.25-.71-.37a11,11,0,0,0-1-.49c-.46-.17-.94-.27-1.4-.44a6.54,6.54,0,0,0-2-.28,4.7,4.7,0,0,0-.84.07,5.06,5.06,0,0,0-1.18.41,9.9,9.9,0,0,0-1.14.77c-.44.31-.88.62-1.3.95a4,4,0,0,0-1.35,2,7.41,7.41,0,0,0-.4,2,19.07,19.07,0,0,0,.39,4.53c0,.09.05.18.08.26l.46,1.61c0,.05,0,.1,0,.15.14.47.29.94.44,1.41a1,1,0,0,0,.11.21.35.35,0,0,0,.49.15c.25-.09.51-.15.77-.22l.61-.15.66-.18a4.17,4.17,0,0,0,.42-.12c.33-.13.39-.35.21-.66a2.72,2.72,0,0,1-.22-.5c-.14-.42-.28-.83-.41-1.25-.19-.65-.37-1.3-.55-1.95,0-.16-.08-.32-.11-.48-.07-.38-.15-.76-.21-1.14s-.06-.58-.11-.86a7.23,7.23,0,0,1,.46-4.06.54.54,0,0,1,.47-.36l.22,0a5,5,0,0,1,2.17.27c.09,0,.19,0,.29.07.39.14.78.28,1.16.43a6.86,6.86,0,0,1,.69.33c.3.16.59.33.88.51s.84.48,1.24.75,1,.73,1.54,1.12,1,.8,1.47,1.22a.36.36,0,0,0,.52,0l.34-.45,1.24-1.7a.39.39,0,0,0-.14-.64Z"/><path class="cls-1" d="M20.57,35.75a14.57,14.57,0,0,0-.4-2.55A.87.87,0,0,0,20.1,33c-.16-.38-.3-.77-.48-1.14a4.86,4.86,0,0,0-.46-.82,4,4,0,0,0-1.3-1.22l-.66-.34c-.33-.16-.65-.33-1-.47s-.77-.32-1.16-.47a2.15,2.15,0,0,0-.62-.17,4.56,4.56,0,0,0-2.19.22c-.05,0-.12,0-.17,0l-1.14.42-.07,0c-.27.16-.55.31-.81.47s-.82.5-1.2.78-.92.73-1.37,1.12-.79.71-1.16,1.09c-.56.57-1.1,1.17-1.65,1.75-.17.18-.18.26,0,.46a1.56,1.56,0,0,0,.15.18l1.73,1.76c.24.25.36.25.59,0s.37-.5.58-.72c.69-.73,1.38-1.47,2.09-2.17a16,16,0,0,1,1.49-1.32c.51-.39,1.07-.73,1.62-1.08a4,4,0,0,1,1.25-.59.71.71,0,0,0,.18-.07,2.83,2.83,0,0,1,1.35-.23.51.51,0,0,1,.36.16,3.39,3.39,0,0,1,.4.65c.16.33.3.67.43,1a6.78,6.78,0,0,1,.21.71c0,.15.06.31.09.46a8.32,8.32,0,0,1,.17.93,25.74,25.74,0,0,1,0,4c-.06.66-.16,1.32-.26,2a6.49,6.49,0,0,1-.2.92c-.12.38,0,.56.39.6l1.43.15,1.14.13c.25,0,.37-.06.4-.28.1-.6.21-1.2.27-1.81.08-.86.1-1.72.15-2.58h-.06c0-.6,0-1.21,0-1.81Z"/><path class="cls-1" d="M21.2,9.07a.73.73,0,0,0,.06.17c.16.39.32.79.5,1.17a4.25,4.25,0,0,0,.45.78,4.21,4.21,0,0,0,1.27,1.19l.64.33c.33.16.65.33,1,.48s.82.35,1.24.49a3.05,3.05,0,0,0,.72.16c.3,0,.6,0,.91,0a7.9,7.9,0,0,0,1.72-.39.56.56,0,0,0,.12-.06l1-.46a8.38,8.38,0,0,0,.83-.45c.37-.24.7-.52,1.07-.77a14.54,14.54,0,0,0,2.06-1.77c.67-.66,1.3-1.36,1.94-2,.18-.19.2-.31,0-.52a7,7,0,0,0-.49-.54c-.44-.44-.9-.87-1.32-1.33-.24-.28-.44-.3-.7.06a5.73,5.73,0,0,1-.49.62c-.69.74-1.38,1.48-2.1,2.19a15.68,15.68,0,0,1-1.47,1.31c-.52.4-1.08.74-1.63,1.09a4,4,0,0,1-1.24.59.76.76,0,0,0-.18.07,2.84,2.84,0,0,1-1.46.23.35.35,0,0,1-.25-.12,6.36,6.36,0,0,1-.64-1.08A4.47,4.47,0,0,1,24.26,9a1.36,1.36,0,0,0,0-.19c-.06-.35-.15-.69-.18-1S24,6.87,24,6.44a19.53,19.53,0,0,1,.22-3.82c0-.23.07-.47.1-.7A4,4,0,0,1,24.52.78c.11-.28,0-.46-.32-.5l-.57,0-2-.24c-.28,0-.4,0-.44.27C21.07.85,21,1.43,20.89,2c-.08.79-.1,1.59-.17,2.65,0,.56.08,1.38.09,2.2a16.17,16.17,0,0,0,.38,2.21Z"/><path class="cls-2" d="M28,21.22A7.3,7.3,0,1,0,13.4,21.1,7.3,7.3,0,0,0,28,21.22Z"/><path class="cls-3" d="M25.48,21.19a4.78,4.78,0,1,0-9.56-.08,4.78,4.78,0,0,0,9.56.08Z"/><circle class="cls-4" cx="20.7" cy="21.12" r="1.43" transform="translate(-8.54 16.72) rotate(-37.03)"/></g></g></svg>