<svg xmlns="http://www.w3.org/2000/svg" width="32.25" height="25.625" viewBox="0 0 32.25 25.625">
  <defs>
    <style>
      .cls-1 {
        fill: #333;
        fill-rule: evenodd;
      }
    </style>
  </defs>
  <path id="搜索.svg" class="cls-1" d="M576.746,300.99l-5.138-6.869a9.818,9.818,0,0,0,2.966-7.047,9.556,9.556,0,1,0-9.554,9.755,9.335,9.335,0,0,0,4.67-1.254l5.156,6.894a1.182,1.182,0,0,0,.95.48,1.166,1.166,0,0,0,.723-0.249,1.236,1.236,0,0,0,.227-1.71h0Zm-18.891-13.917a7.167,7.167,0,1,1,7.166,7.316,7.249,7.249,0,0,1-7.166-7.316h0Zm-4.785-4.9h-7.165a1.219,1.219,0,0,1,0-2.438h7.165a1.219,1.219,0,0,1,0,2.438h0Zm-2.388,9.754h-4.777a1.219,1.219,0,0,1,0-2.438h4.777a1.219,1.219,0,0,1,0,2.438h0Zm8.359,8.535H545.905a1.219,1.219,0,0,1,0-2.438h13.136a1.219,1.219,0,0,1,0,2.438h0Z" transform="translate(-544.719 -277.313)"/>
</svg>
