<svg xmlns="http://www.w3.org/2000/svg" width="12.875" height="23.375" viewBox="0 0 12.875 23.375">
  <defs>
    <style>
      .cls-1 {
        fill: #ccc;
        fill-rule: evenodd;
      }
    </style>
  </defs>
  <path id="箭头.svg" class="cls-1" d="M718.541,677.4c0.015,0.03.039,0.055,0.052,0.087a1.505,1.505,0,0,1-.278,1.685L708.17,689.337a1.327,1.327,0,0,1-1.949-.058,1.522,1.522,0,0,1,.054-2.064l9.1-9.12-9.067-9.255a1.521,1.521,0,0,1-.036-2.064,1.324,1.324,0,0,1,1.949-.038L718.277,677c0.02,0.021.027,0.049,0.046,0.07s0.031,0.025.045,0.041a1.353,1.353,0,0,1,.173.292h0Z" transform="translate(-705.844 -666.344)"/>
</svg>
