<svg xmlns="http://www.w3.org/2000/svg" width="54" height="54" viewBox="0 0 54 54"><defs><style>.cls-1{fill:#fff;opacity:0;}.cls-2{fill:#009fef;}.cls-3{fill:#2fbeea;}</style></defs><title>医疗</title><g id="图层_2" data-name="图层 2"><g id="图层_1-2" data-name="图层 1"><rect class="cls-1" width="54" height="54"/><path class="cls-2" d="M45.68,19.63a3.13,3.13,0,0,1,3.13,3.13v25a3.13,3.13,0,0,1-3.12,3.13H8.18a3.13,3.13,0,0,1-3.12-3.12v-25a3.13,3.13,0,0,1,3.13-3.12h37.5m0-3.12H8.18a6.25,6.25,0,0,0-6.25,6.25v25A6.25,6.25,0,0,0,8.18,54h37.5a6.25,6.25,0,0,0,6.25-6.25v-25A6.25,6.25,0,0,0,45.68,16.5Z"/><polygon class="cls-2" points="36.31 32.13 30.06 32.13 30.06 25.88 23.81 25.88 23.81 32.13 17.56 32.13 17.56 38.38 23.81 38.38 23.81 44.63 30.06 44.63 30.06 38.38 36.31 38.38 36.31 32.13"/><path class="cls-2" d="M17.56,13.38V10.25a3.13,3.13,0,0,1,3.13-3.12h12.5a3.13,3.13,0,0,1,3.13,3.13v3.13h3.13V10.25A6.25,6.25,0,0,0,33.18,4H20.68a6.25,6.25,0,0,0-6.25,6.25v3.13Z"/><polygon class="cls-3" points="30.06 25.88 26.93 25.88 26.93 44.63 30.06 44.63 30.06 38.38 36.31 38.38 36.31 32.13 30.06 32.13 30.06 25.88"/><path class="cls-3" d="M45.68,16.5H26.93v3.13H45.68a3.13,3.13,0,0,1,3.13,3.13v25a3.13,3.13,0,0,1-3.12,3.13H26.93V54H45.68a6.25,6.25,0,0,0,6.25-6.25v-25A6.25,6.25,0,0,0,45.68,16.5Z"/><path class="cls-3" d="M33.18,4H26.93V7.13h6.25a3.13,3.13,0,0,1,3.13,3.13v3.13h3.13V10.25A6.25,6.25,0,0,0,33.18,4Z"/></g></g></svg>