<svg xmlns="http://www.w3.org/2000/svg" width="54" height="54" viewBox="0 0 54 54"><defs><style>.cls-1{fill:#fff;opacity:0;}.cls-2{fill:#a430ef;}.cls-3{fill:#9d5de8;}</style></defs><title>意外</title><g id="图层_2" data-name="图层 2"><g id="图层_1-2" data-name="图层 1"><rect class="cls-1" width="54" height="54"/><path class="cls-2" d="M27.31,4.29C15.13,4.29,4.22,15,4.22,28.07a1.67,1.67,0,0,0,1.66,1.68h0a1.67,1.67,0,0,0,1.66-1.68h0A3.67,3.67,0,0,1,11,24.23a3.67,3.67,0,0,1,3.44,3.84,1.66,1.66,0,1,0,3.33,0,3.67,3.67,0,0,1,3.44-3.84c2,.12,4.52,1.81,4.44,3.8V45.27a.92.92,0,0,0,0,.25,4.78,4.78,0,1,1-9.53,0,1.66,1.66,0,1,0-3.33,0A8.11,8.11,0,1,0,28.94,46q0-.24,0-.49v-.31A.92.92,0,0,0,29,45v-17c-.05-2,2.47-3.61,4.43-3.72a3.67,3.67,0,0,1,3.44,3.84,1.66,1.66,0,0,0,3.33,0h0a3.67,3.67,0,0,1,3.42-3.84A3.67,3.67,0,0,1,47,28.07a1.66,1.66,0,0,0,1.61,1.68h.08a1.68,1.68,0,0,0,1.63-1.68C50.4,15,39.49,4.29,27.31,4.29ZM43.6,20.87a6.6,6.6,0,0,0-5.13,2.53c-2.15-2.82-7.18-3.36-10-1.21a6.42,6.42,0,0,0-1.21,1.21c-2.15-2.82-7.18-3.36-10-1.21A6.42,6.42,0,0,0,16,23.4a6.6,6.6,0,0,0-5.13-2.53,6.34,6.34,0,0,0-2.3.47A20.16,20.16,0,0,1,27.31,7.66,20.17,20.17,0,0,1,46,21.34a6.33,6.33,0,0,0-2.41-.48Z"/><path class="cls-3" d="M27.47,4.3V7.66A20.17,20.17,0,0,1,46,21.34a6.33,6.33,0,0,0-2.41-.48,6.6,6.6,0,0,0-5.13,2.53c-2.15-2.82-7.18-3.36-10-1.21a6.42,6.42,0,0,0-1,1V44.84c0,1.13-.53,7.53-6.66,7.53s-6.6-6.14-6.6-8.5a1.66,1.66,0,0,0-1.48,1.65A8.11,8.11,0,1,0,28.94,46q0-.24,0-.49v-.31A.92.92,0,0,0,29,45v-17c-.05-2,2.47-3.61,4.43-3.72a3.67,3.67,0,0,1,3.44,3.84,1.66,1.66,0,0,0,3.33,0h0a3.67,3.67,0,0,1,3.42-3.84A3.67,3.67,0,0,1,47,28.07a1.66,1.66,0,0,0,1.61,1.68h.08a1.68,1.68,0,0,0,1.63-1.68C50.4,15,39.59,4.39,27.47,4.3Z"/></g></g></svg>