<svg xmlns="http://www.w3.org/2000/svg" width="54" height="54" viewBox="0 0 54 54"><defs><style>.cls-1{fill:#fff;opacity:0;}.cls-2{fill:#ea3518;}.cls-3{fill:#e85f1a;}</style></defs><title>财产</title><g id="图层_2" data-name="图层 2"><g id="图层_1-2" data-name="图层 1"><rect class="cls-1" width="54" height="54"/><path class="cls-2" d="M10,4A3,3,0,0,0,7,7V31.24c0,9.83,6.44,13.85,13.9,18.5,1.71,1.07,3.49,2.17,5.26,3.4L27.4,54l1.26-.87c1.77-1.22,3.55-2.33,5.26-3.4,7.46-4.65,13.9-8.67,13.9-18.5V7a3,3,0,0,0-3-3ZM32.38,47l-.45.28c-1.48.92-3,1.87-4.54,2.92C25.71,49,24.08,48,22.54,47c-3.48-2.17-6.77-4.22-9-6.69a12.77,12.77,0,0,1-3.39-9.12V7.18H44.66V31.24a12.77,12.77,0,0,1-3.39,9.12C39.06,42.78,35.82,44.81,32.38,47Z"/><path class="cls-2" d="M34.74,29.09H28.8V25.86l.07-.07h5.87a1.43,1.43,0,1,0,0-2.87H31.68L35.52,19a1.43,1.43,0,0,0-2.05-2l-5.8,5.93h-.59l-5.15-5.86a1.43,1.43,0,0,0-2-.21,1.45,1.45,0,0,0-.14,2.09l3.5,4H20.05a1.43,1.43,0,1,0,0,2.87h5.73l.15.17v3.13H20.05a1.43,1.43,0,0,0,0,2.87h5.88v2.83a1.44,1.44,0,0,0,1.32,1.54h.12A1.43,1.43,0,0,0,28.79,35a1.14,1.14,0,0,0,0-.2V32h5.94a1.43,1.43,0,0,0,0-2.87Z"/><path class="cls-3" d="M27.4,7.18H44.66V31.24a12.77,12.77,0,0,1-3.39,9.12c-2.21,2.43-5.45,4.46-8.88,6.61l-.45.28c-1.48.92-3,1.87-4.54,2.92h0V54h0l1.26-.87c1.77-1.22,3.55-2.33,5.26-3.4,7.46-4.65,13.9-8.67,13.9-18.5V7a3,3,0,0,0-3-3H27.4Z"/><path class="cls-3" d="M28.87,25.79h5.87a1.43,1.43,0,1,0,0-2.87H31.68L35.52,19a1.43,1.43,0,0,0-2.05-2l-5.8,5.93H27.4V36.33h0A1.43,1.43,0,0,0,28.79,35a1.14,1.14,0,0,0,0-.2V32h5.94a1.43,1.43,0,0,0,0-2.87H28.8V25.87Z"/></g></g></svg>