<svg xmlns="http://www.w3.org/2000/svg" width="54" height="54" viewBox="0 0 54 54"><defs><style>.cls-1{fill:#fff;opacity:0;}.cls-2{fill:#f47a00;}.cls-3{fill:#ffa14d;}</style></defs><title>易安特色</title><g id="图层_2" data-name="图层 2"><g id="图层_1-2" data-name="图层 1"><rect class="cls-1" width="54" height="54"/><path class="cls-2" d="M42.31,33.88A20.1,20.1,0,1,0,11.75,34L5.44,45.51a.64.64,0,0,0,.56.94h7.4a1.27,1.27,0,0,1,1.06.57l4.36,6.68a.64.64,0,0,0,1.09,0l7.15-12.47,7.16,12.47a.64.64,0,0,0,1.08,0L39.68,47a1.27,1.27,0,0,1,1.06-.57h7.41a.64.64,0,0,0,.56-.94L42.31,33.88ZM24.75,4.18A16.91,16.91,0,1,1,10.2,18.73,16.93,16.93,0,0,1,24.75,4.18ZM18.94,48.06l-2.75-4.22a1.27,1.27,0,0,0-1.06-.57H11a.41.41,0,0,1-.36-.6l3.46-6.3a20,20,0,0,0,9.55,4.39L19.48,48a.31.31,0,0,1-.53,0Zm19-4.22L35.2,48.06a.31.31,0,0,1-.53,0l-4.2-7.32A20,20,0,0,0,40,36.24l3.61,6.57a.31.31,0,0,1-.27.46H39a1.27,1.27,0,0,0-1.06.58Z"/><path class="cls-3" d="M42.31,33.88A20.08,20.08,0,0,0,29.26,1,20.73,20.73,0,0,0,27.07.85V4a16.9,16.9,0,0,1,2.1,33.66,17.47,17.47,0,0,1-2.1.14v3.37l7.15,12.47a.64.64,0,0,0,1.08,0L39.68,47a1.27,1.27,0,0,1,1.06-.57h7.41a.64.64,0,0,0,.56-.94Zm1.14,9.34a.31.31,0,0,1-.15,0H39a1.27,1.27,0,0,0-1.06.58h0L35.2,48.06a.31.31,0,0,1-.53,0l-4.2-7.32A20,20,0,0,0,40,36.24l3.61,6.57A.31.31,0,0,1,43.45,43.22Z"/><path class="cls-2" d="M32.35,30.54a1.47,1.47,0,0,1-.67-.16l-4.61-2.27-4.65,2.28a1.48,1.48,0,0,1-1.51-.12,1.44,1.44,0,0,1-.57-1.41l1-4.93-3.66-3.38a1.45,1.45,0,0,1-.37-1.49,1.43,1.43,0,0,1,1.16-1l5.08-.92,2.28-4.58a1.44,1.44,0,0,1,2.59,0l2.28,4.58,5.09.9a1.43,1.43,0,0,1,1.15,1,1.45,1.45,0,0,1-.36,1.48l-3.67,3.42.93,4.92a1.45,1.45,0,0,1-1.42,1.7Z"/><path class="cls-3" d="M35.73,18l-5.09-.9-2.28-4.58a1.44,1.44,0,0,0-1.29-.81V28.11l4.61,2.27a1.47,1.47,0,0,0,.67.16h0a1.45,1.45,0,0,0,1.42-1.7l-.93-4.92,3.67-3.42A1.45,1.45,0,0,0,36.88,19,1.43,1.43,0,0,0,35.73,18Z"/></g></g></svg>