<svg xmlns="http://www.w3.org/2000/svg" width="50" height="50" viewBox="0 0 50 50">
  <defs>
    <style>
      .cls-1 {
        fill: #ff9500;
        fill-rule: evenodd;
      }
    </style>
  </defs>
  <path id="购.svg" class="cls-1" d="M695,853a25,25,0,1,0,25,25A25.073,25.073,0,0,0,695,853Zm0,46.094A21.094,21.094,0,1,1,716.094,878,21.006,21.006,0,0,1,695,899.094Zm-7.344-27.5h1.875v5a33.923,33.923,0,0,1-.469,6.25c1.563,1.562,3.125,3.281,4.844,5l-1.562,1.25c-0.469-.469-1.094-1.25-2.188-2.5-0.781-.938-1.406-1.563-1.719-1.875-0.468,1.718-1.875,3.593-4.218,5.468l-1.407-1.406a9.766,9.766,0,0,0,3.75-4.375c0.625-1.406.938-3.75,0.938-7.187l0.156-5.625h0Zm-3.281-3.907h8.281v7.188a28.44,28.44,0,0,0,3.594-8.594l2.031,0.469c-0.469,1.094-.781,2.187-1.25,3.281h9.375c0,5.938.156,11.094,0,15.469,0,2.969-1.562,4.375-4.844,4.219h-3.906a9.781,9.781,0,0,0-.469-2.032,31.575,31.575,0,0,0,4.375.313c2.032,0.156,2.969-.781,2.969-2.813,0.156-2.343,0-13.437,0-13.437h-8.125c-0.625,1.406-1.25,2.656-1.875,3.906a12.389,12.389,0,0,0-1.719-.781v7.969h-1.718V869.406H686.25V883h-1.875V867.687Zm14.844,10,1.718-.468q0.47,1.875,1.407,4.687c0.312,1.25.625,2.188,0.781,2.813l-1.875.468-0.313-1.406a24.659,24.659,0,0,0-2.968.156,9.246,9.246,0,0,1-1.719.157,6.148,6.148,0,0,0-2.188.468L693.281,883a3.686,3.686,0,0,0,1.25-1.406,68.915,68.915,0,0,0,2.5-7.969l2.031,0.469c-0.937,3.125-2.031,5.937-2.968,8.437a38.459,38.459,0,0,1,4.375-.312c-0.313-1.563-.782-2.969-1.25-4.532h0Z" transform="translate(-670 -853)"/>
</svg>
