<svg xmlns="http://www.w3.org/2000/svg" width="54" height="54" viewBox="0 0 54 54"><defs><style>.cls-1{fill:#fff;opacity:0;}.cls-2{fill:#29cc82;}.cls-3{fill:#5ae2a1;}</style></defs><title>出行</title><g id="图层_2" data-name="图层 2"><g id="图层_1-2" data-name="图层 1"><rect class="cls-1" width="54" height="54"/><path class="cls-2" d="M51.77,45.12V39a11.92,11.92,0,0,0,2-6.84c0-4.15-1.73-7.71-5-9.59C47.84,15,43.65,9.39,38.47,9.39h-23C10.27,9.39,6.08,15,5.15,22.56c-3.27,1.87-5,5.44-5,9.59a12,12,0,0,0,2,6.84v6.14c0,3,10.94,3,10.94,0v-2H40.84v2c0,3,10.93,3,10.93,0M9.41,35.71A3.57,3.57,0,1,1,13,32.14a3.57,3.57,0,0,1-3.57,3.57m1.28-14.57a13.08,13.08,0,0,0-2,.18c1-5,3.71-8.66,6.77-8.66h23c3.06,0,5.74,3.67,6.76,8.66-.34-.05-.71-.07-1.06-.1,0,0-33.48-.09-33.48-.09M44.51,35.71a3.57,3.57,0,1,1,3.57-3.57,3.57,3.57,0,0,1-3.57,3.57"/><path class="cls-3" d="M48.77,22.56C47.84,15,43.65,9.39,38.47,9.39H27v3.28H38.48c3.06,0,5.74,3.67,6.76,8.66-.34-.05-.71-.07-1.06-.1,0,0-8.64,0-17.15-.06v22H40.84v2c0,3,10.93,3,10.93,0V39a11.92,11.92,0,0,0,2-6.84C53.77,28,52,24.43,48.77,22.56ZM44.51,35.71a3.57,3.57,0,1,1,3.57-3.57A3.57,3.57,0,0,1,44.51,35.71Z"/></g></g></svg>