<svg xmlns="http://www.w3.org/2000/svg" width="34" height="34" viewBox="0 0 34 34">
  <defs>
    <style>
      .cls-1 {
        fill: #666;
        fill-rule: evenodd;
      }
    </style>
  </defs>
  <path id="形状_1.svg" data-name="形状 1.svg" class="cls-1" d="M703,898.992a17,17,0,1,1,12.018-4.977A16.9,16.9,0,0,1,703,898.992h0Zm0-31.556a14.565,14.565,0,1,0,10.305,4.267A14.479,14.479,0,0,0,703,867.436h0Zm8.5,13.338h-7.287v-7.317a1.215,1.215,0,1,0-2.429,0v7.317H694.5a1.22,1.22,0,0,0,0,2.439h7.285v7.317a1.215,1.215,0,1,0,2.429,0v-7.317H711.5a1.22,1.22,0,0,0,0-2.439h0Z" transform="translate(-686 -865)"/>
</svg>
