<svg id="卡片.svg" xmlns="http://www.w3.org/2000/svg" xmlns:xlink="http://www.w3.org/1999/xlink" width="690" height="370" viewBox="0 0 690 370">
  <defs>
    <style>
      .cls-1 {
        fill: url(#linear-gradient);
      }

      .cls-2 {
        fill: #26bc82;
      }

      .cls-2, .cls-3, .cls-4 {
        fill-rule: evenodd;
      }

      .cls-3 {
        fill: #26bd82;
      }

      .cls-4 {
        fill: #28c385;
      }
    </style>
    <linearGradient id="linear-gradient" x1="416.015" y1="370" x2="273.985" gradientUnits="userSpaceOnUse">
      <stop offset="0" stop-color="#20b37d"/>
      <stop offset="1" stop-color="#22bd7f"/>
    </linearGradient>
  </defs>
  <rect id="圆角矩形_4" data-name="圆角矩形 4" class="cls-1" width="690" height="370" rx="8" ry="8"/>
  <path id="爱奇艺.svg" class="cls-2" d="M359.349,192.944c-26.77,0-27.169-.02-27.146-25.944h51.646C383.84,192.929,383.644,192.944,359.349,192.944Zm-8.938,15.116c39.617-.119,33.27-2.6,33.423,31.207,0.077,15.738.008,31.475-.008,47.22V286.5c-0.023,21.171-.352,42.357.107,63.52,0.253,11.824-4.87,16.172-16.822,16.614-34.9,1.272-34.9,1.609-34.9-32.853,0-35.846.412-71.684-.192-107.493C331.791,212.939,336.723,208.113,350.411,208.06ZM613.79,474.346v-0.008c-80.32.652-152.947-3.6-224.886-16.747-36.261-6.624-57.457-30.593-56.631-63.962,0.244-9.467,3.693-14.383,13.58-14.316,7.8,0.053,15.6.053,23.383,0.105,9.077,0.067,15.691,2.492,18.5,12.558,3.824,13.62,14.957,19.808,28.591,21.671,34.149,4.655,68.338,8.905,102.809,10.852,54.482,3.1,108.941,4.332,163.454.239,12.476-.937,24.948-1.886,37.4-2.952v49.09C682.394,474.091,645.206,476.175,613.79,474.346Zm20.792-219.207h0.367c0,32.075-.428,64.171.244,96.239,0.23,10.648-3.54,14.442-14.07,15.176-40.932,2.866-40.909,3.1-40.909-36.595q0-81.468,0-162.959H634.7C634.047,196.363,634.582,225.76,634.582,255.139Zm-81.3-1.062h0.1c0,21.762.26,43.531-.137,65.286a107.212,107.212,0,0,1-3.036,22.5c-2.2,9.339-17.06,19.382,4.091,26.319,4.947,1.624,3.648,11.958,1.605,18.305-2,6.263-8.1,7.872-13.534,7.476-15.721-1.175-33.095,1.152-42.79-15.888-2.853-5.013-7.923-5.343-13.053-5.538a159.673,159.673,0,0,1-16.632-1.032c-51.438-7.394-57.418-14.181-57.426-64.695,0-42.424-.114-84.862.069-127.294A62.011,62.011,0,0,1,413.729,167h62.744c-6.893,1.83-9.579,7.156-9.566,15.49,0.076,46.749.023,93.5,0.076,140.24,0,10.26,3.059,19.069,15.37,19.1,13.075,0.045,14.353-9.8,14.4-19.584,0.108-22.825.039-45.65,0.039-68.489h0.053c0-23.371-.076-46.742.038-70.121,0.032-7.935-1.062-14.522-8.461-16.634h63.085a64.911,64.911,0,0,1,1.648,13.641C553.765,205.105,553.283,229.6,553.283,254.077Zm155.21,110.052c-3.326-.8-4.236-4.751-4.664-8.1a11.774,11.774,0,0,1-.252-3.247C713.743,285.228,680.282,227.561,659.744,167H712a7.953,7.953,0,0,1,2.841.529c1.63,5.271,3.349,10.615,5.159,16.151V366.624C716.136,365.924,712.29,365.043,708.493,364.129Z" transform="translate(-30 -167)"/>
  <path id="圆角矩形_5_拷贝" data-name="圆角矩形 5 拷贝" class="cls-3" d="M230.047,341h47.906a6.047,6.047,0,0,1,0,12.094H230.047A6.047,6.047,0,0,1,230.047,341Zm0,22.906h47.906A6.047,6.047,0,0,1,284,369.953h0A6.047,6.047,0,0,1,277.953,376H230.047A6.047,6.047,0,0,1,224,369.953h0A6.047,6.047,0,0,1,230.047,363.906Zm12.5-.017a5.389,5.389,0,1,0,0-10.778h24a5.389,5.389,0,1,0,0,10.778h-24Z" transform="translate(-30 -167)"/>
  <path id="圆角矩形_5_拷贝_2" data-name="圆角矩形 5 拷贝 2" class="cls-4" d="M64.047,252h47.906a6.047,6.047,0,0,1,0,12.094H64.047A6.047,6.047,0,0,1,64.047,252Zm0,22.906h47.906A6.047,6.047,0,0,1,118,280.953h0A6.047,6.047,0,0,1,111.953,287H64.047A6.047,6.047,0,0,1,58,280.953h0A6.047,6.047,0,0,1,64.047,274.906Zm12.5-.017a5.389,5.389,0,1,0,0-10.778h24a5.389,5.389,0,1,0,0,10.778h-24Z" transform="translate(-30 -167)"/>
</svg>
