<svg xmlns="http://www.w3.org/2000/svg" width="37" height="29.938" viewBox="0 0 37 29.938">
  <defs>
    <style>
      .cls-1 {
        fill: #41b752;
        fill-rule: evenodd;
      }
    </style>
  </defs>
  <path id="爱奇艺.svg" class="cls-1" d="M217.957,216.931a79.233,79.233,0,0,1-15.132-1.13c-2.439-.447-3.866-2.064-3.81-4.315a0.816,0.816,0,0,1,.914-0.965c0.525,0,1.049,0,1.573.007a1.1,1.1,0,0,1,1.245.847,2.081,2.081,0,0,0,1.924,1.462c2.3,0.314,4.6.6,6.917,0.732a83.222,83.222,0,0,0,11,.016c2.649-.2,5.295-0.406,7.916-0.847a1.546,1.546,0,0,0,1.414-1.092c0.249-1.031.934-1.156,1.849-1.146,2.346,0.025,2.423.088,1.811,2.276a3.641,3.641,0,0,1-2.609,2.76,36.506,36.506,0,0,1-6.974,1.082,56.761,56.761,0,0,1-8.036.313h0ZM218,187.093a63.232,63.232,0,0,1,13.319.954c2.691,0.424,3.986,1.088,4.554,4.214a0.85,0.85,0,0,1-1.012,1.156c-0.525-.017-1.049-0.091-1.571-0.083a1.171,1.171,0,0,1-1.271-.848,2.132,2.132,0,0,0-1.883-1.366,89.42,89.42,0,0,0-16.257-.857c-3.138.165-6.265,0.57-9.393,0.9a1.8,1.8,0,0,0-1.641,1.178,1.41,1.41,0,0,1-1.724,1.019,9.372,9.372,0,0,0-1.124-.031,0.835,0.835,0,0,1-.979-1.009,3.933,3.933,0,0,1,3.118-3.936A66.684,66.684,0,0,1,218,187.093h0Zm-4.11,14.98c0,1.468.018,2.936-.009,4.4a7.219,7.219,0,0,1-.2,1.518c-0.148.63-1.148,1.307,0.275,1.775,0.333,0.11.246,0.807,0.108,1.235a0.81,0.81,0,0,1-.911.5c-1.057-.079-2.226.078-2.879-1.072a0.912,0.912,0,0,0-.878-0.373,10.67,10.67,0,0,1-1.119-.07c-3.461-.5-3.863-0.956-3.864-4.364,0-2.862-.008-5.724,0-8.587a2.5,2.5,0,0,1,2.086-2.729,8.707,8.707,0,0,1,5.51.1,2.518,2.518,0,0,1,1.865,2.7c0.041,1.65.009,3.3,0.009,4.954h0.006Zm-3.807-.022h0c0-1.577,0-3.153,0-4.73,0-.651-0.106-1.169-0.955-1.171a0.933,0.933,0,0,0-1.062,1.094c0,3.153,0,6.307,0,9.46a1.046,1.046,0,0,0,1.034,1.288c0.88,0,.966-0.661.969-1.321C210.089,205.131,210.085,203.592,210.085,202.051Zm15.69-2.672c0.474-1.476.893-2.613,1.195-3.781a1.445,1.445,0,0,1,1.653-1.239c2.889,0.01,2.5.161,1.727,2.285-0.68,1.864-1.251,3.776-2.071,5.58-0.839,1.846-.555,3.741-0.637,5.63-0.027.627,0.269,1.446-.56,1.741a4.81,4.81,0,0,1-2.753-.1,0.565,0.565,0,0,1-.314-0.546,0.813,0.813,0,0,1-.017-0.219c0.7-4.658-1.669-8.62-3.041-12.805-0.45-1.373-.375-1.534,1.08-1.547,0.337,0,.677.028,1.01-0.006a1.218,1.218,0,0,1,1.46,1.02C224.855,196.626,225.279,197.838,225.775,199.379Zm10.217,2.736c0,2.092-.02,4.184.01,6.276a1.046,1.046,0,0,1-1.21,1.281c-2.448.04-2.448,0.076-2.448-2.358,0-3.855.027-7.708-.02-11.562a1.161,1.161,0,0,1,1.437-1.394c2.226,0.035,2.227-.009,2.226,2.14v5.617h0Zm-16.611.029c0,2.164-.029,4.329.016,6.492a0.842,0.842,0,0,1-.947,1.024c-2.754.193-2.752,0.209-2.752-2.469q0-5.612,0-11.225c0-1.475.1-1.577,1.576-1.588a6.313,6.313,0,0,0,.674,0c1.072-.121,1.455.335,1.426,1.387-0.061,2.126-.018,4.256-0.018,6.383h0.025Zm-16.9,2.116c0,1.428-.024,2.857.007,4.284a0.964,0.964,0,0,1-1.132,1.121c-2.348.086-2.348,0.109-2.348-2.216,0-2.418.028-4.836-.013-7.251a1.025,1.025,0,0,1,1.237-1.229c2.666-.008,2.239-0.176,2.249,2.105,0,1.061,0,2.123,0,3.185h0Zm0-8.1c0,1.792,0,1.792-1.648,1.792-1.829,0-1.829,0-1.827-1.83,0-1.745,0-1.745,1.806-1.743C202.486,194.379,202.486,194.379,202.485,196.157Z" transform="translate(-199 -187.031)"/>
</svg>
