<svg xmlns="http://www.w3.org/2000/svg" width="49" height="34" viewBox="0 0 49 34">
  <defs>
    <style>
      .cls-1 {
        fill: #e72f33;
        fill-rule: evenodd;
      }
    </style>
  </defs>
  <path id="_3.svg" data-name="3.svg" class="cls-1" d="M367.406,662h16.188A16.406,16.406,0,0,1,400,678.406v1.188A16.406,16.406,0,0,1,383.594,696H367.406A16.406,16.406,0,0,1,351,679.594v-1.188A16.406,16.406,0,0,1,367.406,662Zm0.63,1.987H382.95c8.31,0,15.047,6.428,15.047,14.357v1.308c0,7.93-6.737,14.358-15.047,14.358H368.036c-8.311,0-15.048-6.428-15.048-14.358v-1.308C352.988,670.415,359.725,663.987,368.036,663.987Z" transform="translate(-351 -662)"/>
</svg>
