<svg id="_4.svg" data-name="4.svg" xmlns="http://www.w3.org/2000/svg" width="574.218" height="104.44" viewBox="0 0 574.218 104.44">
  <defs>
    <style>
      .cls-1 {
        fill: #ccc;
      }

      .cls-1, .cls-3 {
        fill-rule: evenodd;
      }

      .cls-2 {
        fill: #b3b3b3;
      }

      .cls-3 {
        fill: #fff;
      }
    </style>
  </defs>
  <path id="圆角矩形_4_拷贝_2" data-name="圆角矩形 4 拷贝 2" class="cls-1" d="M139.077,1104.31H613.266A50.015,50.015,0,0,0,663.208,1057c0.047,0.9.073,1.8,0.073,2.71a50.014,50.014,0,0,1-50.015,50.02H139.077a50.014,50.014,0,0,1-50.014-50.02c0-.91.026-1.81,0.074-2.71A50.014,50.014,0,0,0,139.077,1104.31Z" transform="translate(-89.063 -1005.28)"/>
  <rect id="圆角矩形_4_拷贝" data-name="圆角矩形 4 拷贝" class="cls-2" width="574.218" height="100.03" rx="50.015" ry="50.015"/>
  <path id="签到" class="cls-3" d="M411.729,1062.44a31.366,31.366,0,0,1-2.836,6.52H394.662v1.31h21.605v-1.31h-5.879a29.539,29.539,0,0,0,2.708-6.13Zm-14.076.77a28.744,28.744,0,0,1,2.062,4.82l1.263-.31a30.368,30.368,0,0,0-2.062-4.92Zm5.929-.54a43.879,43.879,0,0,1,1.676,5.18l1.263-.31a36,36,0,0,0-1.65-5.28Zm-4.769-1.52H412.09v-1.24H398.813v1.24Zm0.9-9.82a30.165,30.165,0,0,1,1.238,3.27l1.263-.46a21.578,21.578,0,0,0-1.109-2.81h4.074v-1.29h-7.116c0.189-.46.455-1.18,0.8-2.14l-1.366-.28a19.244,19.244,0,0,1-3.532,6.6l1.186,0.74a19.779,19.779,0,0,0,2.32-3.63h2.243Zm11.086,0a28.417,28.417,0,0,1,1.65,3.5l1.289-.49a23.21,23.21,0,0,0-1.469-3.01h4.434v-1.29h-7.786c0.292-.76.541-1.47,0.748-2.14l-1.341-.28a17.473,17.473,0,0,1-2.681,5.57l1.16,0.77a20.086,20.086,0,0,0,1.547-2.63H410.8Zm-5.8,2.86a40.335,40.335,0,0,1-11.189,5.65l0.67,1.23a38.884,38.884,0,0,0,10.957-5.72,37.023,37.023,0,0,0,10.958,5.75l0.67-1.21a39.668,39.668,0,0,1-11.189-5.7H405Zm28.411,13.17q-2.655.6-5.594,1.08v-5.15h4.9v-1.34h-4.9v-3.22h-1.393v3.22h-5.207v1.34h5.207v5.39c-2.337.36-4.382,0.62-6.136,0.8l0.336,1.34c4.468-.54,8.731-1.22,12.787-2.07v-1.39ZM420.6,1050.32h4.512c-1.513,3.11-2.905,5.23-4.177,6.34a3,3,0,0,1-.541.13l0.309,1.27q5.929-.54,10.854-1.4c0.412,0.69.8,1.39,1.16,2.09l1.134-.8a49.156,49.156,0,0,0-4-6.21l-1.083.67c0.877,1.22,1.59,2.29,2.14,3.2q-4.047.645-8.224,1.05a26.345,26.345,0,0,0,3.867-6.34h6.755v-1.34H420.6v1.34Zm19.594,20.65a1.9,1.9,0,0,0,2.165-2.14V1047.8h-1.418v20.67a1.1,1.1,0,0,1-1.237,1.26c-0.739,0-1.934-.03-3.584-0.1l0.31,1.34h3.764Zm-4.564-4.82H437v-16.03h-1.367v16.03Z" transform="translate(-89.063 -1005.28)"/>
</svg>
