<svg xmlns="http://www.w3.org/2000/svg" xmlns:xlink="http://www.w3.org/1999/xlink" width="84" height="60" viewBox="0 0 84 60"><defs><style>.cls-1{fill:none;}.cls-2{fill:url(#未命名的渐变_2);}</style><linearGradient id="未命名的渐变_2" x1="42" y1="59" x2="42" y2="1" gradientUnits="userSpaceOnUse"><stop offset="0" stop-color="#ff9500"/><stop offset="1" stop-color="#ffde00"/></linearGradient></defs><title>资源 1</title><g id="图层_2" data-name="图层 2"><g id="图层_1-2" data-name="图层 1"><rect class="cls-1" width="84" height="60"/><path id="B13.SVG" class="cls-2" d="M59.13,19.23l7,12,8.6-3L50.4,9.16l-2.18.59,10.88,9.5ZM42.68,24,19.87,6.2,14.3,15.4l27.45,22ZM41.15,39.88,17.07,20.57,8.9,22.78,34.32,42.24h0ZM55.49,19.1,34.71,1,21.52,4.57,44.27,22.36ZM44.94,24.55,44,38.9l20-7-6.45-11ZM1.4,35.36,32,59l.36-15.33L7.68,24.84ZM57.79,48.42l.87-12.2-9,3.12ZM8.86,22.85l0-.06,0,.06h0Zm67.44,7.23L61,35.42,60,49.26,82.6,42.16ZM57.19,51.21l-9.85-11L34.66,44.59l-.33,14,23-7.23-.12-.22Z"/></g></g></svg>