<svg xmlns="http://www.w3.org/2000/svg" xmlns:xlink="http://www.w3.org/1999/xlink" width="72" height="60" viewBox="0 0 72 60"><defs><style>.cls-1{fill:none;}.cls-2{fill:url(#未命名的渐变);}</style><linearGradient id="未命名的渐变" x1="605" y1="1570.98" x2="605" y2="1512.97" gradientTransform="translate(-569 -1512)" gradientUnits="userSpaceOnUse"><stop offset="0" stop-color="#ff9500"/><stop offset="1" stop-color="#ffde00"/></linearGradient></defs><title>资源 1</title><g id="图层_2" data-name="图层 2"><g id="图层_1-2" data-name="图层 1"><rect class="cls-1" width="72" height="60"/><path id="A23.SVG" class="cls-2" d="M36.9,58.9A143.55,143.55,0,0,1,8.4,56.7c-4.6-.9-7.3-4-7.2-8.4,0-1.2.5-1.9,1.7-1.9h3a2.27,2.27,0,0,1,2.3,1.8A3.84,3.84,0,0,0,11.8,51c4.3.6,8.7,1.2,13,1.4a143,143,0,0,0,20.7,0c5-.4,10-.8,14.9-1.6a3.12,3.12,0,0,0,2.7-2.1c.5-2,1.8-2.2,3.5-2.2,4.4,0,4.6.2,3.4,4.4a6.81,6.81,0,0,1-4.9,5.3A73,73,0,0,1,52,58.3a95.38,95.38,0,0,1-15.1.6m0-57.8C44.8.6,53.4,1.6,62,3c5.1.8,7.5,2.1,8.6,8.2.3,1.6-.4,2.3-1.9,2.2-1,0-2-.2-3-.2a2.3,2.3,0,0,1-2.4-1.6,3.85,3.85,0,0,0-3.5-2.7A164.91,164.91,0,0,0,29.2,7.2C23.3,7.6,17.4,8.4,11.5,9a3.59,3.59,0,0,0-3.1,2.3c-.5,1.7-1.7,2.1-3.2,2a14.77,14.77,0,0,0-2.1-.1c-1.4,0-1.9-.6-1.8-2A7.44,7.44,0,0,1,7.1,3.6,125.43,125.43,0,0,1,36.9,1.1m-7.7,29v8.5a13.52,13.52,0,0,1-.4,2.9c-.3,1.2-2.2,2.5.5,3.4.6.2.5,1.6.2,2.4a1.62,1.62,0,0,1-1.7,1c-2-.2-4.2.2-5.4-2.1a1.81,1.81,0,0,0-1.7-.7c-.7,0-1.4-.1-2.1-.1-6.5-1-7.3-1.9-7.3-8.5V20.3c0-3,1.1-4.4,3.9-5.3a16.12,16.12,0,0,1,10.4.2c2.4.8,3.4,2.3,3.5,5.2.2,3.3.1,6.5.1,9.7Zm-7.2,0h0V20.9c0-1.3-.2-2.3-1.8-2.3s-2,.7-2,2.1V39c0,1.3.4,2.5,1.9,2.5,1.7,0,1.8-1.3,1.8-2.6.1-2.8.1-5.8.1-8.8m29.6-5.2c.9-2.9,1.7-5.1,2.3-7.3a2.7,2.7,0,0,1,3-2.4H57c5.4,0,4.7.3,3.2,4.4-1.3,3.6-2.4,7.3-3.9,10.8s-1,7.3-1.2,10.9c-.1,1.2.5,2.8-1.1,3.4a8.42,8.42,0,0,1-5.2-.2,1.15,1.15,0,0,1-.6-1.1V43c1.3-9-3.1-16.7-5.7-24.8-.8-2.7-.7-3,2-3a12.05,12.05,0,0,0,1.9,0A2.21,2.21,0,0,1,49.1,17v.2c.7,2.4,1.5,4.7,2.5,7.7m19.2,5.3V42.4c0,1.7-.5,2.5-2.3,2.5-4.6.1-4.6.1-4.6-4.6,0-7.5.1-14.9,0-22.4,0-2.1.7-2.7,2.7-2.7,4.2.1,4.2,0,4.2,4.1V30.2Zm-31.3.1c0,4.2-.1,8.4,0,12.6,0,1.4-.4,1.9-1.8,2-5.2.4-5.2.4-5.2-4.8V18.3c0-2.9.2-3.1,3-3.1h1.3c2-.2,2.7.6,2.7,2.7-.1,4.1,0,8.2,0,12.4h0M7.7,34.4v8.3c0,1.5-.6,2.1-2.1,2.2-4.4.1-4.4.1-4.4-4.4,0-4.7.1-9.4,0-14,0-1.7.6-2.4,2.3-2.4,5,0,4.2-.3,4.2,4.1v6.2m0-15.7c0,3.5,0,3.5-3.1,3.5-3.4,0-3.4,0-3.4-3.5s0-3.4,3.4-3.4c3.1-.1,3.1-.1,3.1,3.4"/></g></g></svg>