<svg xmlns="http://www.w3.org/2000/svg" xmlns:xlink="http://www.w3.org/1999/xlink" width="79" height="60" viewBox="0 0 79 60"><defs><style>.cls-1{fill:none;}.cls-2{fill:url(#未命名的渐变_2);}</style><linearGradient id="未命名的渐变_2" x1="1.34" y1="29.99" x2="77.67" y2="29.99" gradientUnits="userSpaceOnUse"><stop offset="0" stop-color="#1979be"/><stop offset="1" stop-color="#82d4e9"/></linearGradient></defs><title>资源 1</title><g id="图层_2" data-name="图层 2"><g id="图层_1-2" data-name="图层 1"><rect class="cls-1" width="79" height="60"/><path id="B32.SVG" class="cls-2" d="M24.73,59a15,15,0,0,1,1-29.89c.45,0,.91,0,1.35.06A13.3,13.3,0,0,1,53,29.36a16.45,16.45,0,0,1,8.43-2.3A16,16,0,1,1,62,59H24.73Zm9.09-42.87a12.55,12.55,0,0,0-23.08,6.73,12.33,12.33,0,0,0,2.35,7.25,16.44,16.44,0,0,1,11.7-5.68A16.48,16.48,0,0,1,33.82,16.09ZM18.57,2.55a1.57,1.57,0,0,1,3.13,0V5.7a1.57,1.57,0,0,1-3.13,0ZM32.65,5a1.56,1.56,0,0,1,2.2,0,1.55,1.55,0,0,1,0,2.19h0L32.7,9.45a1.57,1.57,0,0,1-2.21,0,1.55,1.55,0,0,1,0-2.19h0ZM7.56,8.14a1.57,1.57,0,0,0-2.21,0,1.55,1.55,0,0,0,0,2.19h0l2.29,2.19a1.56,1.56,0,0,0,2.2,0,1.54,1.54,0,0,0,0-2.17h0ZM6.06,21.26a1.55,1.55,0,1,1,0,3.11H2.89a1.55,1.55,0,1,1,0-3.11H6.06Z"/></g></g></svg>