<svg xmlns="http://www.w3.org/2000/svg" xmlns:xlink="http://www.w3.org/1999/xlink" width="61" height="60" viewBox="0 0 61 60"><defs><style>.cls-1{fill:none;}.cls-2{fill:url(#未命名的渐变);}</style><linearGradient id="未命名的渐变" x1="605.6" y1="1318.96" x2="605.6" y2="1261.04" gradientTransform="translate(-575 -1260)" gradientUnits="userSpaceOnUse"><stop offset="0" stop-color="#1d8fe1"/><stop offset="1" stop-color="#1de1da"/></linearGradient></defs><title>资源 1</title><g id="图层_2" data-name="图层 2"><g id="图层_1-2" data-name="图层 1"><rect class="cls-1" width="61" height="60"/><path id="A13.SVG" class="cls-2" d="M52.6,27.7H48.4V14.4L39.9,9.8V3.3A2.33,2.33,0,0,0,37.6,1H7.2A2.26,2.26,0,0,0,4.9,3.3V54.2H1.1v4.4H43.8V54.2H40V30.9h5.3V51.6a7.4,7.4,0,0,0,14.8.2V35.1a7.67,7.67,0,0,0-7.5-7.4ZM8.8,5.2H35.6V25.4H8.8V5.2ZM30,39.9v2.8H23.8v7H21v-7H14.8V39.9H21V37.1H14.8V34.3h3.4l-1.4-4.1H20l1.4,4.1h2l1.4-4.1H28l-1.4,4.1H30v2.8H23.8v2.8ZM45.2,27.7H39.9V13.4l5.3,2.9V27.7ZM56.7,51.6a4.2,4.2,0,1,1-8.4,0V30.9h4.2a4.23,4.23,0,0,1,4.2,4.2V51.6Z"/></g></g></svg>