<svg xmlns="http://www.w3.org/2000/svg" xmlns:xlink="http://www.w3.org/1999/xlink" width="60" height="60" viewBox="0 0 60 60"><defs><style>.cls-1{fill:none;}.cls-2{fill:url(#未命名的渐变);}</style><linearGradient id="未命名的渐变" x1="375" y1="1823" x2="375" y2="1765" gradientTransform="translate(-345 -1764)" gradientUnits="userSpaceOnUse"><stop offset="0" stop-color="#ee5241"/><stop offset="1" stop-color="#f1a167"/></linearGradient></defs><title>资源 1</title><g id="图层_2" data-name="图层 2"><g id="图层_1-2" data-name="图层 1"><rect class="cls-1" width="60" height="60"/><path id="A32.SVG" class="cls-2" d="M38.4,47.4H21.6a6.65,6.65,0,0,1-.2-13.3A8.64,8.64,0,0,1,31,26.6a8.5,8.5,0,0,1,7.5,7.5A6.62,6.62,0,0,1,45,40.9a6.71,6.71,0,0,1-6.6,6.5ZM20.9,24a2.15,2.15,0,1,1-2.2,2.1h0A2.27,2.27,0,0,1,20.9,24ZM39,24a2.15,2.15,0,1,1-2.1,2.2h0A2.14,2.14,0,0,1,39,24Zm18.5,2.4L52,20.9V13.1A5.12,5.12,0,0,0,46.9,8H39.1L33.6,2.5a5.07,5.07,0,0,0-7.2,0h0L20.9,8H13.1A5.12,5.12,0,0,0,8,13.1v7.8L2.5,26.4a5.07,5.07,0,0,0,0,7.2h0L8,39.1v7.8A5.12,5.12,0,0,0,13.1,52h7.8l5.5,5.5a5.07,5.07,0,0,0,7.2,0L39.1,52h7.8A5.12,5.12,0,0,0,52,46.9V39.1l5.5-5.5a5.07,5.07,0,0,0,0-7.2h0M35.2,34H24.7c-1,0-1.8,1.3-.4,2.4L27.8,39a4.39,4.39,0,0,0,2.2.7,3.6,3.6,0,0,0,2.2-.7l3.5-2.6a1.27,1.27,0,0,0-.5-2.4h0"/></g></g></svg>