<svg xmlns="http://www.w3.org/2000/svg" xmlns:xlink="http://www.w3.org/1999/xlink" width="60" height="60" viewBox="0 0 60 60"><defs><style>.cls-1{fill:none;}.cls-2{fill:url(#未命名的渐变);}</style><linearGradient id="未命名的渐变" x1="375" y1="1319" x2="375" y2="1261" gradientTransform="translate(-345 -1260)" gradientUnits="userSpaceOnUse"><stop offset="0" stop-color="#25967f"/><stop offset="1" stop-color="#33d8a7"/></linearGradient></defs><title>资源 1</title><g id="图层_2" data-name="图层 2"><g id="图层_1-2" data-name="图层 1"><rect class="cls-1" width="60" height="60"/><path id="A12.SVG" class="cls-2" d="M30,1A29,29,0,1,0,59,30,29,29,0,0,0,30,1h0M16.5,16.4a1.2,1.2,0,0,1,1.4,0L32,27.1l.3.3a3.47,3.47,0,0,1-4.6,5.2l-.4-.4-.2-.2L16.3,18.1a1.25,1.25,0,0,1,.2-1.7M30,56.6A26.66,26.66,0,0,1,11.1,11.1l1.6,1.6a24.4,24.4,0,1,0,34.5.1,24.11,24.11,0,0,0-16-7.1v9.2H28.9V3.3h1.2A26.65,26.65,0,1,1,30,56.6"/></g></g></svg>