<svg xmlns="http://www.w3.org/2000/svg" xmlns:xlink="http://www.w3.org/1999/xlink" width="57" height="60" viewBox="0 0 57 60"><defs><style>.cls-1{fill:url(#未命名的渐变_2);}.cls-2{fill:none;}</style><linearGradient id="未命名的渐变_2" x1="28.5" y1="58.5" x2="28.5" y2="1.5" gradientUnits="userSpaceOnUse"><stop offset="0" stop-color="#25967f"/><stop offset="1" stop-color="#33d8a7"/></linearGradient></defs><title>资源 1</title><g id="图层_2" data-name="图层 2"><g id="图层_1-2" data-name="图层 1"><path id="B23.SVG" class="cls-1" d="M25.26,58.39H53a2.6,2.6,0,0,0,2.59-2.61h0V4.12A2.6,2.6,0,0,0,53,1.5H10.09A2.6,2.6,0,0,0,7.5,4.11h0V55.78a2.6,2.6,0,0,0,2.59,2.62H25.26ZM42,18.36l2.09-9.48h2.09l2.09,9.48,2.09-9.48h2.09L50.35,21.52H47.21L45,11.93l-2,9.59H39.89L37.8,8.87h2.09ZM35.71,8.87V11H29.44v3.16h6.27v2.11H29.44v3.16h6.27v2.11H27.35V8.87Zm-17.76,0,4.18,8.43V8.87h3.14V21.52H22.13l-4.28-8.64.1,8.64H14.81V8.87ZM29.44,26.79v3.16H14.81V26.79ZM14.81,38.38V35.22H29.44v3.16Zm0,5.27H29.44V46.8H14.81ZM33.62,26.79H50.35v20H33.62ZM4.67,13.09H1.43V58.5l3.25-.11V13.09Z"/><rect class="cls-2" width="57" height="60"/></g></g></svg>