<svg xmlns="http://www.w3.org/2000/svg" xmlns:xlink="http://www.w3.org/1999/xlink" width="62" height="60" viewBox="0 0 62 60"><defs><style>.cls-1{fill:none;}.cls-2{fill:url(#未命名的渐变_5);}</style><linearGradient id="未命名的渐变_5" x1="31.11" y1="2.8" x2="31.11" y2="60.96" gradientTransform="matrix(1, 0, 0, -1, 0, 62)" gradientUnits="userSpaceOnUse"><stop offset="0" stop-color="#ee5241"/><stop offset="0.12" stop-color="#ef654a"/><stop offset="0.33" stop-color="#f07f57"/><stop offset="0.54" stop-color="#f09260"/><stop offset="0.76" stop-color="#f19d65"/><stop offset="1" stop-color="#f1a167"/></linearGradient></defs><title>资源 1</title><g id="图层_2" data-name="图层 2"><g id="图层_1-2" data-name="图层 1"><g id="图层_2-2" data-name="图层 2"><g id="图层_1-2-2" data-name="图层 1-2"><rect class="cls-1" width="62" height="60"/><path id="B12.SVG" class="cls-2" d="M58.54,59H4.28A2.59,2.59,0,0,1,1.8,56.51V41.17c0-2.49,1.25-3.8,2.57-2.55l7.33,5.76c1,.84,2.46,2,3.3,1l8.4-10.19c.83-1,2.31-2.41,3.3-1.58l7.24,6.28c1,.83,3,2.29,3.87,1.27l18-21.65C58.25,16.75,61,17.4,61,20.8V56.51A2.52,2.52,0,0,1,58.54,59ZM37.43,32.42a4,4,0,0,1-2.72,1.51,3.94,3.94,0,0,1-3-.91l-8.16-6.86L15.35,37a4,4,0,0,1-5.59.76l-.11-.08L2.5,31.78a4,4,0,0,1,5-6.22l.08.07,4,3.23L19.73,18a4,4,0,0,1,5.61-.76h0l.14.11,8.2,6.9L44.3,11l-3-2.45c-2.1-1.74-1.63-3.62,1-4.18L57.74,1.13c2.67-.56,3.5.74,1.84,2.9L37.43,32.41h0Z"/></g></g></g></g></svg>