<svg xmlns="http://www.w3.org/2000/svg" xmlns:xlink="http://www.w3.org/1999/xlink" width="60" height="60" viewBox="0 0 60 60"><defs><style>.cls-1{fill:none;}.cls-2{fill:url(#未命名的渐变);}</style><linearGradient id="未命名的渐变" x1="144.96" y1="1570.95" x2="144.96" y2="1512.95" gradientTransform="translate(-115 -1512)" gradientUnits="userSpaceOnUse"><stop offset="0" stop-color="#1979be"/><stop offset="1" stop-color="#82d4e9"/></linearGradient></defs><title>资源 1</title><g id="图层_2" data-name="图层 2"><g id="图层_1-2" data-name="图层 1"><rect class="cls-1" width="60" height="60"/><path id="A21.SVG" class="cls-2" d="M57.9,32.5,32.5,57.9a3.62,3.62,0,0,1-5.1,0L2,32.5a3.62,3.62,0,0,1,0-5.1L27.5,2a3.62,3.62,0,0,1,5.1,0L58,27.4A3.72,3.72,0,0,1,57.9,32.5ZM54,27.8,32.2,6a3.14,3.14,0,0,0-4.4,0L6,27.8a3.14,3.14,0,0,0,0,4.4L27.8,54a3.14,3.14,0,0,0,4.4,0L54,32.2A3.14,3.14,0,0,0,54,27.8ZM31.9,50.5a2.66,2.66,0,0,1-3.7,0L9.5,31.9a2.66,2.66,0,0,1,0-3.7L28.1,9.5a2.66,2.66,0,0,1,3.7,0L50.4,28.1a2.66,2.66,0,0,1,0,3.7h0ZM31.6,19a.65.65,0,0,0-.6-.6H28.8a.65.65,0,0,0-.6.6V34.9a.65.65,0,0,0,.6.6H31a.65.65,0,0,0,.6-.6V19Zm.2,20.3a.58.58,0,0,0-.6-.6H28.8a.58.58,0,0,0-.6.6h0v2.4a.58.58,0,0,0,.6.6h2.4a.58.58,0,0,0,.6-.6h0Z"/></g></g></svg>