<svg xmlns="http://www.w3.org/2000/svg" xmlns:xlink="http://www.w3.org/1999/xlink" width="51" height="60" viewBox="0 0 51 60"><defs><style>.cls-1{fill:none;}.cls-2{fill:url(#未命名的渐变);}</style><linearGradient id="未命名的渐变" x1="994.5" y1="-547" x2="994.5" y2="-489" gradientTransform="matrix(1, 0, 0, -1, -969, -488)" gradientUnits="userSpaceOnUse"><stop offset="0" stop-color="#ee5241"/><stop offset="1" stop-color="#f1a167"/></linearGradient></defs><title>资源 1</title><g id="图层_2" data-name="图层 2"><g id="图层_1-2" data-name="图层 1"><rect class="cls-1" width="51" height="60"/><path id="B21.SVG" class="cls-2" d="M45.77,31.49H30.33v7h7.45V37.1c0-3.28,1.4-2.94,3.5-1.06l7.79,6.13a2.24,2.24,0,0,1,.83,1.57,2,2,0,0,1-.83,1.45l-7.79,5.68c-2.1,1.74-3.5,2.28-3.5-1V48.47H30.33v6.19c0,2.39-2.23,4.35-5,4.35s-5-2-5-4.35V48.47H5.55c-2.41,0-4.38-2.24-4.38-5s2-5,4.38-5H20.41v-7H13v1.42c0,3.28-1.4,2.94-3.5,1.06L1.67,27.83a2,2,0,0,1-.82-1.56,1.74,1.74,0,0,1,.82-1.45l7.79-5.68c2.1-1.74,3.5-2.28,3.5,1v1.43h6.81L7.62,8.7a4.52,4.52,0,0,1,.15-6.4l.17-.16a5,5,0,0,1,6.82.43L25.37,14,36,2.58a5,5,0,0,1,6.82-.43,4.52,4.52,0,0,1,.48,6.38l-.16.18L31,21.54H45.77c2.41,0,4.38,2.24,4.38,5S48.18,31.49,45.77,31.49Z"/></g></g></svg>