<svg xmlns="http://www.w3.org/2000/svg" xmlns:xlink="http://www.w3.org/1999/xlink" width="68" height="60" viewBox="0 0 68 60"><defs><style>.cls-1{fill:none;}.cls-2{fill:url(#未命名的渐变);}</style><linearGradient id="未命名的渐变" x1="995" y1="-295" x2="995" y2="-237" gradientTransform="matrix(1, 0, 0, -1, -961, -236)" gradientUnits="userSpaceOnUse"><stop offset="0" stop-color="#1979be"/><stop offset="1" stop-color="#82d4e9"/></linearGradient></defs><title>资源 1</title><g id="图层_2" data-name="图层 2"><g id="图层_1-2" data-name="图层 1"><rect class="cls-1" width="68" height="60"/><path id="B11.SVG" class="cls-2" d="M1.14,13.2V45.43S1.62,48.94,2.73,50A18,18,0,0,0,5.91,52.3l22.8,6.19s2,.6,2.57.34a1,1,0,0,0,.38-1V21.48L1.14,13.2Zm65.72,0-9.69,2.63v14l-6.38,1.72v-14l-14.58,4V54.85s-.09,3.34.34,3.94,2.54-.24,2.54-.24L59.59,53s4.32-1.13,5.91-2.71S66.86,42,66.86,42V13.2h0Zm-.12-3.36-31-8.53A13.33,13.33,0,0,0,33.94,1a13.66,13.66,0,0,0-1.85.34L22.52,4l33,8.88,11.18-3h0Zm-65.61,0,32.8,8.81,12.91-3.46L13.89,6.34Z"/></g></g></svg>