<svg xmlns="http://www.w3.org/2000/svg" xmlns:xlink="http://www.w3.org/1999/xlink" width="57" height="60" viewBox="0 0 57 60"><defs><style>.cls-1{fill:none;}.cls-2{fill:url(#未命名的渐变);}</style><linearGradient id="未命名的渐变" x1="1225.5" y1="-547" x2="1225.5" y2="-489" gradientTransform="matrix(1, 0, 0, -1, -1197, -488)" gradientUnits="userSpaceOnUse"><stop offset="0" stop-color="#ff9500"/><stop offset="1" stop-color="#ffde00"/></linearGradient></defs><title>资源 1</title><g id="图层_2" data-name="图层 2"><g id="图层_1-2" data-name="图层 1"><rect class="cls-1" width="57" height="60"/><path id="B22.SVG" class="cls-2" d="M17.16,17.37a2.56,2.56,0,0,0,2.56-2.5V3.5A2.56,2.56,0,0,0,17.16,1a2.49,2.49,0,0,0-2.47,2.5h0V14.87A2.49,2.49,0,0,0,17.16,17.37Zm22.56,0a2.56,2.56,0,0,0,2.56-2.5V3.5A2.56,2.56,0,0,0,39.72,1a2.49,2.49,0,0,0-2.48,2.5h0V14.87A2.49,2.49,0,0,0,39.72,17.37ZM22.2,7.3H34.76v3.78H22.2Zm27.28,0H44.8v3.76h4.85a2.67,2.67,0,0,1,2.63,2.65v8.75H4.68V13.71a2.67,2.67,0,0,1,2.63-2.65h4.88V7.29H7.52A6.62,6.62,0,0,0,.95,13.92V52.37A6.53,6.53,0,0,0,7.38,59h42.1a6.62,6.62,0,0,0,6.57-6.63V13.93A6.62,6.62,0,0,0,49.48,7.3ZM14.58,51.45a3.8,3.8,0,1,1,3.77-3.83v0a3.78,3.78,0,0,1-3.76,3.8h0Zm.07-13.89a3.8,3.8,0,1,1,3.77-3.83v0a3.78,3.78,0,0,1-3.76,3.8h0ZM28.45,51.45a3.8,3.8,0,1,1,3.76-3.84v0a3.78,3.78,0,0,1-3.76,3.8h0Zm0-13.89a3.8,3.8,0,1,1,3.76-3.84v0a3.78,3.78,0,0,1-3.76,3.8Zm13.78,0A3.8,3.8,0,1,1,46,33.72v0a3.78,3.78,0,0,1-3.76,3.8Z"/></g></g></svg>