<svg xmlns="http://www.w3.org/2000/svg" xmlns:xlink="http://www.w3.org/1999/xlink" width="37" height="60" viewBox="0 0 37 60"><defs><style>.cls-1{fill:url(#未命名的渐变_3);}.cls-2{fill:none;}</style><linearGradient id="未命名的渐变_3" x1="145.5" y1="1319" x2="145.5" y2="1261" gradientTransform="translate(-127 -1260)" gradientUnits="userSpaceOnUse"><stop offset="0" stop-color="#ee5241"/><stop offset="1" stop-color="#f1a167"/></linearGradient></defs><title>资源 2</title><g id="图层_2" data-name="图层 2"><g id="图层_1-2" data-name="图层 1"><path id="A11.svg" class="cls-1" d="M31,1H6A5.44,5.44,0,0,0,.6,6.4V53.5A5.46,5.46,0,0,0,6,59H31a5.44,5.44,0,0,0,5.4-5.4V6.4A5.44,5.44,0,0,0,31,1ZM11.3,3.7H25.6V5.5H11.3V3.7Zm7.2,51.7a3.65,3.65,0,1,1,3.6-3.7h0a3.67,3.67,0,0,1-3.6,3.7ZM32.8,44.5H4.2V8.3H32.8ZM7.7,9.7H29.4a1.9,1.9,0,0,1,1.9,1.9V41.1A1.9,1.9,0,0,1,29.4,43H7.7a1.9,1.9,0,0,1-1.9-1.9V11.6A1.84,1.84,0,0,1,7.7,9.7Z"/><rect class="cls-2" width="37" height="60"/></g></g></svg>