<svg xmlns="http://www.w3.org/2000/svg" xmlns:xlink="http://www.w3.org/1999/xlink" width="56" height="60" viewBox="0 0 56 60"><defs><style>.cls-1{fill:none;}.cls-2{fill:url(#未命名的渐变_2);}</style><linearGradient id="未命名的渐变_2" x1="28" y1="58.99" x2="28" y2="0.99" gradientUnits="userSpaceOnUse"><stop offset="0" stop-color="#25967f"/><stop offset="1" stop-color="#33d8a7"/></linearGradient></defs><title>资源 1</title><g id="图层_2" data-name="图层 2"><g id="图层_1-2" data-name="图层 1"><rect class="cls-1" width="56" height="60"/><path id="B31.SVG" class="cls-2" d="M48.37,10.63,34.68,2.77a13.44,13.44,0,0,0-13.36,0L7.62,10.63A13.26,13.26,0,0,0,.94,22.14V37.85a13.26,13.26,0,0,0,6.68,11.5l13.69,7.86a13.44,13.44,0,0,0,13.36,0l13.69-7.86a13.26,13.26,0,0,0,6.69-11.5V22.13A13.26,13.26,0,0,0,48.37,10.63ZM16.29,19.17a1,1,0,0,1-1.07-1.08A1,1,0,0,1,16.29,17H26.43V14.56a1,1,0,0,1,1.13-1,1,1,0,0,1,1.16,1V17H39.66a1,1,0,0,1,1.07,1.11,1,1,0,0,1-1.07,1.08H28.73V22H39.65a1.11,1.11,0,0,1,0,2.21H28.73v3.44h9.05a10.06,10.06,0,0,1,1.57.15,1.55,1.55,0,0,1,.95.54,2.75,2.75,0,0,1,.46,1.27,14.31,14.31,0,0,1-.72,6,3.54,3.54,0,0,1-3.29,2,13.08,13.08,0,0,1-2.58-.29,6.65,6.65,0,0,1-1.92-.58,1,1,0,0,1-.5-.87,1,1,0,0,1,1.19-1.11,2.33,2.33,0,0,1,.7.12,11.75,11.75,0,0,0,2.88.5,1.86,1.86,0,0,0,1.71-1.06,10.59,10.59,0,0,0,.45-3.38,1.38,1.38,0,0,0-.2-.68.71.71,0,0,0-.43-.28,3.25,3.25,0,0,0-.7-.06H28.73V40.05a1.15,1.15,0,0,1-2.29,0V29.89H16.29a1,1,0,0,1-1.07-1.11,1.08,1.08,0,0,1,.3-.8,1,1,0,0,1,.77-.3H26.44V24.24H16.24a1.11,1.11,0,0,1,0-2.21h10.2V19.17ZM11,22.23A1.54,1.54,0,1,1,9.5,23.77h0A1.54,1.54,0,0,1,11,22.23ZM46.24,44a.54.54,0,0,1,0,.77h0l-.89.9a.55.55,0,0,1-.77,0l-4-4a18.78,18.78,0,0,1-31.35-14,1,1,0,0,1,2,0A16.82,16.82,0,0,0,44.8,28.78a.83.83,0,0,1,.86-.79h.06a.88.88,0,0,1,1.05.79A18.79,18.79,0,0,1,42.21,40l4,4h0Z"/></g></g></svg>