<svg xmlns="http://www.w3.org/2000/svg" xmlns:xlink="http://www.w3.org/1999/xlink" width="58" height="60" viewBox="0 0 58 60"><defs><style>.cls-1{fill:none;}.cls-2{fill:url(#未命名的渐变_3);}</style><linearGradient id="未命名的渐变_3" x1="605.01" y1="-799" x2="605.01" y2="-741" gradientTransform="matrix(1, 0, 0, -1, -576, -740)" gradientUnits="userSpaceOnUse"><stop offset="0" stop-color="#25967f"/><stop offset="1" stop-color="#33d8a7"/></linearGradient></defs><title>资源 1</title><g id="图层_2" data-name="图层 2"><g id="图层_1-2" data-name="图层 1"><rect class="cls-1" width="58" height="60"/><path id="A33.SVG" class="cls-2" d="M33.56,18.71c-4.74.53-10.93.88-15.37,2.82a13.82,13.82,0,0,0-8.72,13.3c0,8.46,5.35,12.69,12.23,12.69,5.81,0,9-1.36,13.47-5.92A19.91,19.91,0,0,0,39.87,47a1.7,1.7,0,0,0,1.93-.19l0,0c1.63-1.45,4.6-4,6.27-5.41a1.53,1.53,0,0,0,0-2.16C46.62,37.23,45,35.56,45,31.75V19.07c0-5.37.38-10.31-3.59-14C38.3,2.05,33.1,1,29.13,1,21.35,1,12.67,3.89,10.85,13.46A1.43,1.43,0,0,0,12,15.15l.1,0L20,16a1.73,1.73,0,0,0,1.42-1.5c.68-3.3,3.45-4.89,6.57-4.89a5.47,5.47,0,0,1,4.59,2.12c1.15,1.67,1,4,1,5.9v1.06h0ZM32,35.63a6.63,6.63,0,0,1-5.66,3.7c-3.13,0-5-2.38-5-5.9,0-6.93,6.24-8.19,12.16-8.19V27c0,3.18.08,5.82-1.53,8.64Zm18.72,15A55.36,55.36,0,0,1,29.6,55,56,56,0,0,1,1.87,47.64c-.69-.4-1.2.31-.63.82A41.15,41.15,0,0,0,29,59c7.66,0,16.55-2.4,22.69-6.91,1-.75.14-1.87-.9-1.43Zm6.06-3.47c-.67-.82-6.42-1.53-9.93.93-.54.38-.45.9.15.83,2-.23,6.38-.76,7.17.24s-.87,5.12-1.61,7c-.23.56.26.78.76.36,3.29-2.74,4.14-8.48,3.47-9.32Z"/></g></g></svg>