<svg xmlns="http://www.w3.org/2000/svg" xmlns:xlink="http://www.w3.org/1999/xlink" width="47" height="60" viewBox="0 0 47 60"><defs><style>.cls-1{fill:none;}.cls-2{fill:url(#未命名的渐变);}</style><linearGradient id="未命名的渐变" x1="374.55" y1="1571" x2="374.55" y2="1513" gradientTransform="translate(-351 -1512)" gradientUnits="userSpaceOnUse"><stop offset="0" stop-color="#ee5241"/><stop offset="1" stop-color="#f1a167"/></linearGradient></defs><title>资源 1</title><g id="图层_2" data-name="图层 2"><g id="图层_1-2" data-name="图层 1"><rect class="cls-1" width="47" height="60"/><path id="A22.SVG" class="cls-2" d="M46.2,41V9.6A8.58,8.58,0,0,0,37.7,1H9.5A8.64,8.64,0,0,0,1,9.6V41a8.71,8.71,0,0,0,7.3,8.6L.8,59H8.9L17,49.8H31.1L38.6,59h7.7l-6.9-9.4A8.78,8.78,0,0,0,46.2,41ZM9.9,44.9A3.85,3.85,0,1,1,13.7,41v.1a3.93,3.93,0,0,1-3.8,3.8Zm27,0a3.9,3.9,0,1,1,3.8-4V41a3.82,3.82,0,0,1-3.8,3.9Zm5.7-20.7a4.14,4.14,0,0,1-4,4.3H9.1a4.14,4.14,0,0,1-4.2-4.1V14.8a4.14,4.14,0,0,1,4-4.3H38.2a4.14,4.14,0,0,1,4.2,4.1v9.6h.2Z"/></g></g></svg>