<svg xmlns="http://www.w3.org/2000/svg" xmlns:xlink="http://www.w3.org/1999/xlink" width="60" height="60" viewBox="0 0 60 60"><defs><style>.cls-1{fill:none;}.cls-2{fill:url(#未命名的渐变);}</style><linearGradient id="未命名的渐变" x1="145.05" y1="1822.95" x2="145.05" y2="1765.05" gradientTransform="translate(-115 -1764)" gradientUnits="userSpaceOnUse"><stop offset="0" stop-color="#ff9500"/><stop offset="1" stop-color="#ffde00"/></linearGradient></defs><title>资源 1</title><g id="图层_2" data-name="图层 2"><g id="图层_1-2" data-name="图层 1"><rect class="cls-1" width="60" height="60"/><path id="A31.SVG" class="cls-2" d="M49.27,1.05H10.73a9.63,9.63,0,0,0-9.68,9.68V49.37a9.69,9.69,0,0,0,9.68,9.68H49.37a9.69,9.69,0,0,0,9.68-9.68V10.73A9.78,9.78,0,0,0,49.27,1.05ZM23.21,34.29A10.29,10.29,0,0,1,13,44.48h-1.7V41.08H13a6.77,6.77,0,0,0,6.79-6.69h0V15.53h3.39ZM36,44.48H27.5v-29H36C43,15.53,48.77,22,48.77,30S43,44.48,36,44.48Zm0-25.56H31V41.08h5c5.09,0,9.38-5.09,9.38-11.08S41.08,18.92,36,18.92Z"/></g></g></svg>