<svg xmlns="http://www.w3.org/2000/svg" width="35" height="26" viewBox="0 0 35 26">
  <defs>
    <style>
      .cls-1 {
        fill-rule: evenodd;
      }
    </style>
  </defs>
  <path id="nav_menu.svg" class="cls-1" d="M41.2,82.333H63.6a1.445,1.445,0,0,0,0-2.889H41.2a1.445,1.445,0,0,0,0,2.889h0Zm22.4,7.222H41.2a1.445,1.445,0,0,0,0,2.889H63.6a1.445,1.445,0,0,0,0-2.889h0Zm0,10.111H41.2a1.445,1.445,0,0,0,0,2.889H63.6a1.445,1.445,0,0,0,0-2.889h0ZM32.8,80.889m-2.8,0A2.8,2.8,0,1,0,32.8,78,2.845,2.845,0,0,0,30,80.889M32.8,91,30,91a2.8,2.8,0,1,0,2.8-2.889A2.845,2.845,0,0,0,30,91m2.8,10.111-2.8,0a2.8,2.8,0,1,0,2.8-2.889,2.845,2.845,0,0,0-2.8,2.889" transform="translate(-30 -78)"/>
</svg>
