<?xml version="1.0" encoding="utf-8"?>
<!-- Generator: Adobe Illustrator 21.0.2, SVG Export Plug-In . SVG Version: 6.00 Build 0)  -->
<svg version="1.1" id="图层_1" xmlns="http://www.w3.org/2000/svg" xmlns:xlink="http://www.w3.org/1999/xlink" x="0px" y="0px"
	 viewBox="0 0 35 26" style="enable-background:new 0 0 35 26;" xml:space="preserve">
<style type="text/css">
	.st0{fill:#FFFFFF;}
</style>
<path id="nav_menu.svg" class="st0" d="M11.2,4.3h22.4c0.8,0,1.4-0.7,1.4-1.5c0-0.8-0.6-1.4-1.4-1.4H11.2c-0.8,0-1.4,0.7-1.4,1.5
	C9.8,3.7,10.4,4.3,11.2,4.3L11.2,4.3z M33.6,11.6H11.2c-0.8,0-1.4,0.7-1.4,1.5c0,0.8,0.6,1.4,1.4,1.4h22.4c0.8,0,1.4-0.7,1.4-1.5
	C35,12.2,34.4,11.6,33.6,11.6L33.6,11.6z M33.6,21.7H11.2c-0.8,0-1.4,0.7-1.4,1.5c0,0.8,0.6,1.4,1.4,1.4h22.4c0.8,0,1.4-0.7,1.4-1.5
	C35,22.3,34.4,21.7,33.6,21.7L33.6,21.7z M0,2.9c0,1.5,1.3,2.8,2.9,2.7c1.5,0,2.8-1.3,2.7-2.9C5.5,1.2,4.3,0,2.8,0
	C1.2,0,0,1.3,0,2.9 M2.8,13H0c0,1.5,1.3,2.8,2.9,2.7c1.5,0,2.8-1.3,2.7-2.9c0-1.5-1.3-2.7-2.8-2.7C1.2,10.1,0,11.4,0,13 M2.8,23.1H0
	c0,1.5,1.3,2.8,2.9,2.7c1.5,0,2.8-1.3,2.7-2.9c0-1.5-1.3-2.7-2.8-2.7c-1.6,0-2.8,1.3-2.8,2.9"/>
</svg>
