<svg xmlns="http://www.w3.org/2000/svg" width="237.17" height="540.21" viewBox="0 0 237.17 540.21"><defs><style>.cls-1{isolation:isolate;}.cls-2{fill:#fff;}.cls-3{fill:#ed304e;}.cls-4{fill:#f5ca40;}.cls-5{fill:none;}.cls-6{fill:#fff5e1;}.cls-7{fill:#ffc973;}.cls-8{opacity:0.1;mix-blend-mode:multiply;}.cls-9{fill:#ff365d;}</style></defs><title>gift</title><g class="cls-1"><g id="图层_2" data-name="图层 2"><g id="图层_1-2" data-name="图层 1"><rect class="cls-2" x="114.53" width="8" height="383"/><polygon class="cls-3" points="114.53 25.28 114.53 51.16 122.53 36.22 122.53 9.42 114.53 25.28"/><polygon class="cls-3" points="114.53 80.59 114.53 106.47 122.53 91.52 122.53 64.73 114.53 80.59"/><polygon class="cls-3" points="114.53 135.89 114.53 161.78 122.53 146.83 122.53 120.04 114.53 135.89"/><polygon class="cls-3" points="114.53 191.2 114.53 217.08 122.53 202.14 122.53 175.34 114.53 191.2"/><polygon class="cls-3" points="114.53 246.51 114.53 272.39 122.53 257.44 122.53 230.65 114.53 246.51"/><polygon class="cls-3" points="114.53 301.81 114.53 327.69 122.53 312.75 122.53 285.95 114.53 301.81"/><polygon class="cls-3" points="114.53 357.12 114.53 383 122.53 368.05 122.53 341.26 114.53 357.12"/><rect class="cls-4" x="10.06" y="416.13" width="207.39" height="123.91" transform="translate(-0.76 0.18) rotate(-0.09)"/><rect class="cls-5" x="10.14" y="517.28" width="206.31" height="15.73" transform="translate(-0.84 0.18) rotate(-0.09)"/><rect class="cls-5" x="9.98" y="416.14" width="206.31" height="15.02" transform="translate(-0.67 0.18) rotate(-0.09)"/><rect class="cls-5" x="10.09" y="483.32" width="206.31" height="15.73" transform="translate(-0.77 0.18) rotate(-0.09)"/><rect class="cls-5" x="10.03" y="449.37" width="206.31" height="15.73" transform="translate(-0.73 0.18) rotate(-0.09)"/><rect class="cls-6" x="10" y="431.15" width="206.31" height="18.22" transform="translate(-0.7 0.18) rotate(-0.09)"/><rect class="cls-6" x="10.06" y="465.11" width="206.31" height="18.22" transform="translate(-0.75 0.18) rotate(-0.09)"/><rect class="cls-6" x="10.11" y="499.06" width="206.31" height="18.22" transform="translate(-0.81 0.18) rotate(-0.09)"/><rect class="cls-7" x="10.16" y="533.01" width="206.31" height="7.04" transform="translate(-0.85 0.18) rotate(-0.09)"/><rect class="cls-3" x="94.24" y="419.91" width="39.04" height="120.14" transform="translate(-0.75 0.18) rotate(-0.09)"/><rect class="cls-8" x="9.65" y="414.32" width="207.7" height="12.71" transform="translate(-0.66 0.18) rotate(-0.09)"/><polygon class="cls-8" points="197.31 532.68 10.15 532.97 10.17 540.21 217.55 539.89 217.36 415.97 197.12 416 197.31 532.68"/><path class="cls-3" d="M230.79,349.71c-.63.25-6.19,1.81-6.33,2.51a56,56,0,0,1-8.91,21.19,38.19,38.19,0,0,1-8.42,8.67l-.39.26a29.75,29.75,0,0,1-3.14.31c-8.17.39-15.24-5.24-22.41-8.27a42.33,42.33,0,0,0-14.82-2.85,99,99,0,0,0-17.74.8q3-2.57,5.82-5.4c11-11,22.7-26.67,20.26-43.2C173,311.83,161.49,299.62,149,304.27c-1.31.49-2.62,1-3.92,1.42-3.74,1.22-12.07,5.59-14.46,8-4.37,4.48-7.45,10.22-10.1,15.83a139.43,139.43,0,0,0-6.4,16.24c-1.46-11.94-3.86-25.31-11.72-34.56-10.15-11.94-25.68-3.94-37.37.84-11.34,4.64-13.19,14.58-8.81,25.22,5.65,13.73,17.23,25.29,28.3,34.8A123.13,123.13,0,0,0,102.27,385l1.85,1.06c.16,1.83.35,3.64.57,5.44l4.14-1.6a9.53,9.53,0,0,0-.5,5.22c0-.08,4.48-1.66,4.69-1.73q2.73-1,5.37-2.18l2.65-1c0-.06,0-.12,0-.19a114.6,114.6,0,0,0,22.76-13.66c6.78-.55,13.77-.37,19.9,1.41,7.46,2.16,13.77,6.79,21.17,9,8.24,2.49,16.61-1.38,24.16-4.31s13.47-6.45,18.52-12.93a53,53,0,0,0,9.64-22.19C237.06,347.88,231.36,349.49,230.79,349.71ZM103.24,372.19c-1.61-1.3-3.17-2.59-4.63-3.8-11.13-9.22-21.87-20.29-28.45-33.29C65.65,326.2,64.7,316,72.72,310a25.85,25.85,0,0,1,3-.27,17.55,17.55,0,0,1,8.1,1.81c5,2.42,8.34,7.41,10.69,12.28C101.71,338.71,102.41,355.61,103.24,372.19ZM133,379.81c-2.23,1.86-4.54,3.61-6.91,5.29a31.46,31.46,0,0,1-4-1.2,13.18,13.18,0,0,1,3.27-3.79,16.83,16.83,0,0,1,1.72-1.19c1.65-.39,3.31-.71,5-1,1.28-.23,2.6-.45,3.94-.65C135,378.12,134,379,133,379.81Zm6.38-5.65a75.31,75.31,0,0,0-7.84,2.43l-.52.19a23,23,0,0,0-2.69.93,84.11,84.11,0,0,0-10.74,4.16c.7-9.62,3.21-19.36,5.61-28.53,3.59-13.68,8.17-27.91,16.24-39.66a38.11,38.11,0,0,1,4.8-5.71c3.83.69,7.27,3.24,10,5.95,12.55,12.46,8.32,29.76-.26,43.08A93.31,93.31,0,0,1,139.38,374.16Zm65.79,9.24c-3.5,2.23-6.89,1.75.92-.61C205.78,383,205.48,383.2,205.16,383.4Z"/><rect class="cls-4" x="0.03" y="382.08" width="227.21" height="38.59" transform="translate(-0.64 0.18) rotate(-0.09)"/><rect class="cls-9" x="90.48" y="382.09" width="46.3" height="38.59" transform="translate(-0.63 0.18) rotate(-0.09)"/></g></g></g></svg>