<svg xmlns="http://www.w3.org/2000/svg" width="236.67" height="71.35" viewBox="0 0 236.67 71.35"><defs><style>.cls-1{fill:#f5ca40;}.cls-2{fill:#fff;}</style></defs><title>title</title><g id="图层_2" data-name="图层 2"><g id="图层_1-2" data-name="图层 1"><polygon class="cls-1" points="216.67 61.01 0 61.01 20 8.96 236.67 8.96 216.67 61.01"/><path class="cls-2" d="M66.2,24.86v19q0,2.94-3,3.25H59.5a14.14,14.14,0,0,0-.91-3.25H59.8a13.55,13.55,0,0,0,1.42.1,1.25,1.25,0,0,0,1.52-1.42V40.3h-5v6.6H54.32V40.3H49.14q-.41,5.28-2,7.21a31,31,0,0,0-3.15-2q2-2.33,1.83-9.24V24.86Zm-17,3.25v2.95h5.08V28.11Zm0,6.09v3h5.08v-3Zm13.51-3.15V28.11h-5v2.95Zm-5,3.15v3h5v-3Z"/><path class="cls-2" d="M69.65,40.3V37.05H80.32V34.21H71.48V31h8.84V28.11q-4,.1-8.43.3a3.27,3.27,0,0,1-.2-.81,14.22,14.22,0,0,0-.61-2.44q11.17-.1,20.11-.71l1,3.25q-3.76.1-8.23.3V31H91.9v3.25H84v2.84h9.65V40.3H84v2.95q-.1,3.55-3.86,3.86-1.73.1-4.47.1a25.17,25.17,0,0,0-.91-3.45q2.54.21,3.86.2,1.83,0,1.73-1.73V40.3Z"/><path class="cls-2" d="M95.65,30.76V27.81H98.4v-4h3v4h2.34v2.95h-2.34v3.76l2.34-.61v3.25a6.13,6.13,0,0,0-.81.2q-.81.3-1.52.51v6.6q0,2.44-2,2.74H98c-.68.07-1.19.1-1.52.1q-.3-1.52-.61-2.95h1.83c.47,0,.71-.3.71-.91V38.78q-1.22.3-2.54.71l-.3-3.55q1.32-.3,2.84-.61V30.76Zm20.92-2.95A22.24,22.24,0,0,0,119.52,29a8.58,8.58,0,0,1-.71,2.64q-.61,1.83-3.35,1.83H108q-3.56,0-3.55-3.55V24h3.25v2.54q5.28-.81,10.46-2.13l1,2.84a98.36,98.36,0,0,1-11.48,1.93v.2q0,1.42,1.63,1.42h5.28q1.42,0,1.52-.91A9,9,0,0,0,116.58,27.81Zm-8.63,19.6h-3.15V35h13.81V47.31h-3.25V46.19h-7.41Zm7.41-8.12V37.76h-7.41v1.52ZM107.94,42v1.52h7.41V42Z"/><path class="cls-2" d="M132,33.19l2.84,1.52a33.17,33.17,0,0,1-5,6.7,5.16,5.16,0,0,0,1.73,2.34q1,.61,1.22-.41a20.14,20.14,0,0,0,.51-2.95v-.2a3.63,3.63,0,0,1,1,.41q1.22.51,2,.91a16.57,16.57,0,0,1-1.12,4,2.74,2.74,0,0,1-2.64,1.83,5.67,5.67,0,0,1-5.38-3.45q-.91.61-2.74,1.73l-1,.71a30.16,30.16,0,0,0-1.93-2.84A36,36,0,0,0,126,40.61a56,56,0,0,1-1-7.11l-2.84.41-.51-3,3.25-.51-.3-6.3H128q0,2.84.2,5.89l6.3-1,.51,2.95L128.26,33a6,6,0,0,0,.1.91,38.84,38.84,0,0,0,.61,4A27.79,27.79,0,0,0,132,33.19Zm-3.15-7.52,1.93-1.83a32.78,32.78,0,0,1,3.55,2.95l-2.13,2A37.62,37.62,0,0,0,128.86,25.68Zm10.26.61V40.91H136V26.29ZM141.36,24h3.25V44.47a2.4,2.4,0,0,1-2.34,2.64q-.81,0-2.13.1h-1.32a14.05,14.05,0,0,0-.81-3q1.42.1,2.44.1c.61,0,.91-.37.91-1.12Z"/><path class="cls-2" d="M158,33.19l2.84,1.52a33.17,33.17,0,0,1-5,6.7,5.16,5.16,0,0,0,1.73,2.34q1,.61,1.22-.41a20.14,20.14,0,0,0,.51-2.95v-.2a3.63,3.63,0,0,1,1,.41q1.22.51,2,.91a16.57,16.57,0,0,1-1.12,4,2.74,2.74,0,0,1-2.64,1.83,5.67,5.67,0,0,1-5.38-3.45q-.91.61-2.74,1.73l-1,.71a30.16,30.16,0,0,0-1.93-2.84A36,36,0,0,0,152,40.61a56,56,0,0,1-1-7.11l-2.84.41-.51-3,3.25-.51-.3-6.3H154q0,2.84.2,5.89l6.3-1,.51,2.95L154.26,33a6,6,0,0,0,.1.91,38.84,38.84,0,0,0,.61,4A27.79,27.79,0,0,0,158,33.19Zm-3.15-7.52,1.93-1.83a32.78,32.78,0,0,1,3.55,2.95l-2.13,2A37.62,37.62,0,0,0,154.86,25.68Zm10.26.61V40.91H162V26.29ZM167.36,24h3.25V44.47a2.4,2.4,0,0,1-2.34,2.64q-.81,0-2.13.1h-1.32a14.05,14.05,0,0,0-.81-3q1.42.1,2.44.1c.61,0,.91-.37.91-1.12Z"/><path class="cls-2" d="M181.27,47.41h-3.35V40A38,38,0,0,1,175,42.43q-.61-1.83-1.32-3.45a24.44,24.44,0,0,0,5.89-5h-5.79V31.77h7.31a11.58,11.58,0,0,0,.71-1.22h-6.2V28.42h7.11a1.64,1.64,0,0,1,.1-.41,5.68,5.68,0,0,0,.3-.71q-3.66.21-7.72.2-.1-.51-.2-1.42A4.29,4.29,0,0,1,175,25q12.08-.2,20.92-.61l.51,2.54q-4.27.1-9.85.3c-.07.2-.14.44-.2.71a1,1,0,0,0-.2.51h9.65v2.13H185.23l-.61,1.22h13V34H183.2a5.07,5.07,0,0,1-.3.51,4.55,4.55,0,0,0-.41.61h12.7V47.41h-3.25V46.5H181.27Zm10.66-8.84V37.36H181.27v1.22ZM181.27,40.3v1.22h10.66V40.3Zm0,2.95v1.22h10.66V43.25Z"/><path class="cls-1" d="M5.85,31.25l10.5-26.7H44.73S28,2.38,12.85,0A221.68,221.68,0,0,1,5.85,31.25Z"/><path class="cls-1" d="M232.38,40.1l-10.5,26.7H193.5s16.74,2.17,31.88,4.55A221.68,221.68,0,0,1,232.38,40.1Z"/></g></g></svg>