<svg xmlns="http://www.w3.org/2000/svg" xmlns:xlink="http://www.w3.org/1999/xlink" width="600" height="538" viewBox="0 0 600 538"><defs><style>.cls-1{fill:#7db4e2;}.cls-2{fill:#e71d73;}.cls-3{fill:#f8aa23;}.cls-4{fill:#4d338b;}.cls-5{fill:#8d7db5;}.cls-35,.cls-6{fill:#e2de00;}.cls-7{fill:#fc6368;}.cls-8{fill:#ed304e;}.cls-13,.cls-16,.cls-22,.cls-23,.cls-32,.cls-36,.cls-9{fill:none;}.cls-13,.cls-9{stroke:#00ad8f;}.cls-13,.cls-16,.cls-22,.cls-23,.cls-32,.cls-35,.cls-36,.cls-9{stroke-miterlimit:10;}.cls-9{stroke-width:1.27px;}.cls-10{fill:#fff;}.cls-11{fill:#8270ae;}.cls-12{fill:#00ad8f;}.cls-13{stroke-width:1.11px;}.cls-14{clip-path:url(#clip-path);}.cls-15{fill:#b6d5ef;}.cls-16{stroke:#1d1d1b;stroke-linecap:round;stroke-width:1.75px;}.cls-17{clip-path:url(#clip-path-2);}.cls-18{clip-path:url(#clip-path-3);}.cls-19{fill:#fcdba3;}.cls-20{clip-path:url(#clip-path-4);}.cls-21{clip-path:url(#clip-path-5);}.cls-22,.cls-23{stroke:#e2de00;}.cls-22,.cls-32{stroke-width:0.58px;}.cls-23,.cls-35,.cls-36{stroke-width:1.15px;}.cls-24{fill:#52398e;}.cls-25{clip-path:url(#clip-path-6);}.cls-26{fill:#a1e1d6;}.cls-27{fill:#47c4af;}.cls-28{clip-path:url(#clip-path-7);}.cls-29{fill:#f499c0;}.cls-30{fill:#eae747;}.cls-31{clip-path:url(#clip-path-8);}.cls-32{stroke:#3d83c4;}.cls-33{fill:#3d83c4;}.cls-34{clip-path:url(#clip-path-9);}.cls-35,.cls-36{stroke:#f17cae;}.cls-37{fill:#fff4d9;}</style><clipPath id="clip-path"><path id="_剪贴路径_" data-name="&lt;剪贴路径&gt;" class="cls-1" d="M44.23,123.26s1,4.53,9,3.93c6.37-.48,16-5.77,17.13-18.78S64.14,82.95,71.64,74s21.91-11.09,32.93-2.16,13.72,23.62,8.38,34.35S98,128.68,79.32,134s-31.52-3.23-34.83-5.82a20.19,20.19,0,0,1-5.18-6.81Z"/></clipPath><clipPath id="clip-path-2"><path id="_剪贴路径_2" data-name="&lt;剪贴路径&gt;" class="cls-2" d="M97.58,67c-4.25,5.32-10.35,8.21-16.77,10.76-4.18,1.66-9.55,3.47-14.55,3.44-.73,0-3.77-35.2-4-41.4C73.11,45.74,94.91,66.21,97.58,67Z"/></clipPath><clipPath id="clip-path-3"><path id="_剪贴路径_3" data-name="&lt;剪贴路径&gt;" class="cls-3" d="M554.89,122.24s-2.12,6-10.14,5.41c-6.37-.46-16-5.72-17.2-18.73s6.14-25.48-1.4-34.45-22-11-32.94-2.06S479.59,96.08,485,106.78s15,22.49,33.75,27.78,31.5-3.32,34.81-5.93,3.62-4.72,3.62-4.72Z"/></clipPath><clipPath id="clip-path-4"><path id="_剪贴路径_4" data-name="&lt;剪贴路径&gt;" class="cls-4" d="M500.61,67.15c3.81,5.56,9.66,8.82,15.86,11.75,4,1.91,9.25,4,14.24,4.31.73,0,12.41-32.92,13.17-39.09C532.72,47,503.33,66.52,500.61,67.15Z"/></clipPath><clipPath id="clip-path-5"><polygon id="_剪贴路径_5" data-name="&lt;剪贴路径&gt;" class="cls-3" points="247.61 472.39 182.28 474.69 184.83 517.31 247.61 515.78 247.61 472.39"/></clipPath><clipPath id="clip-path-6"><polygon id="_剪贴路径_6" data-name="&lt;剪贴路径&gt;" class="cls-5" points="265.3 437.68 276.53 516.8 314.82 517.31 321.2 430.11 265.3 437.68"/></clipPath><clipPath id="clip-path-7"><polygon id="_剪贴路径_7" data-name="&lt;剪贴路径&gt;" class="cls-2" points="109.19 461.5 110.37 517.31 158.12 517.31 161.25 464.91 109.19 461.5"/></clipPath><clipPath id="clip-path-8"><polygon id="_剪贴路径_8" data-name="&lt;剪贴路径&gt;" class="cls-1" points="348.25 461.59 351.14 517.31 409.84 517.06 408.73 458.53 348.25 461.59"/></clipPath><clipPath id="clip-path-9"><polygon id="_剪贴路径_9" data-name="&lt;剪贴路径&gt;" class="cls-6" points="431.67 474.16 432.69 518.31 497.01 518.06 496.5 474.41 431.67 474.16"/></clipPath></defs><title>yes</title><g id="图层_2" data-name="图层 2"><g id="图层_1-2" data-name="图层 1"><rect class="cls-7" width="600" height="538" rx="40" ry="40"/><polygon class="cls-8" points="309.23 367.39 600 308.81 600 418.53 297.48 381.92 309.23 367.39"/><polygon class="cls-8" points="280.85 361 600 76.89 600 209.88 293.71 382.71 280.85 361"/><polygon class="cls-8" points="141.99 0 239.79 0 325.58 384.62 302.27 382 141.99 0"/><polygon class="cls-8" points="284.38 344.72 394.77 0 485.97 0 301.4 379.94 284.38 344.72"/><polygon class="cls-8" points="309.92 361 0 49 0 173.15 287.07 369.55 309.92 361"/><polygon class="cls-8" points="0 418.53 0 295.48 309.23 367.39 300.17 381.92 0 418.53"/><path class="cls-9" d="M475.34,100.77c-50.49,8.2-110.84,13-175.68,13-63.36,0-122.44-4.56-172.23-12.42"/><polygon class="cls-6" points="183.12 105.7 231.63 112.31 198.73 159.86 183.12 105.7"/><path class="cls-10" d="M184.73,107.1l44.86,6.11-30.42,44L184.73,107.1m-3.23-2.79,1,3.44,14.44,50.07,1.36,4.72,2.8-4,30.42-44,2.16-3.12-3.76-.51L185,104.79l-3.55-.48Z"/><polygon class="cls-2" points="276.06 114.4 326.02 114.41 301.02 166.77 276.06 114.4"/><path class="cls-10" d="M277.91,115.56h46.26L301,164.06l-23.12-48.5m-3.7-2.33,1.59,3.34,23.12,48.5,2.1,4.41,2.11-4.41,23.15-48.49,1.59-3.34H274.21Z"/><polygon class="cls-11" points="322.37 113.66 371.37 111.32 349.93 163.85 322.37 113.66"/><path class="cls-10" d="M369.59,112.57l-19.82,48.57-25.49-46.41,45.31-2.17m3.54-2.5-3.65.17-45.31,2.17-3.73.18,1.8,3.27,25.49,46.41,2.35,4.29,1.85-4.53,19.82-48.57,1.38-3.38Z"/><polygon class="cls-3" points="368.3 111.42 416.9 105.4 400.47 159.36 368.3 111.42"/><path class="cls-10" d="M415.27,106.77l-15.2,49.89-29.75-44.33,44.94-5.57m3.28-2.76-3.56.44L370,110l-3.76.47,2.11,3.15L398.13,158l2.74,4.08,1.43-4.7,15.2-49.89,1-3.44Z"/><polygon class="cls-12" points="228.49 111.08 279.22 114.1 249.91 165.77 228.49 111.08"/><path class="cls-10" d="M230.24,112.35l47,2.8L250.1,163.06l-19.86-50.72m-3.5-2.54,1.33,3.4,19.86,50.72,1.78,4.56,2.41-4.26,27.19-47.91,1.85-3.26-3.74-.22-47-2.8-3.64-.22Z"/><path class="cls-13" d="M131,102.32c-2.63-1.79-6.83-1.28-9.74.06-3.64,1.68-3.11,3.46-2.71,5.72,1,5.82,2.35,9.92-8.82,13.12"/><path class="cls-13" d="M132.55,102.32c-6.85-.5-8.46,3.42-7.78,6.49.78,3.56,8.67,6.87,0,9.88"/><path class="cls-13" d="M467.27,102c15.67-2.68,5.83,13.66,18.68,14.11"/><path class="cls-13" d="M467.27,101.76c2.18,1.68,5.3,3.06,6.34,5.08.89,1.72.25,3.69.41,5.5.36,4.18,1.88,7.55,7.78,10.58"/><path class="cls-3" d="M116.48,92.9a65.6,65.6,0,0,1,5.71,4.38c2.43,2.12,5.14,4,7.31,6.33-1,.37-14.21-1.25-17.25-1.82-2.08-.39-2.57-.44-3.3-2.39a10.17,10.17,0,0,1-.07-6.76,6.78,6.78,0,0,1,1.93-2.39C111.71,89.51,115.47,92.2,116.48,92.9Z"/><path id="_剪贴路径_10" data-name="&lt;剪贴路径&gt;" class="cls-1" d="M44.23,123.26s1,4.53,9,3.93c6.37-.48,16-5.77,17.13-18.78S64.14,82.95,71.64,74s21.91-11.09,32.93-2.16,13.72,23.62,8.38,34.35S98,128.68,79.32,134s-31.52-3.23-34.83-5.82a20.19,20.19,0,0,1-5.18-6.81Z"/><g class="cls-14"><path class="cls-15" d="M118,109.58c-13.76-4.71-30.24,4.74-34.84,16.15-1.83,4.54-5.33,14,2.61,15.51,12.51,2.41,23.78-8.87,29.38-17C116.38,122.43,121.93,110.82,118,109.58Z"/></g><path class="cls-4" d="M82.9,109.27c-7.11-2.75-18.09-9-21.89-11-1.53-.83-5.25-2.94-7.23-2.09-1.83.78.11,4.74.8,5.81,2.91,4.54,7.8,8.1,10.19,10.08-.66-.07-3.93-1-5.37-1.35-.68-.18-3.82-.74-4.4-.27-1.41,1.15,1.78,3.77,4.42,5.5,5.76,3.78,16.83,4.42,21.78-.49C82.28,114.32,83.63,111.11,82.9,109.27Z"/><path class="cls-6" d="M96.69,76.88c5-.53,9,5.34,9.74,8.54a25.67,25.67,0,0,1,.43,9.5,14,14,0,0,1-3.77,7.79c-4.28,4.35-11.58,2.35-14.81-1.84-4-5.14-3-12.95-.43-18A11.17,11.17,0,0,1,96.69,76.88Z"/><path class="cls-16" d="M101.89,88.72c.89,3.71-.93,8.67-5.53,8.79-3.15.08-4.95-3.87-5.22-5.76a9.5,9.5,0,0,1,.42-5.06"/><path id="_剪贴路径_11" data-name="&lt;剪贴路径&gt;" class="cls-2" d="M97.58,67c-4.25,5.32-10.35,8.21-16.77,10.76-4.18,1.66-9.55,3.47-14.55,3.44-.73,0-3.77-35.2-4-41.4C73.11,45.74,94.91,66.21,97.58,67Z"/><g class="cls-17"><path class="cls-6" d="M58.43,84.45c16.21-6.1,32.94-16.21,39.78-33,2.12-5.21-6.34-7.48-8.43-2.32C86.42,57.34,77.91,64.7,70.52,69.33A78.87,78.87,0,0,1,56.11,76c-5.22,2-3,10.42,2.32,8.43Z"/><path class="cls-6" d="M51.5,72c16.21-6.1,32.94-16.21,39.78-33,2.12-5.21-6.34-7.48-8.43-2.32C79.49,44.94,71,52.29,63.59,56.92a78.87,78.87,0,0,1-14.41,6.69C44,65.58,46.22,74,51.5,72Z"/><path class="cls-6" d="M48.13,59c16.21-6.1,32.94-16.21,39.78-33,2.12-5.21-6.34-7.48-8.43-2.32-3.36,8.26-11.87,15.61-19.26,20.24A78.87,78.87,0,0,1,45.8,50.52c-5.22,2-3,10.42,2.32,8.43Z"/></g><path class="cls-4" d="M46.7,127.35c-.72-1.19-2-2.14-2.74-3.37a68,68,0,0,1-4.78-9.46A38,38,0,0,1,36.88,93c1-5.64,3.73-2.74,5,1.14,2.33,7.18,2.73,14.73,3.54,22.13C45.82,120,45.11,123.93,46.7,127.35Z"/><path class="cls-2" d="M46.7,127.91a17.16,17.16,0,0,0-2.78-3.06c-1.88-1.91-3.36-4.09-5.21-6s-4.1-4.05-6.18-6c-1.32-1.23-3.65-4.16-5.76-4.43-4.58-.59-.29,6.1.59,7.35a28.85,28.85,0,0,0,10.66,9C40.49,125.94,43.63,126.11,46.7,127.91Z"/><path class="cls-2" d="M481.38,93.55a65.52,65.52,0,0,0-5.7,4.4c-2.42,2.13-5.12,4-7.29,6.35,1,.36,14.21-1.29,17.24-1.87,2.07-.4,2.57-.45,3.29-2.4a10.17,10.17,0,0,0,0-6.76A6.79,6.79,0,0,0,487,90.89C486.15,90.14,482.39,92.84,481.38,93.55Z"/><path id="_剪贴路径_12" data-name="&lt;剪贴路径&gt;" class="cls-3" d="M554.89,122.24s-2.12,6-10.14,5.41c-6.37-.46-16-5.72-17.2-18.73s6.14-25.48-1.4-34.45-22-11-32.94-2.06S479.59,96.08,485,106.78s15,22.49,33.75,27.78,31.5-3.32,34.81-5.93,3.62-4.72,3.62-4.72Z"/><g class="cls-18"><path class="cls-19" d="M480.48,107.1c9.14-.21,20.46,3.08,27.47,8.17,4.84,3.52,8.62,8.65,9.21,14.18.31,3-.09,7.44-3.61,9s-9.25-1.35-12.38-2.59c-7.15-2.82-10.31-7.41-14.11-13C484.14,118.49,479.06,112.26,480.48,107.1Z"/></g><path class="cls-12" d="M515,109.81c7.1-2.77,18.06-9,21.85-11.11,1.53-.84,5.24-3,7.22-2.11,1.83.78-.09,4.74-.77,5.81-2.89,4.55-7.77,8.13-10.15,10.11.66-.07,3.93-1,5.37-1.36.68-.18,3.82-.76,4.4-.28,1.42,1.15-1.76,3.77-4.39,5.51-5.74,3.79-16.82,4.48-21.78-.42C515.68,114.87,514.31,111.65,515,109.81Z"/><path class="cls-6" d="M501.12,77.47c-5-.51-8.93,5.37-9.7,8.57a25.67,25.67,0,0,0-.39,9.5,14,14,0,0,0,3.8,7.78c4.3,4.33,11.59,2.31,14.8-1.88,3.95-5.15,3-13,.35-18A11.19,11.19,0,0,0,501.12,77.47Z"/><path class="cls-16" d="M495.58,90c-.21,3.78,2.47,8.44,7,7.94,3.13-.34,4.2-4.48,4.13-6.38a9.7,9.7,0,0,0-1.32-4.94"/><path id="_剪贴路径_13" data-name="&lt;剪贴路径&gt;" class="cls-4" d="M500.61,67.15c3.81,5.56,9.66,8.82,15.86,11.75,4,1.91,9.25,4,14.24,4.31.73,0,12.41-32.92,13.17-39.09C532.72,47,503.33,66.52,500.61,67.15Z"/><g class="cls-20"><path class="cls-6" d="M526.92,71.86c-1.9,1.39-2.46,3.69-.08,4.88,1.62.81,3.67.93,4.74-.57a3.22,3.22,0,0,0-1.64-4.95A3.27,3.27,0,0,0,526.92,71.86Z"/><path class="cls-6" d="M507.81,60.68c-2.17,1.06-3.08,4.71-.85,6a5.51,5.51,0,0,0,7-.82c2.13-2.49.42-5.65-3.12-5.93A6.47,6.47,0,0,0,507.81,60.68Z"/><path class="cls-6" d="M540.27,56c-2.76.12-3,3.42-1.2,4.73a3.26,3.26,0,0,0,4.48-1C545,57.4,542.74,55.16,540.27,56Z"/><path class="cls-6" d="M529.62,46.94c-5,3.69,3.69,8.91,6.15,4.73a3.54,3.54,0,0,0-3-5.25A16.18,16.18,0,0,0,529.62,46.94Z"/><path class="cls-6" d="M509.49,76.64c.3-2.25,3.69-3.52,6-3.11a4.42,4.42,0,0,1,3.86,3.4c.35,1.46.7,2.87-.66,4-1.74,1.45-4.5.36-6.14-.68a9.41,9.41,0,0,1-2.21-1.88C509.91,77.85,509.72,76.59,509.49,76.64Z"/><path class="cls-6" d="M525.47,58.17c-3.1-.14-4.09,3.93-3.28,5.86.89,2.12,4.51,2.91,6.71,1.74,2.45-1.31,2.45-4.88.48-6.49A6.42,6.42,0,0,0,525.47,58.17Z"/></g><path class="cls-1" d="M552.57,127c.72-1.19,2-2.14,2.74-3.37a68,68,0,0,0,4.78-9.46,38,38,0,0,0,2.3-21.54c-1-5.64-3.73-2.74-5,1.14-2.33,7.18-2.73,14.73-3.54,22.13C553.45,119.65,554.15,123.62,552.57,127Z"/><path class="cls-12" d="M552.57,127.6a17.15,17.15,0,0,1,2.78-3.06c1.88-1.91,3.36-4.09,5.21-6s4.1-4.05,6.18-6c1.32-1.23,3.65-4.16,5.76-4.43,4.58-.59.29,6.1-.59,7.35a28.85,28.85,0,0,1-10.66,9C558.78,125.63,555.63,125.8,552.57,127.6Z"/><polygon id="_剪贴路径_14" data-name="&lt;剪贴路径&gt;" class="cls-3" points="247.61 472.39 182.28 474.69 184.83 517.31 247.61 515.78 247.61 472.39"/><g class="cls-21"><path class="cls-22" d="M178.6,478.67A27.48,27.48,0,0,1,185,478c2.86-.12,5.7-.48,8.57-.49,6.16,0,12.36-1,18.51-1.39,9.94-.65,19.8.15,29.72-.38,1.23-.07,9.78.45,10-.2"/><path class="cls-22" d="M179.41,480.64c7.2,0,14.48-.71,21.66-1.19,6.45-.43,12.89-.41,19.34-.76s12.88-.26,19.31-.26h8c1,0,2.92.37,3.65-.23"/><path class="cls-22" d="M180.45,483.65c3.5,0,6.84-.84,10.31-1.13,4.51-.38,9.14-.38,13.67-.49,6.57-.16,13.18-.17,19.74-.57,5.48-.34,11.05-.59,16.55-.58,1.84,0,3.67,0,5.49.12,1.29.05,2.55-.3,3.81-.24h-.43"/><path class="cls-22" d="M179.76,486.66c3.61.2,7.51-.66,11.11-.93,5.88-.43,11.74-1,17.62-1.36a79.29,79.29,0,0,1,10.33-.35c1.93.13,3.82.42,5.76.44,7.94.08,16.62.18,24.21-.7"/><path class="cls-22" d="M179.76,490c2.08.06,4.16-.46,6.24-.58,4-.23,8-.31,12-.58,5.81-.38,11.56-.66,17.37-.81,4.69-.12,9.27-.73,14-.58,3.92.13,8-.17,11.92-.35,2.15-.1,4.29-.38,6.43-.48.7,0,2.51.11,2.83-.34"/><path class="cls-22" d="M179.18,493.49c6.38,0,12.73-.45,19.11-.71,6.22-.25,12.57-.36,18.77-.88,8.76-.74,17.67-1.45,26.46-1.54,2,0,4.81-.42,6.56-.23"/><path class="cls-23" d="M181.15,498.36c2.28-.53,4.81-.26,7.13-.4,3.88-.23,7.76-.36,11.64-.54,4.64-.21,9.29-.26,13.9-.68,3.73-.34,7.49-.55,11.24-.8,5.77-.4,11.62-1.51,17.38-1.63,2.2,0,6,.39,7.86-.81"/><path class="cls-22" d="M180.91,501.49c1.75.68,4.52.22,6.37.14,3.59-.16,7.17-.37,10.76-.55q7.71-.37,15.41-1c4.58-.36,9.17-.45,13.75-.81s8.81-.81,13.29-.81c2,0,3.93,0,5.89-.12,1.16,0,3.48.2,4.37-.44a4.05,4.05,0,0,0-.58,0"/><path class="cls-22" d="M179.87,505.66c2.09.09,4.25-.39,6.34-.49,3.29-.16,6.58-.45,9.86-.72,5.68-.47,11.34-1.1,17-1.51,8.87-.63,17.72-.49,26.6-.86,3.34-.14,7.22-.08,10.44-.9a4.36,4.36,0,0,0-.54,0"/><path class="cls-22" d="M179.64,509.25c5.18,0,10.58-1.19,15.74-1.79,6-.69,12.06-1.38,18.08-1.57,5.45-.17,10.83-1.4,16.29-1.39,3.65,0,7.3-.05,10.93-.23,1.86-.09,3.69-.22,5.55-.24a7.55,7.55,0,0,0,3.13-.35"/><path class="cls-22" d="M181.49,511.56a25.39,25.39,0,0,1,5.49-.46c3.45-.07,6.89-.41,10.31-.77,6-.63,12.11-.82,18.16-1.44,8.89-.9,17.7-1.14,26.61-1.52,2-.08,5.38,0,7-.8"/><path class="cls-22" d="M182.65,514.46c3.47-.7,7.24-.06,10.8-.43,6.87-.72,13.72-1.66,20.62-2.06,10.09-.59,20-1.56,30.15-1.56,1.28,0,4.52.42,5.5-.46"/><path class="cls-22" d="M181.26,516.89c7.11,0,14.2-.69,21.31-.81s14-1.1,21-1.57c5.75-.38,11.48-.73,17.23-1,3-.13,6.69.14,9.64-.61a1.79,1.79,0,0,0-.34-.21"/></g><path class="cls-24" d="M210.16,471.26q2.25,23.24,3.77,46.54c.19,3,4.83,3,4.63,0q-1.52-23.3-3.77-46.54c-.28-2.94-4.92-3-4.63,0Z"/><path class="cls-24" d="M226.69,457.92c-6.23-3.57-11.4,5.79-14.1,11.72-2.36-3.44-5.14-9.66-9.08-11.09s-8.32.2-9.58,4.3a8.56,8.56,0,0,0,4.35,9.71c4.16,1.92,8.94,1.64,13.27,2.88a3.7,3.7,0,0,0,2.93-.12c4.66-1.87,10-2.92,13.13-7.21C229.93,464.92,230.58,460.14,226.69,457.92Zm-27.25,6.27c1.74-2.61,4.24,0,5.56,1.1a23.87,23.87,0,0,1,4.29,4.86C208.91,470.13,195.45,470.18,199.45,464.19Zm23.86,3c-1.33,1.22-6.16,2.78-7.53,3.24,1.39-3,2.47-6.57,4.86-8.17C223.42,460.42,225.94,464.8,223.31,467.2Z"/><path class="cls-24" d="M184,500q31.79-2.75,63.7-3.39c3-.06,3-4.69,0-4.63q-31.9.64-63.7,3.39c-2.95.25-3,4.89,0,4.63Z"/><polygon id="_剪贴路径_15" data-name="&lt;剪贴路径&gt;" class="cls-5" points="265.3 437.68 276.53 516.8 314.82 517.31 321.2 430.11 265.3 437.68"/><g class="cls-25"><path class="cls-26" d="M262,443c3.31-1.25,8.41-2.16,10.78,1.33,1.32,1.94,1.71,6.45.51,8.58-2.51,4.48-9.24,3.12-12.46.75"/><path class="cls-26" d="M301,439.4c-3.55,4.57.41,12.09,5.55,13.28s8.65-2.87,9.27-7.49c.72-5.32-4.25-11.75-10.07-10C304,435.74,302.76,437.28,301,439.4Z"/><path class="cls-26" d="M318.18,459.56c-5.36.36-9.11,4.84-7.32,10.18,1.7,5.08,9.6,8,13.38,3.22,2.15-2.72,3.28-7.12,1.68-10.23C324,459.1,321.25,459.32,318.18,459.56Z"/><path class="cls-26" d="M285.92,455.9c-7.89,7.21.59,20,9.84,13.73,4.88-3.31,3.19-11.76-1.76-14.07C292.34,454.78,288,454,285.92,455.9Z"/><path class="cls-26" d="M268.22,476.12c2.23-3.27,8.42-2.2,11.22-.46,3.31,2.06,5,4.7,4.54,8.74-1,8.81-12.89,12.55-16.64,3.37C266.26,485.13,265.83,478.19,268.22,476.12Z"/><path class="cls-26" d="M307.37,482.84a10.58,10.58,0,0,0-6,8.28c-.13,5.05,4.1,10.43,9.51,10.25,7.65-.24,9.9-11.8,4.69-16.27C313.37,483.24,309.9,481.78,307.37,482.84Z"/><path class="cls-26" d="M282.26,510.83a7.06,7.06,0,0,1,.89-10.73c3.05-2.25,7.39-2.7,10.27.14,2.07,2,3.53,6.71,2.42,9.54-1,2.64-5,4.75-7.73,4.41C285.5,513.88,284.17,512.54,282.26,510.83Z"/><path class="cls-26" d="M304,526.12a7.06,7.06,0,0,1,.89-10.73c3.05-2.25,7.39-2.7,10.27.14,2.07,2,3.53,6.71,2.42,9.54-1,2.64-5,4.75-7.73,4.41C307.28,529.16,306,527.83,304,526.12Z"/></g><path class="cls-27" d="M290.08,432.08c1.09,29.29,3.91,58.51,4.71,87.82.1,3.66,5.81,3.68,5.71,0-.8-29.31-3.62-58.53-4.71-87.82-.14-3.66-5.84-3.68-5.71,0Z"/><path class="cls-27" d="M294.41,432.17c-2.55-6.49-11.36-17.16-19.55-13-2.85,1.45-4.59,5.25-4.6,8.36,0,4.11,3.94,5.89,7.39,6.71,4,1,12.07,1.22,15.69-1.17,1.89-1.26,2.66-4.4,3.76-6.35,1.92-3.39,5.31-8.3,9.91-7.32,6.37,1.36,1.16,7.45-2,9.09-3.59,1.87-7.51,2.22-11.49,2.45-1.84.11-1.86,3,0,2.88,6.34-.37,18.34-1.94,19.32-10.19.74-6.26-5.23-8.55-10.36-6.48a14.86,14.86,0,0,0-6.32,5.59c-1.41,2-2.28,5.77-4,7.4s-6.12,1.61-8.34,1.73a15.16,15.16,0,0,1-5.39-.4c-2.17-.76-4.81-3.51-4.89-5.82-.26-8,9.48-3,11.84-1.21a19.57,19.57,0,0,1,6.26,8.52c.67,1.71,3.46,1,2.78-.77Z"/><path class="cls-27" d="M294.3,432.32c-1-5.48-1.87-11.85-5.21-16.5-1.67-2.32-5.23-4.68-7.76-2.08s-.89,7,.57,9.58c2.47,4.38,6.35,6.71,10.55,9.19.85.5,2.32-.12,2.17-1.24A23.79,23.79,0,0,1,295.9,421a14,14,0,0,1,1.82-4.38c1.48-2,3.87-2.19,4.42.6,1,5.32-4.66,11.42-9,13-1.73.63-1,3.41.77,2.78a15.75,15.75,0,0,0,9.51-9c1.27-3,2.74-7.62.44-10.52-2.45-3.1-6.34-1.39-8.37,1.25-3.19,4.16-4.43,11.45-3.76,16.52L293.9,430c-2.52-1.48-5.2-2.82-7.2-5-1.58-1.72-4.56-5.5-3.63-8,1.78-4.75,6,5.44,6.5,7a78.8,78.8,0,0,1,1.95,9.08c.32,1.82,3.1,1.05,2.78-.77Z"/><polygon class="cls-2" points="106.45 454.36 105.67 458.44 164.78 463.2 165.56 456.06 106.45 454.36"/><polygon id="_剪贴路径_16" data-name="&lt;剪贴路径&gt;" class="cls-2" points="109.19 461.5 110.37 517.31 158.12 517.31 161.25 464.91 109.19 461.5"/><g class="cls-28"><path class="cls-29" d="M112.23,468.24c-.86-.61-.62-2.41-.55-3.35a9,9,0,0,1,.78,3.43c1-2,3-.17.25.41a4.14,4.14,0,0,1,2.44,2.06c-1.22,1.27-2.18-1-2.54-1.74a8.06,8.06,0,0,1,.54,3c-1.44.23-1.25-2.49-1.26-3.13.18,1.68-1.86,2.54-2,.49-.06-1.24,1.18-1.39,2.15-1.15-.14,0-.2,0-.31.11"/><path class="cls-29" d="M126,467.2c-.08-.82-1.22-3.2-.26-3.58a13.54,13.54,0,0,1,.86,3.34c.2-.49,1.05-2.65,2-2s-.51,2.24-1.07,2.62c1,0,3.45,1.32,2.75,2.66-.6,1.16-2.78-.89-3.23-1.6,0,.65.23,2.64-.71,2.85-1.28.28-.37-2.56-.24-3.08-1.23,1.42-3,.86-3-1.06a10.33,10.33,0,0,1,3-.11C126.29,467.44,126.11,467.33,126,467.2Z"/><path class="cls-29" d="M120.92,476.58c.84-.85,1.64-2.91.82-4-1.08.63-1.41,2.35-1.62,3.45-.41-.62-1.77-2-2.61-1.39s1.71,1.57,2.14,2.11c-.69.11-3.81,1.43-3,2.55.69.94,2.7-1.29,3.12-1.68-.23.85-.82,3.05.74,3.15s.45-2.29,0-2.95c.59.34,3.67,1.27,3.42-.39C123.79,476.65,121.35,476.65,120.92,476.58Z"/><path class="cls-29" d="M112.7,488.7c.15-1.18-.48-3.3-1.77-3.63-.47,1.15.32,2.72.82,3.72-.7-.24-2.61-.47-2.92.49s2.31.2,3,.36c-.48.51-2.15,3.46-.81,3.85,1.12.32,1.35-2.67,1.45-3.24.33.82,1.22,2.91,2.52,2s-1-2.09-1.82-2.32c.68-.09,3.69-1.24,2.47-2.4C115,487,113.07,488.48,112.7,488.7Z"/><path class="cls-29" d="M129,484.73a2.62,2.62,0,0,1,.35-2.95c.68.73.42,2,.49,2.9.59-.51,2-.52,2.24.42.43,1.44-1.56.64-2.35.63,1.24.29,1.58,2.39,1.46,3.46-1-.09-1.87-1.62-2-2.53-.23.62-.91,2.37-1.94,1.66s.24-2,.77-2.6c-1.16,0-2.74-1.71-.82-1.84C127.89,483.84,129.07,484.84,129,484.73Z"/><path class="cls-29" d="M123.66,495.35c-.06-.71-1.92-2.94-2.46-1.72s1.51,2,2.27,2.42c-1.07.17-3.1,1.08-3,2.4.16,1.87,2.47-.13,2.87-.91-.26.6-.91,3.12.42,3.15,1,0,.94-2.33.66-2.92.26.8,3.07,2.92,3,1.37,0-1-1.64-1.57-2.29-2.09.62-.09,2.37-.77,1.9-1.77s-1.63.42-2.15.67c.19-.4,1.72-2.71.57-2.92C124.49,492.85,124,495.18,123.66,495.35Z"/><path class="cls-29" d="M114.63,505.85c-.76-.46-2.1-1.79-1.92-2.77,1.21,0,1.85,1.71,2.68,2.38,0-.68.15-2.48,1-2.62s.34,1.76.15,2.22c.5-.6,1.61-.9,2-.11.65,1.19-1.26,1-1.93.83.91,0,2.72,1,2.52,2.08-.9.17-2.05-.66-2.75-1.16.33.37,2,2.28,1.06,2.84s-1.86-2-2.09-2.58c0,.6-.23,2.87-1.26,2.53s0-2.45.39-2.93c-.38.21-3.13,1.29-2.76-.09C112,505.46,114.26,506.64,114.63,505.85Z"/><path class="cls-29" d="M127.83,509c-.08-.22-1.57-3.44-.4-3.15.47.11,1.1,2.42,1.39,2.84.13-.7,1.41-2.84,2-1.89s-.86,1.49-1.21,2.05c1,0,2.8.3,2.59,1.68a3.8,3.8,0,0,1-2.91-.52c0,.58.2,2.8-.75,2.85-.65,0-.6-2.17-.43-2.5-.7.82-3.64.53-2.81-.67C125.69,509.17,127.54,509.24,127.83,509Z"/><path class="cls-29" d="M121,515.74a2.71,2.71,0,0,1,.15-2.71c.78.21.5,1.3.56,1.91.11,1,.4.45,1.29.44.47,0,1.65.37,1.32,1.09-.23.49-1.39.12-1.87,0,.75.29,2.35.81,2,2s-2.22-.71-2.59-1.29c-.2.92-.74,2.3-1.92,2.12-1.76-.26-.21-1.93.33-2.52-.94.07-3-1.43-1.24-1.71C119.54,515,120.84,515.35,121,515.74Z"/><path class="cls-29" d="M144.82,470.33c-.56-.83-1.18-2.93-.53-3.85.88.52,1,2.6,1.3,3.51.17-.69,1.59-1.85,2.2-1.05.74,1-1.2,1.37-1.79,1.47.65,0,1.78,1.44,1.6,2.09-.28,1-1.5-.79-1.87-1.18.12.44.79,3.09-.67,2.87a4.72,4.72,0,0,1-.44-2.93,2,2,0,0,1-1.76.61.88.88,0,0,1-.36-1.57C142.94,470,144.66,469.87,144.82,470.33Z"/><path class="cls-29" d="M156,469.71c.12-.77.54-2.45,1.39-2.69.64.61-.31,2.09-.53,2.76a1.58,1.58,0,0,1,1.69,1.59c-.16,1.21-1.48.12-2-.39.3.55,1,2.28.47,2.77s-1.09-1.8-1.17-2.26c-.52.35-1.62,1.59-2.31.83-.85-.95,1-1.65,1.68-1.68-.74-.1-1.8-1.62-.86-2.05C154.93,468.32,155.81,469.31,156,469.71Z"/><path class="cls-29" d="M142,478.82a2.49,2.49,0,0,1,1.45-2.08,2.2,2.2,0,0,1-.5,2.06c.83-.07,1.82.19,2,1.25s-1.4.39-1.77-.13c.62.4,1.19,2.27.53,2.83-.86.73-1.55-1.77-1.54-2.38.11,1.18-1,2-1.91,1.3-1.29-1-.22-1.76.77-2.17a1,1,0,0,1-1-1.64C140.7,476.91,141.52,478.21,142,478.82Z"/><path class="cls-29" d="M153.93,479.9c-.08-1.13-.78-2.11-.68-3.31.85-.15,1.29,2.14,1.47,2.76.45,0,1.46-1.1,1.95-.48.7.88-1.17,1-1.57,1,.44.67,2,1.62,1.62,2.65-.45,1.26-1.8-.93-2.23-1.27-.06.85-.38,2.54-1.46,2.61a3.08,3.08,0,0,1,.35-2.68,2.78,2.78,0,0,1-2.19-.7c-.55-.63-.32-.88.44-1A3.62,3.62,0,0,1,153.93,479.9Z"/><path class="cls-29" d="M157.9,489.35c.58-1,.56-2.18,1.32-3.11.79.36-.16,2.49-.36,3.1.4.22,1.83-.07,1.88.71.08,1.13-1.55.17-1.89,0,0,.8.7,2.46-.18,3.1-1.09.78-1-1.79-1.11-2.32-.54.67-1.76,1.87-2.69,1.31.14-1,1-1.54,1.82-2a2.78,2.78,0,0,1-1.4-1.83c-.09-.83.24-.9.93-.58A3.62,3.62,0,0,1,157.9,489.35Z"/><path class="cls-29" d="M147.06,489c0-.78-.36-2.64.91-2.61.71.76.09,2-.21,2.84a1.3,1.3,0,0,1,2.08.49c.51,1.41-1.1.47-1.77.45.23.57,1.8,1.73,1,2.65s-1.54-1.5-1.84-1.89a2.08,2.08,0,0,1-.52,1.59c-.28.29-1.36.94-1.74.64-.9-.7.53-2.58,1.29-2.7-.95.12-3.2-1.64-2-2.44C144.76,487.71,147.28,488.56,147.06,489Z"/><path class="cls-29" d="M138.72,498.36c.16-.51.51-3.43,1.27-2.37.45.64,0,2.35-.19,3,.83-.62,2.18.3,2.27,1.25s-1.55.79-2.16.47c.59.32,2.32,2.17,1.71,2.91-.85,1-2.3-1.48-2.35-2.1,0,.78-.39,2.92-1.63,2.46s.4-2.74.93-3.24c-1.05.33-3.41-1.68-2.29-2.58C137.11,497.51,138,498.89,138.72,498.36Z"/><path class="cls-29" d="M151.38,500.44c-.23-.38-2-3.22-.81-3.09.76.09,1.55,1.85,1.95,2.38-.11-1,1.45-1.94,2.32-1.76.26.87-.64,1.74-1.35,2.15.85,0,2.29.39,2.39,1.47.12,1.23-1.92.37-2.39-.08.61.44,1.09,2.35.46,3s-1.86-1.6-2-2.3c.06,1.21-1.7,3.5-2.69,1.88-.71-1.16,1.11-2.15,1.9-2.67-.78.33-3.72-.17-2.7-1.23C148.93,499.68,151.26,500,151.38,500.44Z"/><path class="cls-29" d="M147,510.48a3.6,3.6,0,0,1-.61-2.23c.77,0,1.26,1.55,1.61,2.13.12-.57,1.13-2.24,1.87-1.62s-.89,1.71-1.33,1.86c.85,0,2,.34,2,1.45,0,1.48-2-.17-2.54-.42.52.52,1.11,2.46.14,2.91s-1.31-1.8-1.33-2.45a1.5,1.5,0,0,1-2.06.31c-.66-.46-.95-1-.33-1.46S146.3,510.56,147,510.48Z"/><path class="cls-29" d="M157.25,515.66c-.22-.44-2.39-3.54-2.39-1.7,0,.82,1.34,1.83,2.06,2.09-.87,0-2.82.89-2.8,2,0,1.38,2.61-.67,3-1.17-.27.8.46,3.22,1.7,2.68,1-.43,0-2.68-.61-3,.66.27,2.25-.86,2-1.67s-1.58.31-2,.57c.49-1,1.19-3.17,0-3.95C157.3,512,157.5,515.39,157.25,515.66Z"/></g><path class="cls-6" d="M131.46,453.59q2.21,33.16,3,66.39c.08,3.7,5.85,3.72,5.77,0q-.74-33.22-3-66.39c-.25-3.68-6-3.71-5.77,0Z"/><path class="cls-30" d="M136.66,455.11c-2.1-6.73-9.64-16.83-18-15.33-3.13.56-5.89,4.25-6.29,7.3-.53,4,2.38,6.93,5.78,8.37,4.72,2,10,1.78,15,1,3.89-.62,4-2.42,6-5.6,2.17-3.45,6.16-9,11-7.47,6.94,2.18-.42,8.15-3.68,9.31-3.47,1.24-7.08,1.26-10.72,1.21a1.44,1.44,0,0,0,0,2.88c6.26.09,18.56-.68,19.93-8.87,1.11-6.61-5.49-9-10.79-6.77a16.14,16.14,0,0,0-6.22,5.32c-1.59,2.07-2.86,5.68-4.91,7s-7.59.8-10.06.46c-1.84-.25-4.19-.63-5.76-1.74q-3.46-1.93-2.11-5-.23-2.89,3-3.1c2.83-1.31,3.58-1.08,6.12.37a19.1,19.1,0,0,1,3.77,2.83,19.83,19.83,0,0,1,5.16,8.63c.55,1.77,3.33,1,2.78-.77Z"/><path class="cls-30" d="M136.59,455.63c-.55-5.44-1.05-11.21-3.54-16.18-1.31-2.62-4.73-6.2-7.87-3.78-2.91,2.24-1.6,7.19-.29,9.89,2.2,4.54,5.86,7.1,9.9,9.89a1.45,1.45,0,0,0,2.17-1.24,22.5,22.5,0,0,1,1.81-9.48c.58-1.55,1.12-3.68,2.35-4.85l.53-.53q4.69-.72,3.72,2.49c-.3,5.28-5.16,10-9.89,11.35a1.44,1.44,0,0,0,.77,2.78,15.82,15.82,0,0,0,10.17-8.49c1.44-2.91,3.15-7.39.94-10.37-2.54-3.45-6.87-1.28-8.9,1.53a26.1,26.1,0,0,0-4.37,15.57l2.17-1.24c-3.67-2.54-10.36-6.89-9.82-12.28q-.62-2.61,3.6-.81a11.36,11.36,0,0,1,1,2.08,27.78,27.78,0,0,1,1.33,4.21,71.55,71.55,0,0,1,1.39,9.46c.18,1.83,3.07,1.85,2.88,0Z"/><polygon id="_剪贴路径_17" data-name="&lt;剪贴路径&gt;" class="cls-1" points="348.25 461.59 351.14 517.31 409.84 517.06 408.73 458.53 348.25 461.59"/><g class="cls-31"><path class="cls-32" d="M354,464.61c1,.23,3,2.9,3.24,4.09"/><path class="cls-32" d="M354.33,468.09a39.93,39.93,0,0,0,3.4-2.78"/><path class="cls-32" d="M355.72,468.4a38.44,38.44,0,0,0,.39-4"/><path class="cls-32" d="M357.5,467a9.45,9.45,0,0,0-3.47-.7"/><path class="cls-32" d="M363.29,463.15c.63.21,1.48,1.52,2.16,2.08"/><path class="cls-32" d="M362.83,465.39c.89-.89,2.21-1.73,2.78-2.86"/><path class="cls-32" d="M364.37,462.76a7.11,7.11,0,0,0,.08,3.32"/><path class="cls-32" d="M365.53,464.15c-.6-.58-2.42-.16-3.17.15"/><path class="cls-32" d="M349.32,464.54a8.88,8.88,0,0,1,1.78-2.55"/><path class="cls-32" d="M349.08,462.53c1,.28,1.75,1.12,2.78,1.31"/><path class="cls-32" d="M350.47,464.61c-.17-1-.66-1.91-.77-2.93"/><path class="cls-32" d="M348.47,463.84a27.9,27.9,0,0,1,3.94-1.62"/><path class="cls-32" d="M358.89,476.58A14.63,14.63,0,0,0,360.2,473"/><path class="cls-32" d="M361,476c-.78-.47-2.69-1.75-3.63-1.31"/><path class="cls-32" d="M359.66,476.81c.1-1.18-.68-2.39-.85-3.55"/><path class="cls-32" d="M357.89,476.2c.88-1,2.48-1.47,3.55-2.24"/><path class="cls-32" d="M364.43,511a14.63,14.63,0,0,0,3.52-1.41"/><path class="cls-32" d="M366.22,512.18c-.17-.9-.5-3.17-1.46-3.57"/><path class="cls-32" d="M364.77,511.72c.95-.71,1.32-2.11,2.07-3"/><path class="cls-32" d="M364,510c1.31,0,2.75.85,4,1.14"/><path class="cls-32" d="M369.67,471.26a14.63,14.63,0,0,0,3.28,1.88"/><path class="cls-32" d="M369.86,473.4c.6-.69,2.18-2.36,1.9-3.36"/><path class="cls-32" d="M369.31,472c1.15.3,2.47-.27,3.64-.25"/><path class="cls-32" d="M370.22,470.33c.82,1,1,2.69,1.62,3.87"/><path class="cls-32" d="M396.38,468c-.88.51-4.21,0-5.17-.75"/><path class="cls-32" d="M393.77,465.67a39.91,39.91,0,0,0-.56,4.35"/><path class="cls-32" d="M392.55,466.4a38.44,38.44,0,0,0,2.47,3.19"/><path class="cls-32" d="M392.21,468.63a9.45,9.45,0,0,0,3-1.88"/><path class="cls-32" d="M390.65,475.41c-.61.28-2.12-.09-3,0"/><path class="cls-32" d="M389.45,473.47c0,1.26-.42,2.78-.06,4"/><path class="cls-32" d="M390.13,476.43c-.38-1-1.53-1.71-2.33-2.36"/><path class="cls-32" d="M388.33,476.22c.84,0,1.87-1.54,2.2-2.28"/><path class="cls-32" d="M384.63,462.62a14.63,14.63,0,0,0,1.48,3.48"/><path class="cls-32" d="M383.48,464.44c.89-.19,3.16-.57,3.54-1.54"/><path class="cls-32" d="M383.91,463c.73.93,2.14,1.28,3.06,2"/><path class="cls-32" d="M385.62,462.21c0,1.31-.8,2.77-1,4.07"/><path class="cls-32" d="M373.26,494c-1,.32-4.11-.88-4.91-1.78"/><path class="cls-32" d="M371.17,491.17a39.92,39.92,0,0,0-1.43,4.15"/><path class="cls-32" d="M369.83,491.63a38.44,38.44,0,0,0,1.78,3.62"/><path class="cls-32" d="M369,493.75a9.45,9.45,0,0,0,3.32-1.23"/><path class="cls-32" d="M364.14,496.21c-.65.15-2.06-.52-2.93-.64"/><path class="cls-32" d="M363.36,494.06a16.93,16.93,0,0,0-.63,4.47"/><path class="cls-32" d="M363.42,497.11a7.11,7.11,0,0,0-1.81-2.79"/><path class="cls-32" d="M361.71,496.53c.82.18,2.14-1.13,2.61-1.79"/><path class="cls-32" d="M358.78,486.33a14.63,14.63,0,0,0,.75,3.71"/><path class="cls-32" d="M357.29,487.88c.91,0,3.21.08,3.78-.79"/><path class="cls-32" d="M358,486.54c.53,1.06,1.83,1.68,2.59,2.58"/><path class="cls-32" d="M359.84,486.13c-.23,1.29-1.34,2.55-1.85,3.77"/><path class="cls-32" d="M371.83,483.2a14.63,14.63,0,0,0,.75,3.71"/><path class="cls-32" d="M370.34,484.76c.91,0,3.21.08,3.78-.79"/><path class="cls-32" d="M371.05,483.41c.53,1.06,1.83,1.68,2.59,2.58"/><path class="cls-32" d="M372.89,483c-.23,1.29-1.34,2.55-1.85,3.77"/><path class="cls-32" d="M353.53,494.88a14.63,14.63,0,0,0,.75,3.71"/><path class="cls-32" d="M352,496.43c.91,0,3.21.08,3.78-.79"/><path class="cls-32" d="M352.75,495.09c.53,1.06,1.83,1.68,2.59,2.58"/><path class="cls-32" d="M354.59,494.68c-.23,1.29-1.34,2.55-1.85,3.77"/><path class="cls-32" d="M354.18,511.68a14.63,14.63,0,0,0,3.22,2"/><path class="cls-32" d="M354.3,513.83c.62-.67,2.25-2.29,2-3.3"/><path class="cls-32" d="M353.8,512.39c1.14.34,2.48-.19,3.65-.13"/><path class="cls-32" d="M354.76,510.77c.79,1.05,1,2.72,1.49,3.92"/><path class="cls-32" d="M371.08,503.11a13.6,13.6,0,0,1-3.65-1.18"/><path class="cls-32" d="M369.92,501.36c-.73.23-.51,2.64-.86,3.28"/><path class="cls-32" d="M371.05,502c-.95.48-1.85,1.13-2.79,1.64"/><path class="cls-32" d="M370.48,504.17c-.94-1-1.51-2.34-2.63-3.22"/><path class="cls-32" d="M373.72,465.85a10.93,10.93,0,0,0-1.24-3.86"/><path class="cls-32" d="M371.25,464.69c1.31.08,2.68-.93,3.86-1.39"/><path class="cls-32" d="M372.48,465.62c.17-.65.57-1.29.79-1.95.16-.49.23-1.29.68-1.6"/><path class="cls-32" d="M371.25,463.69c1.21.23,3.08-.12,4.09.7"/><path class="cls-32" d="M353.1,482.84c-.27-1.28-.89-2.49-1.08-3.78"/><path class="cls-32" d="M350.55,482c1.07-.51,2.88-.65,3.78-1.47"/><path class="cls-32" d="M351.4,483.22c1-.77,1.07-2.75,1.7-3.71"/><path class="cls-32" d="M354,482.22a18.43,18.43,0,0,1-3.32-1.93"/><path class="cls-32" d="M350.4,474.5a19.18,19.18,0,0,0,2.16-2.08"/><path class="cls-32" d="M351.86,474.65c-.59-.88-1.17-1.8-1.7-2.7"/><path class="cls-32" d="M351.17,472.41a7.13,7.13,0,0,0,0,2.86"/><path class="cls-32" d="M352.4,473.65c-.79-.06-1.59-.08-2.39-.08"/><path class="cls-32" d="M366.3,477.39c.13,1.22.62,2.49.85,3.71"/><path class="cls-32" d="M365,479.94a12.8,12.8,0,0,0,3.4-.93"/><path class="cls-32" d="M365.38,478.86a15.7,15.7,0,0,0,2.78,1.08"/><path class="cls-32" d="M367.54,477.39c-.63,1.51-1,3.51-2.08,4.79"/><path class="cls-32" d="M404.37,493.56c-.39.95-3.35,2.55-4.55,2.56"/><path class="cls-32" d="M400.89,493.32a39.92,39.92,0,0,0,2.21,3.79"/><path class="cls-32" d="M400.36,494.64a38.43,38.43,0,0,0,3.91,1"/><path class="cls-32" d="M401.46,496.61a9.45,9.45,0,0,0,1.23-3.32"/><path class="cls-32" d="M400.13,501.94c-.31.59-1.74,1.22-2.4,1.81"/><path class="cls-32" d="M398,501.14a16.94,16.94,0,0,0,3,3.4"/><path class="cls-32" d="M400.34,503.07a7.11,7.11,0,0,0-3.29-.44"/><path class="cls-32" d="M398.79,504c.67-.5.54-2.36.34-3.15"/><path class="cls-32" d="M389.14,499.56a14.63,14.63,0,0,0,3.3,1.85"/><path class="cls-32" d="M389.35,501.7c.59-.7,2.15-2.38,1.87-3.38"/><path class="cls-32" d="M388.79,500.29c1.15.29,2.47-.29,3.64-.28"/><path class="cls-32" d="M389.68,498.63c.83,1,1.06,2.68,1.65,3.86"/><path class="cls-32" d="M395.28,487.63a14.63,14.63,0,0,0,3.3,1.85"/><path class="cls-32" d="M395.49,489.77c.59-.7,2.15-2.38,1.87-3.38"/><path class="cls-32" d="M394.93,488.35c1.15.29,2.47-.29,3.64-.28"/><path class="cls-32" d="M395.82,486.7c.83,1,1.06,2.68,1.65,3.86"/><path class="cls-32" d="M401.53,464.38a14.63,14.63,0,0,0,3.3,1.85"/><path class="cls-32" d="M401.74,466.53c.59-.7,2.15-2.38,1.87-3.38"/><path class="cls-32" d="M401.18,465.11c1.15.29,2.47-.29,3.64-.28"/><path class="cls-32" d="M402.07,463.45c.83,1,1.06,2.68,1.65,3.86"/><path class="cls-32" d="M379.09,498.54a14.63,14.63,0,0,0,2.85-2.5"/><path class="cls-32" d="M381.18,499.06c-.46-.79-1.53-2.82-2.56-2.88"/><path class="cls-32" d="M379.66,499.11c.66-1,.55-2.43.95-3.53"/><path class="cls-32" d="M378.4,497.72c1.24-.44,2.88-.11,4.19-.27"/><path class="cls-32" d="M359.09,505.1a14.63,14.63,0,0,0,2.85-2.5"/><path class="cls-32" d="M361.18,505.62c-.46-.79-1.53-2.82-2.56-2.88"/><path class="cls-32" d="M359.66,505.68c.66-1,.55-2.43.95-3.53"/><path class="cls-32" d="M358.4,504.29c1.24-.44,2.88-.11,4.19-.27"/><path class="cls-32" d="M402.68,476.12a14.62,14.62,0,0,0,3.46,1.54"/><path class="cls-32" d="M403.09,478.23c.52-.75,1.93-2.57,1.55-3.54"/><path class="cls-32" d="M402.4,476.87c1.17.18,2.43-.52,3.6-.62"/><path class="cls-32" d="M403.13,475.14c.92.94,1.31,2.57,2,3.69"/><path class="cls-32" d="M396.3,480.09a14.63,14.63,0,0,0,.5-3.75"/><path class="cls-32" d="M398.22,479.11c-.87-.29-3-1.12-3.83-.49"/><path class="cls-32" d="M397.11,480.15c-.16-1.18-1.18-2.19-1.61-3.28"/><path class="cls-32" d="M395.24,479.93c.64-1.15,2.1-2,3-3"/><path class="cls-32" d="M407.65,487.27a14.63,14.63,0,0,0,.5-3.75"/><path class="cls-32" d="M409.57,486.29c-.87-.29-3-1.12-3.83-.49"/><path class="cls-32" d="M408.46,487.33c-.16-1.18-1.18-2.19-1.61-3.28"/><path class="cls-32" d="M406.59,487.11c.64-1.15,2.1-2,3-3"/><path class="cls-32" d="M405.41,510.59a14.63,14.63,0,0,0,.5-3.75"/><path class="cls-32" d="M407.33,509.61c-.87-.29-3-1.12-3.83-.49"/><path class="cls-32" d="M406.22,510.65c-.16-1.18-1.18-2.19-1.61-3.28"/><path class="cls-32" d="M404.35,510.44c.64-1.15,2.1-2,3-3"/><path class="cls-32" d="M387.27,488c1,.69,2.29,1.15,3.36,1.77"/><path class="cls-32" d="M388.35,490.69a12.8,12.8,0,0,0,1.51-3.18"/><path class="cls-32" d="M387.78,489.69a15.7,15.7,0,0,0,2.63-1.4"/><path class="cls-32" d="M388.08,487.1c.74,1.46,2,3.07,2.27,4.7"/><path class="cls-32" d="M401,515.45c-.39.95-3.35,2.55-4.55,2.56"/><path class="cls-32" d="M397.53,515.21a39.92,39.92,0,0,0,2.21,3.79"/><path class="cls-32" d="M397,516.53a38.45,38.45,0,0,0,3.91,1"/><path class="cls-32" d="M398.1,518.51a9.45,9.45,0,0,0,1.23-3.32"/><path class="cls-32" d="M396.77,523.84c-.31.59-1.74,1.22-2.4,1.81"/><path class="cls-32" d="M394.63,523a16.93,16.93,0,0,0,3,3.4"/><path class="cls-32" d="M397,525a7.11,7.11,0,0,0-3.29-.44"/><path class="cls-32" d="M395.43,525.89c.67-.5.54-2.36.34-3.15"/><path class="cls-32" d="M385.78,521.45a14.63,14.63,0,0,0,3.3,1.85"/><path class="cls-32" d="M386,523.6c.59-.7,2.15-2.38,1.87-3.38"/><path class="cls-32" d="M385.43,522.18c1.15.29,2.47-.29,3.64-.28"/><path class="cls-32" d="M386.32,520.52c.83,1,1.06,2.68,1.65,3.86"/><path class="cls-32" d="M391.92,509.52a14.63,14.63,0,0,0,3.3,1.85"/><path class="cls-32" d="M392.13,511.66c.59-.7,2.15-2.38,1.87-3.38"/><path class="cls-32" d="M391.57,510.24c1.15.29,2.47-.29,3.64-.28"/><path class="cls-32" d="M392.46,508.59c.83,1,1.06,2.68,1.65,3.86"/><path class="cls-32" d="M383.91,509.92c1,.69,2.29,1.15,3.36,1.77"/><path class="cls-32" d="M385,512.58a12.8,12.8,0,0,0,1.51-3.18"/><path class="cls-32" d="M384.42,511.58a15.7,15.7,0,0,0,2.63-1.4"/><path class="cls-32" d="M384.72,509c.74,1.46,2,3.07,2.27,4.7"/></g><polygon class="cls-33" points="340.67 447.13 340.93 457.59 413.41 456.06 413.41 448.66 340.67 447.13"/><path class="cls-3" d="M374.2,445.54q.27,20.55.59,41.1c.18,11-.17,22.22.82,33.2.33,3.63,6,3.66,5.71,0-1-11-.63-22.19-.82-33.2q-.34-20.55-.59-41.1c0-3.67-5.75-3.68-5.71,0Z"/><path class="cls-3" d="M393.56,430.1c-3.81.29-8.35,4.79-10.89,7.49-1.78,1.89-4.06,5.13-5.52,6.83-2.24-6.44-6.7-17.64-13.67-17.18-7.33.48-12.61,13.54-7,18.57,3.15,2.81,18.81,2.4,20.15,2,.73.94.82.64,1.78.08,7.2,1,18.61,4.08,23.24-2.86C405.56,439.26,400.23,429.58,393.56,430.1Zm-24.39,14.53c-2.55-.44-6.63-1.05-8.33-3.13-2.81-3.41,2.22-9.63,6.3-7.76,3.34,1.53,5.27,6.63,6.52,10.88A9.67,9.67,0,0,1,369.17,444.63Zm11.08.8,0,0a36.83,36.83,0,0,1,6.36-6.25c2.63-1.9,8.57-4.79,10-.1C398.94,446.38,385.51,446,380.25,445.43Z"/><polygon id="_剪贴路径_18" data-name="&lt;剪贴路径&gt;" class="cls-6" points="431.67 474.16 432.69 518.31 497.01 518.06 496.5 474.41 431.67 474.16"/><g class="cls-34"><circle class="cls-35" cx="428.9" cy="470.05" r="11.24"/><circle class="cls-35" cx="434.23" cy="495.88" r="11.24"/><circle class="cls-36" cx="448.94" cy="489.51" r="11.24"/><circle class="cls-36" cx="448.48" cy="518.01" r="11.24"/><circle class="cls-36" cx="473.96" cy="492.64" r="11.24"/><circle class="cls-36" cx="489.13" cy="479.78" r="11.24"/><circle class="cls-36" cx="493.3" cy="513.03" r="11.24"/><circle class="cls-36" cx="451.49" cy="499.59" r="5.44"/><circle class="cls-36" cx="477.32" cy="494.03" r="5.44"/><circle class="cls-36" cx="488.9" cy="480.59" r="5.44"/><circle class="cls-36" cx="465.27" cy="505.38" r="7.53"/><circle class="cls-36" cx="494.58" cy="500.52" r="7.53"/><circle class="cls-36" cx="455.54" cy="469.71" r="7.53"/><circle class="cls-36" cx="464" cy="485.34" r="7.53"/><circle class="cls-36" cx="471.18" cy="514.76" r="7.53"/></g><path class="cls-2" d="M468.49,521.28a462.83,462.83,0,0,1-.06-49.25c.17-3.71-5.6-3.7-5.77,0a462.83,462.83,0,0,0,.06,49.25c.22,3.69,6,3.71,5.77,0Z"/><path class="cls-2" d="M466.36,474.14a26.18,26.18,0,0,0-9.15-13.46c-3.33-2.53-8.76-5.69-13.06-3.89-3.41,1.42-6.29,6.14-5.88,9.81.58,5.19,5.07,7.77,9.69,8.95a29.85,29.85,0,0,0,8.57.78c2.26-.09,7.17-.09,9.08-1.33,2.42-1.56,3.88-6.34,5.61-8.63a16.92,16.92,0,0,1,5.29-5c3.14-1.66,8.74-1.81,8.73,3,0,8.09-14.67,8.4-19.87,8.32-2.15,0-2.15,3.31,0,3.34,7.31.11,21.77-.84,23.13-10.54,1.18-8.47-8.14-10.3-14.1-6.77-3,1.79-5.3,4.69-7.22,7.58-1,1.45-1.66,3.35-2.8,4.64s-.14.56-1.67,1.27-4.45.65-6.17.73c-3.81.17-8.5-.09-11.8-2.25-5.42-3.54-2.33-12.4,4.67-10.58,6.76,1.76,11.83,8.57,13.76,14.88.63,2,3.85,1.18,3.22-.89Z"/><path class="cls-2" d="M466.28,474.74c-.64-6.35-1.06-13.78-4.46-19.4-1.64-2.72-5.18-5.87-8.48-3.87-3.76,2.29-2.7,7.57-1.19,10.82,2.58,5.57,7.13,8.86,12,12.25a1.68,1.68,0,0,0,2.51-1.44c-.23-4.12.94-7.92,2.42-11.71.95-2.43,7.1-11.39,7.38-3.44.22,6.36-6,12.41-11.53,14a1.67,1.67,0,0,0,.89,3.22,18.31,18.31,0,0,0,11.78-9.84c1.71-3.47,3.8-9,.81-12.36s-7-1.1-9.38,1.58c-4,4.53-6,12.65-5.71,18.57l2.51-1.44c-2.76-1.91-5.64-3.68-7.81-6.28-1.26-1.51-5.7-7.6-3.82-9.79,3.68-4.28,6.58,6.2,6.91,7.45a77.28,77.28,0,0,1,1.78,11.7c.21,2.12,3.56,2.14,3.34,0Z"/><polygon class="cls-37" points="467.43 359.32 76.39 359.32 132.27 213.92 523.3 213.92 467.43 359.32"/><path class="cls-7" d="M236.87,260.32v-4.75h9.34v-4.41h-7.64V246.4h7.64v-4.58h5.26v4.58h9.68v-4.58h5.26v4.58h7.81v4.75h-7.81v4.41h9.34v4.75H265.39a26.41,26.41,0,0,0,11.54,4.24q-.34.85-1.19,2.55l-1.53,3.06c-.34-.11-.91-.34-1.7-.68s-1.25-.39-1.7-.51q1.53,2,4.24,6.11.85,1.19,1.19,1.7l-4.75,2.38q-.85-1.36-2.38-4.07-2.55-4.24-4.07-6.62l2.72-1a29,29,0,0,1-8.49-7.13h-5.77a31.87,31.87,0,0,1-7.47,6.45l3.9,2a64,64,0,0,1-8.32,10.69l-4.24-3.06a94.92,94.92,0,0,0,8-9.34,63.16,63.16,0,0,1-6.79,3.39,47.89,47.89,0,0,0-2.72-5.26,31.72,31.72,0,0,0,10.86-4.92Zm20.88,8.15,4.41-1.87q1.19,2.21,3.06,6.62,1.19,2.72,1.87,3.9l-4.92,2q-1.53-4.24-4.41-10.36v7.47q-.17,4.07-4.75,4.41-1.19,0-3.23.17h-2.89a20.4,20.4,0,0,0-1-5.09q1.87,0,4.58.17a2,2,0,0,0,1.87-2v-11h5.43Zm-6.28-17.31v4.41h9.68v-4.41Z"/><path class="cls-7" d="M319.88,266.09v3.73H280v-3.73h9.17a9.67,9.67,0,0,0-.51-1.19c-.34-.56-.57-1-.68-1.19l2.72-.51H284.4v-8.66h30.9v8.66h-6.11l2.72.51q-.34.34-1,1.19a8.1,8.1,0,0,0-1,1.19Zm-39-18.67v-3.73H297v-2h5.77v2h16.13v3.73H302.74v1.87h13.92v3.39H283v-3.39H297v-1.87Zm35,34h-5.43V280h-21v1.36h-5.43v-9.85h31.91Zm-5.43-4.58v-1.87h-21v1.87Zm-20.54-18.84v1.87h20v-1.87Zm5.94,8.15h7.81q1-1.69,1.87-2.89H294.08c.23.34.51.79.85,1.36A7.58,7.58,0,0,1,295.78,266.09Z"/><path class="cls-7" d="M331.25,241.81l5.43,1.7a93,93,0,0,1-3.4,9v28.35h-5.43V263.37q-.68,1-2,3.22a15.21,15.21,0,0,1-.85,1.53q-.17-1-.68-3.23l-1-4.58A78.7,78.7,0,0,0,331.25,241.81Zm14.26,5.09h17v4.75l-1.87,7-5.43-1,1.53-5.77H343.48a54.78,54.78,0,0,1-4.58,8,19,19,0,0,1-2.55-2q-1-.85-1.7-1.36A59,59,0,0,0,341.27,242l5.77.85Q346.36,244.87,345.51,246.91Zm-10.86,25.8a66.34,66.34,0,0,0,4.92-13.24l5.26,1.36a79,79,0,0,1-5.26,14.26,27.9,27.9,0,0,0-3.73-1.87A9.67,9.67,0,0,0,334.65,272.71Zm11.88-18.5h5.77v21.39q0,4.75-4.24,4.92h-2.72q-2.38.17-3.73.17a18.19,18.19,0,0,0-1-4.92,19.88,19.88,0,0,1,2.38.17h1.53q2,0,2-1.87Zm7.13,7,5.09-1.36a13.7,13.7,0,0,1,.51,1.36q2.38,6.79,4.07,12.39l-5.43,1.87Q355.7,266.94,353.66,261.17Z"/><path class="cls-7" d="M127.89,306.18v-5.09h4.41V294h5.26v7.13h3.56v5.09h-3.56v6.28a5.47,5.47,0,0,0,1.36-.34q1.36-.17,2.21-.34,0,1.87.17,5.26a26.05,26.05,0,0,1-3.73.68v10.7q0,4.24-3.56,4.41a34.92,34.92,0,0,1-4.92.34q-.17-1.19-.68-3.4a11.16,11.16,0,0,0-.34-1.53h3.06c.79,0,1.19-.51,1.19-1.53v-8q-2.21.51-4.24,1l-.34-5.77q.85-.17,2.38-.34a11.74,11.74,0,0,1,2.21-.34v-7.13Zm19.52,27.16h-5.26V301.26h9.34V294h5.43v7.3h9.34v31.91H161v-1.87H147.41Zm0-27.16v7.64h4.07v-7.64Zm0,12.39v8.15h4.07v-8.15ZM161,313.82v-7.64h-4.07v7.64Zm-4.07,4.75v8.15H161v-8.15Z"/><path class="cls-7" d="M188.15,300.92v-7.13h6.11v7.13h15.11v22.75h-6.11v-2.89h-9v12.73h-6.11V320.78H179v2.89H173V300.92Zm-9.17,5.6v8.66h9.17v-8.66Zm24.27,8.66v-8.66h-9v8.66Z"/><path class="cls-7" d="M215.14,314.67v-5.6h15.79a36.67,36.67,0,0,0,.68-7.47H217.35v-5.43h34.8v5.43h-14.6q-.17,3.56-.51,7.47h17.15v5.6H238.74q4.58,10.19,16,13.58a24,24,0,0,0-3.73,4.07c-.45.56-.79,1-1,1.36a29.35,29.35,0,0,1-15.62-15.45q-3.57,9.17-15.11,15.11a34.23,34.23,0,0,0-4.58-4.75q12.9-5.77,15.11-13.92Z"/><path class="cls-7" d="M258.6,322.14v-5.26h17.48v-1.7l5.6-3.56H266.75v-5.09h22.92v5.09L282,316.71v.17h15.79v5.26H282v5.6q0,5.43-6.28,5.43h-6.62a47.7,47.7,0,0,0-1.36-5.43q2.88.17,5.6.17t2.72-2.38v-3.39ZM273.88,295l7-1.19a36.11,36.11,0,0,0,1.36,4.24h14.94v10.53h-5.77V303.3H265v5.26h-5.6V298h15.62l-.51-1.53A12.74,12.74,0,0,1,273.88,295Z"/><path class="cls-7" d="M301.55,316v-4.92h40.06V316H313.77l-.34,2.55h23.43q-.17,1.53-.34,4.07-.34,3.23-.51,4.58-.51,5.43-7,5.77H317.16a46.1,46.1,0,0,0-1.53-5.43q7,.51,10.19.51,4.07,0,4.41-2.21a10.55,10.55,0,0,0,.34-2.55H306.81L308,316Zm5.09-20.71h30v13.41h-30Zm5.77,8.66h18.5v-3.9h-18.5Z"/><path class="cls-7" d="M345.68,309.75v-5.6h16q.34-4.41.34-10.19h6.11q0,1.87-.17,5.09,0,3.57-.17,5.09h16.64v5.6h-16.3q3.56,13.58,17,18.16a37.18,37.18,0,0,0-4.75,5.26A28.41,28.41,0,0,1,365,316.88q-3.4,10.36-15.45,16.47a10.69,10.69,0,0,1-.68-.85,31.64,31.64,0,0,0-3.9-3.9q14.77-6.62,16.13-18.84Z"/><path class="cls-7" d="M403.74,304.49a35.83,35.83,0,0,0,7.47-10.86l5.26,1q-1,1.87-1.87,3.39h13.07v4.07q-3.56,9.68-15.79,14.26a16,16,0,0,1-.51,1.87H428V323H413.07q4.24,4.25,15.45,5.09a28.79,28.79,0,0,0-2.72,5.43q-12.39-1-17.65-8.66-5.44,6.62-17.65,8.66-1-2.89-2-5.09Q399,326.89,402.72,323H389.14v-4.75h16.47q.51-2,.85-4.07h2.89a24.28,24.28,0,0,0-1.53-2,36.33,36.33,0,0,0,6.28-2.38,27.15,27.15,0,0,0-4.07-3.39l3.23-3.23A58.78,58.78,0,0,1,418,307.2a18.37,18.37,0,0,0,4.24-4.75H411.72a33.12,33.12,0,0,1-4.41,5.43,9.56,9.56,0,0,1-.68-.85Q404.92,305.5,403.74,304.49Zm-13.41,9.85-1.7-5.26q2-.68,5.77-2.21,2.55-.85,3.73-1.36v-4.24l-3.4,3.23a65,65,0,0,0-5.6-5.6l3.23-3.05q.51.51,1.87,1.7,2.38,2.21,3.9,3.56v-7.3h5.26v23.09h-5.26v-5.94A81.15,81.15,0,0,0,390.33,314.33Z"/><path class="cls-7" d="M437.86,296.85h6.62l-1,25.8h-4.75Zm.34,29h5.94V332H438.2Z"/><path class="cls-37" d="M107.22,249.71l17.55-44.62H172.2s-28-3.63-53.28-7.61A370.52,370.52,0,0,1,107.22,249.71Z"/><path class="cls-37" d="M495.31,324.44l-17.55,44.62H430.33s28,3.63,53.28,7.61A370.52,370.52,0,0,1,495.31,324.44Z"/></g></g></svg>