<svg xmlns="http://www.w3.org/2000/svg" width="70.24" height="70.24" viewBox="0 0 70.24 70.24"><defs><style>.cls-1{fill:#ed304e;}.cls-2{fill:#fc6368;}.cls-3{fill:#fff;}</style></defs><title>btn</title><g id="图层_2" data-name="图层 2"><g id="图层_1-2" data-name="图层 1"><circle class="cls-1" cx="35.12" cy="35.12" r="35.12"/><circle class="cls-2" cx="35.12" cy="35.12" r="28.85"/><path class="cls-3" d="M50.91,19.33a4.25,4.25,0,0,0-6,0l-9.78,9.78-9.77-9.77a4.25,4.25,0,0,0-6,6l9.77,9.78L19.33,44.9a4.25,4.25,0,0,0,0,6,4.23,4.23,0,0,0,6,0l9.78-9.77,9.77,9.77a4.23,4.23,0,0,0,6,0,4.25,4.25,0,0,0,0-6l-9.76-9.78,9.78-9.77A4.25,4.25,0,0,0,50.91,19.33Z"/></g></g></svg>