<svg xmlns="http://www.w3.org/2000/svg" xmlns:xlink="http://www.w3.org/1999/xlink" width="750.09" height="1218.04" viewBox="0 0 750.09 1218.04"><defs><style>.cls-1{fill:none;}.cls-2{isolation:isolate;}.cls-3{fill:#fc6368;}.cls-4{fill:#ed304e;}.cls-5{fill:#fff4d9;}.cls-6{opacity:0.3;}.cls-7{fill:#63aebf;}.cls-8{opacity:0.2;}.cls-9{fill:#fff;}.cls-10{fill:#f99426;}.cls-11,.cls-19{opacity:0.1;}.cls-11,.cls-21{mix-blend-mode:multiply;}.cls-12{fill:#f9b469;}.cls-13{fill:#f5ca40;}.cls-14{fill:#f9f9ed;}.cls-15{fill:#a40e01;}.cls-16{fill:#049cbf;}.cls-17{fill:#f97550;}.cls-18{fill:#78e8c1;}.cls-20{fill:#4bcc9f;}.cls-21{opacity:0.07;}.cls-22{clip-path:url(#clip-path);}.cls-23{fill:#e6c44a;}.cls-24{opacity:0.5;}.cls-25{clip-path:url(#clip-path-2);}.cls-26{fill:#d95e3d;}</style><clipPath id="clip-path"><rect class="cls-1" x="510.84" y="410.22" width="63.82" height="54.58" transform="translate(-135.37 275.82) rotate(-25.46)"/></clipPath><clipPath id="clip-path-2"><rect class="cls-1" x="251.82" y="475.56" width="48.76" height="81.18" transform="translate(-290.22 368.29) rotate(-47.22)"/></clipPath></defs><title>资源 3</title><g class="cls-2"><g id="图层_2" data-name="图层 2"><g id="图层_1-2" data-name="图层 1"><rect class="cls-3" x="0.03" width="750" height="1218"/><polygon class="cls-4" points="421.28 363.98 750.03 294.79 750.03 398.62 421.28 379.74 421.28 363.98"/><polygon class="cls-4" points="351.09 340.4 750.03 71.57 750.02 197.4 366.48 363.98 351.09 340.4"/><polygon class="cls-4" points="177.51 0.04 299.76 0.04 407 363.98 378.28 362.26 177.51 0.04"/><polygon class="cls-4" points="355.5 326.22 493.49 0.04 607.49 0.04 375.03 379.7 355.5 326.22"/><polygon class="cls-4" points="415.28 332.51 0.03 45.17 0.03 162.65 369.02 348 415.28 332.51"/><polygon class="cls-4" points="0.03 398.62 0.03 282.18 335.28 327.3 0.03 398.62"/><path class="cls-4" d="M0,366.91S137.19,240,362.28,240,750,366.35,750,366.35V1159H0Z"/><path class="cls-5" d="M0,378.18S137.19,253.42,362.28,253.42,750,377.63,750,377.63V1157H0Z"/><g class="cls-6"><polygon class="cls-7" points="405.4 1001.85 389.72 1053.42 464.81 1053.42 474.14 1022.75 405.4 1001.85"/><g class="cls-8"><path class="cls-1" d="M405.4,1001.54l-10.45,34.37h0c4.09,1.24,6.86,4,5.62,8.12s-6,7.93-10.12,6.69h0l-.82,2.71h21.87a3.79,3.79,0,1,1,7.32,0h45.91l9.42-31Zm24.58,25c-1.37,4.51-4.27,7.41-8.78,6s-8.94-6.49-7.57-11a8.54,8.54,0,1,1,16.35,5Zm16.15,21.93a5.55,5.55,0,0,1-6.92,3.7c-2.93-.89-4.1-5.6-3.21-8.53s3.5-3,6.44-2.09A5.55,5.55,0,0,1,446.13,1048.42Zm17.29-8.17c-1.7-.52-3.84-2.67-3.33-4.37s3.5-2.29,5.2-1.78a3.21,3.21,0,0,1-1.87,6.15Z"/><path class="cls-9" d="M424.29,1015.83a8.54,8.54,0,0,0-10.66,5.69c-1.37,4.51,3.05,9.63,7.57,11s7.41-1.52,8.78-6A8.54,8.54,0,0,0,424.29,1015.83Z"/><path class="cls-9" d="M442.44,1041.49c-2.93-.89-5.54-.84-6.44,2.09s.27,7.64,3.21,8.53a5.55,5.55,0,0,0,3.23-10.62Z"/><path class="cls-9" d="M465.29,1034.1c-1.7-.52-4.68.08-5.2,1.78s1.63,3.85,3.33,4.37a3.21,3.21,0,0,0,1.87-6.15Z"/><path class="cls-9" d="M395,1035.92h0l-4.5,14.81h0c4.09,1.24,8.88-2.6,10.12-6.69S399.07,1037.16,395,1035.92Z"/><path class="cls-9" d="M416.25,1048.79a3.79,3.79,0,0,0-4.76,4.63h7.32A3.79,3.79,0,0,0,416.25,1048.79Z"/></g><path class="cls-10" d="M475.17,999.74a37.67,37.67,0,0,0-15.57-4.33c-2.39-.2-4.74-.29-7.1-.31l2.1-.92c3.67-1.6,7.46-2.9,11.09-4.59,3.36-1.56,6.61-3.64,8.51-6.91,1.74-3,1.93-7.88-.67-10.36-1.73-1.65-5.17-2.45-7.42-3.15-4.15-1.3-9.17,1.71-12.47,3.87a32.32,32.32,0,0,0-6.72,5.94,46.34,46.34,0,0,0,.58-9.46c-.18-3.49-1-7.32-3.75-9.69-1.79-1.54-4.75-2.24-6.94-3-2.73-1-5.22,1.06-6.84,3-2.69,3.28-3.78,7.71-3.91,11.87A28.48,28.48,0,0,0,428.7,984a28.89,28.89,0,0,0-3.81-2.39c-2.54-1.31-6.9-3.76-9.89-2.9-3.72,1.08-3.11,5.82-.76,7.79,3.07,2.58,7.83,3.89,11.56,5.14,1.89.64,3.83,1.14,5.76,1.66l.62.17.11.08c.87.6,1.68,1.27,2.56,1.86a30.5,30.5,0,0,0,6.16,2.63,7.25,7.25,0,0,0,3.17.37c8.85,2.9,17.59,6.18,26.65,8.38,2.19.53,5.16,1.1,7.09-.4C480.48,1004.42,476.89,1000.72,475.17,999.74Zm-40.42-5.52a9,9,0,0,0-3-1.19,62.83,62.83,0,0,0-6.52-2.09c-1.36-.37-2.72-.75-4.06-1.18a13.29,13.29,0,0,1-1.69-1.1,4.4,4.4,0,0,1-1.26-6,3.58,3.58,0,0,1,3.39-1.92l.79.56a40.6,40.6,0,0,1,3.78,3.15,79.42,79.42,0,0,1,6.88,7.22c.69,1,1.42,1.89,2.16,2.77Zm3.51-.69-.21-.26a37.9,37.9,0,0,1-6.38-15.18c-1.09-6.36.52-15.8,7-18.93a4,4,0,0,1,.94-.31c.25.32.47.66.68,1,1.89,3,2,7,2,10.39C442.23,978.14,439.64,985.78,438.26,993.52Zm15.4-14c3.6-3.75,9.6-8.32,15.32-8.45,1.64,2.24,1.27,5.6.39,8.28-1.21,3.74-5,6-8.27,7.72-3.58,1.83-7.44,3-11.12,4.64-1.73.76-3.51,1.58-5.33,2.27A43.1,43.1,0,0,1,453.66,979.56ZM468,1005.15c-4.63-.39-9.35-2.25-13.73-3.66-3.12-1-6.23-2.07-9.34-3.13,1.44-.2,2.88-.58,4.21-.8,6.44-1,13.44-.48,19.88.42.65.09,1.29.22,1.93.34h0a6,6,0,0,1,2.09,3C474.3,1004.81,470.56,1005.36,468,1005.15Z"/><polygon class="cls-11" points="467.33 1020.37 457.27 1053.42 464.6 1053.42 474.03 1022.41 467.33 1020.37"/><polygon class="cls-10" points="428.44 1010.83 415.49 1053.42 435.18 1053.42 446.47 1016.31 428.44 1010.83"/><rect class="cls-11" x="435.96" y="978.13" width="6.13" height="71.85" transform="translate(-658.89 1139.06) rotate(-73.09)"/><rect class="cls-7" x="432.43" y="967.8" width="18.62" height="74.69" transform="translate(-648.45 1135.34) rotate(-73.09)"/><rect class="cls-12" x="431.06" y="993.56" width="18.62" height="22.34" transform="translate(-649.01 1133.77) rotate(-73.09)"/></g><path class="cls-13" d="M750,951v216.13L0,1169.77V965.83A72.12,72.12,0,0,1,43.28,974c20.69,11.29,29.84,23.33,40.34,44.91,0,0,34.63-15.88,52.63,16.11,0,0,56.81-29.05,79,14.3,0,0,27-27.71,59.6-.85,17.9-25,79.63-34.29,105.38-6.15,0,0,41-24.32,67,7,0,0,23.33-50.66,84-31.32,0,0,16.77-34.44,54.37-45,46.3-13,86.63,15,86.63,15S700.62,943.36,750,951Z"/><path class="cls-14" d="M750,959v216.13L0,1178.77V973.83A72.12,72.12,0,0,1,43.28,982c20.69,11.29,29.84,23.33,40.34,44.91,0,0,34.63-15.88,52.63,16.11,0,0,56.81-29.05,79,14.3,0,0,27-27.71,59.6-.85,17.9-25,79.63-34.29,105.38-6.15,0,0,41-24.32,67,7,0,0,23.33-50.66,84-31.32,0,0,16.77-34.44,54.37-45,46.3-13,86.63,15,86.63,15S700.62,951.36,750,959Z"/><path class="cls-15" d="M0,1052.1V1218H750V1052.1s-19.54-21.48-42-12.48-16.5,33.91-16.5,33.91-19.5-13.5-30,9c0,0-36-24-54,9.56,0,0-48.2-37-56.93,18,0,0-42.77-21-75.39,8.71,0,0-37.17-24.28-53.89,13.22,0,0-44.2-33.93-70.2-5.93,0,0-15.8-31.57-45.09-12.07,0,0-21-47.93-59-9.93,0,0-29.76-42-69.53-8,0,0,1.77-32-34.23-44S85.49,1069,85.49,1069,72,1039.63,39,1063C39,1063,24.26,1041.44,0,1052.1Z"/><path class="cls-4" d="M0,1058.91V1218H750V1058.91s-19.54-21.48-42-12.48-16.5,33.91-16.5,33.91-19.5-13.5-30,9c0,0-36-24-54,9.56,0,0-48.2-37-56.93,18,0,0-42.77-21-75.39,8.71,0,0-37.17-24.28-53.89,13.22,0,0-44.2-33.93-70.2-5.93,0,0-15.8-31.57-45.09-12.07,0,0-21-47.93-59-9.93,0,0-29.76-42-69.53-8,0,0,1.77-32-34.23-44s-57.77,16.94-57.77,16.94-13.5-29.41-46.5-6C39,1069.84,24.26,1048.24,0,1058.91Z"/><polygon class="cls-13" points="626.9 728.17 670.56 706.03 669.22 726.23 626.9 728.17"/><polygon class="cls-16" points="127.02 735.16 90.52 744.37 104.88 761.61 127.02 735.16"/><polygon class="cls-17" points="174.45 423.82 168.13 387.76 139.84 392.27 174.45 423.82"/><polygon class="cls-10" points="583.35 594.53 637.94 570.78 630.59 598.63 583.35 594.53"/><polygon class="cls-18" points="596.88 557.25 574.49 588.96 603.73 571.76 596.88 557.25"/><polygon class="cls-17" points="538.97 895.67 558.52 936.56 570.13 915.44 538.97 895.67"/><polygon class="cls-13" points="88.69 692.7 58.75 709.83 127.02 726.83 88.69 692.7"/><polygon class="cls-18" points="214.68 934.71 175.08 947.11 180.76 975.37 214.68 934.71"/><g class="cls-6"><polygon class="cls-17" points="690.16 789.53 750.09 839.21 750.09 717.24 690.16 789.53"/><g class="cls-19"><polygon class="cls-1" points="724.88 818.29 728.8 821.54 740.45 818.96 740.96 802.88 725.26 806.36 724.88 818.29"/><polygon class="cls-1" points="694.77 784 694.49 793.09 698.41 796.34 710.06 793.76 710.57 777.68 697.64 780.54 694.77 784"/><polygon class="cls-1" points="710.98 764.45 710.57 777.68 726.27 774.21 726.78 758.13 713.85 760.99 710.98 764.45"/><polygon class="cls-1" points="709.69 805.69 713.6 808.94 725.26 806.36 725.76 790.28 710.06 793.76 709.69 805.69"/><polygon class="cls-1" points="740.45 818.96 740.08 830.88 744 834.13 750.09 832.78 750.09 816.82 740.45 818.96"/><polygon class="cls-1" points="741.47 786.8 740.96 802.88 750.09 800.86 750.09 784.9 741.47 786.8"/><polygon class="cls-1" points="742.48 754.65 741.97 770.73 750.09 768.93 750.09 752.97 742.48 754.65"/><polygon class="cls-1" points="725.76 790.28 741.47 786.8 741.97 770.73 726.27 774.21 725.76 790.28"/><polygon class="cls-1" points="746.27 721.89 743.4 725.34 742.99 738.58 750.09 737.01 750.09 721.04 746.27 721.89"/><polygon class="cls-1" points="727.2 744.89 726.78 758.13 742.48 754.65 742.99 738.58 730.06 741.44 727.2 744.89"/><polygon class="cls-9" points="744 834.13 750.09 839.18 750.09 832.78 744 834.13"/><polygon class="cls-9" points="740.08 830.88 740.45 818.96 728.8 821.54 740.08 830.88"/><polygon class="cls-9" points="724.88 818.29 725.26 806.36 713.6 808.94 724.88 818.29"/><polygon class="cls-9" points="709.69 805.69 710.06 793.76 698.41 796.34 709.69 805.69"/><polygon class="cls-9" points="694.49 793.09 694.77 784 690.19 789.53 694.49 793.09"/><polygon class="cls-9" points="740.96 802.88 740.45 818.96 750.09 816.82 750.09 800.86 740.96 802.88"/><polygon class="cls-9" points="725.26 806.36 740.96 802.88 741.47 786.8 725.76 790.28 725.26 806.36"/><polygon class="cls-9" points="710.06 793.76 725.76 790.28 726.27 774.21 710.57 777.68 710.06 793.76"/><polygon class="cls-9" points="710.57 777.68 710.98 764.45 697.64 780.54 710.57 777.68"/><polygon class="cls-9" points="741.97 770.73 741.47 786.8 750.09 784.9 750.09 768.93 741.97 770.73"/><polygon class="cls-9" points="726.27 774.21 741.97 770.73 742.48 754.65 726.78 758.13 726.27 774.21"/><polygon class="cls-9" points="726.78 758.13 727.2 744.89 713.85 760.99 726.78 758.13"/><polygon class="cls-9" points="742.99 738.58 742.48 754.65 750.09 752.97 750.09 737.01 742.99 738.58"/><polygon class="cls-9" points="742.99 738.58 743.4 725.34 730.06 741.44 742.99 738.58"/><polygon class="cls-9" points="746.27 721.89 750.09 721.04 750.09 717.28 746.27 721.89"/></g><path class="cls-20" d="M739.83,879.6a33.39,33.39,0,0,1-7.44-2.85,26.7,26.7,0,0,1-1.67-2.62c-2.88-5-3.21-10.92-3.23-16.52,0-3.33.57-7.09-.73-10.25a8.2,8.2,0,0,0-1.08-1.81c.29-.48.59-1,.9-1.41s-7-5.84-6.84-6.09c-.28.41-.55.83-.82,1.25-7.59-6.72-15.66-13.3-25.54-16.25-10.58-3.16-38.55-4-34.18,13.85,1.6,6.53,8.14,11.88,13.52,15.43a22.65,22.65,0,0,0,8.83,3.27,61.43,61.43,0,0,0-6.28,5.8c-4.94,5.27-7.85,12.1-5.08,19.13,2,5.13,7.48,9.52,11.83,12.57,8.84,6.2,19.71-9.19,23.87-14.87,1.13-1.54,2.21-3.1,3.27-4.68a23.43,23.43,0,0,0-1.79,8.49c0,3.55.84,7.86,4.1,9.8a32.93,32.93,0,0,0,5.84,2.29c3.12,1.11,6.92-1.81,8.75-4.05,2.33-2.85,2.43-7,2.18-10.43a41.64,41.64,0,0,0-1.49-8,61.86,61.86,0,0,0,6.71,6.67,32.23,32.23,0,0,0,9.24,6.1,56.36,56.36,0,0,0,7.39,2.11v-3.68A52.27,52.27,0,0,0,739.83,879.6Zm-67.37-30.68a24.18,24.18,0,0,1-4.69-1.66A14.37,14.37,0,0,1,666,836c2.22-7.18,12.71-8.28,18.87-8.52a46.86,46.86,0,0,1,24,5.38,61.91,61.91,0,0,1,8.92,5.9c.23.18.55.47.89.79l-.5.76c-1.38-1.3-2.64-2.41-2.88-2.32a144.46,144.46,0,0,0-24.71,11.33A48.11,48.11,0,0,1,672.45,848.92Zm32.22,14.92a118.53,118.53,0,0,1-11.54,15.68c-3.25,3.63-7.28,7.57-12.21,8.62a7.25,7.25,0,0,1-3.16,0,19.42,19.42,0,0,1-1.31-3.1c-2.25-6.81,1.84-13.41,6.32-18.2a66.75,66.75,0,0,1,14.63-11.44,60.38,60.38,0,0,0,14.21-3.64C709.37,855.82,707.15,859.93,704.67,863.84Zm17.18,22.76a10.32,10.32,0,0,1-7.25,5.52c-3-3.78-2.44-10.34-1.13-14.51,1.45-4.6,4.06-8.69,6.67-12.79A80.52,80.52,0,0,1,723,876.64,17.89,17.89,0,0,1,721.85,886.6Z"/><polygon class="cls-21" points="690.19 789.53 698.83 796.68 750.09 734.85 750.09 717.28 690.19 789.53"/><polygon class="cls-20" points="744.68 830.81 750.09 824.29 750.09 790.38 728.02 817 744.68 830.81"/><polygon class="cls-11" points="693.98 784.82 689.48 790.25 750.09 840.49 750.09 831.34 693.98 784.82"/><polygon class="cls-17" points="687.5 784.17 670.66 804.48 750.09 870.33 750.09 836.06 687.5 784.17"/><rect class="cls-18" x="714.26" y="821.45" width="26.97" height="25.66" transform="translate(-378.99 862.09) rotate(-50.34)"/></g><g class="cls-6"><path class="cls-20" d="M511.48,386.33c.51.93,1,1.84,1.59,2.74a13,13,0,0,0-3.86-2.88c-1.78-.85-4.16-1.41-5.89-.23a18.48,18.48,0,0,0-2.52,2.41c-1.29,1.31-.7,3.91,0,5.35.89,1.84,2.94,2.85,4.74,3.53a23.13,23.13,0,0,0,4.37,1.11,34.39,34.39,0,0,0-4.93,1.82,17.86,17.86,0,0,0-5.23,3.23,35.45,35.45,0,0,0-3,3.49c-.48.58-1,1.13-1.49,1.68a12.22,12.22,0,0,1-1.08,1c-.25.17-.42.29-.52.38a15.31,15.31,0,0,1-2.79,1.25,40.22,40.22,0,0,0,5.81-2.35c2.68-1.22,4.37-3.52,6.19-5.74A18.53,18.53,0,0,1,506,400a14.85,14.85,0,0,1,1.71-.23c3.18-.29,6.25.94,9.08,2.23,1.68.77,3.44,1.94,5.33,2a4.54,4.54,0,0,0,1.16-.12c.17.26.34.52.5.78s4.58-2.17,4.67-2c-.14-.24-.29-.47-.44-.71,5.16-2.26,10.36-4.78,14.15-9.07,4.07-4.59,11-18.49,1-20.45-3.67-.72-7.89,1.33-10.93,3.21a12.6,12.6,0,0,0-3.71,3.68,34.4,34.4,0,0,0-1.45-4.52c-1.5-3.72-4.26-6.78-8.45-7-3.05-.18-6.54,1.54-9.09,3C504.38,373.84,509.59,382.91,511.48,386.33Zm-3.19,9a9.94,9.94,0,0,1-4.74-2.91,5.73,5.73,0,0,1-1.09-4.94c2.6-.62,5.78,1.19,7.57,2.82a30.54,30.54,0,0,1,4.88,6.35A44.93,44.93,0,0,1,508.29,395.34Zm25.77-19a13.4,13.4,0,0,1,1.93-2,8,8,0,0,1,6.08,1.76c3.1,2.8,1.2,8.34-.12,11.5a26,26,0,0,1-8.33,10.85,34.38,34.38,0,0,1-5.06,3.12c-.14.07-.37.17-.61.27l-.27-.43a6.1,6.1,0,0,0,1.84-.91,80.19,80.19,0,0,0,.06-15.09A26.72,26.72,0,0,1,534.06,376.34Zm-21-6.48a10.76,10.76,0,0,1,1.87.06c4,.46,6.33,4.06,7.69,7.44a37.09,37.09,0,0,1,2.34,10,33.54,33.54,0,0,0-1.49,8c-1.54-2.09-3.09-4.16-4.48-6.33a65.9,65.9,0,0,1-5.2-9.47c-1.07-2.48-2.11-5.44-1.49-8.17A4,4,0,0,1,513.09,369.86Z"/><rect class="cls-16" x="510.84" y="410.22" width="63.82" height="54.58" transform="translate(-135.37 275.82) rotate(-25.46)"/><g class="cls-19"><g class="cls-22"><polygon class="cls-9" points="497.52 419 499.44 410.27 491.46 406.26 489.54 414.99 497.52 419"/><polygon class="cls-9" points="507.42 414.28 509.33 405.56 501.36 401.55 499.44 410.27 507.42 414.28"/><polygon class="cls-9" points="517.31 409.57 519.23 400.85 511.25 396.84 509.33 405.56 517.31 409.57"/><polygon class="cls-9" points="527.21 404.86 529.12 396.14 521.14 392.13 519.23 400.85 527.21 404.86"/><polygon class="cls-9" points="537.1 400.15 539.02 391.43 531.04 387.42 529.12 396.14 537.1 400.15"/><polygon class="cls-9" points="547 395.44 548.91 386.72 540.93 382.71 539.02 391.43 547 395.44"/><polygon class="cls-9" points="556.89 390.73 558.81 382.01 550.83 378 548.91 386.72 556.89 390.73"/><polygon class="cls-9" points="503.58 431.73 505.5 423.01 497.52 419 495.61 427.72 503.58 431.73"/><polygon class="cls-9" points="513.48 427.02 515.39 418.29 507.42 414.28 505.5 423.01 513.48 427.02"/><polygon class="cls-9" points="523.37 422.3 525.29 413.58 517.31 409.57 515.39 418.29 523.37 422.3"/><polygon class="cls-9" points="533.27 417.59 535.18 408.87 527.21 404.86 525.29 413.58 533.27 417.59"/><polygon class="cls-9" points="543.16 412.88 545.08 404.16 537.1 400.15 535.18 408.87 543.16 412.88"/><polygon class="cls-9" points="553.06 408.17 554.97 399.45 547 395.44 545.08 404.16 553.06 408.17"/><polygon class="cls-9" points="562.95 403.46 564.87 394.74 556.89 390.73 554.97 399.45 562.95 403.46"/><polygon class="cls-9" points="572.85 398.75 574.76 390.03 566.79 386.02 564.87 394.74 572.85 398.75"/><polygon class="cls-9" points="509.64 444.46 511.56 435.74 503.58 431.73 501.67 440.45 509.64 444.46"/><polygon class="cls-9" points="519.54 439.75 521.46 431.02 513.48 427.02 511.56 435.74 519.54 439.75"/><polygon class="cls-9" points="529.43 435.04 531.35 426.31 523.37 422.3 521.46 431.02 529.43 435.04"/><polygon class="cls-9" points="539.33 430.32 541.25 421.6 533.27 417.59 531.35 426.31 539.33 430.32"/><polygon class="cls-9" points="549.22 425.61 551.14 416.89 543.16 412.88 541.25 421.6 549.22 425.61"/><polygon class="cls-9" points="559.12 420.9 561.03 412.18 553.06 408.17 551.14 416.89 559.12 420.9"/><polygon class="cls-9" points="569.01 416.19 570.93 407.47 562.95 403.46 561.03 412.18 569.01 416.19"/><polygon class="cls-9" points="515.71 457.19 517.62 448.47 509.64 444.46 507.73 453.18 515.71 457.19"/><polygon class="cls-9" points="525.6 452.48 527.52 443.76 519.54 439.75 517.62 448.47 525.6 452.48"/><polygon class="cls-9" points="535.5 447.77 537.41 439.05 529.43 435.04 527.52 443.76 535.5 447.77"/><polygon class="cls-9" points="545.39 443.06 547.31 434.33 539.33 430.32 537.41 439.05 545.39 443.06"/><polygon class="cls-9" points="555.29 438.34 557.2 429.62 549.22 425.61 547.31 434.33 555.29 438.34"/><polygon class="cls-9" points="565.18 433.63 567.1 424.91 559.12 420.9 557.2 429.62 565.18 433.63"/><polygon class="cls-9" points="575.08 428.92 576.99 420.2 569.01 416.19 567.1 424.91 575.08 428.92"/><polygon class="cls-9" points="584.97 424.21 586.89 415.49 578.91 411.48 576.99 420.2 584.97 424.21"/><polygon class="cls-9" points="521.77 469.92 523.68 461.2 515.71 457.19 513.79 465.91 521.77 469.92"/><polygon class="cls-9" points="531.66 465.21 533.58 456.49 525.6 452.48 523.68 461.2 531.66 465.21"/><polygon class="cls-9" points="541.56 460.5 543.47 451.78 535.5 447.77 533.58 456.49 541.56 460.5"/><polygon class="cls-9" points="551.45 455.79 553.37 447.06 545.39 443.06 543.47 451.78 551.45 455.79"/><polygon class="cls-9" points="561.35 451.07 563.26 442.35 555.29 438.34 553.37 447.06 561.35 451.07"/><polygon class="cls-9" points="571.24 446.36 573.16 437.64 565.18 433.63 563.26 442.35 571.24 446.36"/><polygon class="cls-9" points="581.14 441.65 583.05 432.93 575.08 428.92 573.16 437.64 581.14 441.65"/><polygon class="cls-9" points="527.83 482.65 529.75 473.93 521.77 469.92 519.85 478.64 527.83 482.65"/><polygon class="cls-9" points="537.72 477.94 539.64 469.22 531.66 465.21 529.75 473.93 537.72 477.94"/><polygon class="cls-9" points="547.62 473.23 549.54 464.51 541.56 460.5 539.64 469.22 547.62 473.23"/><polygon class="cls-9" points="557.51 468.52 559.43 459.8 551.45 455.79 549.54 464.51 557.51 468.52"/><polygon class="cls-9" points="567.41 463.81 569.33 455.08 561.35 451.07 559.43 459.8 567.41 463.81"/><polygon class="cls-9" points="577.3 459.09 579.22 450.37 571.24 446.36 569.33 455.08 577.3 459.09"/><polygon class="cls-9" points="587.2 454.38 589.12 445.66 581.14 441.65 579.22 450.37 587.2 454.38"/><polygon class="cls-9" points="597.09 449.67 599.01 440.95 591.03 436.94 589.12 445.66 597.09 449.67"/><polygon class="cls-9" points="533.89 495.38 535.81 486.66 527.83 482.65 525.91 491.37 533.89 495.38"/><polygon class="cls-9" points="543.79 490.67 545.7 481.95 537.72 477.94 535.81 486.66 543.79 490.67"/><polygon class="cls-9" points="553.68 485.96 555.6 477.24 547.62 473.23 545.7 481.95 553.68 485.96"/><polygon class="cls-9" points="563.58 481.25 565.49 472.53 557.51 468.52 555.6 477.24 563.58 481.25"/><polygon class="cls-9" points="573.47 476.54 575.39 467.81 567.41 463.81 565.49 472.53 573.47 476.54"/><polygon class="cls-9" points="583.37 471.83 585.28 463.1 577.3 459.09 575.39 467.81 583.37 471.83"/><polygon class="cls-9" points="593.26 467.11 595.18 458.39 587.2 454.38 585.28 463.1 593.26 467.11"/><polygon class="cls-9" points="539.95 508.11 541.87 499.39 533.89 495.38 531.97 504.1 539.95 508.11"/><polygon class="cls-9" points="549.85 503.4 551.76 494.68 543.79 490.67 541.87 499.39 549.85 503.4"/><polygon class="cls-9" points="559.74 498.69 561.66 489.97 553.68 485.96 551.76 494.68 559.74 498.69"/><polygon class="cls-9" points="569.64 493.98 571.55 485.26 563.58 481.25 561.66 489.97 569.64 493.98"/><polygon class="cls-9" points="579.53 489.27 581.45 480.55 573.47 476.54 571.55 485.26 579.53 489.27"/><polygon class="cls-9" points="589.43 484.56 591.34 475.83 583.37 471.83 581.45 480.55 589.43 484.56"/><polygon class="cls-9" points="599.32 479.85 601.24 471.12 593.26 467.11 591.34 475.83 599.32 479.85"/><polygon class="cls-9" points="609.22 475.13 611.13 466.41 603.16 462.4 601.24 471.12 609.22 475.13"/></g></g><polygon class="cls-21" points="524.3 472.99 525.67 475.87 583.29 448.44 559.83 399.15 554.21 401.83 576.3 448.23 524.3 472.99"/><rect class="cls-20" x="537.1" y="411.8" width="12.01" height="52.92" transform="translate(-135.66 276.05) rotate(-25.46)"/><rect class="cls-11" x="499.66" y="412.18" width="63.92" height="3.91" transform="translate(-126.41 268.79) rotate(-25.46)"/><rect class="cls-16" x="493.48" y="400.14" width="69.92" height="14.65" transform="translate(-123.84 266.73) rotate(-25.46)"/><rect class="cls-18" x="521.39" y="400.12" width="14.25" height="14.98" transform="translate(-123.89 266.76) rotate(-25.46)"/></g><g class="cls-6"><polygon class="cls-23" points="685.36 480.74 672.41 517.69 750.09 544.91 750.09 503.42 685.36 480.74"/><g class="cls-24"><polygon class="cls-1" points="698.1 488.88 702.52 486.75 685.36 480.74 685.16 481.31 696.79 505.49 672.61 517.12 672.41 517.69 689.58 523.71 687.45 519.28 707.97 509.41 698.1 488.88"/><polygon class="cls-1" points="738.98 541.02 750.09 544.91 750.09 535.68 738.98 541.02"/><polygon class="cls-1" points="721 496.91 725.42 494.78 706.91 488.29 718.91 513.24 693.96 525.24 712.48 531.73 710.35 527.3 730.87 517.43 721 496.91"/><polygon class="cls-1" points="747.54 502.53 729.81 496.32 741.81 521.27 716.86 533.27 734.6 539.48 732.47 535.05 750.09 526.58 750.09 519.15 743.12 504.66 747.54 502.53"/><polygon class="cls-1" points="676.45 506.18 685.85 501.65 681.32 492.25 676.45 506.18"/><polygon class="cls-9" points="743.12 504.66 750.09 519.15 750.09 503.42 747.54 502.53 743.12 504.66"/><polygon class="cls-9" points="732.47 535.05 734.6 539.48 738.98 541.02 750.09 535.68 750.09 526.58 732.47 535.05"/><polygon class="cls-9" points="725.42 494.78 721 496.91 730.87 517.43 710.35 527.3 712.48 531.73 716.86 533.27 741.81 521.27 729.81 496.32 725.42 494.78"/><polygon class="cls-9" points="702.52 486.75 698.1 488.88 707.97 509.41 687.45 519.28 689.58 523.71 693.96 525.24 718.91 513.24 706.91 488.29 702.52 486.75"/><polygon class="cls-9" points="681.32 492.25 685.85 501.65 676.45 506.18 672.61 517.12 696.79 505.49 685.16 481.31 681.32 492.25"/></g><polygon class="cls-11" points="681.36 514.35 692.29 483.17 685.36 480.74 672.41 517.69 750.09 544.91 750.09 538.44 681.36 514.35"/><polygon class="cls-11" points="685.75 479.61 682.99 487.5 750.09 511.02 750.09 502.16 685.75 479.61"/><polygon class="cls-23" points="689.67 458.51 681.28 482.48 750.09 506.59 750.09 479.69 689.67 458.51"/></g><g class="cls-6"><rect class="cls-10" x="251.97" y="475.49" width="48.76" height="81.61" transform="translate(-290.28 368.46) rotate(-47.22)"/><g class="cls-8"><g class="cls-25"><rect class="cls-9" x="281.79" y="458.17" width="7.17" height="92.38" transform="translate(-278.63 371.25) rotate(-47.22)"/><rect class="cls-9" x="272.72" y="467.97" width="7.17" height="92.38" transform="translate(-288.73 367.73) rotate(-47.22)"/><rect class="cls-9" x="263.64" y="477.78" width="7.17" height="92.38" transform="translate(-298.84 364.22) rotate(-47.22)"/><rect class="cls-9" x="254.57" y="487.58" width="7.17" height="92.38" transform="translate(-308.95 360.7) rotate(-47.22)"/></g></g><rect class="cls-26" x="252.21" y="509.16" width="47.27" height="15.36" transform="translate(-290.84 368.25) rotate(-47.22)"/><rect class="cls-11" x="289.15" y="458.8" width="5" height="81.73" transform="translate(-273.17 374.35) rotate(-47.22)"/><polygon class="cls-21" points="285.83 554.4 231.78 504.38 229.85 506.47 289.74 561.9 322.86 526.11 317.02 520.71 285.83 554.4"/><path class="cls-26" d="M344.48,510.6c-.25-.1-2.27-1.14-2.5-1a22,22,0,0,1-8.24,3.73,15,15,0,0,1-4.75.25l-.18,0a11.71,11.71,0,0,1-1-.75c-2.46-2.07-3-5.59-4.25-8.38a16.66,16.66,0,0,0-3.51-4.79,38.94,38.94,0,0,0-5.33-4.52c1,0,2.07,0,3.13,0,6.13-.21,13.69-1.61,17.41-7,2.68-3.91,2.64-10.5-2.2-12.5l-1.51-.64a20.83,20.83,0,0,0-6.33-1.55,22.75,22.75,0,0,0-7.15,1.86,54.87,54.87,0,0,0-6.19,3c2.78-3.84,5.66-8.33,5.87-13.1.27-6.16-6.35-8-11-9.76s-7.71.67-9.29,4.91c-2,5.47-1.8,11.91-1.16,17.61a48.45,48.45,0,0,0,1.68,8.45l.25.8q-.66.85-1.29,1.72l1.62.65A3.75,3.75,0,0,0,297,490.9s1.74.72,1.82.75c.71.29,1.42.55,2.13.81l1,.43,0-.06A45.09,45.09,0,0,0,312.25,495a22.22,22.22,0,0,1,5.36,5.74c1.57,2.62,2.15,5.64,3.69,8.27,1.71,2.92,5.16,4,8.12,5.22a15.75,15.75,0,0,0,8.8,1.23,20.85,20.85,0,0,0,8.72-3.82A12.84,12.84,0,0,1,344.48,510.6Zm-42.8-27.67c-.12-.81-.22-1.59-.32-2.33-.74-5.64-.87-11.71.71-17.22,1.09-3.78,3.53-7,7.47-6.56a10.17,10.17,0,0,1,.94.73,6.9,6.9,0,0,1,1.85,2.69,9.83,9.83,0,0,1-.21,6.4C310.19,472.87,305.87,477.93,301.67,482.93Zm6.54,10.16c-1.14-.06-2.28-.17-3.41-.32a12.38,12.38,0,0,1-.84-1.42,5.19,5.19,0,0,1,2-.22,6.62,6.62,0,0,1,.82.12c.58.33,1.14.68,1.7,1l1.31.87Zm3.35.08a29.63,29.63,0,0,0-2.91-1.4l-.2-.09a9,9,0,0,0-1-.45,33.1,33.1,0,0,0-4.21-1.68,63.28,63.28,0,0,1,9.26-6.72c4.7-3,9.83-5.86,15.3-7.09a15,15,0,0,1,2.91-.36,7.89,7.89,0,0,1,1.29,4.39c.28,7-5.57,10.81-11.61,12.36A36.72,36.72,0,0,1,311.57,493.18Zm16.5,20.28c-1.61-.29-2.45-1.34.43.07Z"/><rect class="cls-10" x="289.26" y="449.43" width="15.18" height="89.41" transform="translate(-267.44 376.4) rotate(-47.22)"/><rect class="cls-17" x="289.26" y="485.03" width="15.18" height="18.22" transform="translate(-267.44 376.39) rotate(-47.22)"/></g></g></g></g></svg>