<svg id="_1.svg" data-name="1.svg" xmlns="http://www.w3.org/2000/svg" width="26" height="16.125" viewBox="0 0 26 16.125">
  <defs>
    <style>
      .cls-1 {
        fill: #ffcc27;
      }

      .cls-1, .cls-2 {
        fill-rule: evenodd;
      }

      .cls-2 {
        fill: #1bedee;
      }
    </style>
  </defs>
  <path id="圆角矩形_4_拷贝_2" data-name="圆角矩形 4 拷贝 2" class="cls-1" d="M234.5,266.206a2,2,0,0,1,.732,2.732l-7,12.124a2,2,0,1,1-3.464-2l7-12.124A2,2,0,0,1,234.5,266.206Z" transform="translate(-224.5 -265.938)"/>
  <path id="圆角矩形_4_拷贝_2-2" data-name="圆角矩形 4 拷贝 2" class="cls-2" d="M249.5,266.206a2,2,0,0,1,.732,2.732l-7,12.124a2,2,0,1,1-3.464-2l7-12.124A2,2,0,0,1,249.5,266.206Z" transform="translate(-224.5 -265.938)"/>
</svg>
