<svg id="_2.svg" data-name="2.svg" xmlns="http://www.w3.org/2000/svg" width="26" height="16.125" viewBox="0 0 26 16.125">
  <defs>
    <style>
      .cls-1 {
        fill: #ffc611;
      }

      .cls-1, .cls-2 {
        fill-rule: evenodd;
      }

      .cls-2 {
        fill: #96e706;
      }
    </style>
  </defs>
  <path id="圆角矩形_4" data-name="圆角矩形 4" class="cls-1" d="M517.5,266.206a2,2,0,0,1,.732,2.732l-7,12.124a2,2,0,1,1-3.464-2l7-12.124A2,2,0,0,1,517.5,266.206Z" transform="translate(-507.5 -265.938)"/>
  <path id="圆角矩形_4_拷贝" data-name="圆角矩形 4 拷贝" class="cls-2" d="M532.5,266.206a2,2,0,0,1,.732,2.732l-7,12.124a2,2,0,1,1-3.464-2l7-12.124A2,2,0,0,1,532.5,266.206Z" transform="translate(-507.5 -265.938)"/>
</svg>
