<svg id="实时资讯.svg" xmlns="http://www.w3.org/2000/svg" width="118" height="30" viewBox="0 0 118 30">
  <defs>
    <style>
      .cls-1 {
        fill: #ff9500;
      }

      .cls-2 {
        fill: #fefefe;
        fill-rule: evenodd;
      }
    </style>
  </defs>
  <rect id="圆角矩形_1" data-name="圆角矩形 1" class="cls-1" width="118" height="30" rx="15" ry="15"/>
  <path id="实时资讯" class="cls-2" d="M55.207,525.529l1.2-2.148a34,34,0,0,0-4.383-2.063l-1.2,1.977a28.972,28.972,0,0,1,4.383,2.234h0Zm-5.242-4.812H63.2v2.836h2.836v-5.329H58.816q-0.087-.257-0.258-0.773a8.03,8.03,0,0,1-.43-1.289l-3.523.344a5.245,5.245,0,0,1,.43.945q0.171,0.516.258,0.773H47.128v5.329h2.836v-2.836Zm6.531,7.562H53.488l1.2-1.976q-2.32-1.29-4.3-2.235l-1.2,1.977q1.718,0.947,3.953,2.234H46.7v2.492H55.55q-1.8,2.149-8.336,3.18a16.286,16.286,0,0,1,1.719,2.492,17,17,0,0,0,8.164-3.265q4.125,1.372,8.25,3.093l1.031-2.406q-3.867-1.459-7.82-2.75a0.494,0.494,0,0,0,.172-0.344h7.82v-2.492H59.417a49.2,49.2,0,0,0,.516-6.789H57.1a41.35,41.35,0,0,1-.6,6.789h0Zm18.219-1.2v4.039H72.05v-4.039h2.664Zm-2.664-2.664v-4.039h2.664v4.039H72.05Zm8.422,4.812a6.9,6.9,0,0,0,.6,1.032l2.492-1.633q-0.86-1.2-2.32-3.094-1.031-1.374-1.375-1.891L77.722,525.1q0.858,1.119,2.75,4.125h0Zm3.609-6.7V531.8a1.33,1.33,0,0,1-1.461,1.546q-0.6,0-1.8-.086H79.441a14.78,14.78,0,0,1,.6,2.407,1.437,1.437,0,0,1,.086.429q2.147,0,3.781-.086,3.094,0,3.094-3.351V522.521h1.719v-2.664H87V516.42H84.082v3.437H78.066v2.664h6.016ZM72.05,533.779h2.664v1.289h2.75V517.709H69.386v17.445H72.05v-1.375ZM93.964,520.8a18.97,18.97,0,0,1,1.8-2.235,32.175,32.175,0,0,0-3.266-2.32l-1.719,2.062a24.6,24.6,0,0,1,3.18,2.493h0Zm2.32,2.406q-0.431-.945-0.773-1.547-0.258-.687-0.43-1.031-1.031.689-3.352,1.976l-1.289.774,1.2,2.75q1.8-1.29,4.641-2.922h0Zm1.2,9.109q-1.978,1.118-6.961,1.461a19.178,19.178,0,0,1,1.375,2.578q6.445-.516,8.508-2.75,4.038,1.116,8.507,2.75l1.375-2.492q-5.155-1.632-.515-0.172-5.846-1.717-7.992-2.234a19.66,19.66,0,0,0,.6-2.321H99.378a3.773,3.773,0,0,1-1.891,3.18h0Zm3.437-15.3q0.171-.429.258-0.6l-2.75-.172a15.186,15.186,0,0,1-2.836,4.469,12.305,12.305,0,0,0,1.289.859q0.687,0.431.945,0.6,0.773-1.032,1.547-2.235H101.7q-0.69,3.267-6.36,4.039a12.531,12.531,0,0,0,.773,1.289,4.106,4.106,0,0,1,.516.86h-3.7v6.015h2.836v-3.523h9.8v3.265H108.4v-5.757H97.488q3.951-.687,5.586-3.266,1.8,2.666,6.445,3.352,0.516-1.032,1.2-2.493-4.641-.429-6.617-3.093c0.114-.286.2-0.516,0.258-0.688h3.008l-0.688,1.375,2.148,0.774,1.375-2.493v-1.976h-9.539a4.664,4.664,0,0,1,.258-0.6h0Zm14.524,4.641q1.547-1.032,2.664-1.633-1.29-1.889-2.578-3.7l-2.407,1.375a26.6,26.6,0,0,1,2.321,3.953h0Zm2.062,9.109a6.179,6.179,0,0,0-.6.43v-8.078h-4.469v2.664h1.719v6.875a1.883,1.883,0,0,1-.43,1.375l1.461,1.976q2.063-1.89,4.125-3.437-0.087-.258-0.258-0.773-0.258-1.2-.43-1.891-0.431.345-1.117,0.859h0Zm3.094-2.922v8.508h2.922v-8.508h2.836v-2.578h-2.836v-5.242h3.437v2.406q-0.085,7.563.086,9.024a9.984,9.984,0,0,0,1.031,3.781,2.154,2.154,0,0,0,1.891,1.031q1.374,0,2.149-1.89a19.173,19.173,0,0,0,.6-4.211,3.421,3.421,0,0,1-1.2-.516c-0.287-.114-0.487-0.2-0.6-0.258q-0.085,3.867-.515,3.953-0.516,0-.6-3.093V517.365H118.2v2.664h2.406v5.242h-2.75v2.578h2.75Z" transform="translate(-31 -511)"/>
</svg>
