<svg xmlns="http://www.w3.org/2000/svg" width="64.563" height="38.75" viewBox="0 0 64.563 38.75">
  <defs>
    <style>
      .cls-1 {
        fill: #ff9500;
        fill-rule: evenodd;
      }
    </style>
  </defs>
  <path id="抽奖_.svg" data-name="抽奖 .svg" class="cls-1" d="M719.064,80.514a1.483,1.483,0,0,0,0-2.967h0a1.484,1.484,0,1,1,0-2.967,1.484,1.484,0,0,0,0-2.967h0l-61.579.2a1.484,1.484,0,1,0,0,2.967h0a1.483,1.483,0,0,1,0,2.967,1.484,1.484,0,1,0,0,2.967h0a1.484,1.484,0,0,1,0,2.967,1.484,1.484,0,1,0,0,2.967h0a1.484,1.484,0,0,1,0,2.967,1.483,1.483,0,1,0,0,2.967h0a1.484,1.484,0,0,1,0,2.967,1.484,1.484,0,1,0,0,2.967h0a1.484,1.484,0,0,1,0,2.967,1.484,1.484,0,1,0,0,2.967h0a1.484,1.484,0,0,1,0,2.967,1.483,1.483,0,1,0,0,2.966h61.579a1.483,1.483,0,1,0,0-2.966h0a1.484,1.484,0,1,1,0-2.967,1.484,1.484,0,0,0,0-2.967h0a1.484,1.484,0,1,1,0-2.967,1.484,1.484,0,0,0,0-2.967h0a1.484,1.484,0,1,1,0-2.967,1.483,1.483,0,0,0,0-2.967h0a1.484,1.484,0,1,1,0-2.967,1.484,1.484,0,0,0,0-2.967h0A1.5,1.5,0,0,1,717.58,82.2,1.686,1.686,0,0,1,719.064,80.514Zm-38.137,3.574V79.864h-1.759v4.224H674.01V101.7h1.663v-1.2h8.819v1.176h1.664V84.088h-5.229Zm-5.254,8.832h3.5v5.9h-3.5v-5.9Zm8.819,0v5.9h-3.565v-5.9h3.565Zm-8.819-7.152h3.5v5.568h-3.5V85.768Zm8.819,0v5.568h-3.565V85.768h3.565ZM672.75,89.344q-1.166.672-2.425,1.3V85.888h2.33V84.232h-2.33V79.888H668.59v4.344h-3.043v1.656h3.043v5.5a30.626,30.626,0,0,1-3.3,1.08l0.428,1.728q1.378-.48,2.876-1.08V99.16a0.814,0.814,0,0,1-.951.888q-0.548,0-1.783-.1l0.357,1.68h2.02a1.826,1.826,0,0,0,2.092-2.04V92.344q0.808-.384,2.425-1.248V89.344Zm17.4,5.544h8.89q-1.832,3.672-9.461,5.3l0.713,1.608q8.034-1.872,10.221-6.1,2.068,4.3,9.936,6.024l0.69-1.608q-7.155-1.368-9.508-5.232h9.009v-1.68h-9.413a17.659,17.659,0,0,0,.118-2.016h-1.664a17.764,17.764,0,0,1-.142,2.016H690.15v1.68Zm6.346-9.072a35.676,35.676,0,0,1-6.632,2.664l0.69,1.584a36.614,36.614,0,0,0,5.942-2.5V91h1.759V79.936H696.5v5.88Zm-6.085-3.5a16.735,16.735,0,0,1,3.97,2.712l0.927-1.44a18.346,18.346,0,0,0-3.97-2.64Zm13.121-2.472a10.422,10.422,0,0,1-4.564,4.7l1.046,1.392a14.6,14.6,0,0,0,3.233-2.616h5.229a9.1,9.1,0,0,1-2.947,3.456,29.822,29.822,0,0,0-2.234-2.088l-1.189.888a23.591,23.591,0,0,1,2.187,1.992,21.949,21.949,0,0,1-4.754,1.8l0.832,1.512q8.034-2.232,9.817-7.68V81.736h-5.752a11.711,11.711,0,0,0,.831-1.68Z" transform="translate(-656 -71.625)"/>
</svg>
