<svg xmlns="http://www.w3.org/2000/svg" width="23.437" height="12.875" viewBox="0 0 23.437 12.875">
  <defs>
    <style>
      .cls-1 {
        fill: #ccc;
        fill-rule: evenodd;
      }
    </style>
  </defs>
  <path id="下.svg" class="cls-1" d="M697.806,733.479c0.03,0.015.056,0.039,0.087,0.051a1.51,1.51,0,0,0,1.688-.277l10.175-10.147a1.325,1.325,0,0,0-.057-1.949,1.526,1.526,0,0,0-2.067.054l-9.132,9.1-9.267-9.068a1.525,1.525,0,0,0-2.067-.036,1.325,1.325,0,0,0-.038,1.95L697.4,733.215c0.02,0.019.049,0.027,0.07,0.046s0.025,0.03.041,0.045a1.4,1.4,0,0,0,.292.173h0Z" transform="translate(-686.719 -720.781)"/>
</svg>
