<svg xmlns="http://www.w3.org/2000/svg" xmlns:xlink="http://www.w3.org/1999/xlink" width="373.83" height="358.01" viewBox="0 0 373.83 358.01"><defs><style>.cls-1,.cls-2,.cls-3{fill:none;}.cls-10,.cls-12,.cls-14,.cls-2,.cls-3,.cls-4,.cls-6{stroke:#ccc;}.cls-10,.cls-2,.cls-3{stroke-linecap:round;stroke-linejoin:round;}.cls-2{stroke-dasharray:4;}.cls-4,.cls-9{fill:#f2f2f2;}.cls-12,.cls-14,.cls-4,.cls-6{stroke-miterlimit:10;}.cls-5{fill:#e5e5e5;}.cls-6{fill:#e2e2e2;}.cls-7{fill:#d8d8d8;}.cls-8{clip-path:url(#clip-path);}.cls-10,.cls-12{fill:#fff;}.cls-11{fill:#e8e8e8;}.cls-13{fill:#dbdbdb;}.cls-14{fill:#ddd;}</style><clipPath id="clip-path"><circle class="cls-1" cx="189.01" cy="192.85" r="123.03"/></clipPath></defs><title>待开发</title><g id="图层_2" data-name="图层 2"><g id="图层_1-2" data-name="图层 1"><path class="cls-2" d="M57.81,127.14s-40.14,6.14-52.26,31c-4.79,8.14,15.07,16.73,17,7.53S8,157.27,1.23,176.06c-3.2,8.79,4.9,19.61,9.87,26.63"/><line class="cls-3" x1="361.9" y1="126.15" x2="373.33" y2="126.15"/><line class="cls-3" x1="367.61" y1="120.44" x2="367.61" y2="131.86"/><line class="cls-3" x1="214.01" y1="50.55" x2="221.07" y2="57.61"/><line class="cls-3" x1="221.07" y1="50.55" x2="214.01" y2="57.61"/><circle class="cls-4" cx="39.26" cy="175.99" r="2.98"/><circle class="cls-4" cx="189.01" cy="193.48" r="123.03"/><path class="cls-5" d="M254.64,90.64A122.56,122.56,0,0,1,110.17,288,122.55,122.55,0,1,0,254.64,90.64Z"/><circle class="cls-6" cx="154.21" cy="209.01" r="11.88"/><path class="cls-7" d="M144.72,210.67a11.25,11.25,0,0,1,18-9.06A11.26,11.26,0,1,0,147.45,218,11.21,11.21,0,0,1,144.72,210.67Z"/><circle class="cls-6" cx="236.31" cy="184.21" r="22.61"/><path class="cls-7" d="M217.53,187a22.09,22.09,0,0,1,34.58-18.22,22.09,22.09,0,1,0-28.35,33.58A22,22,0,0,1,217.53,187Z"/><path class="cls-4" d="M344.21,222.4a8,8,0,0,0-8,8h0a8,8,0,0,0-8-8h0a8,8,0,0,0,8-8h0a8,8,0,0,0,8,8Z"/><path class="cls-4" d="M99,306.87a8,8,0,0,0-8,8h0a8,8,0,0,0-8-8h0a8,8,0,0,0,8-8h0a8,8,0,0,0,8,8Z"/><path class="cls-4" d="M39.26,209a8,8,0,0,0-8,8h0a8,8,0,0,0-8-8h0a8,8,0,0,0,8-8h0a8,8,0,0,0,8,8Z"/><path class="cls-4" d="M369.92,192.85a8,8,0,0,0-8,8h0a8,8,0,0,0-8-8h0a8,8,0,0,0,8-8h0a8,8,0,0,0,8,8Z"/><circle class="cls-6" cx="176.37" cy="92.61" r="7.57"/><path class="cls-7" d="M171,94.23A6.94,6.94,0,0,1,182,88.55a6.95,6.95,0,1,0-9.68,9.68A6.91,6.91,0,0,1,171,94.23Z"/><path class="cls-6" d="M248.9,96.1a12.54,12.54,0,0,0,9-3.81,122.74,122.74,0,0,0-21.26-11.61A12.55,12.55,0,0,0,248.9,96.1Z"/><g class="cls-8"><circle class="cls-6" cx="168.66" cy="308.58" r="14.16"/><path class="cls-7" d="M170.39,319.09a14.17,14.17,0,0,1-13.54-18.32,14.16,14.16,0,1,0,25.35,12A14.14,14.14,0,0,1,170.39,319.09Z"/></g><ellipse class="cls-9" cx="199.99" cy="347.86" rx="87.94" ry="10.15"/><path class="cls-4" d="M131.26,124.76A32.45,32.45,0,0,1,94.79,152.6h0a32.45,32.45,0,0,1-27.84-36.48l9.44-70.3c2.38-17.76,17.54-21.47,35.3-19.09h0c17.76,2.38,31.48,9,29.1,26.72Z"/><path class="cls-4" d="M98.88,127.54l-.48-.06-24.15-3.24L66,185.7l20.25,2.72S95.48,135.73,98,132.26c1.52,4-3.47,57.27-3.47,57.27l20.25,2.72L123,130.79Z"/><path class="cls-10" d="M127.45,65.11l-20.07-2.69L87.32,59.72s-23.69,1.21-37.67,59.07l19.71,7.3s7.37-24.1,7.52-23.3-2.93,21.84-2.93,21.84L98.58,128h0l24.64,3.31s2.57-21.11,2.93-21.84,1.11,24.46,1.11,24.46L148.2,132C150,72.53,127.45,65.11,127.45,65.11Z"/><path class="cls-11" d="M123.49,127c.82-6.52,2.7-18.29,2.42-17.73-.35.72-4.88,18.35-4.88,18.35l-25.79-3.46h0L75,121.33l-.42,2.91,24.07,3.33h0L123,130.83S123.21,129.26,123.49,127Z"/><path class="cls-11" d="M70.44,120.63s5.79-17.14,5.64-17.93-8.51,20.08-8.51,20.08l-16.75-6.24c-.16.65-.33,1.31-.49,2L69,125.38s.61-2,1.48-4.81Z"/><path class="cls-11" d="M131.06,67.89c6.32,7.51,15,24.07,14,60.15l-17.29,1.66c.07,2.23.12,3.72.12,3.72l19.85-1.82C149,88.49,137.35,73.05,131.06,67.89Z"/><circle class="cls-4" cx="108.95" cy="50.73" r="23.81" transform="translate(44.17 151.96) rotate(-82.35)"/><circle class="cls-7" cx="108.95" cy="50.73" r="19.42" transform="matrix(0.13, -0.99, 0.99, 0.13, 44.18, 151.96)"/><circle class="cls-12" cx="107.64" cy="50.16" r="18.03" transform="translate(43.6 150.16) rotate(-82.35)"/><path class="cls-9" d="M101.73,49.59a1.22,1.22,0,0,1-1.37,1h0a1.22,1.22,0,0,1-1-1.37l.75-5.59a1.22,1.22,0,0,1,1.37-1h0a1.22,1.22,0,0,1,1,1.37Z"/><path class="cls-9" d="M97,47.87a.92.92,0,0,1-1,.79h0a.92.92,0,0,1-.79-1l.57-4.21a.92.92,0,0,1,1-.79h0a.92.92,0,0,1,.79,1Z"/><path class="cls-4" d="M85.33,190.24a5.79,5.79,0,0,1-6.51,5l-8.34-1.12a5.79,5.79,0,0,1-5-6.51h0a5.79,5.79,0,0,1,6.51-5l8.34,1.12a5.79,5.79,0,0,1,5,6.51Z"/><rect class="cls-4" x="97.25" y="103.14" width="2.46" height="48.59" transform="translate(-40.91 208.08) rotate(-82.35)"/><rect class="cls-9" x="107.28" y="94.37" width="12.52" height="12.9" transform="translate(-1.51 199.93) rotate(-82.35)"/><rect class="cls-9" x="114.34" y="76.74" width="3.13" height="12.9" transform="translate(18.02 187) rotate(-82.35)"/><rect class="cls-13" x="89.44" y="75.19" width="6.26" height="12.9" transform="translate(-0.67 162.51) rotate(-82.35)"/><rect class="cls-9" x="90.06" y="80.08" width="3.7" height="12.9" transform="translate(-6.07 166.12) rotate(-82.36)"/><path class="cls-9" d="M133.84,71.69s-4.1,4.93,0,8.29,5.54.75,5.54.75S135.54,73.6,133.84,71.69Z"/><path class="cls-4" d="M53.35,118.74s-2.21,6-1.08,8,9.39,8.25,12.2,3.74,1.49-4.68.63-4.7-.09-2.88-.09-2.88Z"/><path class="cls-4" d="M143.76,131s.56,6.34-1.08,8-11.23,5.48-12.75.39-.2-4.91.63-4.7.85-2.75.85-2.75Z"/><rect class="cls-4" x="78.94" y="149.72" width="3.06" height="20.25" transform="translate(-88.66 218.32) rotate(-82.35)"/><rect class="cls-4" x="105.8" y="153.27" width="3.06" height="20.21" transform="translate(-68.88 248) rotate(-82.35)"/><path class="cls-4" d="M114.16,193.58a5.79,5.79,0,0,1-6.51,5l-8.34-1.12a5.79,5.79,0,0,1-5-6.51h0a5.79,5.79,0,0,1,6.51-5l8.33,1.12a5.79,5.79,0,0,1,5,6.51Z"/><path class="cls-4" d="M348,142.51c-5.4-13.57-26.77-19.67-57.1-18.09q2.53,3.73,4.78,7.65c19.22-.21,32.22,4.11,35.62,12.66,8.56,21.52-46.82,63.77-123.71,94.36S61.48,277,52.91,255.53c-3.33-8.38,3-19.9,16.58-32.66-.7-2.86-1.3-5.75-1.8-8.68-22.27,19.29-33.29,37.7-28,51,11.06,27.8,89.05,22.87,174.2-11S359.1,170.31,348,142.51Z"/><rect class="cls-4" x="285.43" y="29.4" width="3.86" height="16.34" transform="translate(57.6 214.2) rotate(-45)"/><polygon class="cls-4" points="277.4 37.25 240.65 0.5 259.93 0.5 296.68 37.25 277.4 37.25"/><path class="cls-4" d="M328.73,16.85a1.93,1.93,0,1,1,2.73,2.73l-11,11-2.73-2.73Z"/><path class="cls-4" d="M266.64,78.94l11-11,2.73,2.73-11,11a1.93,1.93,0,0,1-2.73-2.73Z"/><polygon class="cls-4" points="275.39 49.26 299.05 25.61 310.87 37.43 302.69 52.9 287.22 61.09 275.39 49.26"/><rect class="cls-14" x="288.24" y="46.81" width="33.45" height="16.72" transform="translate(50.31 231.8) rotate(-45)"/><path class="cls-4" d="M334.52,37.43a16.72,16.72,0,0,1-23.65-23.65Z"/><path class="cls-12" d="M287.22,84.74a16.72,16.72,0,0,0-23.65-23.65Z"/><path class="cls-4" d="M303.59,53.81a1.93,1.93,0,0,1,2.73,0l11.55,11.55-2.73,2.73L303.59,56.54A1.93,1.93,0,0,1,303.59,53.81Z"/><polygon class="cls-4" points="338.16 98.02 301.41 61.27 320.7 61.27 357.45 98.02 338.16 98.02"/><circle class="cls-4" cx="266.64" cy="81.67" r="4.25"/></g></g></svg>