<svg xmlns="http://www.w3.org/2000/svg" width="16" height="27" viewBox="0 0 16 27">
  <defs>
    <style>
      .cls-1 {
        fill-rule: evenodd;
      }
    </style>
  </defs>
  <path id="右箭头.svg" class="cls-1" d="M574.76,207.227c0.019-.035.048-0.064,0.064-0.1a1.645,1.645,0,0,0-.344-1.944l-12.593-11.722a1.731,1.731,0,0,0-2.419.066,1.666,1.666,0,0,0,.067,2.381l11.3,10.52L559.58,217.1a1.666,1.666,0,0,0-.045,2.382,1.731,1.731,0,0,0,2.42.043l12.478-11.836c0.024-.024.033-0.056,0.057-0.081s0.038-.029.056-0.047a1.559,1.559,0,0,0,.214-0.337h0Z" transform="translate(-559 -193)"/>
</svg>
