<svg xmlns="http://www.w3.org/2000/svg" width="300" height="62" viewBox="0 0 300 62"><defs><style>.cls-1{fill:#ed304e;}.cls-2{fill:#fff;}.cls-3{fill:#fc6368;fill-rule:evenodd;}</style></defs><title>资源 12</title><g id="图层_2" data-name="图层 2"><g id="图层_1-2" data-name="图层 1"><rect class="cls-1" width="300" height="62" rx="31" ry="31"/><path class="cls-2" d="M68.14,32.12l1.63-.51q1.12-.3,1.63-.41V25.62H68.45V24h2.95V19.22h1.83V24h2.95v1.63H73.22v5q1.42-.51,2.74-.91v1.93a3.08,3.08,0,0,1-.61.2q-1.32.41-2.13.71v7.31q.2,2.94-2.74,2.95H68.65a8.78,8.78,0,0,0-.2-1.62,1.65,1.65,0,0,1-.1-.51,8.06,8.06,0,0,0,1.93.2q1.22.1,1.12-1v-6.7l-2.95,1Zm14.93-13H85V24h6.2V42.78H89.47V41.56H78.6v1.22H76.78V24h6.3Zm-4.47,6.5v6.09h4.47V25.62Zm0,7.72v6.8h4.47v-6.8Zm10.87-7.72H85v6.09h4.47ZM85,33.34v6.8h4.47v-6.8Z"/><path class="cls-2" d="M100.64,19.12h1.93v14h-1.93V28.05q-1.12.61-3.66,1.83-1.32.71-2,1L94.24,29q3.55-1.42,6.4-2.84Zm18,21.84a17.59,17.59,0,0,0-1,1.93q-8.33-1.52-11.07-6.2-2.13,4.67-11.37,6.4a.8.8,0,0,0-.1-.3c-.34-.61-.61-1.08-.81-1.42Q103,39.94,104.81,36H94.75V34.25h10.77a15.43,15.43,0,0,0,.3-1.52h1.93a7.33,7.33,0,0,1-.41,1.52h10.87V36H108Q110.9,40.14,118.62,41ZM95.06,21.76l1.22-1.12a36.83,36.83,0,0,1,3.55,3.66l-1.42,1.22Q97,23.89,95.06,21.76Zm8.23,4.16a18.38,18.38,0,0,0,5.08-7l1.93.41q-.61,1.22-1.22,2.23h8.23v1.52q-2.84,6.81-12.59,9.14-.41-.81-.91-1.73,8.43-1.83,11.48-7.21h-7.21a7.58,7.58,0,0,1-.71.81,24.94,24.94,0,0,1,3.25,2.74l-1.32,1.22a36.08,36.08,0,0,0-2.95-2.64q-.81.91-1.73,1.83l-.91-.91Z"/><path class="cls-2" d="M125.32,29.68q1.22.81,1.93,1.32-1.73,2.84-5.18,9.55l-1.93-1.22A71,71,0,0,0,125.32,29.68Zm-2.84-9.24q2,2.44,4.27,5.38l-1.62,1.42q-2.24-3.35-4.16-5.69Zm13.61,5.89v1.12c-.07.61-.1,1.05-.1,1.32q1.62,8.43,8.73,12.09-1,1.22-1.62,2-6.5-4.57-7.92-10.66-1.12,6.6-8.84,11-.51-.71-1.32-1.73,8.33-4.16,9-13.1v-2Zm3.15,3.25a35.87,35.87,0,0,0,2-4.47h-9.65q-.51,1.22-1.73,3.55l-.61,1.22a7.76,7.76,0,0,0-1.83-1.12,39.85,39.85,0,0,0,4.27-9.65l2,.51a35.84,35.84,0,0,1-1.42,3.76H143.4v1.73a37.72,37.72,0,0,1-2.23,5.18A4.63,4.63,0,0,0,139.24,29.58Z"/><path class="cls-2" d="M146.45,33.13h3.76a11,11,0,0,0,.71-1.12l.3-.61,1.83.41-.81,1.32h6.2A7.59,7.59,0,0,1,155.49,39a8,8,0,0,1,.91.41,7.32,7.32,0,0,0,1.83.71l-1.12,1.52a17.54,17.54,0,0,1-1.62-.81,13,13,0,0,0-1.62-.71A23.07,23.07,0,0,1,147,43a4.8,4.8,0,0,0-.61-1l-.3-.61a32.27,32.27,0,0,0,6.09-2q-1.22-.61-4-1.83,1.93.81-.51-.2a27.78,27.78,0,0,0,1.63-2.54h-2.84Zm6.09-13.91h1.73V24.7h5.08v1.63h-5.08v2.23l.91-1a41.8,41.8,0,0,1,3.66,2.54l-1.12,1.32q-.3-.2-.81-.61-1.52-1.32-2.64-2.13V31.2h-1.73V27.65a19.55,19.55,0,0,1-5.28,4.27,7.21,7.21,0,0,0-1-1.42,19.35,19.35,0,0,0,5.69-4.16h-5.18V24.7h5.79Zm-5.28,1.93,1.22-1q1.32,1.22,2.84,2.74L149.9,24Q149.09,23,147.26,21.15ZM150,36.69q1.83.71,3.76,1.63a5.92,5.92,0,0,0,2.64-3.55h-5.18a5.43,5.43,0,0,1-.61.91Q150.2,36.38,150,36.69Zm8.23-16.55,1.22,1.22q-1.22,1.22-3,2.74l-1.22-1.22A37.1,37.1,0,0,0,158.23,20.13ZM162.49,19l1.83.2a24.21,24.21,0,0,1-1.22,4.47h7.41v1.73H169q-.71,7.31-3.35,11.48a15.75,15.75,0,0,0,5.28,4.27,6.85,6.85,0,0,0-1.32,1.73,21.89,21.89,0,0,1-5.08-4.37,28.83,28.83,0,0,1-5.38,4.77c-.34-.41-.44-.54-.3-.41-.61-.75-.95-1.15-1-1.22a19.57,19.57,0,0,0,5.59-4.87A21.11,21.11,0,0,1,160.87,29q-.51.91-1.12,1.83a11.8,11.8,0,0,0-.81-1.12c-.2-.27-.34-.44-.41-.51A25.56,25.56,0,0,0,162.49,19Zm2,16q1.93-3.15,2.54-9.65h-4.57c-.07.2-.17.47-.3.81A27,27,0,0,0,164.53,35.06Z"/><path class="cls-2" d="M174.78,25.41h2.13v4h14.63V22.47H174.17V20.64h19.4V31.2H176.92v6.5q-.21,2.44,2.54,2.34h11.27q2.84.1,3.15-2.23.3-1.73.51-3.25a20.07,20.07,0,0,1,2.13.71,6.3,6.3,0,0,0-.2,1q-.3,1.42-.41,2-.61,3.76-4.77,3.66h-12q-4.47.1-4.37-3.86Z"/><path class="cls-2" d="M212,42.68H210V35h-7.21a15.59,15.59,0,0,1-2.95,8.33l-.3-.3a8.13,8.13,0,0,0-1.22-1.32,10.71,10.71,0,0,0,2.23-4.77,49.38,49.38,0,0,0,.51-8.53V20.44h20v19.2q.2,3.15-3.55,3.15-1.52.1-2.95.1a1.72,1.72,0,0,0-.1-.41,8.1,8.1,0,0,0-.3-1.73h1.42c.81.07,1.42.1,1.83.1q1.93.1,1.83-1.62V35H212ZM203,28.56q0,2.74-.1,4.67H210V28.56Zm0-6.3v4.57h7V22.27Zm16.25,0H212v4.57h7.31ZM212,28.56v4.67h7.31V28.56Z"/><path class="cls-2" d="M225,32.22H248v1.73h-7.92V39q-.1,1.73,2,1.63h2.13q1.83,0,2-1.22a20.9,20.9,0,0,0,.2-2.95q1.73.61,2.13.71v.2a18.54,18.54,0,0,1-.41,2.64q-.3,2.54-3.86,2.44h-2.64q-3.76.1-3.66-3.15V33.95h-4.37q.2,6.5-8.12,9l-1.22-1.73q7.62-1.73,7.41-7.31H225Zm9.75-12.8,1.83-.71a6.57,6.57,0,0,0,.51,1.22q.51,1.12.71,1.73l-1.32.41h11.27v4.57h-1.93V23.79H227.09v2.84h-1.93V22.06h10.66a10.76,10.76,0,0,1-.51-1.32Q234.91,19.93,234.71,19.42ZM228,27.14h17.27v1.73H228Z"/><path class="cls-3" d="M45.68,43.09H37.24a1.81,1.81,0,0,1-1.86-1.75v-6h10.3v7.7Zm2.2-18.44a2,2,0,0,0,.45,0,5.52,5.52,0,0,0,3.2-1.28,2.41,2.41,0,0,0,.92-1.68.69.69,0,0,0-.23-.58,1.35,1.35,0,0,0-.86-.25,3.34,3.34,0,0,0-2.11.86,3.6,3.6,0,0,0-1.37,2.89ZM43.8,21.76a3.34,3.34,0,0,0-2.11-.86,1.36,1.36,0,0,0-.86.25.69.69,0,0,0-.23.58,2.42,2.42,0,0,0,.92,1.68,5.51,5.51,0,0,0,3.2,1.28,1,1,0,0,0,.47-.07,3.72,3.72,0,0,0-1.4-2.86Zm3.91,4.61a3.26,3.26,0,0,1-1.14-.44l0,0,0,0a1.76,1.76,0,0,1-.8.44v7.1H35.38V27.35a1.81,1.81,0,0,1,1.86-1.75h4.31a6.93,6.93,0,0,1-1.32-.89c-1.73-1.51-2-3.69-.7-4.87a3.23,3.23,0,0,1,2.15-.73,5.31,5.31,0,0,1,3.41,1.34,6.47,6.47,0,0,1,1.43,1.86A6.43,6.43,0,0,1,48,20.46a5.3,5.3,0,0,1,3.41-1.34,3.23,3.23,0,0,1,2.15.73c1.34,1.18,1,3.36-.7,4.87a6.92,6.92,0,0,1-1.32.89h4.14a1.81,1.81,0,0,1,1.86,1.75v6.12H47.71v-7.1Zm7.93,16.71H47.71v-7.7H57.5v6a1.81,1.81,0,0,1-1.86,1.75Z"/></g></g></svg>