<svg xmlns="http://www.w3.org/2000/svg" width="40.39" height="43" viewBox="0 0 40.39 43"><defs><style>.cls-1{fill:#f15a4a;fill-rule:evenodd;}</style></defs><title>资源 21</title><g id="图层_2" data-name="图层 2"><g id="图层_1-2" data-name="图层 1"><path class="cls-1" d="M36.88,43H3.51A3.51,3.51,0,0,1,0,39.49V15a3.51,3.51,0,0,1,3.51-3.51H7L7,11.39l10.64-9.2A2.63,2.63,0,0,1,20.07.07L20.14,0l.05.05h.11a2.62,2.62,0,0,1,2.48,2.14l10.59,9.15-.09.09h3.61A3.51,3.51,0,0,1,40.39,15V39.49A3.51,3.51,0,0,1,36.88,43ZM21.77,4.78a2.59,2.59,0,0,1-3.15,0l-7.7,6.66H29.49L21.77,4.78ZM37.76,15a.88.88,0,0,0-.88-.88H3.51a.88.88,0,0,0-.88.88V39.49a.88.88,0,0,0,.88.88H36.88a.88.88,0,0,0,.88-.88V15ZM31.61,35.11H8.78a.88.88,0,0,1-.88-.88v-.88a.88.88,0,0,1,.88-.88H31.61a.88.88,0,0,1,.88.88v.88a.88.88,0,0,1-.88.88Zm0-6.14H8.78a.88.88,0,0,1-.88-.88v-.88a.88.88,0,0,1,.88-.88H31.61a.88.88,0,0,1,.88.88v.88a.88.88,0,0,1-.88.88ZM21.08,22H8.78a.88.88,0,0,1-.88-.88v-.88a.88.88,0,0,1,.88-.88H21.08a.88.88,0,0,1,.88.88v.88a.88.88,0,0,1-.88.88Z"/></g></g></svg>