<svg xmlns="http://www.w3.org/2000/svg" width="42" height="43" viewBox="0 0 42 43"><defs><style>.cls-1{fill:#2392e2;}</style></defs><title>B3</title><g id="图层_2" data-name="图层 2"><g id="图层_1-2" data-name="图层 1"><path class="cls-1" d="M36.11,43H5.89C2.08,43,0,40.58,0,37.16V5.6C0,2.42,1.66,0,5.59,0H9.1c.77,0,1.07.47,1.07,1.24S9.67,2.77,9.1,2.77H5.59A2.64,2.64,0,0,0,2.8,5.54V37.45c0,1.65,1.84,2.77,3.51,2.77h30.1a2.64,2.64,0,0,0,2.8-2.77V5.54a2.64,2.64,0,0,0-2.8-2.77h-2.8a1.77,1.77,0,0,1-1.67-1.53c0-.77.89-1.24,1.67-1.24h2.8A5.24,5.24,0,0,1,42,5.6V37.16C42,41,39.92,43,36.11,43Z"/><path class="cls-1" d="M31.53,15.59h-21a1.42,1.42,0,1,1,0-2.83h21a1.42,1.42,0,1,1,0,2.83Z"/><path class="cls-1" d="M27.14,23.26H10.25a1.45,1.45,0,0,1,0-2.83H27.09a1.35,1.35,0,0,1,1.2,1.42,1.32,1.32,0,0,1-1.15,1.41Z"/><path class="cls-1" d="M31.53,31.58h-21a1.42,1.42,0,1,1,0-2.83H31.47A1.49,1.49,0,0,1,33,30.17a1.44,1.44,0,0,1-1.43,1.41Z"/><path class="cls-1" d="M26.59,2.84H15.47A1.43,1.43,0,0,1,14,1.42,1.43,1.43,0,0,1,15.47,0H26.59A1.43,1.43,0,0,1,28,1.42a1.43,1.43,0,0,1-1.43,1.42Z"/><circle class="cls-1" cx="31.54" cy="21.85" r="1.42"/></g></g></svg>