<?xml version="1.0" encoding="utf-8"?>
<!-- Generator: Adobe Illustrator 21.0.2, SVG Export Plug-In . SVG Version: 6.00 Build 0)  -->
<svg version="1.1" id="图层_1" xmlns="http://www.w3.org/2000/svg" xmlns:xlink="http://www.w3.org/1999/xlink" x="0px" y="0px"
	 width="59px" height="59px" viewBox="0 0 59 59" style="enable-background:new 0 0 59 59;" xml:space="preserve">
<style type="text/css">
	.st0{fill:#FF9500;}
</style>
<path id="选中.svg" class="st0" d="M29.5,0C13.2,0,0,13.2,0,29.5S13.2,59,29.5,59S59,45.8,59,29.5l0,0C59,13.2,45.8,0,29.5,0
	L29.5,0z M43.7,24.6L26.8,41.8c0,0,0,0,0,0c0,0,0,0,0,0c-0.1,0.1-0.3,0.2-0.5,0.3c-0.1,0.1-0.1,0.1-0.2,0.1
	c-0.3,0.1-0.5,0.2-0.8,0.2c-0.3,0-0.5-0.1-0.8-0.2c-0.1,0-0.2-0.1-0.2-0.2c-0.2-0.1-0.3-0.2-0.5-0.3c0,0,0,0,0,0c0,0,0,0,0,0
	l-8.3-8.6c-0.8-0.9-0.8-2.2,0.1-3c0.8-0.8,2.1-0.8,2.9,0l6.8,7l15.4-15.6c0.8-0.8,2.1-0.9,3-0.1C44.6,22.4,44.6,23.8,43.7,24.6
	C43.8,24.6,43.8,24.6,43.7,24.6L43.7,24.6L43.7,24.6z"/>
</svg>
