<svg xmlns="http://www.w3.org/2000/svg" width="301.55" height="260.72" viewBox="0 0 301.55 260.72"><defs><style>.cls-1{fill:#ffe3c7;}.cls-2{fill:#d3c5be;}.cls-3{fill:#fff6ee;}.cls-4{fill:#fb8;}.cls-5{fill:#f4d7bd;}.cls-6{fill:#ffb564;}.cls-7{fill:#7a7a7a;}.cls-8{fill:#ffe9d4;}.cls-9{fill:#f4d9c3;}.cls-10{fill:#f9caaa;}.cls-11{fill:#f2a35c;}.cls-12{fill:#fdffff;}.cls-13{fill:#7dead5;}.cls-14{fill:#f9f9f9;}</style></defs><title>订单</title><g id="图层_2" data-name="图层 2"><g id="图层_1-2" data-name="图层 1"><polygon class="cls-1" points="12.87 213.51 68.45 155.93 68.45 177.39 12.87 239.9 12.87 213.51"/><polygon class="cls-2" points="12.87 239.9 67.37 177.39 226.75 177.39 281.24 239.9 12.87 239.9"/><ellipse class="cls-3" cx="150.77" cy="243.31" rx="150.77" ry="17.41"/><polygon class="cls-1" points="281.24 214.46 226.75 155.93 226.75 177.39 281.24 239.9 281.24 214.46"/><polygon class="cls-4" points="281.24 239.9 12.87 239.9 12.87 213.51 281.24 214.46 281.24 239.9"/><rect class="cls-5" x="68.45" y="155.93" width="162.55" height="21.47"/><polygon class="cls-6" points="177.04 210.35 206.1 204.13 177.04 197.91 174.14 204.13 177.04 210.35"/><polygon class="cls-6" points="177.04 210.35 206.1 204.13 174.14 204.13 177.04 210.35"/><path class="cls-7" d="M194.48,206.62h4.36c.33,0,7.26-2.12,7.26-2.49s-6.71-2.49-7.26-2.49h-4.36Z"/><polygon class="cls-8" points="69.54 210.35 177.04 210.35 177.04 197.91 69.54 197.91 69.54 204.13 69.54 210.35"/><rect class="cls-9" x="69.54" y="204.13" width="107.51" height="6.22"/><rect class="cls-10" x="165.42" y="197.91" width="11.62" height="12.44"/><rect class="cls-4" x="165.42" y="204.13" width="11.62" height="6.22"/><rect class="cls-10" x="81.16" y="197.91" width="11.62" height="12.44"/><rect class="cls-4" x="81.16" y="204.13" width="11.62" height="6.22"/><path class="cls-6" d="M175.1,6.61H161.89v9.89H132.21V6.61H69.54v184.7h155V6.61Zm0,0"/><rect class="cls-11" x="132.21" width="29.68" height="16.49"/><path class="cls-12" d="M185,16.49v9.89H109.13V16.49H79.43V181.42H214.67V16.49Zm0,0"/><path class="cls-13" d="M161.89,6.61v9.89H132.21V6.61H109.13V26.38H185V6.61Zm0,0"/><polygon class="cls-14" points="214.67 181.42 214.67 16.49 213.2 16.49 79.56 181.42 214.67 181.42"/><path class="cls-8" d="M142.11,52.78H99.22a3.3,3.3,0,1,1,0-6.61h42.89a3.3,3.3,0,0,1,0,6.61Zm0,0"/><path class="cls-8" d="M142.11,155H99.22a3.3,3.3,0,1,1,0-6.61h42.89a3.3,3.3,0,0,1,0,6.61Zm0,0"/><path class="cls-8" d="M194.87,72.58H99.22a3.3,3.3,0,1,1,0-6.61h95.65a3.3,3.3,0,1,1,0,6.61Zm0,0"/><path class="cls-8" d="M194.87,112.15H99.22a3.29,3.29,0,1,1,0-6.58h95.65a3.29,3.29,0,1,1,0,6.58Zm0,0"/><path class="cls-8" d="M194.87,135.24H99.22a3.3,3.3,0,1,1,0-6.61h95.65a3.3,3.3,0,1,1,0,6.61Zm0,0"/><path class="cls-8" d="M145.4,92.35H99.22a3.29,3.29,0,1,1,0-6.58H145.4a3.29,3.29,0,1,1,0,6.58Zm0,0"/><path class="cls-8" d="M194.87,92.35H171.8a3.29,3.29,0,1,1,0-6.58h23.08a3.29,3.29,0,1,1,0,6.58Zm0,0"/><path class="cls-8" d="M158.61,92.35a3.27,3.27,0,0,1-2.35-.95,3.45,3.45,0,0,1-.95-2.33,3.27,3.27,0,0,1,.95-2.35,3.42,3.42,0,0,1,4.69,0,3.27,3.27,0,0,1,.95,2.35,3.24,3.24,0,0,1-3.28,3.28Zm0,0"/></g></g></svg>