<svg xmlns="http://www.w3.org/2000/svg" width="51.531" height="63.906" viewBox="0 0 51.531 63.906">
  <defs>
    <style>
      .cls-1 {
        fill: #ffe9a5;
        fill-rule: evenodd;
      }
    </style>
  </defs>
  <path id="熊猫脚印.svg" class="cls-1" d="M634.043,202.172s0.606-13.983,16.718-23.507c6.765-4,14.663-2.791,21.065,1.34,8.19,5.286,10.041,10.557,12.174,19,0.811,3.208,1.541,9.862-.131,12.9-3.292,5.973-9.928,7.376-15.707,4.681-7.963-4.307-7.853-6.608-17.738-1.34C644.208,218.751,630.024,215.662,634.043,202.172Zm26.932-48.1c3.272,0.657,5.487,5.412,4.947,10.618s-3.631,8.9-6.9,8.237-5.487-5.411-4.947-10.617S657.7,153.415,660.975,154.072Zm20.838,5.751c2.914,1.627,3.568,6.831,1.461,11.622s-6.179,7.357-9.093,5.73-3.568-6.831-1.46-11.622S678.9,158.2,681.813,159.823Zm-44.126-.323c-2.914,1.593-3.568,6.691-1.461,11.385s6.178,7.207,9.092,5.613,3.568-6.691,1.461-11.385S640.6,157.905,637.687,159.5Z" transform="translate(-633.344 -153.969)"/>
</svg>
