<?xml version="1.0" encoding="utf-8"?>
<!-- Generator: Adobe Illustrator 21.0.2, SVG Export Plug-In . SVG Version: 6.00 Build 0)  -->
<svg version="1.1" id="图层_1" xmlns="http://www.w3.org/2000/svg" xmlns:xlink="http://www.w3.org/1999/xlink" x="0px" y="0px"
	 width="34px" height="33.8px" viewBox="0 0 34 33.8" style="enable-background:new 0 0 34 33.8;" xml:space="preserve">
<style type="text/css">
	.st0{fill:#FF9500;}
</style>
<path id="选中.svg" class="st0" d="M17,0C7.7,0,0.1,7.6,0.2,17c0,9.3,7.7,16.9,17,16.8c9.3,0,16.9-7.6,16.8-16.9
	C34,7.5,26.4,0,17,0L17,0z M25.2,14.1L15.4,24c0,0,0,0,0,0s0,0,0,0c-0.1,0.1-0.2,0.1-0.3,0.2c0,0-0.1,0.1-0.1,0.1
	c-0.1,0.1-0.3,0.1-0.5,0.1c-0.2,0-0.3,0-0.5-0.1c0,0-0.1-0.1-0.1-0.1c-0.1,0-0.2-0.1-0.3-0.2c0,0,0,0,0,0s0,0,0,0L8.9,19
	c-0.5-0.5-0.5-1.3,0-1.7c0.5-0.5,1.3-0.5,1.7,0l0,0l3.9,4l8.9-9c0.5-0.5,1.2-0.5,1.7,0C25.7,12.9,25.7,13.6,25.2,14.1
	C25.2,14.1,25.2,14.1,25.2,14.1L25.2,14.1L25.2,14.1z"/>
</svg>
