<svg xmlns="http://www.w3.org/2000/svg" width="90" height="90" viewBox="0 0 90 90">
  <defs>
    <style>
      .cls-1 {
        fill: #ff9500;
        fill-rule: evenodd;
      }
    </style>
  </defs>
  <path id="che.svg" class="cls-1" d="M85.639,235.579A90.138,90.138,0,0,0,75,234.855a86.753,86.753,0,0,0-10.638.724c-6.282.8-5.766,0.708-8.531,3.616-2.046,2.139.922,4.831,3.2,5.123,2.234,0.277,11.593.37,15.967,0.37s13.732-.078,15.967-0.37c2.281-.293,5.25-2.985,3.2-5.123-2.765-2.909-2.249-2.817-8.531-3.616h0Zm-37.277-7.633c-4.89-1.353-7.5-1.6-10.2-1.477a11.8,11.8,0,0,0,0,4.048c0.405,1.676,1.139,1.569,2.39,1.953a6.937,6.937,0,0,0,2.5.57A5.517,5.517,0,0,1,45,232.393c0.813,0.031,4.61.662,6.015,0.662,1.407,0.016,2.078-.585,3.2-0.862a9.2,9.2,0,0,1,1.749-.292,19.159,19.159,0,0,0-7.608-3.955h0Zm0.921-8.953c2.531-.185,18.327-0.385,25.748-0.385,7.436,0,23.231.2,25.747,0.385,2.531,0.2,2.157-.031,2.345-0.492s-0.813-3.846-1.563-5.57-2.688-4.847-4.094-5.8c-0.249-.169-2.609-0.876-8.421-1.261-5.358-.354-11.279-0.492-14.029-0.492s-8.67.138-14.03,0.492c-5.827.385-8.155,1.108-8.421,1.261-1.093.616-3.343,4.078-4.092,5.8s-1.751,5.109-1.532,5.57c0.187,0.461-.188.677,2.342,0.492h0Zm52.356,8.984a18.783,18.783,0,0,0-7.609,3.955,8.209,8.209,0,0,1,1.749.276c1.126,0.278,1.8.863,3.2,0.863s5.2-.632,6.015-0.662a6.183,6.183,0,0,1,1.953.646,7.3,7.3,0,0,0,2.5-.568c1.25-.385,1.969-0.293,2.391-1.955a11.691,11.691,0,0,0,0-4.031c-2.7-.123-5.311.122-10.2,1.476h0ZM102.072,185H47.928A17.928,17.928,0,0,0,30,202.928v54.144A17.928,17.928,0,0,0,47.928,275h54.144A17.928,17.928,0,0,0,120,257.072V202.928A17.928,17.928,0,0,0,102.072,185h0ZM46.488,254.671c-0.2,2.324-1.266,2.4-1.688,2.4H38.083a2.92,2.92,0,0,1-1.563-.275c-0.563-.325-0.782-1.386-0.984-3.186-0.032-.262-0.048-0.6-0.063-1V252.6c0-.123-0.016-0.278-0.016-0.446v-0.171c0.015-.413.015-0.875,0.015-1.245a6.023,6.023,0,0,0,.484,1.722c0.422,0.847.827,0.924,2.422,0.847,2.062-.092,5.016,0,8.14.124,0,0.845-.031,1.245-0.031,1.245h0Zm68.025-2.522c0,0.168-.016.323-0.016,0.446v0.014c-0.017.4-.031,0.739-0.062,1-0.2,1.8-.438,2.832-0.985,3.186a2.836,2.836,0,0,1-1.562.275h-6.719c-0.42,0-1.483-.076-1.687-2.4,0,0-.031-0.4-0.031-1.245,3.124-.124,6.077-0.216,8.14-0.124,1.593,0.077,2,0,2.422-.846a6.065,6.065,0,0,0,.483-1.722c0.016,0.369.016,0.831,0.017,1.245v0.17h0Zm0.109-5.447a19.436,19.436,0,0,1-.141,2.8,6.039,6.039,0,0,1-.484,1.723c-0.422.846-.813,0.923-2.422,0.846-2.047-.093-5.046.015-8.124,0.123-2.062.077-4.172,0.169-6.047,0.2-4.686.092-3.312-.678-5.311-0.646S82.2,252.1,74.984,252.1s-15.107-.324-17.107-0.354-0.624.739-5.311,0.646c-1.875-.047-3.984-0.124-6.045-0.2-3.079-.123-6.063-0.217-8.125-0.123-1.611.077-2,0-2.422-.846a5.6,5.6,0,0,1-.485-1.723,21.817,21.817,0,0,1-.14-2.8c0-1.507-.344-5.754-0.344-10.477a47.271,47.271,0,0,1,.875-9.847c0.172-.37,1.391-1.323,4.125-3.17,2.767-1.862,2.689-1.584,3.2-2.8-0.436-.139-0.89-0.4-1.155-0.432-0.594-.06-0.624.493-1.859,0.493s-3.905-.324-4.453-0.861a1.512,1.512,0,0,1-.719-1.2,3.614,3.614,0,0,1,.812-2.046c0.532-.585,2.8-0.861,4.125-1.047s1.516,0,1.86.216c0.562,0.338.578,3.43,0.578,3.43l1.3,0.032c0.844-2.047,2.014-6.17,3.843-9.417,2-3.538,4.109-4.661,4.968-4.923s1.639-.432,7.5-1.032a143.906,143.906,0,0,1,15-.692,139.851,139.851,0,0,1,15,.692c5.859,0.585,6.639.771,7.5,1.032,0.875,0.276,2.968,1.385,4.968,4.923,1.827,3.247,3,7.37,3.842,9.417l1.3-.032s0.031-3.092.578-3.43c0.343-.216.53-0.385,1.858-0.216s3.593,0.462,4.125,1.047a3.612,3.612,0,0,1,.813,2.046,1.531,1.531,0,0,1-.72,1.2c-0.547.538-3.218,0.861-4.452,0.861s-1.266-.553-1.859-0.493c-0.266.032-.7,0.293-1.155,0.432,0.5,1.214.437,0.937,3.2,2.8,2.734,1.831,3.938,2.8,4.124,3.17a47.251,47.251,0,0,1,.875,9.847c0,4.723-.344,8.985-0.374,10.477h0Z" transform="translate(-30 -185)"/>
</svg>
