<svg xmlns="http://www.w3.org/2000/svg" width="48" height="48" viewBox="0 0 48 48"><defs><style>.cls-1{fill:#fff0db;}.cls-2{fill:#ff9500;}</style></defs><title>chepai</title><g id="图层_2" data-name="图层 2"><g id="图层_1-2" data-name="图层 1"><rect class="cls-1" x="0.5" y="0.5" width="47" height="47" rx="3.5" ry="3.5"/><path class="cls-2" d="M44,1a3,3,0,0,1,3,3V44a3,3,0,0,1-3,3H4a3,3,0,0,1-3-3V4A3,3,0,0,1,4,1H44m0-1H4A4,4,0,0,0,0,4V44a4,4,0,0,0,4,4H44a4,4,0,0,0,4-4V4a4,4,0,0,0-4-4Z"/><polygon class="cls-2" points="45 45 37 45 45 37 45 45"/></g></g></svg>