<svg xmlns="http://www.w3.org/2000/svg" width="21.969" height="28" viewBox="0 0 21.969 28">
  <defs>
    <style>
      .cls-1 {
        fill: #ff9500;
        fill-rule: evenodd;
      }
    </style>
  </defs>
  <path id="didian.svg" class="cls-1" d="M181.993,346a11.012,11.012,0,0,0-10.993,11c0,5.857,9.849,16.258,10.269,16.7a0.994,0.994,0,0,0,.724.31h0.02a0.979,0.979,0,0,0,.731-0.342l3.411-3.911c4.532-5.557,6.829-9.849,6.829-12.754a11.011,11.011,0,0,0-10.991-11h0v0Zm0,16.007a5,5,0,1,1,5-5v0a5,5,0,0,1-5,5h0Z" transform="translate(-171 -346)"/>
</svg>
