<svg xmlns="http://www.w3.org/2000/svg" width="266.625" height="106.16" viewBox="0 0 266.625 106.16">
  <defs>
    <style>
      .cls-1 {
        fill: #aaa;
        fill-rule: evenodd;
      }
    </style>
  </defs>
  <path id="di.svg" class="cls-1" d="M313.65,977.941L292.545,974l-20.7,3.941-1.845.276V1003.7a9.816,9.816,0,0,0,1.172,4.56,21.784,21.784,0,0,0,3.058,4.4,33.61,33.61,0,0,0,4.3,4.03,45.045,45.045,0,0,0,4.905,3.39,41,41,0,0,0,4.815,2.48,23.362,23.362,0,0,0,4.073,1.35l0.5,0.09,0.54-.09a22.656,22.656,0,0,0,3.982-1.35,37.562,37.562,0,0,0,4.68-2.48,44.9,44.9,0,0,0,4.748-3.39,32.29,32.29,0,0,0,4.162-4.03,21.851,21.851,0,0,0,2.948-4.4A10.176,10.176,0,0,0,315,1003.7V978.217l-1.35-.276h0Zm-3.186,26.259a7.778,7.778,0,0,1-.842,3.48,14.833,14.833,0,0,1-2.25,3.3,22.087,22.087,0,0,1-3.242,2.97,35.482,35.482,0,0,1-7.819,4.49,25.587,25.587,0,0,1-3.76,1.23V996.791H274.536V980.715l17.766-3.076,0.25,0.05v19.1h17.912v7.409h0Zm-57.353,71.88v-2.33h7.922v2.33h-7.922Zm-3.25-9.04v2.54h14.524v-2.54H249.861Zm0-3.86v2.64h14.524v-2.64H249.861Zm9.446-4.06a19.524,19.524,0,0,0-1.321-2.84l-3.656.61a11.861,11.861,0,0,1,.812,1.72,3.16,3.16,0,0,0,.2.51h-6.5v2.74h16.961v-2.74h-6.5Zm-17.571,8.74c0.067,0.4.168,1.01,0.305,1.82,0.27,1.29.439,2.21,0.508,2.75,0.541-.95,1.117-1.93,1.726-2.95v10.46h3.047v-17.26c0.61-1.7,1.219-3.49,1.828-5.39l-3.148-.91a53,53,0,0,1-4.266,11.48h0Zm11.375,10.86h7.922v1.22h3.352v-9.04H249.861v9.04h3.25v-1.22Zm20.731-16.65v-1.32h13.1v1.32h-13.1Zm13.1,2.13v1.42h-13.1v-1.42h13.1Zm-13.1,3.45h13.1v1.42h-13.1v-1.42Zm15.641,10.46,2.945-1.32q-0.913-1.725-2.945-4.97l-2.742,1.32a34.4,34.4,0,0,1,2.742,4.97h0Zm-21.227-.61,2.844,1.32a6.571,6.571,0,0,1,.508-1.21q1.116-2.445,1.828-4.27l-2.945-1.02a32.189,32.189,0,0,1-2.235,5.18h0ZM284,1075.98q-0.3,1.02-2.132,1.02h-2.844c-1.016,0-1.524-.41-1.524-1.22v-3.15h-3.351v3.96c0,1.96,1.219,2.95,3.656,2.95h5.383c1.76,0,2.945-.58,3.555-1.73,0.269-.54.609-1.29,1.015-2.24-0.746-.4-1.828-0.98-3.25-1.72a10.921,10.921,0,0,1-.508,2.13h0Zm-3.961-4.47-1.523,1.02a6.111,6.111,0,0,0,.711.81q1.421,1.935,1.93,2.64l2.64-1.83q-1.016-1.215-2.133-2.64h8.43v-13.3h-8.43c0.067-.14.169-0.34,0.305-0.61a5.386,5.386,0,0,0,.406-1.02l-4.062-.4a6.373,6.373,0,0,0-.2.81c-0.137.54-.238,0.95-0.305,1.22h-7.109v13.3h9.343Zm24.489-2.54h5.992a9.971,9.971,0,0,1-2.843,4.17c-0.407-.14-1.016-0.37-1.828-0.71q-1.828-.72-2.743-1.02a23.833,23.833,0,0,1,1.422-2.44h0Zm0.1-11.27a4.908,4.908,0,0,1,.508,1.12h-9.243V1064h3.454v-2.14h15.132v2.24h3.453v-5.28H309.4a7.888,7.888,0,0,0-.406-1.12,7.323,7.323,0,0,1-.508-1.42l-4.062.81a3.453,3.453,0,0,1,.2.61h0Zm-3.961,11.27q-1.119,1.935-2.336,3.76,1.014,0.4,3.351,1.32c1.083,0.41,1.895.71,2.438,0.92a49.392,49.392,0,0,1-9.242,2.03,17.37,17.37,0,0,1,1.32,2.23,2.683,2.683,0,0,1,.406.71,41.383,41.383,0,0,0,11.578-3.25,85.46,85.46,0,0,1,8.227,3.35l1.727-3.04c-2.371-.88-4.063-1.53-5.079-1.93-0.812-.27-1.421-0.48-1.828-0.61a14.417,14.417,0,0,0,3.149-5.49h4.469v-3.04H306.253q0.609-1.23,1.422-2.64l-3.86-1.02q-0.711,1.83-1.625,3.66h-7.312v3.04h5.789Zm37.59-4.36h-9.75a27.877,27.877,0,0,0,4.875-4.88,23.649,23.649,0,0,0,4.875,4.88h0Zm6.094,14.42v-2.85H335.21v-2.94h7.211v-3.05H335.21v-2.44h4.672v-2.03a21.962,21.962,0,0,0,3.352,2.03,2.175,2.175,0,0,1,.406-0.5q1.116-1.53,1.828-2.34-6.806-3.15-10.055-7.72l0.61-.91h-4.164q-2.742,4.77-10.563,8.94c1.016,1.21,1.76,2.16,2.235,2.84,1.15-.75,2.267-1.49,3.351-2.24v1.93h4.672v2.44h-7.211v3.05h7.211v2.94h-9.141v2.85h21.938Zm65.768-7.01h3.656a6.382,6.382,0,0,1-1.828,2.23c-0.812-.33-1.625-0.64-2.437-0.91q0.3-.705.609-1.32h0Zm11.578-8.94h3.149a21.75,21.75,0,0,1-1.727,7.42,22.168,22.168,0,0,1-1.625-6.71,1.262,1.262,0,0,1,.2-0.71h0Zm-5.18,5.49,0.813-1.12a9.3,9.3,0,0,1,.508.91c0.338,0.55.574,0.92,0.711,1.12,0.338-.54.642-1.01,0.914-1.42a21.832,21.832,0,0,0,1.828,5.38,17.049,17.049,0,0,1-4.57,3.56l0.507-.71c-0.88-.34-1.693-0.65-2.437-0.92a12.935,12.935,0,0,0,2.336-3.55v-2.24h-5.586c0.2-.4.406-0.81,0.609-1.22h1.219v-1.82a30.4,30.4,0,0,1,3.148,2.03h0ZM409,1063.59a16.051,16.051,0,0,1-4.367,2.44,24.828,24.828,0,0,1,1.117,2.94,20.33,20.33,0,0,0,4.469-3.45v2.23l-1.219-.1c-0.068.21-.17,0.51-0.305,0.92-0.2.47-.339,0.81-0.406,1.01h-3.149v2.44h1.93a22.808,22.808,0,0,1-1.422,2.44c1.219,0.47,2.37.98,3.453,1.52a31.4,31.4,0,0,1-4.367,1.02,10.946,10.946,0,0,1,1.219,2.74,17.632,17.632,0,0,0,6.3-2.44,33.844,33.844,0,0,1,3.25,1.63l0.812-1.43a18.854,18.854,0,0,1,2.133,2.54,17,17,0,0,0,4.672-3.55,21.784,21.784,0,0,0,3.656,3.25,11.916,11.916,0,0,1,2.133-3.05,13.684,13.684,0,0,1-3.859-3.04,24.728,24.728,0,0,0,2.742-10.57h1.016v-2.94h-6.094a30.68,30.68,0,0,0,1.015-3.56l-3.25-.3a44.911,44.911,0,0,1-3.453,9.44q-1.32-.705-2.843-1.62l-0.813,1.12v-1.63h4.164v-2.44h-1.32q0.2-.3.609-0.81c0.61-.88,1.049-1.56,1.32-2.03l-2.234-1.42a2.478,2.478,0,0,1-.406.51,20.758,20.758,0,0,1-1.625,2.33l2.031,1.42h-2.539v-4.77h-3.148v4.77H407.58l2.133-1.42a26.269,26.269,0,0,0-2.031-2.74l-2.133,1.32c0.676,1.01,1.252,1.96,1.726,2.84h-1.929v2.44H409Zm33.629,1.22H446.8v2.13h-4.164v-2.13Zm3.047,11.58v-2.34h5.383v2.34h-5.383Zm-3.047-16.66h8.735v2.54h-8.735v-2.54Zm-8.734,4.17v4.06c-0.272.07-.61,0.13-1.016,0.2-0.677.14-1.185,0.24-1.523,0.31l0.2,3.35c0.812-.21,1.59-0.41,2.336-0.61v4.47q0,1.11-.813,1.11h-1.625c0.27,0.95.508,1.93,0.711,2.95,0.813,0,1.625-.04,2.438-0.1,1.488,0,2.234-.85,2.234-2.54v-6.6c0.744-.21,1.455-0.37,2.133-0.51a13.466,13.466,0,0,1,.1-2.84v-0.31a19.675,19.675,0,0,0-2.235.51v-3.45h2.031v-3.05h-2.031v-4.27H433.9v4.27h-2.235v3.05H433.9Zm15.844,3.04v-2.13h4.57v-7.62H439.686v8.84q0,7.305-2.438,11.27a19.514,19.514,0,0,1,2.235,2.44q2.64-3.765,3.047-10.26H446.8v2.03h-4.062v8.43h2.945v-1.22h5.383v1.22h2.844v-8.43h-4.164v-2.03h5.586v-2.54h-5.586Zm18.5,0.31,1.422-2.54a40.109,40.109,0,0,0-5.18-2.44l-1.422,2.34a34.327,34.327,0,0,1,5.18,2.64h0Zm-6.2-5.69h15.64v3.35h3.352v-6.3H472.5c-0.068-.2-0.17-0.5-0.305-0.91a9.678,9.678,0,0,1-.508-1.52l-4.164.4a6.521,6.521,0,0,1,.508,1.12c0.135,0.41.236,0.71,0.305,0.91H458.69v6.3h3.352v-3.35Zm7.719,8.94h-3.555l1.422-2.34q-2.742-1.515-5.078-2.64l-1.422,2.34q2.03,1.11,4.672,2.64h-7.618v2.94h10.461q-2.132,2.55-9.851,3.76a19.472,19.472,0,0,1,2.031,2.95,20.164,20.164,0,0,0,9.649-3.86q4.875,1.62,9.75,3.65l1.218-2.84q-4.571-1.725-9.242-3.25a0.594,0.594,0,0,0,.2-0.41h9.242v-2.94h-8.429a58.189,58.189,0,0,0,.609-8.03h-3.351a49.107,49.107,0,0,1-.711,8.03h0Zm22.051-1.43v4.78h-3.149v-4.78h3.149Zm-3.149-3.14v-4.78h3.149v4.78h-3.149Zm9.954,5.68a7.773,7.773,0,0,0,.71,1.22l2.946-1.93q-1.017-1.41-2.742-3.65c-0.813-1.09-1.356-1.83-1.625-2.24l-2.539,1.73q1.014,1.32,3.25,4.87h0Zm4.265-7.92v10.97a1.573,1.573,0,0,1-1.726,1.83c-0.475,0-1.186-.03-2.133-0.1H497.4a17.227,17.227,0,0,1,.711,2.84,1.689,1.689,0,0,1,.1.51c1.692,0,3.182-.04,4.469-0.1q3.657,0,3.656-3.96v-11.99h2.032v-3.15h-2.032v-4.06h-3.453v4.06h-7.109v3.15h7.109ZM488.663,1077h3.149v1.52h3.25V1058h-9.547v20.62h3.148V1077Zm-32.709-82.32a9.822,9.822,0,0,0-2.5.322,13.869,13.869,0,0,0-2.323.827,8.607,8.607,0,0,0-2,1.287,13.094,13.094,0,0,0-1.685,1.746,10.337,10.337,0,0,0-1.275,2.018,12.906,12.906,0,0,0-.82,2.3,10.164,10.164,0,0,0-.318,2.53,10.573,10.573,0,0,0,3.187,7.72,10.808,10.808,0,0,0,15.393,0,11.054,11.054,0,0,0,0-15.533,10.385,10.385,0,0,0-7.651-3.217h0Zm-0.045,16.54a5.2,5.2,0,0,1-3.826-1.6,5.593,5.593,0,0,1,0-7.82,5.35,5.35,0,0,1,7.651,0,5.593,5.593,0,0,1,0,7.82,5.192,5.192,0,0,1-3.825,1.6h0Zm-3.6-5.56a3.666,3.666,0,0,0,1.048,2.62,3.373,3.373,0,0,0,2.55,1.11,3.669,3.669,0,0,0,3.188-5.52,3.972,3.972,0,0,0-1.321-1.33,3.379,3.379,0,0,0-1.822-.51,3.6,3.6,0,0,0-3.643,3.63h0ZM455.59,974a97.413,97.413,0,0,0-11.7.689,61.6,61.6,0,0,0-8.789,1.563q-3.1.873-3.1,1.424v9.1q0-.552,3.1-1.379a71.739,71.739,0,0,1,8.789-1.563,91.329,91.329,0,0,1,11.7-.735,96.755,96.755,0,0,1,11.932.735,77.977,77.977,0,0,1,9.154,1.563q3.233,0.826,3.233,1.379v-9.1a0.644,0.644,0,0,0-.41-0.413,8.643,8.643,0,0,0-1.139-.506,12.436,12.436,0,0,0-1.821-.5q-1.093-.231-2.459-0.506t-2.96-.551q-1.594-.276-3.416-0.506t-3.734-.367q-1.914-.138-4.054-0.23T455.59,974h0Zm0.911,13.419q-3.643,0-7.469.276t-6.786.689q-2.959.414-5.328,0.919a29.635,29.635,0,0,0-3.643.965Q432,990.729,432,991.1v12.775a18.11,18.11,0,0,0,3.37,10.85,20.438,20.438,0,0,0,8.789,6.98,30.175,30.175,0,0,0,11.886,2.3,26.519,26.519,0,0,0,16.851-5.42,17.7,17.7,0,0,0,6.922-14.71L480,991.1a0.845,0.845,0,0,0-.638-0.551q-0.637-.276-1.776-0.643t-2.732-.736q-1.594-.368-3.643-0.689t-4.327-.551q-2.277-.231-4.964-0.368t-5.419-.138h0Zm-0.547,31.161a22.356,22.356,0,0,1-9.336-1.93,16.03,16.03,0,0,1-6.649-5.38,13.084,13.084,0,0,1-2.413-7.67v-8.92a1.088,1.088,0,0,1,.819-0.6,15.237,15.237,0,0,1,2.46-.644q1.64-.321,3.734-0.643t4.964-.506q2.87-.183,5.875-0.184t5.966,0.184q2.959,0.185,5.1.506t3.826,0.643a18.878,18.878,0,0,1,2.6.644,1.194,1.194,0,0,1,.911.6v8.92a13.2,13.2,0,0,1-2.323,7.62,15.989,15.989,0,0,1-6.421,5.38,20.668,20.668,0,0,1-9.109,1.98h0Z" transform="translate(-241.75 -974)"/>
</svg>
