<svg xmlns="http://www.w3.org/2000/svg" width="46.32" height="43" viewBox="0 0 46.32 43"><defs><style>.cls-1{fill:none;}.cls-2{fill:#f15c4c;}</style></defs><title>D1</title><g id="图层_2" data-name="图层 2"><g id="图层_1-2" data-name="图层 1"><polygon class="cls-1" points="34.91 3.31 12.49 3.31 23.21 10.74 34.91 3.31"/><polygon class="cls-1" points="34.91 3.31 12.49 3.31 23.21 10.74 34.91 3.31"/><path class="cls-2" d="M35.62,15.44A1.32,1.32,0,0,0,37,14.21,1.32,1.32,0,0,0,35.62,13H10.42A1.32,1.32,0,0,0,9,14.21a1.32,1.32,0,0,0,1.4,1.22Z"/><polygon class="cls-1" points="12.49 3.31 23.21 10.74 34.91 3.31 12.49 3.31"/><path class="cls-2" d="M46.19,13.73,40.8,1a1.66,1.66,0,0,0-1.52-1H8.55A1.65,1.65,0,0,0,7.1.86L.21,13.4a1.65,1.65,0,0,0,.15,1.83L22,42.37a1.65,1.65,0,0,0,2.59,0L46,15.4A1.65,1.65,0,0,0,46.19,13.73ZM24.68,36.9V17.57H21.37V36.32L3.63,14,8.86,4.52,18,10.74h5.16L12.49,3.31H34.9l-11.7,7.44h5.43l10-6.24,4.07,9.61Z"/></g></g></svg>