<svg xmlns="http://www.w3.org/2000/svg" width="46.15" height="43" viewBox="0 0 46.15 43"><defs><style>.cls-1,.cls-2{fill:#f15a4a;}.cls-1{fill-rule:evenodd;}</style></defs><title>D3</title><g id="图层_2" data-name="图层 2"><g id="图层_1-2" data-name="图层 1"><path class="cls-1" d="M20.3,21.58H17.8a1.25,1.25,0,0,1-1.25-1.25v-2.5a1.25,1.25,0,0,1,1.25-1.25h2.5a1.25,1.25,0,0,1,1.25,1.25v2.5a1.25,1.25,0,0,1-1.25,1.25Z"/><path class="cls-1" d="M28.66,21.58h-2.5a1.25,1.25,0,0,1-1.25-1.25v-2.5a1.25,1.25,0,0,1,1.25-1.25h2.5a1.25,1.25,0,0,1,1.25,1.25v2.5a1.25,1.25,0,0,1-1.25,1.25Z"/><path class="cls-2" d="M1.74,19.93a1.21,1.21,0,0,0,1-.33L22.17,3.79a2.1,2.1,0,0,1,2,0L43.42,19.28a1.64,1.64,0,1,0,2.14-2.47L26.12,1A5.19,5.19,0,0,0,20,1L.58,17a1.59,1.59,0,0,0-.16,2.31A1.5,1.5,0,0,0,1.74,19.93Z"/><path class="cls-2" d="M41.44,21.58a1.56,1.56,0,0,0-1.65,1.65V38.72c0,1-.33,1-.82,1H29.91v-6.1c0-3.3-3.62-5.6-6.75-5.6s-6.59,2.31-6.59,5.6v6.1H7.67c-.66,0-1-.33-1-.82V23.23A1.56,1.56,0,0,0,5,21.58a1.56,1.56,0,0,0-1.65,1.65V38.88A4.12,4.12,0,0,0,7.67,43H18a1.56,1.56,0,0,0,1.65-1.65V33.61c0-1.32,1.81-2.31,3.3-2.31s3.46,1.15,3.46,2.31v7.74A1.56,1.56,0,0,0,28.1,43H38.81a4.12,4.12,0,0,0,4.28-4.12V23.23A1.56,1.56,0,0,0,41.44,21.58Z"/></g></g></svg>