<svg xmlns="http://www.w3.org/2000/svg" width="43" height="43" viewBox="0 0 43 43"><defs><style>.cls-1{fill:#ff9500;fill-rule:evenodd;}</style></defs><title>D2</title><g id="图层_2" data-name="图层 2"><g id="图层_1-2" data-name="图层 1"><path class="cls-1" d="M14.88,43H5a5,5,0,0,1-5-5V28.12a5,5,0,0,1,5-5h9.92a5,5,0,0,1,5,5V38a5,5,0,0,1-5,5ZM5,26.46a1.66,1.66,0,0,0-1.65,1.65V38A1.66,1.66,0,0,0,5,39.69h9.92A1.66,1.66,0,0,0,16.54,38V28.12a1.66,1.66,0,0,0-1.65-1.65Z"/><path class="cls-1" d="M33.08,41.35a1.65,1.65,0,0,1-1.65-1.65V36.38a1.65,1.65,0,1,1,3.31,0v3.31a1.65,1.65,0,0,1-1.65,1.65Z"/><path class="cls-1" d="M39.69,41.35A1.65,1.65,0,0,1,38,39.69v-5a1.65,1.65,0,0,1,3.31,0v5a1.65,1.65,0,0,1-1.65,1.65Z"/><path class="cls-1" d="M39.69,29.77A1.65,1.65,0,0,1,38,28.12V24.81a1.65,1.65,0,0,1,3.31,0v3.31a1.65,1.65,0,0,1-1.65,1.65Z"/><path class="cls-1" d="M33.08,33.08a1.65,1.65,0,0,1-1.65-1.65V24.81a1.65,1.65,0,1,1,3.31,0v6.62a1.65,1.65,0,0,1-1.65,1.65Z"/><path class="cls-1" d="M26.46,41.35a1.65,1.65,0,0,1-1.65-1.65V33.08a1.65,1.65,0,0,1,3.31,0v6.62a1.65,1.65,0,0,1-1.65,1.65Z"/><path class="cls-1" d="M26.46,28.12a1.65,1.65,0,0,1-1.65-1.65V24.81a1.65,1.65,0,0,1,3.31,0v1.65a1.65,1.65,0,0,1-1.65,1.65Z"/><path class="cls-1" d="M11.17,35.58H8.67a1.25,1.25,0,0,1-1.25-1.25v-2.5a1.25,1.25,0,0,1,1.25-1.25h2.5a1.25,1.25,0,0,1,1.25,1.25v2.5a1.25,1.25,0,0,1-1.25,1.25Z"/><path class="cls-1" d="M14.88,19.85H5a5,5,0,0,1-5-5V5A5,5,0,0,1,5,0h9.92a5,5,0,0,1,5,5v9.92a5,5,0,0,1-5,5ZM5,3.31A1.66,1.66,0,0,0,3.31,5v9.92A1.66,1.66,0,0,0,5,16.54h9.92a1.66,1.66,0,0,0,1.65-1.65V5a1.66,1.66,0,0,0-1.65-1.65Z"/><path class="cls-1" d="M11.17,12.42H8.67a1.25,1.25,0,0,1-1.25-1.25V8.67A1.25,1.25,0,0,1,8.67,7.42h2.5a1.25,1.25,0,0,1,1.25,1.25v2.5a1.25,1.25,0,0,1-1.25,1.25Z"/><path class="cls-1" d="M38,19.85H28.12a5,5,0,0,1-5-5V5a5,5,0,0,1,5-5H38a5,5,0,0,1,5,5v9.92a5,5,0,0,1-5,5ZM28.12,3.31A1.66,1.66,0,0,0,26.46,5v9.92a1.66,1.66,0,0,0,1.65,1.65H38a1.66,1.66,0,0,0,1.65-1.65V5A1.66,1.66,0,0,0,38,3.31Z"/><path class="cls-1" d="M34.33,12.42h-2.5a1.25,1.25,0,0,1-1.25-1.25V8.67a1.25,1.25,0,0,1,1.25-1.25h2.5a1.25,1.25,0,0,1,1.25,1.25v2.5a1.25,1.25,0,0,1-1.25,1.25Z"/></g></g></svg>