<svg xmlns="http://www.w3.org/2000/svg" width="46.18" height="43" viewBox="0 0 46.18 43"><defs><style>.cls-1,.cls-2{fill:#1d8fe1;}.cls-1{fill-rule:evenodd;}</style></defs><title>A3</title><g id="图层_2" data-name="图层 2"><g id="图层_1-2" data-name="图层 1"><path class="cls-1" d="M32.87,29.47a6.77,6.77,0,0,0-6.57,5.22H19.91A6.8,6.8,0,1,0,19.84,38h6.53a6.75,6.75,0,1,0,6.5-8.52ZM13.34,39.69a3.47,3.47,0,1,1,3.46-3.47,3.47,3.47,0,0,1-3.46,3.47Zm19.53,0a3.46,3.46,0,1,1,3.46-3.46,3.47,3.47,0,0,1-3.46,3.46Z"/><path class="cls-1" d="M41.22,0h-24a4.12,4.12,0,0,0-4.12,4.12V8.89l-10,5-.21.12A6.82,6.82,0,0,0,0,19.82V36.44a1.65,1.65,0,1,0,3.3,0V19.82a3.52,3.52,0,0,1,1.4-3l10.84-5.45a1.49,1.49,0,0,0,.19-.15A1.58,1.58,0,0,0,16,11a1.72,1.72,0,0,0,.18-.26,1.52,1.52,0,0,0,.15-.27,1.64,1.64,0,0,0,.07-.35,1.45,1.45,0,0,0,0-.23V4.12a.81.81,0,0,1,.81-.81h24A1.67,1.67,0,0,1,42.87,5V36.34a1.65,1.65,0,0,0,3.3,0V5a5,5,0,0,0-5-5Z"/><rect class="cls-2" x="8.19" y="22.35" width="8.3" height="2.35" rx="1.18" ry="1.18"/><rect class="cls-2" x="11.16" y="19.38" width="8.3" height="2.35" rx="1.18" ry="1.18" transform="translate(35.86 5.24) rotate(90)"/></g></g></svg>