<svg xmlns="http://www.w3.org/2000/svg" width="50.23" height="43" viewBox="0 0 50.23 43"><defs><style>.cls-1{fill:#29ab91;}</style></defs><title>D4</title><g id="图层_2" data-name="图层 2"><g id="图层_1-2" data-name="图层 1"><path class="cls-1" d="M33.9,14.33a14.33,14.33,0,1,0-28.67,0,14.31,14.31,0,0,0,7,12.18A20.53,20.53,0,0,0,0,40.85,1.84,1.84,0,0,0,1.29,43h.36a1.74,1.74,0,0,0,1.79-1.43A17,17,0,0,1,19.56,28.49h.18A14.18,14.18,0,0,0,33.9,14.33ZM19.56,25.08A10.75,10.75,0,1,1,30.31,14.33,10.78,10.78,0,0,1,19.56,25.08Z"/><path class="cls-1" d="M37.48,23.29a1.62,1.62,0,0,0-1.61,2,1.77,1.77,0,0,0,1.79,1.61h.18A11.32,11.32,0,0,0,38,4.3a2,2,0,0,0-2,1.61,2,2,0,0,0,1.61,2,7.93,7.93,0,0,1,7.17,7.7A7.69,7.69,0,0,1,37.48,23.29Z"/><path class="cls-1" d="M31.21,28.67l-1.08-.72a1.81,1.81,0,0,0-2,3l1.08.72a17.13,17.13,0,0,1,6.63,9.85A1.74,1.74,0,0,0,37.66,43H38a1.7,1.7,0,0,0,1.25-2.15A21.39,21.39,0,0,0,31.21,28.67Z"/><path class="cls-1" d="M50.2,35.3a12,12,0,0,0-4.48-6.63,1.81,1.81,0,0,0-2,3A8,8,0,0,1,46.62,36a1.74,1.74,0,0,0,1.79,1.43h.36A1.73,1.73,0,0,0,50.2,35.3Z"/></g></g></svg>