<svg xmlns="http://www.w3.org/2000/svg" width="11.75" height="19.906" viewBox="0 0 11.75 19.906">
  <defs>
    <style>
      .cls-1 {
        fill-rule: evenodd;
      }
    </style>
  </defs>
  <path id="箭头.svg" class="cls-1" d="M718.184,575.215c0.013-.026.035-0.048,0.047-0.074a1.222,1.222,0,0,0-.253-1.435l-9.223-8.647a1.262,1.262,0,0,0-1.772.049,1.236,1.236,0,0,0,.05,1.757l8.275,7.76-8.243,7.875a1.235,1.235,0,0,0-.032,1.757,1.261,1.261,0,0,0,1.772.032l9.139-8.732c0.018-.017.024-0.041,0.042-0.059s0.027-.022.041-0.035a1.2,1.2,0,0,0,.157-0.248h0Z" transform="translate(-706.625 -564.719)"/>
</svg>
