<svg xmlns="http://www.w3.org/2000/svg" width="38.29" height="43" viewBox="0 0 38.29 43"><defs><style>.cls-1{fill:#2b91e2;fill-rule:evenodd;}</style></defs><title>D5</title><g id="图层_2" data-name="图层 2"><g id="图层_1-2" data-name="图层 1"><path class="cls-1" d="M27.24,13.11c1.62-1.77,3.53-4.42,3.53-7.22a5.33,5.33,0,0,0-1.47-4C27.39,0,24,0,20.17,0h-2.8C13.84,0,10.9-.14,9,1.77A5.46,5.46,0,0,0,7.51,5.89c0,4,3.53,7.51,5.15,8.84a1.46,1.46,0,0,0,1.91-2.21c-2.5-2.21-4.12-4.71-4.12-6.63,0-1.47.44-1.91.59-2.06,1-.88,3.53-.88,6.33-.88h3.09c3.09,0,6,0,7.07,1A4,4,0,0,1,28,5.89c0,1.77-1.62,4.27-4.27,6.48a1.19,1.19,0,0,0-.44,1.33,2.29,2.29,0,0,0,.88,1.18c5.45,2.06,11.19,7.66,11.19,15.31,0,7.22-4.42,9.87-16.2,9.87S2.95,37.4,2.95,30.19A16.26,16.26,0,0,1,8.69,18.11a1.46,1.46,0,0,0-1.91-2.21A19.39,19.39,0,0,0,0,30.19C0,43,13,43,19.14,43s19.14,0,19.14-12.81c.15-7.07-4.42-13.69-11-17.08Z"/><path class="cls-1" d="M24.52,22.15a1.29,1.29,0,1,0-1.82-1.82l-3.26,3.13-3.26-3.13a1.29,1.29,0,1,0-1.82,1.82L18,25.66v.78H15.4a1.3,1.3,0,0,0,0,2.61H18v1.3H15.4a1.3,1.3,0,0,0,0,2.61H18v2.74a1.3,1.3,0,0,0,2.61,0V33h2.61a1.3,1.3,0,1,0,0-2.61H20.61v-1.3h2.61a1.3,1.3,0,1,0,0-2.61H20.61v-.52l3.91-3.78Z"/></g></g></svg>