<?xml version="1.0" encoding="utf-8"?>
<!-- Generator: Adobe Illustrator 21.0.2, SVG Export Plug-In . SVG Version: 6.00 Build 0)  -->
<svg version="1.1" id="图层_1" xmlns="http://www.w3.org/2000/svg" xmlns:xlink="http://www.w3.org/1999/xlink" x="0px" y="0px"
	 viewBox="0 0 11.8 19.9" style="enable-background:new 0 0 11.8 19.9;" xml:space="preserve">
<style type="text/css">
	.st0{fill:#FFFFFF;}
</style>
<path id="箭头.svg" class="st0" d="M11.6,10.5C11.6,10.5,11.6,10.4,11.6,10.5c0.3-0.6,0.2-1.1-0.2-1.5L2.1,0.3
	c-0.5-0.5-1.3-0.4-1.8,0c-0.5,0.5-0.5,1.3,0,1.7c0,0,0,0,0,0l8.3,7.8l-8.2,7.9c-0.5,0.5-0.5,1.3,0,1.7c0,0,0,0,0,0
	c0.5,0.5,1.3,0.5,1.8,0l9.1-8.7c0,0,0,0,0-0.1s0,0,0,0C11.5,10.7,11.5,10.6,11.6,10.5L11.6,10.5L11.6,10.5z"/>
</svg>
