<svg xmlns="http://www.w3.org/2000/svg" width="50.01" height="43" viewBox="0 0 50.01 43"><defs><style>.cls-1,.cls-2{fill:#ff9500;}.cls-1{fill-rule:evenodd;}</style></defs><title>A1</title><g id="图层_2" data-name="图层 2"><g id="图层_1-2" data-name="图层 1"><path class="cls-1" d="M41,43H5.36A5.36,5.36,0,0,1,0,37.64V5.36A5.36,5.36,0,0,1,5.36,0H41.21a5.36,5.36,0,0,1,5.36,5.36v5.25a1.79,1.79,0,1,1-3.57,0V5.36a1.79,1.79,0,0,0-1.79-1.79H5.36A1.79,1.79,0,0,0,3.57,5.36V37.64a1.79,1.79,0,0,0,1.79,1.79H41a1.79,1.79,0,0,0,1.79-1.79V32.12a1.79,1.79,0,1,1,3.57,0v5.52A5.36,5.36,0,0,1,41,43Z"/><path class="cls-1" d="M33.35,21.44m-1.4,0a1.4,1.4,0,1,0,1.4-1.4,1.4,1.4,0,0,0-1.4,1.4"/><path class="cls-1" d="M46.44,28.46H28.58A3.58,3.58,0,0,1,25,24.89V17.75a3.58,3.58,0,0,1,3.57-3.57H46.44A3.58,3.58,0,0,1,50,17.75v7.14a3.58,3.58,0,0,1-3.57,3.57ZM28.58,17.75v7.14H46.44V17.75Z"/><rect class="cls-2" x="8.24" y="1.56" width="2.5" height="40.81" rx="1.15" ry="1.15"/></g></g></svg>