<svg xmlns="http://www.w3.org/2000/svg" width="36.86" height="43" viewBox="0 0 36.86 43"><defs><style>.cls-1,.cls-2{fill:#1d8fe1;}.cls-1{fill-rule:evenodd;}</style></defs><title>D6</title><g id="图层_2" data-name="图层 2"><g id="图层_1-2" data-name="图层 1"><path class="cls-1" d="M18.62,13.82l-.27,0L1.26,10.73A1.54,1.54,0,0,1,0,9.21V4.61A4.61,4.61,0,0,1,4.61,0H32.25a4.61,4.61,0,0,1,4.61,4.61V9.21a1.54,1.54,0,0,1-1.26,1.51L18.9,13.8l-.28,0ZM3.07,7.93l15.55,2.79L33.79,7.94V4.61a1.54,1.54,0,0,0-1.54-1.54H4.61A1.54,1.54,0,0,0,3.07,4.61V7.93Z"/><path class="cls-1" d="M32.25,43H4.61A4.61,4.61,0,0,1,0,38.39v-23a1.54,1.54,0,0,1,3.07,0v23a1.54,1.54,0,0,0,1.54,1.54H32.25a1.54,1.54,0,0,0,1.54-1.54v-23a1.54,1.54,0,0,1,3.07,0v23A4.61,4.61,0,0,1,32.25,43Z"/><path class="cls-2" d="M18.43,17.54a9,9,0,1,0,9,9A9,9,0,0,0,18.43,17.54Zm3.34,7.4a1.12,1.12,0,0,1,0,2.25H19.53v1.12h2.24a1.12,1.12,0,0,1,0,2.25H19.53v2.26a1.12,1.12,0,1,1-2.25,0V30.55H15a1.12,1.12,0,0,1,0-2.25h2.25V27.18H15a1.12,1.12,0,1,1,0-2.25h1.79l-2.6-2.59a1.12,1.12,0,0,1,1.59-1.58l2.57,2.57,2.68-2.58a1.12,1.12,0,1,1,1.56,1.61l-2.67,2.57Z"/></g></g></svg>