<svg xmlns="http://www.w3.org/2000/svg" width="36.96" height="43" viewBox="0 0 36.96 43"><defs><style>.cls-1,.cls-2{fill:#1d8fe1;}.cls-1{fill-rule:evenodd;}</style></defs><title>A4</title><g id="图层_2" data-name="图层 2"><g id="图层_1-2" data-name="图层 1"><path class="cls-1" d="M13.31,41.66a1.53,1.53,0,0,1-1.15-.51c-4-4.48-10.47-4.52-10.6-4.52h0a1.54,1.54,0,0,1,0-3.08c.32,0,8,0,12.92,5.55a1.54,1.54,0,0,1-1.15,2.56Z"/><path class="cls-1" d="M23.62,41.66a1.54,1.54,0,0,1-1.13-2.58c5.14-5.55,12.63-5.54,12.92-5.53a1.54,1.54,0,0,1,0,3.08h0c-.13,0-6.47,0-10.64,4.55a1.52,1.52,0,0,1-1.13.49Z"/><path class="cls-1" d="M20.91,33.84H16a1.5,1.5,0,0,1-.45-.07A16.83,16.83,0,0,1,3.12,25.24C-.19,19.62-.95,12.34,1.24,7.12a1.54,1.54,0,0,1,1.39-.94h.46a20.09,20.09,0,0,1,8.15,1.65A22.17,22.17,0,0,1,17.36.38a1.53,1.53,0,0,1,.41-.26h0a1.55,1.55,0,0,1,1.46.12,1.47,1.47,0,0,1,.21.17A21.86,21.86,0,0,1,25.52,7.9a20.09,20.09,0,0,1,8.34-1.73h.47a1.54,1.54,0,0,1,1.39.94c2.18,5.22,1.43,12.51-1.89,18.13a16.84,16.84,0,0,1-12.47,8.53,1.71,1.71,0,0,1-.45.06Zm-4.6-3.08h4.33l.1,0a13.73,13.73,0,0,0,10.45-7.06c2.6-4.41,3.38-10.18,2-14.43a16.57,16.57,0,0,0-7.63,2,1.54,1.54,0,0,1-2.13-.67,22,22,0,0,0-5.08-7.13,22.14,22.14,0,0,0-5.09,7,1.54,1.54,0,0,1-2.11.67,16.57,16.57,0,0,0-7.45-2c-1.34,4.25-.55,10,2,14.43a13.73,13.73,0,0,0,10.44,7.06l.1,0Z"/><path class="cls-1" d="M18.46,43a1.54,1.54,0,0,1-1.54-1.54V32.3a1.54,1.54,0,0,1,3.08,0v9.16A1.54,1.54,0,0,1,18.46,43Z"/><circle class="cls-2" cx="9.04" cy="16.92" r="1.95"/><circle class="cls-2" cx="28.04" cy="16.92" r="1.95"/><circle class="cls-2" cx="18.48" cy="13.26" r="1.95"/></g></g></svg>