<svg xmlns="http://www.w3.org/2000/svg" width="156" height="80" viewBox="0 0 156 80"><defs><style>.cls-1{fill:#ffac5a;fill-rule:evenodd;}.cls-2{fill:#ffbe71;}.cls-3{fill:#fff;}.cls-4{fill:#201a19;}.cls-5{fill:#d40e7c;}.cls-6,.cls-7{fill:none;stroke-linecap:round;stroke-linejoin:round;}.cls-6{stroke:#fff;stroke-width:1.05px;}.cls-7{stroke:#201a19;stroke-width:0.53px;}</style></defs><title>签到</title><g id="图层_2" data-name="图层 2"><g id="图层_1-2" data-name="图层 1"><path class="cls-1" d="M40,79.5a39.5,39.5,0,0,1,0-79H155.5v79Z"/><path class="cls-2" d="M155,1V79H40A39,39,0,1,1,40,1H155m1-1H40A40.12,40.12,0,0,0,0,40H0A40.12,40.12,0,0,0,40,80H156V0Z"/><path class="cls-3" d="M92.65,35.77A35.8,35.8,0,0,0,103,40.93l-.84,1.49A34.07,34.07,0,0,1,92.1,37.18,34.81,34.81,0,0,1,82,42.39l-.82-1.49a37.83,37.83,0,0,0,10.34-5.14Zm-7.73-2.38a20.92,20.92,0,0,1-2.11,3.31l-1.49-.94a17.6,17.6,0,0,0,3.24-6l1.68.36q-.19.62-.62,1.78h6.31v1.54H88.48a24.4,24.4,0,0,1,1,2.35l-1.58.58a23.55,23.55,0,0,0-1.1-2.93ZM99.4,44a25.88,25.88,0,0,1-2.3,5.38h5.16V51H82V49.38H95.25a31,31,0,0,0,2.47-5.83Zm-13.15-.17a26.61,26.61,0,0,1,1.87,4.49l-1.56.41a23.63,23.63,0,0,0-1.87-4.39ZM85.89,41H98.34v1.54H85.89Zm5.9,2.3a35.68,35.68,0,0,1,1.49,4.78l-1.54.41a31.64,31.64,0,0,0-1.54-4.68Zm3.24-10a19.22,19.22,0,0,1-1.39,2.35l-1.46-.94a15.28,15.28,0,0,0,2.45-5.09l1.66.36q-.19.62-.58,1.78h7v1.54H98.89A16.27,16.27,0,0,1,100.14,36l-1.58.58a33.87,33.87,0,0,0-1.44-3.14Z"/><path class="cls-3" d="M117.66,49.5q-5.83,1.2-12,2l-.38-1.66q3.14-.36,5.62-.74V44.53h-4.68V42.85h4.68V40.06h1.73v2.78H117v1.68h-4.32v4.25q2.28-.38,5-1Zm-12-18.65h11.93v1.63H111.4a26.59,26.59,0,0,1-3.24,5.42Q112,37.52,115,37q-.7-1.13-1.78-2.62l1.32-.86a45.27,45.27,0,0,1,3.7,5.66l-1.44,1q-.5-1-1-1.9-4.66.82-10,1.34l-.41-1.56a2.53,2.53,0,0,0,.7-.17,18.68,18.68,0,0,0,3.53-5.42h-3.94ZM119.54,32h1.68V46.88h-1.68Zm.84,19.56L120,49.9q2.3.1,3.31.1a.92.92,0,0,0,1-1.06V29.86h1.75V49.38a1.94,1.94,0,0,1-2.18,2.21Z"/><path class="cls-3" d="M75.89,19.39c-4.38-5.86-13.65-7.6-17.71-4.28A12,12,0,0,0,54,21.42a27.65,27.65,0,0,0-9.69-1.56,27.69,27.69,0,0,0-9.77,1.59,12,12,0,0,0-4.15-6.34c-4.06-3.32-13.33-1.58-17.71,4.28S8.2,32.63,16.41,38.72l.08-.07C12.1,50.55,14.18,66.58,31.64,70.3a64.52,64.52,0,0,0,25.4,0C74.49,66.58,76.59,50.6,72.22,38.7,80.41,32.62,80.35,25.35,75.89,19.39Z"/><path class="cls-4" d="M74.27,20.57c-4.15-5.56-13-7.21-16.8-4.06a11.4,11.4,0,0,0-3.93,6A26.23,26.23,0,0,0,44.34,21a26.27,26.27,0,0,0-9.27,1.51,11.4,11.4,0,0,0-3.94-6c-3.85-3.15-12.65-1.5-16.8,4.06S10,33.14,17.84,38.92l.08-.07c-4.16,11.29-2.19,26.49,14.38,30a61.21,61.21,0,0,0,24.1,0c16.55-3.52,18.54-18.69,14.4-30C78.56,33.13,78.5,26.23,74.27,20.57Z"/><path class="cls-3" d="M63.73,30.88a27.19,27.19,0,0,0-38.77,0c-8.84,8.84-12.11,32,8.19,36.34a56.87,56.87,0,0,0,22.4,0C75.84,62.9,72.57,39.72,63.73,30.88Z"/><circle class="cls-4" cx="28.59" cy="49.71" r="7.71"/><circle class="cls-3" cx="32.27" cy="47.55" r="2.08"/><circle class="cls-3" cx="30.36" cy="50.96" r="0.87"/><circle class="cls-4" cx="60.09" cy="49.71" r="7.71"/><ellipse class="cls-4" cx="44.34" cy="50.03" rx="1.23" ry="0.95"/><ellipse class="cls-5" cx="25.57" cy="59.36" rx="1.97" ry="0.79"/><ellipse class="cls-5" cx="63.11" cy="59.36" rx="1.97" ry="0.79"/><path class="cls-5" d="M45.43,54.39l-1-.31v0H44.3v0l-1,.31s-4.23,6,1,6h.08C49.66,60.37,45.43,54.39,45.43,54.39Z"/><path class="cls-6" d="M63.54,51.87a12.66,12.66,0,0,0-5.81-.56c-3,.49,2.86-4.23,6.14-2.17"/><path class="cls-7" d="M39.53,53.43a3.46,3.46,0,0,0,4.81.5"/><path class="cls-7" d="M49.16,53.43a3.46,3.46,0,0,1-4.81.5"/></g></g></svg>