<svg xmlns="http://www.w3.org/2000/svg" width="23.406" height="12.875" viewBox="0 0 23.406 12.875">
  <defs>
    <style>
      .cls-1 {
        fill: #ccc;
        fill-rule: evenodd;
      }
    </style>
  </defs>
  <path id="上.svg" class="cls-1" d="M697.789,599.085a0.942,0.942,0,0,1,.087-0.051,1.505,1.505,0,0,1,1.685.277l10.159,10.146a1.327,1.327,0,0,1-.057,1.95,1.522,1.522,0,0,1-2.064-.054l-9.117-9.1-9.253,9.068a1.522,1.522,0,0,1-2.064.036,1.327,1.327,0,0,1-.038-1.95l10.259-10.054c0.021-.02.049-0.027,0.07-0.046s0.025-.03.041-0.045a1.4,1.4,0,0,1,.292-0.173h0Z" transform="translate(-686.719 -598.906)"/>
</svg>
