<svg xmlns="http://www.w3.org/2000/svg" width="273" height="119" viewBox="0 0 273 119"><defs><style>.cls-1,.cls-3{fill:#fddc00;}.cls-1,.cls-2{stroke:#000;stroke-miterlimit:10;stroke-width:3px;}.cls-2{fill:#fff;}</style></defs><title>寄送-1</title><g id="图层_2" data-name="图层 2"><g id="图层_1-2" data-name="图层 1"><rect class="cls-1" x="11.5" y="17.5" width="260" height="100" rx="13.75" ry="13.75"/><polygon points="253.84 18.11 271 30.07 271 28.18 256.55 18.11 253.84 18.11"/><polygon points="241.04 18.11 271 39 271 37.12 243.75 18.11 241.04 18.11"/><polygon points="228.83 18.11 271 47.52 271 45.63 231.54 18.11 228.83 18.11"/><polygon points="215.05 18.11 271 57.13 271 55.24 217.76 18.11 215.05 18.11"/><polygon points="202.84 18.11 271 65.64 271 63.76 205.55 18.11 202.84 18.11"/><polygon points="190.89 18.11 271 73.98 271 72.09 193.6 18.11 190.89 18.11"/><polygon points="178.68 18.11 271 82.5 271 80.61 181.39 18.11 178.68 18.11"/><polygon points="164.9 18.11 271 92.11 271 90.22 167.61 18.11 164.9 18.11"/><polygon points="152.7 18.11 271 100.62 271 98.73 155.41 18.11 152.7 18.11"/><path d="M139.11,18.11,270,109.39a14,14,0,0,0,.51-1.54L141.82,18.11Z"/><path d="M125.33,18.11l139.81,97.51a14.23,14.23,0,0,0,1.25-1L128,18.11Z"/><polygon points="113.13 18.11 255.29 117.26 258 117.26 115.83 18.11 113.13 18.11"/><polygon points="101.17 18.11 243.34 117.26 246.05 117.26 103.88 18.11 101.17 18.11"/><polygon points="88.97 18.11 231.13 117.26 233.84 117.26 91.67 18.11 88.97 18.11"/><polygon points="75.19 18.11 217.35 117.26 220.06 117.26 77.9 18.11 75.19 18.11"/><polygon points="62.98 18.11 205.14 117.26 207.85 117.26 65.69 18.11 62.98 18.11"/><polygon points="48.19 18.11 190.35 117.26 193.06 117.26 50.9 18.11 48.19 18.11"/><polygon points="36.24 18.11 178.4 117.26 181.11 117.26 38.95 18.11 36.24 18.11"/><polygon points="24.03 18.11 166.19 117.26 168.9 117.26 26.74 18.11 24.03 18.11"/><path d="M155.13,117.26,14.06,18.87a14.24,14.24,0,0,0-.83,1.31l139.18,97.08Z"/><path d="M142.92,117.26,11.57,25.65c0,.43-.07.86-.07,1.29v.55l128.71,89.77Z"/><polygon points="129.7 117.26 11.5 34.82 11.5 36.71 126.99 117.26 129.7 117.26"/><polygon points="117.75 117.26 11.5 43.16 11.5 45.05 115.04 117.26 117.75 117.26"/><polygon points="105.54 117.26 11.5 51.67 11.5 53.56 102.83 117.26 105.54 117.26"/><polygon points="91.76 117.26 11.5 61.28 11.5 63.17 89.05 117.26 91.76 117.26"/><polygon points="79.55 117.26 11.5 69.8 11.5 71.69 76.84 117.26 79.55 117.26"/><polygon points="66.75 117.26 11.5 78.73 11.5 80.62 64.04 117.26 66.75 117.26"/><polygon points="54.54 117.26 11.5 87.25 11.5 89.14 51.83 117.26 54.54 117.26"/><polygon points="40.76 117.26 11.5 96.86 11.5 98.75 38.05 117.26 40.76 117.26"/><path d="M28.55,117.26l-17-11.85a14,14,0,0,0,.36,2.14l13.92,9.71Z"/><rect class="cls-2" x="1.5" y="1.5" width="260" height="100" rx="13.75" ry="13.75"/><path class="cls-3" d="M124.13,55.28V68.38A1.44,1.44,0,0,1,122.49,70h-5.8a1.43,1.43,0,0,1-1.62-1.62V55.8a1.44,1.44,0,0,0-1.64-1.62H89.7q-1.62,0-1.62-1.43v-.35Q88.07,51,89.7,51h34.59q1.62,0,1.62,1.43v.68a1,1,0,0,1-.88,1.09A1,1,0,0,0,124.13,55.28ZM96.34,43l.27-.27a3.66,3.66,0,0,1,2.56-.76h6.29q.57,0,.57.47a.53.53,0,0,1-.14.29.68.68,0,0,0-.12.33q0,.45.55.45h17.52q1.62,0,1.62,1.43v.35A1.27,1.27,0,0,1,124,46.68h-.25a.63.63,0,0,0-.7.72.71.71,0,0,0,.2.49l1,1.05a.83.83,0,0,1,.29.57q0,.68-.82.68h-5.92a3.85,3.85,0,0,1-1.5-.21,3.48,3.48,0,0,1-1.07-.9l-1.5-1.74a1.57,1.57,0,0,0-1.5-.66H103a2.5,2.5,0,0,0-.82.1,2.43,2.43,0,0,0-.64.53l-1.7,1.78a3.51,3.51,0,0,1-1.45,1,5.33,5.33,0,0,1-1.27.1H90.42q-.78,0-.78-.64a.83.83,0,0,1,.29-.57l1-.92a1,1,0,0,0,.37-.64.67.67,0,0,0-.76-.74h-.35q-1.5,0-1.5-1.43v-.35q0-1.43,1.64-1.43H95A1.86,1.86,0,0,0,96.34,43Zm6.84-7.09h7.77q.84,0,.92.74a.8.8,0,0,0,.92.76h11A1.44,1.44,0,0,1,125.38,39V40.9a1.45,1.45,0,0,1-1.64,1.64h-5.33a.9.9,0,0,1-1-.86.9.9,0,0,0-1-.84H97.74a.9.9,0,0,0-1,.84.9.9,0,0,1-1,.86H90.34A1.45,1.45,0,0,1,88.7,40.9V39a1.44,1.44,0,0,1,1.64-1.62h11a.81.81,0,0,0,.92-.76A.78.78,0,0,1,103.17,35.88Zm9.77,21.33v11a1.44,1.44,0,0,1-1.64,1.62H91.8a1.43,1.43,0,0,1-1.62-1.62v-11a1.43,1.43,0,0,1,1.62-1.62H111.3A1.44,1.44,0,0,1,112.94,57.21Zm-10.18,1.31h-2.42a1.43,1.43,0,0,0-1.62,1.62v5.14a1.44,1.44,0,0,0,1.62,1.64h2.42a1.45,1.45,0,0,0,1.64-1.64V60.14A1.44,1.44,0,0,0,102.76,58.52Z"/><path class="cls-3" d="M140.36,66.16h23.85q1.62,0,1.62,1.5v.72q0,1.5-1.62,1.5H131.82a1.43,1.43,0,0,1-1.62-1.62v-18A1.15,1.15,0,0,0,129.13,49a1.14,1.14,0,0,1-1.07-1.31v-.92q0-1.5,1.62-1.5h7.42a1.44,1.44,0,0,1,1.64,1.62V64.54A1.43,1.43,0,0,0,140.36,66.16ZM130.09,41l-1-3.46a2.87,2.87,0,0,1-.08-.61q0-1,1.33-1h4.88a2,2,0,0,1,1.19.29,1.84,1.84,0,0,1,.61,1.05l1.07,3.5a2.29,2.29,0,0,1,.12.61q0,1-1.33,1h-5a2,2,0,0,1-1.19-.29A2,2,0,0,1,130.09,41ZM162,53.5l2.5,10.08a2.05,2.05,0,0,1,.1.57q0,1.07-1.37,1.07h-4.8a1.89,1.89,0,0,1-1.19-.31,1.94,1.94,0,0,1-.57-1.07l-2.58-11.17q-.27-1.11-1.15-1.11t-1.21,1.11l-3.36,11.21a2,2,0,0,1-.62,1.07,2.08,2.08,0,0,1-1.2.27h-5.41q-1.31,0-1.31-1a2.31,2.31,0,0,1,.1-.61l3-10a2.67,2.67,0,0,0,.14-.74,1.23,1.23,0,0,0-.53-1,1.5,1.5,0,0,0-.9-.25H141q-1.58,0-1.58-1.46v-.55q0-1.46,1.64-1.46h2.3A1.44,1.44,0,0,0,145,46.86l.88-2.93a2.67,2.67,0,0,0,.14-.74q0-1.27-1.62-1.27h-3q-1.62,0-1.62-1.46v-.53a1.28,1.28,0,0,1,1.43-1.46h.27a1,1,0,0,0,.65-.25.77.77,0,0,0,.28-.59,1.57,1.57,0,0,0-.1-.47,1.39,1.39,0,0,1-.1-.45q0-.84,1.07-.84h4.16a2.77,2.77,0,0,1,1.29.23,2.21,2.21,0,0,1,.72.8l.39.68a1.76,1.76,0,0,0,.61.7,2.07,2.07,0,0,0,1,.18h2.7a1.66,1.66,0,0,0,1.58-.9l.35-.66a2.19,2.19,0,0,1,.72-.8,2.65,2.65,0,0,1,1.27-.23h4q1.11,0,1.11.88a1.17,1.17,0,0,1-.12.41,1.57,1.57,0,0,0-.1.47.81.81,0,0,0,.31.63.88.88,0,0,0,.59.21h.23q1.41,0,1.41,1.46v.53q0,1.46-1.64,1.46h-7.6a1.84,1.84,0,0,0-1.09.27,1.8,1.8,0,0,0-.57,1l-.86,2.95a2.67,2.67,0,0,0-.14.74q0,1.25,1.62,1.25h9q1.62,0,1.62,1.46v.55q0,1.46-1.6,1.46h-.84a1.43,1.43,0,0,0-1,.33,1.23,1.23,0,0,0-.43.94A2.9,2.9,0,0,0,162,53.5Z"/><path d="M121.13,53.28V66.38A1.44,1.44,0,0,1,119.49,68h-5.8a1.43,1.43,0,0,1-1.62-1.62V53.8a1.44,1.44,0,0,0-1.64-1.62H86.7q-1.62,0-1.62-1.43v-.35Q85.07,49,86.7,49h34.59q1.62,0,1.62,1.43v.68a1,1,0,0,1-.88,1.09A1,1,0,0,0,121.13,53.28ZM93.34,41l.27-.27a3.66,3.66,0,0,1,2.56-.76h6.29q.57,0,.57.47a.53.53,0,0,1-.14.29.68.68,0,0,0-.12.33q0,.45.55.45h17.52q1.62,0,1.62,1.43v.35A1.27,1.27,0,0,1,121,44.68h-.25a.63.63,0,0,0-.7.72.71.71,0,0,0,.2.49l1,1.05a.83.83,0,0,1,.29.57q0,.68-.82.68h-5.92a3.85,3.85,0,0,1-1.5-.21,3.48,3.48,0,0,1-1.07-.9l-1.5-1.74a1.57,1.57,0,0,0-1.5-.66H100a2.5,2.5,0,0,0-.82.1,2.43,2.43,0,0,0-.64.53l-1.7,1.78a3.51,3.51,0,0,1-1.45,1,5.33,5.33,0,0,1-1.27.1H87.42q-.78,0-.78-.64a.83.83,0,0,1,.29-.57l1-.92a1,1,0,0,0,.37-.64.67.67,0,0,0-.76-.74h-.35q-1.5,0-1.5-1.43v-.35q0-1.43,1.64-1.43H92A1.86,1.86,0,0,0,93.34,41Zm6.84-7.09h7.77q.84,0,.92.74a.8.8,0,0,0,.92.76h11A1.44,1.44,0,0,1,122.38,37V38.9a1.45,1.45,0,0,1-1.64,1.64h-5.33a.9.9,0,0,1-1-.86.9.9,0,0,0-1-.84H94.74a.9.9,0,0,0-1,.84.9.9,0,0,1-1,.86H87.34A1.45,1.45,0,0,1,85.7,38.9V37a1.44,1.44,0,0,1,1.64-1.62h11a.81.81,0,0,0,.92-.76A.78.78,0,0,1,100.17,33.88Zm9.77,21.33v11a1.44,1.44,0,0,1-1.64,1.62H88.8a1.43,1.43,0,0,1-1.62-1.62v-11a1.43,1.43,0,0,1,1.62-1.62H108.3A1.44,1.44,0,0,1,109.94,55.21ZM99.76,56.52H97.34a1.43,1.43,0,0,0-1.62,1.62v5.14a1.44,1.44,0,0,0,1.62,1.64h2.42a1.45,1.45,0,0,0,1.64-1.64V58.14A1.44,1.44,0,0,0,99.76,56.52Z"/><path d="M137.36,64.16h23.85q1.62,0,1.62,1.5v.72q0,1.5-1.62,1.5H128.82a1.43,1.43,0,0,1-1.62-1.62v-18A1.15,1.15,0,0,0,126.13,47a1.14,1.14,0,0,1-1.07-1.31v-.92q0-1.5,1.62-1.5h7.42a1.44,1.44,0,0,1,1.64,1.62V62.54A1.43,1.43,0,0,0,137.36,64.16ZM127.09,39l-1-3.46a2.87,2.87,0,0,1-.08-.61q0-1,1.33-1h4.88a2,2,0,0,1,1.19.29,1.84,1.84,0,0,1,.61,1.05l1.07,3.5a2.29,2.29,0,0,1,.12.61q0,1-1.33,1h-5a2,2,0,0,1-1.19-.29A2,2,0,0,1,127.09,39ZM159,51.5l2.5,10.08a2.05,2.05,0,0,1,.1.57q0,1.07-1.37,1.07h-4.8a1.89,1.89,0,0,1-1.19-.31,1.94,1.94,0,0,1-.57-1.07l-2.58-11.17q-.27-1.11-1.15-1.11t-1.21,1.11l-3.36,11.21a2,2,0,0,1-.62,1.07,2.08,2.08,0,0,1-1.2.27h-5.41q-1.31,0-1.31-1a2.31,2.31,0,0,1,.1-.61l3-10a2.67,2.67,0,0,0,.14-.74,1.23,1.23,0,0,0-.53-1,1.5,1.5,0,0,0-.9-.25H138q-1.58,0-1.58-1.46v-.55q0-1.46,1.64-1.46h2.3A1.44,1.44,0,0,0,142,44.86l.88-2.93a2.67,2.67,0,0,0,.14-.74q0-1.27-1.62-1.27h-3q-1.62,0-1.62-1.46v-.53a1.28,1.28,0,0,1,1.43-1.46h.27a1,1,0,0,0,.65-.25.77.77,0,0,0,.28-.59,1.57,1.57,0,0,0-.1-.47,1.39,1.39,0,0,1-.1-.45q0-.84,1.07-.84h4.16a2.77,2.77,0,0,1,1.29.23,2.21,2.21,0,0,1,.72.8l.39.68a1.76,1.76,0,0,0,.61.7,2.07,2.07,0,0,0,1,.18h2.7a1.66,1.66,0,0,0,1.58-.9l.35-.66a2.19,2.19,0,0,1,.72-.8,2.65,2.65,0,0,1,1.27-.23h4q1.11,0,1.11.88a1.17,1.17,0,0,1-.12.41,1.57,1.57,0,0,0-.1.47.81.81,0,0,0,.31.63.88.88,0,0,0,.59.21h.23q1.41,0,1.41,1.46v.53q0,1.46-1.64,1.46h-7.6a1.84,1.84,0,0,0-1.09.27,1.8,1.8,0,0,0-.57,1l-.86,2.95a2.67,2.67,0,0,0-.14.74q0,1.25,1.62,1.25h9q1.62,0,1.62,1.46v.55q0,1.46-1.6,1.46h-.84a1.43,1.43,0,0,0-1,.33,1.23,1.23,0,0,0-.43.94A2.9,2.9,0,0,0,159,51.5Z"/></g></g></svg>