<svg xmlns="http://www.w3.org/2000/svg" width="273.75" height="119.5" viewBox="0 0 273.75 119.5"><defs><style>.cls-1,.cls-3{fill:#fddc00;}.cls-1,.cls-2{stroke:#000;stroke-miterlimit:10;stroke-width:3px;}.cls-2{fill:#ccc;}</style></defs><title>折算-2</title><g id="图层_2" data-name="图层 2"><g id="图层_1-2" data-name="图层 1"><rect class="cls-1" x="12.25" y="18" width="260" height="100" rx="13.75" ry="13.75"/><polygon points="254.63 18.53 271.75 30.48 271.75 28.59 257.33 18.53 254.63 18.53"/><polygon points="241.85 18.53 271.75 39.39 271.75 37.51 244.55 18.53 241.85 18.53"/><polygon points="229.66 18.53 271.75 47.89 271.75 46 232.37 18.53 229.66 18.53"/><polygon points="215.91 18.53 271.75 57.48 271.75 55.59 218.61 18.53 215.91 18.53"/><polygon points="203.72 18.53 271.75 65.98 271.75 64.09 206.43 18.53 203.72 18.53"/><polygon points="191.79 18.53 271.75 74.3 271.75 72.41 194.5 18.53 191.79 18.53"/><polygon points="179.61 18.53 271.75 82.8 271.75 80.91 182.31 18.53 179.61 18.53"/><polygon points="165.86 18.53 271.75 92.39 271.75 90.5 168.56 18.53 165.86 18.53"/><polygon points="153.67 18.53 271.75 100.89 271.75 99 156.38 18.53 153.67 18.53"/><path d="M140.12,18.53l130.63,91.11a14,14,0,0,0,.51-1.53L142.82,18.53Z"/><path d="M126.36,18.53,265.9,115.86a14.2,14.2,0,0,0,1.24-1L129.07,18.53Z"/><polygon points="114.18 18.53 256.07 117.5 258.77 117.5 116.88 18.53 114.18 18.53"/><polygon points="102.25 18.53 244.14 117.5 246.84 117.5 104.95 18.53 102.25 18.53"/><polygon points="90.07 18.53 231.96 117.5 234.66 117.5 92.77 18.53 90.07 18.53"/><polygon points="76.31 18.53 218.21 117.5 220.91 117.5 79.02 18.53 76.31 18.53"/><polygon points="64.13 18.53 206.02 117.5 208.72 117.5 66.83 18.53 64.13 18.53"/><polygon points="49.37 18.53 191.26 117.5 193.96 117.5 52.07 18.53 49.37 18.53"/><polygon points="37.44 18.53 179.33 117.5 182.03 117.5 40.14 18.53 37.44 18.53"/><polygon points="25.26 18.53 167.15 117.5 169.85 117.5 27.96 18.53 25.26 18.53"/><path d="M156.1,117.5,15.31,19.3a14.21,14.21,0,0,0-.83,1.31L153.39,117.5Z"/><path d="M143.91,117.5,12.82,26.06c0,.43-.07.85-.07,1.29v.55l128.46,89.6Z"/><polygon points="130.72 117.5 12.75 35.22 12.75 37.1 128.02 117.5 130.72 117.5"/><polygon points="118.79 117.5 12.75 43.54 12.75 45.42 116.09 117.5 118.79 117.5"/><polygon points="106.61 117.5 12.75 52.04 12.75 53.92 103.9 117.5 106.61 117.5"/><polygon points="92.86 117.5 12.75 61.63 12.75 63.51 90.15 117.5 92.86 117.5"/><polygon points="80.67 117.5 12.75 70.13 12.75 72.01 77.97 117.5 80.67 117.5"/><polygon points="67.89 117.5 12.75 79.04 12.75 80.93 65.19 117.5 67.89 117.5"/><polygon points="55.71 117.5 12.75 87.54 12.75 89.42 53 117.5 55.71 117.5"/><polygon points="41.95 117.5 12.75 97.13 12.75 99.02 39.25 117.5 41.95 117.5"/><path d="M29.77,117.5l-17-11.83a13.94,13.94,0,0,0,.36,2.13l13.9,9.69Z"/><rect class="cls-2" x="1.5" y="1.5" width="260" height="100" rx="13.75" ry="13.75"/><path class="cls-3" d="M50.11,39.18v-.39a1.43,1.43,0,0,1,1.62-1.62H70.07q1.62,0,1.62,1.5v.72q0,1.5-1.62,1.5H60.8a1.43,1.43,0,0,0-1.62,1.62v2a1.43,1.43,0,0,0,1.62,1.62h8.5a1.44,1.44,0,0,1,1.64,1.62v21a1.44,1.44,0,0,1-1.64,1.62H64a1.43,1.43,0,0,1-1.62-1.62V51.27q0-1.62-1.43-1.62H60.6q-1.43,0-1.43,1.62V68.8a1.44,1.44,0,0,1-1.64,1.62h-5.8a1.43,1.43,0,0,1-1.62-1.62V41.4a1.42,1.42,0,0,1-1.39.76H48q-1.5,0-1.5,1.62v3.5q0,1.35,1.05,1.35a1.78,1.78,0,0,0,.35,0l.39,0a1,1,0,0,1,.74.35,1.42,1.42,0,0,1,.27,1v1a1.6,1.6,0,0,1-1.15,1.76l-.55.16a1.51,1.51,0,0,0-1.11,1.62V68.88a1.44,1.44,0,0,1-1.64,1.62H35.8q-1.62,0-1.62-1.5v-.72q0-1.5,1.43-1.5H36q1.45,0,1.45-1.62v-7.3q0-1.64-1.33-1.64a1.52,1.52,0,0,0-.43.08l-.35.1a1.81,1.81,0,0,1-.49.08q-1.05,0-1.05-1.31V54.06a1.56,1.56,0,0,1,1.31-1.8l1.09-.31a1.82,1.82,0,0,0,1-.55,1.87,1.87,0,0,0,.27-1.11v-6.5q0-1.62-1.5-1.62h-.62a1.34,1.34,0,0,1-1.5-1.52v-.7a1.33,1.33,0,0,1,1.5-1.5h.88a1.08,1.08,0,0,0,1.25-1,1.07,1.07,0,0,1,1.23-1h6.6a1.07,1.07,0,0,1,1.23,1,1.07,1.07,0,0,0,1.23,1h1A1.43,1.43,0,0,1,50.11,39.18Z"/><path class="cls-3" d="M108.41,60.78h1.68q1.56,0,1.56,1.43v.35q0,1.43-1.56,1.43h-1q-1.58,0-1.58,1.64v3.24a1.44,1.44,0,0,1-1.62,1.64h-5.82a1.44,1.44,0,0,1-1.62-1.64V65.62A1.45,1.45,0,0,0,96.85,64H89.08a1.44,1.44,0,0,0-1.62,1.64v3.24a1.45,1.45,0,0,1-1.64,1.64H80a1.44,1.44,0,0,1-1.62-1.64V65.62A1.45,1.45,0,0,0,76.75,64H75.48q-1.62,0-1.62-1.43V62.2q0-1.43,1.62-1.43h2a.77.77,0,0,0,.88-.7.75.75,0,0,1,.86-.7H86.6a.75.75,0,0,1,.86.7.75.75,0,0,0,.86.7h9.32a.75.75,0,0,0,.86-.7.75.75,0,0,1,.86-.7h7.34a.75.75,0,0,1,.86.7A.75.75,0,0,0,108.41,60.78ZM91.23,41.29l.27.57a1.16,1.16,0,0,1,.1.45q0,1-1.17,1H87.52a1.89,1.89,0,0,1-1.89-1.11L85.13,41a.92.92,0,0,0-.84-.64,1.15,1.15,0,0,0-.94.63l-.66,1a2,2,0,0,1-.78.8,2.76,2.76,0,0,1-1.31.23H75.93q-1,0-1-.84a1.1,1.1,0,0,1,.25-.61l2.15-3.24a2.18,2.18,0,0,1,2.27-1.21H91.23q1.62,0,1.62,1.43v.55a1.11,1.11,0,0,1-1,1.23q-.66.08-.66.64A.63.63,0,0,0,91.23,41.29Zm-15,15.8V45.52a1.43,1.43,0,0,1,1.62-1.62h30.29a1.43,1.43,0,0,1,1.62,1.62V57.09a1.43,1.43,0,0,1-1.62,1.62H77.83A1.43,1.43,0,0,1,76.21,57.09Zm9.84-9H99.9q.78,0,.78-.62t-.78-.64H86.05q-.78,0-.78.64T86.05,48.1Zm.08,3.79H99.82q.86,0,.86-.7t-.86-.68H86.13q-.86,0-.86.7T86.13,51.89Zm.06,3.89H99.76q.92,0,.92-.74t-.92-.74H86.19q-.92,0-.92.74T86.19,55.78Zm23.42-14.43.27.53a1.1,1.1,0,0,1,.12.45q0,.94-1.15.94h-3.12a2.31,2.31,0,0,1-1.23-.25,1.87,1.87,0,0,1-.68-.86L103.3,41a.93.93,0,0,0-.86-.66,1.16,1.16,0,0,0-1,.64l-.76,1.19a2.22,2.22,0,0,1-.82.82,2.76,2.76,0,0,1-1.31.23H94.31q-1.07,0-1.07-.88a1.32,1.32,0,0,1,.21-.62l2-3.36a2.5,2.5,0,0,1,.86-1,2.7,2.7,0,0,1,1.29-.23h12.07q1.64,0,1.64,1.43v.51a1.15,1.15,0,0,1-1.11,1.27q-.68.08-.68.66A.69.69,0,0,0,109.61,41.34Z"/><path class="cls-3" d="M137.77,57.61l-.16.08a1.2,1.2,0,0,1-.51.12q-.94,0-.94-1.17V55.23a1.91,1.91,0,0,1,1.05-1.89l.47-.21a1.3,1.3,0,0,0,.88-1.21,3.82,3.82,0,0,0,0-.55l-1.07-6.87a1.52,1.52,0,0,0-1.66-1.43H125.6q-1.64,0-1.64,1.58v1a1.43,1.43,0,0,0,1.64,1.6h8.87a1.43,1.43,0,0,1,1.62,1.62V68.84a1.43,1.43,0,0,1-1.62,1.62h-5a1.43,1.43,0,0,1-1.62-1.62V52.38q0-1.64-1.54-1.64h-.78q-1.54,0-1.54,1.64V68.84a1.43,1.43,0,0,1-1.62,1.62H117a1.43,1.43,0,0,1-1.62-1.62V41A1.43,1.43,0,0,1,117,39.33h17.81q1.5,0,1.56-1.29v-.2l0-.06a1.35,1.35,0,0,1,0-.21q0-1.21,1.46-1.21h4.47a1.5,1.5,0,0,1,1.7,1.25l.08.49a1.31,1.31,0,0,0,1.41,1.23h.31a.91.91,0,0,0,1-1q0-1,1.11-1h1.48a1.54,1.54,0,0,1,1.7,1.46l.41,2.68a4.59,4.59,0,0,1,0,.49q0,1.17-1.46,1.17h-3.24q-1.62,0-1.62,1.27a3.68,3.68,0,0,0,.06.59l.47,2.62q.25,1.39,1.29,1.39a2.27,2.27,0,0,0,.88-.23l2-.86a1.84,1.84,0,0,1,.64-.16q.94,0,.94,1.21v1.29a2.38,2.38,0,0,1-.25,1.23,2.25,2.25,0,0,1-1,.72l-2.15.94q-1.07.47-1.07,1.29a3.32,3.32,0,0,0,.08.59l2.46,13.89a2.64,2.64,0,0,1,.06.51q0,1.13-1.45,1.13H143a1.54,1.54,0,0,1-1.7-1.46L139.7,58.9q-.22-1.43-1.37-1.43A1.34,1.34,0,0,0,137.77,57.61Z"/><path class="cls-3" d="M169.57,69.76a1.72,1.72,0,0,1-1.33.49H155.45q-1.62,0-1.62-1.46v-.53q0-1.48,1.54-1.48h.86q1.56,0,1.56-1.62V54.55q0-1.64-1.48-1.64h-.57a1.29,1.29,0,0,1-1.46-1.46v-.53a1.29,1.29,0,0,1,1.46-1.46h.57q1.48,0,1.48-1.64V42q0-1.62-1.54-1.62h-.78q-1.54,0-1.54-1.46v-.53q0-1.46,1.62-1.46h12.58q1.64,0,1.64,1.46v.53q0,1.46-1.58,1.46h-.8A1.42,1.42,0,0,0,165.8,42v5.8q0,1.64,1.39,1.64h.23q1.39,0,1.39,1.46v.53q0,1.46-1.39,1.46h-.23q-1.39,0-1.39,1.64V65.15a1.43,1.43,0,0,0,1.62,1.62h.82q1.62,0,1.62,1.48v.1l2.71-7.25a2,2,0,0,0,.18-.74,1,1,0,0,0-.45-.84,1.11,1.11,0,0,0-.72-.25h-.25q-1.45,0-1.45-1.62V38.79a1.43,1.43,0,0,1,1.62-1.62h17.89A1.44,1.44,0,0,1,191,38.79V57.65a1.44,1.44,0,0,1-1.64,1.62h-4.2a1.43,1.43,0,0,1-1.62-1.62V42.52a1.44,1.44,0,0,0-1.64-1.62h-3a1.43,1.43,0,0,0-1.62,1.62v8.85A1.44,1.44,0,0,0,179,53h2.09q1.31,0,1.31,1a2,2,0,0,1-.14.63l-4.79,14.55a1.59,1.59,0,0,1-1.84,1.33h-4.82A1.15,1.15,0,0,1,169.57,69.76Zm13.3-9.37h3.67A1.44,1.44,0,0,1,188.18,62v3.4q0,1.62,1.46,1.62h.55a1.3,1.3,0,0,1,1.46,1.48V69q0,1.46-1.62,1.46h-7.17a1.43,1.43,0,0,1-1.62-1.62V62A1.43,1.43,0,0,1,182.87,60.39Z"/><path class="cls-3" d="M217.55,51.19v.47q0,1.45,1.62,1.45H229.8q1.62,0,1.62,1.46v.53q0,1.46-1.62,1.46H219.18a1.44,1.44,0,0,0-1.62,1.64v7.29q0,1.5,1.23,1.5H219a1.5,1.5,0,0,0,1.46-1.19l2.13-6.25a2,2,0,0,1,.64-1,2.09,2.09,0,0,1,1.19-.27h4.41q1.31,0,1.31,1a2.31,2.31,0,0,1-.12.63L228.38,65a2.56,2.56,0,0,0-.16.78,1.17,1.17,0,0,0,.51,1,1.33,1.33,0,0,0,.88.29h.51q1.54,0,1.54,1.46V69q0,1.46-1.62,1.46H195.66Q194,70.45,194,69v-.53q0-1.46,1.6-1.46h.72a1.33,1.33,0,0,0,1-.39,1.19,1.19,0,0,0,.39-.86,2.43,2.43,0,0,0-.18-.84l-1.89-5.06a2,2,0,0,1-.14-.62q0-1,1.27-1h4.38a1.71,1.71,0,0,1,1.91,1.29l2.46,6.33A1.5,1.5,0,0,0,207,67h.14q1.09,0,1.09-1.35V58.2a1.44,1.44,0,0,0-1.62-1.64H196q-1.64,0-1.64-1.46v-.53q0-1.46,1.64-1.46H206.6q1.62,0,1.62-1.45v-.47q0-1.44-1.62-1.45h-9.94q-1.62,0-1.62-1.46v-.53q0-1.46,1.62-1.46h32.79q1.64,0,1.64,1.46v.53q0,1.46-1.64,1.46H219.18Q217.55,49.74,217.55,51.19Zm-23-7.64,2.64-5.16a1.88,1.88,0,0,1,2.05-1.25h26.15a2.76,2.76,0,0,1,1.31.23,2.86,2.86,0,0,1,.88,1l3.22,5.23a1.25,1.25,0,0,1,.23.63q0,.86-1.05.86h-6.68a2.76,2.76,0,0,1-1.31-.23,2.86,2.86,0,0,1-.88-1l-1.29-2.09a1.81,1.81,0,0,0-.64-.72,1.89,1.89,0,0,0-.94-.18h-11.6a1.94,1.94,0,0,0-1,.2,2,2,0,0,0-.62.82l-.94,1.93a2.49,2.49,0,0,1-.76,1,2.42,2.42,0,0,1-1.25.25H195.5q-1.15,0-1.15-.9A1.53,1.53,0,0,1,194.57,43.55Z"/><path d="M47.11,37.18v-.39a1.43,1.43,0,0,1,1.62-1.62H67.07q1.62,0,1.62,1.5v.72q0,1.5-1.62,1.5H57.8a1.43,1.43,0,0,0-1.62,1.62v2a1.43,1.43,0,0,0,1.62,1.62h8.5a1.44,1.44,0,0,1,1.64,1.62v21a1.44,1.44,0,0,1-1.64,1.62H61a1.43,1.43,0,0,1-1.62-1.62V49.27q0-1.62-1.43-1.62H57.6q-1.43,0-1.43,1.62V66.8a1.44,1.44,0,0,1-1.64,1.62h-5.8a1.43,1.43,0,0,1-1.62-1.62V39.4a1.42,1.42,0,0,1-1.39.76H45q-1.5,0-1.5,1.62v3.5q0,1.35,1.05,1.35a1.78,1.78,0,0,0,.35,0l.39,0a1,1,0,0,1,.74.35,1.42,1.42,0,0,1,.27,1v1a1.6,1.6,0,0,1-1.15,1.76l-.55.16a1.51,1.51,0,0,0-1.11,1.62V66.88a1.44,1.44,0,0,1-1.64,1.62H32.8q-1.62,0-1.62-1.5v-.72q0-1.5,1.43-1.5H33q1.45,0,1.45-1.62v-7.3q0-1.64-1.33-1.64a1.52,1.52,0,0,0-.43.08l-.35.1a1.81,1.81,0,0,1-.49.08q-1.05,0-1.05-1.31V52.06a1.56,1.56,0,0,1,1.31-1.8l1.09-.31a1.82,1.82,0,0,0,1-.55,1.87,1.87,0,0,0,.27-1.11v-6.5q0-1.62-1.5-1.62h-.62a1.34,1.34,0,0,1-1.5-1.52v-.7a1.33,1.33,0,0,1,1.5-1.5h.88a1.08,1.08,0,0,0,1.25-1,1.07,1.07,0,0,1,1.23-1h6.6a1.07,1.07,0,0,1,1.23,1,1.07,1.07,0,0,0,1.23,1h1A1.43,1.43,0,0,1,47.11,37.18Z"/><path d="M105.41,58.78h1.68q1.56,0,1.56,1.43v.35q0,1.43-1.56,1.43h-1q-1.58,0-1.58,1.64v3.24a1.44,1.44,0,0,1-1.62,1.64H97.11a1.44,1.44,0,0,1-1.62-1.64V63.62A1.45,1.45,0,0,0,93.85,62H86.08a1.44,1.44,0,0,0-1.62,1.64v3.24a1.45,1.45,0,0,1-1.64,1.64H77a1.44,1.44,0,0,1-1.62-1.64V63.62A1.45,1.45,0,0,0,73.75,62H72.48q-1.62,0-1.62-1.43V60.2q0-1.43,1.62-1.43h2a.77.77,0,0,0,.88-.7.75.75,0,0,1,.86-.7H83.6a.75.75,0,0,1,.86.7.75.75,0,0,0,.86.7h9.32a.75.75,0,0,0,.86-.7.75.75,0,0,1,.86-.7h7.34a.75.75,0,0,1,.86.7A.75.75,0,0,0,105.41,58.78ZM88.23,39.29l.27.57a1.16,1.16,0,0,1,.1.45q0,1-1.17,1H84.52a1.89,1.89,0,0,1-1.89-1.11L82.13,39a.92.92,0,0,0-.84-.64,1.15,1.15,0,0,0-.94.63l-.66,1a2,2,0,0,1-.78.8,2.76,2.76,0,0,1-1.31.23H72.93q-1,0-1-.84a1.1,1.1,0,0,1,.25-.61l2.15-3.24a2.18,2.18,0,0,1,2.27-1.21H88.23q1.62,0,1.62,1.43v.55a1.11,1.11,0,0,1-1,1.23q-.66.08-.66.64A.63.63,0,0,0,88.23,39.29Zm-15,15.8V43.52a1.43,1.43,0,0,1,1.62-1.62h30.29a1.43,1.43,0,0,1,1.62,1.62V55.09a1.43,1.43,0,0,1-1.62,1.62H74.83A1.43,1.43,0,0,1,73.21,55.09Zm9.84-9H96.9q.78,0,.78-.62t-.78-.64H83.05q-.78,0-.78.64T83.05,46.1Zm.08,3.79H96.82q.86,0,.86-.7t-.86-.68H83.13q-.86,0-.86.7T83.13,49.89Zm.06,3.89H96.76q.92,0,.92-.74t-.92-.74H83.19q-.92,0-.92.74T83.19,53.78Zm23.42-14.43.27.53a1.1,1.1,0,0,1,.12.45q0,.94-1.15.94h-3.12a2.31,2.31,0,0,1-1.23-.25,1.87,1.87,0,0,1-.68-.86L100.3,39a.93.93,0,0,0-.86-.66,1.16,1.16,0,0,0-1,.64l-.76,1.19a2.22,2.22,0,0,1-.82.82,2.76,2.76,0,0,1-1.31.23H91.31q-1.07,0-1.07-.88a1.32,1.32,0,0,1,.21-.62l2-3.36a2.5,2.5,0,0,1,.86-1,2.7,2.7,0,0,1,1.29-.23h12.07q1.64,0,1.64,1.43v.51a1.15,1.15,0,0,1-1.11,1.27q-.68.08-.68.66A.69.69,0,0,0,106.61,39.34Z"/><path d="M134.77,55.61l-.16.08a1.2,1.2,0,0,1-.51.12q-.94,0-.94-1.17V53.23a1.91,1.91,0,0,1,1.05-1.89l.47-.21a1.3,1.3,0,0,0,.88-1.21,3.82,3.82,0,0,0,0-.55l-1.07-6.87a1.52,1.52,0,0,0-1.66-1.43H122.6q-1.64,0-1.64,1.58v1a1.43,1.43,0,0,0,1.64,1.6h8.87a1.43,1.43,0,0,1,1.62,1.62V66.84a1.43,1.43,0,0,1-1.62,1.62h-5a1.43,1.43,0,0,1-1.62-1.62V50.38q0-1.64-1.54-1.64h-.78q-1.54,0-1.54,1.64V66.84a1.43,1.43,0,0,1-1.62,1.62H114a1.43,1.43,0,0,1-1.62-1.62V39A1.43,1.43,0,0,1,114,37.33h17.81q1.5,0,1.56-1.29v-.2l0-.06a1.35,1.35,0,0,1,0-.21q0-1.21,1.46-1.21h4.47a1.5,1.5,0,0,1,1.7,1.25l.08.49a1.31,1.31,0,0,0,1.41,1.23h.31a.91.91,0,0,0,1-1q0-1,1.11-1h1.48a1.54,1.54,0,0,1,1.7,1.46l.41,2.68a4.59,4.59,0,0,1,0,.49q0,1.17-1.46,1.17h-3.24q-1.62,0-1.62,1.27a3.68,3.68,0,0,0,.06.59l.47,2.62q.25,1.39,1.29,1.39a2.27,2.27,0,0,0,.88-.23l2-.86a1.84,1.84,0,0,1,.64-.16q.94,0,.94,1.21v1.29a2.38,2.38,0,0,1-.25,1.23,2.25,2.25,0,0,1-1,.72l-2.15.94q-1.07.47-1.07,1.29a3.32,3.32,0,0,0,.08.59l2.46,13.89a2.64,2.64,0,0,1,.06.51q0,1.13-1.45,1.13H140a1.54,1.54,0,0,1-1.7-1.46L136.7,56.9q-.22-1.43-1.37-1.43A1.34,1.34,0,0,0,134.77,55.61Z"/><path d="M166.57,67.76a1.72,1.72,0,0,1-1.33.49H152.45q-1.62,0-1.62-1.46v-.53q0-1.48,1.54-1.48h.86q1.56,0,1.56-1.62V52.55q0-1.64-1.48-1.64h-.57a1.29,1.29,0,0,1-1.46-1.46v-.53a1.29,1.29,0,0,1,1.46-1.46h.57q1.48,0,1.48-1.64V40q0-1.62-1.54-1.62h-.78q-1.54,0-1.54-1.46v-.53q0-1.46,1.62-1.46h12.58q1.64,0,1.64,1.46v.53q0,1.46-1.58,1.46h-.8A1.42,1.42,0,0,0,162.8,40v5.8q0,1.64,1.39,1.64h.23q1.39,0,1.39,1.46v.53q0,1.46-1.39,1.46h-.23q-1.39,0-1.39,1.64V63.15a1.43,1.43,0,0,0,1.62,1.62h.82q1.62,0,1.62,1.48v.1l2.71-7.25a2,2,0,0,0,.18-.74,1,1,0,0,0-.45-.84,1.11,1.11,0,0,0-.72-.25h-.25q-1.45,0-1.45-1.62V36.79a1.43,1.43,0,0,1,1.62-1.62h17.89A1.44,1.44,0,0,1,188,36.79V55.65a1.44,1.44,0,0,1-1.64,1.62h-4.2a1.43,1.43,0,0,1-1.62-1.62V40.52a1.44,1.44,0,0,0-1.64-1.62h-3a1.43,1.43,0,0,0-1.62,1.62v8.85A1.44,1.44,0,0,0,176,51h2.09q1.31,0,1.31,1a2,2,0,0,1-.14.63l-4.79,14.55a1.59,1.59,0,0,1-1.84,1.33h-4.82A1.15,1.15,0,0,1,166.57,67.76Zm13.3-9.37h3.67A1.44,1.44,0,0,1,185.18,60v3.4q0,1.62,1.46,1.62h.55a1.3,1.3,0,0,1,1.46,1.48V67q0,1.46-1.62,1.46h-7.17a1.43,1.43,0,0,1-1.62-1.62V60A1.43,1.43,0,0,1,179.87,58.39Z"/><path d="M214.55,49.19v.47q0,1.45,1.62,1.45H226.8q1.62,0,1.62,1.46v.53q0,1.46-1.62,1.46H216.18a1.44,1.44,0,0,0-1.62,1.64v7.29q0,1.5,1.23,1.5H216a1.5,1.5,0,0,0,1.46-1.19l2.13-6.25a2,2,0,0,1,.64-1,2.09,2.09,0,0,1,1.19-.27h4.41q1.31,0,1.31,1a2.31,2.31,0,0,1-.12.63L225.38,63a2.56,2.56,0,0,0-.16.78,1.17,1.17,0,0,0,.51,1,1.33,1.33,0,0,0,.88.29h.51q1.54,0,1.54,1.46V67q0,1.46-1.62,1.46H192.66Q191,68.45,191,67v-.53q0-1.46,1.6-1.46h.72a1.33,1.33,0,0,0,1-.39,1.19,1.19,0,0,0,.39-.86,2.43,2.43,0,0,0-.18-.84l-1.89-5.06a2,2,0,0,1-.14-.62q0-1,1.27-1h4.38a1.71,1.71,0,0,1,1.91,1.29l2.46,6.33A1.5,1.5,0,0,0,204,65h.14q1.09,0,1.09-1.35V56.2a1.44,1.44,0,0,0-1.62-1.64H193q-1.64,0-1.64-1.46v-.53q0-1.46,1.64-1.46H203.6q1.62,0,1.62-1.45v-.47q0-1.44-1.62-1.45h-9.94q-1.62,0-1.62-1.46v-.53q0-1.46,1.62-1.46h32.79q1.64,0,1.64,1.46v.53q0,1.46-1.64,1.46H216.18Q214.55,47.74,214.55,49.19Zm-23-7.64,2.64-5.16a1.88,1.88,0,0,1,2.05-1.25h26.15a2.76,2.76,0,0,1,1.31.23,2.86,2.86,0,0,1,.88,1l3.22,5.23a1.25,1.25,0,0,1,.23.63q0,.86-1.05.86h-6.68a2.76,2.76,0,0,1-1.31-.23,2.86,2.86,0,0,1-.88-1l-1.29-2.09a1.81,1.81,0,0,0-.64-.72,1.89,1.89,0,0,0-.94-.18h-11.6a1.94,1.94,0,0,0-1,.2,2,2,0,0,0-.62.82l-.94,1.93a2.49,2.49,0,0,1-.76,1,2.42,2.42,0,0,1-1.25.25H192.5q-1.15,0-1.15-.9A1.53,1.53,0,0,1,191.57,41.55Z"/></g></g></svg>