<svg xmlns="http://www.w3.org/2000/svg" width="358" height="175" viewBox="0 0 358 175"><defs><style>.cls-1{opacity:0.2;}.cls-2{fill:#fdea8f;}.cls-3{fill:none;stroke:#ddcb74;stroke-miterlimit:10;stroke-width:1.09px;}.cls-4{fill:#e21c19;}</style></defs><title>券-50</title><g id="图层_2" data-name="图层 2"><g id="图层_1-2" data-name="图层 1"><g class="cls-1"><path d="M353,23a5,5,0,0,1,5-5V16a5,5,0,0,1,0-10V5a2,2,0,0,0-2-2H2A2,2,0,0,0,0,5V6A5,5,0,0,1,0,16v2A5,5,0,0,1,0,28v2A5,5,0,0,1,0,40v2A5,5,0,0,1,0,52v2A5,5,0,0,1,0,64v2A5,5,0,0,1,0,76v2A5,5,0,0,1,0,88v2a5,5,0,0,1,0,10v2a5,5,0,0,1,0,10v2a5,5,0,0,1,0,10v2a5,5,0,0,1,0,10v2a5,5,0,0,1,0,10v2a5,5,0,0,1,0,10v2a5,5,0,0,1,0,10v1a2,2,0,0,0,2,2H356a2,2,0,0,0,2-2v-1a5,5,0,0,1,0-10v-2a5,5,0,0,1,0-10v-2a5,5,0,0,1,0-10v-2a5,5,0,0,1,0-10v-2a5,5,0,0,1,0-10v-2a5,5,0,0,1,0-10v-2a5,5,0,0,1,0-10V88a5,5,0,0,1,0-10V76a5,5,0,0,1,0-10V64a5,5,0,0,1,0-10V52a5,5,0,0,1,0-10V40a5,5,0,0,1,0-10V28A5,5,0,0,1,353,23Z"/></g><path class="cls-2" d="M353,20a5,5,0,0,1,5-5V13a5,5,0,0,1,0-10V2a2,2,0,0,0-2-2H2A2,2,0,0,0,0,2V3A5,5,0,0,1,0,13v2A5,5,0,0,1,0,25v2A5,5,0,0,1,0,37v2A5,5,0,0,1,0,49v2A5,5,0,0,1,0,61v2A5,5,0,0,1,0,73v2A5,5,0,0,1,0,85v2A5,5,0,0,1,0,97v2a5,5,0,0,1,0,10v2a5,5,0,0,1,0,10v2a5,5,0,0,1,0,10v2a5,5,0,0,1,0,10v2a5,5,0,0,1,0,10v2a5,5,0,0,1,0,10v1a2,2,0,0,0,2,2H356a2,2,0,0,0,2-2v-1a5,5,0,0,1,0-10v-2a5,5,0,0,1,0-10v-2a5,5,0,0,1,0-10v-2a5,5,0,0,1,0-10v-2a5,5,0,0,1,0-10v-2a5,5,0,0,1,0-10V97a5,5,0,0,1,0-10V85a5,5,0,0,1,0-10V73a5,5,0,0,1,0-10V61a5,5,0,0,1,0-10V49a5,5,0,0,1,0-10V37a5,5,0,0,1,0-10V25A5,5,0,0,1,353,20Z"/><path class="cls-3" d="M339.5,152V19A8,8,0,0,1,332,11.5H25A8,8,0,0,1,17.5,19V152A8,8,0,0,1,25,159.5H332A8,8,0,0,1,339.5,152Z"/><path class="cls-4" d="M132.9,66.26v.95q0,2.64-3,2.64h-22q-3,0-3,2.92v6.61q0,2.92,3,2.92h21.94a2.58,2.58,0,0,1,2.92,2.92v27.32a2.58,2.58,0,0,1-2.92,2.92H92.12q-2.92,0-2.92-2.64v-.95q0-2.64,2.92-2.64h21.45q2.92,0,2.92-3V91.43a2.58,2.58,0,0,0-2.92-2.92h-22a2.58,2.58,0,0,1-2.92-2.92V66.54a2.58,2.58,0,0,1,2.92-2.92h38.36Q132.9,63.62,132.9,66.26Z"/><path class="cls-4" d="M137.43,112.45V66.5q0-2.92,3-2.92h38.32a2.58,2.58,0,0,1,2.92,2.92v45.95a2.58,2.58,0,0,1-2.92,2.92H140.39Q137.43,115.37,137.43,112.45Zm18.77-3.8h6.68q2.92,0,2.92-3V73.22a2.58,2.58,0,0,0-2.92-2.92h-6.68a2.58,2.58,0,0,0-2.92,2.92V105.7Q153.29,108.66,156.21,108.66Z"/><path class="cls-4" d="M198.53,112.91h-7.07a2.61,2.61,0,0,1-3-3v-7.07a2.61,2.61,0,0,1,3-3h7.07a2.61,2.61,0,0,1,3,3V110A2.61,2.61,0,0,1,198.53,112.91Z"/><path class="cls-4" d="M206.62,112.45V66.5q0-2.92,3-2.92h38.32a2.58,2.58,0,0,1,2.92,2.92v45.95a2.58,2.58,0,0,1-2.92,2.92H209.57Q206.62,115.37,206.62,112.45Zm18.77-3.8h6.68q2.92,0,2.92-3V73.22a2.58,2.58,0,0,0-2.92-2.92h-6.68a2.58,2.58,0,0,0-2.92,2.92V105.7Q222.48,108.66,225.39,108.66Z"/><path class="cls-4" d="M255.66,112.45V66.5q0-2.92,3-2.92h38.32a2.58,2.58,0,0,1,2.92,2.92v45.95a2.58,2.58,0,0,1-2.92,2.92H258.62Q255.66,115.37,255.66,112.45Zm18.77-3.8h6.68q2.92,0,2.92-3V73.22a2.58,2.58,0,0,0-2.92-2.92h-6.68a2.58,2.58,0,0,0-2.92,2.92V105.7Q271.52,108.66,274.44,108.66Z"/><path class="cls-4" d="M56.08,88.52h5L67,100.13l5.94-11.61h5l-7.37,13.27h5v2.34H69.24l0,0v3.25h6.39v2.34H69.2v5.75H64.82v-5.75H58.46v-2.34h6.35v-3.25l0,0H58.46v-2.34h5Z"/></g></g></svg>