<svg xmlns="http://www.w3.org/2000/svg" width="635.4" height="355.7" viewBox="0 0 635.4 355.7"><defs><style>.cls-1{fill:#e21c19;stroke:#000;stroke-miterlimit:10;stroke-width:3px;}.cls-2{opacity:0.2;}.cls-3{fill:#ffbc12;}.cls-4{fill:#fff;}.cls-5{fill:#d0a007;}</style></defs><title>上层</title><g id="图层_2" data-name="图层 2"><g id="图层_1-2" data-name="图层 1"><path class="cls-1" d="M587.54,354.2H15.46a14,14,0,0,1-14-14V4.2s84,102.5,300,102.5c214,0,300-102.5,300-102.5v336A14,14,0,0,1,587.54,354.2Z"/><g class="cls-2"><path d="M585.77,242.94s1.49-12.07-4.39-31.49c0,0,40.48,2.06,45.66,12.38,4.92,9.8,8.9,24.69,5.89,29.22C632.93,253.06,605,241,585.77,242.94Z"/></g><path class="cls-3" d="M630.88,247.53a1,1,0,0,1-.38-.08c-.24-.1-24-10.24-42.4-10.24-1.5,0-2.94.07-4.29.2h-.1a1,1,0,0,1-1-1.08c0-.12,1.39-12.13-4.35-31.09a1,1,0,0,1,.92-1.24h0c1.68.08,41.1,2.22,46.47,12.91,4.67,9.31,9.3,25,5.83,30.18A1,1,0,0,1,630.88,247.53Z"/><path d="M579.34,205S619.81,207,625,217.35c4.92,9.8,8.9,24.69,5.89,29.22,0,0-24-10.32-42.78-10.32-1.5,0-3,.07-4.38.21,0,0,1.49-12.07-4.39-31.49m0-1.92a1.92,1.92,0,0,0-1.84,2.48c5.67,18.72,4.33,30.58,4.32,30.7a1.93,1.93,0,0,0,1.91,2.16h.19c1.31-.13,2.72-.2,4.19-.2,18.19,0,41.78,10.06,42,10.16a1.92,1.92,0,0,0,2.36-.7c3.83-5.77-1.18-22-5.77-31.15-5.52-11-43-13.22-47.28-13.43Z"/><path d="M592,229.94a1.53,1.53,0,0,1-1.4-1.8l0-.23a1.53,1.53,0,0,1,1.86-1.32l5,.72.46-3.19-5.13-.74a1.56,1.56,0,0,1-1.39-1.87l.67-4.63a1.56,1.56,0,0,1,1.87-1.39l9.32,1.35a1.53,1.53,0,0,1,1.41,1.8l0,.23a1.53,1.53,0,0,1-1.86,1.32l-5.14-.74-.17,1.18,5.12.74a1.56,1.56,0,0,1,1.39,1.87l-1,6.64a1.56,1.56,0,0,1-1.87,1.39Z"/><path class="cls-4" d="M603.78,218.51l0,.23q-.09.64-.81.54l-5.35-.77a.64.64,0,0,0-.82.6l-.23,1.61a.64.64,0,0,0,.61.81l5.33.77a.63.63,0,0,1,.61.81l-1,6.64a.63.63,0,0,1-.81.61L592.14,229q-.71-.1-.62-.74l0-.23q.09-.64.8-.54l5.21.75a.64.64,0,0,0,.81-.61l.52-3.6a.63.63,0,0,0-.61-.81l-5.34-.77a.63.63,0,0,1-.61-.81L593,217a.63.63,0,0,1,.81-.61l9.32,1.35Q603.87,217.87,603.78,218.51Z"/><path d="M603.73,231.62a1.56,1.56,0,0,1-1.4-1.87l1.62-11.16a1.56,1.56,0,0,1,1.87-1.39l9.31,1.35a1.56,1.56,0,0,1,1.39,1.87l-1.62,11.16A1.56,1.56,0,0,1,613,233Zm5.75-2.71,1.08-7.47-1.2-.17-1.08,7.47Z"/><path class="cls-4" d="M603.25,229.89l1.62-11.16a.64.64,0,0,1,.82-.6l9.31,1.35a.63.63,0,0,1,.61.81L614,231.44a.63.63,0,0,1-.81.61l-9.31-1.35A.64.64,0,0,1,603.25,229.89Zm4.69-.26,1.62.24a.64.64,0,0,0,.81-.61l1.14-7.89a.63.63,0,0,0-.61-.81l-1.62-.24a.63.63,0,0,0-.81.61l-1.14,7.89A.64.64,0,0,0,607.95,229.63Z"/><path class="cls-5" d="M630.57,247.6l-.19,0a1,1,0,0,1-.77-.91c0-.12-.47-11.91-11-18.81a1,1,0,0,1-.26-1.35c1.41-2,4.77-8,3.35-11.21a1,1,0,0,1,1.37-1.22c.19.11,18.39,11.42,8.41,33A1,1,0,0,1,630.57,247.6Z"/><path d="M622.54,214.9s17.77,10.73,8,31.73a26,26,0,0,0-11.47-19.59s5.39-7.78,3.44-12.15m0-1.92a1.92,1.92,0,0,0-1.76,2.71c1.14,2.55-1.7,8-3.26,10.27a1.92,1.92,0,0,0,.53,2.71,24.07,24.07,0,0,1,10.6,18,1.92,1.92,0,0,0,3.67.76c10.34-22.31-8.59-34.07-8.79-34.19a1.92,1.92,0,0,0-1-.28Z"/></g></g></svg>