<svg xmlns="http://www.w3.org/2000/svg" width="358" height="175" viewBox="0 0 358 175"><defs><style>.cls-1{opacity:0.2;}.cls-2{fill:#fdea8f;}.cls-3{fill:none;stroke:#ddcb74;stroke-miterlimit:10;stroke-width:1.09px;}.cls-4{fill:#e21c19;}</style></defs><title>券-100</title><g id="图层_2" data-name="图层 2"><g id="图层_1-2" data-name="图层 1"><g class="cls-1"><path d="M353,23a5,5,0,0,1,5-5V16a5,5,0,0,1,0-10V5a2,2,0,0,0-2-2H2A2,2,0,0,0,0,5V6A5,5,0,0,1,0,16v2A5,5,0,0,1,0,28v2A5,5,0,0,1,0,40v2A5,5,0,0,1,0,52v2A5,5,0,0,1,0,64v2A5,5,0,0,1,0,76v2A5,5,0,0,1,0,88v2a5,5,0,0,1,0,10v2a5,5,0,0,1,0,10v2a5,5,0,0,1,0,10v2a5,5,0,0,1,0,10v2a5,5,0,0,1,0,10v2a5,5,0,0,1,0,10v2a5,5,0,0,1,0,10v1a2,2,0,0,0,2,2H356a2,2,0,0,0,2-2v-1a5,5,0,0,1,0-10v-2a5,5,0,0,1,0-10v-2a5,5,0,0,1,0-10v-2a5,5,0,0,1,0-10v-2a5,5,0,0,1,0-10v-2a5,5,0,0,1,0-10v-2a5,5,0,0,1,0-10V88a5,5,0,0,1,0-10V76a5,5,0,0,1,0-10V64a5,5,0,0,1,0-10V52a5,5,0,0,1,0-10V40a5,5,0,0,1,0-10V28A5,5,0,0,1,353,23Z"/></g><path class="cls-2" d="M353,20a5,5,0,0,1,5-5V13a5,5,0,0,1,0-10V2a2,2,0,0,0-2-2H2A2,2,0,0,0,0,2V3A5,5,0,0,1,0,13v2A5,5,0,0,1,0,25v2A5,5,0,0,1,0,37v2A5,5,0,0,1,0,49v2A5,5,0,0,1,0,61v2A5,5,0,0,1,0,73v2A5,5,0,0,1,0,85v2A5,5,0,0,1,0,97v2a5,5,0,0,1,0,10v2a5,5,0,0,1,0,10v2a5,5,0,0,1,0,10v2a5,5,0,0,1,0,10v2a5,5,0,0,1,0,10v2a5,5,0,0,1,0,10v1a2,2,0,0,0,2,2H356a2,2,0,0,0,2-2v-1a5,5,0,0,1,0-10v-2a5,5,0,0,1,0-10v-2a5,5,0,0,1,0-10v-2a5,5,0,0,1,0-10v-2a5,5,0,0,1,0-10v-2a5,5,0,0,1,0-10V97a5,5,0,0,1,0-10V85a5,5,0,0,1,0-10V73a5,5,0,0,1,0-10V61a5,5,0,0,1,0-10V49a5,5,0,0,1,0-10V37a5,5,0,0,1,0-10V25A5,5,0,0,1,353,20Z"/><path class="cls-3" d="M339.5,152V19A8,8,0,0,1,332,11.5H25A8,8,0,0,1,17.5,19V152A8,8,0,0,1,25,159.5H332A8,8,0,0,1,339.5,152Z"/><path class="cls-4" d="M84.26,64H94.92a2.51,2.51,0,0,1,2.84,2.84v44.67a2.51,2.51,0,0,1-2.84,2.84H84.26a2.51,2.51,0,0,1-2.84-2.84V66.8A2.51,2.51,0,0,1,84.26,64Z"/><path class="cls-4" d="M103.88,111.47V66.8q0-2.84,2.87-2.84H144a2.51,2.51,0,0,1,2.84,2.84v44.67a2.51,2.51,0,0,1-2.84,2.84H106.75Q103.88,114.31,103.88,111.47Zm18.25-3.69h6.49q2.84,0,2.84-2.87V73.33a2.51,2.51,0,0,0-2.84-2.84h-6.49a2.51,2.51,0,0,0-2.84,2.84v31.58Q119.29,107.78,122.13,107.78Z"/><path class="cls-4" d="M151.56,111.47V66.8q0-2.84,2.87-2.84h37.26a2.51,2.51,0,0,1,2.84,2.84v44.67a2.51,2.51,0,0,1-2.84,2.84H154.43Q151.56,114.31,151.56,111.47Zm18.25-3.69h6.49q2.84,0,2.84-2.87V73.33a2.51,2.51,0,0,0-2.84-2.84h-6.49A2.51,2.51,0,0,0,167,73.33v31.58Q167,107.78,169.81,107.78Z"/><path class="cls-4" d="M211,111.91h-6.87a2.54,2.54,0,0,1-2.87-2.87v-6.87a2.54,2.54,0,0,1,2.87-2.87H211a2.54,2.54,0,0,1,2.87,2.87V109A2.54,2.54,0,0,1,211,111.91Z"/><path class="cls-4" d="M218.82,111.47V66.8q0-2.84,2.87-2.84H259a2.51,2.51,0,0,1,2.84,2.84v44.67a2.51,2.51,0,0,1-2.84,2.84H221.69Q218.82,114.31,218.82,111.47Zm18.25-3.69h6.49q2.84,0,2.84-2.87V73.33a2.51,2.51,0,0,0-2.84-2.84h-6.49a2.51,2.51,0,0,0-2.84,2.84v31.58Q234.24,107.78,237.08,107.78Z"/><path class="cls-4" d="M266.5,111.47V66.8q0-2.84,2.87-2.84h37.26a2.51,2.51,0,0,1,2.84,2.84v44.67a2.51,2.51,0,0,1-2.84,2.84H269.38Q266.5,114.31,266.5,111.47Zm18.25-3.69h6.49q2.84,0,2.84-2.87V73.33a2.51,2.51,0,0,0-2.84-2.84h-6.49a2.51,2.51,0,0,0-2.84,2.84v31.58Q281.92,107.78,284.76,107.78Z"/><path class="cls-4" d="M46.08,87.52h5L57,99.13l5.94-11.61h5l-7.37,13.27h5v2.34H59.24l0,0v3.25h6.39v2.34H59.2v5.75H54.82v-5.75H48.46v-2.34h6.35v-3.25l0,0H48.46v-2.34h5Z"/></g></g></svg>