<svg xmlns="http://www.w3.org/2000/svg" width="633.4" height="374.7" viewBox="0 0 633.4 374.7"><defs><style>.cls-1{fill:#e21c19;stroke:#000;stroke-miterlimit:10;stroke-width:3px;}.cls-2{opacity:0.2;}.cls-3{fill:#ffbc12;}.cls-4{fill:#fff;}.cls-5{fill:#d0a007;}.cls-6{fill:#f7e51a;}</style></defs><title>上层_1</title><g id="图层_2" data-name="图层 2"><g id="图层_1-2" data-name="图层 1"><path class="cls-1" d="M587.54,373.2H15.46a14,14,0,0,1-14-14V4.2s84,102.5,300,102.5c214,0,300-102.5,300-102.5v355A14,14,0,0,1,587.54,373.2Z"/><g class="cls-2"><path d="M583.77,341.94s1.49-12.07-4.39-31.49c0,0,40.48,2.06,45.66,12.38,4.92,9.8,8.9,24.69,5.89,29.22C630.93,352.06,603,340,583.77,341.94Z"/></g><path class="cls-3" d="M628.88,346.53a1,1,0,0,1-.38-.08c-.24-.1-24-10.24-42.4-10.24-1.5,0-2.94.07-4.29.2h-.1a1,1,0,0,1-1-1.08c0-.12,1.39-12.13-4.35-31.09a1,1,0,0,1,.92-1.24h0c1.68.08,41.1,2.22,46.47,12.91,4.67,9.31,9.3,25,5.83,30.18A1,1,0,0,1,628.88,346.53Z"/><path d="M577.34,304S617.81,306,623,316.35c4.92,9.8,8.9,24.69,5.89,29.22,0,0-24-10.32-42.78-10.32-1.5,0-3,.07-4.38.21,0,0,1.49-12.07-4.39-31.49m0-1.92a1.92,1.92,0,0,0-1.84,2.48c5.67,18.72,4.33,30.58,4.32,30.7a1.93,1.93,0,0,0,1.91,2.16h.19c1.31-.13,2.72-.2,4.19-.2,18.19,0,41.78,10.06,42,10.16a1.92,1.92,0,0,0,2.36-.7c3.83-5.77-1.18-22-5.77-31.15-5.52-11-43-13.22-47.28-13.43Z"/><path d="M590,328.94a1.53,1.53,0,0,1-1.4-1.8l0-.23a1.53,1.53,0,0,1,1.86-1.32l5,.72.46-3.19-5.13-.74a1.56,1.56,0,0,1-1.39-1.87l.67-4.63a1.56,1.56,0,0,1,1.87-1.39l9.32,1.35a1.53,1.53,0,0,1,1.41,1.8l0,.23a1.53,1.53,0,0,1-1.86,1.32l-5.14-.74-.17,1.18,5.12.74a1.56,1.56,0,0,1,1.39,1.87l-1,6.64a1.56,1.56,0,0,1-1.87,1.39Z"/><path class="cls-4" d="M601.78,317.51l0,.23q-.09.64-.81.54l-5.35-.77a.64.64,0,0,0-.82.6l-.23,1.61a.64.64,0,0,0,.61.81l5.33.77a.63.63,0,0,1,.61.81l-1,6.64a.63.63,0,0,1-.81.61L590.14,328q-.71-.1-.62-.74l0-.23q.09-.64.8-.54l5.21.75a.64.64,0,0,0,.81-.61l.52-3.6a.63.63,0,0,0-.61-.81l-5.34-.77a.63.63,0,0,1-.61-.81L591,316a.63.63,0,0,1,.81-.61l9.32,1.35Q601.87,316.87,601.78,317.51Z"/><path d="M601.73,330.62a1.56,1.56,0,0,1-1.4-1.87l1.62-11.16a1.56,1.56,0,0,1,1.87-1.39l9.31,1.35a1.56,1.56,0,0,1,1.39,1.87l-1.62,11.16A1.56,1.56,0,0,1,611,332Zm5.75-2.71,1.08-7.47-1.2-.17-1.08,7.47Z"/><path class="cls-4" d="M601.25,328.89l1.62-11.16a.64.64,0,0,1,.82-.6l9.31,1.35a.63.63,0,0,1,.61.81L612,330.44a.63.63,0,0,1-.81.61l-9.31-1.35A.64.64,0,0,1,601.25,328.89Zm4.69-.26,1.62.24a.64.64,0,0,0,.81-.61l1.14-7.89a.63.63,0,0,0-.61-.81l-1.62-.24a.63.63,0,0,0-.81.61l-1.14,7.89A.64.64,0,0,0,605.95,328.63Z"/><path class="cls-5" d="M628.57,346.6l-.19,0a1,1,0,0,1-.77-.91c0-.12-.47-11.91-11-18.81a1,1,0,0,1-.26-1.35c1.41-2,4.77-8,3.35-11.21a1,1,0,0,1,1.37-1.22c.19.11,18.39,11.42,8.41,33A1,1,0,0,1,628.57,346.6Z"/><path d="M620.54,313.9s17.77,10.73,8,31.73a26,26,0,0,0-11.47-19.59s5.39-7.78,3.44-12.15m0-1.92a1.92,1.92,0,0,0-1.76,2.71c1.14,2.55-1.7,8-3.26,10.27a1.92,1.92,0,0,0,.53,2.71,24.07,24.07,0,0,1,10.6,18,1.92,1.92,0,0,0,3.67.76c10.34-22.31-8.59-34.07-8.79-34.19a1.92,1.92,0,0,0-1-.28Z"/><path d="M215.09,155.33h37.22a2.51,2.51,0,0,1,2.84,2.84v44.57a2.51,2.51,0,0,1-2.84,2.84H216q-2.87,0-2.87-2.56v-.92q0-2.56,2.87-2.56H236.9q2.84,0,2.84-2.87v-12q0-2.87-2.84-2.87H215.09q-2.87,0-2.87-2.84V158.16Q212.22,155.33,215.09,155.33Zm24.64,17.57v-8.65q0-2.87-2.84-2.87h-6.43q-2.84,0-2.84,2.87v8.65q0,2.87,2.84,2.87h6.43Q239.73,175.77,239.74,172.9Z"/><path d="M262.67,155.33h37.22a2.51,2.51,0,0,1,2.84,2.84v44.57a2.51,2.51,0,0,1-2.84,2.84H263.56q-2.87,0-2.87-2.56v-.92q0-2.56,2.87-2.56h20.92q2.84,0,2.84-2.87v-12q0-2.87-2.84-2.87H262.67q-2.87,0-2.87-2.84V158.16Q259.8,155.33,262.67,155.33Zm24.64,17.57v-8.65q0-2.87-2.84-2.87h-6.43q-2.84,0-2.84,2.87v8.65q0,2.87,2.84,2.87h6.43Q287.31,175.77,287.31,172.9Z"/><path d="M179.58,178.58h5l6,11.67,6-11.67h5l-7.41,13.34h5.05v2.36h-6.38l0,0v3.27h6.42v2.36h-6.42v5.78h-4.41v-5.78H182v-2.36h6.38v-3.27l0,0H182v-2.36h5Z"/><path d="M330.94,173.52l3.09.7-.42.42a4.41,4.41,0,0,1-.42.56,36,36,0,0,0,15.33,10.41q-1.27,1.69-1.83,2.53a33.43,33.43,0,0,1-4.36-2.11,7.38,7.38,0,0,0-.7-.42v2h-8.86v4.78H345v2.39H332.77v8.58h14.63v2.53H315.75v-2.53h14.48v-8.58H318v-2.39h12.23v-4.78h-9v-1.83q-1.13.71-3.8,2.11a12.71,12.71,0,0,0-1.27.7,9.58,9.58,0,0,0-1.69-2.53Q326.15,180.7,330.94,173.52Zm-11.11,23.77,2-1.55,2.53,2.53q1.55,1.69,2.39,2.67l-2.25,1.83Q321.8,199.4,319.83,197.29ZM331.64,177a41.83,41.83,0,0,1-9.56,8h19A36.23,36.23,0,0,1,331.64,177Zm4.5,23.91a65.15,65.15,0,0,0,5.2-5.2l2.11,1.55q-3.1,3.38-5.2,5.48Z"/><path d="M350.48,200.67q2.67-.7,5.63-1.69v-9h-4.5v-2.53h4.5v-7.59h-4.92v-2.39h12.38v2.39h-4.92v7.59h3.8V190h-3.8v8.16q2.53-.84,4.92-1.69c.09,1.22.14,2.16.14,2.81q-1.83.56-8.16,2.67a40.78,40.78,0,0,1-4.08,1.27Zm12.38-12.52a60,60,0,0,0,6.47-14.2l2.67.56q-.42,1.27-1.27,3.52c-.28.75-.47,1.27-.56,1.55h13.92v2.53h-3.8q-.71,10.41-5.48,16.31a21.61,21.61,0,0,0,9.7,5.63q-1.13,1.4-2,2.67-6.61-3.1-9.56-6.19-3.24,3.38-11,6.75-.71-1-1.83-2.39,7.87-3,11.11-6.47a27.65,27.65,0,0,1-4.5-11.67,6.09,6.09,0,0,0-.56,1.13q-.42.71-1.41,2.39Q363.7,189,362.86,188.15Zm6.19-6a1.78,1.78,0,0,1-.42.7q1,8.44,4.5,13.36,3.8-5.34,4.5-14.06Z"/><path d="M386.48,200.38q2.39-.7,4.92-1.27V190H387v-2.39h4.36V180h-4.64v-2.25H398V180h-4.08v7.59H398V190h-4.08v8.58a4.52,4.52,0,0,1,.84-.28,26.77,26.77,0,0,0,3.94-1.12,11.42,11.42,0,0,0,.14,1.55v1.13q-5.35,1.27-11.67,3.09ZM416,196.17q1.27,3,2,5.2l-1.83.84a4,4,0,0,0-.14-.84,6.05,6.05,0,0,0-.28-.7l-3.66.42a11.24,11.24,0,0,1-1.41.14l-.56-1.69v2.81q-.14,2,2.25,1.83h3.09q2.25,0,2.39-1.55a18.45,18.45,0,0,0,.56-4.08,12.61,12.61,0,0,0,2.25.7q-.14,1-.28,2.39a7.63,7.63,0,0,0-.28,1.55q-.56,3.38-4.5,3.23h-3.52q-4.5.14-4.36-3.8v-7.45q-2.39,6-10.69,12.23-1-1.27-1.83-2.25,8.3-5.2,10.69-12h-6.33V177.74h6.75q.56-2.11,1-3.94l2.53.42a22,22,0,0,1-1.12,3.52h9.42v15.47h-9.7a4.4,4.4,0,0,1-.14.7,5.85,5.85,0,0,1-.28.7h2.11v4.78a15,15,0,0,0,2.67-5.06l1.83.7-2.11,4.22h1.27a11.79,11.79,0,0,1,1.41-.14,18.18,18.18,0,0,0-.7-2.39ZM402,179.85v4.5h5.48v-4.5ZM406.59,191a1.08,1.08,0,0,1,.14-.42q.42-2.39.56-4.08H402V191Zm3.09-4.5a33,33,0,0,1-.7,4.5h6.75v-4.5Zm6-6.61h-5.91v4.5h5.91Z"/><path class="cls-6" d="M213.09,153.33h37.22a2.51,2.51,0,0,1,2.84,2.84v44.57a2.51,2.51,0,0,1-2.84,2.84H214q-2.87,0-2.87-2.56v-.92q0-2.56,2.87-2.56H234.9q2.84,0,2.84-2.87v-12q0-2.87-2.84-2.87H213.09q-2.87,0-2.87-2.84V156.16Q210.22,153.33,213.09,153.33Zm24.64,17.57v-8.65q0-2.87-2.84-2.87h-6.43q-2.84,0-2.84,2.87v8.65q0,2.87,2.84,2.87h6.43Q237.73,173.77,237.74,170.9Z"/><path class="cls-6" d="M260.67,153.33h37.22a2.51,2.51,0,0,1,2.84,2.84v44.57a2.51,2.51,0,0,1-2.84,2.84H261.56q-2.87,0-2.87-2.56v-.92q0-2.56,2.87-2.56h20.92q2.84,0,2.84-2.87v-12q0-2.87-2.84-2.87H260.67q-2.87,0-2.87-2.84V156.16Q257.8,153.33,260.67,153.33Zm24.64,17.57v-8.65q0-2.87-2.84-2.87h-6.43q-2.84,0-2.84,2.87v8.65q0,2.87,2.84,2.87h6.43Q285.31,173.77,285.31,170.9Z"/><path class="cls-6" d="M177.58,176.58h5l6,11.67,6-11.67h5l-7.41,13.34h5.05v2.36h-6.38l0,0v3.27h6.42v2.36h-6.42v5.78h-4.41v-5.78H180v-2.36h6.38v-3.27l0,0H180v-2.36h5Z"/><path class="cls-6" d="M328.94,171.52l3.09.7-.42.42a4.41,4.41,0,0,1-.42.56,36,36,0,0,0,15.33,10.41q-1.27,1.69-1.83,2.53a33.43,33.43,0,0,1-4.36-2.11,7.38,7.38,0,0,0-.7-.42v2h-8.86v4.78H343v2.39H330.77v8.58h14.63v2.53H313.75v-2.53h14.48v-8.58H316v-2.39h12.23v-4.78h-9v-1.83q-1.13.71-3.8,2.11a12.71,12.71,0,0,0-1.27.7,9.58,9.58,0,0,0-1.69-2.53Q324.15,178.7,328.94,171.52Zm-11.11,23.77,2-1.55,2.53,2.53q1.55,1.69,2.39,2.67l-2.25,1.83Q319.8,197.4,317.83,195.29ZM329.64,175a41.83,41.83,0,0,1-9.56,8h19A36.23,36.23,0,0,1,329.64,175Zm4.5,23.91a65.15,65.15,0,0,0,5.2-5.2l2.11,1.55q-3.1,3.38-5.2,5.48Z"/><path class="cls-6" d="M348.48,198.67q2.67-.7,5.63-1.69v-9h-4.5v-2.53h4.5v-7.59h-4.92v-2.39h12.38v2.39h-4.92v7.59h3.8V188h-3.8v8.16q2.53-.84,4.92-1.69c.09,1.22.14,2.16.14,2.81q-1.83.56-8.16,2.67a40.78,40.78,0,0,1-4.08,1.27Zm12.38-12.52a60,60,0,0,0,6.47-14.2l2.67.56q-.42,1.27-1.27,3.52c-.28.75-.47,1.27-.56,1.55h13.92v2.53h-3.8q-.71,10.41-5.48,16.31a21.61,21.61,0,0,0,9.7,5.63q-1.13,1.4-2,2.67-6.61-3.1-9.56-6.19-3.24,3.38-11,6.75-.71-1-1.83-2.39,7.87-3,11.11-6.47a27.65,27.65,0,0,1-4.5-11.67,6.09,6.09,0,0,0-.56,1.13q-.42.71-1.41,2.39Q361.7,187,360.86,186.15Zm6.19-6a1.78,1.78,0,0,1-.42.7q1,8.44,4.5,13.36,3.8-5.34,4.5-14.06Z"/><path class="cls-6" d="M384.48,198.38q2.39-.7,4.92-1.27V188H385v-2.39h4.36V178h-4.64v-2.25H396V178h-4.08v7.59H396V188h-4.08v8.58a4.52,4.52,0,0,1,.84-.28,26.77,26.77,0,0,0,3.94-1.12,11.42,11.42,0,0,0,.14,1.55v1.13q-5.35,1.27-11.67,3.09ZM414,194.17q1.27,3,2,5.2l-1.83.84a4,4,0,0,0-.14-.84,6.05,6.05,0,0,0-.28-.7l-3.66.42a11.24,11.24,0,0,1-1.41.14l-.56-1.69v2.81q-.14,2,2.25,1.83h3.09q2.25,0,2.39-1.55a18.45,18.45,0,0,0,.56-4.08,12.61,12.61,0,0,0,2.25.7q-.14,1-.28,2.39a7.63,7.63,0,0,0-.28,1.55q-.56,3.38-4.5,3.23h-3.52q-4.5.14-4.36-3.8v-7.45q-2.39,6-10.69,12.23-1-1.27-1.83-2.25,8.3-5.2,10.69-12h-6.33V175.74h6.75q.56-2.11,1-3.94l2.53.42a22,22,0,0,1-1.12,3.52h9.42v15.47h-9.7a4.4,4.4,0,0,1-.14.7,5.85,5.85,0,0,1-.28.7h2.11v4.78a15,15,0,0,0,2.67-5.06l1.83.7-2.11,4.22h1.27a11.79,11.79,0,0,1,1.41-.14,18.18,18.18,0,0,0-.7-2.39ZM400,177.85v4.5h5.48v-4.5ZM404.59,189a1.08,1.08,0,0,1,.14-.42q.42-2.39.56-4.08H400V189Zm3.09-4.5a33,33,0,0,1-.7,4.5h6.75v-4.5Zm6-6.61h-5.91v4.5h5.91Z"/></g></g></svg>