<svg xmlns="http://www.w3.org/2000/svg" width="669.99" height="455.44" viewBox="0 0 669.99 455.44"><defs><style>.cls-1{fill:#b22919;stroke:#000;stroke-miterlimit:10;stroke-width:3px;}.cls-2{fill:#fff;}.cls-3{fill:#ffbc12;}.cls-4{fill:#d0a007;}.cls-5{fill:#88cb18;}.cls-6{fill:#009356;}.cls-7{fill:#1b6ce5;}.cls-8{fill:#89acb9;}</style></defs><title>底层</title><g id="图层_2" data-name="图层 2"><g id="图层_1-2" data-name="图层 1"><ellipse class="cls-1" cx="346.52" cy="246.94" rx="300" ry="207"/><path class="cls-2" d="M271.86,115.84h17.19q1.09-1.56,3.13-4.84.94-1.56,1.41-2.19l3,1.56q-1.87,2.66-4.22,5.47h8.44v15.47H292v8.44q-.16,2.81,2.81,2.66h3.75q2.65,0,3-1.87a22.25,22.25,0,0,0,.47-5.16,5.6,5.6,0,0,0,.78.31,10.74,10.74,0,0,0,2.34.94,26.36,26.36,0,0,1-.62,4.84q-.47,3.59-5.31,3.44h-5q-5.16,0-5.16-4.69v-8.91H282.8q-.16,10.63-13.12,14.69l-1.87-2.66q11.87-3,12-12h-8Zm3,2.81v10h23v-10Zm1.41-8.28,2.34-1.72a48.94,48.94,0,0,1,4.38,5.16l-2.5,1.88A41.14,41.14,0,0,0,276.24,110.37Z"/><path class="cls-2" d="M307.49,129.12c.31-.1.88-.26,1.72-.47q2-.78,3.13-1.09v-8.75h-4.06v-2.66h4.06v-7h2.81v7h4.22v2.66h-4.22v8a37.41,37.41,0,0,1,4.06-1.41v2.81a37.41,37.41,0,0,0-4.06,1.41v11.88q.31,4.06-3.91,4.06H308q-.16-1.25-.47-3.12a25.51,25.51,0,0,0,3.28.16q1.56,0,1.56-1.41V130.53q-2.19.78-4.53,1.72Zm12-9.06a35.22,35.22,0,0,0,7.81-11.25l3,.47q-.94,1.88-1.87,3.59h11.25v2.5l-4.37,5.31h6.88v11.41h3v2.5H333.58Q336.39,141,345,143a7.7,7.7,0,0,0-.94,1.88l-.47.94q-9.22-3.28-11.87-9.22-2.5,5.94-13.12,9.38a13.69,13.69,0,0,0-1.56-2.66q11.4-3,12.81-8.75H318.27v-2.5h3.28V121.93Q320.61,121,319.52,120.06Zm16.72-4.69h-9.37a51.11,51.11,0,0,1-4.06,5.31h9.38Zm-12,7.81v8.91h6.09q.15-1.72.16-3.75v-5.16Zm15.31,0h-6.25v5.31a20.17,20.17,0,0,1-.31,3.59h6.56Z"/><path class="cls-2" d="M368.58,109.12h3q0,3.75.16,6.56h13.13v2.66h-13a29.48,29.48,0,0,0,.16,3q.31,8.44,1.72,12.34a46.59,46.59,0,0,0,6.09-11.25l2.81,1.25a56.14,56.14,0,0,1-7.81,13.28,9.31,9.31,0,0,0,3.91,4.84q2,1.56,2.66-.62a27.34,27.34,0,0,0,.94-5.94,14.07,14.07,0,0,0,2.81,1.09,35.59,35.59,0,0,1-.94,5.78q-.94,3.75-3.59,3.59a5.12,5.12,0,0,1-4.06-1.72,13.32,13.32,0,0,1-3.75-4.69,47.46,47.46,0,0,1-7,5.94c-.11-.11-.42-.47-.94-1.09L363.74,143a37.87,37.87,0,0,0,7.81-6.72V136l-.16-.16a52.2,52.2,0,0,1-2.34-14.22q-.16-1.72-.16-3.28H354.52v5.78h10.94q0,1.25-.16,3.44,0,5-.31,8.13-.16,5.78-5.47,5.63a32.67,32.67,0,0,1-3.75.16q-.47-2.19-.62-3.12a34,34,0,0,0,4.06.16q2.81.16,2.81-2.81.15-2,.31-5.78.15-2,.16-3h-8q.31,13-4.69,19.22a7.16,7.16,0,0,1-1.25-1.09,8.82,8.82,0,0,0-1.25-.94,17.34,17.34,0,0,0,3.44-7.34q.78-3.28.78-11.72v-9.37h17.19Q368.58,111.15,368.58,109.12Zm5.78,2.19,1.56-1.87q1.41.78,4.06,2.5,1.25.78,1.88,1.25L380,115.37a6.22,6.22,0,0,0-1.09-.78A36.57,36.57,0,0,0,374.36,111.31Z"/><path class="cls-2" d="M387.49,136.15a56.46,56.46,0,0,0,6.25-1.41V116.62H388v-3h15.16v3h-6.25V134q2-.47,5.63-1.41a2.62,2.62,0,0,1,.63-.16q.15,1.88.31,3-7.81,1.88-15,4.06Zm20.78-27h3q0,4.38-.16,8h12q-.31,17.19-.62,21.41-.16,7.19-6.56,6.72-.78,0-3.44-.16h-2.66l-.62-3.44a35.38,35.38,0,0,0,6.56.47q3.59.31,3.59-3.59.31-4.84.63-18.44h-8.91a26.61,26.61,0,0,0-.16,3q0,16.1-12.19,23-.94-1.1-2.19-2.5Q408,137.56,408,122.87v-2.81h-5.62v-3h5.78q0-2,.16-5.78Z"/><path class="cls-3" d="M95.95,72a1.07,1.07,0,0,1-.58-.17c-1.58-1-38.73-24.77-38.06-38.11C57.89,22.12,62,4.35,68.25,1.19a1.07,1.07,0,0,1,1.34.31c.2.27,20.59,26.94,39.85,35.45a1.07,1.07,0,0,1,.43,1.62c-.08.11-8,11-12.88,32.61a1.07,1.07,0,0,1-1,.84Z"/><path d="M68.74,2.15S89.27,29.21,109,37.93c0,0-8.09,10.91-13.06,33,0,0-38.21-24.28-37.56-37.15C59,21.56,63.32,4.89,68.74,2.15m0-2.15a2.14,2.14,0,0,0-1,.23c-6.9,3.5-11,22-11.53,33.45-.31,6.15,6,14.38,19.33,25.18A235.36,235.36,0,0,0,94.8,72.76,2.15,2.15,0,0,0,98,71.41c4.8-21.32,12.62-32.1,12.7-32.21a2.15,2.15,0,0,0-.86-3.24C90.88,27.57,70.65,1.12,70.45.85A2.15,2.15,0,0,0,68.74,0Z"/><path class="cls-4" d="M59.42,38.59a1.07,1.07,0,0,1-.94-.55c-.12-.21-11.59-21.22,10-36.66A1.07,1.07,0,0,1,70,2.76c-.06.12-6.09,11.83.38,24.35a1.07,1.07,0,0,1-.49,1.46c-2.5,1.21-9.06,5.19-9.42,9a1.07,1.07,0,0,1-.85.95Z"/><path d="M69.08,2.26a29,29,0,0,0,.37,25.35s-9.52,4.59-10,9.91c0,0-11.37-20.21,9.65-35.26m0-2.15a2.14,2.14,0,0,0-1.25.4C56.2,8.84,54,18.75,54.22,25.6a30.61,30.61,0,0,0,3.33,13,2.15,2.15,0,0,0,4-.85c.29-3.11,6.07-6.85,8.82-8.18a2.15,2.15,0,0,0,1-2.92A26.89,26.89,0,0,1,71,3.27,2.15,2.15,0,0,0,69.08.11Zm0,4.3h0Z"/><path d="M82.09,52.12a2.06,2.06,0,0,1-.39-3l1.79-2.33-3.15-2.42-3.14,2a2.29,2.29,0,0,1-1.37.43,2.24,2.24,0,0,1-1.31-.53l-2.41-1.86a1.84,1.84,0,0,1-.45-2.68,2.17,2.17,0,0,1,.63-.54l2.25-1.41a2,2,0,0,1,0-2.58l.15-.2a2,2,0,0,1,1.43-.82l.06-.08a1.78,1.78,0,0,1,.75-.56,2,2,0,0,1,.37-1.87l.16-.21a2,2,0,0,1,1.38-.82,2.12,2.12,0,0,1,.45-1.07l.16-.21a2,2,0,0,1,2.28-.72,1.82,1.82,0,0,1,2.64-.22l1.85,1.42A2.38,2.38,0,0,1,87,32.95a2.12,2.12,0,0,1,1.75.44L91,35.07a2.13,2.13,0,0,1,.87,1.51A2.41,2.41,0,0,1,93,37.1l2,1.53a1.83,1.83,0,0,1,.49,2.6,2,2,0,0,1-.08,2.45l-.16.21a2.12,2.12,0,0,1-1,.73,2.05,2.05,0,0,1-.45,1.47l-.16.21a2,2,0,0,1-1.61.85,1.88,1.88,0,0,1-.36.91,1.84,1.84,0,0,1-.69.55,2.38,2.38,0,0,1-.4.78l-3.17,4.12a2.06,2.06,0,0,1-3,.39ZM85.8,43v-.1l-3.06-2.36-.1,0Z"/><path class="cls-2" d="M79.92,43l-3.47,2.26a1,1,0,0,1-.55.2,1,1,0,0,1-.53-.24L73,43.34q-.48-.37-.19-.73a.85.85,0,0,1,.24-.19l3-1.9a1.2,1.2,0,0,0,.31-.26.55.55,0,0,0,.09-.49.72.72,0,0,0-.28-.39l-.35-.27a.65.65,0,0,1-.18-1l.15-.2a.65.65,0,0,1,1-.08l12.53,9.65a.68.68,0,0,1,.14,1.08l-3.17,4.12a.68.68,0,0,1-1.08.14L82.93,51a.68.68,0,0,1-.14-1.08L85,47.13a.68.68,0,0,0-.14-1.08l-3.95-3a.93.93,0,0,0-.47-.22A1,1,0,0,0,79.92,43Zm10.86,2.94-.13,1a.63.63,0,0,1-.09.3q-.25.33-.66,0l-2.42-1.87a1.28,1.28,0,0,1-.42-.46,1.22,1.22,0,0,1,0-.62l.2-1.49a.88.88,0,0,0,0-.46A1,1,0,0,0,86.9,42l-3.52-2.71a1,1,0,0,0-.39-.21,1,1,0,0,0-.44.08L81,39.66a1.43,1.43,0,0,1-.62.11,1.36,1.36,0,0,1-.57-.3l-2.46-1.9q-.37-.29-.13-.6a.52.52,0,0,1,.27-.15l.91-.3a.7.7,0,0,0,.35-.22.44.44,0,0,0,.07-.35.46.46,0,0,0-.18-.3l-.15-.12a.63.63,0,0,1-.15-1l.16-.21a.65.65,0,0,1,1-.08l4.16,3.2q.6.46,1,0t-.22-1l-3.92-3q-.62-.47-.19-1l.16-.21a.63.63,0,0,1,1-.1l.15.12a.59.59,0,0,0,.45.13.58.58,0,0,0,.4-.23.51.51,0,0,0,.1-.22l0-.13a.62.62,0,0,1,.11-.24q.28-.36.73,0L85.36,33a1.08,1.08,0,0,1,.38.44,1,1,0,0,1,0,.57l-.15.65a.69.69,0,0,0,.18.77q.32.25.63-.15l.49-.63a.68.68,0,0,1,1.08-.14l2.18,1.68a.68.68,0,0,1,.14,1.08l-.49.64q-.29.38,0,.63a.61.61,0,0,0,.75,0l.54-.33a.93.93,0,0,1,.52-.18,1,1,0,0,1,.53.24l2,1.53q.47.36.19.73a.76.76,0,0,1-.2.17l-.11.07a.65.65,0,0,0-.16.15.59.59,0,0,0-.11.52.63.63,0,0,0,.24.34l.18.14a.63.63,0,0,1,.15,1l-.16.21a.65.65,0,0,1-1,.08l-4-3.09q-.6-.46-1,0t.23.95l4.17,3.22a.65.65,0,0,1,.18,1l-.16.21a.61.61,0,0,1-1,.14l-.07-.06a.42.42,0,0,0-.35-.09.41.41,0,0,0-.25.14A.63.63,0,0,0,90.78,45.91Z"/><path class="cls-5" d="M39.24,375.75a.76.76,0,0,1-.5-.19C26.63,365,1.61,359.57,1.36,359.51a.76.76,0,0,1-.6-.77c.16-5.3,11.08-13.88,18.89-18a8.35,8.35,0,0,1,3.92-.83c11.29,0,33.69,14.16,34.64,14.76a.76.76,0,0,1,.06,1.24C44.93,366.24,40,375.26,39.91,375.35a.76.76,0,0,1-.53.39Z"/><path d="M23.57,340.65c11.2,0,34.23,14.64,34.23,14.64C44.16,365.88,39.24,375,39.24,375,26.83,364.18,1.52,358.77,1.52,358.77c.14-4.63,10.25-13,18.49-17.38a7.6,7.6,0,0,1,3.56-.74m0-1.52a9.08,9.08,0,0,0-4.28.91C11.62,344.12.18,352.88,0,358.72a1.52,1.52,0,0,0,1.2,1.53c.25.05,25.08,5.46,37,15.88a1.52,1.52,0,0,0,1,.37l.27,0a1.52,1.52,0,0,0,1.06-.77c0-.09,5-9,18.16-19.22a1.52,1.52,0,0,0-.12-2.48c-1-.61-23.53-14.88-35-14.88Z"/><path class="cls-6" d="M1.7,359.73a.76.76,0,0,1-.75-.9c3.3-17.81,18.29-18.71,21.26-18.71.48,0,.75,0,.75,0a.76.76,0,0,1,.33,1.41c-2.58,1.52-3.2,7.36-3.23,9.48a.76.76,0,0,1-.76.75h0l-.83,0a21.49,21.49,0,0,0-16.15,7.66A.76.76,0,0,1,1.7,359.73Z"/><path d="M22.22,340.88c.45,0,.7,0,.7,0C19.41,343,19.32,351,19.32,351l-.86,0A22.14,22.14,0,0,0,1.7,359c3.16-17.07,17.21-18.09,20.52-18.09m0-1.52c-3.08,0-18.6.93-22,19.33a1.52,1.52,0,0,0,2.71,1.19,20.81,20.81,0,0,1,15.55-7.35l.8,0h.06a1.52,1.52,0,0,0,1.52-1.5c0-2.79.84-7.65,2.85-8.84a1.52,1.52,0,0,0-.66-2.82s-.29,0-.81,0Z"/><path d="M33.76,365.84a1.61,1.61,0,0,1-.61-2.3l1.15-2L31.63,360l-2.22,1.9a1.79,1.79,0,0,1-1,.47,1.75,1.75,0,0,1-1.07-.28l-2.05-1.19a1.43,1.43,0,0,1-.61-2,1.69,1.69,0,0,1,.44-.48l1.6-1.32a1.55,1.55,0,0,1-.29-2l.1-.17a1.58,1.58,0,0,1,1-.78l0-.07a1.39,1.39,0,0,1,.53-.51,1.57,1.57,0,0,1,.1-1.49l.1-.17a1.59,1.59,0,0,1,1-.77,1.66,1.66,0,0,1,.24-.87l.1-.17a1.54,1.54,0,0,1,1.69-.79,1.42,1.42,0,0,1,2-.44l1.57.91a1.86,1.86,0,0,1,.76.75,1.65,1.65,0,0,1,1.4.17l1.86,1.08a1.66,1.66,0,0,1,.83,1.08,1.88,1.88,0,0,1,.93.28l1.69,1a1.43,1.43,0,0,1,.64,2,1.54,1.54,0,0,1,.19,1.9l-.1.17a1.65,1.65,0,0,1-.69.66,1.6,1.6,0,0,1-.2,1.18l-.1.17a1.59,1.59,0,0,1-1.16.82,1.47,1.47,0,0,1-.19.74,1.43,1.43,0,0,1-.48.49,1.85,1.85,0,0,1-.23.64l-2,3.5a1.61,1.61,0,0,1-2.3.61Zm2-7.44v-.08l-2.61-1.52-.07,0Z"/><path class="cls-2" d="M31.17,359l-2.46,2.1a.78.78,0,0,1-.41.21.75.75,0,0,1-.43-.13L25.82,360q-.41-.24-.22-.55a.66.66,0,0,1,.17-.17l2.15-1.78a.94.94,0,0,0,.21-.24.43.43,0,0,0,0-.39.56.56,0,0,0-.26-.27l-.3-.17q-.52-.3-.25-.77l.1-.17q.27-.47.79-.17l10.66,6.21a.53.53,0,0,1,.22.82l-2,3.5a.53.53,0,0,1-.82.22l-1.94-1.13a.53.53,0,0,1-.22-.82l1.4-2.4a.53.53,0,0,0-.22-.82l-3.36-2a.72.72,0,0,0-.39-.12A.76.76,0,0,0,31.17,359Zm8.7,1.18v.78a.49.49,0,0,1,0,.24q-.16.28-.51.08l-2.06-1.2a1,1,0,0,1-.37-.31,1,1,0,0,1-.08-.47v-1.17a.69.69,0,0,0-.06-.35.74.74,0,0,0-.27-.23l-3-1.74a.75.75,0,0,0-.32-.12.77.77,0,0,0-.33.11l-1.12.56a1.12,1.12,0,0,1-.47.14,1.06,1.06,0,0,1-.47-.17l-2.09-1.22q-.32-.19-.16-.45a.41.41,0,0,1,.19-.15l.67-.33a.54.54,0,0,0,.25-.2.34.34,0,0,0,0-.28.36.36,0,0,0-.17-.21l-.13-.08a.49.49,0,0,1-.21-.75l.1-.17a.51.51,0,0,1,.79-.17l3.54,2.06q.51.3.75-.11T34,353.5l-3.33-1.94q-.52-.3-.25-.77l.1-.17a.49.49,0,0,1,.76-.18l.13.08a.46.46,0,0,0,.36.05.45.45,0,0,0,.29-.22.4.4,0,0,0,.05-.18l0-.11a.48.48,0,0,1,.06-.2q.18-.31.56-.08l1.57.91a.84.84,0,0,1,.34.31.77.77,0,0,1,.05.44l-.05.52a.54.54,0,0,0,.22.58q.27.16.47-.18l.31-.54a.53.53,0,0,1,.82-.22l1.86,1.08a.53.53,0,0,1,.22.82l-.32.54q-.19.32.09.48a.47.47,0,0,0,.57-.11l.38-.31a.72.72,0,0,1,.39-.19.77.77,0,0,1,.43.13l1.69,1q.4.23.22.54a.59.59,0,0,1-.14.15l-.08.06a.5.5,0,0,0-.11.14.46.46,0,0,0,0,.41.49.49,0,0,0,.22.24l.15.09a.49.49,0,0,1,.21.75l-.1.17a.51.51,0,0,1-.79.17l-3.42-2q-.51-.3-.75.12t.27.71L41,358.68q.52.3.25.77l-.1.17a.47.47,0,0,1-.73.2l-.06,0a.33.33,0,0,0-.28,0,.32.32,0,0,0-.18.14A.49.49,0,0,0,39.86,360.16Z"/><path class="cls-7" d="M632,140.21a1,1,0,0,1-.93-.7c-5.87-20.72-14.17-30.91-14.25-31a1,1,0,0,1,.31-1.48c18.27-9.29,36.65-36.28,36.84-36.55a1,1,0,0,1,1.19-.34c6.19,2.73,11.13,19.73,12.31,31,1.35,12.88-33.42,37.89-34.9,39A1,1,0,0,1,632,140.21Z"/><path d="M654.8,71c5.41,2.38,10.49,18.33,11.73,30.17,1.31,12.46-34.5,38.06-34.5,38.06-6-21.2-14.44-31.36-14.44-31.36C636.3,98.37,654.8,71,654.8,71m0-1.94a1.94,1.94,0,0,0-1.6.85c-.18.27-18.43,27.06-36.47,36.23a1.94,1.94,0,0,0-.61,3c.08.1,8.26,10.17,14.06,30.65a1.94,1.94,0,0,0,3,1c3.76-2.69,36.68-26.64,35.3-39.84-1.16-11-6.05-28.74-12.88-31.74a1.93,1.93,0,0,0-.78-.16Z"/><rect x="631.19" y="107.54" width="7.17" height="16.84" rx="2.07" ry="2.07" transform="translate(100.5 477.82) rotate(-44.46)"/><path class="cls-2" d="M628.67,111.92l2.16-2.12a.71.71,0,0,1,1.14,0l8.9,9.07a.71.71,0,0,1,0,1.14l-2.16,2.12a.71.71,0,0,1-1.14,0l-8.9-9.07A.71.71,0,0,1,628.67,111.92Z"/><path d="M644.15,118.56a2,2,0,0,1-2.93,0l-8.9-9.07a2,2,0,0,1,0-2.93l7.56-7.42a2,2,0,0,1,2.93,0l8.9,9.07a2,2,0,0,1,0,2.93Zm1-7.17-5.66-5.77-.67.65,5.66,5.77Z"/><path class="cls-2" d="M642.12,117.65l-8.9-9.07a.72.72,0,0,1,0-1.15L640.8,100a.71.71,0,0,1,1.14,0l8.9,9.07a.71.71,0,0,1,0,1.14l-7.56,7.42A.72.72,0,0,1,642.12,117.65Zm3-4.39,1.32-1.29a.72.72,0,0,0,0-1.15l-6.29-6.41a.71.71,0,0,0-1.14,0l-1.32,1.29a.71.71,0,0,0,0,1.14l6.29,6.41A.72.72,0,0,0,645.09,113.27Z"/><path d="M653.83,109.06a2,2,0,0,1-2.93,0L642,100A2,2,0,0,1,642,97l7.56-7.42a2,2,0,0,1,2.93,0l8.9,9.07a2,2,0,0,1,0,2.93Zm1-7.17-5.66-5.77-.67.65,5.66,5.77Z"/><path class="cls-2" d="M651.8,108.15l-8.9-9.07a.72.72,0,0,1,0-1.15l7.56-7.42a.71.71,0,0,1,1.14,0l8.9,9.07a.71.71,0,0,1,0,1.14l-7.56,7.42A.72.72,0,0,1,651.8,108.15Zm3-4.39,1.32-1.29a.72.72,0,0,0,0-1.15l-6.29-6.41a.71.71,0,0,0-1.14,0l-1.32,1.29a.71.71,0,0,0,0,1.14l6.29,6.41A.72.72,0,0,0,654.77,103.77Z"/><path class="cls-8" d="M665.72,105.82h-.15a1,1,0,0,1-.81-.81c-.57-3.77-7.17-7.3-9.67-8.34a1,1,0,0,1-.51-1.29c5.65-12.57-.86-23.62-.93-23.73A1,1,0,0,1,655,70.32c21.69,13.81,11.7,34.76,11.59,35A1,1,0,0,1,665.72,105.82Z"/><path d="M654.47,71.13c21.21,13.5,11.24,33.72,11.24,33.72-.77-5.14-10.26-9.09-10.26-9.09a28.19,28.19,0,0,0-1-24.63m0-1.94a1.94,1.94,0,0,0-1.66,2.93c.09.15,6.28,10.82.88,22.84a1.94,1.94,0,0,0,1,2.58c3.28,1.37,8.65,4.65,9.09,7.59a1.94,1.94,0,0,0,1.62,1.63l.3,0a1.94,1.94,0,0,0,1.74-1.08A29.6,29.6,0,0,0,670,93c-.16-6.62-2.79-16.08-14.47-23.51a1.93,1.93,0,0,0-1-.3Z"/></g></g></svg>