<svg xmlns="http://www.w3.org/2000/svg" width="120.67" height="79.92" viewBox="0 0 120.67 79.92"><defs><style>.cls-1{fill:#fff;}.cls-2{fill:#ff9500;}</style></defs><title>别戳我</title><g id="图层_2" data-name="图层 2"><g id="图层_1-2" data-name="图层 1"><path class="cls-1" d="M33,79.91c-4.24-.1-2.18-10-9-12.46S1.34,58.34.06,39.69C-1.48,17.18,27.43-3.84,79.35.6,130.83,5,127.27,47.18,106,58.18,86.24,68.42,50.39,64.13,43.87,67.7S39.5,80.07,33,79.91Z"/><path class="cls-2" d="M21.45,38.71a.91.91,0,0,1,.23-.67,1.57,1.57,0,0,1,.48-.28l.51-.19c.16-.06.23-.14.23-.23V35.15a2.91,2.91,0,0,1-.5-.12,2.62,2.62,0,0,1-.5-.12.82.82,0,0,1-.31-.39q-.07-.22-.18-.47a1.52,1.52,0,0,0-.34-.48,1.06,1.06,0,0,1-.23-.5.63.63,0,0,1-.1-.29,2.25,2.25,0,0,1,0-.29q-.06-.44-.17-1.2t-.16-1.56q-.1-.8-.18-1.45t-.07-.76a.64.64,0,0,1,0-.28v-.34a2.93,2.93,0,0,1,.31-1.36,1.17,1.17,0,0,1,1.15-.6h.5l.61.07,1.07.13,1.07.13.61.07q.47,0,1.23,0a7.52,7.52,0,0,1,1.43.1,3.22,3.22,0,0,1,1.2.47,1.24,1.24,0,0,1,.53,1.11v.47q0,.12-.1.48t-.18.79l-.2.82a5.81,5.81,0,0,0-.13.6l-.15.47q-.15.44-.32.9t-.26.88c-.06.27-.1.45-.12.53a2.19,2.19,0,0,0-.06.47,2.28,2.28,0,0,1-.06.47.75.75,0,0,1-.44.54,2,2,0,0,1-.64.19l-.38,0-.54,0-.54,0h-.35l-.26.15q0,.29-.06.54a4.23,4.23,0,0,0,0,.5v.39a.79.79,0,0,0,0,.28v.55c0,.11,0,.16,0,.16l.2.23q.88,0,1.78,0l1.72.1a1.88,1.88,0,0,1,1,.51,1.5,1.5,0,0,1,.29,1,1.73,1.73,0,0,1,0,.38,1.25,1.25,0,0,1,0,.29.61.61,0,0,1-.09.32,3.47,3.47,0,0,1-.12.5q-.06.23-.23.74l-.35,1.05-.32,1a5.18,5.18,0,0,0-.18.63,3,3,0,0,1-.45.66.91.91,0,0,1-.7.31.79.79,0,0,1-.66-.29,1.08,1.08,0,0,1-.18-.61v-.23a.88.88,0,0,0,0-.2,6,6,0,0,0,.17-.61q.18-.47.32-.95t.28-.95q.13-.47.19-.61l.12-.36a1.38,1.38,0,0,0,0-.34v-.18c0-.08,0-.12-.15-.12H25.07l-.17.26v4.58q0,.26-.37.44a1.45,1.45,0,0,1-.54.18,1.44,1.44,0,0,1-.66-.22.63.63,0,0,1-.39-.54V40c0-.06-.07-.11-.22-.15a3.57,3.57,0,0,1-.54-.2,1.14,1.14,0,0,1-.51-.32A.86.86,0,0,1,21.45,38.71Zm1.34-5.87h2a4.25,4.25,0,0,0,.72,0,1.22,1.22,0,0,0,.6-.25,1,1,0,0,0,.41-.58,1.13,1.13,0,0,0,.12-.29l.12-.41a2.42,2.42,0,0,0,.17-.45,1.52,1.52,0,0,0,.06-.28q.06-.23.18-.64t.22-.8q.1-.39.16-.67c0-.18.06-.29.06-.31v-.61l-.35-.15-.48,0-1.09-.06-1.24-.06q-.66,0-1.07-.09H22.15V28ZM32.46,40c0-.12,0-.33,0-.64s0-.58,0-.92,0-.67-.06-1V36.37c0-.19,0-.47,0-.82a5.43,5.43,0,0,1,.07-1.05,2.17,2.17,0,0,1,.34-.83.93.93,0,0,1,1.65.39V36.4q0,1,0,2a12,12,0,0,1-.13,2,.88.88,0,0,1-.38.47,1.13,1.13,0,0,1-.41.06A.94.94,0,0,1,32.46,40Zm3.27,4.52a1.14,1.14,0,0,1,.32-.85l.76-.64a4.85,4.85,0,0,0,.77-.77,1.71,1.71,0,0,0,.34-1.09c0-.08,0-.2,0-.36s0-.28,0-.34,0-.58,0-1.17,0-1.27,0-2.06,0-1.63,0-2.52,0-1.73-.07-2.51-.05-1.47-.07-2.07V28.84a1,1,0,0,1,.25-.67.79.79,0,0,1,.63-.29.91.91,0,0,1,.67.23,1.74,1.74,0,0,1,.38.61,34.8,34.8,0,0,1,.26,4.2v9a3.11,3.11,0,0,1-.79,1.81,7.47,7.47,0,0,1-1.52,1.34,2.74,2.74,0,0,1-.5.31,1.23,1.23,0,0,1-.47.07.77.77,0,0,1-.63-.26A1,1,0,0,1,35.73,44.52Z"/><path class="cls-2" d="M50.56,31.35a.9.9,0,0,0-.41.09.79.79,0,0,1-.35.23,7.22,7.22,0,0,1-2.63.5h-.64a.85.85,0,0,1-.61-.85,1,1,0,0,1,.5-.85L48,30a5.3,5.3,0,0,1,1.47-.19,1.21,1.21,0,0,1,.66.13,2.52,2.52,0,0,1,.48.51l.15-.5v-.23q0-.2,0-.47c0-.18,0-.35,0-.53V26.7a8.08,8.08,0,0,0-.18-1.8.64.64,0,0,0-.58-.35H44.69a.73.73,0,0,1-.6-.34,1.11,1.11,0,0,1-.25-.66A1,1,0,0,1,44,23a.82.82,0,0,1,.53-.34l1.17-.07,1-.06H49.8q.82.09,1.37.18a1.82,1.82,0,0,1,.89.36,1.38,1.38,0,0,1,.45.77,4.32,4.32,0,0,1,.18,1.34v.35c0,.25,0,.53,0,.83s0,.6,0,.9v1.33c0,.27,0,.55,0,.85s0,.57,0,.85v.58a5.66,5.66,0,0,0-.07.83,5,5,0,0,1-.12,1,1.84,1.84,0,0,1-.36.77.8.8,0,0,1-.73.38.83.83,0,0,1-.7-.26,1.93,1.93,0,0,1-.2-.66,3,3,0,0,1,0-.83A4.46,4.46,0,0,0,50.56,31.35ZM47.61,38h-.2a2.06,2.06,0,0,0-.88.2,1.76,1.76,0,0,1-.85.2A.88.88,0,0,1,45,38a1.2,1.2,0,0,1-.26-.76.86.86,0,0,1,.28-.67,1.31,1.31,0,0,1,.72-.31L49,35.53h1.23s.12.07.23.2l.26.29v.12a.44.44,0,0,0,0,.13.24.24,0,0,1,0,.07.73.73,0,0,1-.12.5.5.5,0,0,1-.23.2,1.61,1.61,0,0,1-.32.17,1.69,1.69,0,0,0-.32.38,1.07,1.07,0,0,0,0,.34v.34a30.7,30.7,0,0,0,.2,3.56q.18,1.81.18,3.62a1.05,1.05,0,0,1-.26.67.79.79,0,0,1-.63.32.86.86,0,0,1-.58-.19,1.41,1.41,0,0,1-.35-.47,2,2,0,0,1-.18-.58,4.11,4.11,0,0,1,0-.57q0-.35-.12-1.23t-.09-1.84q-.06-.93-.12-1.78t-.06-1.23ZM46,27.62a.78.78,0,0,1,.15-.47,1.94,1.94,0,0,1,.35-.32l1.28-.19a9.24,9.24,0,0,1,1.2-.07,1.32,1.32,0,0,1,.8.25.85.85,0,0,1,.34.73.8.8,0,0,1-.31.7,2.08,2.08,0,0,1-.73.32,3.71,3.71,0,0,1-.88.1h-.74a2.54,2.54,0,0,1-1-.19A.83.83,0,0,1,46,27.62Zm5.31,20.32a.65.65,0,0,1,.26-.57,2,2,0,0,1,.61-.29,3.52,3.52,0,0,1,.72-.13l.6,0,.12-.15v-.85l-.12-.09-.6,0a1.77,1.77,0,0,1-.54-.13,1.07,1.07,0,0,1-.41-.32.86.86,0,0,1-.18-.55.75.75,0,0,1,.22-.55,1.19,1.19,0,0,1,.53-.31,4.34,4.34,0,0,1,.66-.13,4.83,4.83,0,0,1,.58,0c.1,0,.14-.1.13-.25s0-.23,0-.25,0-.18,0-.36-.09-.28-.25-.28H51.81c-.16,0-.29-.12-.41-.35a1.35,1.35,0,0,1-.17-.55.78.78,0,0,1,.28-.66,2,2,0,0,1,.69-.34,6.83,6.83,0,0,1,.79-.07h.67l.15-.15v-.06a1.84,1.84,0,0,0-.09-.53,1,1,0,0,0-.17-.5h-.67a3.41,3.41,0,0,1-.7-.07,1.19,1.19,0,0,1-.58-.29.78.78,0,0,1-.23-.6.85.85,0,0,1,.35-.76,1.91,1.91,0,0,1,.85-.29,7.1,7.1,0,0,1,1,0h.83l.91,0a6.86,6.86,0,0,1,1.18,0,2.63,2.63,0,0,1,1,.32.86.86,0,0,1,.42.8,1.55,1.55,0,0,1-.13.58.48.48,0,0,1-.48.32H55.81a.08.08,0,0,0-.09.09v.15q0,.73.26.92a1.58,1.58,0,0,0,.58.26,2.6,2.6,0,0,1,.58.2q.26.13.26.69t-.23.58a1.47,1.47,0,0,1-.51.25,2.3,2.3,0,0,0-.5.19q-.22.12-.22.53a.81.81,0,0,0,.12.5,3.18,3.18,0,0,0,.36.37,2.29,2.29,0,0,1,.34.35.87.87,0,0,1,.15.54.59.59,0,0,1-.19.5,2.19,2.19,0,0,1-.41.25,2.78,2.78,0,0,0-.41.23.46.46,0,0,0-.19.41.27.27,0,0,0,.26.31l.58.06a2.26,2.26,0,0,1,.58.25q.26.16.26.69a.83.83,0,0,1-.23.61,1.23,1.23,0,0,1-.58.32,2.12,2.12,0,0,1-.73.18l-.64,0H52a.73.73,0,0,1-.5-.32A1.42,1.42,0,0,1,51.34,47.93ZM58,31.38q0-1.52.13-3t.13-3v-.48a3.31,3.31,0,0,0,0-.54l-.07-.19a.27.27,0,0,0-.18-.15l-.54-.13a7.28,7.28,0,0,0-.79-.15l-.77-.13-.54-.1a6.59,6.59,0,0,0-.69,0,4.7,4.7,0,0,1-.83-.07,1.73,1.73,0,0,1-.72-.29.78.78,0,0,1-.31-.69.74.74,0,0,1,.51-.82,3.76,3.76,0,0,1,1-.15H55l.53.07,1,.18,1.14.2.92.16a1.81,1.81,0,0,1,1.05.53,1.45,1.45,0,0,1,.53,1.05v3.62q0,.29,0,1.09T60,30.11q-.07.89-.12,1.66t-.07,1.09a.67.67,0,0,1-.32.53.88.88,0,0,1-.6.2,1,1,0,0,1-.63-.2.7.7,0,0,1-.29-.53Zm-5.2,3.44a.72.72,0,0,1,.32-.7,1.63,1.63,0,0,1,.79-.17q.32,0,.83,0t1,.13a2.67,2.67,0,0,1,.82.38,1,1,0,0,1,.35.79.91.91,0,0,1-.12.48,1.24,1.24,0,0,1-.38.36h-.61l-.8,0A4.82,4.82,0,0,1,54,36a2.45,2.45,0,0,1-.85-.41A.86.86,0,0,1,52.8,34.83ZM53,30.94a.88.88,0,0,1,.34-.73,2,2,0,0,1,.82-.36,5.56,5.56,0,0,1,1-.12h1.47a.93.93,0,0,1,.5.85.88.88,0,0,1-.34.73,2.11,2.11,0,0,1-.8.38,3.28,3.28,0,0,1-1,.2l-.73,0a1.89,1.89,0,0,1-.9-.23A.82.82,0,0,1,53,30.94Zm.35-3.68a.75.75,0,0,1,.22-.6,1.23,1.23,0,0,1,.53-.26,2.72,2.72,0,0,1,.63-.07h1.55a1.12,1.12,0,0,1,.58.38,1,1,0,0,1,.18.63.8.8,0,0,1-.2.61,1,1,0,0,1-.5.25,1.63,1.63,0,0,1-.61.12h-1a2.7,2.7,0,0,1-.48,0,1.94,1.94,0,0,1-.6-.38A.84.84,0,0,1,53.39,27.27ZM67,44.72a3,3,0,0,1-.36.28,7,7,0,0,1-.6.36l-.57.44a3.34,3.34,0,0,1-.39.26,5.51,5.51,0,0,1-.54.26,1.53,1.53,0,0,1-.6.12.84.84,0,0,1-.69-.26,1,1,0,0,1-.22-.67,2.31,2.31,0,0,1,0-.38.68.68,0,0,1,.23-.29l.25-.15.41-.26.39-.25a1.93,1.93,0,0,0,.28-.19,1.84,1.84,0,0,1,.38-.22,2.91,2.91,0,0,0,.54-.34,1.54,1.54,0,0,0,.45-.38.81.81,0,0,0,.19-.53V42.3l-1.69-3.85c0-.1-.08-.15-.13-.15h-.16a4.83,4.83,0,0,0-1.53.25,4.72,4.72,0,0,1-1.5.25,1.38,1.38,0,0,1-.76-.2q-.29-.15-.29-.64a1.13,1.13,0,0,1,.29-.73,1.34,1.34,0,0,1,.7-.35l2.28-.5.26-.23q-.35-1.23-.8-2.76a10.25,10.25,0,0,1-.45-2.9v-.35a1.26,1.26,0,0,0,.06-.29,2.41,2.41,0,0,1,.41-.42.88.88,0,0,1,.55-.16,1.28,1.28,0,0,1,.79.29.86.86,0,0,1,.44.73,2.54,2.54,0,0,1-.15.79l.12.57q.09.42.19.89t.16.85l.12.58a.89.89,0,0,0,.07.28q.07.19.15.44c0,.17.1.33.16.5s.1.29.12.36c.1.27.25.41.47.41a11.52,11.52,0,0,0,1.74-.13,11.71,11.71,0,0,1,1.77-.13,2.85,2.85,0,0,1,.91.15.8.8,0,0,1,.47.82.94.94,0,0,1-.18.53.71.71,0,0,1-.47.32L67,37.86l-.12,0L66.7,38l-.06.06a.1.1,0,0,0,0,.07,1,1,0,0,0,0,.18.83.83,0,0,0,.06.19l.23.47q.18.35.34.74t.32.73q.16.34.22.48a.1.1,0,0,0,.12.12.26.26,0,0,0,.13,0l.1-.07.32-.48a4.18,4.18,0,0,1,.39-.53,2.11,2.11,0,0,1,.48-.41,1,1,0,0,1,.55-.16.8.8,0,0,1,.9.91,1.31,1.31,0,0,1-.23.79l-.31.41-.47.61-.47.61q-.22.29-.31.44v.58L70,45.83s0,.08,0,.18v.2a1.18,1.18,0,0,1-.19.7.72.72,0,0,1-.63.26,1.81,1.81,0,0,1-.51-.07.66.66,0,0,1-.39-.34l-1-1.93-.12-.12H67ZM66.7,33.37a.81.81,0,0,1,.26-.64.93.93,0,0,1,.64-.23,2.12,2.12,0,0,1,1.09.32,1.08,1.08,0,0,1,.54,1,.8.8,0,0,1-.91.9,1.87,1.87,0,0,1-1.08-.39A1.14,1.14,0,0,1,66.7,33.37Z"/><path class="cls-2" d="M79.69,45.48a2.7,2.7,0,0,1,.23-1.11,3.16,3.16,0,0,0,.23-1.28q-.67,0-1.27,0t-1.27,0a1.44,1.44,0,0,1-.83-.25.9.9,0,0,1-.37-.8.81.81,0,0,1,.26-.58,1,1,0,0,1,.61-.29L80,41a.57.57,0,0,0,.58-.35,13.34,13.34,0,0,0,.13-1.4q0-.55,0-1.37V36.78c0-.1-.07-.15-.15-.15h-.12a16.18,16.18,0,0,0-2.07.13,16,16,0,0,1-2,.13,1.56,1.56,0,0,1-.76-.18.71.71,0,0,1-.32-.69.88.88,0,0,1,.38-.77,2.56,2.56,0,0,1,1-.38,8.6,8.6,0,0,1,1.27-.15h1.33l1,0q.44,0,.47-.23v-.53q0-.09,0-.77t-.13-1.47q-.09-.79-.22-1.43T80,29.6l-.12.06-.12.09-1.61,1.58a.59.59,0,0,1-.32.18.53.53,0,0,1-.32.09q-.91,0-.91-1a2.51,2.51,0,0,1,0-.41.66.66,0,0,1,.2-.35l5.69-5.55a.62.62,0,0,1,.35-.23,2.56,2.56,0,0,1,.41,0,1.07,1.07,0,0,1,.69.22.75.75,0,0,1,.28.63.88.88,0,0,1-.15.47.89.89,0,0,1-.26.38,4.53,4.53,0,0,1-.36.39l-.6.58-.6.58-.36.36-.06.15a.32.32,0,0,1-.06.12v.12l.38,1.61q.18.73.28,1.45t.18,1.46q.07.74.13,1.65l.15.23s.09,0,.26,0h1.46a8.38,8.38,0,0,0,1.05-.1v-.79q0-1.46-.13-2.93t-.13-3a3.22,3.22,0,0,1,.12-.93.76.76,0,0,1,.79-.41.88.88,0,0,1,.67.25,1.33,1.33,0,0,1,.32.63,4.1,4.1,0,0,1,.1.77q0,.39,0,.69t.06.85q.06.73.09,1.52t.06,1.46q.06.73.06.88v.26a.85.85,0,0,0,.06.32l.06.41.26.09h3.27a3.6,3.6,0,0,1,1.07.22.79.79,0,0,1,.51.83,1.11,1.11,0,0,1-.19.61.61.61,0,0,1-.54.29H88.56l-.38.12a.12.12,0,0,0,0,.09v.18a3.88,3.88,0,0,0,.15.7q.12.61.29,1.23A8.66,8.66,0,0,0,89,39.82q.22.5.39.5t.5-.38a7.44,7.44,0,0,0,.53-.82,8.29,8.29,0,0,1,.67-.82,1.19,1.19,0,0,1,1.53-.13.76.76,0,0,1,.31.66,1.49,1.49,0,0,1-.37.86,12,12,0,0,1-.83,1q-.41.5-.79.9a1.42,1.42,0,0,0-.35.7v0a0,0,0,0,0,0,0l.35.44a5.67,5.67,0,0,0,.48.48,3.65,3.65,0,0,0,.54.39,1.1,1.1,0,0,0,.57.18,1.13,1.13,0,0,0,.51-.12,2,2,0,0,1,.5-.06.8.8,0,0,1,.64.32,1.08,1.08,0,0,1,.26.7,1.05,1.05,0,0,1-.53,1,1.77,1.77,0,0,1-1,.32,3.32,3.32,0,0,1-1.18-.2,4.35,4.35,0,0,1-1-.55,11.26,11.26,0,0,1-.93-.76l-.86-.76a2.88,2.88,0,0,0-.48.34l-.42.35a3.09,3.09,0,0,1-.45.29,1.14,1.14,0,0,1-.54.13.79.79,0,0,1-.9-.88,1.71,1.71,0,0,1,0-.25.69.69,0,0,1,.1-.25L87.69,42v-.35a10.49,10.49,0,0,1-1-2.42q-.39-1.34-.66-2.57a.38.38,0,0,0-.22-.18.9.9,0,0,0-.31-.06h-.55a4.11,4.11,0,0,1-.63.07l-.64,0h-.42l-.19.1a.27.27,0,0,0-.15.15,3.74,3.74,0,0,0-.13.45c0,.27,0,.44,0,.5s0,.26,0,.48,0,.47,0,.73,0,.5-.06.72v.5c0,.14,0,.21.06.23a.41.41,0,0,0,.18,0,3.46,3.46,0,0,0,.66-.06,3.62,3.62,0,0,1,.67-.06,1.13,1.13,0,0,1,.67.22.72.72,0,0,1,.31.63.73.73,0,0,1-.35.73,2.46,2.46,0,0,1-.85.32l-.89.15a.69.69,0,0,0-.57.35,1.53,1.53,0,0,0-.07.19.69.69,0,0,0,0,.19q0,.15-.13.51t-.2.76l-.19.74q-.06.41-.09.53a1.09,1.09,0,0,1-1.11.73,1.07,1.07,0,0,1-.69-.22A.75.75,0,0,1,79.69,45.48Zm10-17.17a.85.85,0,0,1,.26-.67,1.22,1.22,0,0,1,.64-.18,1,1,0,0,1,.79.32,3,3,0,0,1,.5.76l.2.44q.15.32.29.7t.28.69a4.06,4.06,0,0,0,.22.45v.41a1.16,1.16,0,0,1-.19.71.86.86,0,0,1-.72.25q-.32,0-.71-.5a7.13,7.13,0,0,1-.73-1.14,13.19,13.19,0,0,1-.6-1.31A2.9,2.9,0,0,1,89.73,28.32Z"/><path class="cls-2" d="M102.25,34.39a.9.9,0,0,0-.79.38,4.73,4.73,0,0,0-.45.82,8,8,0,0,1-.41.82.74.74,0,0,1-.69.38.84.84,0,0,1-.58-.29.82.82,0,0,1-.29-.55,2.83,2.83,0,0,1,.29-1.23,4.56,4.56,0,0,1,.76-1.12,4,4,0,0,1,1.07-.83,2.54,2.54,0,0,1,1.21-.32,2,2,0,0,1,1.11.28,3,3,0,0,1,.76.69,6,6,0,0,1,.58.9,6,6,0,0,0,.58.9,2.89,2.89,0,0,0,.77.69,2.11,2.11,0,0,0,1.12.28,1,1,0,0,0,.74-.28,3.51,3.51,0,0,0,.5-.63,4.58,4.58,0,0,1,.47-.63.91.91,0,0,1,.72-.28H110a1,1,0,0,1,.28,0,.67.67,0,0,1,.2.34,2.24,2.24,0,0,1,0,.39,2.17,2.17,0,0,1-.29,1.09,3,3,0,0,1-.76.88,3.75,3.75,0,0,1-1,.57,3.12,3.12,0,0,1-1.08.2,3.8,3.8,0,0,1-1.47-.26,4.16,4.16,0,0,1-1.08-.64,4.2,4.2,0,0,1-.77-.85q-.32-.47-.61-.85a5.6,5.6,0,0,0-.57-.64A.86.86,0,0,0,102.25,34.39Z"/></g></g></svg>