<svg xmlns="http://www.w3.org/2000/svg" width="120.67" height="79.92" viewBox="0 0 120.67 79.92"><defs><style>.cls-1{fill:#fff;}.cls-2{fill:#ff9500;}</style></defs><title>签过啦</title><g id="图层_2" data-name="图层 2"><g id="图层_1-2" data-name="图层 1"><path class="cls-1" d="M33,79.91c-4.24-.1-2.18-10-9-12.46S1.34,58.34.06,39.69C-1.48,17.18,27.43-3.84,79.35.6,130.83,5,127.27,47.18,106,58.18,86.24,68.42,50.39,64.13,43.87,67.7S39.5,80.07,33,79.91Z"/><path class="cls-2" d="M15.24,23.79a.81.81,0,0,1,.64.21,1.07,1.07,0,0,1,.3.58,2.33,2.33,0,0,1,.14.7q0,.36,0,.67h.43q.94,0,1.84-.06t1.81-.06H22a.76.76,0,0,1,.59.3,1.06,1.06,0,0,1,.2.64,1.21,1.21,0,0,1-.17.58.6.6,0,0,1-.5.33l-5.16.4a1.25,1.25,0,0,1-.3.06,1.26,1.26,0,0,0-.3.06.13.13,0,0,0-.15.15v3.13a1,1,0,0,1-.29.71.91.91,0,0,1-.67.29,1.15,1.15,0,0,1-.74-.3,1,1,0,0,1-.3-.7V24.94a1.19,1.19,0,0,1,.3-.8A1,1,0,0,1,15.24,23.79Zm-.46,15.72a1.27,1.27,0,0,1,.52-1q1.64-1.43,3.31-2.73T21.86,33a2.79,2.79,0,0,0,.3-.21,1.44,1.44,0,0,1,.4-.06.85.85,0,0,1,.67.32,1.07,1.07,0,0,1,.27.71,1.15,1.15,0,0,1-.06.36,1.19,1.19,0,0,0-.06.38c0,.13,0,.21.12.24a2.35,2.35,0,0,1,.35.18l.5.27.53.26.35.15q.24.12,1.11.49l1.87.79,1.87.79,1.08.46a4.15,4.15,0,0,1,.83.5,1,1,0,0,1,.32.83.76.76,0,0,1-.27.64,1.05,1.05,0,0,1-.67.21h-.24a.66.66,0,0,1-.21,0L30,39.85l-1.44-.61-1.7-.73-1.7-.73-1.46-.61q-.65-.27-1-.42l-.18-.09a1.19,1.19,0,0,1-.3-.18l-.3-.14-.18-.08-.11,0-.11,0,0,0,0,0h-.06L16.7,40a2.53,2.53,0,0,1-.44.27,1.2,1.2,0,0,1-.5.09,1.05,1.05,0,0,1-.7-.23A.8.8,0,0,1,14.79,39.51Zm2.43,4.67a1.07,1.07,0,0,1,.27-.71.82.82,0,0,1,.64-.32q.27,0,.83.52a12.89,12.89,0,0,1,1.12,1.18,11.1,11.1,0,0,1,1,1.37,2.36,2.36,0,0,1,.42,1.08.84.84,0,0,1-.24.62.71.71,0,0,1-.64.27,1.7,1.7,0,0,1-1-.5,8.69,8.69,0,0,1-1.12-1.15,9.64,9.64,0,0,1-.93-1.35A2.25,2.25,0,0,1,17.22,44.19Zm.85-3.95a1,1,0,0,1,.27-.68.85.85,0,0,1,.64-.29l.79-.06,1.2-.08L22.18,39l.8,0h3.52a.88.88,0,0,1,.61.3,1,1,0,0,1,.27.65,1,1,0,0,1-.23.61.9.9,0,0,1-.53.35l-1,0L24,41q-.82.09-1.56.12l-1,0H18.7a.68.68,0,0,1-.47-.35A1.11,1.11,0,0,1,18.07,40.24Zm.64-9.65a.65.65,0,0,1-.3-.35,1.61,1.61,0,0,1-.06-.47.91.91,0,0,1,.3-.68,1,1,0,0,1,.67-.29,1.47,1.47,0,0,1,.47,0l.44.24.71.39a8.07,8.07,0,0,1,.74.44,2.51,2.51,0,0,1,.61.56,1.24,1.24,0,0,1,.24.77.73.73,0,0,1-.29.65,1.23,1.23,0,0,1-.71.2h-.29A.92.92,0,0,1,21,32l-.44-.29-.71-.44-.65-.39ZM18.58,50a1.11,1.11,0,0,1,.23-.61.66.66,0,0,1,.56-.33H32.42a.79.79,0,0,1,.62.3,1,1,0,0,1,.26.64,1.18,1.18,0,0,1-.23.62.64.64,0,0,1-.53.35H19.22a.57.57,0,0,1-.52-.39A1.73,1.73,0,0,1,18.58,50Zm3.92-5.95a1.49,1.49,0,0,1,.23-.77.77.77,0,0,1,.71-.38.83.83,0,0,1,.7.38,2.2,2.2,0,0,1,.36.74q0,.18.08.55t.12.77q.08.41.12.8t0,.52a1.48,1.48,0,0,1-.27.77,1,1,0,0,1-.79.26.88.88,0,0,1-.79-.42,5.32,5.32,0,0,1-.35-1A6.07,6.07,0,0,1,22.51,45Q22.5,44.4,22.5,44.06Zm2-13.72,1.15-6.16a1,1,0,0,1,.35-.55.88.88,0,0,1,.56-.24.73.73,0,0,1,.76.46,2.07,2.07,0,0,1,.18.88,5.67,5.67,0,0,1-.06.79,4.37,4.37,0,0,0-.06.73c0,.12.08.18.24.18a11.39,11.39,0,0,0,1.32-.08,11.48,11.48,0,0,1,1.32-.08h.58l.58.06a.64.64,0,0,1,.5.32,1.24,1.24,0,0,1,.14.59.84.84,0,0,1-.64.94l-.61,0-.93.09L29,28.4l-.58.06-.29,0-.5,0-.46.17a.33.33,0,0,0-.24.26l-.52,2.52A.9.9,0,0,1,26,32a1,1,0,0,1-.59.23.79.79,0,0,1-.79-.46,2.85,2.85,0,0,1-.15-.91Zm2.64,16.85a.73.73,0,0,1,0-.2.51.51,0,0,1,.08-.17l.29-.56q.2-.38.41-.83t.41-.83a4.49,4.49,0,0,0,.26-.56,2,2,0,0,1,.47-.44,1.11,1.11,0,0,1,.64-.2.85.85,0,0,1,.64.32,1,1,0,0,1,.29.68c0,.1,0,.15,0,.15a.83.83,0,0,1,0,.18.94.94,0,0,1-.06.18,3.64,3.64,0,0,1-.24.46A3.44,3.44,0,0,1,30,46l-.33.71-.21.44a5.14,5.14,0,0,1-.5.76.89.89,0,0,1-.73.36,1,1,0,0,1-.74-.29.94.94,0,0,1-.3-.71Zm1.24-16.91a1.21,1.21,0,0,1,.24-.73.84.84,0,0,1,.73-.33,1.56,1.56,0,0,1,.74.26,6,6,0,0,1,.85.61,4.1,4.1,0,0,1,.7.76,1.34,1.34,0,0,1,.29.74.84.84,0,0,1-.27.68,1,1,0,0,1-.65.23,1.9,1.9,0,0,1-.82-.21,4.73,4.73,0,0,1-.85-.53,3,3,0,0,1-.68-.74A1.21,1.21,0,0,1,28.39,30.28Z"/><path class="cls-2" d="M47.78,46a.54.54,0,0,0-.41.26l-.42.56a3.81,3.81,0,0,1-.52.56,1,1,0,0,1-.7.26.74.74,0,0,1-.62-.27,1.12,1.12,0,0,1-.15-.61,1.1,1.1,0,0,1,.11-.47l.21-.42.23-.41a.72.72,0,0,0,.09-.38q0-.23-.36-.39l-.83-.41a4.15,4.15,0,0,1-.83-.56,1,1,0,0,1-.36-.8,1,1,0,0,1,.94-.94,1.79,1.79,0,0,1,.67.12q.36.18.68.38t.62.35a1.46,1.46,0,0,0,.67.15.44.44,0,0,0,.32-.14.81.81,0,0,0,.2-.32,1.46,1.46,0,0,0,.17-.44,1.93,1.93,0,0,0,0-.35,1.19,1.19,0,0,0-.36-.9,7.67,7.67,0,0,0-.8-.67,6.47,6.47,0,0,1-.79-.67,1.23,1.23,0,0,1-.35-.91,2.34,2.34,0,0,1,.23-1,9.24,9.24,0,0,1,.52-.93q.29-.46.53-.88a1.65,1.65,0,0,0,.24-.82c0-.06,0-.09-.12-.09a3.61,3.61,0,0,1-.49-.06h-.46a8.12,8.12,0,0,0-1.21.09,8,8,0,0,1-1.18.09,1.11,1.11,0,0,1-.74-.27.87.87,0,0,1-.11-1.24,1.59,1.59,0,0,1,.49-.38,2.75,2.75,0,0,1,.59-.21,2.58,2.58,0,0,1,.59-.08h4.28a.84.84,0,0,1,.61.55,2.09,2.09,0,0,1,.18.82,3.34,3.34,0,0,1,0,.55,4.67,4.67,0,0,1-.24.61l-.27.55-.44.86q-.23.44-.41.85a3.28,3.28,0,0,1-.27.53v.24q.7.67,1.41,1.46a2.71,2.71,0,0,1,.71,1.88,2.22,2.22,0,0,1-.32,1.17A2.12,2.12,0,0,0,49,43.94a.52.52,0,0,0,.18.36,1.21,1.21,0,0,0,.41.27l.47.18.33.12a4.25,4.25,0,0,1,.64.27q.48.21,1,.41A9.82,9.82,0,0,1,53,46l.64.27,1.24.32,1.87.5q1,.27,1.87.46t1.21.36a2.82,2.82,0,0,1,.79.33.76.76,0,0,1,.33.7.89.89,0,0,1-.32.77,1.35,1.35,0,0,1-.8.23h-.36l-1.11-.27-1.68-.46Q55.76,49,55,48.8t-1.11-.27l-.39-.15a.82.82,0,0,1-.33-.12,8.83,8.83,0,0,1-1.06-.46l-1.61-.65-1.59-.67q-.74-.32-1-.47ZM42.56,27.77a.89.89,0,0,1,1-1,1.2,1.2,0,0,1,.88.36c.1.08.25.22.44.41l.61.61.61.61a4.92,4.92,0,0,1,.38.41.89.89,0,0,1,.21.36,2.36,2.36,0,0,1,0,.43,1,1,0,0,1-.24.67.68.68,0,0,1-.64.3,1.24,1.24,0,0,1-.47-.11,1,1,0,0,1-.41-.29l-2.25-2.28a.26.26,0,0,1-.15-.21ZM57,45.46a.77.77,0,0,1,.36-.74,3.76,3.76,0,0,1,.82-.32,7.74,7.74,0,0,0,.79-.15q.42-.06.46-.36l.09-1.27v-6.8l-.09-1.24a.18.18,0,0,0-.2-.15H59a21.57,21.57,0,0,0-3.43.27,21.58,21.58,0,0,1-3.43.27,1.9,1.9,0,0,1-.83-.2.76.76,0,0,1-.41-.76.85.85,0,0,1,.42-.8,3.52,3.52,0,0,1,1-.27l6.8-.61q.12,0,.11-.24c0-.14,0-.22,0-.24A20.24,20.24,0,0,0,59,28.92,27.13,27.13,0,0,1,58.8,26v-.76a1,1,0,0,1,.35-.55.9.9,0,0,1,.58-.24,1,1,0,0,1,.59.24.94.94,0,0,1,.36.55l.67,6.83H64a.65.65,0,0,1,.58.33,1.52,1.52,0,0,1,.21.7,1.62,1.62,0,0,1-.17.59.56.56,0,0,1-.53.38H61.8l-.27.33v9a2.79,2.79,0,0,1-.93,2.25,3.59,3.59,0,0,1-2.41.79Q57,46.52,57,45.46Zm-3-6.68a.89.89,0,0,1,.32-.68,1,1,0,0,1,.68-.29,1.89,1.89,0,0,1,.79.24,5.9,5.9,0,0,1,.93.58,4.35,4.35,0,0,1,.76.73,1.2,1.2,0,0,1,.32.73,1,1,0,0,1-.29.71.86.86,0,0,1-.65.32,2,2,0,0,1-.8-.24,6.19,6.19,0,0,1-1-.58,3.89,3.89,0,0,1-.77-.74A1.29,1.29,0,0,1,54,38.78Z"/><path class="cls-2" d="M69.7,46.1l-.11-1.15q-.08-.82-.15-1.73t-.14-1.73q-.06-.82-.12-1.15v-.52a1.11,1.11,0,0,1,.29-.88,1.49,1.49,0,0,1,1-.24h.64l1,0q.67,0,1.34.08l1.27,0,.64,0A4.94,4.94,0,0,1,76.5,39a1.77,1.77,0,0,1,.85.79v.88q0,1.64-.08,3.08t-.2,3.17q-.06.67-.61.76l-.77.11q-.56.08-1.17.12L73.35,48a4.7,4.7,0,0,0-.77.11H70.7a.82.82,0,0,1-.52-.29,1.37,1.37,0,0,1-.26-.53,4.09,4.09,0,0,1-.11-.67C69.78,46.44,69.74,46.26,69.7,46.1Zm1.73-3.61q0,.3.09.79c0,.36,0,.71.08,1s.06.63.08.88,0,.39,0,.41l.12.36h.49q.67,0,1.18,0t1.21-.12l.2-.08a.37.37,0,0,0,.17-.14q.06-1.21.11-2.09t0-1.94v-.64l-1.53-.09q-.65,0-1.47,0l-.36,0-.27,0-.15.09v1.55Zm7.16,4.67a1.07,1.07,0,0,1,.18-.61,6.63,6.63,0,0,1,.55-.49l.59-.47a1.7,1.7,0,0,0,.44-.5,2,2,0,0,0,.24-1q0-.53,0-1.08a6.87,6.87,0,0,0-.91.06,5.75,5.75,0,0,1-.88.06,1,1,0,0,1-.88-.42,1.47,1.47,0,0,1-.3-1c0-.12,0-.17,0-.15s.14,0,.32-.09q.7-.27,1.12-.39t1.27-.36q.33-.09.35-.35t0-.53q0-.73,0-1.38T80.59,37a.14.14,0,0,0-.15-.12h-.12a5.57,5.57,0,0,0-1.26.14,5.47,5.47,0,0,1-1.23.14,1.65,1.65,0,0,1-.88-.24.85.85,0,0,1-.39-.79,1.19,1.19,0,0,1,.26-.71,1,1,0,0,1,.65-.41l.38,0,.61,0,.61,0,.39,0a1.46,1.46,0,0,0,.38-.09,1.55,1.55,0,0,0,.36-.06.43.43,0,0,0,.18,0l.09-.06V27.31a1,1,0,0,1,1.06-1.06.87.87,0,0,1,.94.7q-.06,1.79-.08,3.7a18.85,18.85,0,0,0,.32,3.67.54.54,0,0,0,.52.15h.58a1.72,1.72,0,0,1,.52.18,1,1,0,0,1,.21.73.82.82,0,0,1-.26.67,1.57,1.57,0,0,1-.59.3,4.24,4.24,0,0,1-.58.12c-.16.06-.24.13-.24.21v3.13L83,40l.61-.09a2,2,0,0,1,.62.09,1.28,1.28,0,0,1,.49.27.8.8,0,0,1,.2.61.67.67,0,0,1-.27.64,1.6,1.6,0,0,1-.58.32l-.68.24a.78.78,0,0,0-.47.44q-.09.76-.17,1.47a7,7,0,0,1-.29,1.38,3.64,3.64,0,0,1-.53,1.2,5,5,0,0,1-1,1.08,2.81,2.81,0,0,1-.67.36,1.12,1.12,0,0,1-.61.15,1,1,0,0,1-.68-.27A.88.88,0,0,1,78.59,47.16ZM86,46.92a1,1,0,0,1,.26-.64.79.79,0,0,1,.62-.3H90a.54.54,0,0,0-.27-.46.56.56,0,0,1-.33-.42,4.57,4.57,0,0,1-.23-.64l-.29-1q-.15-.53-.3-1a4.26,4.26,0,0,1-.18-.67c0-.18-.07-.33-.09-.44a2.52,2.52,0,0,1,0-.44,1.27,1.27,0,0,1,.27-.8.91.91,0,0,1,.76-.35,1.07,1.07,0,0,1,.52.09,1,1,0,0,1,.32.35,1.51,1.51,0,0,1,.15.46q0,.26.11.53t.15.62q.12.44.27.94t.27,1q.12.45.18.61v.46a1.18,1.18,0,0,1-.14.65,3.61,3.61,0,0,1-.5.53h1.85a11.39,11.39,0,0,0,1.88-.15,15.48,15.48,0,0,1,1.91-.12,1.34,1.34,0,0,1,.55.12,2,2,0,0,1,.49.39v.42a1,1,0,0,1-.65,1,4.75,4.75,0,0,1-1.5.4,8.36,8.36,0,0,1-1.67.14l-1.24,0H90.37l-.52-.06-.76,0-.82,0-.55,0-.56-.06a2.14,2.14,0,0,1-.56-.14,1.12,1.12,0,0,1-.46-.32A.76.76,0,0,1,86,46.92Zm.61-12a.8.8,0,0,1,.3-.68,2.67,2.67,0,0,1,.76-.38,5,5,0,0,1,.87-.11l.71,0h.27l.56,0,.62,0h.55l2.26,0q1,0,2.23.11a.9.9,0,0,1,.7.94,1,1,0,0,1-.12.55.72.72,0,0,1-.42.42q-2.16-.09-4.1,0t-4,.11a1.66,1.66,0,0,1-.85-.21Q86.6,35.48,86.6,34.9Zm1.76-6.83a1.07,1.07,0,0,1,.27-.71A.85.85,0,0,1,89.3,27h.06l.21.06a.53.53,0,0,1,.27.09,5.48,5.48,0,0,1,.58.36l.94.56.91.56q.42.27.61.36a5.59,5.59,0,0,1,.52.46.86.86,0,0,1,.24.64.91.91,0,0,1-.27.67,1,1,0,0,1-.7.27,2.88,2.88,0,0,1-1-.33,12.13,12.13,0,0,1-1.44-.8,9.53,9.53,0,0,1-1.29-1A1.38,1.38,0,0,1,88.36,28.07ZM93,43.61a3,3,0,0,1,.09-.47q.09-.38.2-.87t.2-1a6.26,6.26,0,0,1,.18-.74,1.63,1.63,0,0,1,.33-.74.86.86,0,0,1,.7-.29.87.87,0,0,1,1,1v.3l-.76,3.64a.81.81,0,0,1-.36.58,1.42,1.42,0,0,1-.7.15.68.68,0,0,1-.68-.35,1.84,1.84,0,0,1-.17-.8Z"/><path class="cls-2" d="M102.84,45.46a1.74,1.74,0,0,1,.26-1,1,1,0,0,1,.9-.39,1.83,1.83,0,0,1,1.17.35,1.29,1.29,0,0,1,.44,1.08,1.14,1.14,0,0,1-.47.94,1.63,1.63,0,0,1-1,.36,1.18,1.18,0,0,1-1-.38A1.48,1.48,0,0,1,102.84,45.46ZM104,38.21v-.32a.55.55,0,0,1,0-.26l1.79-9a1.88,1.88,0,0,1,.32-.77.79.79,0,0,1,.68-.38.91.91,0,0,1,.73.38,1.2,1.2,0,0,1,.3.74v.14a.15.15,0,0,1,0,.11l-1.79,9a3,3,0,0,1-.32,1,.87.87,0,0,1-.83.41.8.8,0,0,1-.7-.26A1.28,1.28,0,0,1,104,38.21Z"/></g></g></svg>