<svg xmlns="http://www.w3.org/2000/svg" width="462.33" height="226" viewBox="0 0 462.33 226"><defs><style>.cls-1{opacity:0.2;}.cls-2{fill:#fdea8f;}.cls-3{fill:none;stroke:#ddcb74;stroke-miterlimit:10;stroke-width:1.41px;}.cls-4{fill:#e21c19;}</style></defs><title>A100</title><g id="图层_2" data-name="图层 2"><g id="图层_1-2" data-name="图层 1"><g class="cls-1"><path d="M455.87,29.7a6.46,6.46,0,0,1,6.46-6.46V20.66a6.46,6.46,0,1,1,0-12.91V6.47a2.61,2.61,0,0,0-2.6-2.6H2.6A2.61,2.61,0,0,0,0,6.47V7.75A6.46,6.46,0,1,1,0,20.66v2.58A6.46,6.46,0,1,1,0,36.16v2.58A6.46,6.46,0,0,1,0,51.66v2.58A6.46,6.46,0,1,1,0,67.15v2.58A6.46,6.46,0,1,1,0,82.65v2.58A6.46,6.46,0,0,1,0,98.15v2.58a6.46,6.46,0,1,1,0,12.91v2.58a6.46,6.46,0,1,1,0,12.91v2.58a6.46,6.46,0,1,1,0,12.91v2.58a6.46,6.46,0,0,1,0,12.91v2.58a6.46,6.46,0,1,1,0,12.91v2.58a6.46,6.46,0,1,1,0,12.91v2.58a6.46,6.46,0,1,1,0,12.91v2.58a6.46,6.46,0,1,1,0,12.91v1.28A2.61,2.61,0,0,0,2.6,226H459.73a2.61,2.61,0,0,0,2.6-2.6v-1.28a6.46,6.46,0,1,1,0-12.91v-2.58a6.46,6.46,0,1,1,0-12.91v-2.58a6.46,6.46,0,1,1,0-12.91v-2.58a6.46,6.46,0,1,1,0-12.91v-2.58a6.46,6.46,0,0,1,0-12.91v-2.58a6.46,6.46,0,1,1,0-12.91v-2.58a6.46,6.46,0,1,1,0-12.91v-2.58a6.46,6.46,0,1,1,0-12.91V98.15a6.46,6.46,0,1,1,0-12.91V82.65a6.46,6.46,0,1,1,0-12.91V67.15a6.46,6.46,0,1,1,0-12.91V51.66a6.46,6.46,0,1,1,0-12.91V36.16A6.46,6.46,0,0,1,455.87,29.7Z"/></g><path class="cls-2" d="M455.87,25.83a6.46,6.46,0,0,1,6.46-6.46V16.79a6.46,6.46,0,1,1,0-12.91V2.6a2.61,2.61,0,0,0-2.6-2.6H2.6A2.61,2.61,0,0,0,0,2.6V3.87A6.46,6.46,0,0,1,0,16.79v2.58A6.46,6.46,0,0,1,0,32.29v2.58A6.46,6.46,0,1,1,0,47.78v2.58A6.46,6.46,0,1,1,0,63.28v2.58A6.46,6.46,0,0,1,0,78.78v2.58A6.46,6.46,0,1,1,0,94.27v2.58a6.46,6.46,0,0,1,0,12.91v2.58a6.46,6.46,0,1,1,0,12.91v2.58a6.46,6.46,0,1,1,0,12.91v2.58a6.46,6.46,0,1,1,0,12.91v2.58a6.46,6.46,0,1,1,0,12.91v2.58a6.46,6.46,0,0,1,0,12.91v2.58a6.46,6.46,0,1,1,0,12.91v2.58a6.46,6.46,0,1,1,0,12.91v1.28a2.61,2.61,0,0,0,2.6,2.6H459.73a2.61,2.61,0,0,0,2.6-2.6v-1.28a6.46,6.46,0,1,1,0-12.91v-2.58a6.46,6.46,0,1,1,0-12.91v-2.58a6.46,6.46,0,0,1,0-12.91v-2.58a6.46,6.46,0,1,1,0-12.91v-2.58a6.46,6.46,0,1,1,0-12.91v-2.58a6.46,6.46,0,1,1,0-12.91v-2.58a6.46,6.46,0,1,1,0-12.91v-2.58a6.46,6.46,0,1,1,0-12.91V94.27a6.46,6.46,0,1,1,0-12.91V78.78a6.46,6.46,0,1,1,0-12.91V63.28a6.46,6.46,0,1,1,0-12.91V47.78a6.46,6.46,0,1,1,0-12.91V32.29A6.46,6.46,0,0,1,455.87,25.83Z"/><path class="cls-3" d="M438.44,196.33V24.5a10.32,10.32,0,0,1-9.65-9.65H32.25A10.32,10.32,0,0,1,22.6,24.5V196.33A10.32,10.32,0,0,1,32.25,206H428.79A10.32,10.32,0,0,1,438.44,196.33Z"/><path class="cls-4" d="M108.81,82.6h13.77q3.66,0,3.66,3.66V144q0,3.66-3.66,3.66H108.81q-3.66,0-3.66-3.66V86.26Q105.15,82.6,108.81,82.6Z"/><path class="cls-4" d="M134.15,144V86.26q0-3.66,3.71-3.66H186q3.66,0,3.66,3.66V144q0,3.66-3.66,3.66H137.86Q134.15,147.62,134.15,144Zm23.57-4.77h8.39q3.66,0,3.66-3.71V94.7q0-3.66-3.66-3.66h-8.39q-3.66,0-3.66,3.66v40.79Q154.06,139.19,157.72,139.19Z"/><path class="cls-4" d="M195.73,144V86.26q0-3.66,3.71-3.66h48.11q3.67,0,3.66,3.66V144q0,3.66-3.66,3.66H199.43Q195.73,147.62,195.73,144Zm23.57-4.77h8.39q3.66,0,3.66-3.71V94.7q0-3.66-3.66-3.66H219.3q-3.66,0-3.66,3.66v40.79Q215.63,139.19,219.3,139.19Z"/><path class="cls-4" d="M272.44,144.53h-8.87q-3.71,0-3.71-3.71V132q0-3.71,3.71-3.71h8.87q3.71,0,3.71,3.71v8.87Q276.15,144.53,272.44,144.53Z"/><path class="cls-4" d="M282.6,144V86.26q0-3.66,3.71-3.66h48.11q3.66,0,3.66,3.66V144q0,3.66-3.66,3.66H286.3Q282.6,147.62,282.6,144Zm23.57-4.77h8.39q3.66,0,3.66-3.71V94.7q0-3.66-3.66-3.66h-8.39q-3.67,0-3.66,3.66v40.79Q302.5,139.19,306.17,139.19Z"/><path class="cls-4" d="M344.17,144V86.26q0-3.66,3.71-3.66H396q3.66,0,3.66,3.66V144q0,3.66-3.66,3.66H347.88Q344.17,147.62,344.17,144Zm23.57-4.77h8.39q3.66,0,3.66-3.71V94.7q0-3.66-3.66-3.66h-8.39q-3.67,0-3.66,3.66v40.79Q364.08,139.19,367.74,139.19Z"/><path class="cls-4" d="M59.51,113H66l7.67,15,7.67-15h6.44l-9.52,17.14h6.49v3H76.5l0,0v4.2h8.25v3H76.45v7.42H70.79v-7.42h-8.2v-3h8.2v-4.2l0,0H62.59v-3H69Z"/></g></g></svg>