<svg xmlns="http://www.w3.org/2000/svg" width="284" height="138.83" viewBox="0 0 284 138.83"><defs><style>.cls-1{opacity:0.2;}.cls-2{fill:#fdea8f;}.cls-3{fill:none;stroke:#ddcb74;stroke-miterlimit:10;stroke-width:0.87px;}.cls-4{fill:#e21c19;}</style></defs><title>B7.5</title><g id="图层_2" data-name="图层 2"><g id="图层_1-2" data-name="图层 1"><g class="cls-1"><path d="M280,18.25a4,4,0,0,1,4-4V12.69a4,4,0,0,1,0-7.93V4a1.6,1.6,0,0,0-1.6-1.6H1.6A1.6,1.6,0,0,0,0,4v.78a4,4,0,0,1,0,7.93v1.59a4,4,0,1,1,0,7.93V23.8a4,4,0,0,1,0,7.93v1.59a4,4,0,0,1,0,7.93v1.59a4,4,0,1,1,0,7.93v1.59a4,4,0,1,1,0,7.93v1.59a4,4,0,0,1,0,7.93V71.4a4,4,0,0,1,0,7.93v1.59a4,4,0,1,1,0,7.93v1.59a4,4,0,1,1,0,7.93V100a4,4,0,0,1,0,7.93v1.59a4,4,0,0,1,0,7.93V119a4,4,0,0,1,0,7.93v1.59a4,4,0,0,1,0,7.93v.78a1.6,1.6,0,0,0,1.6,1.6H282.4a1.6,1.6,0,0,0,1.6-1.6v-.78a4,4,0,0,1,0-7.93v-1.59a4,4,0,0,1,0-7.93v-1.59a4,4,0,0,1,0-7.93v-1.59a4,4,0,0,1,0-7.93V98.37a4,4,0,0,1,0-7.93V88.85a4,4,0,0,1,0-7.93V79.33a4,4,0,0,1,0-7.93V69.81a4,4,0,0,1,0-7.93V60.29a4,4,0,0,1,0-7.93V50.77a4,4,0,0,1,0-7.93V41.25a4,4,0,0,1,0-7.93V31.73a4,4,0,0,1,0-7.93V22.21A4,4,0,0,1,280,18.25Z"/></g><path class="cls-2" d="M280,15.87a4,4,0,0,1,4-4V10.31a4,4,0,0,1,0-7.93V1.6A1.6,1.6,0,0,0,282.4,0H1.6A1.6,1.6,0,0,0,0,1.6v.78a4,4,0,1,1,0,7.93V11.9a4,4,0,1,1,0,7.93v1.59a4,4,0,0,1,0,7.93v1.59a4,4,0,1,1,0,7.93v1.59a4,4,0,1,1,0,7.93V50a4,4,0,0,1,0,7.93V59.5a4,4,0,0,1,0,7.93V69a4,4,0,1,1,0,7.93v1.59a4,4,0,1,1,0,7.93v1.59A4,4,0,0,1,0,96v1.59a4,4,0,0,1,0,7.93v1.59A4,4,0,0,1,0,115v1.59a4,4,0,0,1,0,7.93v1.59a4,4,0,0,1,0,7.93v.78a1.6,1.6,0,0,0,1.6,1.6H282.4a1.6,1.6,0,0,0,1.6-1.6v-.78a4,4,0,0,1,0-7.93v-1.59a4,4,0,0,1,0-7.93V115a4,4,0,0,1,0-7.93v-1.59a4,4,0,0,1,0-7.93V96a4,4,0,0,1,0-7.93V86.47a4,4,0,0,1,0-7.93V76.95A4,4,0,0,1,284,69V67.43a4,4,0,0,1,0-7.93V57.91A4,4,0,0,1,284,50V48.39a4,4,0,0,1,0-7.93V38.87a4,4,0,0,1,0-7.93V29.35a4,4,0,0,1,0-7.93V19.83A4,4,0,0,1,280,15.87Z"/><path class="cls-3" d="M269.32,120.6V15.05a6.34,6.34,0,0,1-5.93-5.93H19.81a6.34,6.34,0,0,1-5.93,5.93V120.6a6.34,6.34,0,0,1,5.93,5.93H263.39A6.34,6.34,0,0,1,269.32,120.6Z"/><path class="cls-4" d="M89.68,51.73H69.46q-2.77,0-2.76-2.56V47.93q0-2.56,2.76-2.56h36.37q2.8,0,2.8,2.6v.67a24.06,24.06,0,0,1-.37,4.2q-.17,1.1-1.9,7.69L98.1,92.22a3.46,3.46,0,0,1-1,1.83,3.39,3.39,0,0,1-2,.5H84.82q-2.33,0-2.33-1.8a3.87,3.87,0,0,1,.17-1l9.59-36.7a5,5,0,0,0,.2-1.17Q92.44,51.73,89.68,51.73Z"/><path class="cls-4" d="M123.65,92.12H117a2.47,2.47,0,0,1-2.8-2.8V82.63a2.47,2.47,0,0,1,2.8-2.8h6.69a2.47,2.47,0,0,1,2.8,2.8v6.69A2.47,2.47,0,0,1,123.65,92.12Z"/><path class="cls-4" d="M173.17,47.93v.9q0,2.5-2.8,2.5H149.52a2.46,2.46,0,0,0-2.8,2.76v6.26a2.46,2.46,0,0,0,2.8,2.76H170.3a2.44,2.44,0,0,1,2.76,2.76V91.76a2.44,2.44,0,0,1-2.76,2.76H134.54q-2.77,0-2.76-2.5v-.9q0-2.5,2.76-2.5h20.31a2.46,2.46,0,0,0,2.76-2.8V71.78A2.44,2.44,0,0,0,154.85,69H134a2.44,2.44,0,0,1-2.76-2.76v-18A2.44,2.44,0,0,1,134,45.43h36.33Q173.17,45.43,173.17,47.93Z"/><path class="cls-4" d="M200.41,64.86v-.37A1.37,1.37,0,0,1,202,62.93h17.57q1.55,0,1.55,1.44v.69q0,1.44-1.55,1.44h-8.89a1.37,1.37,0,0,0-1.55,1.55V70a1.37,1.37,0,0,0,1.55,1.55h8.14a1.38,1.38,0,0,1,1.57,1.55v20.1a1.38,1.38,0,0,1-1.57,1.55h-5.05a1.37,1.37,0,0,1-1.55-1.55V76.44q0-1.55-1.37-1.55h-.36q-1.37,0-1.37,1.55v16.8a1.38,1.38,0,0,1-1.57,1.55H202a1.37,1.37,0,0,1-1.55-1.55V67a1.36,1.36,0,0,1-1.33.73h-.67q-1.44,0-1.44,1.55v3.35q0,1.29,1,1.29a1.78,1.78,0,0,0,.34,0l.37,0a1,1,0,0,1,.71.34,1.37,1.37,0,0,1,.26.92v1a1.54,1.54,0,0,1-1.1,1.68l-.52.15A1.44,1.44,0,0,0,197,79.47V93.32a1.38,1.38,0,0,1-1.57,1.55h-8.7q-1.55,0-1.55-1.44v-.69q0-1.44,1.37-1.44h.39q1.38,0,1.38-1.55v-7q0-1.57-1.27-1.57a1.45,1.45,0,0,0-.41.08l-.34.09a1.69,1.69,0,0,1-.47.08q-1,0-1-1.25v-1a1.84,1.84,0,0,1,.28-1.14,1.82,1.82,0,0,1,1-.58l1-.3a1.74,1.74,0,0,0,.94-.52,1.79,1.79,0,0,0,.26-1.07V69.28q0-1.55-1.44-1.55h-.6a1.28,1.28,0,0,1-1.44-1.46v-.67a1.27,1.27,0,0,1,1.44-1.44h.84a1,1,0,0,0,1.2-1,1,1,0,0,1,1.18-1h6.32a1,1,0,0,1,1.18,1,1,1,0,0,0,1.18,1h.94A1.37,1.37,0,0,1,200.41,64.86Z"/></g></g></svg>