<svg xmlns="http://www.w3.org/2000/svg" width="462.33" height="226" viewBox="0 0 462.33 226"><defs><style>.cls-1{opacity:0.2;}.cls-2{fill:#fdea8f;}.cls-3{fill:none;stroke:#ddcb74;stroke-miterlimit:10;stroke-width:1.41px;}.cls-4{fill:#e21c19;}</style></defs><title>A8.8</title><g id="图层_2" data-name="图层 2"><g id="图层_1-2" data-name="图层 1"><g class="cls-1"><path d="M455.87,29.7a6.46,6.46,0,0,1,6.46-6.46V20.66a6.46,6.46,0,1,1,0-12.91V6.47a2.61,2.61,0,0,0-2.6-2.6H2.6A2.61,2.61,0,0,0,0,6.47V7.75A6.46,6.46,0,1,1,0,20.66v2.58A6.46,6.46,0,1,1,0,36.16v2.58A6.46,6.46,0,0,1,0,51.66v2.58A6.46,6.46,0,1,1,0,67.15v2.58A6.46,6.46,0,1,1,0,82.65v2.58A6.46,6.46,0,0,1,0,98.15v2.58a6.46,6.46,0,1,1,0,12.91v2.58a6.46,6.46,0,1,1,0,12.91v2.58a6.46,6.46,0,1,1,0,12.91v2.58a6.46,6.46,0,0,1,0,12.91v2.58a6.46,6.46,0,1,1,0,12.91v2.58a6.46,6.46,0,1,1,0,12.91v2.58a6.46,6.46,0,1,1,0,12.91v2.58a6.46,6.46,0,1,1,0,12.91v1.28A2.61,2.61,0,0,0,2.6,226H459.73a2.61,2.61,0,0,0,2.6-2.6v-1.28a6.46,6.46,0,1,1,0-12.91v-2.58a6.46,6.46,0,1,1,0-12.91v-2.58a6.46,6.46,0,1,1,0-12.91v-2.58a6.46,6.46,0,1,1,0-12.91v-2.58a6.46,6.46,0,0,1,0-12.91v-2.58a6.46,6.46,0,1,1,0-12.91v-2.58a6.46,6.46,0,1,1,0-12.91v-2.58a6.46,6.46,0,1,1,0-12.91V98.15a6.46,6.46,0,1,1,0-12.91V82.65a6.46,6.46,0,1,1,0-12.91V67.15a6.46,6.46,0,1,1,0-12.91V51.66a6.46,6.46,0,1,1,0-12.91V36.16A6.46,6.46,0,0,1,455.87,29.7Z"/></g><path class="cls-2" d="M455.87,25.83a6.46,6.46,0,0,1,6.46-6.46V16.79a6.46,6.46,0,1,1,0-12.91V2.6a2.61,2.61,0,0,0-2.6-2.6H2.6A2.61,2.61,0,0,0,0,2.6V3.87A6.46,6.46,0,0,1,0,16.79v2.58A6.46,6.46,0,0,1,0,32.29v2.58A6.46,6.46,0,1,1,0,47.78v2.58A6.46,6.46,0,1,1,0,63.28v2.58A6.46,6.46,0,0,1,0,78.78v2.58A6.46,6.46,0,1,1,0,94.27v2.58a6.46,6.46,0,0,1,0,12.91v2.58a6.46,6.46,0,1,1,0,12.91v2.58a6.46,6.46,0,1,1,0,12.91v2.58a6.46,6.46,0,1,1,0,12.91v2.58a6.46,6.46,0,1,1,0,12.91v2.58a6.46,6.46,0,0,1,0,12.91v2.58a6.46,6.46,0,1,1,0,12.91v2.58a6.46,6.46,0,1,1,0,12.91v1.28a2.61,2.61,0,0,0,2.6,2.6H459.73a2.61,2.61,0,0,0,2.6-2.6v-1.28a6.46,6.46,0,1,1,0-12.91v-2.58a6.46,6.46,0,1,1,0-12.91v-2.58a6.46,6.46,0,0,1,0-12.91v-2.58a6.46,6.46,0,1,1,0-12.91v-2.58a6.46,6.46,0,1,1,0-12.91v-2.58a6.46,6.46,0,1,1,0-12.91v-2.58a6.46,6.46,0,1,1,0-12.91v-2.58a6.46,6.46,0,1,1,0-12.91V94.27a6.46,6.46,0,1,1,0-12.91V78.78a6.46,6.46,0,1,1,0-12.91V63.28a6.46,6.46,0,1,1,0-12.91V47.78a6.46,6.46,0,1,1,0-12.91V32.29A6.46,6.46,0,0,1,455.87,25.83Z"/><path class="cls-3" d="M438.44,196.33V24.5a10.32,10.32,0,0,1-9.65-9.65H32.25A10.32,10.32,0,0,1,22.6,24.5V196.33A10.32,10.32,0,0,1,32.25,206H428.79A10.32,10.32,0,0,1,438.44,196.33Z"/><path class="cls-4" d="M176.51,78.46v70.91q0,4.5-4.5,4.5H113.24q-4.55,0-4.55-4.5V78.46q0-4.5,4.55-4.5H172Q176.51,74,176.51,78.46Zm-28.9,5.1h-10q-4.5,0-4.5,4.55V98.47q0,4.5,4.5,4.5h10q4.5,0,4.5-4.5V88.11Q152.12,83.56,147.62,83.56Zm0,29.06h-10q-4.5,0-4.5,4.5v22.61q0,4.55,4.5,4.55h10q4.5,0,4.5-4.55V117.12Q152.12,112.62,147.62,112.62Z"/><path class="cls-4" d="M202.15,150h-10.9q-4.55,0-4.55-4.55v-10.9q0-4.55,4.55-4.55h10.9q4.55,0,4.55,4.55v10.9Q206.71,150,202.15,150Z"/><path class="cls-4" d="M282.5,78.46v70.91q0,4.5-4.5,4.5H219.23q-4.55,0-4.55-4.5V78.46q0-4.5,4.55-4.5H278Q282.5,74,282.5,78.46Zm-28.9,5.1h-10q-4.5,0-4.5,4.55V98.47q0,4.5,4.5,4.5h10q4.5,0,4.5-4.5V88.11Q258.1,83.56,253.6,83.56Zm0,29.06h-10q-4.5,0-4.5,4.5v22.61q0,4.55,4.5,4.55h10q4.5,0,4.5-4.55V117.12Q258.1,112.62,253.6,112.62Z"/><path class="cls-4" d="M326.24,105.59V105a2.23,2.23,0,0,1,2.53-2.53h28.6q2.53,0,2.53,2.35v1.13q0,2.35-2.53,2.35H342.9a2.23,2.23,0,0,0-2.53,2.53V114a2.23,2.23,0,0,0,2.53,2.53h13.25a2.25,2.25,0,0,1,2.56,2.53v32.71a2.25,2.25,0,0,1-2.56,2.53h-8.22a2.23,2.23,0,0,1-2.53-2.53V124.45q0-2.53-2.22-2.53h-.58q-2.22,0-2.22,2.53V151.8a2.25,2.25,0,0,1-2.56,2.53h-9a2.23,2.23,0,0,1-2.53-2.53V109.06a2.22,2.22,0,0,1-2.16,1.19H323q-2.35,0-2.35,2.53v5.45q0,2.1,1.64,2.1a2.8,2.8,0,0,0,.55-.06,5.9,5.9,0,0,1,.61-.06,1.56,1.56,0,0,1,1.16.55,2.22,2.22,0,0,1,.43,1.49v1.61a2.5,2.5,0,0,1-1.8,2.74l-.85.24a2.35,2.35,0,0,0-1.74,2.53v22.54a2.25,2.25,0,0,1-2.56,2.53H303.92q-2.53,0-2.53-2.35V151q0-2.35,2.22-2.34h.64q2.25,0,2.25-2.53V134.71q0-2.56-2.07-2.56a2.39,2.39,0,0,0-.67.12l-.55.15a2.78,2.78,0,0,1-.76.12q-1.65,0-1.65-2V128.8a3,3,0,0,1,.46-1.86,3,3,0,0,1,1.58-.94l1.71-.49a2.84,2.84,0,0,0,1.52-.85,2.92,2.92,0,0,0,.43-1.74V112.78q0-2.53-2.35-2.53h-1a2.09,2.09,0,0,1-2.35-2.38v-1.1a2.07,2.07,0,0,1,2.35-2.34h1.37a1.69,1.69,0,0,0,1.95-1.58,1.68,1.68,0,0,1,1.92-1.58h10.29a1.68,1.68,0,0,1,1.92,1.58,1.68,1.68,0,0,0,1.92,1.58h1.52A2.23,2.23,0,0,1,326.24,105.59Z"/></g></g></svg>