<svg xmlns="http://www.w3.org/2000/svg" width="513.5" height="129.5" viewBox="0 0 513.5 129.5"><defs><style>.cls-1,.cls-3{fill:#fddc00;}.cls-1,.cls-2{stroke:#000;stroke-miterlimit:10;stroke-width:3px;}.cls-2{fill:#ccc;}</style></defs><title>资源 30</title><g id="图层_2" data-name="图层 2"><g id="图层_1-2" data-name="图层 1"><rect class="cls-1" x="12" y="18" width="500" height="110" rx="20" ry="20"/><path d="M500.75,34l10.75,7.5V40.44c0-.11,0-.22,0-.34L502.74,34Z"/><polygon points="489.18 34 511.5 49.57 511.5 48.19 491.16 34 489.18 34"/><polygon points="476.11 34 511.5 58.68 511.5 57.3 478.1 34 476.11 34"/><polygon points="464.54 34 511.5 66.75 511.5 65.37 466.53 34 464.54 34"/><polygon points="452.48 34 511.5 75.17 511.5 73.37 455.05 34 452.48 34"/><polygon points="440.91 34 511.5 83.24 511.5 81.45 443.48 34 440.91 34"/><polygon points="427.85 34 511.5 92.35 511.5 90.56 430.41 34 427.85 34"/><polygon points="416.27 34 511.5 100.42 511.5 98.63 418.84 34 416.27 34"/><path d="M404.94,34l106.39,74.21c.07-.56.11-1.12.14-1.69L407.51,34Z"/><path d="M393.37,34l116.05,80.95q.32-.68.59-1.38L395.94,34Z"/><path d="M380.31,34l124.89,87.11q.51-.53,1-1.1L382.88,34Z"/><path d="M368.74,34l130.92,91.32c.47-.26.94-.53,1.39-.82L371.3,34Z"/><path d="M356.6,34l134.62,93.89c.72-.07,1.43-.17,2.12-.31L359.16,34Z"/><polygon points="345.02 34 479.79 128 482.36 128 347.59 34 345.02 34"/><polygon points="331.96 34 466.73 128 469.3 128 334.53 34 331.96 34"/><polygon points="320.39 34 455.16 128 457.73 128 322.96 34 320.39 34"/><polygon points="309.06 34 443.83 128 446.4 128 311.63 34 309.06 34"/><polygon points="297.49 34 432.25 128 434.82 128 300.05 34 297.49 34"/><polygon points="284.42 34 419.19 128 421.76 128 286.99 34 284.42 34"/><polygon points="272.85 34 407.62 128 410.19 128 275.42 34 272.85 34"/><polygon points="259.97 34 394.74 128 397.31 128 262.54 34 259.97 34"/><polygon points="246.91 34 381.68 128 384.25 128 249.48 34 246.91 34"/><polygon points="235.34 34 370.11 128 372.68 128 237.91 34 235.34 34"/><polygon points="224.01 34 358.78 128 361.35 128 226.58 34 224.01 34"/><polygon points="212.44 34 347.2 128 349.77 128 215 34 212.44 34"/><polygon points="199.37 34 334.14 128 336.71 128 201.94 34 199.37 34"/><polygon points="187.8 34 322.57 128 325.14 128 190.37 34 187.8 34"/><polygon points="173.78 34 308.55 128 311.12 128 176.35 34 173.78 34"/><polygon points="162.45 34 297.22 128 299.79 128 165.02 34 162.45 34"/><polygon points="150.88 34 285.65 128 288.21 128 153.45 34 150.88 34"/><polygon points="137.82 34 272.58 128 275.15 128 140.38 34 137.82 34"/><polygon points="126.24 34 261.01 128 263.58 128 128.81 34 126.24 34"/><polygon points="113.71 34 248.48 128 251.05 128 116.28 34 113.71 34"/><polygon points="102.38 34 237.15 128 239.72 128 104.95 34 102.38 34"/><polygon points="90.81 34 225.58 128 228.15 128 93.38 34 90.81 34"/><polygon points="77.75 34 212.52 128 215.08 128 80.31 34 77.75 34"/><polygon points="66.17 34 200.94 128 203.51 128 68.74 34 66.17 34"/><polygon points="54.03 34 188.8 128 191.37 128 56.6 34 54.03 34"/><polygon points="42.46 34 177.23 128 179.8 128 45.03 34 42.46 34"/><polygon points="29.4 34 164.17 128 166.74 128 31.97 34 29.4 34"/><polygon points="17.83 34 152.6 128 155.16 128 20.39 34 17.83 34"/><path d="M11.69,37.62,141.27,128h2.57L11.94,36C11.84,36.54,11.75,37.08,11.69,37.62Z"/><polygon points="11.5 45.56 129.69 128 132.26 128 11.5 43.77 11.5 45.56"/><polygon points="11.5 54.67 116.63 128 119.2 128 11.5 52.88 11.5 54.67"/><polygon points="11.5 62.74 105.06 128 107.63 128 11.5 60.95 11.5 62.74"/><polygon points="11.5 71.73 92.18 128 94.75 128 11.5 69.94 11.5 71.73"/><polygon points="11.5 80.84 79.12 128 81.69 128 11.5 79.05 11.5 80.84"/><polygon points="11.5 88.91 67.55 128 70.11 128 11.5 87.12 11.5 88.91"/><polygon points="11.5 96.81 56.22 128 58.78 128 11.5 95.02 11.5 96.81"/><polygon points="11.5 104.88 44.64 128 47.21 128 11.5 103.09 11.5 104.88"/><path d="M31.58,128h2.36a22.39,22.39,0,0,1-2.58-.15Z"/><path d="M13.94,115.7l17.42,12.15a22.39,22.39,0,0,0,2.58.15h.21L12.82,113.13A22.31,22.31,0,0,0,13.94,115.7Z"/><rect class="cls-2" x="1.5" y="1.5" width="500" height="110" rx="20" ry="20"/><path class="cls-3" d="M129.17,61.54l-1.22.66a2,2,0,0,1-.86.25q-1.14,0-1.14-1.42V59.82a3.09,3.09,0,0,1,.3-1.55,3.46,3.46,0,0,1,1.29-1.07l2.74-1.45a1.47,1.47,0,0,0,.94-1.27v-.15a2.5,2.5,0,0,0-.53-1.4l-2.51-3.63a1.43,1.43,0,0,1-.33-.79q0-1.07,1.29-1.07h6.55a6,6,0,0,1,1.75.18,3.34,3.34,0,0,1,1.45,1l.51.56a2,2,0,0,0,1.45.71,2.41,2.41,0,0,0,1-.36l.63-.33a1.25,1.25,0,0,1,.63-.18q1.19,0,1.19,1.42v1.73a2.1,2.1,0,0,1-1,2.08l-.05,0a1.94,1.94,0,0,0-1,1.93V79.57a1.86,1.86,0,0,1-2.11,2.11H128.41q-2.11,0-2.11-2v-.94a1.74,1.74,0,0,1,2-2h1q2,0,2-2.13v-2q0-2-1.73-2a1.91,1.91,0,0,0-.81.2l-.74.36a1.86,1.86,0,0,1-.84.25q-1.17,0-1.17-1.4V69.06a3,3,0,0,1,.3-1.52,3.29,3.29,0,0,1,1.29-1L130,65.23a2.64,2.64,0,0,0,1-.81,2.34,2.34,0,0,0,.25-1.22v-.66a1.25,1.25,0,0,0-.38-.91,1.2,1.2,0,0,0-.79-.33A2.18,2.18,0,0,0,129.17,61.54Zm36.82-15h-8.4a1.17,1.17,0,0,1-1.35-1.09,1.18,1.18,0,0,0-1.35-1.12h-8.46a1.17,1.17,0,0,0-1.35,1.09,1.18,1.18,0,0,1-1.35,1.12h-8.4A1.17,1.17,0,0,1,134,45.45q-.1-1.12-1.35-1.12h-4.14q-2.13,0-2.13-2v-.94q0-2,2.13-2h4.19A1.14,1.14,0,0,0,134,38.39a1.15,1.15,0,0,1,1.32-1.07h8.46a1.15,1.15,0,0,1,1.32,1.07,1.15,1.15,0,0,0,1.32,1.09h8.51a1.15,1.15,0,0,0,1.32-1.09,1.15,1.15,0,0,1,1.32-1.07H166a1.15,1.15,0,0,1,1.32,1.07,1.15,1.15,0,0,0,1.32,1.09h3.71q2.13,0,2.13,2v.94q0,2-2.13,2h-3.68a1.18,1.18,0,0,0-1.35,1.12A1.17,1.17,0,0,1,166,46.54Zm4.19,12.62,4.16,20.41a3.92,3.92,0,0,1,.08.71q0,1.42-1.83,1.42h-6.32A2,2,0,0,1,164,79.85l-4.14-22.7q-.1-.46-.46-.46t-.43.46l-4.39,22.7a2.38,2.38,0,0,1-.71,1.45,2.46,2.46,0,0,1-1.55.41h-7.16q-1.8,0-1.8-1.45a3,3,0,0,1,.08-.69l4.39-21.1a3.28,3.28,0,0,0,.08-.61q0-1-1.24-1.17a1.61,1.61,0,0,1-1.55-1.83V53.8q0-2,1.83-2h.63a1.86,1.86,0,0,0,2-1.65l.2-1a2,2,0,0,1,2.23-1.7h6.68q1.85,0,1.85,1.5a2.22,2.22,0,0,1-.05.43l-.05.36a1.56,1.56,0,0,0-.05.38q0,1.73,2.11,1.73h3q1.27,0,1.27-1a1.82,1.82,0,0,0-.08-.46,1.77,1.77,0,0,1-.08-.43q0-1,1.29-1h2.79a2.58,2.58,0,0,1,1.55.38,2.64,2.64,0,0,1,.76,1.4l1,3.81a3.23,3.23,0,0,1,.13.79,1.35,1.35,0,0,1-.48,1,1.72,1.72,0,0,1-1.17.36h-.63a1.82,1.82,0,0,0-1.47.63,1.65,1.65,0,0,0-.36,1A4,4,0,0,0,170.18,59.16Z"/><path class="cls-3" d="M202.8,80.84a2.13,2.13,0,0,1-1.9.86h-5.81A1.86,1.86,0,0,1,193,79.6V77.54H180.05q-2.11,0-2.11-1.9V75A1.71,1.71,0,0,1,179.7,73V43.21a1.78,1.78,0,0,1-1.83-2v-.94q0-2,2.11-2h44.87q2.11,0,2.11,2v.43a23.24,23.24,0,0,1-1,6L223.63,55a3.08,3.08,0,0,0-.15.91q0,.13.05.56l3.28,23a4.1,4.1,0,0,1,.08.61q0,1.55-1.93,1.55h-5.26a2,2,0,0,1-2.18-1.93L215,60.35l-3.28,19.47a2,2,0,0,1-2.23,1.88h-4.9A1.83,1.83,0,0,1,202.8,80.84ZM193,50V43.21H189.4V50Zm0,11.4V54.21H189.4v7.24ZM193,73V65.61H189.4V73ZM203,77.79l3.55-21.25a5.28,5.28,0,0,0,.1-.66,3.22,3.22,0,0,0-.2-.86l-2.36-8a2.74,2.74,0,0,1-.15-.79q0-1.32,1.73-1.32h5.13a2.58,2.58,0,0,1,1.55.38,2.61,2.61,0,0,1,.76,1.37l1.7,5.92.23.81,2.23-7.59a3.69,3.69,0,0,0,.18-1q0-1.62-2.13-1.62H203Z"/><path class="cls-3" d="M259,39.56l.33-.81a2.32,2.32,0,0,1,2.39-1.42h8q1.6,0,1.6,1.24a2.79,2.79,0,0,1-.08.53,2.24,2.24,0,0,0-.08.53q0,1.25,1.57,1.24h2.87A1.87,1.87,0,0,1,277.76,43V59.34a1.86,1.86,0,0,1-2.11,2.11h-3.22a1.87,1.87,0,0,0-2.11,2.13V75.05a1.86,1.86,0,0,0,2.11,2.11H277q2.11,0,2.11,1.9v.71q0,1.9-2.11,1.9H260.29a1.86,1.86,0,0,1-2.11-2.11v-16a1.87,1.87,0,0,0-2.11-2.13h-3.3a1.88,1.88,0,0,0-2.16,1.65l-4.82,16.83a2.54,2.54,0,0,1-.79,1.4,2.58,2.58,0,0,1-1.55.38h-8.4q-1.73,0-1.73-1.32a3,3,0,0,1,.15-.81l4.62-15.51a3.46,3.46,0,0,0,.18-1q0-1.65-2.11-1.65H234a1.86,1.86,0,0,1-2.11-2.11V43A1.87,1.87,0,0,1,234,40.88h2.31q1.52,0,1.52-1.17a2.29,2.29,0,0,0-.1-.61,2.46,2.46,0,0,1-.1-.56q0-1.22,1.52-1.22h8a2.49,2.49,0,0,1,2.49,1.4l.43.91a2.1,2.1,0,0,0,2.08,1.24h4.8A2,2,0,0,0,259,39.56ZM243.68,47.5v7.34a1.86,1.86,0,0,0,2.11,2.11h18.05A1.87,1.87,0,0,0,266,54.84V47.5a1.87,1.87,0,0,0-2.13-2.11H245.79A1.86,1.86,0,0,0,243.68,47.5Z"/><path class="cls-3" d="M298.78,40h.41Q301,40,301,42v.91q0,2-1.78,2h-.13q-1.75,0-1.75,2.11v5.28q0,1.35,1,1.35a1.8,1.8,0,0,0,.38-.05,2.19,2.19,0,0,1,.38-.05q1,0,1,1.35v1.83a2,2,0,0,1-1.37,2.23l-.13,0A1.91,1.91,0,0,0,297.31,61V79.6a1.87,1.87,0,0,1-2.13,2.11H284.54q-2.13,0-2.13-2v-.94q0-2,1.85-2h.46q1.85,0,1.85-2.13v-9.5q0-2.11-1.73-2.11a2.11,2.11,0,0,0-.56.08l-.43.13a2.32,2.32,0,0,1-.66.13q-1.35,0-1.35-1.7V60.33a2.51,2.51,0,0,1,.38-1.55,2.34,2.34,0,0,1,1.29-.79l1.42-.41a2.35,2.35,0,0,0,1.27-.74,2.31,2.31,0,0,0,.36-1.42V47q0-2.11-1.93-2.11h-.74a1.73,1.73,0,0,1-1.93-2V42a1.72,1.72,0,0,1,1.93-2h1a1.41,1.41,0,0,0,1.63-1.32,1.4,1.4,0,0,1,1.6-1.32h7.52a1.41,1.41,0,0,1,1.63,1.32A1.33,1.33,0,0,0,298.78,40Zm2.29,21.56V48.8a1.86,1.86,0,0,1,2.11-2.11h12.52a2,2,0,0,0,2-1.17l.05-.15a1.91,1.91,0,0,0,.1-.36.84.84,0,0,0-.53-.86,31.74,31.74,0,0,0-4.27-.13l-5.15,0-3,0a6.73,6.73,0,0,1-2.56-.25,1.23,1.23,0,0,1-.48-1,2,2,0,0,1,.23-.84l1.4-3a3.1,3.1,0,0,1,1-1.29,3.16,3.16,0,0,1,1.63-.33H312q1,0,1,.76a1.2,1.2,0,0,1-.08.33,1.8,1.8,0,0,0-.05.38q0,.71.94.71h12.64q2,0,2,1.75a7.26,7.26,0,0,1-.69,3l-.41,1a1.47,1.47,0,0,0-.15.61q0,.69.86.81a1.46,1.46,0,0,1,1.37,1.65V62.28a.93.93,0,0,0,.86,1.07.93.93,0,0,1,.86,1.07V66a1.66,1.66,0,0,1-1.85,1.9H329a1.56,1.56,0,0,0-1.07.41,1.42,1.42,0,0,0-.51,1.09,3.72,3.72,0,0,0,.13.89l2.67,9.27a3.23,3.23,0,0,1,.15.79,1.28,1.28,0,0,1-.48,1,1.83,1.83,0,0,1-1.29.41h-5.33A2.06,2.06,0,0,1,321,79.9L318,69.49a2.39,2.39,0,0,0-.71-1.29,2.58,2.58,0,0,0-1.45-.33h-1.78a2.43,2.43,0,0,0-1.45.36,2.37,2.37,0,0,0-.71,1.27l-2.87,10.38a2.54,2.54,0,0,1-.79,1.4,2.46,2.46,0,0,1-1.52.38h-6.14q-1.7,0-1.7-1.29a3.24,3.24,0,0,1,.15-.81l2.87-9.14a3.27,3.27,0,0,0,.18-1,1.52,1.52,0,0,0-.66-1.24,1.63,1.63,0,0,0-1-.33h-.38a1.68,1.68,0,0,1-1.9-1.9v-.89a1.52,1.52,0,0,1,1.45-1.73A1.56,1.56,0,0,0,301.07,61.57Zm10.26.61v-9.8q0-1.17-1-1.17t-1,1.17v9.8q0,1.17,1,1.17T311.32,62.18Zm9.8.05v-9.9q0-1.12-.91-1.12t-.91,1.12v9.9q0,1.12.91,1.12T321.13,62.23Z"/><path class="cls-3" d="M355,51.69V79.57a1.89,1.89,0,0,1-2.13,2.13H337.2a1.87,1.87,0,0,1-2.11-2.13V52.07a.76.76,0,0,0-.74-.86c-.32-.05-.48-.21-.48-.48a1,1,0,0,1,.08-.3l2.16-5.66a1.78,1.78,0,0,0,.15-.63q0-.79-1-.91a1.55,1.55,0,0,1-1.45-1.75V40.32q0-2,2.11-2h17.49q2.13,0,2.13,2v.94q0,2-2.13,2h-5.48a2.49,2.49,0,0,0-1.37.3,2.43,2.43,0,0,0-.76,1.19L345,47a2.74,2.74,0,0,0-.2,1q0,1.65,2.11,1.65h6A1.87,1.87,0,0,1,355,51.69Zm-11.3,4V75.59q0,1.6,1.32,1.6t1.32-1.6V55.71q0-1.62-1.32-1.62T343.75,55.71Zm14.17-17.34h22.22a1.87,1.87,0,0,1,2.13,2.11V53a1.87,1.87,0,0,1-2.13,2.11h-6.86A1.86,1.86,0,0,1,371.17,53V45.32A1.87,1.87,0,0,0,369,43.21H357.92q-2.13,0-2.13-2v-.94Q355.78,38.36,357.92,38.36Zm9.24,32.37h-8.79q-2.11,0-2.11-1.9v-.69q0-1.9,2.11-1.9h8.79q2.13,0,2.13,1.9v.69Q369.29,70.74,367.16,70.74ZM356.7,59.08V46.79a1.86,1.86,0,0,1,2.11-2.11h6.5a1.87,1.87,0,0,1,2.13,2.11v7.79a1.86,1.86,0,0,0,2.11,2.11H380a1.87,1.87,0,0,1,2.11,2.13V79.6A1.86,1.86,0,0,1,380,81.71H359.21q-2.11,0-2.11-1.9v-.69q0-1.9,2.11-1.9h9.37a1.89,1.89,0,0,0,2.13-2.13V63.32a1.87,1.87,0,0,0-2.13-2.11H358.8A1.87,1.87,0,0,1,356.7,59.08Z"/><path d="M126.17,59.54l-1.22.66a2,2,0,0,1-.86.25q-1.14,0-1.14-1.42V57.82a3.09,3.09,0,0,1,.3-1.55,3.46,3.46,0,0,1,1.29-1.07l2.74-1.45a1.47,1.47,0,0,0,.94-1.27v-.15a2.5,2.5,0,0,0-.53-1.4l-2.51-3.63a1.43,1.43,0,0,1-.33-.79q0-1.07,1.29-1.07h6.55a6,6,0,0,1,1.75.18,3.34,3.34,0,0,1,1.45,1l.51.56a2,2,0,0,0,1.45.71,2.41,2.41,0,0,0,1-.36l.63-.33a1.25,1.25,0,0,1,.63-.18q1.19,0,1.19,1.42v1.73a2.1,2.1,0,0,1-1,2.08l-.05,0a1.94,1.94,0,0,0-1,1.93V77.57a1.86,1.86,0,0,1-2.11,2.11H125.41q-2.11,0-2.11-2v-.94a1.74,1.74,0,0,1,2-2h1q2,0,2-2.13v-2q0-2-1.73-2a1.91,1.91,0,0,0-.81.2l-.74.36a1.86,1.86,0,0,1-.84.25q-1.17,0-1.17-1.4V67.06a3,3,0,0,1,.3-1.52,3.29,3.29,0,0,1,1.29-1L127,63.23a2.64,2.64,0,0,0,1-.81,2.34,2.34,0,0,0,.25-1.22v-.66a1.25,1.25,0,0,0-.38-.91,1.2,1.2,0,0,0-.79-.33A2.18,2.18,0,0,0,126.17,59.54Zm36.82-15h-8.4a1.17,1.17,0,0,1-1.35-1.09,1.18,1.18,0,0,0-1.35-1.12h-8.46a1.17,1.17,0,0,0-1.35,1.09,1.18,1.18,0,0,1-1.35,1.12h-8.4A1.17,1.17,0,0,1,131,43.45q-.1-1.12-1.35-1.12h-4.14q-2.13,0-2.13-2v-.94q0-2,2.13-2h4.19A1.14,1.14,0,0,0,131,36.39a1.15,1.15,0,0,1,1.32-1.07h8.46a1.15,1.15,0,0,1,1.32,1.07,1.15,1.15,0,0,0,1.32,1.09h8.51a1.15,1.15,0,0,0,1.32-1.09,1.15,1.15,0,0,1,1.32-1.07H163a1.15,1.15,0,0,1,1.32,1.07,1.15,1.15,0,0,0,1.32,1.09h3.71q2.13,0,2.13,2v.94q0,2-2.13,2h-3.68a1.18,1.18,0,0,0-1.35,1.12A1.17,1.17,0,0,1,163,44.54Zm4.19,12.62,4.16,20.41a3.92,3.92,0,0,1,.08.71q0,1.42-1.83,1.42h-6.32A2,2,0,0,1,161,77.85l-4.14-22.7q-.1-.46-.46-.46t-.43.46l-4.39,22.7a2.38,2.38,0,0,1-.71,1.45,2.46,2.46,0,0,1-1.55.41h-7.16q-1.8,0-1.8-1.45a3,3,0,0,1,.08-.69l4.39-21.1a3.28,3.28,0,0,0,.08-.61q0-1-1.24-1.17a1.61,1.61,0,0,1-1.55-1.83V51.8q0-2,1.83-2h.63a1.86,1.86,0,0,0,2-1.65l.2-1a2,2,0,0,1,2.23-1.7h6.68q1.85,0,1.85,1.5a2.22,2.22,0,0,1-.05.43l-.05.36a1.56,1.56,0,0,0-.05.38q0,1.73,2.11,1.73h3q1.27,0,1.27-1a1.82,1.82,0,0,0-.08-.46,1.77,1.77,0,0,1-.08-.43q0-1,1.29-1h2.79a2.58,2.58,0,0,1,1.55.38,2.64,2.64,0,0,1,.76,1.4l1,3.81a3.23,3.23,0,0,1,.13.79,1.35,1.35,0,0,1-.48,1,1.72,1.72,0,0,1-1.17.36h-.63a1.82,1.82,0,0,0-1.47.63,1.65,1.65,0,0,0-.36,1A4,4,0,0,0,167.18,57.16Z"/><path d="M199.8,78.84a2.13,2.13,0,0,1-1.9.86h-5.81A1.86,1.86,0,0,1,190,77.6V75.54H177.05q-2.11,0-2.11-1.9V73A1.71,1.71,0,0,1,176.7,71V41.21a1.78,1.78,0,0,1-1.83-2v-.94q0-2,2.11-2h44.87q2.11,0,2.11,2v.43a23.24,23.24,0,0,1-1,6L220.63,53a3.08,3.08,0,0,0-.15.91q0,.13.05.56l3.28,23a4.1,4.1,0,0,1,.08.61q0,1.55-1.93,1.55h-5.26a2,2,0,0,1-2.18-1.93L212,58.35l-3.28,19.47a2,2,0,0,1-2.23,1.88h-4.9A1.83,1.83,0,0,1,199.8,78.84ZM190,48V41.21H186.4V48Zm0,11.4V52.21H186.4v7.24ZM190,71V63.61H186.4V71ZM200,75.79l3.55-21.25a5.28,5.28,0,0,0,.1-.66,3.22,3.22,0,0,0-.2-.86l-2.36-8a2.74,2.74,0,0,1-.15-.79q0-1.32,1.73-1.32h5.13a2.58,2.58,0,0,1,1.55.38,2.61,2.61,0,0,1,.76,1.37l1.7,5.92.23.81,2.23-7.59a3.69,3.69,0,0,0,.18-1q0-1.62-2.13-1.62H200Z"/><path d="M256,37.56l.33-.81a2.32,2.32,0,0,1,2.39-1.42h8q1.6,0,1.6,1.24a2.79,2.79,0,0,1-.08.53,2.24,2.24,0,0,0-.08.53q0,1.25,1.57,1.24h2.87A1.87,1.87,0,0,1,274.76,41V57.34a1.86,1.86,0,0,1-2.11,2.11h-3.22a1.87,1.87,0,0,0-2.11,2.13V73.05a1.86,1.86,0,0,0,2.11,2.11H274q2.11,0,2.11,1.9v.71q0,1.9-2.11,1.9H257.29a1.86,1.86,0,0,1-2.11-2.11v-16a1.87,1.87,0,0,0-2.11-2.13h-3.3a1.88,1.88,0,0,0-2.16,1.65l-4.82,16.83a2.54,2.54,0,0,1-.79,1.4,2.58,2.58,0,0,1-1.55.38h-8.4q-1.73,0-1.73-1.32a3,3,0,0,1,.15-.81l4.62-15.51a3.46,3.46,0,0,0,.18-1q0-1.65-2.11-1.65H231a1.86,1.86,0,0,1-2.11-2.11V41A1.87,1.87,0,0,1,231,38.88h2.31q1.52,0,1.52-1.17a2.29,2.29,0,0,0-.1-.61,2.46,2.46,0,0,1-.1-.56q0-1.22,1.52-1.22h8a2.49,2.49,0,0,1,2.49,1.4l.43.91a2.1,2.1,0,0,0,2.08,1.24h4.8A2,2,0,0,0,256,37.56ZM240.68,45.5v7.34a1.86,1.86,0,0,0,2.11,2.11h18.05A1.87,1.87,0,0,0,263,52.84V45.5a1.87,1.87,0,0,0-2.13-2.11H242.79A1.86,1.86,0,0,0,240.68,45.5Z"/><path d="M295.78,38h.41Q298,38,298,40v.91q0,2-1.78,2h-.13q-1.75,0-1.75,2.11v5.28q0,1.35,1,1.35a1.8,1.8,0,0,0,.38-.05,2.19,2.19,0,0,1,.38-.05q1,0,1,1.35v1.83a2,2,0,0,1-1.37,2.23l-.13,0A1.91,1.91,0,0,0,294.31,59V77.6a1.87,1.87,0,0,1-2.13,2.11H281.54q-2.13,0-2.13-2v-.94q0-2,1.85-2h.46q1.85,0,1.85-2.13v-9.5q0-2.11-1.73-2.11a2.11,2.11,0,0,0-.56.08l-.43.13a2.32,2.32,0,0,1-.66.13q-1.35,0-1.35-1.7V58.33a2.51,2.51,0,0,1,.38-1.55,2.34,2.34,0,0,1,1.29-.79l1.42-.41a2.35,2.35,0,0,0,1.27-.74,2.31,2.31,0,0,0,.36-1.42V45q0-2.11-1.93-2.11h-.74a1.73,1.73,0,0,1-1.93-2V40a1.72,1.72,0,0,1,1.93-2h1a1.41,1.41,0,0,0,1.63-1.32,1.4,1.4,0,0,1,1.6-1.32h7.52a1.41,1.41,0,0,1,1.63,1.32A1.33,1.33,0,0,0,295.78,38Zm2.29,21.56V46.8a1.86,1.86,0,0,1,2.11-2.11h12.52a2,2,0,0,0,2-1.17l.05-.15a1.91,1.91,0,0,0,.1-.36.84.84,0,0,0-.53-.86,31.74,31.74,0,0,0-4.27-.13l-5.15,0-3,0a6.73,6.73,0,0,1-2.56-.25,1.23,1.23,0,0,1-.48-1,2,2,0,0,1,.23-.84l1.4-3a3.1,3.1,0,0,1,1-1.29,3.16,3.16,0,0,1,1.63-.33H309q1,0,1,.76a1.2,1.2,0,0,1-.08.33,1.8,1.8,0,0,0-.05.38q0,.71.94.71h12.64q2,0,2,1.75a7.26,7.26,0,0,1-.69,3l-.41,1a1.47,1.47,0,0,0-.15.61q0,.69.86.81a1.46,1.46,0,0,1,1.37,1.65V60.28a.93.93,0,0,0,.86,1.07.93.93,0,0,1,.86,1.07V64a1.66,1.66,0,0,1-1.85,1.9H326a1.56,1.56,0,0,0-1.07.41,1.42,1.42,0,0,0-.51,1.09,3.72,3.72,0,0,0,.13.89l2.67,9.27a3.23,3.23,0,0,1,.15.79,1.28,1.28,0,0,1-.48,1,1.83,1.83,0,0,1-1.29.41h-5.33A2.06,2.06,0,0,1,318,77.9L315,67.49a2.39,2.39,0,0,0-.71-1.29,2.58,2.58,0,0,0-1.45-.33h-1.78a2.43,2.43,0,0,0-1.45.36,2.37,2.37,0,0,0-.71,1.27l-2.87,10.38a2.54,2.54,0,0,1-.79,1.4,2.46,2.46,0,0,1-1.52.38h-6.14q-1.7,0-1.7-1.29a3.24,3.24,0,0,1,.15-.81l2.87-9.14a3.27,3.27,0,0,0,.18-1,1.52,1.52,0,0,0-.66-1.24,1.63,1.63,0,0,0-1-.33h-.38a1.68,1.68,0,0,1-1.9-1.9v-.89a1.52,1.52,0,0,1,1.45-1.73A1.56,1.56,0,0,0,298.07,59.57Zm10.26.61v-9.8q0-1.17-1-1.17t-1,1.17v9.8q0,1.17,1,1.17T308.32,60.18Zm9.8.05v-9.9q0-1.12-.91-1.12t-.91,1.12v9.9q0,1.12.91,1.12T318.13,60.23Z"/><path d="M352,49.69V77.57a1.89,1.89,0,0,1-2.13,2.13H334.2a1.87,1.87,0,0,1-2.11-2.13V50.07a.76.76,0,0,0-.74-.86c-.32-.05-.48-.21-.48-.48a1,1,0,0,1,.08-.3l2.16-5.66a1.78,1.78,0,0,0,.15-.63q0-.79-1-.91a1.55,1.55,0,0,1-1.45-1.75V38.32q0-2,2.11-2h17.49q2.13,0,2.13,2v.94q0,2-2.13,2h-5.48a2.49,2.49,0,0,0-1.37.3,2.43,2.43,0,0,0-.76,1.19L342,45a2.74,2.74,0,0,0-.2,1q0,1.65,2.11,1.65h6A1.87,1.87,0,0,1,352,49.69Zm-11.3,4V73.59q0,1.6,1.32,1.6t1.32-1.6V53.71q0-1.62-1.32-1.62T340.75,53.71Zm14.17-17.34h22.22a1.87,1.87,0,0,1,2.13,2.11V51a1.87,1.87,0,0,1-2.13,2.11h-6.86A1.86,1.86,0,0,1,368.17,51V43.32A1.87,1.87,0,0,0,366,41.21H354.92q-2.13,0-2.13-2v-.94Q352.78,36.36,354.92,36.36Zm9.24,32.37h-8.79q-2.11,0-2.11-1.9v-.69q0-1.9,2.11-1.9h8.79q2.13,0,2.13,1.9v.69Q366.29,68.74,364.16,68.74ZM353.7,57.08V44.79a1.86,1.86,0,0,1,2.11-2.11h6.5a1.87,1.87,0,0,1,2.13,2.11v7.79a1.86,1.86,0,0,0,2.11,2.11H377a1.87,1.87,0,0,1,2.11,2.13V77.6A1.86,1.86,0,0,1,377,79.71H356.21q-2.11,0-2.11-1.9v-.69q0-1.9,2.11-1.9h9.37a1.89,1.89,0,0,0,2.13-2.13V61.32a1.87,1.87,0,0,0-2.13-2.11H355.8A1.87,1.87,0,0,1,353.7,57.08Z"/></g></g></svg>