<svg xmlns="http://www.w3.org/2000/svg" width="284" height="138.83" viewBox="0 0 284 138.83"><defs><style>.cls-1{opacity:0.2;}.cls-2{fill:#fdea8f;}.cls-3{fill:none;stroke:#ddcb74;stroke-miterlimit:10;stroke-width:0.87px;}.cls-4{fill:#e21c19;}</style></defs><title>B100</title><g id="图层_2" data-name="图层 2"><g id="图层_1-2" data-name="图层 1"><g class="cls-1"><path d="M280,18.25a4,4,0,0,1,4-4V12.69a4,4,0,0,1,0-7.93V4a1.6,1.6,0,0,0-1.6-1.6H1.6A1.6,1.6,0,0,0,0,4v.78a4,4,0,0,1,0,7.93v1.59a4,4,0,1,1,0,7.93V23.8a4,4,0,0,1,0,7.93v1.59a4,4,0,0,1,0,7.93v1.59a4,4,0,1,1,0,7.93v1.59a4,4,0,1,1,0,7.93v1.59a4,4,0,0,1,0,7.93V71.4a4,4,0,0,1,0,7.93v1.59a4,4,0,1,1,0,7.93v1.59a4,4,0,1,1,0,7.93V100a4,4,0,0,1,0,7.93v1.59a4,4,0,0,1,0,7.93V119a4,4,0,0,1,0,7.93v1.59a4,4,0,0,1,0,7.93v.78a1.6,1.6,0,0,0,1.6,1.6H282.4a1.6,1.6,0,0,0,1.6-1.6v-.78a4,4,0,0,1,0-7.93v-1.59a4,4,0,0,1,0-7.93v-1.59a4,4,0,0,1,0-7.93v-1.59a4,4,0,0,1,0-7.93V98.37a4,4,0,0,1,0-7.93V88.85a4,4,0,0,1,0-7.93V79.33a4,4,0,0,1,0-7.93V69.81a4,4,0,0,1,0-7.93V60.29a4,4,0,0,1,0-7.93V50.77a4,4,0,0,1,0-7.93V41.25a4,4,0,0,1,0-7.93V31.73a4,4,0,0,1,0-7.93V22.21A4,4,0,0,1,280,18.25Z"/></g><path class="cls-2" d="M280,15.87a4,4,0,0,1,4-4V10.31a4,4,0,0,1,0-7.93V1.6A1.6,1.6,0,0,0,282.4,0H1.6A1.6,1.6,0,0,0,0,1.6v.78a4,4,0,1,1,0,7.93V11.9a4,4,0,1,1,0,7.93v1.59a4,4,0,0,1,0,7.93v1.59a4,4,0,1,1,0,7.93v1.59a4,4,0,1,1,0,7.93V50a4,4,0,0,1,0,7.93V59.5a4,4,0,0,1,0,7.93V69a4,4,0,1,1,0,7.93v1.59a4,4,0,1,1,0,7.93v1.59A4,4,0,0,1,0,96v1.59a4,4,0,0,1,0,7.93v1.59A4,4,0,0,1,0,115v1.59a4,4,0,0,1,0,7.93v1.59a4,4,0,0,1,0,7.93v.78a1.6,1.6,0,0,0,1.6,1.6H282.4a1.6,1.6,0,0,0,1.6-1.6v-.78a4,4,0,0,1,0-7.93v-1.59a4,4,0,0,1,0-7.93V115a4,4,0,0,1,0-7.93v-1.59a4,4,0,0,1,0-7.93V96a4,4,0,0,1,0-7.93V86.47a4,4,0,0,1,0-7.93V76.95A4,4,0,0,1,284,69V67.43a4,4,0,0,1,0-7.93V57.91A4,4,0,0,1,284,50V48.39a4,4,0,0,1,0-7.93V38.87a4,4,0,0,1,0-7.93V29.35a4,4,0,0,1,0-7.93V19.83A4,4,0,0,1,280,15.87Z"/><path class="cls-3" d="M269.32,120.6V15.05a6.34,6.34,0,0,1-5.93-5.93H19.81a6.34,6.34,0,0,1-5.93,5.93V120.6a6.34,6.34,0,0,1,5.93,5.93H263.39A6.34,6.34,0,0,1,269.32,120.6Z"/><path class="cls-4" d="M66.84,50.74H75.3A2,2,0,0,1,77.55,53V88.43a2,2,0,0,1-2.25,2.25H66.84a2,2,0,0,1-2.25-2.25V53A2,2,0,0,1,66.84,50.74Z"/><path class="cls-4" d="M82.4,88.43V53a2,2,0,0,1,2.28-2.25h29.55A2,2,0,0,1,116.49,53V88.43a2,2,0,0,1-2.25,2.25H84.68A2,2,0,0,1,82.4,88.43ZM96.88,85.5H102a2,2,0,0,0,2.25-2.28V58.17A2,2,0,0,0,102,55.92H96.88a2,2,0,0,0-2.25,2.25V83.22A2,2,0,0,0,96.88,85.5Z"/><path class="cls-4" d="M120.23,88.43V53a2,2,0,0,1,2.28-2.25h29.55A2,2,0,0,1,154.31,53V88.43a2,2,0,0,1-2.25,2.25H122.51A2,2,0,0,1,120.23,88.43Zm14.48-2.93h5.15a2,2,0,0,0,2.25-2.28V58.17a2,2,0,0,0-2.25-2.25h-5.15a2,2,0,0,0-2.25,2.25V83.22A2,2,0,0,0,134.71,85.5Z"/><path class="cls-4" d="M167.35,88.78H161.9a2,2,0,0,1-2.28-2.28V81.05a2,2,0,0,1,2.28-2.28h5.45a2,2,0,0,1,2.28,2.28V86.5A2,2,0,0,1,167.35,88.78Z"/><path class="cls-4" d="M173.59,88.43V53a2,2,0,0,1,2.28-2.25h29.55A2,2,0,0,1,207.67,53V88.43a2,2,0,0,1-2.25,2.25H175.87A2,2,0,0,1,173.59,88.43Zm14.48-2.93h5.15a2,2,0,0,0,2.25-2.28V58.17a2,2,0,0,0-2.25-2.25h-5.15a2,2,0,0,0-2.25,2.25V83.22A2,2,0,0,0,188.07,85.5Z"/><path class="cls-4" d="M211.42,88.43V53a2,2,0,0,1,2.28-2.25h29.55A2,2,0,0,1,245.5,53V88.43a2,2,0,0,1-2.25,2.25H213.69A2,2,0,0,1,211.42,88.43Zm14.48-2.93H231a2,2,0,0,0,2.25-2.28V58.17A2,2,0,0,0,231,55.92h-5.15a2,2,0,0,0-2.25,2.25V83.22A2,2,0,0,0,225.89,85.5Z"/><path class="cls-4" d="M36.56,69.43h4l4.71,9.21,4.71-9.21h4L48,80h4v1.86H47l0,0v2.58H52v1.86H47v4.56H43.49V86.28h-5V84.43h5V81.85l0,0h-5V80h4Z"/></g></g></svg>