<svg xmlns="http://www.w3.org/2000/svg" width="284" height="138.83" viewBox="0 0 284 138.83"><defs><style>.cls-1{opacity:0.2;}.cls-2{fill:#fdea8f;}.cls-3{fill:none;stroke:#ddcb74;stroke-miterlimit:10;stroke-width:0.87px;}.cls-4{fill:#e21c19;}</style></defs><title>B50</title><g id="图层_2" data-name="图层 2"><g id="图层_1-2" data-name="图层 1"><g class="cls-1"><path d="M280,18.25a4,4,0,0,1,4-4V12.69a4,4,0,0,1,0-7.93V4a1.6,1.6,0,0,0-1.6-1.6H1.6A1.6,1.6,0,0,0,0,4v.78a4,4,0,0,1,0,7.93v1.59a4,4,0,1,1,0,7.93V23.8a4,4,0,0,1,0,7.93v1.59a4,4,0,0,1,0,7.93v1.59a4,4,0,1,1,0,7.93v1.59a4,4,0,1,1,0,7.93v1.59a4,4,0,0,1,0,7.93V71.4a4,4,0,0,1,0,7.93v1.59a4,4,0,1,1,0,7.93v1.59a4,4,0,1,1,0,7.93V100a4,4,0,0,1,0,7.93v1.59a4,4,0,0,1,0,7.93V119a4,4,0,0,1,0,7.93v1.59a4,4,0,0,1,0,7.93v.78a1.6,1.6,0,0,0,1.6,1.6H282.4a1.6,1.6,0,0,0,1.6-1.6v-.78a4,4,0,0,1,0-7.93v-1.59a4,4,0,0,1,0-7.93v-1.59a4,4,0,0,1,0-7.93v-1.59a4,4,0,0,1,0-7.93V98.37a4,4,0,0,1,0-7.93V88.85a4,4,0,0,1,0-7.93V79.33a4,4,0,0,1,0-7.93V69.81a4,4,0,0,1,0-7.93V60.29a4,4,0,0,1,0-7.93V50.77a4,4,0,0,1,0-7.93V41.25a4,4,0,0,1,0-7.93V31.73a4,4,0,0,1,0-7.93V22.21A4,4,0,0,1,280,18.25Z"/></g><path class="cls-2" d="M280,15.87a4,4,0,0,1,4-4V10.31a4,4,0,0,1,0-7.93V1.6A1.6,1.6,0,0,0,282.4,0H1.6A1.6,1.6,0,0,0,0,1.6v.78a4,4,0,1,1,0,7.93V11.9a4,4,0,1,1,0,7.93v1.59a4,4,0,0,1,0,7.93v1.59a4,4,0,1,1,0,7.93v1.59a4,4,0,1,1,0,7.93V50a4,4,0,0,1,0,7.93V59.5a4,4,0,0,1,0,7.93V69a4,4,0,1,1,0,7.93v1.59a4,4,0,1,1,0,7.93v1.59A4,4,0,0,1,0,96v1.59a4,4,0,0,1,0,7.93v1.59A4,4,0,0,1,0,115v1.59a4,4,0,0,1,0,7.93v1.59a4,4,0,0,1,0,7.93v.78a1.6,1.6,0,0,0,1.6,1.6H282.4a1.6,1.6,0,0,0,1.6-1.6v-.78a4,4,0,0,1,0-7.93v-1.59a4,4,0,0,1,0-7.93V115a4,4,0,0,1,0-7.93v-1.59a4,4,0,0,1,0-7.93V96a4,4,0,0,1,0-7.93V86.47a4,4,0,0,1,0-7.93V76.95A4,4,0,0,1,284,69V67.43a4,4,0,0,1,0-7.93V57.91A4,4,0,0,1,284,50V48.39a4,4,0,0,1,0-7.93V38.87a4,4,0,0,1,0-7.93V29.35a4,4,0,0,1,0-7.93V19.83A4,4,0,0,1,280,15.87Z"/><path class="cls-3" d="M269.32,120.6V15.05a6.34,6.34,0,0,1-5.93-5.93H19.81a6.34,6.34,0,0,1-5.93,5.93V120.6a6.34,6.34,0,0,1,5.93,5.93H263.39A6.34,6.34,0,0,1,269.32,120.6Z"/><path class="cls-4" d="M105.08,52.8v.73q0,2-2.28,2h-17a2,2,0,0,0-2.28,2.25v5.1a2,2,0,0,0,2.28,2.25h16.92A2,2,0,0,1,105,67.42V88.48a2,2,0,0,1-2.25,2.25H73.62q-2.25,0-2.25-2V88q0-2,2.25-2H90.16a2,2,0,0,0,2.25-2.28V72.21A2,2,0,0,0,90.16,70H73.22A2,2,0,0,1,71,67.71V53a2,2,0,0,1,2.25-2.25H102.8Q105.08,50.77,105.08,52.8Z"/><path class="cls-4" d="M108.57,88.43V53a2,2,0,0,1,2.28-2.25h29.55A2,2,0,0,1,142.66,53V88.43a2,2,0,0,1-2.25,2.25H110.85A2,2,0,0,1,108.57,88.43Zm14.48-2.93h5.15a2,2,0,0,0,2.25-2.28V58.17a2,2,0,0,0-2.25-2.25h-5.15a2,2,0,0,0-2.25,2.25V83.22A2,2,0,0,0,123.05,85.5Z"/><path class="cls-4" d="M155.7,88.78h-5.45A2,2,0,0,1,148,86.5V81.05a2,2,0,0,1,2.28-2.28h5.45A2,2,0,0,1,158,81.05V86.5A2,2,0,0,1,155.7,88.78Z"/><path class="cls-4" d="M161.94,88.43V53a2,2,0,0,1,2.28-2.25h29.55A2,2,0,0,1,196,53V88.43a2,2,0,0,1-2.25,2.25H164.21A2,2,0,0,1,161.94,88.43Zm14.48-2.93h5.15a2,2,0,0,0,2.25-2.28V58.17a2,2,0,0,0-2.25-2.25h-5.15a2,2,0,0,0-2.25,2.25V83.22A2,2,0,0,0,176.42,85.5Z"/><path class="cls-4" d="M199.76,88.43V53A2,2,0,0,1,202,50.74h29.55A2,2,0,0,1,233.84,53V88.43a2,2,0,0,1-2.25,2.25H202A2,2,0,0,1,199.76,88.43Zm14.48-2.93h5.15a2,2,0,0,0,2.25-2.28V58.17a2,2,0,0,0-2.25-2.25h-5.15A2,2,0,0,0,212,58.17V83.22A2,2,0,0,0,214.24,85.5Z"/><path class="cls-4" d="M45.16,69.43h4l4.71,9.21,4.71-9.21h4L56.64,80h4v1.86h-5l0,0v2.58h5.07v1.86H55.56v4.56H52.09V86.28H47V84.42h5V81.85l0,0H47V80h4Z"/></g></g></svg>