<svg xmlns="http://www.w3.org/2000/svg" width="413.34" height="129.34" viewBox="0 0 413.34 129.34"><defs><style>.cls-1,.cls-3{fill:#fddc00;}.cls-1,.cls-2{stroke:#000;stroke-miterlimit:10;}.cls-1{stroke-width:2.68px;}.cls-2{fill:#fff;stroke-width:3px;}</style></defs><title>一键复制-普通</title><g id="图层_2" data-name="图层 2"><g id="图层_1-2" data-name="图层 1"><rect class="cls-1" x="12" y="18" width="400" height="110" rx="17.89" ry="17.89"/><polygon points="393.64 18.5 411.5 36.64 411.5 35.02 395.23 18.5 393.64 18.5"/><polygon points="383.19 18.5 411.5 47.25 411.5 45.64 384.78 18.5 383.19 18.5"/><polygon points="373.93 18.5 411.5 56.65 411.5 55.04 375.52 18.5 373.93 18.5"/><polygon points="364.29 18.5 411.5 66.45 411.5 64.37 366.34 18.5 364.29 18.5"/><polygon points="355.03 18.5 411.5 75.86 411.5 73.77 357.08 18.5 355.03 18.5"/><polygon points="344.58 18.5 411.5 86.47 411.5 84.38 346.63 18.5 344.58 18.5"/><polygon points="335.32 18.5 411.5 95.87 411.5 93.78 337.37 18.5 335.32 18.5"/><path d="M326.25,18.5l85.12,86.45c.05-.65.09-1.31.11-2L328.31,18.5Z"/><path d="M317,18.5l92.84,94.29q.25-.79.47-1.61L319.05,18.5Z"/><path d="M306.55,18.5,406.46,120q.41-.62.79-1.28L308.6,18.5Z"/><path d="M297.29,18.5,402,124.88c.38-.3.75-.62,1.11-1L299.34,18.5Z"/><path d="M287.58,18.5,395.27,127.88a12.66,12.66,0,0,0,1.7-.36L289.63,18.5Z"/><polygon points="278.32 18.5 386.13 128 388.19 128 280.37 18.5 278.32 18.5"/><polygon points="267.87 18.5 375.69 128 377.74 128 269.92 18.5 267.87 18.5"/><polygon points="258.61 18.5 366.43 128 368.48 128 260.67 18.5 258.61 18.5"/><polygon points="249.55 18.5 357.36 128 359.42 128 251.6 18.5 249.55 18.5"/><polygon points="240.29 18.5 348.1 128 350.16 128 242.34 18.5 240.29 18.5"/><polygon points="229.84 18.5 337.65 128 339.71 128 231.89 18.5 229.84 18.5"/><polygon points="220.58 18.5 328.4 128 330.45 128 222.63 18.5 220.58 18.5"/><polygon points="210.28 18.5 318.1 128 320.15 128 212.33 18.5 210.28 18.5"/><polygon points="199.83 18.5 307.64 128 309.7 128 201.88 18.5 199.83 18.5"/><polygon points="190.57 18.5 298.39 128 300.44 128 192.63 18.5 190.57 18.5"/><polygon points="181.51 18.5 289.32 128 291.38 128 183.56 18.5 181.51 18.5"/><polygon points="172.25 18.5 280.06 128 282.12 128 174.3 18.5 172.25 18.5"/><polygon points="161.8 18.5 269.61 128 271.67 128 163.85 18.5 161.8 18.5"/><polygon points="152.54 18.5 260.36 128 262.41 128 154.59 18.5 152.54 18.5"/><polygon points="141.32 18.5 249.14 128 251.19 128 143.38 18.5 141.32 18.5"/><polygon points="132.26 18.5 240.08 128 242.13 128 134.31 18.5 132.26 18.5"/><polygon points="123 18.5 230.82 128 232.87 128 125.06 18.5 123 18.5"/><polygon points="112.55 18.5 220.37 128 222.42 128 114.61 18.5 112.55 18.5"/><polygon points="103.29 18.5 211.11 128 213.16 128 105.35 18.5 103.29 18.5"/><polygon points="93.27 18.5 201.09 128 203.14 128 95.32 18.5 93.27 18.5"/><polygon points="84.2 18.5 192.02 128 194.07 128 86.26 18.5 84.2 18.5"/><polygon points="74.95 18.5 182.76 128 184.82 128 77 18.5 74.95 18.5"/><polygon points="64.5 18.5 172.31 128 174.37 128 66.55 18.5 64.5 18.5"/><polygon points="55.24 18.5 163.05 128 165.11 128 57.29 18.5 55.24 18.5"/><polygon points="45.53 18.5 153.34 128 155.4 128 47.58 18.5 45.53 18.5"/><polygon points="36.27 18.5 144.09 128 146.14 128 38.32 18.5 36.27 18.5"/><polygon points="25.82 18.5 133.64 128 135.69 128 27.87 18.5 25.82 18.5"/><polygon points="16.56 18.5 124.38 128 126.43 128 18.62 18.5 16.56 18.5"/><path d="M11.65,22.72,115.31,128h2.05L11.86,20.84C11.77,21.46,11.7,22.08,11.65,22.72Z"/><polygon points="11.5 31.97 106.06 128 108.11 128 11.5 29.88 11.5 31.97"/><polygon points="11.5 42.58 95.61 128 97.66 128 11.5 40.49 11.5 42.58"/><polygon points="11.5 51.98 86.35 128 88.4 128 11.5 49.9 11.5 51.98"/><polygon points="11.5 62.45 76.05 128 78.1 128 11.5 60.36 11.5 62.45"/><polygon points="11.5 73.06 65.6 128 67.65 128 11.5 70.97 11.5 73.06"/><polygon points="11.5 82.46 56.34 128 58.39 128 11.5 80.38 11.5 82.46"/><polygon points="11.5 91.67 47.27 128 49.33 128 11.5 89.58 11.5 91.67"/><polygon points="11.5 101.07 38.02 128 40.07 128 11.5 98.98 11.5 101.07"/><path d="M27.57,128h1.89a12.39,12.39,0,0,1-2.07-.18Z"/><path d="M13.46,113.67l13.93,14.15a12.39,12.39,0,0,0,2.07.18h.17L12.56,110.67C12.82,111.7,13.12,112.7,13.46,113.67Z"/><rect class="cls-2" x="1.5" y="1.5" width="400" height="110" rx="20" ry="20"/><path class="cls-3" d="M108.16,56h44.64a1.86,1.86,0,0,1,2.13,2.08v1.37a1.86,1.86,0,0,1-2.13,2.08H108.16A1.85,1.85,0,0,1,106,59.46V58.09A1.85,1.85,0,0,1,108.16,56Z"/><path class="cls-3" d="M170.57,67.05v8.38q0,2.11,1.75,2.11h.05a1.66,1.66,0,0,1,1.22.51,1.82,1.82,0,0,1,.51,1.35v.46q0,1.85-2.11,1.85h-9a1.86,1.86,0,0,1-2.11-2.11V66.72a1.57,1.57,0,0,0-1.47-1.8,1.52,1.52,0,0,1-1.47-1.73v-1a1.52,1.52,0,0,1,1.47-1.73,1.57,1.57,0,0,0,1.47-1.8V55.4a1.51,1.51,0,0,0-1.4-1.73,1.46,1.46,0,0,1-1.4-1.68v-.91q0-1.9,2.11-1.9h11.76q2.11,0,2.11,1.9v.69a1.71,1.71,0,0,1-1.73,1.9,1.86,1.86,0,0,0-1.75,2.13v2.49q0,2.13,1.78,2.13h.18q1.78,0,1.78,1.9V63q0,1.9-1.78,1.9h-.18Q170.57,64.92,170.57,67.05ZM158.48,42.81l1.4-3.78a2.68,2.68,0,0,1,.89-1.32,2.72,2.72,0,0,1,1.55-.36H167q1.24,0,1.24.94a1.75,1.75,0,0,1-.08.41,1.88,1.88,0,0,0-.05.41q0,.94,1.22.94h2.82q2.11,0,2.11,2v.94q0,2-2.11,2H159.93q-1.65,0-1.65-1.27A2.52,2.52,0,0,1,158.48,42.81Zm25,28.31-.56,3.33a4.45,4.45,0,0,0-.08.76q0,1.65,2.11,1.65h20.11q2.11,0,2.11,2v.94q0,2-2.11,2h-29q-1.83,0-1.83-1.47a2.93,2.93,0,0,1,.08-.66L178.16,60a3.43,3.43,0,0,0,.08-.66q0-1.12-1.37-1.29a1.63,1.63,0,0,1-1.65-1.75v-.18a15.58,15.58,0,0,1,1.09-5l2.06-5.74a2.7,2.7,0,0,0,.18-.86,1.3,1.3,0,0,0-.53-1,1.38,1.38,0,0,0-.89-.3h-.2q-1.83,0-1.83-2v-.94q0-2,2.13-2h7.36q2,0,2.11,1.63a1.78,1.78,0,0,1,1.45-.74h.63a1.09,1.09,0,0,0,1.24-1q.1-1,1.22-1h6.2q1.14,0,1.24,1a1.09,1.09,0,0,0,1.24,1h4.62a1.86,1.86,0,0,1,2.11,2.11v4.16q0,.46.38.48a.42.42,0,0,1,.38.48V50a.42.42,0,0,1-.38.48q-.38,0-.38.46v4.77a1.86,1.86,0,0,1-2.11,2.11h-4.29q-1.57,0-1.57,1.29t1.57,1.29h4.52q2.13,0,2.13,1.83v.48q0,1.83-2.13,1.83h-4.09q-2,0-2,1.65t2,1.65h4.16q2.11,0,2.11,1.9v.71q0,1.9-2.11,1.9h-4q-2.13,0-2.13,1.88v.58q0,1.88-2.11,1.88h-4.44q-2.11,0-2.11-1.88v-.58q0-1.88-2.13-1.88h-2.34Q183.85,72.41,183.49,71.12Zm2.79-16.66a1.83,1.83,0,0,1,1.5-.74h.48a1.66,1.66,0,0,0,1.27-.48,1.53,1.53,0,0,0,.48-1.12q0-1.6-2-1.6h-1.35q-2,0-2-1.93v-.36l-1.07,3a2.45,2.45,0,0,0-.18.81q0,1.07,1.32,1.22A1.61,1.61,0,0,1,186.28,54.46ZM184,68.38a2.28,2.28,0,0,1,1.57-.48H188q2,0,2-1.65t-2-1.65h-1.19a1.77,1.77,0,0,1-2-1.45Zm1.27-7.29a2.1,2.1,0,0,1,1.63-.63h1.57q1.57,0,1.57-1.29t-1.52-1.29h-.71A1.63,1.63,0,0,1,186,56.59Zm.1-14.73a2.28,2.28,0,0,1,1.37-.36h1.7q1.6,0,1.6-1.29t-1.47-1.29h-.41a1.68,1.68,0,0,1-1.6-1,17.91,17.91,0,0,1-.94,3.25Zm15.77-1.6v-.15a1.15,1.15,0,0,0-.36-.84,1.24,1.24,0,0,0-.86-.36,1.18,1.18,0,0,0-.86.36,1.2,1.2,0,0,0-.36.89v.13A1.21,1.21,0,0,0,199.89,46a1.23,1.23,0,0,0,.86-.36A1.2,1.2,0,0,0,201.11,44.76Zm-2.44,7v.66q0,1.35,1.22,1.35a1.23,1.23,0,0,0,.86-.36,1.17,1.17,0,0,0,.36-.86v-.63q0-1.37-1.22-1.37a1.21,1.21,0,0,0-1.22,1.22Z"/><path class="cls-3" d="M239.27,71.5a4.24,4.24,0,0,1,.48-.58l2.67-2.84a1.37,1.37,0,0,0,.46-.89q0-1-1.27-1H226.12a2.43,2.43,0,0,0-1.45.36,2.55,2.55,0,0,0-.71,1.32l-3.15,12.11a2.42,2.42,0,0,1-.76,1.4,2.46,2.46,0,0,1-1.52.38h-6.7q-1.78,0-1.78-1.4a3.32,3.32,0,0,1,.1-.74l4.6-18.26a1.77,1.77,0,0,0,.08-.43q0-.66-.81-.76a1.13,1.13,0,0,1-1.07-1.29v-12a1.86,1.86,0,0,1,2.11-2.11h39.51a1.86,1.86,0,0,1,2.11,2.11V58a1.86,1.86,0,0,1-2.11,2.11H227.21q-1.52,0-1.52,1.12,0,.74.91.74h27.65q1.93,0,1.93,1.65a6,6,0,0,1-1.57,3.48l-2.82,3.63a2.38,2.38,0,0,0-.61,1.37,2.31,2.31,0,0,0,.66,1.4L257.3,80a1.33,1.33,0,0,1,.38.79q0,1-1.19,1h-8.66a4.55,4.55,0,0,1-1.85-.28,4.21,4.21,0,0,1-1.35-1.29l-5-6.32-.25-.36c-.1.17-.19.31-.28.43l-4.37,6.25a3.83,3.83,0,0,1-1.24,1.27,3.89,3.89,0,0,1-1.78.3h-8q-1.24,0-1.24-1a1.36,1.36,0,0,1,.36-.76l4.62-6.09a2.35,2.35,0,0,0,.58-1.37,2.16,2.16,0,0,0-.76-1.47l-2-2a1.16,1.16,0,0,1-.38-.76q0-.86,1.07-.86h6.7a6.68,6.68,0,0,1,2.18.25,5.87,5.87,0,0,1,1.7,1.24L238.82,71A3.45,3.45,0,0,1,239.27,71.5Zm-28.41-30,1.55-2.54a3.41,3.41,0,0,1,1.14-1.29,3.51,3.51,0,0,1,1.68-.3h8.94q.76,0,.76.63a.78.78,0,0,1-.1.3,1.22,1.22,0,0,0-.08.36q0,.61.79.61h31q2.13,0,2.13,1.85v.46q0,1.85-2.13,1.85H211.93q-1.37,0-1.37-1.12A1.62,1.62,0,0,1,210.86,41.46ZM226,50.63h17.62q1.27,0,1.27-1t-1.27-1H226q-1.27,0-1.27,1T226,50.63Zm.3,5.69h17q1.57,0,1.57-1.29t-1.57-1.27h-17q-1.57,0-1.57,1.27T226.3,56.31Z"/><path class="cls-3" d="M272.13,39.89v-.76q0-1.83,2.11-1.83h5.81q2.13,0,2.13,1.83v.36q0,1.83,2.11,1.83h5.64q2.13,0,2.13,1.85v.51q0,1.85-2.13,1.85h-5.84q-1.9,0-1.9,1.57t1.9,1.55h6.09q2.11,0,2.11,1.85V51q0,1.85-2.11,1.85h-5.89q-2.11,0-2.11,1.78v.23q0,1.8,2.11,1.8h5.08a1.87,1.87,0,0,1,2.13,2.11V78.61a1.89,1.89,0,0,1-2.13,2.13h-3.73a1.87,1.87,0,0,1-2.11-2.13V62.31q0-1.17-1-1.17t-1,1.17V79.57a1.87,1.87,0,0,1-2.13,2.11h-4.77a1.86,1.86,0,0,1-2.11-2.11V62.36q0-1.24-1-1.24t-1,1.24V78.61a1.89,1.89,0,0,1-2.13,2.13h-3.73a1.87,1.87,0,0,1-2.11-2.13V58.73a1.86,1.86,0,0,1,2.11-2.11H270q2.13,0,2.13-1.78v-.25q0-1.78-2.13-1.78h-6q-2.11,0-2.11-1.85V50.5q0-1.85,2.11-1.85h6.25q1.93,0,1.93-1.57t-1.93-1.55h-6.4q-1.75,0-1.75-1.4a3.76,3.76,0,0,1,.08-.74l.79-3.15a2.52,2.52,0,0,1,.74-1.4,2.46,2.46,0,0,1,1.55-.41h3.61q1.4,0,1.4,1.17a1.45,1.45,0,0,1,0,.28l-.05.2a1.48,1.48,0,0,0-.05.36q0,.86.91.86Q272.13,41.31,272.13,39.89ZM300,40.5V78.71a1.89,1.89,0,0,1-2.13,2.13h-2.69A1.87,1.87,0,0,1,293,78.71V40.5a1.87,1.87,0,0,1,2.11-2.13h2.69A1.89,1.89,0,0,1,300,40.5Zm10.31-1V79.6a1.87,1.87,0,0,1-2.13,2.11h-4.42a1.86,1.86,0,0,1-2.11-2.11V39.46a1.87,1.87,0,0,1,2.11-2.13h4.42A1.89,1.89,0,0,1,310.27,39.46Z"/><path d="M105.16,54h44.64a1.86,1.86,0,0,1,2.13,2.08v1.37a1.86,1.86,0,0,1-2.13,2.08H105.16A1.85,1.85,0,0,1,103,57.46V56.09A1.85,1.85,0,0,1,105.16,54Z"/><path d="M167.57,65.05v8.38q0,2.11,1.75,2.11h.05a1.66,1.66,0,0,1,1.22.51,1.82,1.82,0,0,1,.51,1.35v.46q0,1.85-2.11,1.85h-9a1.86,1.86,0,0,1-2.11-2.11V64.72a1.57,1.57,0,0,0-1.47-1.8,1.52,1.52,0,0,1-1.47-1.73v-1a1.52,1.52,0,0,1,1.47-1.73,1.57,1.57,0,0,0,1.47-1.8V53.4a1.51,1.51,0,0,0-1.4-1.73,1.46,1.46,0,0,1-1.4-1.68v-.91q0-1.9,2.11-1.9h11.76q2.11,0,2.11,1.9v.69a1.71,1.71,0,0,1-1.73,1.9,1.86,1.86,0,0,0-1.75,2.13v2.49q0,2.13,1.78,2.13h.18q1.78,0,1.78,1.9V61q0,1.9-1.78,1.9h-.18Q167.57,62.92,167.57,65.05ZM155.48,40.81l1.4-3.78a2.68,2.68,0,0,1,.89-1.32,2.72,2.72,0,0,1,1.55-.36H164q1.24,0,1.24.94a1.75,1.75,0,0,1-.08.41,1.88,1.88,0,0,0-.05.41q0,.94,1.22.94h2.82q2.11,0,2.11,2v.94q0,2-2.11,2H156.93q-1.65,0-1.65-1.27A2.52,2.52,0,0,1,155.48,40.81Zm25,28.31-.56,3.33a4.45,4.45,0,0,0-.08.76q0,1.65,2.11,1.65h20.11q2.11,0,2.11,2v.94q0,2-2.11,2h-29q-1.83,0-1.83-1.47a2.93,2.93,0,0,1,.08-.66L175.16,58a3.43,3.43,0,0,0,.08-.66q0-1.12-1.37-1.29a1.63,1.63,0,0,1-1.65-1.75v-.18a15.58,15.58,0,0,1,1.09-5l2.06-5.74a2.7,2.7,0,0,0,.18-.86,1.3,1.3,0,0,0-.53-1,1.38,1.38,0,0,0-.89-.3h-.2q-1.83,0-1.83-2v-.94q0-2,2.13-2h7.36q2,0,2.11,1.63a1.78,1.78,0,0,1,1.45-.74h.63a1.09,1.09,0,0,0,1.24-1q.1-1,1.22-1h6.2q1.14,0,1.24,1a1.09,1.09,0,0,0,1.24,1h4.62a1.86,1.86,0,0,1,2.11,2.11v4.16q0,.46.38.48a.42.42,0,0,1,.38.48V48a.42.42,0,0,1-.38.48q-.38,0-.38.46v4.77a1.86,1.86,0,0,1-2.11,2.11h-4.29q-1.57,0-1.57,1.29t1.57,1.29h4.52q2.13,0,2.13,1.83v.48q0,1.83-2.13,1.83h-4.09q-2,0-2,1.65t2,1.65h4.16q2.11,0,2.11,1.9v.71q0,1.9-2.11,1.9h-4q-2.13,0-2.13,1.88v.58q0,1.88-2.11,1.88h-4.44q-2.11,0-2.11-1.88v-.58q0-1.88-2.13-1.88h-2.34Q180.85,70.41,180.49,69.12Zm2.79-16.66a1.83,1.83,0,0,1,1.5-.74h.48a1.66,1.66,0,0,0,1.27-.48,1.53,1.53,0,0,0,.48-1.12q0-1.6-2-1.6h-1.35q-2,0-2-1.93v-.36l-1.07,3a2.45,2.45,0,0,0-.18.81q0,1.07,1.32,1.22A1.61,1.61,0,0,1,183.28,52.46ZM181,66.38a2.28,2.28,0,0,1,1.57-.48H185q2,0,2-1.65t-2-1.65h-1.19a1.77,1.77,0,0,1-2-1.45Zm1.27-7.29a2.1,2.1,0,0,1,1.63-.63h1.57q1.57,0,1.57-1.29t-1.52-1.29h-.71A1.63,1.63,0,0,1,183,54.59Zm.1-14.73a2.28,2.28,0,0,1,1.37-.36h1.7q1.6,0,1.6-1.29t-1.47-1.29h-.41a1.68,1.68,0,0,1-1.6-1,17.91,17.91,0,0,1-.94,3.25Zm15.77-1.6v-.15a1.15,1.15,0,0,0-.36-.84,1.24,1.24,0,0,0-.86-.36,1.18,1.18,0,0,0-.86.36,1.2,1.2,0,0,0-.36.89v.13A1.21,1.21,0,0,0,196.89,44a1.23,1.23,0,0,0,.86-.36A1.2,1.2,0,0,0,198.11,42.76Zm-2.44,7v.66q0,1.35,1.22,1.35a1.23,1.23,0,0,0,.86-.36,1.17,1.17,0,0,0,.36-.86v-.63q0-1.37-1.22-1.37a1.21,1.21,0,0,0-1.22,1.22Z"/><path d="M236.27,69.5a4.24,4.24,0,0,1,.48-.58l2.67-2.84a1.37,1.37,0,0,0,.46-.89q0-1-1.27-1H223.12a2.43,2.43,0,0,0-1.45.36,2.55,2.55,0,0,0-.71,1.32l-3.15,12.11a2.42,2.42,0,0,1-.76,1.4,2.46,2.46,0,0,1-1.52.38h-6.7q-1.78,0-1.78-1.4a3.32,3.32,0,0,1,.1-.74l4.6-18.26a1.77,1.77,0,0,0,.08-.43q0-.66-.81-.76a1.13,1.13,0,0,1-1.07-1.29v-12a1.86,1.86,0,0,1,2.11-2.11h39.51a1.86,1.86,0,0,1,2.11,2.11V56a1.86,1.86,0,0,1-2.11,2.11H224.21q-1.52,0-1.52,1.12,0,.74.91.74h27.65q1.93,0,1.93,1.65a6,6,0,0,1-1.57,3.48l-2.82,3.63a2.38,2.38,0,0,0-.61,1.37,2.31,2.31,0,0,0,.66,1.4L254.3,78a1.33,1.33,0,0,1,.38.79q0,1-1.19,1h-8.66a4.55,4.55,0,0,1-1.85-.28,4.21,4.21,0,0,1-1.35-1.29l-5-6.32-.25-.36c-.1.17-.19.31-.28.43l-4.37,6.25a3.83,3.83,0,0,1-1.24,1.27,3.89,3.89,0,0,1-1.78.3h-8q-1.24,0-1.24-1a1.36,1.36,0,0,1,.36-.76l4.62-6.09a2.35,2.35,0,0,0,.58-1.37,2.16,2.16,0,0,0-.76-1.47l-2-2a1.16,1.16,0,0,1-.38-.76q0-.86,1.07-.86h6.7a6.68,6.68,0,0,1,2.18.25,5.87,5.87,0,0,1,1.7,1.24L235.82,69A3.45,3.45,0,0,1,236.27,69.5Zm-28.41-30,1.55-2.54a3.41,3.41,0,0,1,1.14-1.29,3.51,3.51,0,0,1,1.68-.3h8.94q.76,0,.76.63a.78.78,0,0,1-.1.3,1.22,1.22,0,0,0-.08.36q0,.61.79.61h31q2.13,0,2.13,1.85v.46q0,1.85-2.13,1.85H208.93q-1.37,0-1.37-1.12A1.62,1.62,0,0,1,207.86,39.46ZM223,48.63h17.62q1.27,0,1.27-1t-1.27-1H223q-1.27,0-1.27,1T223,48.63Zm.3,5.69h17q1.57,0,1.57-1.29t-1.57-1.27h-17q-1.57,0-1.57,1.27T223.3,54.31Z"/><path d="M269.13,37.89v-.76q0-1.83,2.11-1.83h5.81q2.13,0,2.13,1.83v.36q0,1.83,2.11,1.83h5.64q2.13,0,2.13,1.85v.51q0,1.85-2.13,1.85h-5.84q-1.9,0-1.9,1.57t1.9,1.55h6.09q2.11,0,2.11,1.85V49q0,1.85-2.11,1.85h-5.89q-2.11,0-2.11,1.78v.23q0,1.8,2.11,1.8h5.08a1.87,1.87,0,0,1,2.13,2.11V76.61a1.89,1.89,0,0,1-2.13,2.13h-3.73a1.87,1.87,0,0,1-2.11-2.13V60.31q0-1.17-1-1.17t-1,1.17V77.57a1.87,1.87,0,0,1-2.13,2.11h-4.77a1.86,1.86,0,0,1-2.11-2.11V60.36q0-1.24-1-1.24t-1,1.24V76.61a1.89,1.89,0,0,1-2.13,2.13h-3.73a1.87,1.87,0,0,1-2.11-2.13V56.73a1.86,1.86,0,0,1,2.11-2.11H267q2.13,0,2.13-1.78v-.25q0-1.78-2.13-1.78h-6q-2.11,0-2.11-1.85V48.5q0-1.85,2.11-1.85h6.25q1.93,0,1.93-1.57t-1.93-1.55h-6.4q-1.75,0-1.75-1.4a3.76,3.76,0,0,1,.08-.74l.79-3.15a2.52,2.52,0,0,1,.74-1.4,2.46,2.46,0,0,1,1.55-.41h3.61q1.4,0,1.4,1.17a1.45,1.45,0,0,1,0,.28l-.05.2a1.48,1.48,0,0,0-.05.36q0,.86.91.86Q269.13,39.31,269.13,37.89ZM297,38.5V76.71a1.89,1.89,0,0,1-2.13,2.13h-2.69A1.87,1.87,0,0,1,290,76.71V38.5a1.87,1.87,0,0,1,2.11-2.13h2.69A1.89,1.89,0,0,1,297,38.5Zm10.31-1V77.6a1.87,1.87,0,0,1-2.13,2.11h-4.42a1.86,1.86,0,0,1-2.11-2.11V37.46a1.87,1.87,0,0,1,2.11-2.13h4.42A1.89,1.89,0,0,1,307.27,37.46Z"/></g></g></svg>