<svg xmlns="http://www.w3.org/2000/svg" width="37" height="37" viewBox="0 0 37 37">
  <defs>
    <style>
      .cls-1 {
        fill-rule: evenodd;
      }
    </style>
  </defs>
  <path id="购物车.svg" class="cls-1" d="M69.174,2562.12a3.3,3.3,0,0,0-2.64-1.19H44.882a1.32,1.32,0,1,0,0,2.64H66.534a0.973,0.973,0,0,1,.66.27,0.733,0.733,0,0,1,.132.79l-1.98,13.87a1.03,1.03,0,0,1-1.056.8H44.222a1.27,1.27,0,0,1-1.056-1.19l-2.244-15.33-1.188-6.48A3.849,3.849,0,0,0,35.9,2553H34.32a1.32,1.32,0,1,0,0,2.64H35.9a1.255,1.255,0,0,1,1.188,1.06l1.188,6.47,2.112,15.33a3.948,3.948,0,0,0,3.7,3.57H64.157a3.707,3.707,0,0,0,3.7-3.04l2.112-14.01a3.774,3.774,0,0,0-.792-2.9h0Zm-25.48,25.24-2.64,0a2.64,2.64,0,1,0,2.64-2.65,2.639,2.639,0,0,0-2.64,2.65m23.632,0-2.64,0a2.64,2.64,0,1,0,2.64-2.65,2.639,2.639,0,0,0-2.64,2.65" transform="translate(-33 -2553)"/>
</svg>
