<svg xmlns="http://www.w3.org/2000/svg" width="35" height="35" viewBox="0 0 35 35">
  <defs>
    <style>
      .cls-1 {
        fill-rule: evenodd;
      }
    </style>
  </defs>
  <path id="收藏.svg" class="cls-1" d="M646.487,801a1.243,1.243,0,0,1-.606-0.158l-9.418-5.228-9.439,5.2a1.25,1.25,0,0,1-1.834-1.3l1.829-11.122-7.667-7.893a1.251,1.251,0,0,1,.686-2.1l6.052-1.038a1.25,1.25,0,1,1,.422,2.464l-3.714.638,6.453,6.643a1.254,1.254,0,0,1,.337,1.074l-1.515,9.206,7.791-4.29a1.245,1.245,0,0,1,1.208,0l7.773,4.315-1.483-9.21a1.25,1.25,0,0,1,.339-1.073l6.427-6.572-8.807-1.36a1.251,1.251,0,0,1-.942-0.706l-3.872-8.3-3.9,8.275a1.25,1.25,0,1,1-2.259-1.069l5.04-10.681a1.252,1.252,0,0,1,1.13-.716h0a1.25,1.25,0,0,1,1.129.721l4.715,10.1,10.551,1.63a1.25,1.25,0,0,1,.7,2.109l-7.686,7.86,1.792,11.127a1.252,1.252,0,0,1-.516,1.222,1.218,1.218,0,0,1-.716.229h0Z" transform="translate(-619 -766)"/>
</svg>
