<svg xmlns="http://www.w3.org/2000/svg" width="32" height="37" viewBox="0 0 32 37">
  <defs>
    <style>
      .cls-1 {
        fill-rule: evenodd;
      }
    </style>
  </defs>
  <path id="分享.svg" class="cls-1" d="M714.679,792.425a5.324,5.324,0,0,0-3.789,1.582l-12.855-7.094a4.917,4.917,0,0,0,.371-3.892l12.666-7.815a5.262,5.262,0,1,0-1.779-3.918A5.224,5.224,0,0,0,709.6,773l-12.55,7.742a5.294,5.294,0,1,0-.838,8.192l13.356,7.371a5.209,5.209,0,0,0-.216,1.408,5.323,5.323,0,1,0,5.324-5.287h0Zm-0.062-23.781a2.645,2.645,0,1,1-2.662,2.644,2.656,2.656,0,0,1,2.662-2.644h0Zm-23.953,15.861a2.661,2.661,0,1,1,2.661,2.644,2.655,2.655,0,0,1-2.661-2.644h0Zm24.015,15.852a2.644,2.644,0,1,1,2.661-2.644,2.655,2.655,0,0,1-2.661,2.644h0Z" transform="translate(-688 -766)"/>
</svg>
