<?xml version="1.0" encoding="utf-8"?>
<!-- Generator: Adobe Illustrator 21.0.2, SVG Export Plug-In . SVG Version: 6.00 Build 0)  -->
<svg version="1.1" id="图层_1" xmlns="http://www.w3.org/2000/svg" xmlns:xlink="http://www.w3.org/1999/xlink" x="0px" y="0px"
	 width="35px" height="35px" viewBox="0 0 35 35" style="enable-background:new 0 0 35 35;" xml:space="preserve">
<style type="text/css">
	.st0{fill:#FF9500;}
</style>
<path id="收藏选中.svg_" class="st0" d="M27.5,35c-0.2,0-0.4-0.1-0.6-0.2l-9.4-5.2L8,34.8c-0.6,0.3-1.4,0.1-1.7-0.5
	c-0.1-0.2-0.2-0.5-0.1-0.8L8,22.4l-7.7-7.9c-0.5-0.5-0.5-1.3,0-1.8c0.2-0.2,0.4-0.3,0.7-0.3l6.1-1c0.7-0.1,1.3,0.3,1.5,1
	s-0.3,1.3-1,1.5c0,0,0,0,0,0l-3.7,0.6l6.5,6.6c0.3,0.3,0.4,0.7,0.3,1.1l-1.5,9.2l7.8-4.3c0.4-0.2,0.8-0.2,1.2,0l7.8,4.3l-1.5-9.2
	c-0.1-0.4,0.1-0.8,0.3-1.1l6.4-6.6l-8.8-1.4c-0.4-0.1-0.8-0.3-0.9-0.7l-3.9-8.3l-3.9,8.3c-0.3,0.6-1,0.9-1.6,0.6s-0.9-1-0.6-1.6
	c0,0,0,0,0-0.1l5-10.7C16.6,0.3,17,0,17.5,0l0,0c0.5,0,0.9,0.3,1.1,0.7l4.7,10.1l10.6,1.6c0.7,0.1,1.1,0.7,1,1.4
	c0,0.3-0.2,0.5-0.3,0.7l-7.7,7.9l1.8,11.1c0.1,0.5-0.1,0.9-0.5,1.2C28,34.9,27.7,35,27.5,35L27.5,35L27.5,35z"/>
</svg>
