<svg xmlns="http://www.w3.org/2000/svg" width="690" height="1" viewBox="0 0 690 1">
  <defs>
    <style>
      .cls-1 {
        fill: #cbcbcb;
        fill-rule: evenodd;
      }
    </style>
  </defs>
  <path id="虚线.svg" class="cls-1" d="M32,928h5v1H32v-1Zm9,0h5v1H41v-1Zm10,0h5v1H51v-1Zm9,0h5v1H60v-1Zm10,0h5v1H70v-1Zm9,0h5v1H79v-1Zm10,0h5v1H89v-1Zm9,0h5v1H98v-1Zm9,0h5v1h-5v-1Zm9,0h5v1h-5v-1Zm10,0h5v1h-5v-1Zm9,0h5v1h-5v-1Zm10,0h5v1h-5v-1Zm9,0h5v1h-5v-1Zm10,0h5v1h-5v-1Zm9,0h5v1h-5v-1Zm9,0h5v1h-5v-1Zm9,0h5v1h-5v-1Zm10,0h5v1h-5v-1Zm9,0h5v1h-5v-1Zm10,0h5v1h-5v-1Zm9,0h5v1h-5v-1Zm10,0h5v1h-5v-1Zm9,0h5v1h-5v-1Zm9,0h5v1h-5v-1Zm9,0h5v1h-5v-1Zm10,0h5v1h-5v-1Zm9,0h5v1h-5v-1Zm10,0h5v1h-5v-1Zm9,0h5v1h-5v-1Zm10,0h5v1h-5v-1Zm9,0h5v1h-5v-1Zm9,0h5v1h-5v-1Zm9,0h5v1h-5v-1Zm10,0h5v1h-5v-1Zm9,0h5v1h-5v-1Zm10,0h5v1h-5v-1Zm9,0h5v1h-5v-1Zm10,0h5v1h-5v-1Zm9,0h5v1h-5v-1Zm9,0h5v1h-5v-1Zm9,0h5v1h-5v-1Zm10,0h5v1h-5v-1Zm9,0h5v1h-5v-1Zm10,0h5v1h-5v-1Zm9,0h5v1h-5v-1Zm10,0h5v1h-5v-1Zm9,0h5v1h-5v-1Zm9,0h5v1h-5v-1Zm9,0h5v1h-5v-1Zm10,0h5v1h-5v-1Zm9,0h5v1h-5v-1Zm10,0h5v1h-5v-1Zm9,0h5v1h-5v-1Zm10,0h5v1h-5v-1Zm9,0h5v1h-5v-1Zm9,0h5v1h-5v-1Zm9,0h5v1h-5v-1Zm10,0h5v1h-5v-1Zm9,0h5v1h-5v-1Zm10,0h5v1h-5v-1Zm9,0h5v1h-5v-1Zm10,0h5v1h-5v-1Zm9,0h5v1h-5v-1Zm9,0h5v1h-5v-1Zm10,0h5v1h-5v-1Zm9,0h5v1h-5v-1Zm10,0h5v1h-5v-1Zm9,0h5v1h-5v-1Zm10,0h5v1h-5v-1Zm9,0h5v1h-5v-1Zm9,0h5v1h-5v-1Zm9,0h5v1h-5v-1Zm10,0h5v1h-5v-1Z" transform="translate(-32 -928)"/>
</svg>
