<svg id="_1.svg" data-name="1.svg" xmlns="http://www.w3.org/2000/svg" width="750" height="18.75" viewBox="0 0 750 18.75">
  <defs>
    <style>
      .cls-1 {
        fill: #ff7043;
      }

      .cls-1, .cls-2, .cls-3, .cls-4, .cls-5, .cls-6, .cls-7, .cls-8 {
        fill-rule: evenodd;
      }

      .cls-2 {
        fill: #c8e6e8;
      }

      .cls-3 {
        fill: #fdda48;
      }

      .cls-4 {
        fill: #28a55b;
      }

      .cls-5 {
        fill: #ff6138;
      }

      .cls-6 {
        fill: #2fb8ac;
      }

      .cls-7 {
        fill: #ff9e80;
      }

      .cls-8 {
        fill: #a1d4c8;
      }
    </style>
  </defs>
  <path id="多边形_1" data-name="多边形 1" class="cls-1" d="M15.093,717.15L0,698.407H30.183Z" transform="translate(0 -698.406)"/>
  <path id="多边形_1_拷贝" data-name="多边形 1 拷贝" class="cls-2" d="M45.272,717.15L30.181,698.407H60.363Z" transform="translate(0 -698.406)"/>
  <path id="多边形_1_拷贝_7" data-name="多边形 1 拷贝 7" class="cls-2" d="M194.858,717.15l-15.091-18.743h30.182Z" transform="translate(0 -698.406)"/>
  <path id="多边形_1_拷贝_2" data-name="多边形 1 拷贝 2" class="cls-3" d="M74.8,717.15L59.705,698.407H89.886Z" transform="translate(0 -698.406)"/>
  <path id="多边形_1_拷贝_3" data-name="多边形 1 拷贝 3" class="cls-4" d="M104.975,717.15l-15.09-18.743h30.181Z" transform="translate(0 -698.406)"/>
  <path id="多边形_1_拷贝_4" data-name="多边形 1 拷贝 4" class="cls-5" d="M135.155,717.15l-15.091-18.743h30.182Z" transform="translate(0 -698.406)"/>
  <path id="多边形_1_拷贝_5" data-name="多边形 1 拷贝 5" class="cls-6" d="M164.679,717.15l-15.091-18.743h30.181Z" transform="translate(0 -698.406)"/>
  <path id="多边形_1_拷贝_6" data-name="多边形 1 拷贝 6" class="cls-7" d="M224.382,717.15l-15.091-18.743h30.182Z" transform="translate(0 -698.406)"/>
  <path id="多边形_1_拷贝_8" data-name="多边形 1 拷贝 8" class="cls-8" d="M254.561,717.15l-15.09-18.743h30.181Z" transform="translate(0 -698.406)"/>
  <path id="多边形_1_拷贝_9" data-name="多边形 1 拷贝 9" class="cls-1" d="M285.561,717.15L270.47,698.407h30.181Z" transform="translate(0 -698.406)"/>
  <path id="多边形_1_拷贝_9-2" data-name="多边形 1 拷贝 9" class="cls-2" d="M315.74,717.15l-15.09-18.743h30.181Z" transform="translate(0 -698.406)"/>
  <path id="多边形_1_拷贝_9-3" data-name="多边形 1 拷贝 9" class="cls-2" d="M465.327,717.15l-15.091-18.743h30.181Z" transform="translate(0 -698.406)"/>
  <path id="多边形_1_拷贝_9-4" data-name="多边形 1 拷贝 9" class="cls-3" d="M345.264,717.15l-15.091-18.743h30.182Z" transform="translate(0 -698.406)"/>
  <path id="多边形_1_拷贝_9-5" data-name="多边形 1 拷贝 9" class="cls-4" d="M375.444,717.15l-15.091-18.743h30.181Z" transform="translate(0 -698.406)"/>
  <path id="多边形_1_拷贝_9-6" data-name="多边形 1 拷贝 9" class="cls-5" d="M405.623,717.15l-15.09-18.743h30.181Z" transform="translate(0 -698.406)"/>
  <path id="多边形_1_拷贝_9-7" data-name="多边形 1 拷贝 9" class="cls-6" d="M435.147,717.15l-15.091-18.743h30.181Z" transform="translate(0 -698.406)"/>
  <path id="多边形_1_拷贝_9-8" data-name="多边形 1 拷贝 9" class="cls-7" d="M494.85,717.15l-15.091-18.743h30.182Z" transform="translate(0 -698.406)"/>
  <path id="多边形_1_拷贝_9-9" data-name="多边形 1 拷贝 9" class="cls-8" d="M525.03,717.15l-15.091-18.743H540.12Z" transform="translate(0 -698.406)"/>
  <path id="多边形_1_拷贝_10" data-name="多边形 1 拷贝 10" class="cls-1" d="M555.209,717.15l-15.09-18.743H570.3Z" transform="translate(0 -698.406)"/>
  <path id="多边形_1_拷贝_10-2" data-name="多边形 1 拷贝 10" class="cls-2" d="M585.389,717.15L570.3,698.407H600.48Z" transform="translate(0 -698.406)"/>
  <path id="多边形_1_拷贝_10-3" data-name="多边形 1 拷贝 10" class="cls-4" d="M734.975,717.15l-15.091-18.743h30.182Z" transform="translate(0 -698.406)"/>
  <path id="多边形_1_拷贝_10-4" data-name="多边形 1 拷贝 10" class="cls-3" d="M614.913,717.15l-15.091-18.743H630Z" transform="translate(0 -698.406)"/>
  <path id="多边形_1_拷贝_10-5" data-name="多边形 1 拷贝 10" class="cls-4" d="M645.092,717.15L630,698.407h30.181Z" transform="translate(0 -698.406)"/>
  <path id="多边形_1_拷贝_10-6" data-name="多边形 1 拷贝 10" class="cls-5" d="M675.272,717.15l-15.091-18.743h30.182Z" transform="translate(0 -698.406)"/>
  <path id="多边形_1_拷贝_10-7" data-name="多边形 1 拷贝 10" class="cls-2" d="M704.8,717.15l-15.091-18.743h30.181Z" transform="translate(0 -698.406)"/>
</svg>
