<?xml version="1.0" encoding="utf-8"?>
<!-- Generator: Adobe Illustrator 21.0.2, SVG Export Plug-In . SVG Version: 6.00 Build 0)  -->
<svg version="1.1" id="图层_1" xmlns="http://www.w3.org/2000/svg" xmlns:xlink="http://www.w3.org/1999/xlink" x="0px" y="0px"
	 viewBox="0 0 37 37" style="enable-background:new 0 0 37 37;" xml:space="preserve">
<style type="text/css">
	.st0{fill:#FFFFFF;}
</style>
<path id="购物车.svg" class="st0" d="M36.2,9.1c-0.6-0.8-1.6-1.2-2.6-1.2H11.9c-0.7,0-1.3,0.6-1.3,1.3s0.6,1.3,1.3,1.3
	c0,0,0,0,0,0h21.7c0.2,0,0.5,0.1,0.7,0.3c0.2,0.2,0.2,0.5,0.1,0.8l-2,13.9c-0.1,0.5-0.6,0.8-1.1,0.8H11.2c-0.6-0.1-1-0.6-1.1-1.2
	L7.9,9.8L6.7,3.3C6.5,1.4,4.8,0,2.9,0H1.3C0.6,0,0,0.6,0,1.3s0.6,1.3,1.3,1.3c0,0,0,0,0,0h1.6c0.6,0,1.1,0.5,1.2,1.1l1.2,6.5
	l2.1,15.3c0.2,1.9,1.8,3.5,3.7,3.6h20.1c1.8,0,3.4-1.3,3.7-3L37,12C37.1,11,36.8,9.9,36.2,9.1L36.2,9.1L36.2,9.1z M10.7,34.4H8.1
	c0,1.5,1.2,2.6,2.6,2.6c1.5,0,2.6-1.2,2.6-2.6c0-1.5-1.2-2.6-2.6-2.6c-1.5,0-2.6,1.2-2.6,2.6c0,0,0,0,0,0 M31.7,34.4H29
	c0,1.5,1.2,2.6,2.6,2.6c1.5,0,2.6-1.2,2.6-2.6c0-1.5-1.2-2.6-2.6-2.6c-1.5,0-2.6,1.2-2.6,2.6c0,0,0,0,0,0"/>
</svg>
