<?xml version="1.0" encoding="utf-8"?>
<!-- Generator: Adobe Illustrator 21.0.2, SVG Export Plug-In . SVG Version: 6.00 Build 0)  -->
<svg version="1.1" id="图层_1" xmlns="http://www.w3.org/2000/svg" xmlns:xlink="http://www.w3.org/1999/xlink" x="0px" y="0px"
	 width="23px" height="23px" viewBox="0 0 23 23" style="enable-background:new 0 0 23 23;" xml:space="preserve">
<style type="text/css">
	.st0{fill:#FF9500;}
</style>
<path id="对号.svg" class="st0" d="M11.5,23C5.1,23,0,17.9,0,11.5S5.1,0,11.5,0S23,5.1,23,11.5C23,17.8,17.8,23,11.5,23L11.5,23z
	 M11.5,1.7c-5.4,0-9.9,4.4-9.9,9.8s4.4,9.9,9.9,9.9s9.8-4.4,9.8-9.9l0,0C21.3,6.1,16.9,1.7,11.5,1.7L11.5,1.7z M17,8.5
	c-0.3-0.3-0.8-0.3-1.2,0c0,0,0,0,0,0l-6,6.1l-2.7-2.7c-0.3-0.3-0.8-0.3-1.2,0c-0.3,0.3-0.3,0.8,0,1.2l3.2,3.3c0,0,0,0,0,0v0
	c0.1,0,0.1,0.1,0.2,0.1c0,0,0.1,0,0.1,0.1c0.1,0,0.2,0.1,0.3,0.1c0.1,0,0.2,0,0.3-0.1c0,0,0.1,0,0.1-0.1c0.1,0,0.1-0.1,0.2-0.1
	c0,0,0,0,0,0c0,0,0,0,0,0L17,9.6C17.3,9.3,17.3,8.8,17,8.5L17,8.5L17,8.5z"/>
</svg>
