<svg xmlns="http://www.w3.org/2000/svg" width="369.54" height="385.83" viewBox="0 0 369.54 385.83"><defs><style>.cls-1,.cls-9{fill:#f2f2f2;}.cls-2,.cls-6{fill:#e5e5e5;}.cls-13,.cls-3{fill:#fff;}.cls-4{fill:#ededed;}.cls-12,.cls-13,.cls-4,.cls-6,.cls-8,.cls-9{stroke:#ccc;}.cls-12,.cls-13,.cls-4,.cls-9{stroke-miterlimit:10;}.cls-5{fill:#d8d8d8;}.cls-10,.cls-6,.cls-8{stroke-linecap:round;stroke-linejoin:round;}.cls-7{fill:#f9f9f9;}.cls-10,.cls-12,.cls-8{fill:none;}.cls-10{stroke:#ddd;stroke-dasharray:4;}.cls-11{fill:#e8e8e8;}</style></defs><title>没有充值记录</title><g id="图层_2" data-name="图层 2"><g id="图层_1-2" data-name="图层 1"><path class="cls-1" d="M311.42,302c-.12,0-.22,0-.34,0-1.74-18.49-18.27-33-38.64-33-15.3,0-28.41,8.26-34.79,20.17-.89-.08-1.75-.25-2.66-.25-15.6,0-28.25,11.74-28.25,26.22a24.45,24.45,0,0,0,3,11.61h122a18.19,18.19,0,0,0,.8-5.06C332.61,310.78,323.12,302,311.42,302Z"/><path class="cls-1" d="M193.86,304.06c-.18,0-.34,0-.51,0-2.61-27.8-27.47-49.7-58.11-49.7-23,0-42.72,12.42-52.31,30.33-1.34-.12-2.63-.37-4-.37-23.46,0-42.48,17.65-42.48,39.43A36.77,36.77,0,0,0,41,341.24H224.54a27.35,27.35,0,0,0,1.2-7.61C225.73,317.3,211.47,304.06,193.86,304.06Z"/><ellipse class="cls-1" cx="183.75" cy="375.68" rx="87.94" ry="10.15"/><rect class="cls-2" x="166.43" y="135.59" width="134.34" height="190.22" transform="translate(45.25 -38.22) rotate(10.35)"/><rect class="cls-3" x="175.3" y="145.85" width="116.59" height="169.69" transform="translate(45.25 -38.22) rotate(10.35)"/><circle class="cls-4" cx="203.71" cy="186.1" r="6.73" transform="translate(-16.03 352.97) rotate(-79.63)"/><rect class="cls-4" x="223.65" y="190.12" width="59.29" height="10.12" rx="4.85" ry="4.85" transform="translate(39.28 -42.42) rotate(10.37)"/><circle class="cls-4" cx="197.15" cy="221.93" r="6.73" transform="translate(-56.66 375.9) rotate(-79.63)"/><rect class="cls-4" x="217.09" y="225.95" width="59.29" height="10.12" rx="4.85" ry="4.85" transform="translate(45.63 -40.65) rotate(10.37)"/><circle class="cls-4" cx="190.59" cy="257.77" r="6.73" transform="translate(-97.28 398.83) rotate(-79.63)"/><rect class="cls-4" x="210.53" y="261.79" width="59.29" height="10.12" rx="4.85" ry="4.85" transform="translate(51.98 -38.89) rotate(10.37)"/><path class="cls-5" d="M195,87H179.42v13.57h-35V87H70.67V340.62H253.24V87Zm0,0"/><path class="cls-3" d="M206.62,100.62v9.59H117.29v-9.59h-35V327H241.57V100.62Zm0,0"/><path class="cls-6" d="M179.42,87v8.39h-35V87H117.29v23.29h89.33V87Zm0,0"/><polygon class="cls-7" points="241.57 327.04 241.57 100.61 239.85 100.61 82.47 327.04 241.57 327.04"/><line class="cls-8" x1="36.45" y1="123.86" x2="48.35" y2="123.86"/><line class="cls-8" x1="42.4" y1="117.91" x2="42.4" y2="129.81"/><ellipse class="cls-9" cx="30.46" cy="242.68" rx="6" ry="5.87"/><path class="cls-9" d="M369.54,234.67a8.25,8.25,0,0,0-5.79,2.35,7.89,7.89,0,0,0-2.4,5.66h0A7.89,7.89,0,0,0,359,237a8.25,8.25,0,0,0-5.79-2.35h0a8.25,8.25,0,0,0,5.79-2.35,7.89,7.89,0,0,0,2.4-5.66h0a7.89,7.89,0,0,0,2.4,5.66,8.25,8.25,0,0,0,5.79,2.35Z"/><path class="cls-9" d="M349.95,195.18a9.44,9.44,0,0,0-6.62,2.68,9,9,0,0,0-2.74,6.48h0a9,9,0,0,0-2.74-6.48,9.44,9.44,0,0,0-6.62-2.68h0a9.44,9.44,0,0,0,6.62-2.68,9,9,0,0,0,2.74-6.48h0a9,9,0,0,0,2.74,6.48,9.44,9.44,0,0,0,6.62,2.68Z"/><path class="cls-9" d="M18.73,186.1a9.44,9.44,0,0,0-6.62,2.68,9,9,0,0,0-2.74,6.48h0a9,9,0,0,0-2.74-6.48A9.44,9.44,0,0,0,0,186.1H0a9.44,9.44,0,0,0,6.62-2.68,9,9,0,0,0,2.74-6.48h0a9,9,0,0,0,2.74,6.48,9.44,9.44,0,0,0,6.62,2.68Z"/><path class="cls-9" d="M304,92.27s-8.22-1.73-9.33,3.66,3.78,7.78,7.52,7.93c14.31.56,21.23,6.57,21.23,6.57s-.64-17-9.49-23.87C305.32,79.93,300,88.18,304,92.27Z"/><path class="cls-10" d="M211.54.5s24,44.13,86.28,69.25"/><path class="cls-10" d="M270.49,66.18s9,16.48,32.23,25.87"/><circle class="cls-11" cx="108.99" cy="220.77" r="6.73"/><circle class="cls-12" cx="108.99" cy="220.77" r="6.73"/><rect class="cls-11" x="129.75" y="215.71" width="81.76" height="10.12" rx="4.85" ry="4.85"/><rect class="cls-12" x="129.75" y="215.71" width="81.76" height="10.12" rx="4.85" ry="4.85"/><circle class="cls-11" cx="108.99" cy="257.77" r="6.73"/><circle class="cls-12" cx="108.99" cy="257.77" r="6.73"/><rect class="cls-11" x="129.75" y="252.71" width="81.76" height="10.12" rx="4.85" ry="4.85"/><rect class="cls-12" x="129.75" y="252.71" width="81.76" height="10.12" rx="4.85" ry="4.85"/><circle class="cls-11" cx="108.99" cy="294.77" r="6.73"/><circle class="cls-12" cx="108.99" cy="294.77" r="6.73"/><rect class="cls-11" x="129.75" y="289.71" width="81.76" height="10.12" rx="4.85" ry="4.85"/><rect class="cls-12" x="129.75" y="289.71" width="81.76" height="10.12" rx="4.85" ry="4.85"/><rect class="cls-13" x="144.46" y="83.95" width="34.95" height="11.48"/><path class="cls-5" d="M104.57,147.15h16.89v3.06h-13.3v6.85h12.51v3.06H108.16v7.47H122v3.06H104.57Z"/><path class="cls-5" d="M125.68,147.15h4.25l8.2,18.84h.1l8.17-18.84h4.25v23.51H147V153.86h-.13l-7.21,16.79h-3.1l-7.21-16.79h-.13v16.79h-3.59Z"/><path class="cls-5" d="M155.25,147.15H165q8.4,0,8.4,7.15t-8.46,7.21h-6.09v9.15h-3.59Zm3.59,3.06v8.23h5.86a6.15,6.15,0,0,0,3.89-1,3.89,3.89,0,0,0,1.22-3.16,3.54,3.54,0,0,0-1.25-3.09,6.09,6.09,0,0,0-3.85-1Z"/><path class="cls-5" d="M174.91,147.15h19.26v3.06h-7.84v20.45h-3.56V150.21h-7.87Z"/><path class="cls-5" d="M194.86,147.15h4.31L206,157.91l6.78-10.77h4.31l-9.32,14.13v9.38h-3.56v-9.38Z"/><path class="cls-5" d="M104.57,147.15h16.89v3.06h-13.3v6.85h12.51v3.06H108.16v7.47H122v3.06H104.57Z"/><path class="cls-5" d="M125.68,147.15h4.25l8.2,18.84h.1l8.17-18.84h4.25v23.51H147V153.86h-.13l-7.21,16.79h-3.1l-7.21-16.79h-.13v16.79h-3.59Z"/><path class="cls-5" d="M155.25,147.15H165q8.4,0,8.4,7.15t-8.46,7.21h-6.09v9.15h-3.59Zm3.59,3.06v8.23h5.86a6.15,6.15,0,0,0,3.89-1,3.89,3.89,0,0,0,1.22-3.16,3.54,3.54,0,0,0-1.25-3.09,6.09,6.09,0,0,0-3.85-1Z"/><path class="cls-5" d="M174.91,147.15h19.26v3.06h-7.84v20.45h-3.56V150.21h-7.87Z"/><path class="cls-5" d="M194.86,147.15h4.31L206,157.91l6.78-10.77h4.31l-9.32,14.13v9.38h-3.56v-9.38Z"/></g></g></svg>