<svg xmlns="http://www.w3.org/2000/svg" width="750" height="1218" viewBox="0 0 750 1218"><defs><style>.cls-1{fill:#ee4a4a;}.cls-2{fill:#dcded1;}.cls-2,.cls-37{opacity:0.3;}.cls-3{fill:#323232;}.cls-10,.cls-11,.cls-12,.cls-13,.cls-14,.cls-15,.cls-16,.cls-17,.cls-18,.cls-19,.cls-20,.cls-21,.cls-22,.cls-23,.cls-24,.cls-25,.cls-26,.cls-27,.cls-28,.cls-29,.cls-3,.cls-30,.cls-31,.cls-32,.cls-33,.cls-34,.cls-35,.cls-36,.cls-37,.cls-38,.cls-4,.cls-5,.cls-6,.cls-7,.cls-8,.cls-9{fill-rule:evenodd;}.cls-4{fill:#fefefe;}.cls-5{fill:#e6f4f9;}.cls-6{fill:#fff;}.cls-7{fill:#e9f4f9;}.cls-8{fill:#d0cfcd;}.cls-9{fill:#f4c4c4;}.cls-10{fill:#f6dfdf;}.cls-11{fill:#edd6d6;}.cls-12{fill:#f2bfbf;}.cls-13{fill:#f4dbdc;}.cls-14{fill:#dcafaf;}.cls-15{fill:#cfc9c8;}.cls-16{fill:#373533;}.cls-17{fill:#52373a;}.cls-18{fill:#b6a4a5;}.cls-19{fill:#d2d2d3;}.cls-20{fill:#646564;}.cls-21{fill:#e2d6d6;}.cls-22{fill:#95918e;}.cls-23{fill:#efd9d6;}.cls-24{fill:#eacfd0;}.cls-25,.cls-37{fill:#303332;}.cls-26{fill:#f9dfe1;}.cls-27{fill:#3b3b3b;}.cls-28{fill:#f7edf0;}.cls-29{fill:#f3c2c3;}.cls-30{fill:#e4d9d9;}.cls-31{fill:#6d4d4a;}.cls-32{fill:#53332e;}.cls-33{fill:#412c25;}.cls-34{fill:#fcfcfc;}.cls-35{fill:#fdfdfd;}.cls-36{fill:#4c322d;}.cls-38{fill:none;stroke:#323232;stroke-miterlimit:10;stroke-width:4px;}</style></defs><title>tixingbg</title><g id="图层_2" data-name="图层 2"><g id="图层_1-2" data-name="图层 1"><rect class="cls-1" width="750" height="1218"/><path class="cls-2" d="M73.44,188.83c-.08-.14-2.66-7.85-2.48-8.26a1.41,1.41,0,0,0-.77.22c-.57-3.31-4.91-4.4-5.19-6.69a2.77,2.77,0,0,0-1-.2l-.22.51c-.1-.38-.25-.66-.28-.91a2.3,2.3,0,0,0-1,.14,6.73,6.73,0,0,0-.65-.68l.16-.17c-3.73-2.06-10.22-3-14.63-2.89a3.2,3.2,0,0,0-.64.84,2.47,2.47,0,0,1-.46-.5c-11.45,3-18.52,12.17-15.51,22.93-.43,1.61-.61,2,.49,3.53-1.17,3.93,4,6.89,3.8,10.2,1.18,1.31,1.18,1.31,6.85,5.36l-.27.61c2.5-.47,8,1.43,10.59,2,.46-.43.87-.77,1.29-1.1a2.79,2.79,0,0,0-.16,1,4.32,4.32,0,0,1,1.27.18l-.44-.84c.81-.32,4.64-.13,5.78-.57.07.14.27.32.41.6a17.49,17.49,0,0,0,9-7.58l-.52-1c3.49-2.13,3.33-8.59,4.39-12C73,189.86,73,189.86,73.44,188.83ZM37.79,203.15c-1.64-1.81-7.59-9.56-1.63-8.68-.12.89.59,2.05.83,4.92.43.26.43.26,1.08,0-.25,2.13-.13,3.1,2,4.13ZM38.5,181c.43.25.86.51,1.41.8l-2.25-.73a8.39,8.39,0,0,0-1.76.94c.07.14.27.32.42.6-.81.32-.86,1.35-1.42,1.4a10.41,10.41,0,0,1,.72.82,5.43,5.43,0,0,0-.7,1.29l.93.65c-2.06.19-.24,2.84-3.22,3.38-.28-3.7.49-5.78,2-9.25,2-1.9,4.54-3.3,6.7-5.17.22.42.4.94.7,1.51C40.28,178,40,179.76,38.5,181Zm22,7.81a15.53,15.53,0,0,0,1.14,1.42,2.92,2.92,0,0,0-1.13.1c-.25-.66-.25-.66-1.26-1.45A5.25,5.25,0,0,1,60.48,188.83ZM56.21,171a8.25,8.25,0,0,0,.81.61c-.65.26-1,1-1.44.82ZM45.7,210.71c1-.73,1-.73,1.3-1.44.37.7,1.12.83,2,1.58C48.88,211.16,47.1,210.58,45.7,210.71Zm2.52-8.27,1-.38c.46.5.92,1,1.49,1.53a4.54,4.54,0,0,0-1.4.13A9.3,9.3,0,0,0,48.21,202.45Zm1.3,8.8a2.91,2.91,0,0,1,.12-.89c3.84-.15,8.37.61,11.63-.66C57.35,212.16,54.14,211.47,49.51,211.25Zm10.39-9a2.35,2.35,0,0,1,.53.64,2.07,2.07,0,0,0-.8,0c-.3.37-.64.84-1,1.31l-2.17.34.44-1c3.77-.19,1.18-4,4.87-2.5A11.06,11.06,0,0,0,59.9,202.27Zm4.51,4.84c.46-1.37,1-2.69,1.61-4a5.79,5.79,0,0,1-.7-.57,7.51,7.51,0,0,1,.43-1.61,12.48,12.48,0,0,1,2.1.45C67.06,203.19,66.54,205.93,64.41,207.1ZM66.56,200c0-.59,0-.59.89-1.11l.83.27C67.5,199.37,67.24,200,66.56,200Zm1.36-1.89c.22-2.37.22-2.37.58-2.26A3,3,0,0,1,67.92,198.11Z"/><path class="cls-2" d="M684.52,201.19a3.08,3.08,0,0,1,1.34-.77c-1-.5-3.52-1.72-.77-1.72.19-5.55.19-5.55.77-6.89a11,11,0,0,0-1.34-.77c0-4.73-3.67-9.4-6.31-13.2.62-1.3-1.78-2.37-2.68-2.49.5-3-1.79-3.65-2.68-6.31v3.44a2.07,2.07,0,0,0-1-.19,8.44,8.44,0,0,1-.38-1.91,5.58,5.58,0,0,0-1.72-.38,5.72,5.72,0,0,1,1.91-.77c-1.15-2.3-3.06-1.34-4.78-3.83a2.85,2.85,0,0,0-.19,1.34c.57.38,0,.77-2.3-1.91-.19.58-7.84-.77-10.52-.38a3.42,3.42,0,0,1,1.34-1c-.19-.57-.19-.57-2.3-.57-.19.57-.38,1.15-.58,1.91h-2.3c1.15-.57,1.15-.57,1.34-1.72a6.81,6.81,0,0,0-1.72-.77,5.74,5.74,0,0,0-.77,1.91c-4-1.53-4.78-1.34-8.8-1.34-.19,1.34-.19,1.34-2.1,2.68-1.34-1.34-1.34-1.34-4.78-2.68a1.92,1.92,0,0,0-1,.77c-.38-.38-.77-.57-1-.77-3.3,2.48-5.45,2.6-7.85,6.31l-.77-.77-.57,1.72a6.82,6.82,0,0,1-.77-1.72c-.57,1.15-.57,1.15-2.49,2.49a4,4,0,0,0,.77,1.15c-1.91,1.15-3.64.57-3.25,3.44a9.32,9.32,0,0,0-2.3-.19c.57.57-3.25,5-4,5.55,0,3.27-3.67,4.56-1.34,6.89-3.58,5.37-2.57,19.94,4,22.58a34.44,34.44,0,0,0,.38,4.21,14.76,14.76,0,0,1,2.11.77,3.77,3.77,0,0,0,.19,1.34c.57.19,1.34.38,2.1.57v1a3.73,3.73,0,0,1,1.34.19,3.43,3.43,0,0,0-1,1.34h1.53a13.11,13.11,0,0,0-.57,1.53c1.88,1.88,4.17,1.25,5.17,3.25a13.3,13.3,0,0,1,.57-1.53c2.71,5.41,10,7.93,15.88,9a3.72,3.72,0,0,0,.19,1.34c-1.34.38,3.64,1.72,5,.38a5.8,5.8,0,0,0,.06.81,19.82,19.82,0,0,0,2.82-.68c3.62-1.75,8.38-1.06,12.27-1.06l-2.16,2.16a10.75,10.75,0,0,1,4.15-2.5,51.16,51.16,0,0,0,8.5-9.14c1.19-4.12,7.81-8.69,8.23-11.21h1.53a4.17,4.17,0,0,1,1-1.53,13.22,13.22,0,0,0-.57-1.53A10.85,10.85,0,0,1,684,207.5c-.19-1.15-.19-1.15-1.34-1.53.76-1.15.76-1.15,1.15-3.64h1.72a4,4,0,0,0-1.15.77h1.53a3.6,3.6,0,0,1,.38-1.53A5.57,5.57,0,0,0,684.52,201.19Zm-63.15-30.81c1.34,1.15,1.34,1.15,1.72,2.49-1.91.38-1.91.38-3.83,1.91C618.58,173.38,620.64,172,621.38,170.38Zm-6.51,8.42a7.73,7.73,0,0,0,1,1.72,1.91,1.91,0,0,0-1,.77,10.62,10.62,0,0,0-1.15-1.53A5,5,0,0,1,614.87,178.8Zm1.34,3.06a3.6,3.6,0,0,0-.38,1.53,11.66,11.66,0,0,0-2.3,1C614.11,182.63,614.49,182.24,616.21,181.86Zm-6.12,23.54c-.77-.57-.77-.57-.57-1.72a17,17,0,0,0,1.91,1.15A9.19,9.19,0,0,0,610.09,205.4Zm13,12.25c-.57-2.1-1.53-2.1-3.06-3.25-5.74-10.52-9.19-16.07-6.7-27.94a20.46,20.46,0,0,1,3.64-1.34c0,2.11-.77,3.64-.57,5.93-.77,0-.77,0-2.1,1.53,2.26,3.23.76,8.61,4.4,8.61-1.34.77-1.34.77-1.72,1.72,3.44,3.06,5.93,7.65,5.55,12.63,1,0,1,0,1.53-1.15a21.32,21.32,0,0,0,.38,3.25Zm27-4.4c-.57,1.34-.57,1.34-2.11,1.72A20.43,20.43,0,0,1,650.08,213.24Zm-3.83-49.18c1.45.73,1.34,1.21,1.34,2.68-1.61,0-2.2.16-2.49-2.1Zm.76,6.51c.46-1.39.19.19,0,0Zm-5,27.55a2.74,2.74,0,0,1,1.15.38,7.5,7.5,0,0,0-1.53,1.91A9.62,9.62,0,0,1,642,198.12Zm-2.3-26a13.28,13.28,0,0,0,1.53.57C639.69,173.2,639.75,174.39,639.75,172.1Zm-8.61,1.34a10.54,10.54,0,0,0-1.72,1.34,5.12,5.12,0,0,0-1.15-1A14.87,14.87,0,0,1,631.14,173.44Zm-2.3,25.83a5.91,5.91,0,0,1,1.91-.19c-.38,2.1-.38,2.1-1.34,2.49a3.59,3.59,0,0,1,.38-1.53C629.42,199.65,629,199.46,628.84,199.27ZM626.55,171a39.41,39.41,0,0,0-1,4.59C625.21,174.21,625.21,174.21,626.55,171Zm-1.91,25.64c2.49,3.83,4.59,8.42,10,7.65a13.55,13.55,0,0,0,.19,2.68c1.15,0,2.3-1.15,4-1v2.68a14.28,14.28,0,0,1,3.06-1c0-1.15,0-1.15-1-2.49a5.68,5.68,0,0,1,1.91-.38c-.38,1.72-.38,1.72.38,4a47,47,0,0,1,5.17.38c-.57,1-1.72.77-5.55,3.25v-1.34C635.35,209.22,624.63,206.93,624.63,196.59Zm27.75,26c-2.3.19-4.59.38-6.89.77a13.3,13.3,0,0,0-1.91-.77v-1.15h3.83a5.64,5.64,0,0,1,.38-1.91c.77.19,1.72.38,2.68.57l.57-1.72a13.16,13.16,0,0,0,1.53.57A21.92,21.92,0,0,0,652.38,222.62Zm17-53.77a4,4,0,0,0-.77,1.15c.19.19.38.57.77,1a1.91,1.91,0,0,0-1,.77C666.54,167.89,666.73,169.42,669.41,168.85Zm-7.46-1c-.58-1-1-1.72-1.34-2.49C661.75,166.17,661.75,166.17,661.95,167.89Zm-6.89,6.31a9.61,9.61,0,0,0-.19-6.12C657.16,170.76,659.65,173.06,655.06,174.21Zm8.23,49.18c.19-3.06.58-6.12,1-9l.57,1.15a21.09,21.09,0,0,1,.38-3.64,7.06,7.06,0,0,1,2.1-1c-.57-.38-1-.77-1.34-1,.42-2.08.2-2.75,2.3-3.44a4,4,0,0,0-1.15-.77,16.77,16.77,0,0,1,3.25-.38C669.22,212.28,667.88,217.83,663.28,223.38ZM669,204.82a15.94,15.94,0,0,0-2.3-1.53c1.53-.38,2.68-.77,3.06-2.3.38,1.15.77,2.49,1.15,3.83Zm.57-5.74a39.81,39.81,0,0,1-.77-4.21,5.3,5.3,0,0,0-1.72-.19,7.14,7.14,0,0,1-.19-1.91H665.2c0-.77,0-.77,1.72-1,0-2.87-1-4-2.87-5.93a3.84,3.84,0,0,0-1.53.77,4.2,4.2,0,0,0-.57-1l1.72-.57h-2.3a5.59,5.59,0,0,1,.38-1.72c-.57-.57-1.15-1-1.53-1.34l-1.15,1.72v-2.3c3.27,0,3.77,1.77,7.08,2.1a3.73,3.73,0,0,0,.19,1.34c.77-.38,1.72.77,2.87,1C670,189.51,673,196.21,669.6,199.08Zm7.46-19.71a4.18,4.18,0,0,0-1,.58,9.27,9.27,0,0,1-1.34-.58C674.38,175,676.11,177.08,677.06,179.37Zm-1.72,4.4a16.6,16.6,0,0,0-1.15-1.91c.7-1.41,3.38-1.34,3.06-.38h-1.53a11.66,11.66,0,0,0,1,2.3Zm2.3,3.44h1.72c-.19.77-1,.57-2.1,1.72A5.57,5.57,0,0,1,677.64,187.22Zm2.3,16.27v-1.15c-2.29,0-1.79-1.64,1-1C680.89,202.91,680.89,202.91,679.93,203.48Zm1.91-.57c3-4,2.06-.88,0,0Z"/><path class="cls-2" d="M198.26,890.12c.92-.2,1.32-.26,1.74,0a6.75,6.75,0,0,0-.27-1.24l-.35,0c-.84-2.53-.17-3.23-.17-6l-.11-.06c.28-2-.57-2-.85-3.68a5.09,5.09,0,0,0-1.56.28c0-1.13,0-1.13.85-2.41a12.92,12.92,0,0,0-2.27-.14,9.75,9.75,0,0,0-.43-1.13l-1.27.43-1.7-1.28v-2.12l-2.13-.85a3.33,3.33,0,0,0-1,1c-.71-1.27-1.28-3.12-3-3.12-.81-2.44-4.4-2-6.37-4a2,2,0,0,0-.43.57,16.52,16.52,0,0,0-2.55-.57,2.65,2.65,0,0,1,.28-1.13,15,15,0,0,0-2.69.57c0-1.13,0-1.13-.57-1.84a4.36,4.36,0,0,0-1.42.14,7.1,7.1,0,0,1-.28-1.7l-.85.85c-.71-.57-.71-.57-2.27-.71a5,5,0,0,1,1.27.57l-1.27.42a15.45,15.45,0,0,1-1.13-2.12l-.42.85c-4.82.85-10.48.57-15.58,1.13a8,8,0,0,0-.57,1.7c-.28-1.42-.85-1.7-2.12-2.27a4.13,4.13,0,0,0-.28,1.27c-1.61-1.61-6.38,2.18-7.37,3.82a4.13,4.13,0,0,1-.28-1.27c-2.27,5.81-7.08,11-6.8,17.85-2,2-.28,9.35-.28,11.47a3.93,3.93,0,0,1,1.27.14c-.57.43-.57.43-.85,1.7a4.14,4.14,0,0,1,1.27.28c-1.42,2.27.85,4.25,2.27,5.67,0,3.54,2.27,4.39,3.54,7.51a3.12,3.12,0,0,1,.71-.42l1.84,1.84v1.28a2.75,2.75,0,0,0,2.55.28,8.06,8.06,0,0,0-.57,1.7c2.25,2,6.86,5.33,8.5,5.1.28-.71.57-1.27.85-1.84.57,1.27.57,1.84,2.13,2.27a4.12,4.12,0,0,1,.28-1.28,6.38,6.38,0,0,0,2.88,1.6c4.4-.42,11-1.38,15.33,0L176,921a6.9,6.9,0,0,1-.14-1.7c3.36,2.52,2.49-.44,5.24-1.13a5,5,0,0,0,.57,1.27,5.08,5.08,0,0,1,1-1.42,5,5,0,0,1-.57-1.27c1-.43,1-.43,2.27,0,.2-2.06,2.41-4.82,1.56-1.42,1.36,0,5.92-6.06,7.93-8.07-.14-.57-.28-1-.43-1.42a2.55,2.55,0,0,1,1-.71,3.59,3.59,0,0,0-1-.28,4.45,4.45,0,0,1,.71-1.42,3,3,0,0,1,.85.57c2.3-1.61.11-4.1,2.27-4.82.57-3,2.13-5.38,2.41-8.22C198.68,890.83,198.68,890.83,198.26,890.12Zm-56.52,2.41c-1.42-4-2.12-4.82-2.12-9.35a9.07,9.07,0,0,1,1.84-1.42c.42,1,.85,2.12,1.42,3.26a2.29,2.29,0,0,0-1,.57,4.15,4.15,0,0,1,1.27.28,4.2,4.2,0,0,0-.28,1.42,3.74,3.74,0,0,1-.71-.85c0,1.7.71,4,.57,6.09Zm2.13,2a1.09,1.09,0,0,0-.71.28,2.5,2.5,0,0,1-.85-1.84,7.31,7.31,0,0,1,1.56.28Zm2.13-11h1a3.9,3.9,0,0,0,.14,1.27l1.27.43a2,2,0,0,0-.85.28,2.75,2.75,0,0,0,.14,1,2.05,2.05,0,0,1,1-.28,3,3,0,0,0-.57.85c.71.85,2.83,1.42,4.82,2.55a20.28,20.28,0,0,0-2.13,1.56C147.12,888.7,147.12,887.43,146,883.46Zm10.2,27.62a1.08,1.08,0,0,0-.71.28c-.43-.71-4-1.7-4.53-2.55,1.27-1.56,3.26-.28,5-.14a4.12,4.12,0,0,0-1.27.28,13.72,13.72,0,0,1,1.56.71Zm-.28-8.64c-2.41-.57-2.55-2-3.68-3.83,1.7,1.13,1.7,1.13,3.12,1.28a2,2,0,0,1,.28-.85c1.13,1.7,1.13,1.7,1.13,3Zm22-29.61-2.13,1.28c-.71-1.28-1.27-2.55-1.84-3.82C175.87,870.29,177.15,870.85,177.86,872.84ZM173,871.42a2.56,2.56,0,0,1-2.13-.57l-1.27,1.27v-1.84c1,0,1,0,1-.43-1.48,0-1.75.08-2.13,1.56-.14-1.13-.14-1.13.43-1.84h-1.84a4.38,4.38,0,0,1-.28-1.13C167.8,868.59,173.89,868.59,173,871.42Zm-9.49-4v1.27a2,2,0,0,1,.85.28,2,2,0,0,0-.85.28c-1-.71-2-1.28-2.83-1.84Zm-5.95.28a10.93,10.93,0,0,1,2.12-.28,3.08,3.08,0,0,0-.42.71,5.32,5.32,0,0,0-1.42-.14,3,3,0,0,0-.57.85A2.66,2.66,0,0,1,157.6,867.74ZM157.46,889a11.32,11.32,0,0,1,2.27-1.13c.43.85.43.85,1,.85v-1a17.41,17.41,0,0,1,2.27.57,9.85,9.85,0,0,1,.43-1.13c3.54-.43,5.24-1.13,8.64-.28,0-2,0-2,.42-2,0,1.42,0,1.42.42,1.42,0-.85,0-.85.57-.85v.85h1.42c0-1.42,0-1.42.42-1.42a11.08,11.08,0,0,0,.28,2c-.71.42-.71,1.42-1.27,1.42a12.25,12.25,0,0,0-.85-1.42h-1v.85a4.12,4.12,0,0,0-1.27-.28c-.57.71-.57.71-.57,1.84-2.27,1-4,1.7-6.23,1.28v1h-2.27v2.83h-1c.14-.85.28-1.7.43-2.41C158.17,892,158.45,892.24,157.46,889Zm14.73-.42a8.71,8.71,0,0,0-.14,2h-1c.14-.85.28-1.56.43-2.27A2.38,2.38,0,0,1,172.19,888.56Zm-12.47,14.73a6.34,6.34,0,0,1,1.56-1.13C160.72,903,160.72,903,159.73,903.29ZM170.07,916c-.85-.42-.85-.42-.85-.85,1.56.14,1.56.14,2.12-.42A5.73,5.73,0,0,0,172,916Zm4.82-9.35a7.16,7.16,0,0,1,.28-1.84,3.76,3.76,0,0,1,.85.71A4.31,4.31,0,0,0,174.88,906.69Zm5.38-10.62c0,2-2.41,2.27-4,3.12v1.28a4.13,4.13,0,0,0-1.27-.28,12.27,12.27,0,0,0-1.42,2.27c-1.56-3.26-7.65,1-9.63,1.42-1-1.56-2-3.12-3-4.53,1-1,1-1,1.84-.85a2.76,2.76,0,0,0,.14,1,7.15,7.15,0,0,1,.71-1.84l.42,1.27c.28-1.27.28-1.27.85-1.27v1.27h.71c.14-.85.28-1.7.43-2.41,4.25,2,5.87-2.43,9.35-1.56a3.11,3.11,0,0,0-.42-.71c2.27,0,2.41-1.7,4.11-2.27a10.73,10.73,0,0,0,.14,2.13h.85l.43,1.27a4.16,4.16,0,0,0-1.27-.28l-.43.85A5.32,5.32,0,0,1,180.27,896.07Zm.28-12c-.14-1.84.14-1.56.57-2.83.43,1.28.43,1.28,1.27,1.56h-1.13C181.26,883.46,181.26,883.46,180.55,884Zm2.83,1.42c-.85.14-1.7.28-2.41.42,0-1.09,1.63-1,2.41-1Zm9.07-9.35c.28.57.57,1.13,1,1.84-.57.14-1.13.28-1.56.42a7.09,7.09,0,0,1-.28-1.7A3,3,0,0,1,192.45,876.09ZM187.35,889a6.87,6.87,0,0,0-1.7-.14,3.15,3.15,0,0,1,.71-.42c-.28-1.56-.57-3-.71-4.39a7.84,7.84,0,0,0-1,1.28,21.4,21.4,0,0,1-.28-2.83c2.13,0,2.41-.14,4.11,1.28a3.08,3.08,0,0,0-.71.42H189c.14.57.28,1.13.42,1.84a9.64,9.64,0,0,1,1.42.57,3,3,0,0,0-.85.57c1.27.57,1.27.57,1.27,1.13a2.78,2.78,0,0,0-1.13.14c.28.42.71.85,1.13,1.42-1.84.85-1.42,3.12-2.83,4.53C188.06,892.53,187.63,890.68,187.35,889Zm1.13,15.3a18.15,18.15,0,0,1-.14-2.69,12.92,12.92,0,0,1,1.42.71,10,10,0,0,0,.14,2ZM189.9,901a2.5,2.5,0,0,0,.85-1.84c.28.43.57.85,1,1.42C191,900.74,190.46,900.88,189.9,901Zm2.41-1.42a13.06,13.06,0,0,1-.14-2.27h-.71c.43-.85.43-.85,1.28-.85C193.16,897.34,193.16,899.18,192.31,899.61Zm1.84-5.52a7.15,7.15,0,0,0-1.84.28c.14-.71.28-1.28.43-1.84C193.58,892.53,194.71,893,194.15,894.08Zm1.56-1.13c.14.71.28,1.56.43,2.41C195.56,894.23,195.42,894.51,195.71,893Zm1.7-11.19a8.15,8.15,0,0,1,1,.57c-1.19.6-.72,1-.42,2.13C196.45,883.94,197.13,883.16,197.41,881.76Zm1,11.19a3.38,3.38,0,0,1-.71-2.41C198.82,892.67,198.82,892.67,198.4,893Z"/><path class="cls-2" d="M679.09,921.38c-.11-.21-4-11.88-3.76-12.5a2.12,2.12,0,0,0-1.16.33c-.87-5-7.44-6.66-7.86-10.12a4.21,4.21,0,0,0-1.5-.31l-.34.77c-.16-.58-.38-1-.43-1.37a3.5,3.5,0,0,0-1.52.21,10.19,10.19,0,0,0-1-1l.25-.25c-5.64-3.12-15.48-4.54-22.15-4.37a4.8,4.8,0,0,0-1,1.27,3.77,3.77,0,0,1-.7-.75c-17.33,4.62-28,18.43-23.48,34.71-.65,2.43-.92,3.05.74,5.35-1.77,5.95,6.09,10.43,5.75,15.44,1.79,2,1.79,2,10.37,8.11l-.4.93c3.78-.71,12.14,2.17,16,3.07.69-.66,1.32-1.16,1.95-1.66a4.21,4.21,0,0,0-.25,1.51,6.49,6.49,0,0,1,1.92.27l-.67-1.28c1.23-.48,7-.19,8.76-.87.11.21.4.48.63.9a26.47,26.47,0,0,0,13.57-11.47l-.78-1.49c5.29-3.22,5-13,6.65-18.12C678.42,922.92,678.42,922.92,679.09,921.38Zm-54,21.67c-2.49-2.74-11.49-14.47-2.46-13.14-.18,1.35.9,3.11,1.25,7.46.65.39.65.39,1.63,0-.38,3.23-.2,4.7,3,6.26Zm1.08-33.5c.65.38,1.3.77,2.13,1.22l-3.4-1.1a12.68,12.68,0,0,0-2.67,1.43c.11.21.4.48.63.91-1.23.48-1.3,2-2.15,2.12a15.74,15.74,0,0,1,1.1,1.24,8.22,8.22,0,0,0-1.05,2l1.41,1c-3.12.28-.37,4.3-4.88,5.12-.43-5.6.74-8.75,3-14,3.09-2.88,6.88-5,10.15-7.82.34.64.6,1.43,1.05,2.28C628.88,904.9,628.41,907.64,626.19,909.55Zm33.28,11.83a23.9,23.9,0,0,0,1.72,2.14,4.42,4.42,0,0,0-1.7.15c-.38-1-.38-1-1.9-2.2A7.91,7.91,0,0,1,659.48,921.37Zm-6.47-27a12.57,12.57,0,0,0,1.23.93c-1,.39-1.46,1.47-2.17,1.24ZM637.1,954.5c1.5-1.1,1.5-1.1,2-2.18.56,1.06,1.7,1.26,3,2.4C641.91,955.18,639.22,954.31,637.1,954.5ZM640.9,942l1.48-.58c.69.76,1.39,1.51,2.26,2.32a6.91,6.91,0,0,0-2.13.19A14.09,14.09,0,0,0,640.9,942Zm2,13.33a4.41,4.41,0,0,1,.18-1.35c5.82-.23,12.67.93,17.6-1C654.74,956.69,649.88,955.64,642.87,955.31Zm15.72-13.6a3.53,3.53,0,0,1,.81,1,3.12,3.12,0,0,0-1.21,0c-.45.56-1,1.27-1.48,2l-3.29.52.67-1.54c5.71-.29,1.79-6.11,7.37-3.79A16.64,16.64,0,0,0,658.6,941.71Zm6.83,7.32c.7-2.07,1.57-4.08,2.44-6.09a8.75,8.75,0,0,1-1.05-.87,11.34,11.34,0,0,1,.65-2.43,18.83,18.83,0,0,1,3.18.68C669.44,943.11,668.65,947.26,665.43,949Zm3.25-10.76c0-.89,0-.89,1.34-1.68l1.25.41C670.11,937.33,669.71,938.26,668.68,938.28Zm2.06-2.86c.34-3.59.34-3.59.87-3.42A4.47,4.47,0,0,1,670.74,935.42Z"/><path class="cls-2" d="M618.73,1129.37a1.91,1.91,0,0,1,1-.77,2.73,2.73,0,0,0-1.15-.38,2.84,2.84,0,0,1,.19-1.34,2.72,2.72,0,0,1,1.15.38c-.77-4.4-.77-4.4-3.25-11.29-2.68-2.49-2.68-2.49-3.25-4.4a2.73,2.73,0,0,0-1.15.38c-1.43-2.69-5.93-5.83-5.93-7.85-3.83.57-6.7-1.72-10.72-1.72a2.77,2.77,0,0,1,.38-1.34c-4.4.58-11.1,0-14,4a11.8,11.8,0,0,0-2.49-.19,9.32,9.32,0,0,0-.57,1.34c-2.87-1.34-9.57,8-10.72,10.52.38,1,.38,1-.19,5a2.42,2.42,0,0,0-1.15-.19c-1.72,4.21-.57,7.84-.19,12.25a9.27,9.27,0,0,0-1.34.57l1.15.57c1.08,6,3.35,15,9,17.8a7.19,7.19,0,0,0,.19,1.91,11.75,11.75,0,0,1,2.49.19c.19.57.19.57-.57,1.34,1.53,0,1.53,0,7.27,1.91l-.42.28a10.8,10.8,0,0,1,4.74.55l.08-.25c3.44-.38,4.4,1.15,7.27,1.15a2.72,2.72,0,0,1-.38-1.15c3.64-1,7.46-1.91,11.29-2.87a5.89,5.89,0,0,1-.38-1.53,48,48,0,0,1,5.17-.76c4.78-7.27,7.46-13.78,6.31-22.39a3.08,3.08,0,0,1,1.34-.77A5.1,5.1,0,0,0,618.73,1129.37Zm-27.55-4.21a3.43,3.43,0,0,0-1,1.34,18.89,18.89,0,0,1-1-2.1C590.41,1124.21,590.41,1124.21,591.17,1125.16Zm-3.06-16.26a4.75,4.75,0,0,1,.19,3.63h-1.15a26.19,26.19,0,0,1-.38-3.63Zm-4.4,18.56h1.72a5.74,5.74,0,0,1,.76-1.91c2.11,2.11,6.51,1.15,9.38,1.34.19.38.57.76,1,1.34a37,37,0,0,1,4.59.19c0,5.93-15.12,7.27-19.14,7.65a14.33,14.33,0,0,0-2.3-1.34C581.41,1130.33,581.41,1130.33,583.71,1127.46Zm13.2,12.44c0,2.3,0,2.3-1,3.25A16.17,16.17,0,0,1,596.91,1139.9Zm-18.37,4.78c1.15,0,1.15,0,2.11,1.34a3.23,3.23,0,0,1,2.68-.77,1.45,1.45,0,0,0,.19.77,27.2,27.2,0,0,0-3.44,1.53C578.54,1145.83,578.54,1145.83,578.54,1144.68Zm8.61,7.27c-1-2.11-2.87-2.49-5.17-4.21l3.44.57a10,10,0,0,1,1.91-2.1c-.19.58-.38,1.34-.58,2.1a4,4,0,0,1,1.15.77,16.36,16.36,0,0,1,1-3.25,18.67,18.67,0,0,0,1,2.11,37.8,37.8,0,0,0,9.18-1.15,13.05,13.05,0,0,1,.57-1.53h2.1C601.7,1149.08,590.22,1151.57,587.15,1152ZM603,1141.81l.57-2.3,1,1A5.17,5.17,0,0,0,603,1141.81Z"/><path class="cls-2" d="M440.73,243.37a1.91,1.91,0,0,1,1-.77,2.73,2.73,0,0,0-1.15-.38,2.84,2.84,0,0,1,.19-1.34,2.72,2.72,0,0,1,1.15.38c-.77-4.4-.77-4.4-3.25-11.29-2.68-2.49-2.68-2.49-3.25-4.4a2.73,2.73,0,0,0-1.15.38c-1.43-2.69-5.93-5.83-5.93-7.85-3.83.57-6.7-1.72-10.72-1.72a2.77,2.77,0,0,1,.38-1.34c-4.4.58-11.1,0-14,4a11.8,11.8,0,0,0-2.49-.19,9.32,9.32,0,0,0-.57,1.34c-2.87-1.34-9.57,8-10.72,10.52.38,1,.38,1-.19,5a2.42,2.42,0,0,0-1.15-.19c-1.72,4.21-.57,7.84-.19,12.25a9.27,9.27,0,0,0-1.34.57l1.15.57c1.08,6,3.35,15,9,17.8a7.19,7.19,0,0,0,.19,1.91,11.75,11.75,0,0,1,2.49.19c.19.57.19.57-.57,1.34,1.53,0,1.53,0,7.27,1.91l-.42.28a10.8,10.8,0,0,1,4.74.55l.08-.25c3.44-.38,4.4,1.15,7.27,1.15a2.72,2.72,0,0,1-.38-1.15c3.64-1,7.46-1.91,11.29-2.87a5.89,5.89,0,0,1-.38-1.53,48,48,0,0,1,5.17-.76c4.78-7.27,7.46-13.78,6.31-22.39a3.08,3.08,0,0,1,1.34-.77A5.1,5.1,0,0,0,440.73,243.37Zm-27.55-4.21a3.43,3.43,0,0,0-1,1.34,18.89,18.89,0,0,1-1-2.1C412.41,238.21,412.41,238.21,413.17,239.16Zm-3.06-16.26a4.75,4.75,0,0,1,.19,3.63h-1.15a26.19,26.19,0,0,1-.38-3.63Zm-4.4,18.56h1.72a5.74,5.74,0,0,1,.76-1.91c2.11,2.11,6.51,1.15,9.38,1.34.19.38.57.76,1,1.34a37,37,0,0,1,4.59.19c0,5.93-15.12,7.27-19.14,7.65a14.33,14.33,0,0,0-2.3-1.34C403.41,244.33,403.41,244.33,405.71,241.46Zm13.2,12.44c0,2.3,0,2.3-1,3.25A16.17,16.17,0,0,1,418.91,253.9Zm-18.37,4.78c1.15,0,1.15,0,2.11,1.34a3.23,3.23,0,0,1,2.68-.77,1.45,1.45,0,0,0,.19.77,27.2,27.2,0,0,0-3.44,1.53C400.54,259.83,400.54,259.83,400.54,258.68Zm8.61,7.27c-1-2.11-2.87-2.49-5.17-4.21l3.44.57a10,10,0,0,1,1.91-2.1c-.19.58-.38,1.34-.58,2.1a4,4,0,0,1,1.15.77,16.36,16.36,0,0,1,1-3.25,18.67,18.67,0,0,0,1,2.11,37.8,37.8,0,0,0,9.18-1.15,13.05,13.05,0,0,1,.57-1.53h2.1C423.7,263.08,412.22,265.57,409.15,266ZM425,255.81l.57-2.3,1,1A5.17,5.17,0,0,0,425,255.81Z"/><path class="cls-2" d="M110.35,1097.55c-.77-1.34-.77-1.34-.57-3.83-1.91-5-2.68-5.17-3.64-8.61-2.87-.19-2.87-.19-3.64-1a4,4,0,0,1,.77-1.15c-1.53-1-5.36-4.78-5.93-6.51-1.15-.19-2.1.57-3.06.19a4,4,0,0,1,1.15-.76,8,8,0,0,1-5.55-.77l.21-1c-13.11-3.86-.66,3.59-14.1-2.15-6.49,0-20.93,5-20.93,12.18a25.49,25.49,0,0,0-3.44,1.34c-.19.57-.38,1.34-.58,2.1a4,4,0,0,1-.76-1.15c-.19,1-.38,1.91-.57,3.06A12.45,12.45,0,0,0,48,1088c-.77,1.72-2.49,8.23-3.44,8.61a4.88,4.88,0,0,1,1.34.38c0,1,0,1-2.1,3.06.77,1.34,1.34,3.83-.38,4.59.57,7.84,2.49,17.6,7.27,24.3a4.16,4.16,0,0,1,1-1.53c.57,1.53,1.15,3.25,1.91,5a8.42,8.42,0,0,1,1.92.38c.57,1.53,1.15,3.06,1.72,4.78.77-.57,1.72-1.15,2.68-1.72,0,3.53,3.94,7.43,6.89,8.61a17.47,17.47,0,0,1-1-1.53,6.77,6.77,0,0,1,1.72-.77c1.25,3.74,4.79,1.53,7.46,4.21,1.34-1.34,3.06-1.15,5.17-1.15-.38-1.72-.38-1.72.19-2.3a3,3,0,0,1,.77,2.49,29.8,29.8,0,0,1,4.4-1,1.43,1.43,0,0,1,.19-1H87c.19-.77.38-1.53.57-2.11,3.06,1.34,8-2.07,8.53-.92,3.13.64,11.12-8.74,10.8-10a20.79,20.79,0,0,1,.19-3.44C112.07,1123.76,115.71,1100.23,110.35,1097.55Zm-59.7,11.29c-1-2.87-2.49-8,1.34-9v3.44a4.48,4.48,0,0,1,1.34-1.34C53.33,1104,51.88,1107,50.65,1108.84Zm28.13-18.37c-1.34.38-2.68.77-3.83,1.15a16.41,16.41,0,0,1,1.91-3.06C77.63,1090.09,77.63,1090.09,78.78,1090.47Zm-8.23,31v-1.15c1.72,0,4.59.19,3.83,2.87a2.83,2.83,0,0,0-1.34.19,1.46,1.46,0,0,1,.38-1C72.46,1121.47,71.89,1121.09,70.55,1121.47Zm2.87-5.36a3.61,3.61,0,0,0-.38,1.53H71.7a15.93,15.93,0,0,1,1.53-2.3c1.15,0,1.15,0,1.72,1.15A5.93,5.93,0,0,0,73.42,1116.11Zm2.1,6.12h1.34v4a5.66,5.66,0,0,0-1.91.38C75.72,1125.87,75.72,1125.87,75.53,1122.23ZM69.79,1087a13.05,13.05,0,0,0,.38,2.49l.57-1.72c.77.77.77.77,1.34.19-.57-1.15-1-2.11-1.34-3.06h1.15c.19.57.38,1.15.57,1.91.57.19,1.34.38,2.1.58a8.3,8.3,0,0,1,1.15-1.34l.57,2.3c-.77.19-1.34.38-1.91.58v1.72c-1.64,0-2.25,0-3.25,1.53v-1.91c-2.11-.38-2.49-1.34-2.87-2.87A3.59,3.59,0,0,1,69.79,1087Zm-2.68,22.58c1.15.19,2.3.38,3.64.57a8.53,8.53,0,0,1-.19-2.1H73v.76H71.32v1c1.34.19,2.68.57,4.21,1a15.1,15.1,0,0,1-5.74,3.06C66.92,1110.56,66.92,1110.56,67.11,1109.6Zm.77,21.43c-1.52-1.52-.78-2.92.77-4.21,1,.38,1,.38,1.34,2.49C68.83,1129.5,68.83,1130.46,67.87,1131Zm1.34,3.25a16.83,16.83,0,0,0-1.15-1.91,1,1,0,0,1,.77-.38A9.59,9.59,0,0,0,69.21,1134.29Zm-4.78-45.73a10.8,10.8,0,0,1,2.3.76,12.16,12.16,0,0,0-2.68,1.53A9.57,9.57,0,0,1,64.43,1088.56Zm-2.29.57c.19.76.19.76-1.15,1.34,1.91.38,1.91.38,1.91,1.15H60.22C60.22,1090.08,60.76,1089.59,62.13,1089.13Zm0,5.17c-2.11.57-2.68,2.49-5,3.06C57.16,1092.77,58.69,1093.15,62.13,1094.3ZM59.45,1128c-1.34.19-2.49.38-3.64.57,0-.57,0-.57,2.49-.57v-1.91a2.72,2.72,0,0,1,1.15.38Zm-2.68-17.22a21.2,21.2,0,0,0-1.34-7.08c2.49-1.91,3.44-2.49,6.31-2.87-.19,1.15-.38,2.49-.58,3.83H62.9a2.73,2.73,0,0,0-1.15.38,3.81,3.81,0,0,0,1.34,3.06,6,6,0,0,0-1.91,1v1.91c.58.38,1.15,1,1.91,1.53a36.94,36.94,0,0,0-.19,4.59C61.56,1115.34,58.88,1111.71,56.77,1110.75Zm6.7,16.46c-1.15-.77-2.1-1.34-3.06-1.91,1.34-2.11,1.53-3.83,1.72-6.31a3.24,3.24,0,0,1,1,.38,5.92,5.92,0,0,0-.19,1.91l1.15.57a2.71,2.71,0,0,0-1.15.38v3.06a21.41,21.41,0,0,1,2.49,1A6,6,0,0,0,63.47,1127.21Zm.57-1.91,1.15-1.72a14.73,14.73,0,0,1,2.11.77A16.18,16.18,0,0,0,64,1125.3Zm7.27,14.93a6.86,6.86,0,0,0-2.1.38c-.57-1-2.49-1.15-2.49-1.91l5-.57A6.89,6.89,0,0,0,71.32,1140.22Zm13.59-6.89a5.65,5.65,0,0,1,.38-1.91,3.74,3.74,0,0,0-1.34-.19c-.57,1.53-.57,1.53-1.72,1.91l-.57-.58a6.82,6.82,0,0,0-.77,1.72,13.24,13.24,0,0,0-.57-1.53c-2.14,1.07-5.82-.23-6.7,1.53a5.67,5.67,0,0,1-3.06-3.25,5.67,5.67,0,0,1,1.91-.38,3.21,3.21,0,0,0,.38,1,5.65,5.65,0,0,1,.38-1.91c-.77-.19-1.34-.38-1.91-.57a5.29,5.29,0,0,1,.19-1.72,4,4,0,0,1,1.15.76,3.1,3.1,0,0,1,.77-1.34c1.53,1.72,5.17,1.34,5,1.34v-1.53c1.91.77,3.83,1.72,5.74,2.68a13.17,13.17,0,0,1-.38-2.49,20.53,20.53,0,0,0,2.1,1.15,3.74,3.74,0,0,0,.19,1.34h1.34a5.59,5.59,0,0,1,.38-1.72,2.08,2.08,0,0,1,1,.19C88.15,1131.23,87,1131.23,84.9,1133.33Zm1-11.1c.19-1.15.38-2.3.57-3.25a5.31,5.31,0,0,1,1.72-.19c.38-3.25,1.91-5.36,1.53-8.8h1.15c.19.76.38,1.53.57,2.49v-2.87c-1-.38-1.91-.77-2.68-1.15v-1.34a16,16,0,0,1,2.3,1.53l-.57-4.59c4.78,4.21,5.17,5,5.17,11.29A39.09,39.09,0,0,1,85.86,1122.23Zm11.48-16.46a2.64,2.64,0,0,1,.77-.57c-.75-2.26-2.68-1-2.68-2.87a5.33,5.33,0,0,1,1.72-.19,9.91,9.91,0,0,1-.38-2.11,3.83,3.83,0,0,0-1.53.77,17.5,17.5,0,0,1,.19-3.25c-2.46-1.23-.78,3.65-4.59,1.91,1.91-.57,1.34-1.91,2.68-3.06-3.06-1.53-5-4.59-8.42-2.3v-1.91a5.32,5.32,0,0,1,1.72-.19,3.76,3.76,0,0,1-.19-1.34,5.67,5.67,0,0,0-1.91.38c-.57-.57-1.15-1-1.53-1.34a5.11,5.11,0,0,0-1,1.15l-.57-1.15a5.73,5.73,0,0,0-.77,1.91c-.19-1.15-.38-2.11-.57-3.06a3.45,3.45,0,0,0-1,1.34c-1.15-1.15-1-2.1-1-4,1.23,1.23,8.69,2.68,10.52,2.68a4,4,0,0,0-1.15.76c4.78,1,4.78,1,5.17.57.77,1.53,1.91,1.53,3.64,1.72,0,2.3,4.4,5.55,5.36,8-.57,2.87-1,5.74-1.34,8.61a9.49,9.49,0,0,0-1.34.57,7.16,7.16,0,0,1,.19-2.1A18.58,18.58,0,0,0,97.34,1105.78Zm4.21,13.78h0c-.91,3.71-2.37,4,0,0h0a20.88,20.88,0,0,0-1.15-2.1h1.53a18.45,18.45,0,0,1-.38,2.1Zm5.93-6.31c-1,.19-1.72.38-2.49.57a5.44,5.44,0,0,1,.57,3.83h-1.34a14.51,14.51,0,0,1,.19-2.87c-1.15.57-1.15,1-.77,2.3-1.34-.57-2.68-1.15-3.83-1.72h1.53c2.52-5,7.83-10.81,4.21-16.84a5.94,5.94,0,0,1,1.53.38C108.82,1103.48,108.25,1108.27,107.48,1113.24Z"/><path class="cls-3" d="M303.3,1218c2.45-10.53,5-21,9-31.12a3.91,3.91,0,0,0-.55-4.33c-11.55-15.74-7.46-35,9.37-44.79.59-.34,1.14-.74,2.32-1.53a191.94,191.94,0,0,1-35.12-10.36c-20.09-8.31-37.52-20-49.46-38.74a78.74,78.74,0,0,1-12.54-40.19c-1.29-37.31,7.5-71.77,29.9-102.2a11.53,11.53,0,0,0,.77-1.46c-.48-.31-.87-.76-1.33-.84-17.4-2.89-23-17.41-12.18-31.39s31.4-17.62,46.55-8.45c.76.46,1.79.84,2.14,1.54,3.1,6.14,6.76,3.38,11,1.19,30.7-16,63.45-20.77,97.62-17.21A129.55,129.55,0,0,1,462,910.67c2.32,1.61,3.62,1.44,5.07-.86a7.69,7.69,0,0,1,2.69-2.55,39.91,39.91,0,0,1,34.38-2.35c11.09,4.18,15.86,13.55,16.77,25,.19,2.47.15,5,.11,7.45q-.23,14.67-14.64,14.76h-3.73c-.39,2.36,1.27,3.74,2.16,5.37,17.85,32.47,23.92,66.94,17.18,103.42-7.89,42.74-31.39,66.14-74,74.31-3.06.58-6.13,1.1-9.79,1.75,3.82,3.69,7,7,9.38,11,6.74,11.46,6.37,22.92,0,34.34-1,1.77-1.77,3.23-1.16,5.41,2.81,10.08,5.44,20.2,8.13,30.32h-4.26c-2.5-1.33-2.86-3.82-3.45-6.22-1.39-5.64-2.67-11.3-4.31-16.87-.55-1.87-.93-4-3.65-3.55-4.35.76-8.81-.3-13.12,1-14.74.65-28.08-2.56-38.71-13.69-5.73-6-5.62-5.61-11.77-.45a52.15,52.15,0,0,1-29.79,12.56c-8.34.7-16.57,1.55-24.78-.74-2.72-.76-3.73.94-4.54,3.2-2.16,6-4.3,12-5.41,18.33-.39,2.23-.52,4.62-2.19,6.45Z"/><path class="cls-4" d="M308.62,1218c.52-10.24,4.5-19.58,7.63-29.13.52-1.6,1.22-1.63,3-1.2,21.32,5.13,41.08,2.64,57.87-12.82,3-2.8,5-4.59,8.61.26,7.44,10.12,18.17,14.86,30.68,15.59l9,.52c1.9-.68,3.86-.26,5.8-.37,1.37-.08,2.61.36,2.93,1.74,1.86,8.08,4,16.12,3.92,24.51,0,.31-.34.6-.54.9Z"/><path class="cls-5" d="M437.55,1218c-1.44-8.13-2.64-16.31-4.43-24.36-1-4.37-5.22-1.16-7.68-2.41,5-1.67,10.48.84,15.38-2.34,1.6-1,1.83,1.53,2.17,2.74,2.48,8.78,4.9,17.58,7.33,26.38Z"/><path class="cls-6" d="M418.39,1132.87c-6.27,1.47-12.71.91-19,1.67-2,.24-3.06-1.06-4.53-2.12-7.28-5.21-8.85-11.8-6.47-20.21,1-3.45.21-7.4.23-11.13,0-4-.79-8.13,3.12-11.13a2.4,2.4,0,0,0,.36-3.76c-1.13-1.07-2.36-.68-3.21.44-3.84,5.07-8,3.46-12,.43-2.3-1.77-3.86-2.35-6.39-.2a8.7,8.7,0,0,1-10.85.72c-1.3-.81-2.65-1.71-3.66-.11a2.67,2.67,0,0,0,1.56,3.94c4.22,1.46,4.48,4.69,4.84,8.39.74,7.58,1.91,15.12,2.91,22.66.09.68.57,1.78.33,2a62.89,62.89,0,0,0-10.33,9.75c-1.42,1.7-4.06.42-6.11.16-9.76-1.19-19.54-2.32-28.92-5.5-.28-1.12-2.24-.74-2.05-2s1.45-1.42,2.53-1.45a42.62,42.62,0,0,0,5.28,0c5.08-.78,10-2.16,11.62-7.68s.17-10.47-4.71-14c-3.31-2.43-4.39-5-.64-8,8.62-5.58,16-12.22,20.46-21.8,16.63-35.77-13.29-66.14-40-66.76-22.82-.53-42.7,15.46-47.46,35.14-4.5,18.62,2,37.74,17.43,49.13,1.85,1.37,3.93,2.45,5.32,4.38.9,1.49,1.19,3.24-.37,4.19-3.52,2.16-6.16,5.61-10.25,6.89-5.52-1.45-8.1-6.24-10.83-10.39a68.07,68.07,0,0,1-11.66-37.48c-.27-24.32,4.49-47.34,17-68.24,18.24-30.55,45.7-48.15,80.34-55,4.06-.18,4.93,2.36,4.28,5.56-2.18,10.62-3.52,18.52-17,19.35-3.05.19-3.3,1.95-2.22,4.46,2.89,6.72,10.35,10.86,18.49,9.37,4.64-.85,8.32-.63,12.35,2.39,4.83,3.62,10.43,3.07,15.4-.41,2.43-1.7,4.88-3,7.85-2.67,7.07.67,12.2-2.28,14.92-8.65,2.79-6.53.62-12.48-3.46-17.88-2.65-3.5-6.91-5.65-8.4-10.12a2.19,2.19,0,0,1,.59-1.51A97.56,97.56,0,0,1,449.24,957c11.26,15.61,22.8,31.05,28,50.07,1.09,4,.91,8.07,2,12,.51,1.82-.43,3.06-2.35,3.43-2.34-.17-3.68-2-5.3-3.29-21.56-17.56-49.86-15.47-68.84,4.75-14.87,15.84-14.26,49.35,1.09,62.17,5.72,4.78,10.84,10.16,18,12.88a6.23,6.23,0,0,1,3.29,2.57c.76,1.91-.34,3.36-1.17,4.91-3.74,7-2.68,12.24,3.52,17,1.88,1.45,3.87,2.74,2.23,5.55C426.65,1132.47,421.77,1130.41,418.39,1132.87Z"/><path class="cls-6" d="M275.53,1114.67c-32.83-18.31-47.43-46.21-44.82-83.69,2-28.94,9.48-56,26.41-79.78,24.12-33.95,57.89-52,98.47-58,27.31-4.06,54.15-2.22,80.05,8.17,16.73,6.7,31.09,16.91,43.76,29.6a34.11,34.11,0,0,1,2.86,3.76c3.53,10.66,9.93,20,14.14,30.33,7.42,18.22,15.9,36.17,16.87,56.27.85,17.56,1.42,35.28-4.57,52.13a105.74,105.74,0,0,1-19,33c-2.07,2.44-3.58,5.32-6,7.47-2.58,2.32-3.91,2.1-5.89-.71,14.3-17.18,19.66-37.49,19.92-59.26.46-38-12.68-70.4-41.48-95.89-1-.93-1.94-2-2.91-3,3.37-5,4.82-11.24,9.85-15.15,6.18-7,5.71-13.74-1.85-18.93a78.33,78.33,0,0,0-39.76-13.79c-5-.33-9.85.29-12.37,5.35s.24,9.19,3.52,12.94c.35.4.68.82,1,1.26.81,5,0,6.3-4.18,6.92-4.06.11-7.88-2-12-1.32-4-1.21-7.82,0-11.7.5-3.54.13-7.08-1-10.62,0a147.82,147.82,0,0,0-20,1.12c-3.37,0-6.67.1-8.85-3.38-1.08-1.73-1.42-3.14-.3-4.83,2-2.48,4.54-4.5,5.84-7.53,2.78-6.45-.17-11.76-7.09-12-17.06-.47-32.39,5.39-46.93,13.62-3.87,2.19-4.29,5.58-2.12,9.67,1.07,2,2.9,3.67,2.71,6.22a3.81,3.81,0,0,1-2,2.26c-2.66,1.71-2.64,4.38-2.18,7s2.84,3.27,5,3.94,5.08-.49,6.34,2.52c-1.82,3.4-5,5.45-7.87,7.77-19.31,15.8-32,35.84-38.7,59.76-4.94,17.58-7.07,35.39-3.62,53.51a61.37,61.37,0,0,0,16.73,32.1c2.72,2.77,5.54,5.5,6.84,9.33C278.26,1115.76,276.92,1115.33,275.53,1114.67Z"/><path class="cls-3" d="M394.94,935.55l-.13,1.52c-2.09,1.83-1.08,3.35.44,4.89,2.24,2.27,4.63,4.4,6.66,6.87,3.91,4.74,5.18,10,2.82,15.87s-6.41,8.18-13.2,7.21a9.66,9.66,0,0,0-9,2.88c-4.13,4-11.11,3.92-14.77-.5-2.87-3.46-5.3-3.35-9.11-2-6.48,2.25-12.68,1.18-17.53-4.11-2.83-3.09-2.46-5.45,1.22-6.25,11.33-2.45,14.51-10.72,15.6-20.72.17-1.59-.16-3.19.13-4.78a2.37,2.37,0,0,1,1-1.35c2.42-1.17,5.2-.52,7.65-1.59a13.53,13.53,0,0,1,1.85-.33c7.75.45,15.64-1.42,23.23,1.51Z"/><path class="cls-7" d="M477.86,1113.24c3.1,3.39,4.84.13,6.28-1.65,8.83-10.92,16.7-22.51,22.12-35.51a59,59,0,0,0,4.56-16.22c2.15-20.61,3.07-41.38-3.14-61.45A224.52,224.52,0,0,0,494.14,964c-4.29-8.54-8.41-17.17-12.6-25.76-.64-1.32.17-2.39.72-3.49,10.3,9.52,17.41,21.36,23.24,33.84,16.17,34.58,19.62,70.36,8.25,107.08-5.58,18-15.83,32.77-32.27,42.66-3.11,1.87-6.49,3.28-9.75,4.89-1.52.41-3.33,1.53-3.47-1.42Z"/><path class="cls-8" d="M476.69,1022.09c.93-.5,2-.91,1.76-2.29a101.59,101.59,0,0,0-19-45.76,133.4,133.4,0,0,1-10.19-17c18.33,13.41,30.44,31.45,37.81,52.58,9.56,27.42,10.44,55.07-.44,82.48-3.09,7.78-7.3,14.93-13.9,20.38-2.87-.46-1.79-4.39-4.43-5.07a2.69,2.69,0,0,1-.3-1.4,64.11,64.11,0,0,1,5.42-11.4,6.6,6.6,0,0,0,1.15-5.44c2.33-4.79,6.51-8.36,8.6-13.34,6.6-15.73,6.15-31-2.76-45.74C478.87,1027.56,476.36,1025.47,476.69,1022.09Z"/><path class="cls-9" d="M309.68,1125.16,295.74,1120c-4.07-1.22-7.42-3.87-11.23-5.61a4.79,4.79,0,0,1-2.4-3.08c.33-7,.94-7.82,7.72-9.89,2.05-.63,3.6-2.25,5.74-2.63,8.68,1.06,17.37,1.9,26.12,1.23a10,10,0,0,1,1,8.08c-.33,1-.34,2.32.87,2.73,1.6.54,1.58-1,1.8-1.92.46-1.95.89-4,3.23-4.36,2.6-.4,4.29,1.29,5.72,3.18,3.79,5,2.79,10.83-2.64,14s-11.68,3.78-17.95,3.46C312.39,1125.17,311.06,1124.12,309.68,1125.16Z"/><path class="cls-10" d="M409.59,933.65c2.94-1.28,3.94-3.57,3.47-6.63a3,3,0,0,1,3-.28c9.1,3.53,18.91,5.07,27.68,9.45,6.49,3.24,13.37,4,20.36,4.69-2.52,1.82-4.58,3.7-4.77,7.31s-4.51,4.09-6,6.89A127.39,127.39,0,0,0,409.59,933.65Z"/><path class="cls-11" d="M309.68,1125.16c-.49-3.94,2-1.56,3.23-1.44,7,.75,13.62-.09,19.7-4,3-1.91,3.1-4.73,2.51-7.5s-2-5.41-5-6.42c-3.39-1.18-3.23,1.41-3.41,3.57-.12,1.49.59,3.39-1.55,4a3.45,3.45,0,0,1-3.38-1.07c-1.6-1.44-1.91-3.29-.51-4.69,2.17-2.17-1.07-5,1.15-6.91,3-2.87,6.17-5.23,10.69-4.13-2.58,2-2.75,3.72.13,5.84,6.1,4.5,8.06,10.66,5.63,16.58-2.09,5.09-10.11,8.9-16.51,7.82-1.62-.27-4.35-1.81-2.14,2A40.75,40.75,0,0,1,309.68,1125.16Z"/><path class="cls-12" d="M381.12,1094.44c2.32-.55,3.22.41,3.17,2.74-.15,7.59.2,15.17-1.14,22.73-.68,3.82-2.81,4.48-6,4.17s-7.06,1.45-7.8-3.82c-.81-5.75-2.4-11.41-2.07-17.31,4.16,2.87,8.86,0,13.22,1.21,1.23.34,1.15-1.41,1.34-2.43C382.32,1099.22,380.78,1096.92,381.12,1094.44Z"/><path class="cls-13" d="M381.12,1094.44c3.68,3.05,1.74,7.16,1.92,10.83.09,1.91-1.31,1.63-2.54.82a7.2,7.2,0,0,0-7.53-.47c-3.73,2.19-4.65.06-5.67-2.65-1.89-8.33-1.36-9.7,4.88-11.78C375.95,1089.94,378,1093.81,381.12,1094.44Z"/><path class="cls-14" d="M468.47,1107.17c4.28-.53,3.25,3.19,4.25,5.3-5.63,6.06-12.12,10.77-20.24,12.92-1.13-1.8-3.25.72-4.39-1-.12-4.32,4.87-3.92,6.29-6.82,1.42-1.18,2.12-3,3.48-4.21.81-.69,1.24,1.69,2.67,0C462.61,1110.78,464.93,1108.06,468.47,1107.17Z"/><path class="cls-15" d="M448.22,1124.2c1.14-.21,2.27-.46,3.42-.61,2.14-.29.84,1.07.83,1.8-10.72,5.4-22.28,7-34.08,7.48,2.45-4.13,7.53-1.88,10.65-4.39,3.86-3.34,9.07-2.7,13.44-4.56C444.41,1123.59,446.38,1122.66,448.22,1124.2Z"/><path class="cls-16" d="M366.47,934.72a22.43,22.43,0,0,1-7.77.9c-1.52-.62-3.21-.88-4.48-2.06-.2-.56,0-.87.58-.94,7-.47,13.88-2.19,20.95-1.4,3.2,1.34,6.39,2.15,9.6,0,4.12-.11,8.26-.48,12.24,1.07a48.71,48.71,0,0,0-5.71.16c-2.9.4.05,1.42-.13,2.14l-24.51.05c-.4-.32-.61-1-1.33-.69A2,2,0,0,1,366.47,934.72Z"/><path class="cls-17" d="M285.16,1113.58a32.74,32.74,0,0,1,10.58,6.42,1.85,1.85,0,0,0-2,2.05c-2.68-.31-5.28-.75-6.74-3.44C287.82,1116.43,284,1115.92,285.16,1113.58Z"/><path class="cls-18" d="M287.08,1118a20.53,20.53,0,0,0,6.65,4.07l-.12.11c.31,1,.12,1.43-1,1-4.34-2.06-9.05-3.37-13-6.26a3.6,3.6,0,0,0,1.57-2.7C284.34,1113.65,285.48,1116.16,287.08,1118Z"/><path class="cls-19" d="M468.26,1121.79c.74,1.49,2.22,1.18,3.47,1.42-2.15,1.87-5,2.18-7.48,3.22-1.13.49-2.25.93-2.13-1.07Z"/><path class="cls-20" d="M292.62,1123.21l1-1,7.77,3.36C298.19,1125.48,295.2,1125,292.62,1123.21Z"/><path class="cls-21" d="M280.94,1114.6c.92,1.54.39,2.28-1.31,2.36l-4.09-2.28c1.08-.32,2.43.23,3.22-1C279.91,1113,280.84,1112.81,280.94,1114.6Z"/><path class="cls-22" d="M462.12,1125.36c.38,1,1.36.84,2.13,1.07-2,1.58-4.38,1.73-7.26,2.32C458.51,1126.43,460.34,1125.94,462.12,1125.36Z"/><path class="cls-3" d="M476.69,1022.09c7.87,9.84,12.39,20.81,12.41,33.65,0,12.16-4.42,22.37-12,31.53-.78.94-1.54,1.9-2.31,2.86-1,3.65-4.15,5.18-7,6.89a69.49,69.49,0,0,1-12.88,6.28,48.34,48.34,0,0,1-25.54,1.08,7.19,7.19,0,0,1-4.65-2.47,63.07,63.07,0,0,1-21.58-14.19c-13.76-14.22-15.79-31-10.14-48.85s18.6-28.23,36.66-31.86C448,1003.33,463.6,1009,476.69,1022.09Z"/><path class="cls-3" d="M333.13,1096.6l-10.69,4.13a61.2,61.2,0,0,1-27.61-1.17,9,9,0,0,1-7.43-3.27c-14.31-8.54-23-20.94-24.84-37.59a48.27,48.27,0,0,1,35.12-51.38c23-6.34,46.95,4.95,57.08,26.9,9.48,20.54,2,46.33-17.26,59.42Z"/><path class="cls-3" d="M280.94,1114.6a2.07,2.07,0,0,0-2.18-.93c-22.09-19.57-29-44.26-25.36-72.94,4.33-34.26,18.33-63,46-84.42,2-1.58,4-3.22,6-4.84,3.22-3.61,7.47-5.68,11.66-7.85,10.65-4.71,21.12-10,33.07-10.58,1.38-.07,2.82-.38,4.14.39,1.65.38,4-.73,4.43,2.2h0c-1.84,2.08-4.44-.49-6.37,1-13.09,3.3-26,7.16-37.75,14-29.61,17.16-47.78,42.57-55,76-3.19,14.86-5,29.76-2,44.81,2.69,13.77,8.83,25.72,19.88,34.78,3.1.47,4,3.18,5.53,5.31l2.17,2c.08,1.71,3.43,2,1.91,4.4C284.49,1117.83,283.53,1114.74,280.94,1114.6Z"/><path class="cls-16" d="M352.32,936.66c1.88-1.87,4.24-.72,6.37-1,3.58,13.13-4.21,25.1-18.26,28,2.67,7.57,11.62,10.82,19.65,6.55,3.66-1.94,5.25-1.77,7.39,2,3.22,5.69,12,5.69,15.68.11,1.76-2.63,3.34-3.16,6.1-2.18,4.7,1.67,9,1.47,12.45-2.87,3.62-4.59,3.73-9.48,1.23-14.45-2.36-4.69-6.27-8.08-10.29-11.32-1.11-.9-2.39-1.87-1.88-3.5.75-2.35,2.59-1,4-.94,3,3,6.28,5.77,9,9,4.9,6,7,12.7,3.59,20.25-3,6.59-8.09,9.64-15.35,8.8-3-.34-5.06-.14-7.45,2.2-4.74,4.65-14,4.77-18.47,0-2.8-3-5.07-2.51-8.21-1.75-9.79,2.36-18.26-1.7-22.55-10.56-2.14-4.42-1.4-5.77,3.31-6,10.84-.57,18.27-9.76,16.86-20.65C355.18,935.86,353.34,937.26,352.32,936.66Z"/><path class="cls-23" d="M424.77,1101.91l4.33,1.19c1.9.81,4.16,1,5.17,3.28,1.64,3.73.39,6.85-3.51,8.42-1.1.44-2.7.33-2.61,2.06.07,1.35,1.17,2.13,2.27,2.76,2.24,1.28,4.88.88,7.21,1.67,2.14.72,5.28.34,5.24,4l-13.83,3.2a2.07,2.07,0,0,0-.76-3.08c-9.32-6.74-10.19-11.53-4.13-21.51A8.51,8.51,0,0,0,424.77,1101.91Z"/><path class="cls-24" d="M283,1111.56l-5.53-5.31c2.86-2.26,5.17-5.26,8.78-6.53,1.83-.64,1.66-2,1.16-3.44l7.43,3.27c-1.18,1.28-2.21,3.25-4,3.19C284.49,1102.54,283.15,1106.45,283,1111.56Z"/><path class="cls-25" d="M464.13,940.87c-6.28,2.09-12.19.63-17.86-2.09-10.67-5.1-22.3-7.4-33.22-11.76a22.44,22.44,0,0,1-3-2.93c-2.55-3.55-4.44-7.44-2.48-11.83s5.8-6.48,10.63-6.53c16.53-.19,31.23,5.65,44.78,14.43C470.87,925.29,471,934.34,464.13,940.87Z"/><path class="cls-25" d="M298,935.5c-1.1-1.58-2.28-3.12-3.3-4.75-2.81-4.5-2.18-9.36,2.35-12,14.39-8.37,29.7-14,46.62-14.15,4.28,0,8.34.8,10.06,5.32,1.8,4.73.53,9.06-2.87,12.71-1.19,1.28-2.61,2.35-3.92,3.52-4.38,3.6-10,4.56-15,6.45-8,3-16.59,3.65-24.91,5.38a10.72,10.72,0,0,1-7.73-1.24A6.71,6.71,0,0,1,298,935.5Z"/><path class="cls-26" d="M299,935.77c12.05,1.91,23.16-2.38,34.45-5.34,4.56-1.19,9-2.85,13.5-4.29-.74,4.52,1.06,6,7.82,6.49a5,5,0,0,1-.53.8c-13.25,1.1-25.19,6.4-37.16,11.6-4-.89-7.48,1.18-11.09,2.31-1.69.53-3.28,1.28-5.1,1.21-2.71-.1-4.82-1.25-5.79-3.84a5.65,5.65,0,0,1,1.28-6.36A14.36,14.36,0,0,0,299,935.77Z"/><path class="cls-27" d="M387.72,924.93c-4.81-2.61-10.57-.55-16.23-.82a11.31,11.31,0,0,1-4-1.14,2.51,2.51,0,0,1-1.41-3.51c.67-1.43,2-1.06,3.21-.59a11.27,11.27,0,0,0,9.69-.5,3.4,3.4,0,0,1,4.3.45c2.37,2,5.24,1.84,8,1.12,1.67-.43,3.71-1.72,4.37.79s-1.59,3.23-3.53,3.7A40,40,0,0,1,387.72,924.93Z"/><path class="cls-28" d="M299,935.77a7.32,7.32,0,0,1-1,2.37c-2.26,2.3-3.34,4.89-1,7.5s5.17,2,8.19.54a51.47,51.47,0,0,1,9-2.92c1.39-.38,2.3.62,3,1.76-4.17,1.66-7.29,5.25-11.72,6.44-1.11-1.23-2.61-.74-4-.93-3.62-.49-7.84-.41-8.66-5.18-.76-4.44.4-8.26,5.3-9.86A3.22,3.22,0,0,1,299,935.77Z"/><path class="cls-3" d="M385.35,931.26c-2.8,3.21-6.86,3.19-9.6,0A25.13,25.13,0,0,1,385.35,931.26Z"/><path class="cls-3" d="M366.47,934.72l-4.4-.68c3.22-1.67,3.22-1.67,5.17.64l-.37.22Z"/><path class="cls-29" d="M442.87,1125.28c-2.31-3.09-5.84-2.92-9.06-3.1-3.56-.2-6.09-1.65-7.55-4.78-.69-1.49-.85-3.22,1.43-3.72s5.51,1.06,6-2.65a7.13,7.13,0,0,0-4.58-7.93,62.75,62.75,0,0,0,26.58-1.15c4.45.83,9.3.43,12.82,4.16l0,1.07c-1.85,3-5.18,4.41-7.42,6.95-1.6,1.82-2.23,0-3.25-.54-4.84-1.52-2.22,2.65-3.14,4.12.88,1.87-.54,2-1.71,2.75-1.67,1.07-3.8,1.71-4.73,3.76Z"/><path class="cls-30" d="M468.49,1106.1c-4.14-1.78-9.05-1.2-12.82-4.16,6.91-3.08,13.52-6.64,19.13-11.82,2.6.28,1.39,2.15.93,3C473.44,1097.53,470.93,1101.8,468.49,1106.1Z"/><path class="cls-31" d="M311.82,1112c.14,1.53-.36,2.69-1.86,2.76-2.26.09-3-1.61-3.22-3.47-.22-1.58.28-3,2.1-3C311.12,1108.39,311.32,1110.47,311.82,1112Z"/><path class="cls-32" d="M300.15,1108.39c2.18.54,2.25,2.3,2.23,4.06,0,1.36-.58,2.5-2.14,2.25-2.27-.36-2.32-2.22-2.3-4C298,1109.29,298.56,1108.39,300.15,1108.39Z"/><path class="cls-33" d="M454.66,1117.7a7.32,7.32,0,0,1-1-1.81c-.36-1.68-2.53-3.67-.13-5s2.92,1.6,4.22,2.71C457.76,1115.72,457.76,1117.9,454.66,1117.7Z"/><path class="cls-4" d="M440.48,1014.11c4.3.2,7.7.06,11,.57,11.18,1.7,17.13,10.62,14.57,21.56-.94,4-3.25,6.62-7.5,7.19a111.19,111.19,0,0,0-12,1.94c-6.9,1.7-12.33,4.26-14.56,12-1.75,6.1-9,9.1-16.22,8a12.8,12.8,0,0,1-11.27-12.22c-.71-9,.07-17.7,5.85-25.26C418.22,1017.66,429.05,1014.26,440.48,1014.11Z"/><path class="cls-34" d="M449.89,1097.1c-3.66-.13-7.08-.85-9.43-4-2.73-3.67-3.56-8.06-.21-11.15,4.1-3.79,9.46-6.3,15.32-5.74,4.2.4,7.88,2.37,8.84,7.14.83,4.14-2.22,10-6.3,12A17.31,17.31,0,0,1,449.89,1097.1Z"/><path class="cls-34" d="M419.19,1071.69c2.07.31,4.35.63,6.63,1,7.12,1.14,10.08,4.5,9.15,10.39a11.06,11.06,0,0,1-12.83,9.11c-5.28-.87-10.53-6.1-11.42-11.37S413.47,1071.47,419.19,1071.69Z"/><path class="cls-4" d="M288.75,1057.21c-8.63.09-15.32-3.55-17.43-8.82-2.27-5.67,0-15,5.33-19.34,9.23-7.52,19.21-13.92,30.66-17.56,10.3-3.28,21.29,3.55,23.34,14.2,1.09,5.67-1,9.72-6.33,11.88-2.62,1.06-5.28,2.32-8,2.69-6.22.84-10.76,3.95-14.49,8.82C298.23,1053.72,293.7,1057,288.75,1057.21Z"/><path class="cls-35" d="M321.29,1070.3a12,12,0,0,1,5.75.5c3.93,1.52,7.72,3.44,7.88,8.25.16,4.62-2.46,8-6.41,10.22-9.92,5.47-17.71,3.37-22.74-5.95-2.56-4.75-.63-9.88,4.56-11.38A34.28,34.28,0,0,1,321.29,1070.3Z"/><path class="cls-34" d="M289.19,1063.57c7.33-.33,13.73,5.33,13.91,12.32.15,5.55-5.31,11.05-11.17,11.25-7.12.24-14.76-5.88-15.08-12.07C276.47,1067.42,280.16,1064,289.19,1063.57Z"/><path class="cls-36" d="M445,1118c-2.27-.06-2.51-1.79-2.86-3.26s.19-2.84,2-3,2.14,1.44,2.33,2.84S446.52,1117.37,445,1118Z"/><path class="cls-37" d="M379,890s5.08,9.17,5,19c-.08,10.45-2.34,21.63-3.47,22.78,0,0,35.37,1.27,67.47,21.22,37,23,50.15,78.5,49,101s-6,58-51,79c0,0,53-8,67-46,27-73.29-8-148-39-164C474,923,421.75,881.21,379,890Z"/><path class="cls-38" d="M355,1137s-62.33-5.59-80.66-30.3-26.67-31-15-89.37,79.88-85,112.27-83.68,81.57.93,112.48,63.64S491,1144,404,1137Z"/></g></g></svg>