<svg xmlns="http://www.w3.org/2000/svg" width="232.85" height="101.5" viewBox="0 0 232.85 101.5"><defs><style>.cls-1{fill:#ffc900;}.cls-2{fill:#fff;stroke:#323232;stroke-miterlimit:10;stroke-width:5px;}.cls-3{fill:#323232;}.cls-4{fill:#ffee73;}</style></defs><title>btn1</title><g id="图层_2" data-name="图层 2"><g id="图层_1-2" data-name="图层 1"><path class="cls-1" d="M9.32,71.28s0,28.47,55.54,28.47,114,5.89,134.47-3.93c15.59-7.48,36.6-32.41,33.13-51C229.55,29.07,214,3.55,193.49,6.5S-1.39,25.15,9.32,71.28Z"/><rect class="cls-2" x="2.5" y="2.5" width="218" height="85" rx="42.5" ry="42.5"/><path class="cls-3" d="M82.38,65.27a1.25,1.25,0,0,1,.25-.81c.17-.2.33-.38.48-.53a2.9,2.9,0,0,0,.56-.62.75.75,0,0,0,.34-.67l2.13-21.06V36.43c0-.11-.09-.19-.28-.22H85.6l-.22,0-.2,0-1,0-1.85.06-1.85.06-1.09,0a1.82,1.82,0,0,0-.59.2.63.63,0,0,0-.31.48l-3.92,26A6.38,6.38,0,0,1,74,64.83a1.45,1.45,0,0,1-1.46.9,1.71,1.71,0,0,1-2-1.9v-.22l4-25.76V37.5c0-.37-.15-.56-.45-.56a16.57,16.57,0,0,0-2.35.17,8.74,8.74,0,0,1-2.24.28A3.45,3.45,0,0,1,67.93,37c-.41-.15-.62-.58-.62-1.29a1.6,1.6,0,0,1,.78-1.51,5.56,5.56,0,0,1,1.79-.56l.84-.22q.67-.05,1.34-.17l1.32-.22a6.35,6.35,0,0,1,.87-.11l.56-.5V25.35a1.13,1.13,0,0,1,.62-1.06,2.76,2.76,0,0,1,1.26-.39,2.59,2.59,0,0,1,1.2.36,1.17,1.17,0,0,1,.67,1.09v7.11l.62.28.73-.06,1.9-.14q1.06-.08,2.18-.14l1.85-.11a6.13,6.13,0,0,1,.84-.14c.45-.06.73-.08.84-.08h.34a2.22,2.22,0,0,1,1.6.56,2.06,2.06,0,0,1,.59,1.57v.62q-.06,1.29-.11,3.33t-.14,4q-.08,2-.14,3.36t-.11,1.57q0,.28-.2,2.35t-.53,4.76q-.22,2.69-.56,5.46t-.5,4.4a8.47,8.47,0,0,1-.7,2.6A2.09,2.09,0,0,1,85,67.79a2.59,2.59,0,0,1-1.88-.67A2.44,2.44,0,0,1,82.38,65.27ZM91.45,64q-.06-.78-.11-2.72t-.22-4.12q-.06-2.13-.11-4.12t-.06-2.72v-6a4.52,4.52,0,0,1,.56-1.23,2,2,0,0,1,1.06-.84l2-.11,1.62-.08,1.48,0h4.06a17.31,17.31,0,0,1,2.83.22,8.07,8.07,0,0,1,2.52.9A2,2,0,0,1,108.14,45a8.6,8.6,0,0,1-.17,1.68q-.17.84-.28,1.62l-.5,13.38-.45,3.81a3.66,3.66,0,0,1-.39.78,1,1,0,0,1-.78.56h-12a1.5,1.5,0,0,1-.9-.28,5.25,5.25,0,0,1-.53-.78q-.25-.45-.48-1A5.73,5.73,0,0,1,91.45,64ZM94.7,48.53q.06,1.62.06,4T95,57.21q.05,2.63.17,5.43l.28.28H103a.91.91,0,0,1,.06-.22c.11-.07.17-.15.17-.22s.08-.55.14-1.09.08-.88.08-1,0-.73.06-1.79.08-2.32.11-3.78.19-2.86.22-4.31.08-2.65.11-3.58v-.34a.36.36,0,0,0-.22-.34,2.28,2.28,0,0,0-1.37-.42,8.06,8.06,0,0,1-1.48-.08h-.17l-1.09,0-1.6.08-1.62.08-1,0a1.12,1.12,0,0,0-.73.45v2.13Z"/><path class="cls-3" d="M117.94,40.91a1.53,1.53,0,0,1,.56-1.32,2.09,2.09,0,0,1,1.29-.42l.34,0,.39,0a4.17,4.17,0,0,0,.53.28l.84.42.87.45a4.76,4.76,0,0,0,.56.25q.45.17,1.26.42a11.86,11.86,0,0,1,1.62.64,5,5,0,0,1,1.37,1,1.9,1.9,0,0,1,.56,1.4,1.75,1.75,0,0,1-1,1.46h-1a8.83,8.83,0,0,1-2-.36,14.91,14.91,0,0,1-2.74-1A12.64,12.64,0,0,1,119,42.59,2.28,2.28,0,0,1,117.94,40.91Zm0,9.69a1.33,1.33,0,0,1,.62-1.32,3.36,3.36,0,0,1,1.51-.31h.9c.22,0,.6.12,1.12.25s1.07.28,1.65.45,1.13.32,1.65.45.9.22,1.12.25a9.23,9.23,0,0,1,1.85.7,1.65,1.65,0,0,1,1,1.6,1.21,1.21,0,0,1-.62,1.23,2.29,2.29,0,0,1-1.34.39h-.84a11.13,11.13,0,0,1-1.29-.31q-.9-.25-1.93-.5l-2-.48c-.62-.15-1-.26-1.26-.34a3.46,3.46,0,0,1-1.48-.67A1.68,1.68,0,0,1,117.94,50.6Zm.22,16.69a2.27,2.27,0,0,1,.45-1.32,3.67,3.67,0,0,1,1-1,7.24,7.24,0,0,1,1-.76l1.46-1,1.37-1,.84-.59a4.21,4.21,0,0,0,.5-.22l.73-.36a2.37,2.37,0,0,0,.62-.42,2,2,0,0,1,.42-.11l.39,0,.53,0a1.84,1.84,0,0,1,1.2.39,1.47,1.47,0,0,1,.48,1.2,1.82,1.82,0,0,1-.34,1.2,2.41,2.41,0,0,1-.78.84,11.88,11.88,0,0,1-1.09.64q-.59.31-1.26.7-1.29.78-2.58,1.62a20,20,0,0,0-2.3,1.79h-.67a2.41,2.41,0,0,1-1.34-.36A1.39,1.39,0,0,1,118.16,67.29Zm14.39-12.71a2.14,2.14,0,0,1-.22-.81V53c0-.41,0-.74,0-1a4.55,4.55,0,0,1,.2-.92V40.63a3,3,0,0,1,.92-2.49,5.42,5.42,0,0,1,2.55-1c.22,0,.62-.08,1.2-.14l1.82-.2,1.82-.2q.87-.08,1.2-.14l.22-.17V24.11a1.17,1.17,0,0,1,.53-1.06,2.31,2.31,0,0,1,1.26-.34,1.64,1.64,0,0,1,1.6,1,4.82,4.82,0,0,1,.48,2.07v9.52l.28.67a5.26,5.26,0,0,0,1.12.14l1.74.14h7.11l1.46.25a5.75,5.75,0,0,1,1.54.48,3.86,3.86,0,0,1,1.2.9,1.94,1.94,0,0,1,.5,1.34,4,4,0,0,1,0,.42c0,.17,0,.27,0,.31v2q0,1.37,0,3.08t-.08,3.56q0,2,0,3.64t0,3.08v2q-.06.39-.22,1.29t-.17,2q-.11,1.09-.22,2a13.26,13.26,0,0,0-.11,1.34,7.29,7.29,0,0,1-.81,2.83,3.34,3.34,0,0,1-1.57,1.4,6,6,0,0,1-2.38.42q-1.29.05-3,.06H151a4,4,0,0,1-1-.06l-.9-.06c-.41-.08-.89-.14-1.43-.2l-1.48-.14-.84-.06-1.4,0q-1.06,0-2.3-.11L139.22,68h-1.29a18.24,18.24,0,0,1-1.88-.2,4.34,4.34,0,0,1-1.6-.59,2.78,2.78,0,0,1-1-1.09,4.4,4.4,0,0,1-.42-1.82Zm3.92-3.7c0,.11,0,.17.11.17h.56c.19,0,.5,0,1-.06a9.8,9.8,0,0,0,1.51-.22l1.51-.11c.45,0,.76-.06,1-.06a.91.91,0,0,0,.67-.45V47.58q0-2,0-3.36t-.14-3.58a.28.28,0,0,0-.31-.22h-.92a7.6,7.6,0,0,1-1.29.17l-1.51.22q-.9.17-1.79.28l-.28.5ZM137.15,64c.19,0,.48,0,.87.06s.79.06,1.2.06l1.32.08.81,0h.39a7.42,7.42,0,0,0,.78-.06c.34,0,.5-.17.5-.39v-7.9a2.44,2.44,0,0,0-.17-.56,3.84,3.84,0,0,0-.11-.62l-.17-.17-.59,0-.62,0-.31,0a2.32,2.32,0,0,1-.39,0h-.45c-.22,0-.51,0-.87.06l-1.15.11a7.92,7.92,0,0,1-.84.17L137,55l-.22.22v7.67a4.44,4.44,0,0,0,.08.56A.73.73,0,0,0,137.15,64Zm9.3-22.29q0,1,0,2.32t.08,2.72q.11,1.57.17,3.14l.5.45h10V40.63l-.5-.5h-10c-.19,0-.28.15-.28.45v1.18Zm.5,22.51s0,.09.11.17a1.87,1.87,0,0,1,.34.11,9.82,9.82,0,0,0,2.44.25l2.6,0h3.3a.87.87,0,0,0,.56-.73c0-.34.07-.63.11-.9s.09-.45.17-.9.08-.76.14-1.18.1-.79.14-1.15.06-.59.06-.7,0-.48,0-.87,0-.83.08-1.32a9.37,9.37,0,0,0,.14-1.2q0-.59,0-.81c0-.3-.11-.49-.45-.59a3.19,3.19,0,0,0-.78-.14h-9Z"/><path class="cls-4" d="M14.85,41.5c1,1.28,5.44,2.45,7-3s.57-10.27,10-17c7-5,11-5,20-5,15.13,0,12-5.28,4-6-11-1-22,0-30,6C16.58,23.46,11.85,37.5,14.85,41.5Z"/><path class="cls-4" d="M67.85,10.5c-1.37.66-4,5,1,6s8-1,6-3S72.36,8.33,67.85,10.5Z"/></g></g></svg>