<svg xmlns="http://www.w3.org/2000/svg" width="594" height="559" viewBox="0 0 594 559"><defs><style>.cls-1{fill:#a33636;opacity:0.5;}.cls-2{fill:#fff;}.cls-3{fill:#ffc900;}.cls-4{fill:#00c4a6;}.cls-5{fill:#ffe400;}.cls-6{fill:#323232;}</style></defs><title>tixingkuang</title><g id="图层_2" data-name="图层 2"><g id="图层_1-2" data-name="图层 1"><rect class="cls-1" x="12" y="102.47" width="582" height="456.53" rx="20" ry="20"/><rect class="cls-2" y="91" width="582" height="456.53" rx="20" ry="20"/><path class="cls-3" d="M562,91H20A20.06,20.06,0,0,0,0,111v79H582V111A20.06,20.06,0,0,0,562,91Z"/><path class="cls-2" d="M212.37,131.11V126.4h5.56v-3.59h6.41v3.59h2.86L225,131.11h-.64v4.05l2.74,0-2.76,6.17,0,15.79-5.67,5.2h-5.14v-4.77h4.39v-4.92H212.1l5.81-13.83,0-7.64Zm15,16.76,6.43,0v7.07l3.33,1.85V146.12H226.23V142h25.42l-2,4.14h-6.11v3h7.92l-1.93,4.12h-6l0,4.07h8.13l-2.1,4.31H236.82l-3.1-1.32-6.3,2.46Zm0-24.49h23.34v12L245,139.58l-17.55,0Zm6.41,9.76v2.25l10.57,0,0-8-10.52,0v2l9.59,0-1.85,3.71Z"/><path class="cls-2" d="M276,149.83v7.49l-4.52,4.8-15.47,0V130.92h5.58v-3.37h-5.58v-4.46h20.41l-2,4.46h-4.1v3.37H276v18.27l1.74-6.62h5l-.3,1.08h1.1v-1.89h-6.32V123.45h17.19l0,14.15-4.07,4.18-1.42,0v1.89H295l-1.51,4.2h-4.58v3H295l-1.51,4.22h-4.58v3h6.45l-1.61,4.12H276.47v-4.12h7.09v-3H276.9v-4.22h6.66v-3h-2l-.57,2Zm-15.47,4.92v2.76h10.93v-12l-1.42,2.95h-3.52v-13H265.4V147l-3.76,1.8V135.48h-1.06v15.13H271l-1.78,4.14Zm4.82-23.83h1.17v-3.37H265.4Zm6.11,4.56h-1.15v9.32h1.15Zm11-4.9h6.54v-3.06h-6.54Zm0,4.26v2.84h6.54v-6.26l-1.21,3.42Z"/><path class="cls-2" d="M328.55,153.37l9.72,9h-9.1l-5-4.67-4.62,4.54h-9.36l9.21-8.93-7.24-6.68h9.1l2.57,2.38,5.07-4.94H312.53l-6.34,18.23h-7l9.19-26.37h-9v-3.95l3.25-8.72h6.75l-2.78,8.08h3.37l2.91-8.34h7L317,131.3h21.9l-2.14,4.58H315.35l-1.23,3.56h23.43v5Zm3.48-30.7a4.37,4.37,0,0,1,2,.54,4,4,0,0,1,1.61,1.55,4.19,4.19,0,0,1,.58,2.13,4.41,4.41,0,0,1-.58,2.13,4.1,4.1,0,0,1-1.54,1.55,4,4,0,0,1-2.12.54,4.24,4.24,0,0,1-2.12-.55,4,4,0,0,1-1.54-1.54,4.29,4.29,0,0,1-.57-2.12,4,4,0,0,1,.58-2.13,3.8,3.8,0,0,1,1.6-1.55A4.66,4.66,0,0,1,332,122.67Z"/><path class="cls-2" d="M342,132.9l5.58-9.85h6.68l-2.4,4.35v10.52L345,140.36V132.9Zm17,14.71h7.24v2.72l15.15,12-9.27,0-9.44-7.64-10.19,7.43-9.44,0,16-11.82Zm-14.87-6.54h36v11.27l-6.75,2.44v-8.91H350.85v6.85l-6.75,2.55Zm20.77-13.67,6.28-3.52h10.21l-16.49,9.25v.66h17.19l-2.27,4.65H358.1v-4.37H353l5.13-2.89v-8.13h6.77Z"/><path class="cls-4" d="M59.15,25.57A69.15,69.15,0,0,0,44.48,65.73c-.67,22.76,10.89,45.43,29.93,58,0,4.57,0,9.14,0,13.73.22,2.15-.63,5.36,2.08,6.33,6.59-2.92,12.58-7.05,18.9-10.51,22.56,5.79,47.81-.89,64.32-17.36,13.16-12.63,20.22-30.76,20.62-48.85,0-6.36-1.89-12.48-2.8-18.72,4.21-5.12-3.3-8.31-5.33-12.36-11-21.38-34.25-35.89-58.38-36A67.27,67.27,0,0,0,59.15,25.57Z"/><path class="cls-5" d="M169.16,37.46S154.75,0,108.64,1.44s-64.84,49-62,72,21.61,46.11,28.82,49l1.44,17.29,17.29-8.65s46.11,10.09,67.72-20.17,17.29-47.55,11.53-62S169.16,37.46,169.16,37.46Z"/><path class="cls-6" d="M59.15,25.57A67.27,67.27,0,0,1,113.79,0c24.12.09,47.34,14.59,58.38,36,2,4,9.55,7.24,5.33,12.36.9,6.23,2.81,12.35,2.8,18.72-.4,18.09-7.47,36.22-20.62,48.85-16.51,16.47-41.76,23.15-64.32,17.36C89,136.74,83,140.87,76.44,143.8c-2.71-1-1.86-4.18-2.08-6.33,0-4.59.07-9.16,0-13.73-19-12.57-30.6-35.24-29.93-58A69.15,69.15,0,0,1,59.15,25.57ZM98,5.86C74.73,11,55.5,30.41,50.41,53.66c-5.82,24.41,4.7,51.57,25.41,65.7,4.57,2,2.57,7.6,3,11.48,0,2.31,0,4.62,0,6.92,6.56-2.77,12-9.17,19.52-8.78l.22.11c26.89,7.38,57-7.42,69.68-31.83,7.14-13.73,9.85-30.54,4.86-45.39l.69-1.86a12,12,0,0,1-13.11.82c-2.62,1.89-5.23,3.81-7.91,5.63a43.51,43.51,0,0,1-8.11-6.74c3.93-4.63,10.16-9.55,16.6-7.22,3.37,1.72,5.88-1.06,7.75-3.47-6.46-11.72-16-21.94-28.09-27.91C127.85,4.24,112.31,2.79,98,5.86Z"/><path class="cls-3" d="M171.33,70c1.2-6-.45-12.33,1.79-18.14,5,14.85,2.28,31.66-4.86,45.39-12.68,24.41-42.8,39.21-69.68,31.83,5-2.52,10.75-1.58,16.14-2.35,10.35-1.36,20.17-5.52,28.94-11.08C158.69,105.18,169.35,88.34,171.33,70Z"/><path class="cls-3" d="M89.78,124.81q4.36,1.89,8.58,4.17c-7.54-.39-13,6-19.52,8.78,0-2.31,0-4.62,0-6.92C82.51,128.93,86.18,126.94,89.78,124.81Z"/><path class="cls-6" d="M100,47.38q4.75,6.43,15.73,20.72,5.35,6.69,14.76,18.74L117.88,97.56l-7.33-8.07q-.32.53-1.19,2.25a24,24,0,0,0-1.33,3l-3.87-1.94q-1.24-.65-3.69-1.68l10.22,12.51L96.8,115.52,80.63,98q-6.26-6.9-18-18.83L80,64.39,98.74,88.73a32.31,32.31,0,0,0,3.54-2.84q1-.93,2.7-2.64L83.91,61.07Z"/><path class="cls-6" d="M116.66,26.75,135.6,50.67q6.16,7.7,16.85,20.9L140.62,81.65,102,39.21Z"/></g></g></svg>