<svg xmlns="http://www.w3.org/2000/svg" width="551.02" height="606.73" viewBox="0 0 551.02 606.73"><defs><style>.cls-1{fill:#ffe400;}.cls-2{fill:#323232;}.cls-3{fill:#ffc900;}.cls-4{fill:#212121;}</style></defs><title>word</title><g id="图层_2" data-name="图层 2"><g id="图层_1-2" data-name="图层 1"><path class="cls-1" d="M73.3,99.8s95-139.16,282-88.83S572.94,273.62,538.94,365,406.2,532.57,374,537.4c0,0-4.81,65.17-22.55,69.25-10.42,2.39-62.31-52-62.31-52S91,551.42,31.9,407,7.09,196,44.53,142.73,73.3,99.8,73.3,99.8Z"/><path class="cls-2" d="M534.92,332C517.17,418.63,453.21,494,370,524.58c-4.19,17.26-8,34.6-12.08,52-2.73,7.93-2.4,20.83-13.51,22.09-22.32-16.93-41.29-37.88-62.1-56.58-90.46,1.77-180-46-227.71-123C16.14,359.56,5.6,284.71,20.22,216c5.62-24.07,18.29-45.51,27.27-68.27,25.47-38,19.88-28.49,31.18-42C139.47,34.73,240.19.6,331.47,21.8,411,37.54,481.52,93.3,515.26,167,539.21,218.06,545.82,276.82,534.92,332ZM216.69,29.11C163.54,41.35,116.54,72.72,80.21,112.86c-11.8,14.05-28.31,44.78-28.06,46.74-33.42,53.81-38.37,122.5-23,183.18,27.26,107.85,132,194.09,244.72,190l1-.25c30,5.48,45.41,35.72,68.68,52.71,2.31-9,4.46-18.13,6.54-27.22,5.3-14.89,2.56-38.58,22.46-42.4,94.64-36.39,161.27-133.53,161-235,1.56-96.23-56.15-190.36-142.79-232.3C337.08,22.92,274.59,14.19,216.69,29.11Z"/><path class="cls-3" d="M41.59,233.52c.84-24.66,13.15-47.91,9.76-72.79-33.29,53.6-38.22,122-22.94,182.45C55.56,450.61,159.92,536.51,272.16,532.44c-17.33-14.53-40.68-16.13-61.09-24.14-39.31-14.91-74-40.29-103.2-70.21C58.62,383.11,32.39,307.22,41.59,233.52Z"/><path class="cls-3" d="M310.63,523.78q-18.86,3.38-37.52,8.41c29.91,5.46,45.23,35.58,68.41,52.5,2.3-9,4.44-18.05,6.51-27.11C335.3,546.68,322.76,535.48,310.63,523.78Z"/><path class="cls-4" d="M152.07,187.52a2.11,2.11,0,0,1,.46-1.44,4.75,4.75,0,0,1,1.24-.65,8.52,8.52,0,0,1,1.54-.13h1.4L157,185V173.66q0-.39-.52-.39l-.46.07a53,53,0,0,0-5.59.29,53,53,0,0,1-5.59.29l-.82,0-.82,0a1.61,1.61,0,0,1-1-.69,2.1,2.1,0,0,1-.39-1.24,2.06,2.06,0,0,1,.55-1.34,2,2,0,0,1,1.41-.72l12.94-1.11v-4.31a.48.48,0,0,0-.49-.56l-.69,0q-4.18,0-8.37.29t-8.3.29h-3.53a5.35,5.35,0,0,1-1.63-.85,1.61,1.61,0,0,1-.78-1.5,1.8,1.8,0,0,1,.65-1.54,5.09,5.09,0,0,1,1.44-.75q6.21.13,12.42-.06t12.42-.2h9.61a1,1,0,0,1,.88.72,4.36,4.36,0,0,1,.16,1.18A2.75,2.75,0,0,1,170,163a1.85,1.85,0,0,1-1.63.75h-7.06v4.84h10.33c.13,0,.3.13.52.39a3.37,3.37,0,0,1,.59.85v.72a2.51,2.51,0,0,1-.59,1.63,2,2,0,0,1-1.63.72h-8.37l-.65.39v14.06a1.71,1.71,0,0,1-.69,1.44,4,4,0,0,1-1.54.72,11.61,11.61,0,0,1-1.83.26,9.66,9.66,0,0,1-1.41.13,4.92,4.92,0,0,1-1.28-.2,3.78,3.78,0,0,1-1.27-.33,3.17,3.17,0,0,1-1-.72A1.66,1.66,0,0,1,152.07,187.52Zm-11.83-42.89a1.78,1.78,0,0,1,.95-1.73,7.2,7.2,0,0,1,2-.69q.91,0,2.88-.06t4.64,0l5.33-.06,5.36-.07,4.58,0h5.92a1.27,1.27,0,0,1,1,.65,1.92,1.92,0,0,1,.39,1.18q0,1.63-1,2a6.54,6.54,0,0,1-2.48.52q-.78,0-2.84.07t-4.41.07q-2.22.07-4.31.07t-2.75.13H141.55A1.94,1.94,0,0,1,140.24,144.64ZM142.66,182a1.27,1.27,0,0,1,.1-.39,4.73,4.73,0,0,1,.2-.46,3.26,3.26,0,0,1,.55-.65q.46-.46.88-.95c.28-.33.58-.65.88-1l.59-.62,1.18-1a2.92,2.92,0,0,1,1.44-.33,2.53,2.53,0,0,1,1.44.39,1.9,1.9,0,0,1,.59,1.5,2.56,2.56,0,0,1-.2.85,1,1,0,0,1-.33.72l-3.79,3.86a1,1,0,0,1-.82.29l-.82,0a2,2,0,0,1-1.37-.52,1.61,1.61,0,0,1-.52-1.37Zm6.41-31.45a3,3,0,0,1,.46-1.73,1.89,1.89,0,0,1,1.7-.69,1.94,1.94,0,0,1,1.5.65,4.33,4.33,0,0,1,.88,1.54,7.54,7.54,0,0,1,.36,1.86c.13.65.24,1.22.33,1.7v.65a2.56,2.56,0,0,1-.56,1.54,1.77,1.77,0,0,1-1.5.75,1.89,1.89,0,0,1-1.54-.72,6.2,6.2,0,0,1-1-1.77,10.42,10.42,0,0,1-.49-2A12.77,12.77,0,0,1,149.06,150.59Zm3-15.49a1.85,1.85,0,0,1,2.09-2.09,2.4,2.4,0,0,1,1.5.65,6.4,6.4,0,0,1,1.6,1.47,9.84,9.84,0,0,1,1.14,1.86,4.25,4.25,0,0,1,.46,1.76,1.68,1.68,0,0,1-1.9,1.9,3,3,0,0,1-1.67-.59,6.73,6.73,0,0,1-1.57-1.47,11.86,11.86,0,0,1-1.18-1.83A3.74,3.74,0,0,1,152.07,135.09ZM163.18,155a9.22,9.22,0,0,1,.26-1.9,10.16,10.16,0,0,1,.79-2.26,9.09,9.09,0,0,1,1.24-1.93,2.36,2.36,0,0,1,1.73-.72,1.85,1.85,0,0,1,1.5.59,2.49,2.49,0,0,1,.49,1.63,7.87,7.87,0,0,1-.29,1.86,9,9,0,0,1-.88,2.19,4.71,4.71,0,0,1-1.31,1.83,2.06,2.06,0,0,1-1.57.85,1.7,1.7,0,0,1-1.5-.65A2.55,2.55,0,0,1,163.18,155Zm4.64,24.65a1.9,1.9,0,0,1,.59-1.5,2.76,2.76,0,0,1,3.2.26,7.47,7.47,0,0,1,1.28,1.54,13.06,13.06,0,0,1,.95,1.8q.46,1,.72,1.7a.38.38,0,0,1,.07.26v.39a2.18,2.18,0,0,1-.49,1.44,1.73,1.73,0,0,1-1.41.59,2.6,2.6,0,0,1-1.6-.75,8.74,8.74,0,0,1-1.6-1.83,15.12,15.12,0,0,1-1.21-2.16A4.47,4.47,0,0,1,167.83,179.61Z"/><path class="cls-4" d="M218.3,187.65a3.28,3.28,0,0,1,.13-.91,2,2,0,0,0,.13-.75q0-.43-.65-.59t-1.4-.39a4.17,4.17,0,0,1-1.41-.75,1.6,1.6,0,0,1-.59-1.44,1.8,1.8,0,0,1,.69-1.47,2.31,2.31,0,0,1,1.47-.55,7.36,7.36,0,0,1,2.06.29,7.33,7.33,0,0,0,2.06.29,2,2,0,0,0,1.7-.88,3,3,0,0,0,.65-1.8l-1.67,0q-1.21,0-2.52,0t-2.52,0l-1.67,0c-.65,0-1.17.09-1.54.13s-.66.37-.88,1c0,.17,0,.48-.06.92s-.1,1-.16,1.54-.13,1-.2,1.41-.12.76-.16,1a5.28,5.28,0,0,1-.72,2.16,1.86,1.86,0,0,1-1.83,1.11,1.84,1.84,0,0,1-1.54-.62,2.62,2.62,0,0,1-.49-1.67,33.51,33.51,0,0,1,.55-6.08,33.33,33.33,0,0,0,.56-6.08v-.72l-.33-.26h-6.73q-.65,0-1-.85a3.16,3.16,0,0,1-.33-1.28,2.22,2.22,0,0,1,.49-1.24,1.4,1.4,0,0,1,1.14-.69l6.8-.59q.65-.06.82-1l.39-2.16a11.93,11.93,0,0,1,.75-2.48,3.69,3.69,0,0,1,1.83-1.9,25.81,25.81,0,0,0-2.94-.29q-1.18,0-2.88,0h-2a1.11,1.11,0,0,0-1.08.55q-.29.56-.55,1.14a3.19,3.19,0,0,1-.49,1.11,1.52,1.52,0,0,1-1.34.52,1.88,1.88,0,0,1-2-1.44l-.36-1q-.29-.85-.69-1.77a18.25,18.25,0,0,0-.59-1.83c-.13-.57-.22-.92-.26-1a3.94,3.94,0,0,0-.59-1.11,1.58,1.58,0,0,1-.33-1,1.93,1.93,0,0,1,.72-1.57,2.56,2.56,0,0,1,1.67-.59,1.92,1.92,0,0,1,1.5.62,4.38,4.38,0,0,1,.82,1.28,8,8,0,0,1,.59,1.31c.22.39.46.59.72.59l2.09,0q1.5,0,3.2,0h3.14q1.57.07,2.16.07c.48,0,1.22,0,2.22.06s2.28.25,3.56.36l4.09.33,4.12.33q2,.16,3.5.33l2.26.23a7.11,7.11,0,0,1,2.25.88,2.29,2.29,0,0,1,1,2.13v.52a9.81,9.81,0,0,0-.39,1l-.55,1.57q-.3.82-.56,1.47a8.76,8.76,0,0,0-.39,1,4.07,4.07,0,0,1-.85,1.44,1.7,1.7,0,0,1-1.5.79,1.91,1.91,0,0,1-1.5-.59,2.37,2.37,0,0,1-.52-1.63,3.94,3.94,0,0,1,.46-1.9,3.94,3.94,0,0,0,.46-1.9,1,1,0,0,0-.13-.39c0-.09-.07-.13-.2-.13l-14.05-1.31h-3.27a9.29,9.29,0,0,1,1.21,1,2,2,0,0,1,.43,1.4,12,12,0,0,1-.13,1.8,12,12,0,0,0-.13,1.83v1.18l10.53.59a1.39,1.39,0,0,1,1.14.72,2.39,2.39,0,0,1,.49,1.31,2.17,2.17,0,0,1-.52,1.27,1.44,1.44,0,0,1-1.11.69H213.39l-.13.2a.19.19,0,0,0-.07.13c-.09,0-.15.17-.2.39s-.09.54-.13.72v.2a1,1,0,0,0,.2.26l.33.33,1.83,0,2.78-.1c1,0,1.9-.11,2.78-.2h5.62a2.77,2.77,0,0,1,2.22,2.88,6.11,6.11,0,0,1-.79,2.81,17.81,17.81,0,0,0-1.11,2.48l-.06.13.06.13a.27.27,0,0,0,.1.16.26.26,0,0,1,.1.16,9.51,9.51,0,0,1,1,.29l1.44.46q.75.23,1.4.49c.52.17.87.28,1,.33a1.84,1.84,0,0,1,1.37,1.9,2.28,2.28,0,0,1-.56,1.63,2.1,2.1,0,0,1-1.6.59,8.8,8.8,0,0,1-3.46-.72,7.9,7.9,0,0,0-3.33-.72,1.51,1.51,0,0,0-1.18.43,6.31,6.31,0,0,0-.72.95,5.41,5.41,0,0,1-.75.95,1.69,1.69,0,0,1-1.24.42,2,2,0,0,1-1.44-.62A1.94,1.94,0,0,1,218.3,187.65Zm-20.59-47a2.41,2.41,0,0,1,1.31-2.16,8.13,8.13,0,0,1,2.48-.78q.26-.06,1.18-.2t2.22-.36l2.09-.29,1.31-.26q.85-.13,3-.62t4.48-1q2.35-.49,4.48-1l3-.69h.39a2.38,2.38,0,0,1,1.6.59,2,2,0,0,1,.69,1.57,2,2,0,0,1-.62,1.47,2.54,2.54,0,0,1-1.28.75q-.79.2-2.88.65l-4.45.95q-2.35.49-4.41,1t-2.91.62a7.08,7.08,0,0,0-1,.16,17,17,0,0,1-1.73.26,16,16,0,0,0-1.7.26,6,6,0,0,1-1,.16,3.93,3.93,0,0,0-.65.13,6.54,6.54,0,0,1-.95.23,7.36,7.36,0,0,0-1,.26,3.91,3.91,0,0,1-.56.16h-.78a2.63,2.63,0,0,1-1.6-.46A1.67,1.67,0,0,1,197.7,140.65Zm4.58,4.9a2.17,2.17,0,0,1,.52-1.5,2.12,2.12,0,0,1,1.44-.46,3.28,3.28,0,0,1,1.63.49,6.25,6.25,0,0,1,1.5,1.21,8.57,8.57,0,0,1,1,1.73,4.05,4.05,0,0,1,.39,1.63,2.14,2.14,0,0,1-2,2,2.8,2.8,0,0,1-1.57-.55,7.53,7.53,0,0,1-1.47-1.31,7.33,7.33,0,0,1-1.11-1.73A3.65,3.65,0,0,1,202.28,145.55Zm11.64-.26a3.2,3.2,0,0,1,.49-1.67,1.66,1.66,0,0,1,1.54-.82,1.78,1.78,0,0,1,1.21.42,2.35,2.35,0,0,1,.69.95,3.26,3.26,0,0,1,.39,1.27q.06.69.06,1.21a5.43,5.43,0,0,1-.36,1.93,1.57,1.57,0,0,1-1.67.95,2.23,2.23,0,0,1-1.37-.39,3.4,3.4,0,0,1-.62-1.11,5.62,5.62,0,0,1-.29-1.4C213.94,146.13,213.92,145.68,213.92,145.29Zm12.49-2.22A1.84,1.84,0,0,1,228,144a3.94,3.94,0,0,1,.59,1.9,3.86,3.86,0,0,1-.69,2.16,2.18,2.18,0,0,1-1.93,1,2.27,2.27,0,0,1-1.08-.43,1.2,1.2,0,0,1-.69-1v-2.88a1.54,1.54,0,0,1,.79-1.31A3.17,3.17,0,0,1,226.4,143.07Z"/><path class="cls-4" d="M255.62,180.59q-.06-.65-.16-2.32t-.26-3.6q-.16-1.93-.26-3.63t-.1-2.35a1.05,1.05,0,0,1-.07-.52v-.59A4.74,4.74,0,0,1,255,166a5.85,5.85,0,0,0,.65-1.37q.52-1.31.82-2a2.87,2.87,0,0,1,.75-1.08,5,5,0,0,1,1.24-.46q.78-.06,2.35-.26a4.83,4.83,0,0,0,.72-.1c.35-.07.54-.14.59-.23a.26.26,0,0,0,.2-.07.19.19,0,0,0,.07-.13v-9.54a1.07,1.07,0,0,1,.75-1.08,3.73,3.73,0,0,1,1.34-.29,2.69,2.69,0,0,1,1.28.29,1.57,1.57,0,0,1,.75,1.08c0,.22,0,.58,0,1.08s0,1,.07,1.63,0,1.14,0,1.67a8.27,8.27,0,0,1,.13,1c0,.39.09.94.13,1.63a4.42,4.42,0,0,0,.39,1.7s0,.09.1.13a.3.3,0,0,0,.16.07h6.54a1.87,1.87,0,0,1,1.37.72,3,3,0,0,1,.79,1.5q-.2,4.38,0,8.7t.79,8.63a1,1,0,0,1,.2.52,2.08,2.08,0,0,0,.13.52v.26a2.19,2.19,0,0,1-.36,1.21,1.51,1.51,0,0,1-1,.69q-3.47.26-7.52.72t-7.65.39h-1.63a10.71,10.71,0,0,1-2.06-1.14A3.26,3.26,0,0,1,255.62,180.59Zm4.64-15.17a2.79,2.79,0,0,0-.52.2c-.22.13-.33.24-.33.33v3.33c0,.17.11.26.33.26h.95c.2,0,.32,0,.36-.07q1.18,0,2.91-.06t3.43-.2q1.9-.2,3.92-.26l.33-.26v-4.05l-.33-.26-.65,0-.85,0a41,41,0,0,0-4.77.26Zm1,8.7-.78.23c-.39.11-.59.29-.59.55v3.79c0,.09.11.2.33.33a.71.71,0,0,0,.2.13,1.11,1.11,0,0,0,.33.13l11.64-1.11v-1.77a6,6,0,0,0,0-1.24,2.2,2.2,0,0,0-.39-1,.84.84,0,0,0-.72-.52h-3.79c-.26,0-.69,0-1.28.06l-1.86.16-1.86.2C261.93,174.09,261.53,174.12,261.31,174.12ZM283,181.57a1.81,1.81,0,0,1,.72-1.57,11.57,11.57,0,0,1,1.83-.78q1.11-.26,2.22-.46a8,8,0,0,0,1.77-.26,9.69,9.69,0,0,1,1.76-.49,5.34,5.34,0,0,0,1.63-.55,3.19,3.19,0,0,0,1.34-.92,3.52,3.52,0,0,0,.69-1.63l1.9-16.8v-.72a1.86,1.86,0,0,0-.59-1.6,4.07,4.07,0,0,0-1.63-.62,18.57,18.57,0,0,0-2.06-.26q-1.47-.13-3.07-.33t-3.07-.33c-1-.09-1.67-.13-2.06-.13a2.59,2.59,0,0,0-.78-.06h-1.7a.88.88,0,0,0-.46.06l-.52.2q-.06.65-.06,1.73a8.61,8.61,0,0,1-.23,2,4.37,4.37,0,0,1-.75,1.63,1.85,1.85,0,0,1-1.57.69q-1.31,0-1.67-.75a4.29,4.29,0,0,1-.36-1.86v-1.57q0-1,0-2.91t.1-3.82q.06-1.9.06-3.4t.13-1.76q0-.65.07-1.57a5.76,5.76,0,0,1,.36-1.57,3.11,3.11,0,0,1,.85-1.28,2.14,2.14,0,0,1,1.47-.49,1.82,1.82,0,0,1,2.09,2,15.13,15.13,0,0,1-.33,3.2,20.5,20.5,0,0,0-.26,3.27c0,.17,0,.42,0,.75s0,.51,0,.56l.2.26,2.58.23q1.86.16,3.92.29t3.92.29l2.58.23a9.54,9.54,0,0,1,5.23,2,6.63,6.63,0,0,1,1.89,5.1c0,.17,0,.47,0,.88s0,.64,0,.69l-1.9,16.8a6.41,6.41,0,0,1-1.18,3.14,7.05,7.05,0,0,1-2.26,1.9,12.24,12.24,0,0,1-3,1.11q-1.57.46-3.27.85-1.51.39-2.12.49a12.23,12.23,0,0,1-1.77.1,4.08,4.08,0,0,1-1.9-.39A1.67,1.67,0,0,1,283,181.57Zm-1.11-12.88a1.9,1.9,0,0,1,.59-1.5,2.66,2.66,0,0,1,1.5-.39,3.83,3.83,0,0,1,1.54.36,6,6,0,0,1,1.47.92,5.07,5.07,0,0,1,1.08,1.27,2.81,2.81,0,0,1,.42,1.44,1.92,1.92,0,0,1-.59,1.34,1.84,1.84,0,0,1-1.37.62,3.46,3.46,0,0,1-1.47-.39,6.85,6.85,0,0,1-1.5-1,6.66,6.66,0,0,1-1.18-1.31A2.45,2.45,0,0,1,281.84,168.7Z"/><path class="cls-4" d="M318.12,167.58a12.12,12.12,0,0,1,.55-1.11,11.1,11.1,0,0,0,.75-1.76q.46-.85.79-1.63l.59-1.11q.52-1.18,1-2.16a2.12,2.12,0,0,1,2-.85,2.28,2.28,0,0,1,1.63.56,2.1,2.1,0,0,1,.59,1.6.45.45,0,0,1,0,.2.28.28,0,0,0,0,.13v.2l-4.05,8.17a1.52,1.52,0,0,1-.79.82,2.75,2.75,0,0,1-1.11.23,1.59,1.59,0,0,1-1.47-.69,3,3,0,0,1-.42-1.6Zm10.53,9.09a1.87,1.87,0,0,1,.65-1.6,2.65,2.65,0,0,1,1.63-.49h.72l5,2.75.39-1.63s0-.38,0-1,0-1.37.07-2.22,0-1.69.06-2.52,0-1.53,0-2.09V165.1q.13-1.9.13-4.28v-10q0-2.29-.13-4.18v-2.81a12.79,12.79,0,0,1,.55-2.26q.36-1,1.8-1a3.72,3.72,0,0,1,1.34.29,1.08,1.08,0,0,1,.75,1.08v32.23q0,.92.06,2.29a9.86,9.86,0,0,1-.26,2.81,4.93,4.93,0,0,1-.92,2.32,2.69,2.69,0,0,1-2.29.95,8.08,8.08,0,0,1-2.42-.59,18,18,0,0,1-3.17-1.34,15.31,15.31,0,0,1-2.88-1.93A2.81,2.81,0,0,1,328.65,176.67Zm22.68-16.41a1.75,1.75,0,0,1,.59-1.37,2.08,2.08,0,0,1,1.44-.52,2.71,2.71,0,0,1,.82.1,2.49,2.49,0,0,1,.75.49q.33.33,1.21,1.37t1.73,2.16q1,1,1.8,2.09a10.24,10.24,0,0,0,1.21,1.37q.65.85.92,1.27a3,3,0,0,1,.26,1.47,1.8,1.8,0,0,1-.56,1.37,2,2,0,0,1-1.4.52,4.48,4.48,0,0,1-2.16-1.24,31.17,31.17,0,0,1-2.84-3,37.92,37.92,0,0,1-2.65-3.5A5.2,5.2,0,0,1,351.33,160.26Z"/><path class="cls-4" d="M383.37,184.91a1.57,1.57,0,0,1,.46-1.21,5.4,5.4,0,0,1,1-.75,7,7,0,0,1,1.34-.26q.69-.06,1.31-.07t2.22-.1l3.4-.2,3.4-.16c1.07,0,1.82-.07,2.26-.07l.33-.52v-5.69c0-.35,0-.81-.07-1.37s0-1-.06-1.44a10.48,10.48,0,0,0-.2-1.31,1.32,1.32,0,0,0-.26-.85h-8.37a1.49,1.49,0,0,1-1.24-.78,2.78,2.78,0,0,1-.39-1.31,2.19,2.19,0,0,1,.46-1.24,2,2,0,0,1,1.18-.65l8.17-.59v-9.94l-.33-.33h-1.18q-1.9,0-3.73.16t-3.73.16h-1.89a2.69,2.69,0,0,1-1.21-.88,2.08,2.08,0,0,1-.49-1.31,1.79,1.79,0,0,1,.36-1.14,2,2,0,0,1,.92-.65,9.3,9.3,0,0,1,1.18-.33,5.59,5.59,0,0,1,1.14-.13q.85,0,2.62-.1t3.66-.16l3.53-.13,2-.07h12.22a1.68,1.68,0,0,1,1.63.62,2.57,2.57,0,0,1,.59,1.6,2.29,2.29,0,0,1-.46,1.44,1.26,1.26,0,0,1-1.24.65h-9.41a1.48,1.48,0,0,0-1.28.49,2.63,2.63,0,0,0-.46,1.24,6.8,6.8,0,0,0,0,1.5q.06.75.06,1.31v1.57q0,1,0,1.24c0,.15,0,.38.07.69s0,.6.06.88,0,.51,0,.69a2,2,0,0,0,.72.85h8.89a1.28,1.28,0,0,1,1,.75,5.44,5.44,0,0,1,.59,1.21v.13a1.41,1.41,0,0,1-.39,1,2.82,2.82,0,0,1-.72.72l-.26.33a.74.74,0,0,0-.26.13h-8.89l-.33.33v2.22c0,.65,0,1.45,0,2.39s.05,1.85.1,2.75.06,1.65.06,2.26a7.39,7.39,0,0,0,.33,1.57,5.79,5.79,0,0,0,1.31.13l1.93.1q.69,0,2.45.07l3.66.06q1.9,0,3.66,0c1.18.09,2,.13,2.42.13a1.94,1.94,0,0,1,1.14.75,1.9,1.9,0,0,1,0,2.55,1.94,1.94,0,0,1-1.14.75q-8.24-.06-16.34.07t-16.28.26H385a3.31,3.31,0,0,1-1.11-.85A1.85,1.85,0,0,1,383.37,184.91Zm10.85-46.81a1.81,1.81,0,0,1,.72-1.57,2.72,2.72,0,0,1,1.63-.52,5.48,5.48,0,0,1,2.09.59,13.54,13.54,0,0,1,4.94,3.5,3.15,3.15,0,0,1,.95,2,1.62,1.62,0,0,1-1.83,1.83,3.35,3.35,0,0,1-1.37-.26,6.6,6.6,0,0,1-1.14-.65,13.13,13.13,0,0,1-1.14-.92,7.06,7.06,0,0,0-1.31-.92,8.38,8.38,0,0,0-1-.56c-.42-.2-.81-.4-1.18-.62a3.17,3.17,0,0,1-.95-.85A1.41,1.41,0,0,1,394.22,138.1Z"/><path class="cls-4" d="M157.75,227.14q0-.91,0-2t-.08-2.12q-.06-1.08-.15-2.14c-.06-.71-.14-1.36-.25-2a2.77,2.77,0,0,0-.13-.55,3.26,3.26,0,0,1-.13-.51,1,1,0,0,0,0-.17.81.81,0,0,1,0-.17,1.17,1.17,0,0,1,.4-.87,1.22,1.22,0,0,1,.85-.38h12.09q2.08,0,2.08,1.93a9.06,9.06,0,0,1-.4,2.62,18,18,0,0,0-.59,2.69c0,.1,0,.38-.07.85s-.1,1-.13,1.48-.09,1-.15,1.48-.09.76-.09.89a4.83,4.83,0,0,1-.29,1,1.1,1.1,0,0,1-.81.68L168,230q-1.33.06-2.8.15t-2.8.15l-1.82.09h-.76a1.72,1.72,0,0,1-.85-.15,1.06,1.06,0,0,1-.4-.46,2.37,2.37,0,0,1-.1-.61,8.32,8.32,0,0,0-.09-.87,5.56,5.56,0,0,0-.34-.57A2.13,2.13,0,0,1,157.75,227.14Zm.76,18.19a1.48,1.48,0,0,1,.29-.78.93.93,0,0,1,.7-.47l4.58-.3-.19-2.42h-2.65q-.38,0-.68-.51a1.78,1.78,0,0,1-.3-.85,1.3,1.3,0,0,1,.19-.76,1.23,1.23,0,0,1,.63-.34,4.85,4.85,0,0,1,.79-.09l.78,0,.55-.09c.24,0,.36-.07.36-.09l.19-.3v-2.08h-5.08a.6.6,0,0,1-.61-.46,2.52,2.52,0,0,1-.15-.76,2,2,0,0,1,.15-.78.93.93,0,0,1,.61-.51l1.67,0,2.52-.09,2.54-.1,1.65,0h4.21a1.2,1.2,0,0,1,.7.4,1.09,1.09,0,0,1,.28.74,1.89,1.89,0,0,1-.17.74.72.72,0,0,1-.66.44l-4.51.34a.3.3,0,0,0-.28.21,2.17,2.17,0,0,0-.15.49,4.88,4.88,0,0,0-.08.53c0,.17,0,.28,0,.34v.25c0,.15.06.23.19.23h3a.71.71,0,0,1,.72.42,1.54,1.54,0,0,1,.27.83q0,.87-.55,1.08a3.5,3.5,0,0,1-1.25.21h-1.35a.81.81,0,0,0-.83.42v.72a2.4,2.4,0,0,1,0,.38c0,.2,0,.41,0,.63a2.1,2.1,0,0,0,.09.55c.05.15.14.23.27.23h6.55q.34,0,.57.45a1.79,1.79,0,0,1,.23.64,1.42,1.42,0,0,1-.27.83,1,1,0,0,1-.64.45l-.61.08-.91.1-.91.09-.61,0-5,.19q-2.62.15-5.08.15h-.95c-.23-.23-.42-.43-.57-.61A.85.85,0,0,1,158.51,245.32ZM160.14,220q0,1.9-.06,3.86a17.67,17.67,0,0,0,.32,3.9h2l1.61-.15,1.91-.13a15.84,15.84,0,0,0,1.63-.17,1.49,1.49,0,0,0,.83-.19q0-.3.13-1.1c.06-.53.12-1.09.17-1.69s.1-1.14.15-1.65.16-.87.19-1.1a4.12,4.12,0,0,1,.06-.42c0-.23.09-.47.15-.74l.17-.74a3,3,0,0,0,.08-.42v-.19a1.21,1.21,0,0,0,0-.26c0-.05-.13-.06-.3,0h-.49c-.25,0-.53,0-.83,0H166l-.83,0-.74,0H164l-.78,0-1.19.09-1.19.1c-.37,0-.61.05-.74.08Z"/><path class="cls-4" d="M190.75,235q.08-.19.32-.64a6.48,6.48,0,0,0,.44-1q.26-.49.46-.95l.34-.64c.2-.46.4-.87.61-1.25A1.23,1.23,0,0,1,194,230a1.32,1.32,0,0,1,.95.32,1.21,1.21,0,0,1,.34.93.25.25,0,0,1,0,.11.18.18,0,0,0,0,.08v.11l-2.35,4.74a.88.88,0,0,1-.46.47,1.56,1.56,0,0,1-.64.13.92.92,0,0,1-.85-.4,1.73,1.73,0,0,1-.25-.93Zm6.1,5.27a1.09,1.09,0,0,1,.38-.93,1.53,1.53,0,0,1,.95-.28h.42l2.92,1.59.23-.95s0-.22,0-.59,0-.8,0-1.29,0-1,0-1.46,0-.88,0-1.21v-1.59q.08-1.1.08-2.48v-5.82q0-1.33-.08-2.42v-1.63a7.43,7.43,0,0,1,.32-1.31q.21-.59,1-.59a2.15,2.15,0,0,1,.78.17.62.62,0,0,1,.44.63v18.68q0,.53,0,1.33a5.64,5.64,0,0,1-.15,1.63,2.84,2.84,0,0,1-.53,1.34,1.56,1.56,0,0,1-1.33.55,4.66,4.66,0,0,1-1.4-.34,10.46,10.46,0,0,1-1.84-.78,9,9,0,0,1-1.67-1.12A1.62,1.62,0,0,1,196.85,240.25ZM210,230.74a1,1,0,0,1,.34-.8,1.21,1.21,0,0,1,.83-.3,1.58,1.58,0,0,1,.47.06,1.47,1.47,0,0,1,.44.29q.19.19.7.79c.34.4.68.82,1,1.25s.72.81,1,1.21a5.77,5.77,0,0,0,.7.79q.38.49.53.74a1.75,1.75,0,0,1,.15.85,1,1,0,0,1-.32.79,1.14,1.14,0,0,1-.81.3,2.6,2.6,0,0,1-1.25-.72,18.33,18.33,0,0,1-1.65-1.72,21.71,21.71,0,0,1-1.53-2A3,3,0,0,1,210,230.74Z"/><path class="cls-4" d="M229.24,244.76v-.46a.51.51,0,0,1,0-.27c0-.2,0-.54,0-1s0-1,0-1.59,0-1,.06-1.54,0-.84,0-1a.61.61,0,0,0-.3-.42.66.66,0,0,0-.46-.11h-.15a.22.22,0,0,1-.15.08h-.15l-.12.08a.11.11,0,0,1-.07,0v2.39a.75.75,0,0,1-.38.68,1.53,1.53,0,0,1-.8.23,1.15,1.15,0,0,1-.91-.34,1.87,1.87,0,0,1-.42-.87q0-.34-.07-1.21t-.12-1.72q-.08-.93-.11-1.74t0-1.16v-2.5a1,1,0,0,1,.47-.62,1.55,1.55,0,0,1,.74-.17,1.8,1.8,0,0,1,.7.17.77.77,0,0,1,.47.63l.3,3q0,.34.49.4a6.22,6.22,0,0,0,.68.06h.23c.08,0,.13-.05.15-.15v-.95q0-.53,0-1.38c0-.57,0-1.14,0-1.71s0-1.06-.08-1.48-.09-.62-.17-.62h-3.75a1,1,0,0,1-.83-.42,1.44,1.44,0,0,1-.27-.85,1.31,1.31,0,0,1,.38-.89,1.15,1.15,0,0,1,.87-.42h3.14a.26.26,0,0,0,.29-.27c0-.18,0-.3,0-.38q0-1.89-.08-3.83t-.11-3.75a2.6,2.6,0,0,1,.3-1.25,1.2,1.2,0,0,1,1.06-.49,1.12,1.12,0,0,1,.91.36,2,2,0,0,1,.42.89v6.4c0,.3.05.58.08.83s0,.47,0,.64l0,.27.19.19.55,0,.83,0,.83,0,.59,0a2.48,2.48,0,0,1,1,.38,1,1,0,0,1,.47.91,1.57,1.57,0,0,1-.32.85.93.93,0,0,1-.78.47h-2.84l-.19.23v2q0,.49,0,1.21t0,1.48a11.83,11.83,0,0,1,.08,1.21l0,.49.34.3.46,0a7.65,7.65,0,0,0,.78.19c.26.05.51.09.74.11l.53.15a2.53,2.53,0,0,1,1,.44,1.12,1.12,0,0,1,.53,1,.84.84,0,0,1-.46.87,1.79,1.79,0,0,1-1,.26,5.54,5.54,0,0,1-1.38-.17,5.56,5.56,0,0,0-1.38-.17h0q-.15,0-.17.17c0,.11,0,.33-.1.66a6,6,0,0,1-.07.72c0,.18,0,.46,0,.85s0,.81,0,1.27,0,.88,0,1.29,0,.68,0,.83a2,2,0,0,1-.38,1,1.13,1.13,0,0,1-1,.4,1.16,1.16,0,0,1-1-.38A1.62,1.62,0,0,1,229.24,244.76Zm20.38-5-.59.44a1.23,1.23,0,0,1-.7.17,4,4,0,0,1-1.67-.42l-1.4-.68h-.34a10.21,10.21,0,0,1-.79.7,1.57,1.57,0,0,1-1,.4,1.09,1.09,0,0,1-.89-.34,1.23,1.23,0,0,1-.29-.81,1.73,1.73,0,0,1,.15-.78,5.87,5.87,0,0,0,.46-.72c-.3-.35-.64-.76-1-1.21a2.26,2.26,0,0,1-.55-1.44,2.08,2.08,0,0,1,.27-1.06,1.27,1.27,0,0,1,1.63-.15,2.75,2.75,0,0,1,.51.59l.44.66a1.89,1.89,0,0,0,.61.57.93.93,0,0,0,.7-.49l.57-.91a6.14,6.14,0,0,1,.66-.87,1.36,1.36,0,0,1,1.06-.42,1.49,1.49,0,0,1,.87.26,1,1,0,0,1,.38.87v.15a.71.71,0,0,1-.08.25.89.89,0,0,1-.11.21,1.63,1.63,0,0,1-.3.38c-.1.2-.22.42-.36.64s-.28.44-.42.63a3.9,3.9,0,0,1-.32.4v.11c0,.1.13.25.38.45a4.64,4.64,0,0,0,.83.53l.83.53a2.55,2.55,0,0,0,.42.23h0a9.81,9.81,0,0,0,.11-1.33q0-.95.09-2t.1-2c0-.64,0-1.09,0-1.34V229.6l-.15-.19H239.66c0,.28,0,.77,0,1.48v6q0,.34,0,1.19c0,.57,0,1.17,0,1.82s0,1.25,0,1.8,0,.95,0,1.17a1.27,1.27,0,0,1-.25,1,1,1,0,0,1-.89.44,1.11,1.11,0,0,1-.89-.38,2.46,2.46,0,0,1-.47-.83q0-.72,0-2.52t-.09-3.84q-.06-2-.1-3.85t0-2.52v-1a5.56,5.56,0,0,1,.06-.72,5.31,5.31,0,0,1,.17-.8,4.49,4.49,0,0,1,.42-.68,1.06,1.06,0,0,1,.72-.26h12.28a1.73,1.73,0,0,1,.91.23,1.87,1.87,0,0,1,.63.63,3.6,3.6,0,0,1,.38.83,2.93,2.93,0,0,1,.13.85q0,2.16-.17,4.24t-.17,4.21c0,.18,0,.39,0,.64s0,.52,0,.8.06.63.09.89a1.27,1.27,0,0,0,.29.66,2.12,2.12,0,0,0,1.46.89q1,.17,1.93.28a7.39,7.39,0,0,1,1.69.38,1.24,1.24,0,0,1,.28,2.07,1.58,1.58,0,0,1-1,.32,16.3,16.3,0,0,1-2.84-.23,5.52,5.52,0,0,1-2.16-.79,5.11,5.11,0,0,1-1.5-1.54A7.12,7.12,0,0,1,249.62,239.79Z"/><path class="cls-4" d="M265,242.48a1.11,1.11,0,0,1,.29-.72,1.15,1.15,0,0,1,.66-.42q1,0,2.1,0a12.26,12.26,0,0,0,2.1-.21c.13-.05.19-.09.19-.13v-.32q-.23-1.71-.36-3.31t-.13-3.31v-2a1.46,1.46,0,0,1,.47-.64,1.14,1.14,0,0,1,.74-.3,1.08,1.08,0,0,1,.87.42,1.86,1.86,0,0,1,.42,1v2.54c0,.15,0,.41.06.78s.08.75.12,1.15.07.8.09,1.17,0,.64.06.8,0,.33.08.55.08.42.11.61.07.36.1.51l0,.23.19.15a1,1,0,0,0,.3,0h.42l.63,0,.51,0a3.5,3.5,0,0,0,.49,0l.64,0,.53-.06.19,0,.19-.15v-19h-9.55a.7.7,0,0,1-.59-.44,1.58,1.58,0,0,1-.25-.74,1.39,1.39,0,0,1,.25-.7.81.81,0,0,1,.59-.44l.42,0c.2,0,.42-.06.64-.11l.68,0,.42,0,1.18,0,2.06,0,2.5,0q1.34,0,2.56,0l2.33,0,1.65,0h8a.89.89,0,0,1,.63.45,1.55,1.55,0,0,1,.17.7,1.92,1.92,0,0,1-.17.76.77.77,0,0,1-.62.47l-10.19.26v10.23l.95.23h7.2c.23,0,.44.16.63.47a4.15,4.15,0,0,1,.36.7v.11a.88.88,0,0,1-.19.55,2.12,2.12,0,0,1-.46.44,1.24,1.24,0,0,1-.19.15.38.38,0,0,1-.15.08h-8.14l-.15.27v1.55q0,.45,0,1.15c0,.47,0,.92.06,1.35s.05,1,.08,1.59l.3.3a3.92,3.92,0,0,0,.79,0H282q2.54,0,5-.17t5-.17a2.56,2.56,0,0,1,1.06.19,1,1,0,0,1,.46,1,1.21,1.21,0,0,1-.42,1,1.51,1.51,0,0,1-1,.36l-22.43.79h-2.31a4.45,4.45,0,0,1-1.08-.06,2,2,0,0,1-.93-.4A1.1,1.1,0,0,1,265,242.48Z"/><path class="cls-4" d="M307.86,236.08a2.25,2.25,0,0,0-.53.57,3.43,3.43,0,0,1-.36.63,2.26,2.26,0,0,1-.49.49,1.16,1.16,0,0,1-.7.21,1.45,1.45,0,0,1-.91-.26,1,1,0,0,1-.34-.87.18.18,0,0,1,0-.08.2.2,0,0,0,0-.09.92.92,0,0,1,.08-.25.4.4,0,0,0,.08-.23l5.34-9.55v-.11a18.43,18.43,0,0,0-2,.11,10.43,10.43,0,0,1-2,.19,2.22,2.22,0,0,1-1.08-.3,1,1,0,0,1-.55-.87,1.07,1.07,0,0,1,.47-1,2.73,2.73,0,0,1,1.08-.36,7.09,7.09,0,0,0,.95-.15l1.72-.17,1.71-.19,1-.13a1.08,1.08,0,0,0,.74-.3,6.68,6.68,0,0,0,.47-.79c.13-.2.32-.56.59-1.08s.54-1.08.81-1.69.58-1.1.83-1.63a11.57,11.57,0,0,0,.61-1.1,1.1,1.1,0,0,1,.42-.38,2.2,2.2,0,0,1,.61-.08,1,1,0,0,1,1.17,1.17,2.43,2.43,0,0,1-.06.57,2.46,2.46,0,0,1-.29.61c-.08.15-.21.44-.4.85s-.4.84-.62,1.27a13.51,13.51,0,0,1-.57,1.27c-.2.39-.34.68-.42.85v.11q2.73,0,5.44-.06t5.44-.06a3.9,3.9,0,0,1,1.23.21.93.93,0,0,1,.63,1,2.34,2.34,0,0,1-.17.85.74.74,0,0,1-.78.44l-13.37.49q-.15,0-.74.81t-1.17,1.82q-.59,1-1.08,2a3.79,3.79,0,0,0-.49,1.31c0,.05,0,.14,0,.27s0,.2,0,.23q.08.42.15,1.35c.05.62.1,1.23.15,1.84s.18,1.25.23,1.76.09.87.11,1a3.64,3.64,0,0,0,.1.61q.09.46.17,1l.15,1.14a8,8,0,0,1,.19.83,2.87,2.87,0,0,1,.08.28.35.35,0,0,0,.1.21.35.35,0,0,1,.09.09s.05.06.08.06h6.44l.11-.34v-.64a7.2,7.2,0,0,0,.08-.91v-1.67a7.17,7.17,0,0,0-.19-1.78h-.8a8.46,8.46,0,0,0-1.71.17,8.5,8.5,0,0,1-1.71.17,2.38,2.38,0,0,1-1.13-.3,1,1,0,0,1-.49-1,1.21,1.21,0,0,1,.21-.66,1,1,0,0,1,.59-.44l5-.83v-4.81a.61.61,0,0,1,.46-.57,2.28,2.28,0,0,1,.76-.23,1.14,1.14,0,0,1,1.21.8v.72q0,.57.06,1.16c0,.39,0,.76.06,1.12s0,.61,0,.76,0,.18,0,.4a.82.82,0,0,0,.1.38l.09.09q0,.11.08.11h4.24a.75.75,0,0,1,.3.19,3.25,3.25,0,0,1,.34.38v.46a1.17,1.17,0,0,1-.61,1.1,3.08,3.08,0,0,1-1.31.44,10.77,10.77,0,0,1-1.55.08q-.78,0-1.23,0l-.19.15v5l.08.08a.15.15,0,0,0,.11,0l.13.13a.18.18,0,0,0,.13.06l6.74-.64a1.84,1.84,0,0,1,1.12.29,1,1,0,0,1,.51.93,1.26,1.26,0,0,1-.21.83,2.2,2.2,0,0,1-.78.45l-2.18.23q-1.54.15-3.31.26t-3.33.3q-1.52.15-2.16.19l-1.14,0-1.74.06-1.76,0H312.1a1.5,1.5,0,0,1-.57.57,1.74,1.74,0,0,1-.68.11,1.09,1.09,0,0,1-1-.42,3.83,3.83,0,0,1-.47-1c-.05-.2-.11-.5-.19-.91s-.15-.73-.23-1.14-.17-.69-.27-1-.08-.48-.08-.53c0-.2-.08-.54-.17-1s-.17-1-.25-1.59-.18-1-.25-1.54S307.88,236.28,307.86,236.08Z"/><path class="cls-4" d="M345.17,246.61v-.21c0-.09,0-.13,0-.13l1.7-4.89a7.72,7.72,0,0,0,.21-.78c.11-.47.26-1,.44-1.72s.35-1.43.53-2.23.44-1.67.64-2.5.4-1.62.59-2.35.33-1.35.44-1.86a3.57,3.57,0,0,1,.1-.55q.09-.44.17-1c.08-.33.14-.68.21-1s.12-.65.17-.85v-.19a.23.23,0,0,0-.19-.27l-.34,0h-.26a8.25,8.25,0,0,0-2,.25,8.26,8.26,0,0,1-2,.25,2.12,2.12,0,0,1-1.06-.3.91.91,0,0,1-.45-.85,1.08,1.08,0,0,1,.47-.93,3.64,3.64,0,0,1,1.17-.53,9.09,9.09,0,0,1,1.54-.26c.55-.05,1.07-.11,1.55-.19s.92-.06,1.25-.11.59-.15.64-.3a.77.77,0,0,0,.08-.3,2.69,2.69,0,0,1,.08-.3c0-.15.05-.4.08-.76s.14-.66.19-1,.09-.66.11-1a3.58,3.58,0,0,0,.11-.55c0-.06,0-.21,0-.45s0-.49,0-.74,0-.5.06-.74,0-.4,0-.47a2.51,2.51,0,0,1,.36-1.12,1.12,1.12,0,0,1,1-.55,1.18,1.18,0,0,1,.95.4,1.49,1.49,0,0,1,.34,1,13.69,13.69,0,0,1-.34,3,14.16,14.16,0,0,0-.34,3.11s0,.12,0,.28a.28.28,0,0,0,.17.32l1.4,0,2.14,0,2.14.06,1.4,0,.63,0,.95.09.93.09a5.18,5.18,0,0,1,.64.08,2.67,2.67,0,0,1,1,.38,1.38,1.38,0,0,1,.72.91c0,.15,0,.44,0,.87s.05.88.08,1.36.13,1,.15,1.4,0,.72,0,.87v2.73q0,1-.08,2.52t-.3,3.2a28.7,28.7,0,0,1-.66,3.39,11.31,11.31,0,0,1-1.23,3,6.86,6.86,0,0,1-1.8,2.22,4.06,4.06,0,0,1-2.6.85,3.44,3.44,0,0,1-1.21-.23.81.81,0,0,1-.61-.91,1,1,0,0,1,.7-1.15,3,3,0,0,1,.72-.19,3.39,3.39,0,0,0,.78-.21,4,4,0,0,0,2.08-2.18,15.76,15.76,0,0,0,1.14-3.64,28.28,28.28,0,0,0,.47-3.86q.1-1.87.1-2.86V230.4a10.89,10.89,0,0,0-.08-1.12q-.08-.7-.11-1.35c0-.43-.06-.81-.11-1.14l0-.49-.3-.15-.44,0-1-.11q-.49-.08-1.06-.11l-.83,0h-.44l-.83,0-.95,0h-1.37l-.91,0-.93,0h-.53a.55.55,0,0,0-.49.46l-2.54,11.82a7,7,0,0,1-.23.91l-.59,2q-.32,1.08-.66,2.16c-.23.72-.4,1.29-.53,1.72-.1.28-.2.59-.3.93a4.73,4.73,0,0,1-.38.93,2.16,2.16,0,0,1-.64.76,1.34,1.34,0,0,1-.93.34.94.94,0,0,1-.81-.36A1.4,1.4,0,0,1,345.17,246.61Zm-1.06-29a1.11,1.11,0,0,1,1.21-1.17,1.6,1.6,0,0,1,.38,0,1.86,1.86,0,0,1,.45.23,2.92,2.92,0,0,0,.38.49l.63.68.61.63.44.44a4.66,4.66,0,0,0,.76.63,6,6,0,0,1,.7.53,2.77,2.77,0,0,1,.53.63,1.65,1.65,0,0,1,.21.87,1.09,1.09,0,0,1-.3.78,1.07,1.07,0,0,1-.81.32,2.77,2.77,0,0,1-1.38-.59,11.4,11.4,0,0,1-1.71-1.42,13.49,13.49,0,0,1-1.46-1.71A2.69,2.69,0,0,1,344.11,217.63Zm11,17.58a1.23,1.23,0,0,1,1.21-1.21,2.61,2.61,0,0,1,.42,0,3.49,3.49,0,0,1,.42.3l3.45,3.45a.76.76,0,0,1,.23.42,1.33,1.33,0,0,1,.12.53,1.16,1.16,0,0,1-.3.8,1,1,0,0,1-.76.34h-.49a.55.55,0,0,1-.38-.19l-3.75-3.75-.11-.27a.52.52,0,0,1,0-.23v-.23Z"/><path class="cls-4" d="M380.14,225.55l-.85.74a1.4,1.4,0,0,1-.93.25q-1.06,0-1.06-1.1a2.81,2.81,0,0,1,.07-.68,1.35,1.35,0,0,1,.38-.61l5.65-5.65.45-.38a1.62,1.62,0,0,1,.57-.11,1,1,0,0,1,.83.42,1.41,1.41,0,0,1,.34.91,1.51,1.51,0,0,1-.23.79,3.63,3.63,0,0,1-.57.72q-.34.34-.68.63c-.23.19-.4.35-.53.47a2,2,0,0,0-.3.29l-.29.34a3.43,3.43,0,0,1-.28.32,4,4,0,0,0-.08,1.1l1.55,8.64v.57a3,3,0,0,1-.19,1.14,1,1,0,0,1-1,.53,1,1,0,0,1-.93-.44,2.84,2.84,0,0,1-.4-1c0-.1-.06-.3-.1-.61s-.09-.65-.15-1-.11-.74-.15-1-.06-.5-.08-.59a4.76,4.76,0,0,0-.13-.53,7.33,7.33,0,0,1-.19-.93,4.89,4.89,0,0,0-.23-.87,3.17,3.17,0,0,1-.08-.53s0-.16,0-.32,0-.35-.08-.55a2.79,2.79,0,0,0-.17-.57A.9.9,0,0,0,380.14,225.55Zm-.34,18.64a8.05,8.05,0,0,1,.17-1.65q.17-.81.29-1.57a1.61,1.61,0,0,1,.42-.93,1.24,1.24,0,0,1,.95-.36,1,1,0,0,1,.93.44,2,2,0,0,1,.25,1c0,.23,0,.58,0,1.06a7.42,7.42,0,0,1-.23,1.52A4.3,4.3,0,0,1,382,245a1.14,1.14,0,0,1-1,.55,1,1,0,0,1-.85-.44A1.49,1.49,0,0,1,379.8,244.19Zm4.85-3.14v-.95a3,3,0,0,0,0-.49v-.38a3.6,3.6,0,0,1,.47-1.35,1.26,1.26,0,0,1,1.15-.7,1.12,1.12,0,0,1,.85.4,1.29,1.29,0,0,1,.36.89,4.4,4.4,0,0,1-.17,1.23,4.55,4.55,0,0,0-.17,1.27q0,.8.06,1.44a3,3,0,0,0,.28,1.1,2.19,2.19,0,0,0,.7.79,4.06,4.06,0,0,0,1.35.57,23.53,23.53,0,0,0,2.73.53,15.05,15.05,0,0,0,2.8.26,9.07,9.07,0,0,0,4.62-1.25.86.86,0,0,0,.27-.62c0-.24,0-.47,0-.68a.78.78,0,0,1,.23-.53,1.4,1.4,0,0,1,.93-.21,1,1,0,0,1,1,.68,4.31,4.31,0,0,1,.21,1.25,2.61,2.61,0,0,1-.81,2,5.46,5.46,0,0,1-2,1.16,11.78,11.78,0,0,1-2.43.55,19.08,19.08,0,0,1-2.22.15,22.37,22.37,0,0,1-3.09-.21q-1.5-.21-3-.55a7.49,7.49,0,0,1-2.31-.89,4,4,0,0,1-1.31-1.31,4.39,4.39,0,0,1-.57-1.8A21.9,21.9,0,0,1,384.65,241Zm2.84-9.32c0-.15,0-.29,0-.42a1.24,1.24,0,0,1,.13-.42l.25-.42q.21-.34.47-.74a7.56,7.56,0,0,0,.46-.78q.26-.34.42-.57a1.2,1.2,0,0,1,.42-.38,2.35,2.35,0,0,1,.57-.08,1.2,1.2,0,0,1,.85.34,1,1,0,0,1,.36.78,2.94,2.94,0,0,1-.27,1.08,6.21,6.21,0,0,1-.68,1.23,6.05,6.05,0,0,1-.91,1,1.44,1.44,0,0,1-.91.44,1.26,1.26,0,0,1-.83-.28A1,1,0,0,1,387.49,231.72Zm12.84-6.06a.53.53,0,0,1,0-.23l.95-4.24v-.49c0-.1-.06-.15-.19-.15l-1.21-.15h-7.84a.34.34,0,0,0-.17.06l-.15.09-.15.09c-.06,0-.09.07-.09.09v4.7a.77.77,0,0,1-.44.7,1.76,1.76,0,0,1-.87.25,1.21,1.21,0,0,1-.76-.25,1.07,1.07,0,0,1-.4-.7c0-.2,0-.55,0-1s0-1,0-1.57,0-1.08,0-1.57,0-.84,0-1v-.64c0-.25,0-.64,0-1.16a14.56,14.56,0,0,1,.06-1.65,3.64,3.64,0,0,1,.46-1.36,1.15,1.15,0,0,1,1.1-.64,1.2,1.2,0,0,1,.85.34,1.07,1.07,0,0,1,.36.8,2.77,2.77,0,0,1-.09.7,2.7,2.7,0,0,0-.1.7s0,.11,0,.26.07.23.17.23h9.09a5.06,5.06,0,0,1,1.12.13,3.54,3.54,0,0,1,1.08.44,2.87,2.87,0,0,1,.81.74,1.76,1.76,0,0,1,.32,1.08v.23l-1.44,6.1a1.21,1.21,0,0,1-.49.72,1.31,1.31,0,0,1-.76.27.9.9,0,0,1-.91-.49,2,2,0,0,1-.23-1Zm-9.55,15.61-.34-.49a1.17,1.17,0,0,1-.11-.53,1.29,1.29,0,0,1,.38-.87,1.21,1.21,0,0,1,.82-.34,2.46,2.46,0,0,1,1,.25,5.79,5.79,0,0,1,1,.61,3.94,3.94,0,0,1,.83.81,1.54,1.54,0,0,1,.34.93,1,1,0,0,1-.32.78,1.14,1.14,0,0,1-.81.3,2.19,2.19,0,0,1-1.44-.44C391.8,242,391.34,241.65,390.79,241.27Zm1.71-8.07v-.3a.83.83,0,0,1,0-.26,1.08,1.08,0,0,1,.55-.42l.57-.13a.89.89,0,0,0,.47-.25c.15-.08.24-.29.27-.64v-1.71q0-1.1-.08-2.2t-.08-2.2v-.55a2.29,2.29,0,0,1,0-.55,1.24,1.24,0,0,1,.42-.64,1.08,1.08,0,0,1,.72-.3,1.15,1.15,0,0,1,.74.3,1.21,1.21,0,0,1,.44.64,13.52,13.52,0,0,1,.3,2.61q0,1.17,0,2.65v1.55c0,.33,0,.6,0,.81s0,.35,0,.4q0,.42,0,1a3.78,3.78,0,0,1-.17,1,1.82,1.82,0,0,1-.49.8,1.32,1.32,0,0,1-.95.32,4.48,4.48,0,0,1-.91-.11,2.91,2.91,0,0,1-.87-.38,2.76,2.76,0,0,1-.7-.62A1.28,1.28,0,0,1,392.49,233.2Zm6.44-3.11a1.16,1.16,0,0,1,.34-.91,1.38,1.38,0,0,1,.95-.3,2.13,2.13,0,0,1,1,.36,7.05,7.05,0,0,1,1.19.91,6.71,6.71,0,0,1,1,1.14,1.9,1.9,0,0,1,.4,1,1.08,1.08,0,0,1-1.14,1.17,2.07,2.07,0,0,1-1-.4,12.8,12.8,0,0,1-1.27-.93,14.17,14.17,0,0,1-1.06-1.1A1.75,1.75,0,0,1,398.93,230.09Zm5.8,9.77a1.41,1.41,0,0,1,.34-.91,1.29,1.29,0,0,1,.87-.38,1.08,1.08,0,0,1,.72.23,2.11,2.11,0,0,1,.46.57,3.4,3.4,0,0,0,.28.59q.21.36.42.76l.38.74c.11.23.18.37.21.44a1.76,1.76,0,0,1,.08.29,3.13,3.13,0,0,1,0,.34.94.94,0,0,1-.38.85,1.59,1.59,0,0,1-.89.25,1.26,1.26,0,0,1-.87-.32,3.34,3.34,0,0,1-.66-.85q-.23-.46-.44-1c-.14-.34-.26-.62-.36-.85a2.76,2.76,0,0,0-.19-.38Z"/><path class="cls-4" d="M75.72,333.55q0-1.77.14-3.54t.14-3.54v-.88l-.27-.34a19,19,0,0,1-2.31.48,14.09,14.09,0,0,1-2.11.14,2.94,2.94,0,0,1-1.87-.61,2.19,2.19,0,0,1-.78-1.84,3.15,3.15,0,0,1,.27-1.29,1.69,1.69,0,0,1,1.16-.75q1.43-.14,3.33-.37a16.94,16.94,0,0,0,3.47-.78,3.34,3.34,0,0,0,.41-1.29q.07-.68.07-1.36v-1H75.72a9.41,9.41,0,0,1-2-.2,3.85,3.85,0,0,1-1.63-.75,2,2,0,0,1-.68-1.63,3.21,3.21,0,0,1,.44-1.19q.44-.85,1-.85h4.49l.61-.48L79.33,294a1.82,1.82,0,0,1,.92-1.29,2.8,2.8,0,0,1,1.43-.48,8.26,8.26,0,0,1,1.12.07,6.32,6.32,0,0,1,1.09.27l25,.82c.14,0,.43,0,.88.07l1.7.14a14,14,0,0,0,1.77.27c.54,0,1,.09,1.29.14a2.69,2.69,0,0,1,1.43.71,1.85,1.85,0,0,1,.61,1.39q0,2.38-2.52,2.38-7.21,0-14.39-.58t-14.39-.58H84.16c-.18,0-.27.11-.27.34a5.87,5.87,0,0,1-.21.88c0,.5-.07.86-.07,1.09q-.13,1.16-.37,3.95t-.54,6q-.3,3.23-.51,6t-.34,3.95q-.07.34-.17,1.05t-.24,1.46a7.51,7.51,0,0,1-.27,1.57,8,8,0,0,1-.13,1q-.07.61-.21,2.08t-.41,3.1q-.14,1.7-.27,3.13t-.27,2.18a3.31,3.31,0,0,1-.71,1.29,2.26,2.26,0,0,1-1.46.34,4.05,4.05,0,0,1-1.26-.17,1.2,1.2,0,0,1-.71-.92Zm12.11-1.63q0-5-.07-10.27t.34-10.21s0-.34.07-.88a9.15,9.15,0,0,0,.27-1.77q.13-.88.27-1.87c.09-.66.18-1.19.27-1.6a3.3,3.3,0,0,1,1.67-2.62,10.25,10.25,0,0,1,3.27-1.19,18.29,18.29,0,0,1,3.71-.31l3.2,0,1.46,0,1,0a8.31,8.31,0,0,1,1.09.14q.82.14,1.8.24t1.94.27l1.43.24q1.15.2,2.11.34a8.1,8.1,0,0,1,1.84.54,4.06,4.06,0,0,1,1.22,1.19,3.59,3.59,0,0,1,.48,2,47.83,47.83,0,0,1-.31,5.38,48.28,48.28,0,0,0-.3,5.38,31.06,31.06,0,0,0,.37,5.14,25.68,25.68,0,0,0,1.39,4.86,1.32,1.32,0,0,0,.85.85,3.77,3.77,0,0,0,1.33.24h7.62a1.16,1.16,0,0,1,1.05.71,2.8,2.8,0,0,1,.37,1.26,2.31,2.31,0,0,1-.68,1.7,3.29,3.29,0,0,1-1.56,1.09h-1.7l-2.55,0a26.69,26.69,0,0,1-3.54-.17,13.28,13.28,0,0,1-3.37-.82,2.85,2.85,0,0,1-1.84-1.84l-2.24-7.62v-4.29q0-2.52.13-5t.14-4.9v-1a2.26,2.26,0,0,0-1.12-.51l-1.7-.34q-.92-.17-1.73-.24t-1.36-.07H96.81l-.88.07a4.22,4.22,0,0,0-1.09.2,5.33,5.33,0,0,0-.68.1.82.82,0,0,0-.68.44q-.07,1.36-.17,3.67a33.87,33.87,0,0,1-.37,3.95l-1,20.89a1.25,1.25,0,0,1-.68,1.22,2.38,2.38,0,0,1-1.36.48,2.26,2.26,0,0,1-1.43-.48,1.64,1.64,0,0,1-.68-1.22Zm7.82-6.53a2.26,2.26,0,0,1,.34-1.22,9.12,9.12,0,0,1,.82-.85,9.53,9.53,0,0,0,.82-.85,2.2,2.2,0,0,0,.61-1.09c-.09-.09-.26-.28-.51-.58s-.52-.59-.82-.88-.56-.57-.78-.82a3,3,0,0,1-.41-.51,6.49,6.49,0,0,1-.54-.88,3.13,3.13,0,0,1-.07-.75,2.09,2.09,0,0,1,2.11-2.11,2,2,0,0,1,1.16.34l1,.92q.48.44.88.85a1.81,1.81,0,0,0,1.22.48,1.28,1.28,0,0,0,1-.65,13.12,13.12,0,0,0,1-1.53,11.85,11.85,0,0,1,1.22-1.43,2.31,2.31,0,0,1,1.7-.68,1.93,1.93,0,0,1,1.46.61,2.1,2.1,0,0,1,.58,1.5,2.64,2.64,0,0,1-.44,1.53q-.44.65-1,1.29c-.34.43-.66.86-1,1.29a2.41,2.41,0,0,0-.44,1.39,1.2,1.2,0,0,0,.61,1q.61.41,1.36.85a6.85,6.85,0,0,1,1.36,1.05,2.12,2.12,0,0,1,.61,1.56,2,2,0,0,1-.51,1.6,2.28,2.28,0,0,1-1.53.44,3,3,0,0,1-1.56-.41c-.46-.27-.9-.55-1.33-.85l-1.26-.88a2.17,2.17,0,0,0-1.29-.44h-.14a9.66,9.66,0,0,1-1.29,1.16q-.88.82-1.26,1.12a1.22,1.22,0,0,1-.78.31h-.88a2.26,2.26,0,0,1-1.43-.48A1.7,1.7,0,0,1,95.65,325.38Zm-.2-40.62a2.1,2.1,0,0,1,.58-1.5,1.92,1.92,0,0,1,1.46-.61,6.93,6.93,0,0,1,.71,0,.9.9,0,0,1,.58.38l5.1,5a.84.84,0,0,1,.34.68v.82a1.68,1.68,0,0,1-1.91,1.91,3.61,3.61,0,0,1-1.84-.51,8.47,8.47,0,0,1-1.63-1.22,17,17,0,0,1-1.39-1.5q-.65-.78-1.19-1.33A3.09,3.09,0,0,1,95.45,284.76Z"/><path class="cls-4" d="M134.3,328.45a3.9,3.9,0,0,1,.58-2.18,2.22,2.22,0,0,1,2-.88,4.1,4.1,0,0,1,2.62.78,2.9,2.9,0,0,1,1,2.42,2.55,2.55,0,0,1-1.05,2.11,3.65,3.65,0,0,1-2.28.82,2.64,2.64,0,0,1-2.14-.85A3.32,3.32,0,0,1,134.3,328.45Zm2.59-16.26v-.71a1.22,1.22,0,0,1,.07-.58l4-20.14a4.21,4.21,0,0,1,.71-1.73,1.77,1.77,0,0,1,1.53-.85,2,2,0,0,1,1.63.85,2.69,2.69,0,0,1,.68,1.67V291a.33.33,0,0,1-.07.24l-4,20.14a6.66,6.66,0,0,1-.71,2.14,2,2,0,0,1-1.87.92,1.8,1.8,0,0,1-1.56-.58A2.88,2.88,0,0,1,136.89,312.18Z"/><path class="cls-4" d="M165.73,330.15a1.77,1.77,0,0,1,2-2,2.79,2.79,0,0,1,1.33.31,2.79,2.79,0,0,0,1.33.31c.23,0,.38-.14.48-.41a1.87,1.87,0,0,0,.31-.71,6,6,0,0,0,.14-.85c0-.27,0-.44,0-.51v-.58q0-.48,0-1.09t0-1.22v-3.88a11.75,11.75,0,0,0-.34-2.86l-.27-.34a31.77,31.77,0,0,1-5,3.95q-2.52,1.7-5.65,3.67a1.68,1.68,0,0,1-.75.2,1.8,1.8,0,0,1-.68.14,2.3,2.3,0,0,1-1.6-.58,2,2,0,0,1-.65-1.6,2,2,0,0,1,.41-1.22q.47-.41,1-.88l1.43-1,2.14-1.43q1.12-.75,2.07-1.43l1.5-1c.41-.27.86-.6,1.36-1a14.81,14.81,0,0,0,1.43-1.26,9,9,0,0,0,1.19-1.46,2.88,2.88,0,0,0,.51-1.6v-.61a13.19,13.19,0,0,1-.61-1.26q-.34-.78-.78-1.63a10.92,10.92,0,0,0-1-1.56,5.71,5.71,0,0,0-1.09-1.12s0-.07-.14-.07l-.07.07-6.46,6.4a2.8,2.8,0,0,1-2,1,1.89,1.89,0,0,1-2.11-2.18,3.42,3.42,0,0,1,.1-1,2.34,2.34,0,0,1,.58-.78l6.74-7.35v-.27a12.1,12.1,0,0,1-1-1.16q-.34-.47-.82-1a5.17,5.17,0,0,0-.68-.88,15.28,15.28,0,0,0-1.19-1.19,16.46,16.46,0,0,1-1.4-1.43,14.19,14.19,0,0,1-1.19-1.56,2.89,2.89,0,0,1-.51-1.6,2.09,2.09,0,0,1,2.18-2.18,2.9,2.9,0,0,1,1.29.34q1.7,1.63,3.33,3.47t3.33,3.54a14.61,14.61,0,0,0,1.5-1.6,10.77,10.77,0,0,0,1.29-2,11.58,11.58,0,0,0,1-2q.54-1,1-1.77a2.15,2.15,0,0,1,1.84-.82,1.93,1.93,0,0,1,1.46.71,2.33,2.33,0,0,1,.65,1.6v.27a9.21,9.21,0,0,1-.82,2.42,16.75,16.75,0,0,1-1.5,2.48q-.75,1.23-1.53,2.35t-1.46,2a.06.06,0,0,0-.07.07v.07a1.9,1.9,0,0,0,.27,1c.27.41.52.82.75,1.22s.61.81.88,1.19l.68,1a48,48,0,0,1,2.69,6.23,20,20,0,0,1,1.19,6.7v10.68a8,8,0,0,1-.3,2,9.85,9.85,0,0,1-.88,2.21,7.14,7.14,0,0,1-1.43,1.84,2.71,2.71,0,0,1-1.87.78,4.85,4.85,0,0,1-1.77-.37,8.9,8.9,0,0,1-1.84-1,5,5,0,0,1-1.43-1.26A2.65,2.65,0,0,1,165.73,330.15Zm11,1.84a3.08,3.08,0,0,1,.51-1.36q.51-.88.92-.88h14.63l.54-.48a7.74,7.74,0,0,1,.17-.78,2.94,2.94,0,0,0,.1-.78,2.09,2.09,0,0,1,.07-.61q.14-1.84.17-3.13t0-2.79V320q0-.54-.07-2t-.2-3.16q-.14-1.67-.21-3.13t-.07-2h-7a1.74,1.74,0,0,1-1.39-.71,2.27,2.27,0,0,1-.58-1.43,2,2,0,0,1,.51-1.33,2.06,2.06,0,0,1,1.19-.75c.18,0,.52,0,1-.07a12,12,0,0,0,1.77-.27l1.73-.14a10.93,10.93,0,0,0,1.12-.14q.82-.07,1.22-.14c.27,0,.41-.36.41-1q0-3.2-.27-6.63t-.27-6.63l-.27-.2a4.72,4.72,0,0,0-1.09-.2Q190.5,290,190,290h-2a21,21,0,0,0-2.45.14,20.35,20.35,0,0,1-2.38.14,3,3,0,0,1-1.7-.54,1.77,1.77,0,0,1-.82-1.57,1.87,1.87,0,0,1,.48-1.33,3.82,3.82,0,0,1,1.09-.82,5.1,5.1,0,0,1,1.33-.44,7.13,7.13,0,0,1,1.33-.14h11.84q1.9.14,3.95.17t3.88.1q1.84.07,2.59.07a6.24,6.24,0,0,1,2.31.54,2,2,0,0,1,1,2,5.89,5.89,0,0,1-.17,1.22.9.9,0,0,1-1,.75h-11.5l-.27.2v2q0,2.45.07,4.35t.2,4.63q.07.61.21,1.5a2.93,2.93,0,0,0,.14,1l.54.27h9A1.74,1.74,0,0,1,209,305a2.39,2.39,0,0,1,.58,1.53,2.46,2.46,0,0,1-.75,1.53,2.11,2.11,0,0,1-1.57.85h-8.64s-.16.09-.34.27a3.26,3.26,0,0,0-.2.48v.2q0,2.59,0,4.93t.1,4.69q.07,2.35.07,4.66t0,5.1l.34.48h15.72c.32,0,.63.3,1,.88a3.25,3.25,0,0,1,.48,1.36,2.39,2.39,0,0,1-.54,1.36,1.49,1.49,0,0,1-1.16.75H178.46a1.53,1.53,0,0,1-1.22-.75A2.39,2.39,0,0,1,176.69,332Z"/><path class="cls-4" d="M221.73,328.45a3.89,3.89,0,0,1,.58-2.18,2.21,2.21,0,0,1,2-.88,4.1,4.1,0,0,1,2.62.78,2.9,2.9,0,0,1,1,2.42,2.55,2.55,0,0,1-1.05,2.11,3.66,3.66,0,0,1-2.28.82,2.64,2.64,0,0,1-2.14-.85A3.33,3.33,0,0,1,221.73,328.45Zm2.58-16.26v-.71a1.25,1.25,0,0,1,.07-.58l4-20.14a4.23,4.23,0,0,1,.71-1.73,1.77,1.77,0,0,1,1.53-.85,2,2,0,0,1,1.63.85,2.7,2.7,0,0,1,.68,1.67V291a.33.33,0,0,1-.07.24l-4,20.14a6.61,6.61,0,0,1-.71,2.14,2,2,0,0,1-1.87.92,1.8,1.8,0,0,1-1.57-.58A2.88,2.88,0,0,1,224.31,312.18Z"/><path class="cls-4" d="M256.57,331.3a1.68,1.68,0,0,1,.27-1c.18-.18.38-.37.61-.58a2.86,2.86,0,0,0,.54-.65.9.9,0,0,0,.34-.75v-3.95l-.34-.61-1,0-1.6-.1a8.25,8.25,0,0,1-1.5-.14H253a7.34,7.34,0,0,1-2.28-.54,1.8,1.8,0,0,1-1.19-1.84,2.61,2.61,0,0,1,.34-1.29,1.69,1.69,0,0,1,1.09-.82h5.92q1.29-.07,1.5-.48a3.72,3.72,0,0,0,.21-1.5v-1.43c0-.45-.07-1.05-.07-1.8s0-1.46-.07-2.14-.09-1.66-.14-2.52l-.34-.34h-8.1a1.54,1.54,0,0,1-1.22-.71,2.23,2.23,0,0,1-.54-1.33,1.94,1.94,0,0,1,1-1.84,5.63,5.63,0,0,1,2.18-.61l1.26,0,2-.1,1.94-.1,1.29,0,.27-.27v-18a1.44,1.44,0,0,1,.78-1.19,2.63,2.63,0,0,1,1.39-.51,2.33,2.33,0,0,1,1.33.51,1.68,1.68,0,0,1,.78,1.19l.61,17.62.75.61h5.1a1.33,1.33,0,0,1,1.09.78,5.69,5.69,0,0,1,.61,1.26v.14a1.47,1.47,0,0,1-.41,1.09,5.84,5.84,0,0,1-.75.75l-.27.27a1,1,0,0,1-.27.2h-5.1l-.47.68a1,1,0,0,0-.14.54v.82q0,2,.1,3.74t.24,3.88a.84.84,0,0,0,.38.07h.37a11.06,11.06,0,0,0,1.7-.14,11.3,11.3,0,0,1,1.7-.14,2.08,2.08,0,0,1,2.38,2.31,1.75,1.75,0,0,1-1.16,1.77,7.83,7.83,0,0,1-2.31.65l-2.35.31q-1.05.14-.92.82a11.43,11.43,0,0,1-.14,1.29q0,.88,0,2t-.1,2q-.07.92-.07,1.26a4.19,4.19,0,0,1-1,2.38,2.68,2.68,0,0,1-2.25,1,3.5,3.5,0,0,1-2-.61A1.79,1.79,0,0,1,256.57,331.3Zm18.91,2.38a2.24,2.24,0,0,1,1.09-1.91,9.47,9.47,0,0,1,2.42-1q1.39-.37,2.76-.82a3.53,3.53,0,0,0,2-1.39,3.59,3.59,0,0,0,.58-1.74c.07-.7.15-1.33.24-1.87q0-1.09.07-3.81t.27-5.78q.07-3.06.14-5.85t.07-3.67v-.61c0-.32,0-.68,0-1.09s0-.82,0-1.22V301q0-.61,0-1.22c0-.41,0-.76,0-1.05v-.51q0-.54-.07-1.5t0-1.63q0-.82-.1-1.43v-.61l-.61-.48-1.09-.07h-1.43a34.33,34.33,0,0,0-4.36.27,33.23,33.23,0,0,1-4.29.27,1.89,1.89,0,0,1-1.57-.68,2.52,2.52,0,0,1-.54-1.63q0-1.9,1.26-2.28a10.77,10.77,0,0,1,3-.37h.82a13.45,13.45,0,0,0,1.77-.14h10.75q3.13.14,6.94.34a4.51,4.51,0,0,1,1.53.71,1.83,1.83,0,0,1,.71,1.6,2.06,2.06,0,0,1-.65,1.56,2.24,2.24,0,0,1-1.6.61l-1,0c-.46,0-.93,0-1.43,0s-1,0-1.46,0l-1,0a4.87,4.87,0,0,0-.68.68,1.74,1.74,0,0,0-.41.75q.2,8.1-.07,16.13T289,326.4a8.54,8.54,0,0,1-6.46,8.17,7.3,7.3,0,0,1-.88.27,5.47,5.47,0,0,1-1.09.41l-1,.27a3.21,3.21,0,0,1-1.43.2,4.31,4.31,0,0,1-1.87-.37A1.66,1.66,0,0,1,275.48,333.68Z"/><path class="cls-4" d="M309.16,328.45a3.89,3.89,0,0,1,.58-2.18,2.21,2.21,0,0,1,2-.88,4.1,4.1,0,0,1,2.62.78,2.9,2.9,0,0,1,1,2.42,2.55,2.55,0,0,1-1.05,2.11,3.66,3.66,0,0,1-2.28.82,2.64,2.64,0,0,1-2.14-.85A3.33,3.33,0,0,1,309.16,328.45Zm2.58-16.26v-.71a1.25,1.25,0,0,1,.07-.58l4-20.14a4.23,4.23,0,0,1,.71-1.73,1.77,1.77,0,0,1,1.53-.85,2,2,0,0,1,1.63.85,2.7,2.7,0,0,1,.68,1.67V291a.33.33,0,0,1-.07.24l-4,20.14a6.61,6.61,0,0,1-.71,2.14,2,2,0,0,1-1.87.92,1.8,1.8,0,0,1-1.57-.58A2.88,2.88,0,0,1,311.74,312.18Z"/><path class="cls-4" d="M368.08,323a6.51,6.51,0,0,1,.85-3.13,12.09,12.09,0,0,0,1.19-3.06q.61-3.68,1.16-7.62a56.19,56.19,0,0,0,.54-7.69v-.78c0-.25-.21-.42-.61-.51a35.08,35.08,0,0,0-8.5-1.77q-4.29-.34-8.71-.34h-1.91a4.21,4.21,0,0,1-1,.14h-.41l-2.52.48-.34.34q-.07,2.79-.27,5.61t-.54,5.68a1.94,1.94,0,0,1-2.11,1.43,2.88,2.88,0,0,1-1.43-.34,1.63,1.63,0,0,1-.68-1.09c0-.18,0-.53,0-1.05s0-.89,0-1.12q0-4.69.34-9.53t.82-9.46a2.45,2.45,0,0,1,.88-1.63,3.14,3.14,0,0,1,1.8-.61,2.14,2.14,0,0,1,1.57.65,2,2,0,0,1,.65,1.46,5.13,5.13,0,0,1-.27,1.63,8.64,8.64,0,0,0-.13,1.57v.61a1.14,1.14,0,0,0,.07.54l.27.27h11.23a4.37,4.37,0,0,0,1.16.21c.54,0,.93.07,1.16.07l.82.07a13.49,13.49,0,0,0,1.36.07l1.5.1.82,0q.68.07,2.18.34a19.53,19.53,0,0,1,3.2.82,11.61,11.61,0,0,1,3,1.39,2.39,2.39,0,0,1,1.26,1.94v2.45q0,.88-.07,3t-.41,4.73q-.21,2.79-.68,5.65a31.73,31.73,0,0,1-1,5.24,13.86,13.86,0,0,1-1.6,4,2.8,2.8,0,0,1-2.35,1.57Q368.08,325.32,368.08,323Zm-16.6,8.71a2.36,2.36,0,0,1-1.6-1.09,4.24,4.24,0,0,1-.37-1.91,22.93,22.93,0,0,1,.37-4.15,36,36,0,0,0,.51-4.08c0-.41,0-1.12,0-2.14s0-2.1,0-3.23.15-2.14.17-3.16,0-1.74,0-2.14c.09-.72.19-1.39.31-2a4.32,4.32,0,0,1,.61-1.6A4.2,4.2,0,0,1,352.7,305a4.82,4.82,0,0,1,2-.34,24.76,24.76,0,0,1,2.93.17l2.93.37a20.6,20.6,0,0,1,2.42.38,5.9,5.9,0,0,1,1.73.65,3.72,3.72,0,0,1,1.16,1.36,7.17,7.17,0,0,1,.34,2.38,19.13,19.13,0,0,1-.3,2.69,35.1,35.1,0,0,1-.85,3.81,22.73,22.73,0,0,1-1.26,3.47q-.71,1.53-1.53,1.6l-1.05,0q-.71,0-1.53,0c-.5.09-1,.16-1.56.2s-.77.07-1,.07q-1.84.14-2.24.88a9.31,9.31,0,0,0-.27,2.58v1.84q.21.48,1.33.71a18.56,18.56,0,0,0,2.48.34c.91.07,1.79.1,2.65.1h2a38.82,38.82,0,0,0,6.12-.48,51.89,51.89,0,0,1,6-.34,4.82,4.82,0,0,1,2,.34,1.83,1.83,0,0,1,.88,1.77,2,2,0,0,1-.75,1.67,3.61,3.61,0,0,1-1.77.71l-1.94.2-2.59.27-2.38.24q-1.05.1-1.26.1h-.61q-.54,0-1.19,0t-1.29,0h-2q-.61,0-1.22,0l-1.05,0h-.58c-.27,0-.79,0-1.56-.14s-1.59-.23-2.45-.41l-2.38-.27A6.11,6.11,0,0,1,351.48,331.71Zm5.31-22.25a2.27,2.27,0,0,0-1.22.34,1.14,1.14,0,0,0-.41,1v6.26l.27.34h.34a6.24,6.24,0,0,0,.71-.07c.34,0,.71-.11,1.12-.2a6.46,6.46,0,0,0,1-.07h.75a1.31,1.31,0,0,0,.51-.58,5.29,5.29,0,0,0,.41-1q.17-.58.27-1.09a2.12,2.12,0,0,1,.24-.71,4.8,4.8,0,0,0,.24-.82c.07-.32.16-.67.27-1.05s.24-.78.37-1.19l-.27-.61-.48-.07-1.05-.14a5.83,5.83,0,0,1-1.19-.27,9.37,9.37,0,0,0-1-.07Z"/><path class="cls-4" d="M396.59,328.45a3.9,3.9,0,0,1,.58-2.18,2.22,2.22,0,0,1,2-.88,4.1,4.1,0,0,1,2.62.78,2.9,2.9,0,0,1,1,2.42,2.55,2.55,0,0,1-1.05,2.11,3.65,3.65,0,0,1-2.28.82,2.64,2.64,0,0,1-2.14-.85A3.32,3.32,0,0,1,396.59,328.45Zm2.59-16.26v-.71a1.22,1.22,0,0,1,.07-.58l4-20.14A4.21,4.21,0,0,1,404,289a1.77,1.77,0,0,1,1.53-.85,2,2,0,0,1,1.63.85,2.69,2.69,0,0,1,.68,1.67V291a.33.33,0,0,1-.07.24l-4,20.14a6.66,6.66,0,0,1-.71,2.14,2,2,0,0,1-1.87.92,1.8,1.8,0,0,1-1.56-.58A2.88,2.88,0,0,1,399.17,312.18Z"/><path class="cls-4" d="M435.23,322.39a9.85,9.85,0,0,0-1.94-.51,3.24,3.24,0,0,1-1.33-.44,1.57,1.57,0,0,1-.85-.82,5.3,5.3,0,0,1-.37-2q.07-4.49-.1-8.78t-.17-8.71v-2.25a2.9,2.9,0,0,1,1.84-2.28,10.72,10.72,0,0,1,3.2-.58h8.71l.61-.2q0-.54,0-1.84t0-2.72q0-1.43,0-2.72c0-.86,0-1.45,0-1.77,0-.5,0-1,0-1.46a4.22,4.22,0,0,1,.27-1.33,2.39,2.39,0,0,1,.75-1,2.06,2.06,0,0,1,1.33-.41,2.36,2.36,0,0,1,1.39.41,1.84,1.84,0,0,1,.71,1.29q0,.41,0,1.46c0,.7,0,1.42,0,2.14s0,1.57,0,2.25,0,1.16,0,1.43a5.21,5.21,0,0,0,.1.68q.1.54.17,1.16t.14,1.22a7.06,7.06,0,0,0,.14.88,2,2,0,0,0,.07.34c.14.14.23.2.27.2.27,0,.82,0,1.63.07s1.76.25,2.69.34l2.65.27a15.58,15.58,0,0,1,1.8.27,4.27,4.27,0,0,1,.54.07c.36.09.74.17,1.12.24a11,11,0,0,1,1.16.27l.78.24a4.91,4.91,0,0,1,1.63.88,2,2,0,0,1,.88,1.63v.85c0,.43,0,.87,0,1.33s0,.88,0,1.29v2q0,.71,0,1.43c0,.48,0,.9,0,1.26v.61q0,.2-.1,1.36t-.2,2.58q-.1,1.43-.31,2.79t-.2,2.24a4.56,4.56,0,0,1-1.05,2.59,3.24,3.24,0,0,1-2.62,1.09h-9.05l-.51.1a3.13,3.13,0,0,0-.58.17l-.31.14c-.11,0-.17.11-.17.2v11.77a3.7,3.7,0,0,1-.71,2.08,2.07,2.07,0,0,1-1.73,1.05,2.54,2.54,0,0,1-1.39-.54,1.52,1.52,0,0,1-.78-1.23V322.39Zm0-5.65q.13.89,1.26,1c.75.07,1.33.1,1.74.1h3.61a7.62,7.62,0,0,0,3.54-.54,9.93,9.93,0,0,0,.38-3.06q0-1.7,0-2.92v-4.15q0-.75,0-1.74t-.14-1.94c-.07-.63-.12-1.18-.17-1.63v-.68l-.27-.27h-9.59l-.27.2a1.43,1.43,0,0,0-.27.41v.21c0,.09,0,.29,0,.61s.06.65.1,1,.08.67.1,1,0,.5,0,.54Zm15-13.27q0,1.5,0,3.71t.1,4.35q.07,2.14.07,3.64l.07,1.57.27.2h8.71l.34-.54s0-.42.1-1.12.16-1.54.27-2.52.21-2,.27-3,.13-1.83.17-2.42v-5a6.14,6.14,0,0,0-1.91-.82,12.48,12.48,0,0,0-2.28-.34q-1.19-.07-2.35,0c-.77,0-1.45,0-2,0h-1.56l-.27.34v2Z"/><path class="cls-4" d="M489.73,328.45a3.9,3.9,0,0,1,.58-2.18,2.22,2.22,0,0,1,2-.88,4.1,4.1,0,0,1,2.62.78,2.89,2.89,0,0,1,1,2.42,2.55,2.55,0,0,1-1.05,2.11,3.65,3.65,0,0,1-2.28.82,2.64,2.64,0,0,1-2.14-.85A3.32,3.32,0,0,1,489.73,328.45Zm2.59-16.26v-.71a1.25,1.25,0,0,1,.07-.58l4-20.14a4.21,4.21,0,0,1,.71-1.73,1.77,1.77,0,0,1,1.53-.85,2,2,0,0,1,1.63.85,2.69,2.69,0,0,1,.68,1.67V291a.33.33,0,0,1-.07.24l-4,20.14a6.66,6.66,0,0,1-.71,2.14,2,2,0,0,1-1.87.92,1.8,1.8,0,0,1-1.56-.58A2.88,2.88,0,0,1,492.32,312.18Z"/></g></g></svg>