<svg xmlns="http://www.w3.org/2000/svg" width="551.02" height="606.73" viewBox="0 0 551.02 606.73"><defs><style>.cls-1{fill:#ffe400;}.cls-2{fill:#323232;}.cls-3{fill:#ffc900;}.cls-4{fill:#212121;}</style></defs><title>kuang2</title><g id="图层_2" data-name="图层 2"><g id="图层_1-2" data-name="图层 1"><path class="cls-1" d="M73.3,99.8s95-139.16,282-88.83S572.94,273.62,538.94,365,406.2,532.57,374,537.4c0,0-4.81,65.17-22.55,69.25-10.42,2.39-62.31-52-62.31-52S91,551.42,31.9,407,7.09,196,44.53,142.73,73.3,99.8,73.3,99.8Z"/><path class="cls-2" d="M534.92,332C517.17,418.63,453.21,494,370,524.58c-4.19,17.26-8,34.6-12.08,52-2.73,7.93-2.4,20.83-13.51,22.09-22.32-16.93-41.29-37.88-62.1-56.58-90.46,1.77-180-46-227.71-123C16.14,359.56,5.6,284.71,20.22,216c5.62-24.07,18.29-45.51,27.27-68.27,25.47-38,19.88-28.49,31.18-42C139.47,34.73,240.19.6,331.47,21.8,411,37.54,481.52,93.3,515.26,167,539.21,218.06,545.82,276.82,534.92,332ZM216.69,29.11C163.54,41.35,116.54,72.72,80.21,112.86c-11.8,14.05-28.31,44.78-28.06,46.74-33.42,53.81-38.37,122.5-23,183.18,27.26,107.85,132,194.09,244.72,190l1-.25c30,5.48,45.41,35.72,68.68,52.71,2.31-9,4.46-18.13,6.54-27.22,5.3-14.89,2.56-38.58,22.46-42.4,94.64-36.39,161.27-133.53,161-235,1.56-96.23-56.15-190.36-142.79-232.3C337.08,22.92,274.59,14.19,216.69,29.11Z"/><path class="cls-3" d="M41.59,233.52c.84-24.66,13.15-47.91,9.76-72.79-33.29,53.6-38.22,122-22.94,182.45C55.56,450.61,159.92,536.51,272.16,532.44c-17.33-14.53-40.68-16.13-61.09-24.14-39.31-14.91-74-40.29-103.2-70.21C58.62,383.11,32.39,307.22,41.59,233.52Z"/><path class="cls-3" d="M310.63,523.78q-18.86,3.38-37.52,8.41c29.91,5.46,45.23,35.58,68.41,52.5,2.3-9,4.44-18.05,6.51-27.11C335.3,546.68,322.76,535.48,310.63,523.78Z"/><path class="cls-4" d="M213.12,98.53a1.16,1.16,0,0,1,.25-.79,2.63,2.63,0,0,1,.68-.36,4.74,4.74,0,0,1,.85-.07h.77l.14-.14V90.89c0-.14-.1-.22-.29-.22l-.25,0a29.37,29.37,0,0,0-3.08.16,29.1,29.1,0,0,1-3.08.16l-.45,0-.45,0a.89.89,0,0,1-.54-.38,1.15,1.15,0,0,1-.22-.68,1.13,1.13,0,0,1,.31-.74,1.09,1.09,0,0,1,.77-.4l7.13-.61V85.82a.27.27,0,0,0-.27-.31l-.38,0q-2.3,0-4.61.16t-4.57.16H203.9a2.92,2.92,0,0,1-.9-.47.88.88,0,0,1-.43-.83,1,1,0,0,1,.36-.85,2.76,2.76,0,0,1,.79-.41q3.42.07,6.84,0t6.84-.11h5.29a.55.55,0,0,1,.49.4,2.43,2.43,0,0,1,.09.65A1.51,1.51,0,0,1,223,85a1,1,0,0,1-.9.41h-3.89v2.66h5.69c.07,0,.17.07.29.22a1.83,1.83,0,0,1,.32.47v.4a1.38,1.38,0,0,1-.32.9,1.1,1.1,0,0,1-.9.4h-4.61l-.36.21v7.74a.94.94,0,0,1-.38.79,2.19,2.19,0,0,1-.85.4,6.37,6.37,0,0,1-1,.14,5.17,5.17,0,0,1-.77.07,2.69,2.69,0,0,1-.7-.11,2.11,2.11,0,0,1-.7-.18,1.76,1.76,0,0,1-.54-.4A.92.92,0,0,1,213.12,98.53ZM206.6,74.91a1,1,0,0,1,.52-1,3.94,3.94,0,0,1,1.1-.38l1.58,0,2.56,0,2.93,0,3,0,2.52,0H224a.7.7,0,0,1,.54.36,1.06,1.06,0,0,1,.22.65q0,.9-.58,1.08a3.61,3.61,0,0,1-1.37.29l-1.57,0q-1.13,0-2.43,0t-2.38,0Q215.39,76,215,76h-7.63A1.07,1.07,0,0,1,206.6,74.91Zm1.33,20.59a.69.69,0,0,1,.05-.22,2.7,2.7,0,0,1,.11-.25,1.82,1.82,0,0,1,.31-.36q.25-.25.49-.52l.49-.54.32-.34.65-.58a1.62,1.62,0,0,1,.79-.18,1.4,1.4,0,0,1,.79.22,1.05,1.05,0,0,1,.32.83,1.4,1.4,0,0,1-.11.47.56.56,0,0,1-.18.4l-2.09,2.12a.55.55,0,0,1-.45.16l-.45,0a1.1,1.1,0,0,1-.76-.29.89.89,0,0,1-.29-.76Zm3.53-17.32a1.68,1.68,0,0,1,.25-1,1,1,0,0,1,.94-.38,1.07,1.07,0,0,1,.83.36,2.38,2.38,0,0,1,.49.85,4.09,4.09,0,0,1,.2,1c.07.36.13.67.18.94v.36a1.41,1.41,0,0,1-.31.85,1,1,0,0,1-.83.41,1,1,0,0,1-.85-.4,3.42,3.42,0,0,1-.54-1,5.79,5.79,0,0,1-.27-1.12A7,7,0,0,1,211.46,78.19Zm1.66-8.53a1,1,0,0,1,1.15-1.15,1.32,1.32,0,0,1,.83.36,3.54,3.54,0,0,1,.88.81,5.38,5.38,0,0,1,.63,1,2.34,2.34,0,0,1,.25,1,.92.92,0,0,1-1,1,1.67,1.67,0,0,1-.92-.32,3.66,3.66,0,0,1-.86-.81,6.52,6.52,0,0,1-.65-1A2.06,2.06,0,0,1,213.12,69.66Zm6.12,10.94a5,5,0,0,1,.14-1,5.59,5.59,0,0,1,.43-1.24,5,5,0,0,1,.68-1.06,1.3,1.3,0,0,1,1-.4,1,1,0,0,1,.83.32,1.36,1.36,0,0,1,.27.9,4.35,4.35,0,0,1-.16,1,5,5,0,0,1-.49,1.21,2.58,2.58,0,0,1-.72,1,1.13,1.13,0,0,1-.86.47.94.94,0,0,1-.83-.36A1.41,1.41,0,0,1,219.24,80.6Zm2.56,13.57a1.05,1.05,0,0,1,.32-.83,1.52,1.52,0,0,1,1.76.14,4.1,4.1,0,0,1,.7.85,7.19,7.19,0,0,1,.52,1q.25.57.4.94a.21.21,0,0,1,0,.14v.22a1.2,1.2,0,0,1-.27.79,1,1,0,0,1-.77.32,1.43,1.43,0,0,1-.88-.41,4.85,4.85,0,0,1-.88-1,8.3,8.3,0,0,1-.67-1.19A2.47,2.47,0,0,1,221.8,94.17Z"/><path class="cls-4" d="M249.59,98.6a1.8,1.8,0,0,1,.07-.5,1.12,1.12,0,0,0,.07-.41q0-.23-.36-.32l-.77-.22a2.3,2.3,0,0,1-.77-.41.88.88,0,0,1-.32-.79,1,1,0,0,1,.38-.81,1.27,1.27,0,0,1,.81-.31,4,4,0,0,1,1.13.16,4,4,0,0,0,1.13.16,1.12,1.12,0,0,0,.94-.49,1.65,1.65,0,0,0,.36-1l-.92,0-1.39,0-1.39,0-.92,0-.85.07q-.31,0-.49.54c0,.1,0,.26,0,.5s-.05.57-.09.85-.07.53-.11.77-.07.42-.09.54a2.9,2.9,0,0,1-.4,1.19,1.17,1.17,0,0,1-1.85.27,1.45,1.45,0,0,1-.27-.92,18.38,18.38,0,0,1,.31-3.35,18.37,18.37,0,0,0,.31-3.35v-.4l-.18-.14h-3.71q-.36,0-.58-.47a1.71,1.71,0,0,1-.18-.7,1.21,1.21,0,0,1,.27-.68.77.77,0,0,1,.63-.38l3.74-.32c.24,0,.39-.2.45-.54l.22-1.19a6.52,6.52,0,0,1,.41-1.37,2,2,0,0,1,1-1,14.34,14.34,0,0,0-1.62-.16l-1.58,0h-1.12a.61.61,0,0,0-.59.31q-.16.31-.31.63a1.74,1.74,0,0,1-.27.61.83.83,0,0,1-.74.29,1,1,0,0,1-1.08-.79l-.2-.58q-.16-.47-.38-1a10.45,10.45,0,0,0-.32-1c-.07-.31-.12-.5-.14-.58a2.16,2.16,0,0,0-.32-.61.87.87,0,0,1-.18-.58,1.06,1.06,0,0,1,.4-.86,1.4,1.4,0,0,1,.92-.32,1.05,1.05,0,0,1,.83.34,2.43,2.43,0,0,1,.45.7,4.52,4.52,0,0,1,.32.72q.18.32.4.32l1.15,0,1.76,0h1.73l1.19,0,1.22,0q.9.11,2,.2l2.25.18,2.27.18,1.93.18,1.24.13a3.9,3.9,0,0,1,1.24.49,1.26,1.26,0,0,1,.56,1.17v.29a5.29,5.29,0,0,0-.22.56l-.31.86c-.11.3-.21.57-.31.81a5,5,0,0,0-.22.58,2.24,2.24,0,0,1-.47.79.93.93,0,0,1-.83.43,1,1,0,0,1-.83-.32,1.3,1.3,0,0,1-.29-.9,2.17,2.17,0,0,1,.25-1,2.17,2.17,0,0,0,.25-1,.56.56,0,0,0-.07-.22s0-.07-.11-.07l-7.74-.72h-1.8a5.11,5.11,0,0,1,.67.58,1.11,1.11,0,0,1,.23.77,6.65,6.65,0,0,1-.07,1,6.54,6.54,0,0,0-.07,1v.65l5.8.32a.77.77,0,0,1,.63.4,1.32,1.32,0,0,1,.27.72,1.19,1.19,0,0,1-.29.7A.8.8,0,0,1,253,90h-6.12l-.07.11a.11.11,0,0,0,0,.07s-.08.1-.11.22,0,.3-.07.4v.11a.52.52,0,0,0,.11.14l.18.18,1,0,1.53-.05q.81,0,1.53-.11h3.1a1.53,1.53,0,0,1,1.22,1.58,3.37,3.37,0,0,1-.43,1.55,9.94,9.94,0,0,0-.61,1.37l0,.07,0,.07a.15.15,0,0,0,.05.09.15.15,0,0,1,.05.09,5.33,5.33,0,0,1,.56.16l.79.25c.28.08.53.17.77.27l.58.18a1,1,0,0,1,.76,1,1.26,1.26,0,0,1-.31.9,1.16,1.16,0,0,1-.88.32,4.86,4.86,0,0,1-1.91-.4,4.35,4.35,0,0,0-1.84-.4.84.84,0,0,0-.65.23,3.52,3.52,0,0,0-.4.52,2.93,2.93,0,0,1-.41.52.93.93,0,0,1-.68.23,1.08,1.08,0,0,1-.79-.34A1.07,1.07,0,0,1,249.59,98.6ZM238.25,72.71a1.33,1.33,0,0,1,.72-1.19,4.49,4.49,0,0,1,1.37-.43L241,71l1.22-.2,1.15-.16.72-.14q.47-.07,1.64-.34l2.47-.54,2.47-.54,1.64-.38h.22a1.31,1.31,0,0,1,.88.32,1.08,1.08,0,0,1,.38.86,1.11,1.11,0,0,1-.34.81,1.4,1.4,0,0,1-.7.41l-1.58.36-2.45.52q-1.3.27-2.43.54t-1.6.34a4.05,4.05,0,0,0-.54.09,9.38,9.38,0,0,1-1,.14,8.48,8.48,0,0,0-.94.14,3.25,3.25,0,0,1-.56.09l-.36.07a3.63,3.63,0,0,1-.52.13,3.94,3.94,0,0,0-.58.14l-.31.09h-.43a1.45,1.45,0,0,1-.88-.25A.92.92,0,0,1,238.25,72.71Zm2.52,2.7a1.2,1.2,0,0,1,.29-.83,1.16,1.16,0,0,1,.79-.25,1.81,1.81,0,0,1,.9.27,3.44,3.44,0,0,1,.83.67,4.71,4.71,0,0,1,.58,1,2.22,2.22,0,0,1,.22.9,1.18,1.18,0,0,1-1.1,1.1,1.55,1.55,0,0,1-.86-.31,4.17,4.17,0,0,1-.81-.72,4,4,0,0,1-.61-1A2,2,0,0,1,240.77,75.41Zm6.41-.14a1.77,1.77,0,0,1,.27-.92.92.92,0,0,1,.85-.45,1,1,0,0,1,.67.23,1.3,1.3,0,0,1,.38.52,1.79,1.79,0,0,1,.22.7c0,.25,0,.47,0,.67a3,3,0,0,1-.2,1.06.87.87,0,0,1-.92.52,1.23,1.23,0,0,1-.76-.22,1.86,1.86,0,0,1-.34-.61,3.09,3.09,0,0,1-.16-.77C247.19,75.73,247.18,75.49,247.18,75.27ZM254.05,74a1,1,0,0,1,.9.5,2.17,2.17,0,0,1,.32,1,2.13,2.13,0,0,1-.38,1.19,1.2,1.2,0,0,1-1.06.58,1.26,1.26,0,0,1-.59-.23.66.66,0,0,1-.38-.56V75a.85.85,0,0,1,.43-.72A1.74,1.74,0,0,1,254.05,74Z"/><path class="cls-4" d="M270.14,94.71c0-.24-.05-.67-.09-1.28s-.08-1.27-.14-2-.11-1.37-.14-2-.05-1.05-.05-1.29a.6.6,0,0,1,0-.29v-.32a2.6,2.6,0,0,1,.11-.86,3.23,3.23,0,0,0,.36-.76q.29-.72.45-1.1a1.6,1.6,0,0,1,.41-.59,2.81,2.81,0,0,1,.68-.25l1.3-.14a2.49,2.49,0,0,0,.4-.05c.19,0,.3-.08.32-.12a.14.14,0,0,0,.11,0,.1.1,0,0,0,0-.07V78.29a.59.59,0,0,1,.41-.59,2.08,2.08,0,0,1,.74-.16,1.49,1.49,0,0,1,.7.16.87.87,0,0,1,.41.59c0,.12,0,.32,0,.59s0,.58,0,.9,0,.63,0,.92a4.62,4.62,0,0,1,.07.58q0,.33.07.9a2.42,2.42,0,0,0,.22.94s0,0,.05.07a.17.17,0,0,0,.09,0h3.6a1,1,0,0,1,.76.4,1.64,1.64,0,0,1,.43.83q-.11,2.41,0,4.79t.43,4.75a.54.54,0,0,1,.11.29,1.18,1.18,0,0,0,.07.29v.14a1.2,1.2,0,0,1-.2.67.83.83,0,0,1-.56.38q-1.91.14-4.14.4t-4.21.22h-.9a5.83,5.83,0,0,1-1.13-.63A1.8,1.8,0,0,1,270.14,94.71Zm2.56-8.35-.29.11c-.12.07-.18.13-.18.18v1.84c0,.1.06.14.18.14h.52a.34.34,0,0,0,.2,0q.65,0,1.6,0t1.89-.11q1-.11,2.16-.14l.18-.14V85.93l-.18-.14-.36,0-.47,0a22.59,22.59,0,0,0-2.63.14Zm.58,4.79-.43.13c-.22.06-.32.16-.32.31v2.09s.06.11.18.18l.11.07L273,94l6.41-.61v-1a3.19,3.19,0,0,0,0-.68,1.2,1.2,0,0,0-.22-.58.46.46,0,0,0-.4-.29H276.7l-.7,0L275,91l-1,.11Zm11.92,4.1a1,1,0,0,1,.4-.86,6.48,6.48,0,0,1,1-.43c.41-.1.82-.18,1.22-.25a4.43,4.43,0,0,0,1-.14,5.32,5.32,0,0,1,1-.27,2.93,2.93,0,0,0,.9-.31,1.77,1.77,0,0,0,.74-.5,2,2,0,0,0,.38-.9l1-9.25v-.4a1,1,0,0,0-.32-.88,2.26,2.26,0,0,0-.9-.34,10.47,10.47,0,0,0-1.13-.14l-1.69-.18-1.69-.18c-.54,0-.92-.07-1.13-.07a1.45,1.45,0,0,0-.43,0h-.94a.49.49,0,0,0-.25,0l-.29.11q0,.36,0,1a4.74,4.74,0,0,1-.13,1.12,2.39,2.39,0,0,1-.41.9,1,1,0,0,1-.86.38q-.72,0-.92-.41a2.37,2.37,0,0,1-.2-1v-.86c0-.36,0-.89,0-1.6s0-1.41.05-2.11,0-1.32,0-1.87.07-.87.07-1,0-.53,0-.86a3.21,3.21,0,0,1,.2-.86,1.72,1.72,0,0,1,.47-.7,1.17,1.17,0,0,1,.81-.27,1,1,0,0,1,1.15,1.12,8.29,8.29,0,0,1-.18,1.76,11.4,11.4,0,0,0-.14,1.8c0,.1,0,.23,0,.41s0,.28,0,.31l.11.14,1.42.13,2.16.16,2.16.16,1.42.13a5.25,5.25,0,0,1,2.88,1.12,3.65,3.65,0,0,1,1,2.81c0,.1,0,.26,0,.49s0,.35,0,.38l-1,9.25a3.54,3.54,0,0,1-.65,1.73,3.87,3.87,0,0,1-1.24,1,6.68,6.68,0,0,1-1.67.61q-.86.25-1.8.47t-1.17.27a6.64,6.64,0,0,1-1,.05,2.25,2.25,0,0,1-1-.22A.92.92,0,0,1,285.19,95.25Zm-.61-7.09a1,1,0,0,1,.32-.83,1.46,1.46,0,0,1,.83-.22,2.11,2.11,0,0,1,.85.2,3.28,3.28,0,0,1,.81.5,2.77,2.77,0,0,1,.59.7,1.54,1.54,0,0,1,.23.79,1,1,0,0,1-.32.74,1,1,0,0,1-.76.34,1.91,1.91,0,0,1-.81-.22,3.79,3.79,0,0,1-.83-.54,3.7,3.7,0,0,1-.65-.72A1.35,1.35,0,0,1,284.58,88.16Z"/><path class="cls-4" d="M304.56,87.55q.07-.18.31-.61a6.11,6.11,0,0,0,.41-1c.17-.31.31-.61.43-.9l.32-.61q.29-.65.58-1.19a1.17,1.17,0,0,1,1.08-.47,1.26,1.26,0,0,1,.9.31,1.15,1.15,0,0,1,.32.88.26.26,0,0,1,0,.11.15.15,0,0,0,0,.07v.11l-2.23,4.5a.84.84,0,0,1-.43.45,1.49,1.49,0,0,1-.61.13.88.88,0,0,1-.81-.38,1.64,1.64,0,0,1-.23-.88Zm5.8,5a1,1,0,0,1,.36-.88,1.46,1.46,0,0,1,.9-.27h.4l2.77,1.51L315,92s0-.21,0-.56,0-.76,0-1.22,0-.93,0-1.39,0-.84,0-1.15V86.18q.07-1,.07-2.36V78.29q0-1.26-.07-2.3V74.44a7,7,0,0,1,.31-1.24q.2-.56,1-.56a2.05,2.05,0,0,1,.74.16.59.59,0,0,1,.41.59V91.15c0,.34,0,.76,0,1.26a5.37,5.37,0,0,1-.14,1.55,2.71,2.71,0,0,1-.5,1.28,1.48,1.48,0,0,1-1.26.52,4.46,4.46,0,0,1-1.33-.32,9.9,9.9,0,0,1-1.75-.74A8.41,8.41,0,0,1,311,93.63,1.55,1.55,0,0,1,310.35,92.55Zm12.49-9a1,1,0,0,1,.32-.76,1.15,1.15,0,0,1,.79-.29,1.51,1.51,0,0,1,.45.05,1.39,1.39,0,0,1,.41.27q.18.18.67.76t1,1.19q.54.57,1,1.15a5.57,5.57,0,0,0,.67.76q.36.47.5.7a1.65,1.65,0,0,1,.14.81,1,1,0,0,1-.31.76,1.09,1.09,0,0,1-.77.29,2.47,2.47,0,0,1-1.19-.68,17.21,17.21,0,0,1-1.57-1.64A20.72,20.72,0,0,1,323.46,85,2.86,2.86,0,0,1,322.85,83.51Z"/><path class="cls-4" d="M340.49,97.09a.86.86,0,0,1,.25-.67,2.94,2.94,0,0,1,.58-.41,3.83,3.83,0,0,1,.74-.14c.25,0,.49,0,.72,0s.64,0,1.22-.05l1.87-.11,1.87-.09,1.24,0,.18-.29V92.12q0-.29,0-.76t0-.79a5.81,5.81,0,0,0-.11-.72.73.73,0,0,0-.14-.47h-4.61a.82.82,0,0,1-.68-.43,1.53,1.53,0,0,1-.22-.72,1.21,1.21,0,0,1,.25-.68,1.12,1.12,0,0,1,.65-.36l4.5-.32V81.39l-.18-.18h-.65q-1,0-2.05.09t-2.05.09h-1a1.49,1.49,0,0,1-.67-.49,1.15,1.15,0,0,1-.27-.72,1,1,0,0,1,.2-.63,1.09,1.09,0,0,1,.5-.36,5.17,5.17,0,0,1,.65-.18,3.1,3.1,0,0,1,.63-.07q.47,0,1.44-.05l2-.09,1.94-.07,1.12,0H357a.92.92,0,0,1,.9.34,1.41,1.41,0,0,1,.32.88,1.25,1.25,0,0,1-.25.79.69.69,0,0,1-.68.36h-5.18a.82.82,0,0,0-.7.27,1.46,1.46,0,0,0-.25.68,3.79,3.79,0,0,0,0,.83c0,.28,0,.52,0,.72v.86c0,.37,0,.6,0,.68s0,.21,0,.38,0,.33,0,.49,0,.28,0,.38a1.1,1.1,0,0,0,.4.47h4.9a.7.7,0,0,1,.58.41,3,3,0,0,1,.32.67V88a.78.78,0,0,1-.22.58,1.56,1.56,0,0,1-.4.4l-.14.18a.42.42,0,0,0-.14.07h-4.9l-.18.18v1.22q0,.54,0,1.31t.05,1.51q0,.74,0,1.24a4,4,0,0,0,.18.86,3.11,3.11,0,0,0,.72.07l1.06.05,1.35,0,2,0,2,0q1,.07,1.33.07a1.06,1.06,0,0,1,.63.41,1,1,0,0,1,0,1.4,1.07,1.07,0,0,1-.63.41q-4.54,0-9,0t-9,.14h-1a1.82,1.82,0,0,1-.61-.47A1,1,0,0,1,340.49,97.09Zm6-25.78a1,1,0,0,1,.4-.86,1.49,1.49,0,0,1,.9-.29,3,3,0,0,1,1.15.32,7.45,7.45,0,0,1,2.72,1.93,1.74,1.74,0,0,1,.52,1.1.89.89,0,0,1-1,1,1.83,1.83,0,0,1-.76-.14,3.57,3.57,0,0,1-.63-.36,7.41,7.41,0,0,1-.63-.5,3.87,3.87,0,0,0-.72-.5,4.57,4.57,0,0,0-.56-.31c-.23-.11-.44-.22-.65-.34a1.74,1.74,0,0,1-.52-.47A.78.78,0,0,1,346.46,71.31Z"/><path class="cls-4" d="M369.07,94.21a1.51,1.51,0,0,1,.22-.79c.14-.24.29-.47.45-.7s.31-.47.45-.72a1.61,1.61,0,0,0,.22-.81,2.41,2.41,0,0,0-.14-.83,2.39,2.39,0,0,1-.14-.83q0-.22.4-.56a1.14,1.14,0,0,1,.68-.34,1,1,0,0,1,.7.27,1.82,1.82,0,0,1,.41.65,2.9,2.9,0,0,1,.18.77c0,.26,0,.49,0,.68a6.67,6.67,0,0,1-.13,1.19A5.55,5.55,0,0,1,372,93.5a3.68,3.68,0,0,1-.74,1.08,1.5,1.5,0,0,1-1.1.45,1.73,1.73,0,0,1-.72-.16A.65.65,0,0,1,369.07,94.21Z"/><path class="cls-4" d="M186.12,129.52l-.81.7a1.34,1.34,0,0,1-.88.23q-1,0-1-1a2.64,2.64,0,0,1,.07-.65,1.28,1.28,0,0,1,.36-.58l5.37-5.36.43-.36a1.53,1.53,0,0,1,.54-.11,1,1,0,0,1,.79.4,1.34,1.34,0,0,1,.32.87,1.44,1.44,0,0,1-.22.76,3.63,3.63,0,0,1-.54.68c-.22.22-.43.41-.65.59s-.38.33-.5.45a1.93,1.93,0,0,0-.29.27l-.27.32a3.22,3.22,0,0,1-.27.31,3.85,3.85,0,0,0-.07,1l1.48,8.21v.54a2.84,2.84,0,0,1-.18,1.08.91.91,0,0,1-.94.5A1,1,0,0,1,188,138a2.7,2.7,0,0,1-.38-1c0-.1-.05-.29-.09-.58s-.08-.62-.14-1-.11-.7-.14-1l-.07-.56a4.76,4.76,0,0,0-.13-.5,7.12,7.12,0,0,1-.18-.88,4.77,4.77,0,0,0-.21-.83,2.93,2.93,0,0,1-.07-.5s0-.15,0-.31,0-.33-.07-.52a2.61,2.61,0,0,0-.16-.54A.9.9,0,0,0,186.12,129.52Zm-.32,17.71a7.55,7.55,0,0,1,.16-1.57q.16-.77.27-1.49a1.53,1.53,0,0,1,.4-.88,1.17,1.17,0,0,1,.9-.34.92.92,0,0,1,.88.41,1.91,1.91,0,0,1,.23,1c0,.22,0,.55,0,1a7,7,0,0,1-.21,1.44,4.14,4.14,0,0,1-.52,1.21,1.08,1.08,0,0,1-1,.52,1,1,0,0,1-.81-.41A1.41,1.41,0,0,1,185.79,147.23Zm4.61-3v-.9a2.91,2.91,0,0,0,0-.47v-.36a3.45,3.45,0,0,1,.45-1.28,1.2,1.2,0,0,1,1.1-.67,1.06,1.06,0,0,1,.81.38,1.23,1.23,0,0,1,.34.85A4.2,4.2,0,0,1,193,143a4.33,4.33,0,0,0-.16,1.21q0,.76.05,1.37a2.85,2.85,0,0,0,.27,1,2.06,2.06,0,0,0,.67.76,3.86,3.86,0,0,0,1.28.54,22.82,22.82,0,0,0,2.59.5,14.3,14.3,0,0,0,2.66.25,8.63,8.63,0,0,0,4.39-1.19.81.81,0,0,0,.25-.59c0-.23,0-.44,0-.65a.74.74,0,0,1,.22-.5,1.32,1.32,0,0,1,.88-.2.91.91,0,0,1,1,.65,4.07,4.07,0,0,1,.2,1.19,2.48,2.48,0,0,1-.78,1.91,5.17,5.17,0,0,1-1.87,1.1,11.15,11.15,0,0,1-2.3.52,18.12,18.12,0,0,1-2.11.14,21.27,21.27,0,0,1-2.93-.2q-1.42-.2-2.81-.52a7.09,7.09,0,0,1-2.2-.85,3.84,3.84,0,0,1-1.24-1.24,4.16,4.16,0,0,1-.54-1.71A20.86,20.86,0,0,1,190.4,144.24Zm2.7-8.86a3.54,3.54,0,0,1,0-.4,1.14,1.14,0,0,1,.13-.4l.23-.4c.13-.22.28-.45.45-.7a7.08,7.08,0,0,0,.43-.74c.17-.22.3-.4.39-.54a1.15,1.15,0,0,1,.4-.36,2.23,2.23,0,0,1,.54-.07,1.14,1.14,0,0,1,.81.32,1,1,0,0,1,.34.74,2.81,2.81,0,0,1-.25,1,5.9,5.9,0,0,1-.65,1.17,5.7,5.7,0,0,1-.87,1,1.36,1.36,0,0,1-.86.41,1.2,1.2,0,0,1-.79-.27A1,1,0,0,1,193.1,135.39Zm12.21-5.76a.52.52,0,0,1,0-.22l.9-4v-.47c0-.1-.06-.14-.18-.14l-1.15-.14h-7.45a.31.31,0,0,0-.16.05l-.14.09-.14.09c-.06,0-.09.07-.09.09v4.46a.73.73,0,0,1-.41.67,1.67,1.67,0,0,1-.83.23,1.15,1.15,0,0,1-.72-.23,1,1,0,0,1-.38-.67q0-.29,0-1t0-1.49q0-.79,0-1.49t0-1v-.61q0-.36,0-1.1a13.56,13.56,0,0,1,.05-1.57,3.46,3.46,0,0,1,.43-1.29,1.1,1.1,0,0,1,1-.61,1.14,1.14,0,0,1,.81.32,1,1,0,0,1,.34.76,2.66,2.66,0,0,1-.09.67,2.6,2.6,0,0,0-.09.67s0,.11,0,.25.07.22.16.22h8.64a4.82,4.82,0,0,1,1.06.13,3.37,3.37,0,0,1,1,.41,2.77,2.77,0,0,1,.77.7,1.68,1.68,0,0,1,.3,1v.22l-1.37,5.79a1.14,1.14,0,0,1-.47.68,1.24,1.24,0,0,1-.72.25.86.86,0,0,1-.87-.47,1.94,1.94,0,0,1-.21-.94Zm-9.07,14.83-.32-.47a1.1,1.1,0,0,1-.11-.5,1.22,1.22,0,0,1,.36-.83,1.14,1.14,0,0,1,.77-.32,2.33,2.33,0,0,1,.94.23,5.53,5.53,0,0,1,1,.58,3.82,3.82,0,0,1,.79.77,1.46,1.46,0,0,1,.32.88,1,1,0,0,1-.31.74,1.08,1.08,0,0,1-.77.29,2.08,2.08,0,0,1-1.37-.41Q197,145,196.23,144.46Zm1.62-7.67v-.29a.76.76,0,0,1,0-.25,1,1,0,0,1,.52-.4l.54-.13a.85.85,0,0,0,.45-.23c.14-.07.23-.28.25-.61v-1.62q0-1-.07-2.09t-.07-2.09v-.52a2.11,2.11,0,0,1,0-.52,1.17,1.17,0,0,1,.39-.61,1,1,0,0,1,.69-.29,1.08,1.08,0,0,1,.7.29,1.14,1.14,0,0,1,.41.61,13,13,0,0,1,.29,2.48q0,1.12,0,2.52v1.48q0,.47,0,.77c0,.2,0,.33,0,.38,0,.26,0,.57,0,.92a3.57,3.57,0,0,1-.16,1,1.75,1.75,0,0,1-.47.76,1.26,1.26,0,0,1-.9.31,4.2,4.2,0,0,1-.86-.11,2.77,2.77,0,0,1-.83-.36,2.59,2.59,0,0,1-.67-.59A1.22,1.22,0,0,1,197.85,136.79Zm6.12-3a1.09,1.09,0,0,1,.32-.86,1.31,1.31,0,0,1,.9-.29,2,2,0,0,1,1,.34,6.61,6.61,0,0,1,1.13.86,6.43,6.43,0,0,1,.94,1.08,1.81,1.81,0,0,1,.38,1,1,1,0,0,1-1.08,1.12,2,2,0,0,1-1-.38,12.2,12.2,0,0,1-1.21-.88,13.14,13.14,0,0,1-1-1A1.65,1.65,0,0,1,204,133.84Zm5.51,9.29a1.33,1.33,0,0,1,.32-.86,1.22,1.22,0,0,1,.83-.36,1,1,0,0,1,.68.22,1.92,1.92,0,0,1,.43.54,3.38,3.38,0,0,0,.27.56c.13.23.26.47.4.72l.36.7c.11.22.17.35.2.41a1.91,1.91,0,0,1,.07.27,3.16,3.16,0,0,1,0,.32.89.89,0,0,1-.36.81,1.51,1.51,0,0,1-.85.23,1.19,1.19,0,0,1-.83-.31,3.16,3.16,0,0,1-.63-.81c-.14-.29-.28-.59-.41-.92s-.25-.59-.34-.81a2.68,2.68,0,0,0-.18-.36Z"/><path class="cls-4" d="M221.94,145.65q0-.36-.09-1.28c0-.61-.08-1.27-.14-2s-.11-1.37-.14-2-.05-1.06-.05-1.3a.61.61,0,0,1,0-.29v-.32a2.6,2.6,0,0,1,.11-.86,3.19,3.19,0,0,0,.36-.76l.45-1.1a1.59,1.59,0,0,1,.41-.59,2.82,2.82,0,0,1,.68-.25l1.3-.14a2.57,2.57,0,0,0,.39-.05c.19,0,.3-.08.32-.13a.15.15,0,0,0,.11,0,.1.1,0,0,0,0-.07v-5.26a.59.59,0,0,1,.41-.59,2.07,2.07,0,0,1,.74-.16,1.48,1.48,0,0,1,.7.16.86.86,0,0,1,.41.59c0,.12,0,.32,0,.59l0,.9q0,.49,0,.92a4.66,4.66,0,0,1,.07.58c0,.22,0,.52.07.9a2.45,2.45,0,0,0,.21.94s0,0,.05.07l.09,0h3.6a1,1,0,0,1,.76.4,1.64,1.64,0,0,1,.43.83q-.11,2.41,0,4.79t.43,4.75a.55.55,0,0,1,.11.29,1.09,1.09,0,0,0,.07.29v.14a1.19,1.19,0,0,1-.2.67.83.83,0,0,1-.56.38q-1.91.15-4.14.4a42.16,42.16,0,0,1-4.21.22h-.9a5.89,5.89,0,0,1-1.13-.63A1.8,1.8,0,0,1,221.94,145.65Zm2.56-8.35a1.51,1.51,0,0,0-.29.11c-.12.07-.18.13-.18.18v1.84c0,.1.06.14.18.14h.52c.11,0,.17,0,.2,0q.65,0,1.6,0c.63,0,1.27-.06,1.89-.11s1.42-.12,2.16-.14l.18-.14v-2.23l-.18-.14-.36,0-.47,0a22.58,22.58,0,0,0-2.63.14Zm.58,4.79-.43.13c-.22.06-.32.16-.32.31v2.09s.06.11.18.18l.11.07a.62.62,0,0,0,.18.07l6.41-.61v-1a3.07,3.07,0,0,0,0-.68,1.21,1.21,0,0,0-.21-.58.46.46,0,0,0-.4-.29h-2.09l-.7,0-1,.09-1,.11Zm11.92,4.1a1,1,0,0,1,.4-.86,6.35,6.35,0,0,1,1-.43c.41-.1.81-.18,1.22-.25a4.36,4.36,0,0,0,1-.14,5.43,5.43,0,0,1,1-.27,2.94,2.94,0,0,0,.9-.31,1.76,1.76,0,0,0,.74-.5,1.94,1.94,0,0,0,.38-.9l1-9.25v-.4a1,1,0,0,0-.32-.88,2.25,2.25,0,0,0-.9-.34,10.43,10.43,0,0,0-1.13-.14q-.81-.07-1.69-.18l-1.69-.18c-.54,0-.92-.07-1.13-.07a1.44,1.44,0,0,0-.43,0h-.94a.49.49,0,0,0-.25,0l-.29.11q0,.36,0,1a4.74,4.74,0,0,1-.13,1.12,2.4,2.4,0,0,1-.41.9,1,1,0,0,1-.86.38q-.72,0-.92-.41a2.35,2.35,0,0,1-.2-1v-.86c0-.36,0-.89,0-1.6s0-1.41.05-2.11,0-1.32,0-1.87.07-.88.07-1,0-.53,0-.86a3.21,3.21,0,0,1,.2-.86,1.74,1.74,0,0,1,.47-.7A1.18,1.18,0,0,1,235,123a1,1,0,0,1,1.15,1.12,8.22,8.22,0,0,1-.18,1.76,11.42,11.42,0,0,0-.14,1.8c0,.1,0,.23,0,.41s0,.28,0,.31l.11.14,1.42.13,2.16.16,2.16.16,1.42.13A5.26,5.26,0,0,1,246,130.2a3.65,3.65,0,0,1,1,2.81c0,.1,0,.26,0,.49s0,.36,0,.38l-1,9.25a3.54,3.54,0,0,1-.65,1.73,3.86,3.86,0,0,1-1.24,1,6.7,6.7,0,0,1-1.67.61q-.86.25-1.8.47c-.55.14-.94.23-1.17.27a6.48,6.48,0,0,1-1,.05,2.23,2.23,0,0,1-1-.22A.92.92,0,0,1,237,146.19Zm-.61-7.09a1,1,0,0,1,.32-.83,1.46,1.46,0,0,1,.83-.22,2.13,2.13,0,0,1,.85.2,3.35,3.35,0,0,1,.81.5,2.79,2.79,0,0,1,.59.7,1.54,1.54,0,0,1,.23.79,1.05,1.05,0,0,1-.32.74,1,1,0,0,1-.76.34,1.9,1.9,0,0,1-.81-.22,3.72,3.72,0,0,1-.83-.54,3.64,3.64,0,0,1-.65-.72A1.35,1.35,0,0,1,236.37,139.1Z"/><path class="cls-4" d="M274.32,142a3.45,3.45,0,0,1,.45-1.66,6.36,6.36,0,0,0,.63-1.62q.33-1.94.61-4a29.54,29.54,0,0,0,.29-4.07v-.41c0-.13-.11-.22-.32-.27a18.58,18.58,0,0,0-4.5-.94q-2.27-.18-4.61-.18h-1a2.23,2.23,0,0,1-.54.07h-.22l-1.33.25-.18.18q0,1.48-.14,3t-.29,3a1,1,0,0,1-1.12.76,1.52,1.52,0,0,1-.76-.18.86.86,0,0,1-.36-.58c0-.1,0-.28,0-.56s0-.47,0-.59q0-2.48.18-5t.43-5a1.29,1.29,0,0,1,.47-.86,1.65,1.65,0,0,1,1-.32,1.13,1.13,0,0,1,.83.34,1.07,1.07,0,0,1,.34.77,2.73,2.73,0,0,1-.14.87,4.53,4.53,0,0,0-.07.83v.32a.61.61,0,0,0,0,.29l.14.14H270a2.36,2.36,0,0,0,.61.11l.61,0,.43,0q.36,0,.72,0l.79.05.43,0q.36,0,1.15.18a10.28,10.28,0,0,1,1.69.43,6.15,6.15,0,0,1,1.57.74,1.26,1.26,0,0,1,.67,1v1.29q0,.47,0,1.57c0,.73-.1,1.57-.22,2.5s-.19,2-.36,3a16.78,16.78,0,0,1-.54,2.77,7.29,7.29,0,0,1-.85,2.12,1.48,1.48,0,0,1-1.24.83Q274.32,143.27,274.32,142Zm-8.78,4.61a1.25,1.25,0,0,1-.85-.58,2.26,2.26,0,0,1-.2-1,12.25,12.25,0,0,1,.2-2.2,19,19,0,0,0,.27-2.16c0-.22,0-.59,0-1.13s0-1.11,0-1.71.08-1.13.09-1.67,0-.92,0-1.13c0-.38.1-.74.16-1.06a2.32,2.32,0,0,1,.32-.85,2.22,2.22,0,0,1,.59-.61,2.55,2.55,0,0,1,1-.18,13,13,0,0,1,1.55.09l1.55.2a10.78,10.78,0,0,1,1.28.2,3.16,3.16,0,0,1,.92.34,2,2,0,0,1,.61.72,3.81,3.81,0,0,1,.18,1.26,10.15,10.15,0,0,1-.16,1.42,18.5,18.5,0,0,1-.45,2,12.23,12.23,0,0,1-.67,1.84c-.25.54-.52.82-.81.85l-.56,0-.81,0a8.17,8.17,0,0,1-.83.11l-.5,0q-1,.07-1.19.47a4.94,4.94,0,0,0-.14,1.37v1c.07.17.31.29.7.38a9.66,9.66,0,0,0,1.31.18q.72.06,1.4.05h1a20.61,20.61,0,0,0,3.24-.25,27.37,27.37,0,0,1,3.17-.18,2.54,2.54,0,0,1,1,.18,1,1,0,0,1,.47.94,1,1,0,0,1-.4.88,1.91,1.91,0,0,1-.94.38l-1,.11-1.37.14-1.26.13-.67.05h-.32l-.63,0-.68,0h-1.06l-.65,0-.56,0h-.3c-.14,0-.42,0-.83-.07s-.84-.12-1.3-.22l-1.26-.14A3.17,3.17,0,0,1,265.53,146.66Zm2.81-11.77a1.2,1.2,0,0,0-.65.18.6.6,0,0,0-.22.54v3.31l.14.18h.18l.38,0,.59-.11a3.21,3.21,0,0,0,.54,0h.4a.68.68,0,0,0,.27-.31,2.8,2.8,0,0,0,.22-.54c.06-.2.11-.4.14-.58a1.12,1.12,0,0,1,.13-.38,2.78,2.78,0,0,0,.13-.43c0-.17.08-.35.14-.56s.13-.41.2-.63l-.14-.32-.25,0-.56-.07a3.11,3.11,0,0,1-.63-.14l-.5,0Z"/><path class="cls-4" d="M294.44,124a1.21,1.21,0,0,1,.4-.94,1.16,1.16,0,0,1,1-.29l1.76-.05q1.29-.05,2.7-.14t2.7-.14l1.8-.09a5.25,5.25,0,0,0,.61-.07l.72,0a.35.35,0,0,1,0-.12s-.1-.17-.32-.4-.49-.5-.78-.81-.47-.69-.7-1.06a2.09,2.09,0,0,1-.34-1.1,1.12,1.12,0,0,1,.34-.79,1.08,1.08,0,0,1,.81-.36,1.33,1.33,0,0,1,.79.41,6.86,6.86,0,0,1,.92,1,9.2,9.2,0,0,1,.76,1.15,2,2,0,0,1,.31.85,1.92,1.92,0,0,1-.07.54,2.54,2.54,0,0,0,0,.47,38.56,38.56,0,0,0,4.09-.22,38.5,38.5,0,0,1,4.09-.22l.63,0,.7,0a.84.84,0,0,1,.56.38,1.21,1.21,0,0,1,.2.67,1.14,1.14,0,0,1-.31.77,1.11,1.11,0,0,1-.77.38l-20.56,1.37h-.32a2.85,2.85,0,0,1-1.15-.25A1,1,0,0,1,294.44,124Zm7,25a1,1,0,0,0-.52.14,5.38,5.38,0,0,0-.47.32,3.5,3.5,0,0,1-.5.32,1.11,1.11,0,0,1-.52.14,1,1,0,0,1-.83-.34,1.22,1.22,0,0,1-.29-.81,1,1,0,0,1,.09-.49,2,2,0,0,1,.41-.45l4.32-3.6.43-.29a2,2,0,0,1,.43,0,1.15,1.15,0,0,1,.79.29,1,1,0,0,1,.32.76,1.41,1.41,0,0,1-.43,1.15l-1,1v.14c0,.07,0,.26.05.56a7.33,7.33,0,0,0,.16.88,4,4,0,0,0,.29.88c.12.25.28.38.47.38h.25l2.09-.76h0a1.08,1.08,0,0,1,.9.36,1.39,1.39,0,0,1,.29.9,1.12,1.12,0,0,1-.49.86,5.25,5.25,0,0,1-1.17.7,7.52,7.52,0,0,1-1.39.47,5.13,5.13,0,0,1-1.1.16,1.63,1.63,0,0,1-1.35-.56,3.52,3.52,0,0,1-.65-1.24c-.13-.46-.24-.88-.32-1.26S301.57,149,301.43,149Zm3.92-8.89a.22.22,0,0,0-.27-.2l-.27,0a2.62,2.62,0,0,0-1.91.67,7.48,7.48,0,0,0-1.17,1.46q-.49.79-.9,1.44a1.22,1.22,0,0,1-1.06.65,1.52,1.52,0,0,1-.94-.27,1,1,0,0,1-.36-.85,2.21,2.21,0,0,1,.47-1.3c.36-.43.66-.78.9-1v-.47a3,3,0,0,1-1.06-.31.93.93,0,0,1-.45-.92,2,2,0,0,1,.18-.76.62.62,0,0,1,.58-.4l5.69-.43c.22,0,.34-.11.38-.27a2,2,0,0,0,.05-.45v-.5a.23.23,0,0,0-.05-.11A.15.15,0,0,0,305,136h-4.46a12.47,12.47,0,0,1-1.39-1.31,2.66,2.66,0,0,1-.56-1.82q0-1.51.13-3a22.1,22.1,0,0,0,.05-3,1.88,1.88,0,0,1,.45-.85,1.06,1.06,0,0,1,.81-.38,1.78,1.78,0,0,1,.38,0,3.67,3.67,0,0,1,.45.14h10.62a2.16,2.16,0,0,1,1.51.52,1.91,1.91,0,0,1,.58,1.49,20.39,20.39,0,0,1-.14,2.38q-.07,1.19-.18,2.34,0,.32-.07.81a3.36,3.36,0,0,1-.2.92,2.21,2.21,0,0,1-.47.76,1.11,1.11,0,0,1-.85.32h-.07l-.29-.07-.31-.07-.27.07a.61.61,0,0,1-.18.07,3.87,3.87,0,0,1-.83.07c-.29,0-.59,0-.9,0a4.4,4.4,0,0,0-.79.25.69.69,0,0,0-.32.61,1.14,1.14,0,0,0,.07.43.36.36,0,0,0,.4.25,9.82,9.82,0,0,0,2.16-.23,10.07,10.07,0,0,1,2.2-.23l.65,0a2.9,2.9,0,0,1,.67.11,1.12,1.12,0,0,1,.74,1,1,1,0,0,1-.29.74,1.6,1.6,0,0,1-.68.38,2.49,2.49,0,0,1-.85.22l-.74.07v.32l.36.36.29.29.27.23.45.4a2.16,2.16,0,0,0,.47.34l.34.36.52.54.56.54a2.72,2.72,0,0,1,.34.36.58.58,0,0,1,.14.36v.47a.89.89,0,0,1-1,1,1.44,1.44,0,0,1-1.15-.5,12.09,12.09,0,0,0-1-.87l-.36-.31-.61-.52-.59-.52a4.49,4.49,0,0,0-.38-.31l-.22-.25-.38-.45-.41-.49-.32-.32a.93.93,0,0,1-.2-.27.43.43,0,0,0-.16-.2l-.12-.09a.74.74,0,0,0-.34-.05,1.3,1.3,0,0,0-.45.07c-.13,0-.2.18-.2.4v.14c0,.17,0,.43.05.79s.08.75.14,1.17.1.8.13,1.13.08.65.11.79a.75.75,0,0,0,.56.38,1,1,0,0,1,.63.38,2.12,2.12,0,0,1,.27.38,4.84,4.84,0,0,0,.34.5,2.5,2.5,0,0,0,.4.41.71.71,0,0,0,.47.18,5.91,5.91,0,0,0,1.31-.14,5.89,5.89,0,0,1,1.31-.14H314a1.63,1.63,0,0,1,.43,0,.77.77,0,0,1,.54.43,1.39,1.39,0,0,1,.22.72,1,1,0,0,1-.27.7,1.68,1.68,0,0,1-.63.4,3.21,3.21,0,0,1-.76.16l-.72.07v.32l1.62,1.66a.33.33,0,0,1,.14.27v.38a1,1,0,0,1-1.15,1.12,1.52,1.52,0,0,1-.69-.14,3.87,3.87,0,0,1-.54-.47q-.72-.61-1.46-1.35t-1.4-1.49a12.85,12.85,0,0,1-1.21-1.6,8.39,8.39,0,0,1-.86-1.78,1,1,0,0,0-.11-.29.21.21,0,0,0-.14,0h-.14a1.07,1.07,0,0,1-.36-.11,1.64,1.64,0,0,1-.52-.54,2.44,2.44,0,0,1-.2-.68c0-.14-.07-.38-.14-.72s-.06-.74-.11-1.13-.11-.77-.18-1.13S305.35,140.26,305.35,140.14Zm-4-10.76q.86.11,1.35.13l1.21,0h.72a.49.49,0,0,0,.2-.34c0-.13,0-.27,0-.41a.07.07,0,0,0,0-.05s0,0,0-.09v-.14l-.29-.14h-2.12l-.25,0-.43.05a.83.83,0,0,0-.34.16.35.35,0,0,0-.16.27v.11a1.11,1.11,0,0,1,.07.23A.48.48,0,0,0,301.32,129.38Zm.18,2.52a.44.44,0,0,0-.2.07c-.08,0-.13.08-.13.11v1.33c0,.07.07.12.2.13l.27,0h.29l.59,0,.9-.05.88-.07h.61v-1.22l-.14-.11-.25,0a5.44,5.44,0,0,1-.59,0c-.23,0-.46-.06-.7-.11H301.5Zm5.9.65a1.72,1.72,0,0,0,.07.41q.07.27.25.27h2.84l.14-.25.21-1.94a17.22,17.22,0,0,0,.11-1.91v-.32c0-.1,0-.14,0-.14l-.11-.18-3.17-.14c-.22,0-.34.08-.38.23a2.05,2.05,0,0,0-.05.45s0,.14,0,.27.05.21.2.23l.85,0a5.56,5.56,0,0,1,1,.13,1.91,1.91,0,0,1,.83.4,1,1,0,0,1,.34.79.14.14,0,0,1-.07.14v.32a2.53,2.53,0,0,1-.29.41c-.14.18-.24.27-.29.27h-2.12a.25.25,0,0,0-.25.18A1.49,1.49,0,0,0,307.4,132.54Z"/><path class="cls-4" d="M328.68,145.61a1,1,0,0,1,.27-.68,1.09,1.09,0,0,1,.63-.4q.94,0,2,0a11.6,11.6,0,0,0,2-.2c.12,0,.18-.09.18-.13v-.31q-.21-1.62-.34-3.15t-.12-3.15v-1.91a1.37,1.37,0,0,1,.45-.61,1.08,1.08,0,0,1,.7-.29,1,1,0,0,1,.83.4,1.76,1.76,0,0,1,.4.94v2.41c0,.14,0,.39.05.74s.07.71.11,1.1.07.76.09,1.12,0,.61.05.76,0,.32.07.52.07.4.11.58.07.34.09.49l0,.22.18.14a.94.94,0,0,0,.29,0h.4l.59,0,.49,0a3.12,3.12,0,0,0,.47,0l.61,0,.5-.05.18,0,.18-.14V125.85h-9.07a.66.66,0,0,1-.56-.41,1.5,1.5,0,0,1-.23-.7,1.31,1.31,0,0,1,.23-.67.77.77,0,0,1,.56-.41l.4,0,.61-.11.65,0,.4,0,1.12,0,2,0,2.38,0q1.28,0,2.43,0l2.21,0,1.57,0h7.56a.85.85,0,0,1,.59.43,1.48,1.48,0,0,1,.16.67,1.84,1.84,0,0,1-.16.72.74.74,0,0,1-.59.45l-9.69.25v9.72l.9.22h6.84c.22,0,.41.15.59.45a3.7,3.7,0,0,1,.34.67V137a.83.83,0,0,1-.18.52,2,2,0,0,1-.43.41,1.09,1.09,0,0,1-.18.14.37.37,0,0,1-.14.07h-7.74l-.14.25v1.48q0,.43,0,1.1t.05,1.28q0,.72.07,1.51l.29.29a3.64,3.64,0,0,0,.76,0h1.12q2.41,0,4.77-.16t4.77-.16a2.44,2.44,0,0,1,1,.18,1,1,0,0,1,.43.94,1.15,1.15,0,0,1-.4.92,1.43,1.43,0,0,1-1,.34l-21.31.76h-2.2a4.25,4.25,0,0,1-1-.05,1.88,1.88,0,0,1-.88-.38A1,1,0,0,1,328.68,145.61Z"/><path class="cls-4" d="M369.43,139.53a2.19,2.19,0,0,0-.5.54,3.1,3.1,0,0,1-.34.59,2.13,2.13,0,0,1-.47.47,1.1,1.1,0,0,1-.67.2,1.37,1.37,0,0,1-.87-.25,1,1,0,0,1-.32-.83.14.14,0,0,1,0-.07.21.21,0,0,0,0-.09.85.85,0,0,1,.07-.23.39.39,0,0,0,.07-.22l5.08-9.07v-.11a17.54,17.54,0,0,0-1.94.11,9.81,9.81,0,0,1-1.87.18,2.12,2.12,0,0,1-1-.29.9.9,0,0,1-.52-.83,1,1,0,0,1,.45-1,2.62,2.62,0,0,1,1-.34,6.52,6.52,0,0,0,.9-.14l1.64-.16,1.62-.18,1-.13a1,1,0,0,0,.7-.29,6.72,6.72,0,0,0,.45-.76c.12-.19.31-.53.56-1s.51-1,.77-1.6.55-1,.79-1.55a11,11,0,0,0,.58-1,1,1,0,0,1,.4-.36,2.1,2.1,0,0,1,.58-.07,1,1,0,0,1,1.12,1.12,1.72,1.72,0,0,1-.32,1.12c-.07.14-.2.41-.38.81s-.38.8-.59,1.21a12,12,0,0,1-.54,1.21c-.19.37-.32.64-.39.81v.11q2.59,0,5.17-.05t5.17-.05a3.72,3.72,0,0,1,1.17.2.89.89,0,0,1,.59,1,2.22,2.22,0,0,1-.16.81.7.7,0,0,1-.74.41l-12.71.47q-.14,0-.7.77t-1.12,1.73q-.56,1-1,1.87a3.6,3.6,0,0,0-.47,1.24s0,.13,0,.25,0,.19,0,.22c0,.26.1.69.14,1.28s.1,1.17.14,1.75.17,1.18.21,1.67.08.82.11,1a3.58,3.58,0,0,0,.09.58c.06.29.11.61.16,1l.14,1.08a7.54,7.54,0,0,1,.18.79,2.78,2.78,0,0,1,.07.27.33.33,0,0,0,.09.2.29.29,0,0,1,.09.09s0,.05.07.05h6.12l.11-.32V145a7.09,7.09,0,0,0,.07-.86v-1.58a6.81,6.81,0,0,0-.18-1.69h-.76a8,8,0,0,0-1.62.16,8,8,0,0,1-1.62.16,2.27,2.27,0,0,1-1.08-.29,1,1,0,0,1-.47-.94,1.14,1.14,0,0,1,.2-.63,1,1,0,0,1,.56-.41l4.72-.79v-4.57a.58.58,0,0,1,.43-.54,2.19,2.19,0,0,1,.72-.22,1.08,1.08,0,0,1,1.15.76v.68c0,.36,0,.73.05,1.1s0,.73.05,1.06,0,.58,0,.72,0,.17,0,.38a.77.77,0,0,0,.09.36l.09.09c0,.07,0,.11.07.11h4a.7.7,0,0,1,.29.18,3,3,0,0,1,.32.36V139a1.11,1.11,0,0,1-.58,1,2.91,2.91,0,0,1-1.24.41,10.11,10.11,0,0,1-1.48.07q-.74,0-1.17,0l-.18.14v4.79l.07.07a.14.14,0,0,0,.11,0l.13.13a.18.18,0,0,0,.13.05l6.41-.61a1.74,1.74,0,0,1,1.06.27,1,1,0,0,1,.48.88,1.2,1.2,0,0,1-.2.79,2.11,2.11,0,0,1-.74.43l-2.07.22q-1.46.15-3.15.25t-3.17.29q-1.44.14-2.05.18l-1.08,0-1.66.05-1.67,0h-1.1a1.43,1.43,0,0,1-.54.54,1.65,1.65,0,0,1-.65.11,1,1,0,0,1-.92-.4,3.66,3.66,0,0,1-.45-1c0-.19-.11-.48-.18-.86s-.14-.7-.22-1.08-.16-.66-.25-1-.07-.46-.07-.5-.08-.52-.16-1-.16-1-.23-1.51-.18-1-.23-1.46Z"/><path class="cls-4" d="M119.88,230q-.07-.75-.17-2.35t-.2-3.6q-.1-2-.2-4.22t-.31-4.18q-.07-2-.17-3.57t-.1-2.35v-.54c0-.23,0-.53,0-.92s0-.76,0-1.12v-1.5c0-.32,0-.66,0-1s0-.69,0-1V203a2.59,2.59,0,0,1,.92-1.46,8.46,8.46,0,0,1,1.53-1,12.06,12.06,0,0,1,1.84-.41q1-.13,1.63-.27l.78,0,1.16-.1,1.19-.1.75,0,.34-.2c0-.14,0-.54,0-1.22s0-1.2,0-1.56v-1q0-.65,0-1.36t0-1.33v-.68c0-.32,0-.82-.07-1.5s0-1.19,0-1.8a13.73,13.73,0,0,0-.14-1.56c-.07-.43-.1-.67-.1-.71l-.2-.75h-3.94q-.61,0-1.09-.82a6.07,6.07,0,0,1-.61-1.29v-.14a2.81,2.81,0,0,1,.58-1.53,1.67,1.67,0,0,1,1.39-.85h16.93a2,2,0,0,1,1.5.71,2.3,2.3,0,0,1,.68,1.63,1.76,1.76,0,0,1-.54,1.39,2.9,2.9,0,0,1-1.22.65l-1.26.34q-.58.17-.58.65v11.83l.27.54q1.7,0,3.13.14a8.9,8.9,0,0,1,2.58.68,4.43,4.43,0,0,1,1.8,1.73,6.22,6.22,0,0,1,.65,3.09q0,6.73-.41,13.26T148,231.18a5.26,5.26,0,0,1-1.22,2.65,2.87,2.87,0,0,1-2.52,1.29h-.54l-2.89,0-3.6-.07-3.74-.07q-1.87,0-3.37-.17h-3.54q-1.63-.07-2.79-.17a4.77,4.77,0,0,1-1.94-.54,3.12,3.12,0,0,1-1.26-1.46A8.44,8.44,0,0,1,119.88,230Zm3.33-22.58q.07,1.09.14,3.54t.34,5.2q.14,2.69.24,5.07t.1,3.13q.14,1.22.27,2.65a8.41,8.41,0,0,0,.61,2.65q.13.34.27.34h17.75l.34-.34q.07-1.43.14-2.79.07-1.16.07-2.41t.07-2.07v-4.56a1.9,1.9,0,0,0-1.22.44,2.08,2.08,0,0,1-1.36.44,5.66,5.66,0,0,1-4.08-1.5,5.12,5.12,0,0,1-1.56-3.88,31.19,31.19,0,0,1,.17-3.3,31.19,31.19,0,0,0,.17-3.3v-2.45c0-.18-.2-.27-.48-.27h-.54q-1.16,0-1.33,1.46a22.43,22.43,0,0,0-.1,3.37q.07,1.9.07,3.6a3.59,3.59,0,0,1-.75,2.58l-3.4,3.4a2,2,0,0,1-.78.44,2.77,2.77,0,0,1-.85.17,2,2,0,0,1-1.63-.68,3.35,3.35,0,0,1-.41-1.63s0-.17,0-.37,0-.35,0-.44q.61-.61,1.5-1.56a4.15,4.15,0,0,0,1.29-1.84,1.12,1.12,0,0,1,.1-.44,1,1,0,0,0,.1-.37v-7.07H124a1,1,0,0,0-.41.14l-.41.41v2.24Zm4.83,15.5a1.65,1.65,0,0,1,.71-1.53,3,3,0,0,1,1.6-.44,30.87,30.87,0,0,1,4.49.34q2.45.41,4.42.54a1.37,1.37,0,0,1,1.09.68,2,2,0,0,1,.41,1.22,1.87,1.87,0,0,1-.41,1.36,1.73,1.73,0,0,1-1.09.68,3.65,3.65,0,0,1-1.33.31c-.48,0-.94,0-1.39,0h-2.31a11.92,11.92,0,0,1-2.79-.34,6.31,6.31,0,0,1-2.45-.88A2.27,2.27,0,0,1,128,222.95Zm5.3-33.25q0,.54,0,1.87t.1,2.82q.07,1.5.07,2.79t.14,1.84h1.63V186.09h-1.63l-.34.54v3.06Zm6.8,23.94c0,.23.09.34.27.34s.33.14.71.27.6.25.65.34a7.71,7.71,0,0,1,1,.65,4.31,4.31,0,0,1,.82.71,36.24,36.24,0,0,0,.51-5.64q0-2.85,0-5.58a4.16,4.16,0,0,0-.07-.61c0-.18-.16-.27-.48-.27h-2.79l-.34.27-.07.75q0,.88-.07,2t-.1,2.31q0,1.19,0,1.94v2.52ZM152,224.92q-.07-.61-.14-2.14t-.17-3.2q-.1-1.67-.2-3.2t-.1-2.14V202.41a56,56,0,0,1,.34-5.92,2,2,0,0,1,.61-1.05,3,3,0,0,1,1.09-.65,9.41,9.41,0,0,1,1.19-.14q.92-.07,1.8-.2l1.84-.14c.63,0,1.07-.07,1.29-.07h.2q1.7,0,3.43.13t3.43.14h2.86a.76.76,0,0,0,.48-.71c0-.38.07-.62.07-.71,0-.36.11-1.06.2-2.11s.26-2,.37-3.09.21-2.17.31-3.16a19,19,0,0,1,.27-2.11v-.14a.59.59,0,0,0-.41-.58,3.68,3.68,0,0,0-.85-.24,5.46,5.46,0,0,0-.82-.07h-.44a5.63,5.63,0,0,1-.92-.1q-.58-.1-1.19-.17t-1,0l-.58,0h-11.9a3.79,3.79,0,0,1-.82-.78,1.67,1.67,0,0,1-.34-1.05,2.08,2.08,0,0,1,1.12-2,5.48,5.48,0,0,1,2.35-.68h1.16q.88,0,1.8,0t1.73,0h2.75c.66,0,1.29,0,1.9,0s1.16,0,1.63,0h.78c.18,0,.53,0,1.05.07L170,177q1,.1,1.94.17c.63,0,1.13.09,1.5.14q2.52.34,2.52,2.65v1q-.07.75-.27,2.62t-.41,4q-.2,2.11-.48,3.94t-.2,2.72a9.59,9.59,0,0,1-1.22,3.54,3.22,3.22,0,0,1-3.06,1.56q-2.65,0-5.2-.17t-5.2-.17l-.68,0a10.49,10.49,0,0,0-1.19,0,9.11,9.11,0,0,0-1.19.14q-.54.1-.61.44a40.33,40.33,0,0,0-.27,4.42v8.57q0,.61.07,2.14t.17,3.2q.1,1.67.17,3.2a14,14,0,0,0,.2,2.14,1.84,1.84,0,0,0,1.26,1.16,8.24,8.24,0,0,0,2.35.51q1.29.1,2.55.1h2q.41,0,1.16-.07a13.83,13.83,0,0,0,1.7-.1,7.18,7.18,0,0,0,1.5-.34,1.83,1.83,0,0,0,1-.65q0-.34,0-1.36t0-1.29a33.68,33.68,0,0,0-.2-3.74,33.92,33.92,0,0,1-.2-3.74,4.5,4.5,0,0,1,.41-1.9,1.93,1.93,0,0,1,1.77-.75,2,2,0,0,1,1.5.58,3.12,3.12,0,0,1,.75,1.33,5.51,5.51,0,0,1,.41,1.7q.07.88.07,1.56v9.32a3.82,3.82,0,0,1-1.5,2.24,5.55,5.55,0,0,1-2.45,1.16,11.81,11.81,0,0,1-2.89.48q-1.53.07-2.75.07h-3.54a22,22,0,0,1-4-.37,9.72,9.72,0,0,1-3.57-1.39A3.83,3.83,0,0,1,152,224.92Z"/><path class="cls-4" d="M200.46,224.44a3.89,3.89,0,0,1,.58-2.18,2.21,2.21,0,0,1,2-.88,4.09,4.09,0,0,1,2.62.78,2.89,2.89,0,0,1,1,2.41,2.55,2.55,0,0,1-1.05,2.11,3.65,3.65,0,0,1-2.28.82,2.64,2.64,0,0,1-2.14-.85A3.32,3.32,0,0,1,200.46,224.44ZM203,208.19v-.71a1.23,1.23,0,0,1,.07-.58l4-20.13a4.23,4.23,0,0,1,.71-1.73,1.77,1.77,0,0,1,1.53-.85A2,2,0,0,1,211,185a2.69,2.69,0,0,1,.68,1.67V187a.33.33,0,0,1-.07.24l-4,20.13a6.62,6.62,0,0,1-.71,2.14,2,2,0,0,1-1.87.92,1.8,1.8,0,0,1-1.56-.58A2.87,2.87,0,0,1,203,208.19Z"/><path class="cls-4" d="M257.85,228.59q-.48,0-.65.61a9.59,9.59,0,0,1-.51,1.36,3.2,3.2,0,0,1-.78,1.36,2.28,2.28,0,0,1-1.73.61q-1.9,0-1.9-2a4.53,4.53,0,0,1,.31-1.67,4.72,4.72,0,0,0,.31-1.73q0-.68-.92-1.05l-2-.82a8.19,8.19,0,0,1-2-1.16,2.39,2.39,0,0,1-.92-2,1.7,1.7,0,0,1,.68-1.5,2.9,2.9,0,0,1,1.7-.48,3.16,3.16,0,0,1,1.29.27,6.22,6.22,0,0,1,1.09.61q.61.34,1.19.61a2.91,2.91,0,0,0,1.26.27c.27,0,.43,0,.48-.07a1.89,1.89,0,0,0,.2-.54l.27-1.05q.2-.78.44-1.67c.16-.59.31-1.12.44-1.6a6.48,6.48,0,0,1,.34-1v-.48a1.59,1.59,0,0,0-.14-.54q-.07-.21-.48-.17a11.88,11.88,0,0,1-1.5,0c-.64,0-1.33,0-2.07,0s-1.45-.07-2.11-.14-1.1-.1-1.33-.1a5.33,5.33,0,0,1-2-.51,1.67,1.67,0,0,1-.92-1.67,1.78,1.78,0,0,1,.54-1.46,3.45,3.45,0,0,1,1.29-.65,5.89,5.89,0,0,1,1.56-.21h3.71q1,0,2,0t2,.14q1.05.1,2.41.17a3.71,3.71,0,0,1,1.63,1,2.79,2.79,0,0,1,.68,1.84v.27l-2.31,9.25v.61q0,.88,1.7,1.6a35.32,35.32,0,0,0,3.81,1.33,28.72,28.72,0,0,0,4.08.88,18.86,18.86,0,0,0,2.79.41,6,6,0,0,0-.14-1.29,6.21,6.21,0,0,1-.14-1.36v-1.22l2.31-9.11v-1.09H267.3a1.76,1.76,0,0,1-1.43-.82,2.29,2.29,0,0,1-.54-1.46,2.22,2.22,0,0,1,.58-1.46,2,2,0,0,1,1.39-.75l7.62-.54.2-.34a3.13,3.13,0,0,0,.27-1q.2-1,.34-1.53,0-.2.07-.78t.2-1.22q.13-.64.2-1.19c0-.36.07-.6.07-.71s0-.4,0-.85,0-.75,0-.88h-7.55a3.38,3.38,0,0,1-2-.61,2.08,2.08,0,0,1,0-3.33,4.49,4.49,0,0,1,1.94-.54q3.33-.27,6.12-.27h14.76a4,4,0,0,1,1.39.78,1.81,1.81,0,0,1,.58,1.43,2.42,2.42,0,0,1-.68,1.67,2.13,2.13,0,0,1-1.63.75h-7.62q-.27,0-.51,1.12t-.41,2.52q-.17,1.39-.27,2.86t-.1,2.14h8.43a3.75,3.75,0,0,1,1.9.51,2.08,2.08,0,0,1,0,3.4,4.34,4.34,0,0,1-1.9.58l-9.66.54-.27.61q-.14.68-.61,2.35t-.92,3.54q-.44,1.87-.92,3.54t-.61,2.35a2.85,2.85,0,0,1-.68,1.16,1.72,1.72,0,0,0-.54,1,.19.19,0,0,0,.07.14l12.1,2.18a2.08,2.08,0,0,1,1.16.75,2.46,2.46,0,0,1,.54,1.43q0,1.36-.78,1.73a4.48,4.48,0,0,1-1.94.38h-1.22l-18.29-3.4a4.08,4.08,0,0,1-.61-.2,10.93,10.93,0,0,1-1.22-.24l-1.36-.34q-.68-.17-1.09-.31-.82-.34-2-1A5.49,5.49,0,0,0,257.85,228.59Zm-9.72-29.72q0-2.17,2-2.18a2.88,2.88,0,0,1,1.19.2,2.54,2.54,0,0,1,.75.51,4.18,4.18,0,0,1,.61.82,5.08,5.08,0,0,0,.78,1,3.08,3.08,0,0,0,.58.71,9.28,9.28,0,0,1,.85,1c.36.41.7.76,1,1.05a3,3,0,0,1,.61.71.93.93,0,0,1,.27.68v.75a2,2,0,0,1-2,2,3.85,3.85,0,0,1-2.07-.82,12.62,12.62,0,0,1-2.28-2,17.88,17.88,0,0,1-1.67-2.38A4.26,4.26,0,0,1,248.13,198.88Zm19.72-18.22a2.44,2.44,0,0,1,.51-1.67,2,2,0,0,1,1.6-.58,2.06,2.06,0,0,1,1.19.31,5.21,5.21,0,0,1,.92.85q.14.27.41,1a11,11,0,0,1,.68,1.5c.27.59.51,1.12.71,1.6s.35.8.44,1a3.24,3.24,0,0,1,.24.71,4.2,4.2,0,0,1,0,.58,1.89,1.89,0,0,1-2.11,2.18,2.09,2.09,0,0,1-1.43-.48,4.14,4.14,0,0,1-1-1.29q-.14-.2-.54-.88c-.18-.45-.41-1-.68-1.5a8.33,8.33,0,0,0-.68-1.43,6.33,6.33,0,0,1-.34-1Zm19.38,46.51-.68-.65q-.48-.44-1-1t-1-1.05a7.84,7.84,0,0,1-.65-.65c-.09-.11-.27-.31-.54-.58l-.68-.82a6.34,6.34,0,0,0-.68-1q-.27-.34-.41-.48c-.27-.45-.5-.82-.68-1.09a3.26,3.26,0,0,1-.14-1,1.86,1.86,0,0,1,2.11-2.11,3.67,3.67,0,0,1,2.11,1.12,27.2,27.2,0,0,1,2.55,2.55,21.42,21.42,0,0,1,2.14,2.86,4.8,4.8,0,0,1,1,2.18,2.63,2.63,0,0,1-.48,1.6,1.74,1.74,0,0,1-1.5.65,2.63,2.63,0,0,1-.82-.2A2.41,2.41,0,0,1,287.23,227.16Zm-4.49-40.26q.14-.47.54-1.63t.92-2.28q.44-1.26.82-2.41a13.12,13.12,0,0,1,.58-1.56,2.34,2.34,0,0,1,2.38-1.7,1.89,1.89,0,0,1,2.18,2.11.2.2,0,0,1-.07.14v.27q-.07.27-.31,1.05t-.58,1.6a16.08,16.08,0,0,1-.48,1.67q-.27.78-.34,1.05-.2.61-.54,1.43a4.58,4.58,0,0,1-.68,1.43,5.77,5.77,0,0,1-1.05,1.16,2.17,2.17,0,0,1-1.43.48,1.83,1.83,0,0,1-1.39-.58,2.13,2.13,0,0,1-.54-1.53Z"/><path class="cls-4" d="M321.84,224.44a3.89,3.89,0,0,1,.58-2.18,2.21,2.21,0,0,1,2-.88,4.09,4.09,0,0,1,2.62.78,2.89,2.89,0,0,1,1,2.41,2.55,2.55,0,0,1-1.05,2.11,3.65,3.65,0,0,1-2.28.82,2.64,2.64,0,0,1-2.14-.85A3.32,3.32,0,0,1,321.84,224.44Zm2.58-16.25v-.71a1.23,1.23,0,0,1,.07-.58l4-20.13a4.23,4.23,0,0,1,.71-1.73,1.77,1.77,0,0,1,1.53-.85,2,2,0,0,1,1.63.85,2.69,2.69,0,0,1,.68,1.67V187a.33.33,0,0,1-.07.24l-4,20.13a6.62,6.62,0,0,1-.71,2.14,2,2,0,0,1-1.87.92,1.8,1.8,0,0,1-1.56-.58A2.87,2.87,0,0,1,324.42,208.19Z"/><path class="cls-4" d="M377.46,218.39a9.94,9.94,0,0,0-1.94-.51,3.25,3.25,0,0,1-1.33-.44,1.57,1.57,0,0,1-.85-.82,5.27,5.27,0,0,1-.37-2q.07-4.49-.1-8.77t-.17-8.7v-2.24a2.89,2.89,0,0,1,1.84-2.28,10.7,10.7,0,0,1,3.2-.58h8.7l.61-.2c0-.36,0-1,0-1.84s0-1.77,0-2.72,0-1.86,0-2.72,0-1.45,0-1.77q0-.75,0-1.46a4.14,4.14,0,0,1,.27-1.33,2.39,2.39,0,0,1,.75-1,2.06,2.06,0,0,1,1.33-.41,2.36,2.36,0,0,1,1.39.41,1.84,1.84,0,0,1,.71,1.29q0,.41,0,1.46t0,2.14q0,1.22,0,2.24t0,1.43a5.2,5.2,0,0,0,.1.68c.07.36.12.75.17,1.16l.14,1.22a7.23,7.23,0,0,0,.14.88,1.92,1.92,0,0,0,.07.34c.14.14.23.2.27.2q.41,0,1.63.07t2.69.34l2.65.27a15.29,15.29,0,0,1,1.8.27,4.26,4.26,0,0,1,.54.07q.54.14,1.12.24a10.58,10.58,0,0,1,1.16.27l.78.24a4.9,4.9,0,0,1,1.63.88,2,2,0,0,1,.88,1.63v.85q0,.65,0,1.33t0,1.29v2q0,.71,0,1.43t0,1.26v.61q0,.21-.1,1.36t-.2,2.58q-.1,1.43-.31,2.79t-.2,2.24a4.55,4.55,0,0,1-1.05,2.58,3.23,3.23,0,0,1-2.62,1.09h-9l-.51.1a3.33,3.33,0,0,0-.58.17l-.31.14c-.11,0-.17.11-.17.2v11.76a3.7,3.7,0,0,1-.71,2.07,2.07,2.07,0,0,1-1.73,1.05,2.54,2.54,0,0,1-1.39-.54,1.52,1.52,0,0,1-.78-1.22V218.39Zm0-5.64q.13.88,1.26,1t1.73.1h3.6a7.64,7.64,0,0,0,3.54-.54,10,10,0,0,0,.37-3.06q0-1.7,0-2.92v-4.15q0-.75,0-1.73c0-.66-.07-1.3-.14-1.94s-.12-1.18-.17-1.63v-.68l-.27-.27h-9.59l-.27.2a1.39,1.39,0,0,0-.27.41v.2c0,.09,0,.3,0,.61s.06.65.1,1,.08.67.1,1,0,.5,0,.54Zm15-13.26q0,1.5,0,3.71t.1,4.35q.07,2.14.07,3.64l.07,1.56.27.2h8.7l.34-.54s0-.42.1-1.12.16-1.54.27-2.52.2-2,.27-3,.13-1.82.17-2.41v-5a6,6,0,0,0-1.9-.82,12.29,12.29,0,0,0-2.28-.34q-1.19-.07-2.35,0l-2,0h-1.56l-.27.34v2Z"/><path class="cls-4" d="M443.22,224.44a3.89,3.89,0,0,1,.58-2.18,2.21,2.21,0,0,1,2-.88,4.09,4.09,0,0,1,2.62.78,2.89,2.89,0,0,1,1,2.41,2.55,2.55,0,0,1-1.05,2.11,3.65,3.65,0,0,1-2.28.82,2.64,2.64,0,0,1-2.14-.85A3.32,3.32,0,0,1,443.22,224.44Zm2.58-16.25v-.71a1.23,1.23,0,0,1,.07-.58l4-20.13a4.23,4.23,0,0,1,.71-1.73,1.77,1.77,0,0,1,1.53-.85,2,2,0,0,1,1.63.85,2.69,2.69,0,0,1,.68,1.67V187a.33.33,0,0,1-.07.24l-4,20.13a6.62,6.62,0,0,1-.71,2.14,2,2,0,0,1-1.87.92,1.8,1.8,0,0,1-1.56-.58A2.87,2.87,0,0,1,445.8,208.19Z"/><path class="cls-4" d="M234,283.33a.43.43,0,0,0-.3.15,2.26,2.26,0,0,1-.22.41,2.85,2.85,0,0,1-.33.39.77.77,0,0,1-.57.2.88.88,0,0,1-.64-.27.93.93,0,0,1-.27-.69,1.5,1.5,0,0,1,.06-.42,1.84,1.84,0,0,0,.06-.49.57.57,0,0,0-.32-.48l-.67-.43a8.43,8.43,0,0,1-.72-.54,1.09,1.09,0,0,1-.3-.81,1,1,0,0,1,.29-.67.88.88,0,0,1,.67-.32.87.87,0,0,1,.52.17c.15.11.3.23.45.36a2.66,2.66,0,0,0,.44.32.87.87,0,0,0,.54.18c.08,0,.17-.08.25-.25a3.6,3.6,0,0,0,.24-.58,4.92,4.92,0,0,0,.17-.69,3.61,3.61,0,0,0,.06-.51V278l-.51-.33a1.55,1.55,0,0,1-.48-.33,1.77,1.77,0,0,1-.39-.39,1.19,1.19,0,0,1-.12-.54,2.52,2.52,0,0,1,.27-1.14,2.85,2.85,0,0,1,.2-.45q.16-.33.34-.73t.36-.74a3.29,3.29,0,0,0,.22-.46c0-.09.08-.21.15-.37s.09-.24.08-.24l-.12-.12H233a4.51,4.51,0,0,0-1.26.17,6.58,6.58,0,0,1-1.2.23,1,1,0,0,1-.84-.32,1.21,1.21,0,0,1-.3-.82.94.94,0,0,1,.33-.79,1.62,1.62,0,0,1,.81-.31l.54-.06.78-.08.75-.08.51,0a.62.62,0,0,1,.27,0h.39c.24,0,.48,0,.72,0a2.12,2.12,0,0,1,.72.22,1.11,1.11,0,0,1,.45.44,1.28,1.28,0,0,1,.21.75,3.58,3.58,0,0,1-.17,1,9.22,9.22,0,0,1-.42,1.13c-.17.38-.35.75-.53,1.11s-.35.67-.51.93V276a9.4,9.4,0,0,1,1,1,1.87,1.87,0,0,1,.3,1.17,3.4,3.4,0,0,1-.33,1.49,4.09,4.09,0,0,0-.3,1.53v.21a.65.65,0,0,0,.18.09,1,1,0,0,1,.3.18q2.37.87,4.82,1.6a20.6,20.6,0,0,0,5,.85H246c.44,0,.89.07,1.37.08l1.3,0,.87,0a1,1,0,0,1,1.14,1,2.17,2.17,0,0,1,0,.23c0,.09,0,.14,0,.16a2.28,2.28,0,0,1-.26.29c-.13.13-.21.2-.25.2h-5.94l-.3,0-.53-.06-.54-.08-.37-.08c-.2-.06-.52-.13-1-.21l-1.26-.3L239,285a4.4,4.4,0,0,1-.68-.2,7.19,7.19,0,0,1-.87-.29l-1.28-.45q-.68-.23-1.26-.45l-.83-.32Zm-2.1-16-.54-.48a4.81,4.81,0,0,1-.57-.62,6.2,6.2,0,0,1-.48-.71,1.74,1.74,0,0,1-.15-.73.83.83,0,0,1,.21-.62,1.09,1.09,0,0,1,.69-.21,1.2,1.2,0,0,1,.72.27,3.22,3.22,0,0,1,.75.67,4.54,4.54,0,0,1,.54.83,1.68,1.68,0,0,1,.21.72,1.23,1.23,0,0,1-.21.72.75.75,0,0,1-.66.3h-.15l-.17,0A.51.51,0,0,1,231.86,267.28ZM241.94,281a2.62,2.62,0,0,1-.57.22,2.71,2.71,0,0,1-.54,0,1.09,1.09,0,0,1-.83-.33,1.21,1.21,0,0,1-.31-.87v-.18a28.75,28.75,0,0,1,.72-3.27l1-3.21V273h-3.87c-.18,0-.32-.13-.42-.39A1.21,1.21,0,0,1,237,272a.84.84,0,0,1,.3-.69A1.87,1.87,0,0,1,238,271a3.54,3.54,0,0,1,.85-.1h10.54a.82.82,0,0,1,.63.3,1,1,0,0,1,.27.66,1.16,1.16,0,0,1-.32.74.91.91,0,0,1-.71.38h-5.34l-.06.06c-.06,0-.09.08-.09.12l-.06.15a.23.23,0,0,0,0,.09c0,.12-.11.29-.21.51s-.13.45-.21.67-.15.43-.22.6a1.15,1.15,0,0,0-.1.34c-.06.2-.15.47-.27.81s-.17.64-.25,1-.17.59-.24.83a3.72,3.72,0,0,0-.1.38v.18l.5,0a1.72,1.72,0,0,0,.49,0l.68-.12,1-.18q.54-.09,1-.21l.69-.09s0,0,.06,0l.06-.08v-.06a1.26,1.26,0,0,0-.13-.57,1.26,1.26,0,0,1-.14-.57.84.84,0,0,1,1-.93,1,1,0,0,1,.63.2,1.92,1.92,0,0,1,.45.58q.06.18.24.66t.48,1q.24.53.43,1a6.62,6.62,0,0,0,.32.68,2.58,2.58,0,0,1,.1.38,3.13,3.13,0,0,1,0,.38,1,1,0,0,1-.24.72.77.77,0,0,1-.69.27.72.72,0,0,1-.48-.18,1.53,1.53,0,0,1-.35-.33,2.29,2.29,0,0,1-.27-.44,3.2,3.2,0,0,0-.22-.41c0-.08-.08-.12-.12-.12h-1.35Zm-2-14.16a.86.86,0,0,1-.48-.36.72.72,0,0,1-.18-.48,1,1,0,0,1,.21-.68,1.4,1.4,0,0,1,.51-.39,2.34,2.34,0,0,1,.67-.18,5.87,5.87,0,0,1,.67,0h.09a.26.26,0,0,1,.12,0l1.37.1,2.08.13,2.07.12,1.41.12a1,1,0,0,1,.54.32.83.83,0,0,1,.24.58,1,1,0,0,1-.34.84,1.39,1.39,0,0,1-.88.27A34,34,0,0,1,244,267,24.56,24.56,0,0,0,240,266.8Z"/><path class="cls-4" d="M259.67,283.66a.85.85,0,0,1,.24-.57,1,1,0,0,1,.51-.33,1.06,1.06,0,0,1,.46-.06h.47a18.71,18.71,0,0,1,2.79.21,18.42,18.42,0,0,0,2.79.21h.45c.1,0,.15-.1.14-.23s0-.21,0-.25c0-.34,0-.65,0-.93s-.05-.61-.09-1l-.21-.13a.39.39,0,0,0-.18-.08l-5-.24a2.15,2.15,0,0,1-.88-.29,1.12,1.12,0,0,1-.58-.74q-.36-2.25-.62-4.51a40.6,40.6,0,0,1-.25-4.54v-1.38a1,1,0,0,1,.35-.51.88.88,0,0,1,.57-.24,2.19,2.19,0,0,1,.71.15h10.32l.41,0,.79.09a6.51,6.51,0,0,1,.84.13l.66.09.4.11a2.33,2.33,0,0,1,.5.21,2.86,2.86,0,0,1,.44.3.46.46,0,0,1,.19.35v1.53l-.63,5.94a1.4,1.4,0,0,1-.29.56.89.89,0,0,0-.22.54,1.08,1.08,0,0,0,.13.51,1.17,1.17,0,0,1,.14.55,2.54,2.54,0,0,1,0,.44,2.35,2.35,0,0,1-.13.48,1.14,1.14,0,0,1-.25.39.58.58,0,0,1-.43.17h-4.35c-.16,0-.25.06-.25.2s0,.23,0,.31v.36c0,.12,0,.27,0,.44s0,.33,0,.46,0,.37.09.57l.12.15h5.34a.63.63,0,0,1,.56.3,1.1,1.1,0,0,1,.19.6.94.94,0,0,1-.17.62,1,1,0,0,1-.45.3,2.4,2.4,0,0,1-.63.13l-.65,0h-.78l-1.18,0-1.19,0-.81,0-.24.12a.42.42,0,0,0,0,.21v.3a7.74,7.74,0,0,0,.06,1,4.07,4.07,0,0,1,.12,1,1.87,1.87,0,0,1-.21.84.77.77,0,0,1-.75.42.86.86,0,0,1-.88-.58,4.67,4.67,0,0,1-.29-1.29c0-.47-.08-.91-.12-1.3s-.17-.62-.39-.66l-6.84-.63a.77.77,0,0,1-.51-.34A1,1,0,0,1,259.67,283.66Zm.36-21a1.06,1.06,0,0,1,.27-.71.87.87,0,0,1,.69-.32.68.68,0,0,1,.39.15,2,2,0,0,1,.42.21,4.91,4.91,0,0,0,.26.42l.42.63.42.65c.13.21.22.36.29.43a1.63,1.63,0,0,1,.18.39,2.23,2.23,0,0,1,0,.45,1.35,1.35,0,0,1-.2.75.74.74,0,0,1-.67.3,1.26,1.26,0,0,1-.81-.42,7.57,7.57,0,0,1-.78-.93,6.23,6.23,0,0,1-.65-1.11A2.4,2.4,0,0,1,260,262.63Zm1.62,8.16.08.75q0,.45.09.85c0,.27.05.5.08.71l0,.3.09.15h.42l1,0,1.2,0,1,0H267l.27-.27v-.6c0-.08,0-.26,0-.53s0-.56,0-.87a5.79,5.79,0,0,0-.1-.81q-.08-.35-.2-.41h-.63q-1.11,0-2.13,0l-2.22.09c-.14,0-.22.09-.24.13a.53.53,0,0,0,0,.2Zm1.14,7.47.65,0,1,0,1,0,.67,0h.79q.23,0,.23-.24V276l-.24-.27-.24,0a3.25,3.25,0,0,1-.57-.06h-.63l-.57,0H262.4a.18.18,0,0,0-.17.22c0,.13,0,.22,0,.26v.53a6,6,0,0,0,0,.61c.06.22.12.42.18.6A.65.65,0,0,0,262.79,278.26Zm6.42-8.16v.51c0,.3,0,.49,0,.57s0,.4,0,.66a5.87,5.87,0,0,0,.08.75c0,.28,0,.51,0,.69l0,.27.09.12h4a.48.48,0,0,1,.06-.21,1.64,1.64,0,0,0,.08-.32c0-.09,0-.27,0-.56s.06-.38.06-.42V270.7l-.24-.15a1.86,1.86,0,0,0-.36-.08l-.69-.14-.81-.07-.6-.08h-.37a4,4,0,0,1-.55-.08h-.87Zm.18,8.4h.12a1.5,1.5,0,0,0,.35.09l.42,0h2.56a.91.91,0,0,0,.42-.3.69.69,0,0,0,.21-.42v-.06s0,0-.08-.11l-.06-.13a.21.21,0,0,1,0-.09.28.28,0,0,0,0-.12l-.09-.15v-1.38l-.21-.12h-3.51l-.24.27v2.22Zm2.07-12.36a1.54,1.54,0,0,1,0-.39,2.82,2.82,0,0,1,.24-.42,5.35,5.35,0,0,0,.45-.72l.64-1.14.65-1.11q.36-.54.48-.75a2.8,2.8,0,0,1,.41-.43.77.77,0,0,1,.52-.2.87.87,0,0,1,.69.31,1,1,0,0,1,.27.69,3.23,3.23,0,0,1-.42,1.22,11.2,11.2,0,0,1-.92,1.69,15.33,15.33,0,0,1-1.12,1.53q-.57.67-1,.67a.89.89,0,0,1-.67-.29A1,1,0,0,1,271.46,266.14Z"/><path class="cls-4" d="M284.81,281.53a2.83,2.83,0,0,1,.17-.89,6.66,6.66,0,0,1,.4-1q.24-.47.45-.95t.48-.72l-.12-.15-1,.07a4.08,4.08,0,0,1-1.11-.06,2.06,2.06,0,0,1-.9-.39,1.1,1.1,0,0,1-.36-.92v-.45c.06-.14.18-.39.38-.77l.6-1.15.6-1.16c.19-.37.33-.62.41-.76a9.76,9.76,0,0,1,.64-1.07l.74-1a3.49,3.49,0,0,0,.27-.66,5.84,5.84,0,0,1,.27-.63,2.59,2.59,0,0,1,.36-.54,1,1,0,0,1,.63-.18.86.86,0,0,1,.73.3,1.21,1.21,0,0,1,.23.75,2.33,2.33,0,0,1-.18.93,9.2,9.2,0,0,1-.45.9l-.3.48-.52.82q-.29.44-.51.81a3.68,3.68,0,0,0-.25.46,1.82,1.82,0,0,0-.24.36c-.1.18-.2.38-.3.59s-.2.4-.3.57a1.62,1.62,0,0,0-.18.38v.12a1.11,1.11,0,0,0,0,.18c0,.06,0,.08.11.06l2.13-.24a.57.57,0,0,0,.43-.3l.36-.57a4.67,4.67,0,0,1,.41-.54,1,1,0,0,1,.72-.24.9.9,0,0,1,.93,1v.33l-.27.39q-.15.3-.36.65c-.14.23-.27.45-.37.64l-.22.4c0,.07-.13.2-.27.39l-.45.62a5.12,5.12,0,0,1-.4.63,3.61,3.61,0,0,0-.27.39,2.74,2.74,0,0,1-.22.33,1.52,1.52,0,0,0-.12.27s0,.06,0,.12a1.65,1.65,0,0,1,0,.18l.67,0a5.81,5.81,0,0,1,.83,0,1.92,1.92,0,0,1,.76.25.78.78,0,0,1,.32.72.86.86,0,0,1-.48.79,2.77,2.77,0,0,1-1,.38,7.36,7.36,0,0,1-1.25.1h-1.5l-.48,0a1.24,1.24,0,0,1-.48-.39A1.16,1.16,0,0,1,284.81,281.53Zm6.33,3.3a4.41,4.41,0,0,1-1.74.84l-1.71.54a3.62,3.62,0,0,1-.58.1h-.56a1.59,1.59,0,0,1-.79-.18.76.76,0,0,1-.31-.72,1.23,1.23,0,0,1,.12-.6,1.36,1.36,0,0,1,.42-.33,1.78,1.78,0,0,1,.52-.16l.56-.11.43-.13.74-.24.73-.24.44-.13.41-.11h.38a1.2,1.2,0,0,1,.48.09.81.81,0,0,0,.48.15V283q-.12-3.15-.17-6.37t-.32-6.41a1.74,1.74,0,0,1-.21-.52,3.3,3.3,0,0,1,0-.5.86.86,0,0,1,.35-.73,2.37,2.37,0,0,1,.76-.37q3-.57,5.73-1a34.69,34.69,0,0,1,5.76-.46h1.83l.48,0a.81.81,0,0,1,.65.54,2.83,2.83,0,0,1,.13.87s0,.12,0,.23,0,.17,0,.19l-.87,4.38a1,1,0,0,1-.36.62,1.47,1.47,0,0,1-.63.25,2.05,2.05,0,0,1-.71.12h-.68l-9.72,1.59c-.14.06-.21.14-.21.24V276q0,2.52.21,5a46.23,46.23,0,0,1,.27,5,4.9,4.9,0,0,1-.11,1.05q-.11.48-.83.48a.82.82,0,0,1-.69-.27,1.84,1.84,0,0,1-.32-.66,4.29,4.29,0,0,1-.13-.84c0-.26,0-.49,0-.69Zm1.62-13q0,.27.08.75a2.12,2.12,0,0,0,.08.51l.21.24,10-1.62q.18,0,.25-.27l.11-.33a4.11,4.11,0,0,0,.17-.63c0-.26.09-.51.13-.75a2.64,2.64,0,0,0,.15-.6l.06-.27-.09-.24-.39,0H303a27.35,27.35,0,0,0-4.75.4l-4.76.86a1.27,1.27,0,0,0-.45.09.73.73,0,0,0-.3.3v1.59ZM305.33,286s0-.09,0-.21,0-.18.06-.3a.92.92,0,0,0,.12-.33,1,1,0,0,0,0-.15v-.37c0-.17,0-.34,0-.53l0-.49c0-.15,0-.27,0-.35a0,0,0,0,1,0,0,3.51,3.51,0,0,1-.48,0,3.64,3.64,0,0,0-.55,0l-.58.08-.15.12-.27,2.85a.64.64,0,0,1-.33.51.93.93,0,0,1-.57.24,1.05,1.05,0,0,1-.6-.24.65.65,0,0,1-.33-.51v-3h-1l-.09.12s0,0,0,.13v.2a4.55,4.55,0,0,0,.13,1.11,4.58,4.58,0,0,1,.13,1.11,1.34,1.34,0,0,1-.21.78,1,1,0,0,1-1.44,0,1.64,1.64,0,0,1-.33-.77,2.32,2.32,0,0,1-.13-.48l-.15-.73q-.08-.37-.14-.77l-.09-.48s-.07-.08-.21-.12l-.46-.15-.48-.16a.88.88,0,0,1-.35-.2l-.12.15a5.42,5.42,0,0,1,.12.69,3.46,3.46,0,0,1,.11.63c0,.18,0,.37,0,.57s0,.42,0,.66c0,0,0,.16,0,.36v.45a1,1,0,0,1-.33.51.85.85,0,0,1-1.21,0,1.18,1.18,0,0,1-.32-.63L294,280v-2.64a.87.87,0,0,1,.21-.54,1.48,1.48,0,0,1,.51-.3,33.31,33.31,0,0,1,3.39-.42q1.68-.12,3.39-.12h1a2.64,2.64,0,0,0,.53.06h.25l.48,0,.84.06.89.06.64.06a5.23,5.23,0,0,1,.6.18,7.1,7.1,0,0,1,.69.36,2.7,2.7,0,0,1,.5.51,1,1,0,0,1,.2.57v1.53l-.6,6.06a3.56,3.56,0,0,1-.36,1.29,1.08,1.08,0,0,1-1.05.6.71.71,0,0,1-.66-.3,1.38,1.38,0,0,1-.18-.72Zm-9.48-22.44a.84.84,0,0,1,1-.93,1.43,1.43,0,0,1,.73.29,5.21,5.21,0,0,1,.83.67,6.24,6.24,0,0,1,.69.87,1.61,1.61,0,0,1,.3.78.74.74,0,0,1-.3.67,1.3,1.3,0,0,1-.72.19,1.41,1.41,0,0,1-.73-.29,6.46,6.46,0,0,1-.86-.67,6.9,6.9,0,0,1-.63-.86A1.48,1.48,0,0,1,295.85,263.53ZM296,279q0,.78.08,1.54a4.31,4.31,0,0,0,.41,1.46,2.72,2.72,0,0,1,.6-.4l.66-.35v-.12a2.22,2.22,0,0,0-.15-.81,4,4,0,0,1-.09-.84,2,2,0,0,1,.08-.54,2,2,0,0,0,.08-.54h-1.38q-.24,0-.25.25C296,278.81,296,278.92,296,279Zm4,2.13a.15.15,0,0,0,.18.14l.21,0a4.34,4.34,0,0,0,.57,0,3.06,3.06,0,0,0,.66-.09q.06-.57.22-1.42a8.19,8.19,0,0,0,.17-1.54h-2.64l-.12.12a1.52,1.52,0,0,1,.29.58,6.47,6.47,0,0,1,.17.78c0,.27.08.53.12.77S299.93,280.91,300,281.11Zm3.87,0a6,6,0,0,0,.66.06l.69.06a1,1,0,0,1,.25.08l.23.08h.09c.06,0,.11-.1.15-.29s.07-.41.1-.66a5.77,5.77,0,0,0,0-.69V278.5c0-.08,0-.12-.15-.12a1.28,1.28,0,0,0-.3-.06,1.18,1.18,0,0,1-.3-.06,7.71,7.71,0,0,0-.83-.1,2,2,0,0,0-.55,0l-.09.12Z"/><path class="cls-4" d="M321.14,287a1.27,1.27,0,0,1,.09-.51.89.89,0,0,1,.45-.39h.57a9.41,9.41,0,0,1,1.58.13,9.4,9.4,0,0,0,1.58.13.53.53,0,0,0,.21,0c.08,0,.14-.1.18-.24l1.23-4.32h-4.68a2.17,2.17,0,0,0-.88.18,2.14,2.14,0,0,1-.88.18.89.89,0,0,1-1-1,3.8,3.8,0,0,1,.13-1l.26-.95q.18-.48.31-1a3.71,3.71,0,0,0,.13-1,9,9,0,0,0-2,.23,9.21,9.21,0,0,1-2,.22,1.21,1.21,0,0,1-.79-.29.94.94,0,0,1-.34-.77,1,1,0,0,1,.22-.58.74.74,0,0,1,.53-.35l12.3-1.38h.36l.51,0h.64a3.46,3.46,0,0,1,.68.06,1.77,1.77,0,0,1,.57.33.83.83,0,0,1,.24.66,1.07,1.07,0,0,1-.2.52.55.55,0,0,1-.46.32l-7.41.63a.5.5,0,0,0-.33.18,1,1,0,0,0-.18.34,4.69,4.69,0,0,1-.21.53c-.06.24-.12.47-.2.71s-.12.43-.17.58a1.8,1.8,0,0,0-.06.3v.21h5.85a1,1,0,0,1,.9.53,1.94,1.94,0,0,1,.33,1,4.15,4.15,0,0,1,0,.44,4.57,4.57,0,0,1-.1.5c-.06.18-.14.46-.24.85s-.22.81-.36,1.25-.21.85-.33,1.23-.15.65-.2.79-.11.34-.17.57a2.46,2.46,0,0,1-.27.65,1.28,1.28,0,0,1-.36.57,1,1,0,0,1-.57.33H324.2a6.8,6.8,0,0,1-1.33-.13,4.57,4.57,0,0,1-1.2-.4A.89.89,0,0,1,321.14,287ZM316,263.53a2,2,0,0,1,.27-1.2,1.14,1.14,0,0,1,.69-.45,3.79,3.79,0,0,1,1.08,0q.66,0,1.32,0h.26l.43,0,.5-.07.29,0h1.53l1.22,0,1.88.09,1.88.07,1.24.06a4.38,4.38,0,0,1,1.19.4,1.09,1.09,0,0,1,.55,1.07.8.8,0,0,1,0,.18v.21l-.1,1.68q-.07,1.2-.13,2.55t-.14,2.56q-.07,1.22-.1,1.67a.87.87,0,0,1-.63.6,22.53,22.53,0,0,0-2.48,0l-2.5.16q-1.23.15-2.47.24t-2.5.09a4.05,4.05,0,0,1-2-.39,2.38,2.38,0,0,1-.69-1.86c0-.3-.07-.8-.15-1.5s-.08-1.39-.12-2.13-.09-1.43-.14-2.07-.08-1.06-.1-1.26Zm2.13,1.53c0,.22,0,.58,0,1.1s.06,1,.1,1.62.07,1.11.09,1.61.1.83.12,1,0,.25.06.43,0,.29.06.29l.24.15h.36l.54,0q2,0,4-.1a35.44,35.44,0,0,0,4-.43c.06,0,.09,0,.1-.11s0-.21,0-.44a2.09,2.09,0,0,0,.09-.43q0-.1,0-.75t.08-1.5q0-.85.08-1.73t.09-1.38v-.15a.19.19,0,0,0-.15-.21l-1.47-.17q-.66-.07-1.28-.09l-1.26,0h-1.39l-2.28,0a11.71,11.71,0,0,0-2.25.25v1Z"/><path class="cls-4" d="M342.05,283.33a1.26,1.26,0,0,1,.42-.9,1.29,1.29,0,0,1,.93-.42,1.17,1.17,0,0,1,.95.46,1.54,1.54,0,0,1,.38,1,1.08,1.08,0,0,1-.44,1,1.85,1.85,0,0,1-1,.29,1.06,1.06,0,0,1-.9-.39A1.58,1.58,0,0,1,342.05,283.33Zm.18-6.36v-.29a2.13,2.13,0,0,1,0-.42,1.41,1.41,0,0,1,.13-.39.29.29,0,0,1,.27-.16h1.56a.38.38,0,0,1,.25.13,1.23,1.23,0,0,1,.23.31,2.59,2.59,0,0,1,.15.38,1.12,1.12,0,0,1,.06.29,1.2,1.2,0,0,1-.48,1,1.57,1.57,0,0,1-1,.39,1.2,1.2,0,0,1-.87-.33A1.14,1.14,0,0,1,342.23,277Z"/></g></g></svg>