<svg xmlns="http://www.w3.org/2000/svg" width="232.85" height="101.5" viewBox="0 0 232.85 101.5"><defs><style>.cls-1{fill:#ffc900;}.cls-2{fill:#fff;stroke:#323232;stroke-miterlimit:10;stroke-width:5px;}.cls-3{fill:#323232;}</style></defs><title>anniu1</title><g id="图层_2" data-name="图层 2"><g id="图层_1-2" data-name="图层 1"><path class="cls-1" d="M9.32,71.28s0,28.47,55.54,28.47,114,5.89,134.47-3.93c15.59-7.48,36.6-32.41,33.13-51C229.55,29.07,214,3.55,193.49,6.5S-1.39,25.15,9.32,71.28Z"/><rect class="cls-2" x="2.5" y="2.5" width="218" height="85" rx="42.5" ry="42.5"/><path class="cls-3" d="M59.73,47.16q0-3,.22-5.85t.22-5.85h-2.3c-.22,0-.36.22-.42.67a2.13,2.13,0,0,1-.34,1q-.25.34-.76,1.09t-1.06,1.54l-1,1.43a7.83,7.83,0,0,1-.59.78q-.14.14-.48.56a10.53,10.53,0,0,1-.78.87,5.84,5.84,0,0,1-.73.9l-.56.73-.36.36a3.76,3.76,0,0,1-.59.48,2,2,0,0,1-.56.56,1.8,1.8,0,0,1-.39.39s0,.08-.14.14l-.28.14a.65.65,0,0,1-.22.06.46.46,0,0,0-.2.06l-.28.11A1.43,1.43,0,0,1,47,46.74a1.87,1.87,0,0,1-.48-1.18A2.86,2.86,0,0,1,47,44.19,15.53,15.53,0,0,1,48,42.79l1.23-1.2a8.69,8.69,0,0,0,1-1q.11-.11.56-.7t1-1.29l1-1.4q.5-.7.73-1l.11-.28a.25.25,0,0,0,.14-.17c0-.07,0-.17-.14-.28s-.08-.11-.11-.11H48.59a1.94,1.94,0,0,1-1.34-.67,2.16,2.16,0,0,1-.56-1.4,3,3,0,0,1,.28-1,.83.83,0,0,1,.73-.56H59.23q1.23,0,1.37-.53a11.68,11.68,0,0,0,.25-1.6A3.61,3.61,0,0,0,61,28.57c0-.48.08-1,.14-1.57s.1-1.09.14-1.6.06-.87.06-1.09a3.67,3.67,0,0,1,.56-1.23,1.66,1.66,0,0,1,1.29-.56,1.45,1.45,0,0,1,1.26.5,2,2,0,0,1,.36,1.23q0,1.51-.11,3a24.59,24.59,0,0,0-.17,2.91v.67c0,.26,0,.39.11.39l.39.28q.39,0,1.32-.08l2-.17,2-.14q.92-.06,1.32-.06l.73-.06H73.4l1,0,.92,0a1.6,1.6,0,0,1,1.4,1.68,1.39,1.39,0,0,1-.45,1,1.6,1.6,0,0,1-1,.5l-11.37,1L63.2,47.78a1.13,1.13,0,0,1-.67,1.12,2.56,2.56,0,0,1-1.23.34A1.25,1.25,0,0,1,60,48.59,3.26,3.26,0,0,1,59.73,47.16Zm-8.12,20.1q-.06-.67-.28-2.52T50.88,61q-.17-2-.45-3.81t-.22-2.46c0-.08,0-.3-.08-.67s-.09-.59-.11-.64a.94.94,0,0,1,0-.28v-.25a2.45,2.45,0,0,1,.9-2A3.35,3.35,0,0,1,53,50.07h1a12.11,12.11,0,0,1,1.26.14q1,.14,2.13.22t2.16.22q1,.14,1.23.14h3.47l1.23,0,1.62.08,1.57.08.9,0c.3,0,.63,0,1,.06l1.2.34a3.18,3.18,0,0,1,1.06.53,1.79,1.79,0,0,1,.64.92v1.4q0,2.47-.11,4.73T73,64a.9.9,0,0,0-.17.48,2,2,0,0,1-.11.48,3.5,3.5,0,0,0-.14,1.18,7.84,7.84,0,0,1,0,1.15,2,2,0,0,1-.39,1,1.77,1.77,0,0,1-1.06.62h-.67a5.19,5.19,0,0,1-1,.14l-1,.06-.64,0h-1l-2,0-2.32,0H59.2l-2.16,0-2.16,0H53.46a2.06,2.06,0,0,1-1.34-.5A2.88,2.88,0,0,1,51.61,67.27Zm2.3,6.1a1.87,1.87,0,0,1,.31-1,1.52,1.52,0,0,1,.87-.64l2,0q1.37,0,3.14-.11t3.61-.14l3.72-.08q1.76,0,3.05-.08h2.07a4.18,4.18,0,0,1,1-.06H76a6.45,6.45,0,0,1,1.12.06,1.17,1.17,0,0,1,1,.56,2,2,0,0,1,.34,1.12,1.53,1.53,0,0,1-.92,1.6,6.33,6.33,0,0,1-2,.42l-1,0L72.86,75l-1.51.06-.9,0-1.09,0q-.9,0-2.1,0H59.12l-2.24,0-1.51,0a1.82,1.82,0,0,1-1-.62A1.64,1.64,0,0,1,53.91,73.37Zm.17-19.88v1.46a8.47,8.47,0,0,0,.34,1.4.19.19,0,0,0,.08.17l.2.11,13.83,1.12h.76c.13,0,.2-.07.2-.22V55l-.22-.28-.78-.11q-.78-.11-1.85-.34L64.49,54a13,13,0,0,1-1.74-.28,43.33,43.33,0,0,0-4.4-.25Zm1.46,11.65a26.7,26.7,0,0,0,3.64.28h3.64l2.86,0a10.55,10.55,0,0,0,2.86-.31,1.07,1.07,0,0,0,.7-1.12c0-.6,0-1.08,0-1.46s-.2-.83-.59-.92a8.51,8.51,0,0,0-1.26-.2q-.34,0-1.88-.11T62.14,61l-3.75-.22q-1.85-.11-2.86-.28h-.22a.44.44,0,0,0-.45.28v.78c0,.22,0,.51,0,.87a7,7,0,0,0,0,1.09,6.85,6.85,0,0,0,.17,1A.85.85,0,0,0,55.53,65.14ZM76.42,46.38a14.65,14.65,0,0,1-1.29-1.12q-.9-.73-1.93-1.65t-2-1.71A14.6,14.6,0,0,0,70,40.83c-.34-.3-.64-.58-.9-.84a1.84,1.84,0,0,1-.28-1.09,1.51,1.51,0,0,1,.48-1.15,1.69,1.69,0,0,1,1.2-.45,2.12,2.12,0,0,1,1,.2,5.81,5.81,0,0,1,.84.53q.22.17.92.78t1.6,1.34l1.68,1.57q.9.79,1.34,1.15a4.25,4.25,0,0,1,.81.9A2,2,0,0,1,79,44.89a1.81,1.81,0,0,1-.5,1.18,1.46,1.46,0,0,1-1.12.59A2,2,0,0,1,76.42,46.38Z"/><path class="cls-3" d="M100.22,58.64a.41.41,0,0,0-.17,0,.3.3,0,0,1-.14,0,6,6,0,0,0-.67.14l-1.32.31-1.18.22a2.58,2.58,0,0,1-.78.22s-.06.06-.17.06A2.34,2.34,0,0,1,94.17,59a1.8,1.8,0,0,1-.67-1.46,2,2,0,0,1,.34-1,2.88,2.88,0,0,1,.78-.67l5.15-1.12a5.54,5.54,0,0,0,.48-.31c.24-.17.36-.29.36-.36V43.63l-1.09,0q-.87,0-1.2,0L97,43.69a6.54,6.54,0,0,0-1.18.14l-.62.2a.48.48,0,0,0-.34.5q-.06.22-.14.78c-.06.37-.12.78-.2,1.2s-.14.83-.2,1.2a5.51,5.51,0,0,1-.14.73,2.73,2.73,0,0,1-.59,1.32,1.6,1.6,0,0,1-1.32.59,1.62,1.62,0,0,1-1.34-.64,2.34,2.34,0,0,1-.5-1.48v-.28a.23.23,0,0,1,.06-.17q.06-.73.11-1.82t.2-2.18q.14-1.09.31-2.1a4.55,4.55,0,0,1,.5-1.57,11.38,11.38,0,0,0,.11-1.18A16.73,16.73,0,0,0,92,37.19q.08-.9.14-1.79t.17-1.12q.11-.45.22-1a3.84,3.84,0,0,1,.36-1,2.29,2.29,0,0,1,.62-.76,1.67,1.67,0,0,1,1-.28,1.59,1.59,0,0,1,1.29.53,2,2,0,0,1,.45,1.32,13.7,13.7,0,0,1-.28,2.8,25.33,25.33,0,0,0-.17,2.91v.78c0,.19.1.28.2.28h.25q1.06,0,2.18-.06a8.67,8.67,0,0,0,2.18-.39c.19-.07.28-.15.28-.22V28.29a1.14,1.14,0,0,1,.59-1.06,2.3,2.3,0,0,1,1.15-.34,2.16,2.16,0,0,1,1.12.34,1.42,1.42,0,0,1,.67,1.06l.39,10.64c0,.22.14.33.42.31l.48,0a15,15,0,0,0,2.07-.14,15.13,15.13,0,0,1,2.07-.14,3.42,3.42,0,0,1,1.6.34,1.43,1.43,0,0,1,.64,1.4,1.81,1.81,0,0,1-.56,1.37,2.11,2.11,0,0,1-1.34.59l-5.1.5a.25.25,0,0,0-.28.28,2.74,2.74,0,0,0-.14.53,3.57,3.57,0,0,0-.08.59v8.34c0,.15.08.22.25.22h.7l.81-.25q.59-.2,1.26-.36a9.47,9.47,0,0,0,1.23-.39l.9-.17h1a3.8,3.8,0,0,1,1.4.22,1.33,1.33,0,0,1,.62,1.29,2.39,2.39,0,0,1-.28,1.06.88.88,0,0,1-.67.67l-6.72,2.07-.28.28-.22.25a.42.42,0,0,0-.11.25V68.83a1,1,0,0,1-.84,1,3.48,3.48,0,0,1-1.18.28,2.19,2.19,0,0,1-1.06-.36,1,1,0,0,1-.62-.87v-10c0-.07-.09-.13-.28-.17A.93.93,0,0,0,100.22,58.64Zm29.62,10.42a3.08,3.08,0,0,1,.73-2,8,8,0,0,0,1.18-1.88,57.46,57.46,0,0,0,2.52-10A64.12,64.12,0,0,0,135.05,45V44q0-.7,0-1.48c0-.52,0-1,0-1.46v-1a.83.83,0,0,0-.28-.59,5.76,5.76,0,0,0-.76-.31,4.58,4.58,0,0,0-.84-.2,5.51,5.51,0,0,0-.7-.06h-.67q-.11.73-.36,2.6t-.59,3.95q-.22,2-.56,3.86t-.39,2.58a4.94,4.94,0,0,1-.11.73q-.11.56-.34,1.29t-.22,1.34q-.11.73-.17,1.06A44.5,44.5,0,0,1,127.6,61q-.84,2.32-1.62,4.45a10,10,0,0,1-.84,1.48,1.59,1.59,0,0,1-1.4.64,1.73,1.73,0,0,1-1.79-1.79,2.75,2.75,0,0,1,.06-.59,5.76,5.76,0,0,1,.22-.7,9.34,9.34,0,0,1,.42-1.2q.36-.92.76-2t.67-2a10.86,10.86,0,0,0,.45-1.2l.17-.81a6.59,6.59,0,0,0,.36-1.06q.14-.56.28-1a3.18,3.18,0,0,0,.14-.59l2.58-16h-4l-.22.28a50.74,50.74,0,0,1-1.2,10.95q-1.21,5.46-2.49,10.78a9,9,0,0,0-.31,1.37,6.12,6.12,0,0,1-.48,1.6,3.92,3.92,0,0,1-.78,1.4,1.72,1.72,0,0,1-1.34.56,1.56,1.56,0,0,1-1.74-1.79v-.56q.17-.73.64-2.66t1-4.06q.53-2.13,1-4.06t.62-2.72q.5-2.35.84-4.62a31.4,31.4,0,0,0,.34-4.62v-.7a3.13,3.13,0,0,0-.06-.73q-.06-.2-.45-.2l-.11,0-.11,0a6.22,6.22,0,0,0-1.06.17,5.3,5.3,0,0,0-1,.28s-.08,0-.11.08a.49.49,0,0,1-.14.14.33.33,0,0,0-.11.11.43.43,0,0,1-.08.11.61.61,0,0,1-.11.22V43.8a.88.88,0,0,1-.67.9,3.08,3.08,0,0,1-1.23.34,2.29,2.29,0,0,1-1.09-.25,1.38,1.38,0,0,1-.64-1V40.55q0-2.46,0-4.34t.2-4.45a5.28,5.28,0,0,1,.67-2,1.86,1.86,0,0,1,1.74-.84,1.32,1.32,0,0,1,1.18.59,2.42,2.42,0,0,1,.39,1.37q0,1.06-.08,2T117,35h.56a.7.7,0,0,0,.56,0,7.77,7.77,0,0,0,.78-.08,7.62,7.62,0,0,1,.84-.08h10.92l.42.06.9.14,1,.14.84.11q.62.11,1.46.34a6.34,6.34,0,0,1,1.6.67,5.56,5.56,0,0,1,1.29,1,2.13,2.13,0,0,1,.53,1.48V51q0,.28-.08,1.15a17.87,17.87,0,0,1-.31,1.93q-.11,1.06-.25,2.1a9.22,9.22,0,0,1-.31,1.54,9.62,9.62,0,0,1-.2,1q-.2.87-.5,2L136.42,63l-.48,1.74a13,13,0,0,1-.56,1.82,13.56,13.56,0,0,1-.92,2,6.4,6.4,0,0,1-1.29,1.6,2.5,2.5,0,0,1-1.71.67,1.52,1.52,0,0,1-1.15-.5A1.66,1.66,0,0,1,129.84,69.06Z"/><path class="cls-3" d="M145,46.66a1.55,1.55,0,0,1,.78-1.46,3.34,3.34,0,0,1,1.68-.45,13,13,0,0,1,2,.22,15.26,15.26,0,0,1,2.63.7,10.79,10.79,0,0,1,2.32,1.15,2.25,2.25,0,0,1,1,1.79,1.7,1.7,0,0,1-.5,1.2,1.57,1.57,0,0,1-1.18.53,4.38,4.38,0,0,1-2.07-.53,13.48,13.48,0,0,0-2-.87,5.39,5.39,0,0,0-1.29-.22,8.5,8.5,0,0,1-1.54-.25,3.72,3.72,0,0,1-1.29-.59A1.43,1.43,0,0,1,145,46.66Zm.28,9.91a1.44,1.44,0,0,1,1.62-1.62q.62,0,1.82.11a22.16,22.16,0,0,1,4.65,1,2.78,2.78,0,0,1,1.37.78c0,.08,0,.22,0,.42s0,.35,0,.42a2.3,2.3,0,0,1-.25,1.09,1.34,1.34,0,0,1-.92.64h-1.51l-1.85,0a11.47,11.47,0,0,1-2.24-.28,5.2,5.2,0,0,1-1.93-.84A1.92,1.92,0,0,1,145.3,56.57ZM146,70.46a3,3,0,0,1,1-1.71,21.28,21.28,0,0,1,2.41-2.16,28.1,28.1,0,0,1,2.77-1.9,5.23,5.23,0,0,1,2.13-.73,1.87,1.87,0,0,1,1.32.56,1.79,1.79,0,0,1,.59,1.34,1.58,1.58,0,0,1-.25.92,3.08,3.08,0,0,1-.7.7,3.34,3.34,0,0,1-.73.39q-.5.34-1.06.76a7.39,7.39,0,0,1-1.12.7,6.43,6.43,0,0,1-.62.45l-.9.62a4.68,4.68,0,0,1-1,.84,5.62,5.62,0,0,1-1,.64,2.53,2.53,0,0,1-1.09.25,1.79,1.79,0,0,1-1.23-.45A1.57,1.57,0,0,1,146,70.46ZM178.56,52c-.19,0-.51,0-1-.06l-1.46-.08-1.43-.06-1,0h-2.69q-2,0-3.89.11t-3.89.11a2.2,2.2,0,0,1-2.52-2.46v-1a3,3,0,0,1,.28-.92q.11-.45.48-1.6l.76-2.38.76-2.38q.36-1.15.53-1.6v-1h-6c-.34,0-.61-.25-.81-.76a3.38,3.38,0,0,1-.31-1.15,2,2,0,0,1,.34-1.12,1.48,1.48,0,0,1,1.06-.62q.78,0,2.88-.08l4.48-.17,4.48-.14q2.1-.05,2.94-.06H180a1.65,1.65,0,0,1,1.43.56,2,2,0,0,1,.53,1.34,2.42,2.42,0,0,1-.39,1.26,1.24,1.24,0,0,1-1.12.64h-12c-.08,0-.2.16-.36.48l-.31.59-2.58,7.62v.67l2.21,0,3.36.08,3.33.08,2.18,0h.67V45a1,1,0,0,1,.64-1,2.93,2.93,0,0,1,1.15-.28,1.59,1.59,0,0,1,1.2.5,3.38,3.38,0,0,1,.73,1.23A8.25,8.25,0,0,1,181,47a4.87,4.87,0,0,0,.34,1.26q.45,1.18.81,2a4.66,4.66,0,0,1,.36,2,2.51,2.51,0,0,1-.31,1.4q-.31.45-1.32.45a1.31,1.31,0,0,1-1-.28,1.19,1.19,0,0,1-.36-.48l-.31-.7A2.13,2.13,0,0,0,178.56,52Zm-18.26,9.8V59.93q.11-.67.22-1.9a1.73,1.73,0,0,1,1.68-1.23,2.47,2.47,0,0,1,1.12.25,1.52,1.52,0,0,1,.73,1q0,.34,0,1.29t.06,2q0,1.06.06,2t0,1.29v.45c0,.26,0,.55,0,.87s0,.64,0,1v1.34c0,.3,0,.61,0,.92s0,.61,0,.87v.62a3.31,3.31,0,0,1-.7,1.12,1.7,1.7,0,0,1-1.18.34,1.62,1.62,0,0,1-1.32-.62,2.09,2.09,0,0,1-.5-1.29q-.11-2.07-.22-4.26Zm5.54-36a1.8,1.8,0,0,1,.5-1.23,1.47,1.47,0,0,1,1.2-.67,1.86,1.86,0,0,1,1.23.45,11.36,11.36,0,0,0,1,.78c.15.11.42.29.81.53l1.32.81,1.37.87q.64.42.87.53a9.29,9.29,0,0,1,.84.73,1.92,1.92,0,0,1,.34,1.18,1.37,1.37,0,0,1-.59,1.23,2.28,2.28,0,0,1-1.29.39,4.47,4.47,0,0,1-1.93-.67,22.13,22.13,0,0,1-2.58-1.4,14.12,14.12,0,0,1-2.18-1.82A2.71,2.71,0,0,1,165.85,25.83ZM170.39,57a1.65,1.65,0,0,1,1.74,1.18q0,.39,0,1.43t.06,2.16q0,1.12.06,2.16t0,1.48v.73a9.43,9.43,0,0,1,.11,1,6.81,6.81,0,0,1-.11.92v1a2.32,2.32,0,0,1-.64,1.06,2.07,2.07,0,0,1-1.23.28,1.52,1.52,0,0,1-1.34-.73,2.8,2.8,0,0,1-.48-1.57V58.42a1.29,1.29,0,0,1,.56-1.12A3.25,3.25,0,0,1,170.39,57Zm5.43,12.1q-.11-2.52-.31-5.4t-.2-5.63V56.79a1.71,1.71,0,0,1,.78-.92,2.53,2.53,0,0,1,1.15-.25,1.91,1.91,0,0,1,1.15.36,1.58,1.58,0,0,1,.62,1.09q0,.56.06,2t.17,3.08q.11,1.65.17,3.08c0,1,.08,1.62.11,2a3.1,3.1,0,0,0,.7,2.13,3.52,3.52,0,0,0,2.21.5l.53,0,.48,0,.22-.22V64.63a.92.92,0,0,1,.59-.81,2.29,2.29,0,0,1,1-.31,1.69,1.69,0,0,1,1.46.7,4.27,4.27,0,0,1,.7,1.65,9.69,9.69,0,0,1,.2,2v1.57q0,2.58-1.51,3.47a7.5,7.5,0,0,1-3.86.9A8.57,8.57,0,0,1,178,72.7,4.74,4.74,0,0,1,175.82,69.11Z"/><path class="cls-1" d="M14.85,41.5c1,1.28,5.44,2.45,7-3s.57-10.27,10-17c7-5,11-5,20-5,15.13,0,12-5.28,4-6-11-1-22,0-30,6C16.58,23.46,11.85,37.5,14.85,41.5Z"/><path class="cls-1" d="M67.85,10.5c-1.37.66-4,5,1,6s8-1,6-3S72.36,8.33,67.85,10.5Z"/></g></g></svg>