<svg xmlns="http://www.w3.org/2000/svg" width="750" height="314.16" viewBox="0 0 750 314.16"><defs><style>.cls-1{fill:#fff;}.cls-2,.cls-6{fill:#ff9500;}.cls-3,.cls-4{fill:#e5e5e5;}.cls-3,.cls-5,.cls-6{fill-rule:evenodd;}</style></defs><title>资源 17</title><g id="图层_2" data-name="图层 2"><g id="图层_1-2" data-name="图层 1"><rect class="cls-1" width="750" height="314"/><path class="cls-2" d="M306.1,313.7l-.43-1.87q2.16.14,3.1.14,1.37,0,1.37-1.15v-10q-2.2.9-4.54,1.62l-.5-1.94a40.79,40.79,0,0,0,5-1.58v-8.68h-4.61v-1.91h4.61v-7h1.94v7H316v1.91h-3.89v7.85q1.84-.86,3.42-1.73v2q-2.56,1.26-3.42,1.66v11.3q0,2.41-2.63,2.41Zm10.3-16.06h20.48v1.8h-9.21v4.64h7.81v1.76h-7.81v5.33a38.89,38.89,0,0,0,5.47.36q2.12,0,4.64-.14l-.54,1.94q-1.58,0-4-.07-7.13,0-9.68-1.37a10.63,10.63,0,0,1-3.89-4.68,21.23,21.23,0,0,1-3.89,6.77l-1.44-1.3a19.09,19.09,0,0,0,4.68-11.45l1.76.22a20.83,20.83,0,0,1-.54,3.71q1.84,4,4.25,5.18a12.46,12.46,0,0,0,1.22.43V299.44h-9.36ZM319,282.56h15.41v12.13H319Zm1.91,5.33h11.56v-3.67H320.93ZM332.49,293v-3.56H320.93V293Z"/><path class="cls-2" d="M353.37,311.68H344v2.2h-1.62V289.43H346v-4.82h-4.86v-1.73h14.58v1.73h-4.39v4.82h3.6v24.41h-1.58Zm0-7.67v-3.53h-2q-1.58,0-1.58-1.73v-7.6h-2.05v2.63q-.11,5.72-2.63,8.35l-.94-.83q2.27-2.34,2.3-7.52v-2.63H344V304ZM344,305.63V310h9.32v-4.32Zm5.76-16.2v-4.82h-2.2v4.82Zm1.19,1.73v7.34q0,.65.61.65h1.76v-8Zm8.57,9.43a19.81,19.81,0,0,1-2.66,4.54l-1.12-1.48a18.49,18.49,0,0,0,3.38-7.92l1.76.22a27.24,27.24,0,0,1-.72,2.88h4.25V295.7h1.91v3.13h6.41v1.76h-6.41v4.36H372v1.69h-5.62v4.57h7.27V313h-17v-1.84h7.78v-4.57h-5.72v-1.69h5.72v-4.36Zm-1.66-17.93H372v11.7H357.9Zm1.84,5.08h10.4v-3.46h-10.4Zm10.4,5v-3.42h-10.4v3.42Z"/><path class="cls-2" d="M379.93,291.84l2.84-9.58,1.94.29L382.45,290h7.06a80.33,80.33,0,0,0,1.84-9.14l2,.22q-.83,5.15-1.8,8.93h17.1v1.84H391q-.83,2.77-1.58,4.72h14.94v1.69a18.9,18.9,0,0,1-6.26,8.75,54.83,54.83,0,0,0,11.2,5.18l-1,1.8a54.13,54.13,0,0,1-11.81-5.76,51.28,51.28,0,0,1-11.34,5.87l-1-1.8A48.72,48.72,0,0,0,394.87,307a20.22,20.22,0,0,1-6.55-7.81A38.21,38.21,0,0,1,378,313.37l-1-1.8q8.28-7.2,12-19.73Zm9.94,6.52a18.84,18.84,0,0,0,6.59,7.52,18.23,18.23,0,0,0,5.94-7.52Zm9.5-17a44.44,44.44,0,0,1,6.55,6.08l-1.4,1.4a39.59,39.59,0,0,0-6.48-6.23Z"/><path class="cls-2" d="M419.14,287.74a40.17,40.17,0,0,1-5.08,3.17l-.58-1.91q6.73-3.53,9.79-8l1.66.76a24.36,24.36,0,0,1-3.85,4.39v8.78h-1.94Zm11.59,13q-.72,6.91-3.31,9.47-2.92,3-12.46,3.78l-.76-1.73q8.86-.54,11.63-3.2,2.55-2.63,3-8.5Zm10-3.89v10.37h-1.94v-8.57h-18v9.14h-1.91V296.85Zm-8.1-2.45q-3,0-3-2.77v-2.05q-2.3.72-4.93,1.4l-1-1.58q2.73-.68,6-1.69v-6.3h1.94v5.65a46.45,46.45,0,0,0,10.58-5l1.3,1.37a56,56,0,0,1-11.88,5.54v2.3q0,1.48,1.62,1.48h6.88a3,3,0,0,0,1.95-.5q.79-.68,1-3.78l1.76.58q-.33,3.82-1.4,4.68a4.78,4.78,0,0,1-2.92.72Zm-.72,13.14a73.68,73.68,0,0,1,12.74,4.93l-1.12,1.69A69.82,69.82,0,0,0,430.87,309Z"/><polygon class="cls-3" points="300.93 61.3 300.93 162.92 343.02 190.5 343.02 84.53 300.93 61.3"/><polygon class="cls-4" points="298.73 59.27 390.17 21.17 438.94 39.46 341.4 83.66 298.73 59.27"/><path class="cls-5" d="M350.94,183.31V88L434,53V75.18c2-.29,4-.49,6-.59s4.18-.09,6.25,0v-35L349.42.65,254.24,35.72V144.54l90.48,56.11L389.16,177a61.46,61.46,0,0,1-5.88-10.79l-32.33,17.12Zm-6-106.1L316.74,62.47l75.64-31.31L424,43.88,345,77.21Zm31.09-52.6L302.53,55.06,275.52,41l73.71-27.16,26.85,10.8ZM266.53,50.13,295.7,65.36v29L308,101V71.76l30.66,16v94.64l-72.12-44.72V50.13Z"/><path d="M375.44,88.21a1.11,1.11,0,0,1,1,0,.88.88,0,0,1,.43.84v.9l-3.17,1.41v-.25q0-.32-.32-.18l-13.56,6v.58l-3.17,1.39V96.57l2.56-1.14-.53-1L362,93l.55,1,2.17-1-.53-1,3.3-1.47.55,1,3-1.32.53-1.46,3.3-1.47-.53,1.46ZM362.59,98.49l-.25.78,14.56-6.48v2.68q-.92.87-1.93,1.75T372.9,99q.95-.17,1.93-.43t2.07-.63V100a31.64,31.64,0,0,1-3.82,1.09,35,35,0,0,1-3.64.59q-1.85,1.38-3.74,2.61a40,40,0,0,1-3.84,2.22v-2.15q1.09-.55,2.1-1.16t2-1.28q-1,0-1.89,0l-1.8,0v-2.5l-2.54,8.2-3,1.35,2.87-9.2-2.89,1.29V99.41l3.49-1.55.21-.65,3-1.37-.21.67,13.7-6.1v1.71Zm-5.43-5.35,19.27-9.62v2l-19.27,9.62Zm12.27,6.32q1.11-.86,2.17-1.75l2.17-1.82-8.41,3.74,2-.06Q368.39,99.53,369.43,99.46Z"/><path d="M395,89.68l3.47-1.54v2.29l-20.34,9.05V97.19l3.4-1.51-1.87-2,3.21-1.43,1.85,2,2-.87V89.91l-7.79,3.47V91.09l7.79-3.47V85.73l-6.77,3v-.93l-1.78.79L379.9,82l16.73-7.45,1.78,5.05-1.76.78v.92l-6.77,3V86.2l7.79-3.47V85l-7.79,3.47V92l1.9-.84,1.87-3.68L396.84,86Zm-12.94-6.37-.65,2.48,13.73-6.11-.65-1.91Z"/><path d="M402.83,77.13l-3.21,1.43V74.75L408.16,71l-.63-1.27,3.52-1.57.6,1.26,5.75-2.56a2.52,2.52,0,0,1,1-.24,1.58,1.58,0,0,1,.81.18,1.43,1.43,0,0,1,.55.56,1.77,1.77,0,0,1,.21.88v1.29l-3.21,1.43v-.8a.45.45,0,0,0-.21-.42.54.54,0,0,0-.51,0l-13.2,5.87Zm13.87,5.17-17.08,7.6V87.62l8.78-3.91V81.49l-8.27,3.68V82.89l8.27-3.68V77.75l-8.78,3.91V79.37L420,70.31V72.6l-8.34,3.71v1.46l7.81-3.48v2.29l-7.81,3.48v2.22l4.16-1.85-.51-1,3.24-1.44L420,80.85l-1.25.56Z"/><path d="M362.07,110.49l5.54,8.85-.52.23-2.1-3.28-5.91,2.64L357,124.06l-.46.2Zm0,1-2.75,6.89,5.54-2.47Z"/><path d="M369.22,107.56l.49-.22V118.4l-.49.22Z"/><path d="M373.45,106.11v-.43l3.21-1.43v7.66a5.53,5.53,0,0,1-.88,3,5.15,5.15,0,0,1-2.29,2l-.15.07a2.69,2.69,0,0,1-2.17.13v-.6a2.23,2.23,0,0,0,2.23,0,4.46,4.46,0,0,0,2-1.78,4.85,4.85,0,0,0,.74-2.58v-7.3Z"/><path d="M378.95,103.23l.49-.22v11.05l-.49.22Z"/><path d="M389.86,98.36l.43-.19v11.22L382.15,103v9.84l-.43.19V101.83l8.14,6.36Z"/><path d="M392.5,97.19,393,97a1.9,1.9,0,0,1,1.61-.12,1.23,1.23,0,0,1,.65,1.24,3.06,3.06,0,0,1-.36,1.3,3.27,3.27,0,0,1-.85,1.14,2.21,2.21,0,0,1,1.89.37,2.4,2.4,0,0,1,.75,2,5.09,5.09,0,0,1-1.07,2.93A6.36,6.36,0,0,1,393,108l-.47.21Zm.47.2v3.48l.12-.05a2.81,2.81,0,0,0,1.17-1.06,2.66,2.66,0,0,0,.51-1.46,1,1,0,0,0-.5-1,1.27,1.27,0,0,0-1.18,0Zm0,3.88v6.35l.12-.05a5.25,5.25,0,0,0,2.19-1.92,4.71,4.71,0,0,0,.92-2.65,1.93,1.93,0,0,0-.92-1.83,2.33,2.33,0,0,0-2.2,0Z"/><path d="M403.05,92.21l5.54,8.85-.52.23L406,98l-5.91,2.64L398,105.79l-.46.2Zm0,1-2.75,6.89,5.54-2.47Z"/><path d="M410.24,98.79a3.5,3.5,0,0,1-1.68-3.28,8.35,8.35,0,0,1,1.69-4.75,9.82,9.82,0,0,1,4.07-3.5,4.4,4.4,0,0,1,4.06-.13,3.4,3.4,0,0,1,1.68,3.25,8.54,8.54,0,0,1-1.66,4.78,9.5,9.5,0,0,1-4,3.49l-.22.1A4.16,4.16,0,0,1,410.24,98.79Zm9.34-8.17a3.2,3.2,0,0,0-1.54-3,4,4,0,0,0-3.72.1,9,9,0,0,0-3.72,3.21,7.77,7.77,0,0,0-1.55,4.42,3.2,3.2,0,0,0,1.55,3,4,4,0,0,0,3.72-.09A8.92,8.92,0,0,0,418,95.05,7.8,7.8,0,0,0,419.58,90.63Z"/><path d="M416.32,94a4.12,4.12,0,0,1-.38-1.81,6.74,6.74,0,0,1,.38-2.15,8.38,8.38,0,0,1-2,1.27,5.53,5.53,0,0,1-2,.5,4.12,4.12,0,0,1,.38,1.81,6.73,6.73,0,0,1-.38,2.15,8.39,8.39,0,0,1,2-1.27A5.53,5.53,0,0,1,416.32,94Z"/><path class="cls-2" d="M415.71,93.71a2.86,2.86,0,0,1-.27-1.26,4.68,4.68,0,0,1,.26-1.5,5.83,5.83,0,0,1-1.38.88,3.84,3.84,0,0,1-1.38.35,2.86,2.86,0,0,1,.27,1.26,4.68,4.68,0,0,1-.26,1.5,5.83,5.83,0,0,1,1.38-.88A3.84,3.84,0,0,1,415.71,93.71Z"/><ellipse class="cls-2" cx="277.08" cy="69.86" rx="4.57" ry="5.33"/><path class="cls-3" d="M461,109s-3.92-7.28-18-2c-16,6-15.7,23.67-14,33,2,11-8,27-15,32h71s-6-19-11-30,2-31-6-31S461,109,461,109Z"/><path d="M491.56,165.29c-1.37-1.87-2.9-4.11-4.6-6.71a70.53,70.53,0,0,1-4.69-8.39,69.11,69.11,0,0,1-3.78-9.63,33.19,33.19,0,0,1-1.47-9.79,34.07,34.07,0,0,0-1.7-11.06,33.58,33.58,0,0,0-4.51-8.91,28.06,28.06,0,0,0-6.79-6.63,31.59,31.59,0,0,0-8.06-4,10.66,10.66,0,0,0,1-4.51,10.84,10.84,0,1,0-21.69,0,10.69,10.69,0,0,0,1,4.49c-.28.07-.61.12-.86.19a31.8,31.8,0,0,0-7.8,4.05,30.44,30.44,0,0,0-6.56,6.46,32,32,0,0,0-4.58,8.78,33.69,33.69,0,0,0-1.78,11.22,33,33,0,0,1-1.47,9.86,74.15,74.15,0,0,1-3.75,9.49,88,88,0,0,1-4.61,8.44c-1.73,2.78-3.22,5.29-4.4,7.38-2.14,3.32-1.3,6.1-.6,7.33a6.39,6.39,0,0,0,5.57,3.42h80.83a6.51,6.51,0,0,0,3.16-1.1,7.4,7.4,0,0,0,3.56-5.94A6.72,6.72,0,0,0,491.56,165.29ZM446.13,92.46a3.24,3.24,0,1,1-3.24,3.24A3.25,3.25,0,0,1,446.13,92.46ZM407.68,169.2c1.07,0,2.28-4.1,3.64-6.29a94.49,94.49,0,0,0,5-9.28,82.82,82.82,0,0,0,4.14-10.52,40.85,40.85,0,0,0,1.82-12.18,26.47,26.47,0,0,1,1.36-8.74,24.38,24.38,0,0,1,3.49-6.73,22.69,22.69,0,0,1,4.87-4.82,23.61,23.61,0,0,1,5.7-3,38.37,38.37,0,0,1,8-.53c4.25,0,7.6.24,7.84.26a23.94,23.94,0,0,1,6.17,3.08,20.61,20.61,0,0,1,4.95,4.84,25.69,25.69,0,0,1,3.47,6.88,26.92,26.92,0,0,1,1.3,8.62,40.82,40.82,0,0,0,1.82,12,75.7,75.7,0,0,0,4.2,10.68,84.37,84.37,0,0,0,5.17,9.49c1.46,2.22,2.79,6.22,4.07,6.22Z"/><path class="cls-6" d="M454.69,114.83a16.33,16.33,0,0,1,9.53,15.66,3.27,3.27,0,0,1-3.28,3.1h-.16a3.26,3.26,0,0,1-3.09-3.44,9.76,9.76,0,0,0-5.69-9.35,3.27,3.27,0,1,1,2.69-6Z"/><rect x="431" y="189" width="30" height="10" rx="5" ry="5"/></g></g></svg>