<svg xmlns="http://www.w3.org/2000/svg" width="60" height="60" viewBox="0 0 60 60">
  <defs>
    <style>
      .cls-1 {
        fill-rule: evenodd;
        opacity: 0.1;
      }
    </style>
  </defs>
  <path id="返回顶部.svg" class="cls-1" d="M672,1138a30,30,0,1,1-30,30A30,30,0,0,1,672,1138Zm-0.616,23.71c0.03-.01.055-0.04,0.086-0.05a1.443,1.443,0,0,1,1.655.28l9.982,10.22a1.355,1.355,0,0,1-.056,1.96,1.472,1.472,0,0,1-2.028-.05l-8.958-9.17-9.091,9.13a1.472,1.472,0,0,1-2.028.04,1.365,1.365,0,0,1-.037-1.97l10.08-10.12c0.02-.02.047-0.03,0.068-0.05s0.025-.03.041-0.05a1.586,1.586,0,0,1,.286-0.17h0Z" transform="translate(-642 -1138)"/>
</svg>
