<svg id="shijianbiao2.svg" xmlns="http://www.w3.org/2000/svg" width="689.22" height="230.812" viewBox="0 0 689.22 230.812">
  <defs>
    <style>
      .cls-1, .cls-3, .cls-5 {
        fill: #ff9500;
      }

      .cls-1, .cls-2, .cls-4, .cls-6 {
        fill-rule: evenodd;
      }

      .cls-2 {
        fill: #666;
      }

      .cls-4 {
        fill: #fff;
      }

      .cls-5 {
        opacity: 0.3;
      }

      .cls-6 {
        fill: none;
        stroke: #ff9500;
        stroke-linecap: round;
        stroke-width: 2px;
        stroke-dasharray: 10 16;
      }
    </style>
  </defs>
  <path id="_4月1日" data-name="4月1日" class="cls-1" d="M882.9,848.141l5.062-7.218v7.218H882.9Zm8.062,0V835.673h-2.343L879.246,848.8v2.156h8.718v4.5h3v-4.5h2.625v-2.813h-2.625Zm12.012-6.562v-2.625h9.843v2.625h-9.843Zm0,3h9.843v2.531h-9.843v-2.531h0Zm-0.188,5.531h10.031V851.8a1.45,1.45,0,0,1-1.687,1.593q-1.687,0-3.938-.093a23.827,23.827,0,0,1,.938,3.187h4.406q3.563,0,3.563-3.937V835.86H899.694v8.719a21.652,21.652,0,0,1-.562,6,8.437,8.437,0,0,1-2.438,3.75q1.407,1.125,2.907,2.437a9.479,9.479,0,0,0,2.812-4.312,9.623,9.623,0,0,0,.375-2.344h0Zm18.761-9.281v3a23.821,23.821,0,0,0,4.969-2.625v14.25h3.094V835.673h-2.344q-1.032,3.188-5.719,5.156h0Zm19.98,3.187v-4.687h10.782v4.687H941.529Zm10.782,3v4.875H941.529v-4.875h10.782Zm-10.782,7.875h10.782v1.594h3.468V836.141H938.154v20.344h3.375v-1.594Z" transform="translate(-879.25 -679.344)"/>
  <path id="_7月" data-name="7月" class="cls-1" d="M1107,838.954h9.46a40.118,40.118,0,0,0-6.84,16.5H1113q1.875-10.78,7.5-17.063v-2.25H1107v2.813Zm22.79,2.625v-2.625h9.84v2.625h-9.84Zm0,3h9.84v2.531h-9.84v-2.531h0Zm-0.19,5.531h10.03V851.8a1.451,1.451,0,0,1-1.69,1.593q-1.68,0-3.93-.093a24.432,24.432,0,0,1,.93,3.187h4.41c2.38,0,3.56-1.312,3.56-3.937V835.86h-16.4v8.719a21.374,21.374,0,0,1-.57,6,8.373,8.373,0,0,1-2.43,3.75c0.93,0.75,1.9,1.561,2.9,2.437a9.543,9.543,0,0,0,2.82-4.312,9.912,9.912,0,0,0,.37-2.344h0Z" transform="translate(-879.25 -679.344)"/>
  <path id="_10月" data-name="10月" class="cls-1" d="M1295.65,840.829v3a23.729,23.729,0,0,0,4.97-2.625v14.25h3.09V835.673h-2.34c-0.69,2.125-2.59,3.843-5.72,5.156h0Zm21.2-2.438c2.44-.187,3.62,2.283,3.56,7.407,0.06,5.062-1.09,7.532-3.47,7.406q-3.645.281-3.56-7.406,0.09-7.218,3.47-7.407h0Zm0.09,17.344q6.66-.189,6.75-9.937,0-10.125-6.84-10.125-6.555.189-6.75,10.125,0,9.938,6.84,9.937h0Zm16.05-14.156v-2.625h9.84v2.625h-9.84Zm0,3h9.84v2.531h-9.84v-2.531h0Zm-0.19,5.531h10.03V851.8a1.451,1.451,0,0,1-1.69,1.593q-1.68,0-3.93-.093a24.432,24.432,0,0,1,.93,3.187h4.41q3.555,0,3.56-3.937V835.86h-16.4v8.719a21.374,21.374,0,0,1-.57,6,8.373,8.373,0,0,1-2.43,3.75c0.93,0.75,1.9,1.561,2.9,2.437a9.115,9.115,0,0,0,3.19-6.656h0Z" transform="translate(-879.25 -679.344)"/>
  <path id="_12月30日" data-name="12月30日" class="cls-1" d="M1463.65,840.829v3a23.729,23.729,0,0,0,4.97-2.625v14.25h3.09V835.673h-2.34c-0.69,2.125-2.59,3.843-5.72,5.156h0Zm17.63,11.906a21.666,21.666,0,0,1,4.68-4.406q5.25-3.375,4.79-7.125c-0.25-3.5-2.32-5.344-6.19-5.531a6.739,6.739,0,0,0-6.85,4.781l3,1.312c0.57-2.062,1.72-3.124,3.47-3.187q3.375,0,3.38,2.812,0.18,2.25-3.94,5.157a21.236,21.236,0,0,0-6.28,6.937v1.875h13.22v-2.625h-9.28Zm18.47-11.156v-2.625h9.84v2.625h-9.84Zm0,3h9.84v2.531h-9.84v-2.531h0Zm-0.19,5.531h10.03V851.8a1.451,1.451,0,0,1-1.69,1.593c-1.12,0-2.44-.03-3.94-0.093a22.975,22.975,0,0,1,.94,3.187h4.41q3.555,0,3.56-3.937V835.86h-16.41v8.719a21.476,21.476,0,0,1-.56,6,8.4,8.4,0,0,1-2.44,3.75q1.41,1.125,2.91,2.437a9.115,9.115,0,0,0,3.19-6.656h0Zm24.28,5.625q6.465-.28,6.84-5.906-0.09-3.186-3.84-4.688,3.09-1.216,3.09-4.031c-0.12-3.562-2.19-5.374-6.18-5.437-3.38.063-5.5,1.781-6.38,5.156l3.19,0.75a3.37,3.37,0,0,1,3.28-3.094c1.81,0.063,2.75.907,2.81,2.531q-0.18,3-3.75,3h-1.59v2.719h2.34q3.465,0.095,3.75,2.906,0.09,3.564-3.75,3.469-3.09-.092-3.47-3.375l-3.18.75q1.02,5.157,6.84,5.25h0Zm15.75-17.344c2.44-.187,3.62,2.283,3.56,7.407,0.06,5.062-1.09,7.532-3.47,7.406q-3.645.281-3.56-7.406,0.09-7.218,3.47-7.407h0Zm0.09,17.344q6.66-.189,6.75-9.937,0-10.125-6.84-10.125-6.57.189-6.75,10.125,0,9.938,6.84,9.937h0Zm14.53-11.719v-4.687H1565v4.687h-10.79Zm10.79,3v4.875h-10.79v-4.875H1565Zm-10.79,7.875H1565v1.594h3.46V836.141h-17.62v20.344h3.37v-1.594Z" transform="translate(-879.25 -679.344)"/>
  <path id="_2017年" data-name="2017年" class="cls-2" d="M880.011,699.674v-1.218a18.051,18.051,0,0,1,5.907-6.75q4.218-3.095,4.125-5.625-0.095-3.375-3.844-3.469-2.907.189-3.938,3.656l-1.875-.937q1.593-4.593,6.188-4.5,5.249,0.189,5.625,4.968,0.28,3.657-4.688,7.032a16.176,16.176,0,0,0-5.062,5.25h9.844v1.593H880.011Zm25.23-9.093q0,8.064-4.031,7.968-4.032.094-4.031-7.968,0.092-7.78,3.937-8.063,4.125-.091,4.125,8.063h0Zm2.157,0q-0.095-9.562-6.188-9.75-6.094.28-6.187,9.75,0,9.47,6.281,9.562,6-.189,6.094-9.562h0Zm9.48-5.813a15.756,15.756,0,0,1-4.969,3V685.8q4.311-1.968,5.531-4.968h1.406v19.031h-1.968V684.768ZM930.2,699.862h-2.25a41.838,41.838,0,0,1,7.032-16.781h-9.657v-1.875h12.188v1.312a38.408,38.408,0,0,0-7.313,17.344h0Zm10.512-11.813c0.436,0.375.687,0.6,0.75,0.657a26.656,26.656,0,0,0,3.75-4.969h6.281v3.937h-7.969v6.469h-3.656v1.688h11.625v5.906h1.781v-5.906h9.094v-1.688h-9.094v-4.781h7.688v-1.688h-7.688v-3.937h8.063v-1.688H946.244l0.562-1.125c0.188-.5.343-0.874,0.469-1.125l-1.875-.468a21.823,21.823,0,0,1-5.344,8.156c0.062,0.063.282,0.25,0.657,0.562h0Zm10.781,1.313v4.781h-6.188v-4.781h6.188Z" transform="translate(-879.25 -679.344)"/>
  <rect id="圆角矩形_3" data-name="圆角矩形 3" class="cls-3" x="86.75" y="48.656" width="96" height="40" rx="20" ry="20"/>
  <rect id="圆角矩形_3_拷贝" data-name="圆角矩形 3 拷贝" class="cls-3" x="297.75" y="48.656" width="96" height="40" rx="20" ry="20"/>
  <rect id="圆角矩形_3_拷贝_2" data-name="圆角矩形 3 拷贝 2" class="cls-3" x="493.75" y="48.656" width="96" height="40" rx="20" ry="20"/>
  <path id="阶段一" class="cls-4" d="M989.4,738.877h-7.3v19.25h2.578V741.283h1.976l-1.718,5.414a7.862,7.862,0,0,1,1.718,4.469,0.8,0.8,0,0,1-.945.859,9.134,9.134,0,0,1-.945-0.085,11.837,11.837,0,0,1,.515,2.75,4.212,4.212,0,0,0,3.18-.946,3.02,3.02,0,0,0,.773-2.234,9.365,9.365,0,0,0-1.718-5.242l1.89-4.985v-2.406Zm1.2,13.148a7.11,7.11,0,0,1-2.664,4.04q1.29,1.2,2.063,2.062a8.827,8.827,0,0,0,3.351-5.5,42.5,42.5,0,0,0,.258-5.93h-2.75a30.161,30.161,0,0,1-.258,5.328h0Zm5.672-13.062,0.258-.688h-2.922a22.405,22.405,0,0,1-5.5,6.875,7.483,7.483,0,0,0,.6.946l1.031,1.547a30.893,30.893,0,0,0,5.156-6.274,16.909,16.909,0,0,0,5.5,6.1,28.807,28.807,0,0,1,1.29-2.836,17.643,17.643,0,0,1-5.415-5.672h0Zm2.664,18.82V746.7h-2.75v11.086h2.75Zm22.961-15.726v-3.18h-8.08v2.578a3.56,3.56,0,0,1-1.55,3.18c0.23,0.172.57,0.459,1.03,0.859a9.962,9.962,0,0,1,1.03.86,7.362,7.362,0,0,0,1.55-1.891,7.232,7.232,0,0,0,.52-3.094h2.92v1.891a1.935,1.935,0,0,0,2.15,2.234h2.14a22.546,22.546,0,0,1,.52-2.492h-1.38a0.794,0.794,0,0,1-.85-0.945h0Zm-9.37,7.047h7.56a10.582,10.582,0,0,1-2.23,2.921,14.208,14.208,0,0,1-2.67-2.921l-2.06,1.546a18.126,18.126,0,0,0,2.49,3.094,19.462,19.462,0,0,1-4.55,1.977,13.967,13.967,0,0,1,1.8,2.406,27.785,27.785,0,0,0,5.07-2.492,27.136,27.136,0,0,0,4.81,2.32,4.2,4.2,0,0,1,.35-0.687,11.4,11.4,0,0,1,1.12-1.805,19.567,19.567,0,0,1-4.04-1.719,16.094,16.094,0,0,0,3-4.726v-2.493h-10.65V749.1Zm-7.39,8.851h2.75v-3.094c1.49-.171,3.01-0.343,4.55-0.515q0-1.461.09-2.578c-1.72.172-3.27,0.343-4.64,0.515v-2.148h4.12v-2.492h-4.12v-1.805h4.12v-2.492h-4.12v-1.719a5.02,5.02,0,0,0,.77-0.086q2.925-.342,4.56-0.6l-0.86-2.579q-4.9.774-7.22,0.946v13.234a3.892,3.892,0,0,0-.69.086,2.269,2.269,0,0,0-.69.086v2.664l1.38-.086v2.664Zm41.26-8.508v-3.179h-20.11v3.179h20.11Z" transform="translate(-879.25 -679.344)"/>
  <path id="阶段二" class="cls-4" d="M1199.4,738.877h-7.3v19.25h2.57V741.283h1.98l-1.72,5.414a7.83,7.83,0,0,1,1.72,4.469,0.8,0.8,0,0,1-.94.859,9.061,9.061,0,0,1-.95-0.085,11.954,11.954,0,0,1,.52,2.75,4.233,4.233,0,0,0,3.18-.946,3.043,3.043,0,0,0,.77-2.234,9.33,9.33,0,0,0-1.72-5.242l1.89-4.985v-2.406Zm1.2,13.148a7.1,7.1,0,0,1-2.66,4.04c0.86,0.8,1.55,1.489,2.06,2.062a8.817,8.817,0,0,0,3.35-5.5,41.128,41.128,0,0,0,.26-5.93h-2.75a29.253,29.253,0,0,1-.26,5.328h0Zm5.68-13.062,0.25-.688h-2.92a22.42,22.42,0,0,1-5.5,6.875,9.278,9.278,0,0,0,.6.946c0.46,0.687.8,1.2,1.03,1.547a30.522,30.522,0,0,0,5.16-6.274,16.873,16.873,0,0,0,5.5,6.1,28.807,28.807,0,0,1,1.29-2.836,17.627,17.627,0,0,1-5.41-5.672h0Zm2.66,18.82V746.7h-2.75v11.086h2.75Zm22.96-15.726v-3.18h-8.08v2.578a3.56,3.56,0,0,1-1.55,3.18c0.23,0.172.57,0.459,1.03,0.859a9.962,9.962,0,0,1,1.03.86,7.362,7.362,0,0,0,1.55-1.891,7.232,7.232,0,0,0,.52-3.094h2.92v1.891a1.935,1.935,0,0,0,2.15,2.234h2.14a22.546,22.546,0,0,1,.52-2.492h-1.38a0.794,0.794,0,0,1-.85-0.945h0Zm-9.37,7.047h7.56a10.582,10.582,0,0,1-2.23,2.921,14.208,14.208,0,0,1-2.67-2.921l-2.06,1.546a18.126,18.126,0,0,0,2.49,3.094,19.462,19.462,0,0,1-4.55,1.977,13.967,13.967,0,0,1,1.8,2.406,27.785,27.785,0,0,0,5.07-2.492,27.136,27.136,0,0,0,4.81,2.32,4.2,4.2,0,0,1,.35-0.687,11.4,11.4,0,0,1,1.12-1.805,19.567,19.567,0,0,1-4.04-1.719,16.094,16.094,0,0,0,3-4.726v-2.493h-10.65V749.1Zm-7.39,8.851h2.75v-3.094c1.49-.171,3.01-0.343,4.55-0.515q0-1.461.09-2.578c-1.72.172-3.27,0.343-4.64,0.515v-2.148h4.12v-2.492h-4.12v-1.805h4.12v-2.492h-4.12v-1.719a5.02,5.02,0,0,0,.77-0.086q2.925-.342,4.56-0.6l-0.86-2.579q-4.9.774-7.22,0.946v13.234a3.892,3.892,0,0,0-.69.086,2.269,2.269,0,0,0-.69.086v2.664l1.38-.086v2.664Zm41.09-2.062v-3.008h-19.68v3.008h19.68Zm-1.55-12.547v-3.008h-16.67v3.008h16.67Z" transform="translate(-879.25 -679.344)"/>
  <path id="阶段三" class="cls-4" d="M1396.4,738.877h-7.3v19.25h2.57V741.283h1.98l-1.72,5.414a7.83,7.83,0,0,1,1.72,4.469,0.8,0.8,0,0,1-.94.859,9.061,9.061,0,0,1-.95-0.085,11.954,11.954,0,0,1,.52,2.75,4.233,4.233,0,0,0,3.18-.946,3.043,3.043,0,0,0,.77-2.234,9.33,9.33,0,0,0-1.72-5.242l1.89-4.985v-2.406Zm1.2,13.148a7.1,7.1,0,0,1-2.66,4.04c0.86,0.8,1.55,1.489,2.06,2.062a8.817,8.817,0,0,0,3.35-5.5,41.128,41.128,0,0,0,.26-5.93h-2.75a29.253,29.253,0,0,1-.26,5.328h0Zm5.68-13.062,0.25-.688h-2.92a22.42,22.42,0,0,1-5.5,6.875,9.278,9.278,0,0,0,.6.946c0.46,0.687.8,1.2,1.03,1.547a30.522,30.522,0,0,0,5.16-6.274,16.873,16.873,0,0,0,5.5,6.1,28.807,28.807,0,0,1,1.29-2.836,17.627,17.627,0,0,1-5.41-5.672h0Zm2.66,18.82V746.7h-2.75v11.086h2.75Zm22.96-15.726v-3.18h-8.08v2.578a3.56,3.56,0,0,1-1.55,3.18c0.23,0.172.57,0.459,1.03,0.859a9.962,9.962,0,0,1,1.03.86,7.362,7.362,0,0,0,1.55-1.891,7.232,7.232,0,0,0,.52-3.094h2.92v1.891a1.935,1.935,0,0,0,2.15,2.234h2.14a22.546,22.546,0,0,1,.52-2.492h-1.38a0.794,0.794,0,0,1-.85-0.945h0Zm-9.37,7.047h7.56a10.582,10.582,0,0,1-2.23,2.921,14.208,14.208,0,0,1-2.67-2.921l-2.06,1.546a18.126,18.126,0,0,0,2.49,3.094,19.462,19.462,0,0,1-4.55,1.977,13.967,13.967,0,0,1,1.8,2.406,27.785,27.785,0,0,0,5.07-2.492,27.136,27.136,0,0,0,4.81,2.32,4.2,4.2,0,0,1,.35-0.687,11.4,11.4,0,0,1,1.12-1.805,19.567,19.567,0,0,1-4.04-1.719,16.094,16.094,0,0,0,3-4.726v-2.493h-10.65V749.1Zm-7.39,8.851h2.75v-3.094c1.49-.171,3.01-0.343,4.55-0.515q0-1.461.09-2.578c-1.72.172-3.27,0.343-4.64,0.515v-2.148h4.12v-2.492h-4.12v-1.805h4.12v-2.492h-4.12v-1.719a5.02,5.02,0,0,0,.77-0.086q2.925-.342,4.56-0.6l-0.86-2.579q-4.9.774-7.22,0.946v13.234a3.892,3.892,0,0,0-.69.086,2.269,2.269,0,0,0-.69.086v2.664l1.38-.086v2.664Zm38.85-8.336V746.7h-15.3v2.922h15.3Zm2.24,7.219v-2.922h-19.77v2.922h19.77Zm-1.38-14.094v-3.008h-17.1v3.008h17.1Z" transform="translate(-879.25 -679.344)"/>
  <path id="_第二季度_" data-name="【第二季度】" class="cls-2" d="M976.159,910.161h6.2a16.754,16.754,0,0,1,0-20.548h-6.2v20.548Zm18.3-10.78h-6.8l-0.968,4.752h6.16q-1.936,2.442-7.524,4.29l0.66,1.078q6.072-2.244,8.162-5.368h0.308v5.852h1.188v-5.852h6.689a11.166,11.166,0,0,1-.22,2.772,1.283,1.283,0,0,1-1.37.792q-1.292,0-2.811-.066l0.286,1.144,2.725,0.022a2.156,2.156,0,0,0,2.14-1.1,13.854,13.854,0,0,0,.46-4.642h-7.9v-2.574h7.149v-4.664H987.071v1.122h7.392v2.442Zm0,3.674h-6.38l0.594-2.574h5.786v2.574Zm1.188-6.116h5.939v2.442h-5.939v-2.442Zm-6.05-4.356a20.432,20.432,0,0,1,1.76,2.486l1.078-.374a12.906,12.906,0,0,0-1.518-2.112h4.026v-1.078h-6.16q0.483-.946.748-1.584l-1.166-.242a12.719,12.719,0,0,1-3.19,4.6l1.034,0.66a16.452,16.452,0,0,0,1.936-2.354H989.6Zm9.46-.044a19.287,19.287,0,0,1,1.719,2.574l1.07-.4a15.057,15.057,0,0,0-1.51-2.178h4.33v-1.078h-6.731q0.219-.485.616-1.54l-1.122-.242a13.265,13.265,0,0,1-2.838,4.62l1.034,0.66a13.481,13.481,0,0,0,1.738-2.42h1.694Zm10.539,1.122h15.49V892.5H1009.6v1.166Zm-2.03,13.838h19.52v-1.166h-19.52V907.5Zm31.62-13.64h-8.78V895h7.37q-1.95,2.332-7.9,4.2l0.68,1.056q6.3-2.178,8.39-5.258h0.24v3.542h1.19V895h0.24q2.415,3.19,8.56,5.17l0.52-1.1q-5.43-1.452-7.92-4.07h7.37v-1.144h-8.77v-2.046a54.9,54.9,0,0,0,6.71-.9l-0.55-.946a80.6,80.6,0,0,1-14.41,1.1l0.35,1.034q3.6,0,6.71-.2v1.958Zm-8.36,11.528h8.86v2.486a0.944,0.944,0,0,1-1.12,1.012l-3.08-.022,0.31,1.078h3.19c1.25,0,1.87-.558,1.87-1.672v-2.882h7.85v-1.122h-7.85V903.1a36.4,36.4,0,0,0,4-2.42V899.6h-10.45v1.078h8.8a38.006,38.006,0,0,1-3.52,1.87v1.716h-8.86v1.122Zm26.18-2.354h1.25a14.4,14.4,0,0,0,4.38,3.938,26.741,26.741,0,0,1-7.08,1.98l0.52,1.056a28.587,28.587,0,0,0,7.75-2.376,28.191,28.191,0,0,0,7.83,2.4l0.53-1.034a27.171,27.171,0,0,1-7.24-1.958,17.362,17.362,0,0,0,4.84-4.136V902h-12.78v1.034Zm11.26,0a15.961,15.961,0,0,1-4.53,3.41,14.112,14.112,0,0,1-4.22-3.41h8.75Zm-12.63-6.182h3.88v3.432h8.66v-3.432h3.44v-1.144h-3.44v-1.98h-1.16v1.98h-6.34v-1.98h-1.16v1.98h-3.88v1.144Zm11.38,0v2.4h-6.34v-2.4h6.34Zm-5.02-6.842a15.464,15.464,0,0,1,.88,1.738h-8.58v7.194q-0.09,6.49-2.09,10.142l0.9,0.814q2.25-4.158,2.38-10.956v-6.05h16.19v-1.144h-7.63a18.11,18.11,0,0,0-.82-1.958Zm12.76-.4a16.754,16.754,0,0,1,0,20.548h6.21V889.613h-6.21Z" transform="translate(-879.25 -679.344)"/>
  <path id="_第三季度_" data-name="【第三季度】" class="cls-2" d="M1172.16,910.161h6.2a16.754,16.754,0,0,1,0-20.548h-6.2v20.548Zm18.3-10.78h-6.8l-0.96,4.752h6.16q-1.935,2.442-7.53,4.29l0.66,1.078q6.075-2.244,8.16-5.368h0.31v5.852h1.19v-5.852h6.69a11.166,11.166,0,0,1-.22,2.772,1.283,1.283,0,0,1-1.37.792c-0.86,0-1.8-.022-2.81-0.066l0.28,1.144,2.73,0.022a2.156,2.156,0,0,0,2.14-1.1,13.854,13.854,0,0,0,.46-4.642h-7.9v-2.574h7.15v-4.664h-15.73v1.122h7.39v2.442Zm0,3.674h-6.38l0.6-2.574h5.78v2.574Zm1.19-6.116h5.94v2.442h-5.94v-2.442Zm-6.05-4.356a19.9,19.9,0,0,1,1.76,2.486l1.08-.374a12.809,12.809,0,0,0-1.52-2.112h4.03v-1.078h-6.16c0.32-.631.57-1.159,0.74-1.584l-1.16-.242a12.806,12.806,0,0,1-3.19,4.6l1.03,0.66a16.273,16.273,0,0,0,1.94-2.354h1.45Zm9.46-.044a19.3,19.3,0,0,1,1.72,2.574l1.07-.4a15.057,15.057,0,0,0-1.51-2.178h4.33v-1.078h-6.73c0.15-.323.35-0.836,0.61-1.54l-1.12-.242a13.123,13.123,0,0,1-2.84,4.62l1.04,0.66a13.587,13.587,0,0,0,1.74-2.42h1.69Zm9.81,0.308h16.99v-1.166h-16.99v1.166Zm1.63,7.656h13.71v-1.188H1206.5V900.5Zm-2.99,8.206h19.67v-1.188h-19.67v1.188Zm31.68-14.85h-8.78V895h7.37q-1.95,2.332-7.9,4.2l0.68,1.056q6.3-2.178,8.39-5.258h0.24v3.542h1.19V895h0.24q2.415,3.19,8.56,5.17l0.52-1.1q-5.43-1.452-7.92-4.07h7.37v-1.144h-8.77v-2.046a54.9,54.9,0,0,0,6.71-.9l-0.55-.946a80.6,80.6,0,0,1-14.41,1.1l0.35,1.034q3.6,0,6.71-.2v1.958Zm-8.36,11.528h8.86v2.486a0.944,0.944,0,0,1-1.12,1.012l-3.08-.022,0.31,1.078h3.19c1.25,0,1.87-.558,1.87-1.672v-2.882h7.85v-1.122h-7.85V903.1a36.4,36.4,0,0,0,4-2.42V899.6h-10.45v1.078h8.8a38.006,38.006,0,0,1-3.52,1.87v1.716h-8.86v1.122Zm26.18-2.354h1.25a14.4,14.4,0,0,0,4.38,3.938,26.741,26.741,0,0,1-7.08,1.98l0.52,1.056a28.587,28.587,0,0,0,7.75-2.376,28.191,28.191,0,0,0,7.83,2.4l0.53-1.034a27.171,27.171,0,0,1-7.24-1.958,17.362,17.362,0,0,0,4.84-4.136V902h-12.78v1.034Zm11.26,0a15.961,15.961,0,0,1-4.53,3.41,14.112,14.112,0,0,1-4.22-3.41h8.75Zm-12.63-6.182h3.88v3.432h8.66v-3.432h3.44v-1.144h-3.44v-1.98h-1.16v1.98h-6.34v-1.98h-1.16v1.98h-3.88v1.144Zm11.38,0v2.4h-6.34v-2.4h6.34Zm-5.02-6.842a15.464,15.464,0,0,1,.88,1.738h-8.58v7.194q-0.09,6.49-2.09,10.142l0.9,0.814q2.25-4.158,2.38-10.956v-6.05h16.19v-1.144h-7.63a18.11,18.11,0,0,0-.82-1.958Zm12.76-.4a16.754,16.754,0,0,1,0,20.548h6.21V889.613h-6.21Z" transform="translate(-879.25 -679.344)"/>
  <path id="_第四季度_" data-name="【第四季度】" class="cls-2" d="M1359.16,910.161h6.2a16.754,16.754,0,0,1,0-20.548h-6.2v20.548Zm18.3-10.78h-6.8l-0.96,4.752h6.16q-1.935,2.442-7.53,4.29l0.66,1.078q6.075-2.244,8.16-5.368h0.31v5.852h1.19v-5.852h6.69a11.166,11.166,0,0,1-.22,2.772,1.283,1.283,0,0,1-1.37.792c-0.86,0-1.8-.022-2.81-0.066l0.28,1.144,2.73,0.022a2.156,2.156,0,0,0,2.14-1.1,13.854,13.854,0,0,0,.46-4.642h-7.9v-2.574h7.15v-4.664h-15.73v1.122h7.39v2.442Zm0,3.674h-6.38l0.6-2.574h5.78v2.574Zm1.19-6.116h5.94v2.442h-5.94v-2.442Zm-6.05-4.356a19.9,19.9,0,0,1,1.76,2.486l1.08-.374a12.809,12.809,0,0,0-1.52-2.112h4.03v-1.078h-6.16c0.32-.631.57-1.159,0.74-1.584l-1.16-.242a12.806,12.806,0,0,1-3.19,4.6l1.03,0.66a16.273,16.273,0,0,0,1.94-2.354h1.45Zm9.46-.044a19.3,19.3,0,0,1,1.72,2.574l1.07-.4a15.057,15.057,0,0,0-1.51-2.178h4.33v-1.078h-6.73c0.15-.323.35-0.836,0.61-1.54l-1.12-.242a13.123,13.123,0,0,1-2.84,4.62l1.04,0.66a13.587,13.587,0,0,0,1.74-2.42h1.69Zm9.44-1.122v18.194h1.21v-1.386h15.27v1.386h1.21V891.417H1391.5Zm1.21,1.1h4.68v4.84a6.309,6.309,0,0,1-3.69,5.918l0.97,0.836a7.275,7.275,0,0,0,3.89-6.754v-4.84h3.61v8.6a1.682,1.682,0,0,0,1.91,1.892h3.9v4.136h-15.27v-14.63Zm15.27,0v9.394h-3.61a0.918,0.918,0,0,1-1.04-1.034v-8.36h4.65Zm14.21,1.342h-8.78V895h7.37q-1.95,2.332-7.9,4.2l0.68,1.056q6.3-2.178,8.39-5.258h0.24v3.542h1.19V895h0.24q2.415,3.19,8.56,5.17l0.52-1.1q-5.43-1.452-7.92-4.07h7.37v-1.144h-8.77v-2.046a54.9,54.9,0,0,0,6.71-.9l-0.55-.946a80.6,80.6,0,0,1-14.41,1.1l0.35,1.034q3.6,0,6.71-.2v1.958Zm-8.36,11.528h8.86v2.486a0.944,0.944,0,0,1-1.12,1.012l-3.08-.022,0.31,1.078h3.19c1.25,0,1.87-.558,1.87-1.672v-2.882h7.85v-1.122h-7.85V903.1a36.4,36.4,0,0,0,4-2.42V899.6h-10.45v1.078h8.8a38.006,38.006,0,0,1-3.52,1.87v1.716h-8.86v1.122Zm26.18-2.354h1.25a14.4,14.4,0,0,0,4.38,3.938,26.741,26.741,0,0,1-7.08,1.98l0.52,1.056a28.587,28.587,0,0,0,7.75-2.376,28.191,28.191,0,0,0,7.83,2.4l0.53-1.034a27.171,27.171,0,0,1-7.24-1.958,17.362,17.362,0,0,0,4.84-4.136V902h-12.78v1.034Zm11.26,0a15.961,15.961,0,0,1-4.53,3.41,14.112,14.112,0,0,1-4.22-3.41h8.75Zm-12.63-6.182h3.88v3.432h8.66v-3.432h3.44v-1.144h-3.44v-1.98h-1.16v1.98h-6.34v-1.98h-1.16v1.98h-3.88v1.144Zm11.38,0v2.4h-6.34v-2.4h6.34Zm-5.02-6.842a15.464,15.464,0,0,1,.88,1.738h-8.58v7.194q-0.09,6.49-2.09,10.142l0.9,0.814q2.25-4.158,2.38-10.956v-6.05h16.19v-1.144h-7.63a18.11,18.11,0,0,0-.82-1.958Zm12.76-.4a16.754,16.754,0,0,1,0,20.548h6.21V889.613h-6.21Z" transform="translate(-879.25 -679.344)"/>
  <circle id="椭圆_1_拷贝_3" data-name="椭圆 1 拷贝 3" class="cls-5" cx="33.75" cy="121.656" r="12"/>
  <circle id="椭圆_1_拷贝_3-2" data-name="椭圆 1 拷贝 3" class="cls-3" cx="33.75" cy="121.656" r="8"/>
  <circle id="椭圆_1_拷贝_5" data-name="椭圆 1 拷贝 5" class="cls-5" cx="232.75" cy="121.656" r="12"/>
  <circle id="椭圆_1_拷贝_5-2" data-name="椭圆 1 拷贝 5" class="cls-3" cx="232.75" cy="121.656" r="8"/>
  <circle id="椭圆_1_拷贝_6" data-name="椭圆 1 拷贝 6" class="cls-5" cx="439.75" cy="121.656" r="12"/>
  <circle id="椭圆_1_拷贝_6-2" data-name="椭圆 1 拷贝 6" class="cls-3" cx="439.75" cy="121.656" r="8"/>
  <circle id="椭圆_1_拷贝_4" data-name="椭圆 1 拷贝 4" class="cls-5" cx="644.75" cy="121.656" r="12"/>
  <circle id="椭圆_1_拷贝_4-2" data-name="椭圆 1 拷贝 4" class="cls-3" cx="644.75" cy="121.656" r="8"/>
  <path id="形状_4_拷贝_3" data-name="形状 4 拷贝 3" class="cls-6" d="M929.292,799H1099.71" transform="translate(-879.25 -679.344)"/>
  <path id="形状_4_拷贝_4" data-name="形状 4 拷贝 4" class="cls-6" d="M1125.98,799h180.04" transform="translate(-879.25 -679.344)"/>
  <path id="形状_4_拷贝_5" data-name="形状 4 拷贝 5" class="cls-6" d="M1332.92,799H1511.9" transform="translate(-879.25 -679.344)"/>
</svg>
