<svg xmlns="http://www.w3.org/2000/svg" width="489.219" height="35.75" viewBox="0 0 489.219 35.75">
  <defs>
    <style>
      .cls-1 {
        fill: #fff;
        fill-rule: evenodd;
      }
    </style>
  </defs>
  <path id="biaoti1.svg" class="cls-1" d="M135.813,192.9v-6.24H133.7l2.928-6.576H133.7l-3.7,7.248V192.9h5.808Zm9.36,0v-6.24h-2.112l2.928-6.576h-2.928l-3.7,7.248V192.9h5.808Zm49.7,0.768a36.368,36.368,0,0,0,1.08-9.12V180.13h-7.3l1.152-2.592h-6.144l-3.12,7.008h10.272a36.121,36.121,0,0,1-.552,6.288,26.146,26.146,0,0,1-1.848,6.048,20.618,20.618,0,0,1-1.8-4.9,29.7,29.7,0,0,1-.7-5.808h-4.992a32.134,32.134,0,0,0,1.248,8.592,26.773,26.773,0,0,0,3.264,7.056q-0.912,1.1-1.944,2.136a23.478,23.478,0,0,1-2.28,1.992v5.952a31.193,31.193,0,0,0,3.936-2.88,35.706,35.706,0,0,0,3.312-3.264,36.978,36.978,0,0,0,3.456,3.216,43.474,43.474,0,0,0,4.032,2.928v-6.528q-1.25-.96-2.3-1.944t-2.016-1.992A29.271,29.271,0,0,0,194.877,193.666Zm-19.992,0h0.72a4.358,4.358,0,0,0,3.12-.936,4.272,4.272,0,0,0,.96-3.144v-9.648h-5.28l1.152-2.3h-6.336l-1.2,2.3h-2.16v13.728h4.752v1.2h-5.328v3.6h1.152L164.469,212h4.8l1.248-8.688h5.04v4.032a1.356,1.356,0,0,1-.264.768,0.9,0.9,0,0,1-.792.384h-0.96l-1.824,3.5h4.56a3.413,3.413,0,0,0,2.664-1.032,3.553,3.553,0,0,0,.936-2.472v-8.784h-8.832l0.192-1.248h8.928v-3.6h-5.28v-1.2Zm-3.936-5.616h3.84v0.576a1.436,1.436,0,0,1-.432,1.056,1.5,1.5,0,0,1-1.1.432h-2.3V188.05Zm3.84-2.736h-3.84v-1.776h3.84v1.776Zm-14.112-7.824h-6.672l3.264,7.968h-3.264l4.464,10.8h6.672l-3.312-7.968h3.312Zm-2.256,20.928-4.464,13.728h6.624l4.464-13.728h-6.624Zm44.5-18.96V210.13h4.8V193.186l1.68,0.337v18.719h5.568V194.578l1.68,0.336v-4.9l-1.68-.336V177.394H209.4v11.232l-1.68-.336v-8.832h-4.8Zm14.64,9.024v3.7h27.408v-3.7H234.933v-1.44h10.032v-3.6H234.933v-1.488h10.032v-3.6H234.933v-0.912h-6.576v0.912h-10.8v3.6h10.8v1.488h-10.8v3.6h10.8v1.44h-10.8Zm6.576,18.912h14.256a1.186,1.186,0,0,1-.36.879,1.211,1.211,0,0,1-.888.356h-0.864l-1.344,3.421h4.992a4.752,4.752,0,0,0,1.968-.409,5.068,5.068,0,0,0,1.584-1.107,5.586,5.586,0,0,0,1.08-1.612,4.8,4.8,0,0,0,.408-1.973V193.282H217.557V212.05h6.576v-4.656Zm0-10.416h14.3v1.344h-14.3v-1.344Zm0,5.04h14.3v1.68h-14.3v-1.68Zm65.472,10.032a3.39,3.39,0,0,0,2.52-1.058,3.519,3.519,0,0,0,1.032-2.547V177.538H252.6V212.05h37.008Zm-31.056-29.76h4.944v11.616l-3.792,9.888h6.672l3.792-8.832V182.29h4.272v16.8a4.351,4.351,0,0,0,.36,1.776,4.538,4.538,0,0,0,2.376,2.376,4.344,4.344,0,0,0,1.776.36h5.664l2.064-4.7H282.6a1.475,1.475,0,0,1-1.488-1.488V182.29h6.1v24a1,1,0,0,1-.288.695,0.942,0.942,0,0,1-.72.311H258.549V182.29Zm51.168,23.04v-3.744h26.592l-0.048,5.232a1.065,1.065,0,0,1-1.056,1.056h-5.472l-1.488,3.936h10.176a4.252,4.252,0,0,0,3.1-1.25,4.09,4.09,0,0,0,1.272-3.028V177.346H303.141V205.32l-2.256,6.874h6.576Zm0-8.4v-5.568h26.544l0.048-.1v5.664H309.717ZM336.309,182.1v4.608H309.717V182.1h26.592Zm24.984,27.84q1.7,4.032,3.1,2.9a3.064,3.064,0,0,0,1.128-3,5.462,5.462,0,0,0-1.3-3,15.238,15.238,0,0,0-3.384-2.52,23.372,23.372,0,0,0-6.672-2.352l-0.192.576Q359.589,205.906,361.293,209.938Zm61.607,2.3V186.178h-1.354l3.515-8.016h-6.432l-5.76,12.96h3.888v21.12H422.9Zm21.793-26.064v-4.224h-6.817l-0.815-3.5h-6.528l0.816,3.5h-7.392v4.224h7.1v4.464h-6.479v4.224h6.479v4.464h-6.479v4.224h6.479v4.464h-7.1v4.224h20.736v-4.224h-7.1v-4.464h6.48V199.33h-6.48v-4.464h6.48v-4.224h-6.48v-4.464h7.1Zm-42.1-8.784,3.5,7.824h6.768l-3.5-7.824H402.6Zm11.328,34.848,1.824-4.224h-2.064a1.475,1.475,0,0,1-1.488-1.488V187.906h-9.648v4.752h2.832v15.7a3.8,3.8,0,0,0,1.1,2.743,3.653,3.653,0,0,0,2.736,1.141h4.7Zm71.567-12.96h-33.84v4.464h33.84v-4.464Zm-27.552-3.888H487.6l0.048,11.664a1.016,1.016,0,0,1-.312.744,1.073,1.073,0,0,1-.792.312h-5.136l-1.632,3.936h9.408a4.261,4.261,0,0,0,4.272-4.272l-0.048-12.384h0.048v-4.416H458.42l0.48-4.512h34.752V182H459.38l0.48-4.464h-6.432l-1.92,17.856h6.432Zm53.568,12.72-1.776,3.984h9.744a5.244,5.244,0,0,0,5.28-5.28v-1.392h10.08a5.244,5.244,0,0,0,5.28-5.28v-1.632h2.448v-4.56h-2.448v-6.912H538.1l2.112-7.872h-28.08l0.768-1.68h-7.1l-2.832,6.432h29.472l-1.008,3.12h-28.7v4.56h15.552v2.352H500.468v4.56h17.808v2.352h-15.6v4.56h15.6v1.2a1.475,1.475,0,0,1-1.488,1.488h-5.28ZM524.756,191.6h8.88v2.352h-8.88V191.6Zm0,6.912h8.88v0.816a1.5,1.5,0,0,1-.432,1.1,1.436,1.436,0,0,1-1.056.432h-7.392v-2.352Zm58.9-6.336H576.98v1.44h-9.936v3.936h9.936v2.064h-8.928v3.936h8.928v2.064h-9.936v3.936h9.936v2.592h6.672v-2.592h9.936v-3.936h-9.936v-2.064h8.928v-3.936h-8.928v-2.064h9.936v-3.936h-9.936v-1.44ZM575.78,177.49h-6.672l-2.064,5.712h17.424a12.462,12.462,0,0,1-3.984,2.041,6.286,6.286,0,0,1-.888-0.34q-0.408-.195-0.792-0.389h-9.7q0.528,0.341,1.1.656t1.152,0.655q0.624,0.293,1.224.608t1.224,0.607q-1.632.336-3.36,0.624-0.864.1-1.68,0.216t-1.728.264v4.176a65.194,65.194,0,0,0,13.584-2.592,61.944,61.944,0,0,0,12.912,2.592v-4.176q-0.72-.1-1.488-0.216t-1.536-.216q-0.864-.144-1.632-0.288t-1.488-.288q1.776-.923,3.312-1.846,0.768-.534,1.488-1.019a10.948,10.948,0,0,0,1.344-1.069v-4.224l-18.336.048Zm-24.528,19.536v4.752h3.984v5.184a5.274,5.274,0,0,0,.384,2.064,5.151,5.151,0,0,0,.456.888,6.906,6.906,0,0,0,.552.744,5.882,5.882,0,0,0,1.632,1.1,4.274,4.274,0,0,0,1.92.384h3.5l1.776-4.08h-2.671a1.387,1.387,0,0,1-1.02-.384,1.77,1.77,0,0,1-.389-1.056v-4.848h4.032v-4.752H561.38V191.65h4.032V186.9h-14.16v4.752h3.984v5.376h-3.984Zm2.565-19.536-2.641,6.48h14.25v-4.8h-6.617l0.714-1.68h-5.706Zm50.283,2.592v6.24h2.112l-2.928,6.576h2.928l3.7-7.248v-5.568H604.1Zm9.312,0v6.24h2.112L612.6,192.9h2.928l3.7-7.248v-5.568h-5.808Z" transform="translate(-130 -177.344)"/>
</svg>
