<svg xmlns="http://www.w3.org/2000/svg" width="48.281" height="41.312" viewBox="0 0 48.281 41.312">
  <defs>
    <style>
      .cls-1 {
        fill: #ff8023;
        fill-rule: evenodd;
      }
    </style>
  </defs>
  <path id="奖品.svg" class="cls-1" d="M683.635,228.663H672.166a6.826,6.826,0,0,0,1.8-4.766,4.239,4.239,0,0,0-1.695-3.561,5.673,5.673,0,0,0-3.444-1.027,8.951,8.951,0,0,0-5.964,2.323,8.958,8.958,0,0,0-5.965-2.323,5.685,5.685,0,0,0-3.446,1.027,4.245,4.245,0,0,0-1.694,3.561,6.826,6.826,0,0,0,1.8,4.766H642.094a3.35,3.35,0,0,0-3.365,3.327v3.135a3.352,3.352,0,0,0,3.365,3.329h0.255v18.854a3.35,3.35,0,0,0,3.364,3.328h34.3a3.35,3.35,0,0,0,3.364-3.328V238.454h0.255A3.352,3.352,0,0,0,687,235.125V231.99A3.35,3.35,0,0,0,683.635,228.663Zm-28.49-4.766c0-.37,0-1.236,1.755-1.236,1.883,0,4.272,1.256,4.272,2.667v3.2a12.952,12.952,0,0,1-2.6-.6C655.145,226.717,655.145,224.6,655.145,223.9Zm6.027,14.557v18.829H645.734V238.454h15.438Zm0-6.441V235.1H642.115v-3.088h19.057Zm3.386-3.481v-3.2a2.371,2.371,0,0,1,1.222-1.737,5.811,5.811,0,0,1,3.049-.93c1.754,0,1.754.866,1.754,1.236,0,0.7,0,2.82-3.43,4.032A12.958,12.958,0,0,1,664.558,228.532Zm19.057,3.481V235.1H664.558v-3.088h19.057ZM680,257.283H664.558V238.454H680v18.829Z" transform="translate(-638.719 -219.313)"/>
</svg>
