<svg id="huodongshijian.svg" xmlns="http://www.w3.org/2000/svg" width="209.219" height="50.469" viewBox="0 0 209.219 50.469">
  <defs>
    <style>
      .cls-1 {
        fill: #ff9500;
      }

      .cls-2 {
        fill: #ffca7f;
      }

      .cls-2, .cls-3 {
        fill-rule: evenodd;
      }

      .cls-3 {
        fill: #fff;
      }
    </style>
  </defs>
  <rect id="矩形_38" data-name="矩形 38" class="cls-1" y="0.469" width="184" height="50"/>
  <path id="矩形_39" data-name="矩形 39" class="cls-2" d="M184,582.543l25.229,25.228L184,633l-25.229-25.229Z" transform="translate(0 -582.531)"/>
  <path id="活动时间" class="cls-3" d="M33.527,601.551c0.687,0.562,1.156.97,1.406,1.219L37,600.613q-1.687-1.406-3.844-3l-1.875,1.969q0.844,0.751,2.25,1.969h0Zm0.844,7.219,2.063-2.25q-1.125-1.031-3.375-2.907c-0.313-.249-0.562-0.436-0.75-0.562l-1.875,2.25q1.874,1.5,3.938,3.469h0Zm-3.469,9q1.406,0.374,3,.937,1.031-2.907,2.438-8.344a20.887,20.887,0,0,1-3-.937q-1.314,5.063-2.437,8.344h0Zm9.656-2.532v-3.656h7.875v3.656H40.558ZM43,606.051v2.812H37.558V618.9h3V617.77h7.875V618.8h3.094v-9.938H46.089v-2.812h6.281v-2.625H46.089v-2.813q2.813-.091,5.531-0.375l-0.375-2.531q-6.75.471-14.25,0.75,0.281,1.407.375,2.25v0.281q0.936-.091,2.813-0.093Q42.057,600.8,43,600.8v2.625H36.714v2.625H43Zm14.962-7.406v2.906h8.531v-2.906H57.958Zm5.156,10.968a35.011,35.011,0,0,1,1.313,3.563,11.952,11.952,0,0,1-1.781.094q-1.219.094-1.875,0.093,1.125-3.093,2.25-6.281h4.313V604.27H57.021v2.812h2.719q-1.687,6-2.812,7.031l1.313,2.532a11.121,11.121,0,0,1,2.438-.375q1.031-.093,3.656-0.282,1.5-.091,2.25-0.187a3.224,3.224,0,0,1-.656.656,5.8,5.8,0,0,1-.469.563,26.084,26.084,0,0,1,2.719,1.875q3.938-4.406,3.938-12.094,0.092-1.407.094-3.094h2.906q0,6.939-.281,10.594,0,1.125-1.5,1.125H72.489q-0.938-.093-1.5-0.094,0.468,1.5.844,3.188c0.436,0,1.062-.033,1.875-0.094h1.219a2.847,2.847,0,0,0,2.906-3q0.187-4.687.281-14.625H72.3v-3.844H69.4q-0.095,1.97-.094,3.844H66.958v2.906h2.25q0.092,7.407-1.5,10.125-0.376-.936-1.125-2.812-0.844-1.875-1.219-2.813l-2.437.844a3.043,3.043,0,0,1,.188.562h0Zm27.056-.843v4.406H87.265V608.77h2.906Zm-2.906-2.907v-4.406h2.906v4.406H87.265Zm9.188,5.25a7.514,7.514,0,0,0,.656,1.125l2.719-1.781q-0.938-1.311-2.531-3.375-1.125-1.5-1.5-2.062l-2.344,1.593q0.936,1.219,3,4.5h0Zm3.937-7.312v10.125a1.451,1.451,0,0,1-1.593,1.687q-0.657,0-1.969-.093h-1.5a16.054,16.054,0,0,1,.656,2.625,1.561,1.561,0,0,1,.094.468q2.342,0,4.125-.093,3.375,0,3.375-3.657V603.8h1.875V600.9h-1.875v-3.75h-3.188v3.75H93.827V603.8h6.562ZM87.265,616.082h2.906v1.406h3V598.551H84.358v19.031h2.906v-1.5Zm31.275-6.469h4.407v2.157h-4.407v-2.157Zm0-2.437V605.02h4.407v2.156h-4.407Zm-3.281-5.438,3.094-1.218q-1.125-1.969-2.156-3.563l-2.907,1.031q0.844,1.5,1.969,3.75h0Zm-1.594,16.969V599.863h-3.093v18.844h3.093Zm5.438-20.719v2.719h8.812v13.875a1.25,1.25,0,0,1-1.5,1.313q-2.25,0-3.656-.094a13.288,13.288,0,0,1,.656,2.906,30.6,30.6,0,0,0,5.438-.281q2.155-.657,2.156-3.656V597.988H119.1Zm-0.563,17.532V614.3h7.219V602.582H115.727V615.52h2.812Z" transform="translate(0 -582.531)"/>
</svg>
