<svg id="jiangli.svg" xmlns="http://www.w3.org/2000/svg" width="160.219" height="50.47" viewBox="0 0 160.219 50.47">
  <defs>
    <style>
      .cls-1 {
        fill: #ff9500;
      }

      .cls-2 {
        fill: #ffca7f;
      }

      .cls-2, .cls-3 {
        fill-rule: evenodd;
      }

      .cls-3 {
        fill: #fff;
      }
    </style>
  </defs>
  <rect id="矩形_38" data-name="矩形 38" class="cls-1" y="0.47" width="135" height="50"/>
  <path id="矩形_39" data-name="矩形 39" class="cls-2" d="M135,1224.54l25.229,25.23L135,1275l-25.229-25.23Z" transform="translate(0 -1224.53)"/>
  <path id="奖励" class="cls-3" d="M35.871,1248.43v3.28h2.906v-12.75H35.871v4.03c-0.562-.5-1.282-1.16-2.156-1.97-0.5-.44-0.844-0.75-1.031-0.94l-1.781,1.69A36.1,36.1,0,0,1,34,1244.86l1.875-1.78v2.35q-0.657.27-2.062,0.75c-1.376.56-2.437,0.97-3.187,1.21l0.938,2.91a43.5,43.5,0,0,1,4.313-1.87h0Zm4.688-2.16a5.242,5.242,0,0,0,.375.47,18.568,18.568,0,0,0,2.438-3h5.813a10.057,10.057,0,0,1-2.344,2.62q-1.5-1.395-2.625-2.25l-1.781,1.78a15.57,15.57,0,0,1,2.25,1.88,19.762,19.762,0,0,1-3.469,1.31,13.436,13.436,0,0,1,.844,1.13H40.464q-0.189,1.125-.469,2.25H30.9v2.62h7.5q-2.063,2.16-7.875,3c0.375,0.81.75,1.75,1.125,2.81q6.75-1.125,9.75-4.78,2.9,4.23,9.75,4.78a15.912,15.912,0,0,1,1.5-3c-4.125-.31-6.97-1.24-8.531-2.81h8.25v-2.62H43.183a9.246,9.246,0,0,0,.281-1.03q6.75-2.535,8.719-7.88v-2.25H44.964c0.312-.56.656-1.19,1.031-1.87l-2.906-.57a19.8,19.8,0,0,1-4.125,6q0.655,0.57,1.594,1.41h0Zm24.338,5.34h1.313c-0.063,1.69-.157,3.35-0.281,4.97a1.081,1.081,0,0,1-1.125,1.31H63.771a27.492,27.492,0,0,0,1.125-6.28h0Zm8.906-5.53H75.4q0,6.57-.187,9.75c0,1.19-.438,1.78-1.312,1.78a10.733,10.733,0,0,1-1.594-.09,29.275,29.275,0,0,0,1.5-9.66v-1.78h0Zm4.313-2.9H73.8c0-1.5.031-2.88,0.094-4.13H71.177v4.13h-1.5v2.9h1.5q-0.094,8.535-2.719,12.1,0.281-2.355.375-9.1h-3.75v-2.34h3.844v-2.72H61.052v-1.41h8.625v-2.81H58.239v7.5q0,6.945-1.406,10.59a14.108,14.108,0,0,1,1.875,3.1q2.342-4.875,2.344-13.22v-1.03h1.406v2.9q-0.094,5.535-1.969,8.63a17.662,17.662,0,0,1,1.781,2.91,16,16,0,0,0,1.313-2.72,10.521,10.521,0,0,1,.188,1.12,5.193,5.193,0,0,1,.188,1.13,18.576,18.576,0,0,0,1.969-.1,2.708,2.708,0,0,0,2.156-1.31c1.125,0.94,1.812,1.53,2.063,1.78a19.169,19.169,0,0,0,1.875-2.9,10.724,10.724,0,0,1,.375,2.34q0.563,0,1.594-.09h0.938q2.813-.285,2.906-3.29,0.187-5.9.281-13.96h0Z" transform="translate(0 -1224.53)"/>
</svg>
