<svg id="chengfeng.svg" xmlns="http://www.w3.org/2000/svg" width="50" height="160" viewBox="0 0 50 160">
  <defs>
    <style>
      .cls-1 {
        fill: #009e96;
      }

      .cls-1, .cls-2 {
        fill-rule: evenodd;
      }

      .cls-2 {
        fill: #fff;
      }
    </style>
  </defs>
  <path id="圆角矩形" class="cls-1" d="M30,335.99H80v135a25,25,0,0,1-50,0v-135Z" transform="translate(-30 -336)"/>
  <path id="呈枫文化" class="cls-2" d="M49.135,371.586H59.916v2.25H49.135v-2.25Zm-3.187,4.875H63.1v-7.5H45.947v7.5Zm-1.406,1.5v2.719h8.344v1.687h-7.5v2.625h7.5v1.594h-9v2.531H65.26v-2.531h-9v-1.594h7.5v-2.625h-7.5V380.68H64.6v-2.719H44.541Zm15.844,30.953a31.03,31.03,0,0,0-1.687-3.938c-0.187-.436-0.313-0.75-0.375-0.937q1.031-2.532,1.969-5.344v5.437q0,2.813.094,4.782h0Zm-6.562-6.563v-2.812a46.937,46.937,0,0,1,2.063,4.5q-1.314,2.625-2.719,4.875a24.422,24.422,0,0,0,.656-6.563h0Zm0-6.656h6.469v2.25l-1.875-.75A39.922,39.922,0,0,1,57.1,401.32q-0.938-1.969-1.969-4.031l-1.312.75V395.7ZM43.7,406.382q0.281,1.782.375,2.438a37.328,37.328,0,0,0,2.063-4.219v9.281H48.76V403.664q0.655,0.657.844,0.843c0.188,0.188.312,0.314,0.375,0.375L51.2,403.1q0,5.534-2.25,8.25,1.031,1.218,1.969,2.438a15.634,15.634,0,0,0,1.969-4.125,5.179,5.179,0,0,1,1.688,1.5,32.478,32.478,0,0,0,2.438-4.407,37.344,37.344,0,0,1,1.594,4.219,4.262,4.262,0,0,1,.75-0.375q0.749-.468,1.125-0.656,0.468,3.843,2.625,3.844,1.688-.094,2.25-2.25a24.989,24.989,0,0,0,.469-4.125,9.081,9.081,0,0,1-1.781-.844q0,0.657-.094,1.781a11.018,11.018,0,0,1-.094,1.781,0.451,0.451,0,0,1-.375.469c-0.187,0-.313-0.187-0.375-0.562q-0.189-2.061-.187-6.282V393.07H51.2v9.469q-0.47-.468-1.5-1.313a4.6,4.6,0,0,1-.937-0.656v-1.594h1.969v-2.625H48.76v-4.219H46.135v4.219H43.7v2.625h2.25a26.869,26.869,0,0,1-2.531,5.813q0.092,0.563.281,1.593h0Zm10.781,22.49a14.332,14.332,0,0,1-3.656-6.281h7.406a15.768,15.768,0,0,1-3.75,6.281h0Zm-7.125-6.281a19.851,19.851,0,0,0,4.594,8.437,35.289,35.289,0,0,1-8.437,3.844,21.1,21.1,0,0,1,2.25,3.094,36.609,36.609,0,0,0,8.719-4.5,29.149,29.149,0,0,0,8.719,4.312,19.649,19.649,0,0,1,2.438-3,26.215,26.215,0,0,1-8.437-3.656,25.2,25.2,0,0,0,4.781-8.531h3.375v-3H56.822q-0.47-1.312-.937-2.625c-0.187-.437-0.313-0.75-0.375-0.938l-3.375.75a3.066,3.066,0,0,1,.188.563q0.563,1.594.75,2.25H43.791v3h3.563Zm-3.937,27.566a30.538,30.538,0,0,1,.938,3.938q1.125-1.407,2.156-2.813v10.5h3.281v-15.75q1.125-2.25,2.25-4.875l-3.094-1.031a33.313,33.313,0,0,1-5.531,10.031h0ZM57.854,448V440.22H54.479v10.406q-2.25,1.5-4.594,2.812,0.187,0.282.563,0.844,1.031,1.5,1.406,2.063,0.468-.282,1.313-0.844,0.936-.562,1.313-0.844v3.094q0,3.843,4.031,3.844h1.875q3.938,0,4.594-2.625a10.824,10.824,0,0,0,.188-1.313q0.373-2.155.469-3.281-1.5-.468-2.25-0.656a11.667,11.667,0,0,0-1.125-.375q-0.094,1.5-.281,3.187a1.532,1.532,0,0,0-.094.469,1.468,1.468,0,0,1-1.687,1.5H59.26a1.332,1.332,0,0,1-1.406-1.594v-4.594a62.611,62.611,0,0,0,7.594-6.937l-2.812-2.156A42.871,42.871,0,0,1,57.854,448h0Z" transform="translate(-30 -336)"/>
</svg>
