<svg id="shijianbiao.svg" xmlns="http://www.w3.org/2000/svg" width="690.032" height="114.657" viewBox="0 0 690.032 114.657">
  <defs>
    <style>
      .cls-1, .cls-2, .cls-6 {
        fill: #ff9500;
      }

      .cls-1 {
        opacity: 0.3;
      }

      .cls-3 {
        fill: #666;
      }

      .cls-3, .cls-4, .cls-5, .cls-6 {
        fill-rule: evenodd;
      }

      .cls-4, .cls-5 {
        fill: none;
        stroke-linecap: round;
        stroke-width: 2px;
        stroke-dasharray: 10 16;
      }

      .cls-4 {
        stroke: #ccc;
      }

      .cls-5 {
        stroke: #ff9500;
      }
    </style>
  </defs>
  <circle id="椭圆_1" data-name="椭圆 1" class="cls-1" cx="191.563" cy="59.094" r="12"/>
  <circle id="椭圆_1_拷贝" data-name="椭圆 1 拷贝" class="cls-2" cx="191.563" cy="59.094" r="8"/>
  <circle id="椭圆_1_拷贝_2" data-name="椭圆 1 拷贝 2" class="cls-1" cx="327.563" cy="59.094" r="12"/>
  <circle id="椭圆_1_拷贝_2-2" data-name="椭圆 1 拷贝 2" class="cls-2" cx="327.563" cy="59.094" r="8"/>
  <path id="_4月1日" data-name="4月1日" class="cls-3" d="M29.443,812.263v1.3h8.1v3.674h1.3v-3.674H41.5v-1.122H38.837V801.527h-1.3Zm8.1-8.91v9.086H30.653l6.82-9.086h0.066Zm21.472,3.454v4.334H49.177v-4.334h9.834Zm-9.834-1.122v-4.246h9.834v4.246H49.177Zm9.834,6.578v4.774a0.845,0.845,0,0,1-.858,1.034q-0.77,0-2.794-.044l0.308,1.144h2.882a1.478,1.478,0,0,0,1.65-1.694V800.3H48.011v10.67a12.4,12.4,0,0,1-2.332,7.59l0.924,0.836a12.993,12.993,0,0,0,2.508-7.128h9.9Zm12.562-10.736a8.244,8.244,0,0,1-4.026,2.618v1.364a8.116,8.116,0,0,0,3.762-2.31v14.036h1.342V801.527H71.573Zm11.66-1.254V819.3H84.42v-1.8H95.2v1.782h1.188V800.273H83.232Zm1.188,9.064H95.2v7H84.42v-7Zm0-7.9H95.2v6.732H84.42v-6.732Z" transform="translate(-29.438 -704.906)"/>
  <path id="_12月30日" data-name="12月30日" class="cls-3" d="M633.493,801.527a8.859,8.859,0,0,1-1.848,1.628,8.771,8.771,0,0,1-2.178.99v1.364a8.116,8.116,0,0,0,3.762-2.31v14.036h1.342V801.527h-1.078Zm13.375-.308a4.762,4.762,0,0,0-3.7,1.518,5.767,5.767,0,0,0-1.452,4.158h1.364a4.766,4.766,0,0,1,1.056-3.344,3.394,3.394,0,0,1,2.706-1.144,3.685,3.685,0,0,1,2.574.858,3.062,3.062,0,0,1,.968,2.42,4.382,4.382,0,0,1-1.3,3.014,23.522,23.522,0,0,1-2.662,2.09,18.872,18.872,0,0,0-3.3,2.706,5.455,5.455,0,0,0-1.562,3.74h10.208V816h-8.558q0.375-1.826,3.718-4.092a22.784,22.784,0,0,0,3.256-2.508,5.294,5.294,0,0,0,1.562-3.7,4.1,4.1,0,0,0-1.386-3.256,5.02,5.02,0,0,0-3.5-1.232h0Zm22.9,5.588v4.334h-9.834v-4.334h9.834Zm-9.834-1.122v-4.246h9.834v4.246h-9.834Zm9.834,6.578v4.774a0.845,0.845,0,0,1-.858,1.034q-0.77,0-2.794-.044l0.308,1.144h2.882a1.478,1.478,0,0,0,1.65-1.694V800.3H658.77v10.67a12.4,12.4,0,0,1-2.332,7.59l0.924,0.836a12.993,12.993,0,0,0,2.508-7.128h9.9Zm12.254-11.044a5,5,0,0,0-3.52,1.254,5.155,5.155,0,0,0-1.628,3.5h1.342a4.091,4.091,0,0,1,1.188-2.618,3.542,3.542,0,0,1,2.618-.946,3.753,3.753,0,0,1,2.618.858,2.953,2.953,0,0,1,.9,2.244,2.876,2.876,0,0,1-.88,2.222,3.993,3.993,0,0,1-2.6.77h-1.254v1.1H682.2a3.939,3.939,0,0,1,2.662.836,2.937,2.937,0,0,1,1.012,2.332,3.455,3.455,0,0,1-1.056,2.574,4.193,4.193,0,0,1-2.926,1.034,3.985,3.985,0,0,1-2.6-.858,3.922,3.922,0,0,1-1.408-3.058h-1.364a5.215,5.215,0,0,0,1.892,3.982,5.506,5.506,0,0,0,3.5,1.1,5.565,5.565,0,0,0,3.828-1.342,4.526,4.526,0,0,0,1.474-3.476,3.628,3.628,0,0,0-.77-2.332,4.091,4.091,0,0,0-2.112-1.386,3.442,3.442,0,0,0,2.552-3.564,3.87,3.87,0,0,0-1.32-3.08,5.274,5.274,0,0,0-3.542-1.144h0Zm13.046,0a4.508,4.508,0,0,0-4.224,2.6,14.112,14.112,0,0,0,0,11.132,4.734,4.734,0,0,0,8.448,0,11.835,11.835,0,0,0,1.144-5.566,11.678,11.678,0,0,0-1.144-5.566,4.508,4.508,0,0,0-4.224-2.6h0Zm0,1.188a3.405,3.405,0,0,1,3.278,2.332,12.036,12.036,0,0,1,.748,4.642,12.235,12.235,0,0,1-.748,4.642,3.43,3.43,0,0,1-3.278,2.332,3.379,3.379,0,0,1-3.278-2.332,12.364,12.364,0,0,1-.726-4.642,12.163,12.163,0,0,1,.726-4.642,3.38,3.38,0,0,1,3.278-2.332h0Zm11.242-2.134V819.3H707.5v-1.8h10.78v1.782h1.188V800.273H706.312Zm1.188,9.064h10.78v7H707.5v-7Zm0-7.9h10.78v6.732H707.5v-6.732Z" transform="translate(-29.438 -704.906)"/>
  <path id="形状_4" data-name="形状 4" class="cls-4" d="M75.944,764H208.056" transform="translate(-29.438 -704.906)"/>
  <path id="形状_4_拷贝" data-name="形状 4 拷贝" class="cls-5" d="M233.84,764H344.16" transform="translate(-29.438 -704.906)"/>
  <path id="形状_4_拷贝_2" data-name="形状 4 拷贝 2" class="cls-4" d="M371.6,764H659.4" transform="translate(-29.438 -704.906)"/>
  <path id="_4月20日" data-name="4月20日" class="cls-6" d="M187.566,811.649l4.641-6.617v6.617h-4.641Zm7.391,0v-11.43h-2.149l-8.594,12.032v1.976h7.993v4.125h2.75v-4.125h2.406v-2.578h-2.406Zm11.01-6.016v-2.406h9.023v2.406h-9.023Zm0,2.75h9.023V810.7h-9.023v-2.321h0Zm-0.172,5.071h9.2V815a1.33,1.33,0,0,1-1.546,1.461q-1.548,0-3.61-.086a21.736,21.736,0,0,1,.86,2.922h4.039q3.264,0,3.265-3.61v-15.3H202.959v7.992a19.875,19.875,0,0,1-.515,5.5,7.729,7.729,0,0,1-2.235,3.438q1.29,1.03,2.664,2.234a8.679,8.679,0,0,0,2.578-3.953,8.837,8.837,0,0,0,.344-2.148h0Zm19.948,2.406a19.875,19.875,0,0,1,4.3-4.039q4.812-3.095,4.383-6.531-0.345-4.812-5.672-5.071a6.173,6.173,0,0,0-6.274,4.383l2.75,1.2q0.774-2.835,3.18-2.922,3.093,0,3.094,2.579,0.171,2.063-3.61,4.726a19.426,19.426,0,0,0-5.757,6.36v1.718h12.117V815.86h-8.508Zm17.541-13.148q3.353-.258,3.266,6.789,0.084,6.96-3.18,6.789-3.351.258-3.265-6.789,0.084-6.616,3.179-6.789h0Zm0.086,15.9q6.1-.173,6.188-9.109,0-9.282-6.274-9.282-6.015.174-6.187,9.282,0,9.11,6.273,9.109h0Zm13.761-10.742v-4.3h9.883v4.3h-9.883Zm9.883,2.75v4.469h-9.883v-4.469h9.883Zm-9.883,7.219h9.883V819.3h3.179V800.649H254.037V819.3h3.094v-1.461Z" transform="translate(-29.438 -704.906)"/>
  <path id="_4月30日" data-name="4月30日" class="cls-6" d="M317.566,811.649l4.641-6.617v6.617h-4.641Zm7.391,0v-11.43h-2.149l-8.594,12.032v1.976h7.993v4.125h2.75v-4.125h2.406v-2.578h-2.406Zm11.01-6.016v-2.406h9.023v2.406h-9.023Zm0,2.75h9.023V810.7h-9.023v-2.321h0Zm-0.172,5.071h9.195V815a1.33,1.33,0,0,1-1.546,1.461q-1.548,0-3.61-.086a21.736,21.736,0,0,1,.86,2.922h4.039q3.264,0,3.265-3.61v-15.3H332.959v7.992a19.875,19.875,0,0,1-.515,5.5,7.729,7.729,0,0,1-2.235,3.438q1.29,1.03,2.664,2.234a8.679,8.679,0,0,0,2.578-3.953,8.837,8.837,0,0,0,.344-2.148h0Zm22.7,5.156q5.93-.258,6.273-5.414-0.086-2.921-3.523-4.3,2.837-1.116,2.836-3.7-0.174-4.9-5.672-4.985-4.641.087-5.844,4.727l2.922,0.687a3.09,3.09,0,0,1,3.008-2.835q2.492,0.086,2.578,2.32-0.173,2.751-3.437,2.75h-1.461v2.492h2.148q3.178,0.087,3.438,2.664,0.084,3.267-3.438,3.18-2.837-.085-3.18-3.094l-2.922.688q0.945,4.726,6.274,4.812h0Zm14.877-15.9q3.353-.258,3.266,6.789,0.084,6.96-3.18,6.789-3.351.258-3.265-6.789,0.084-6.616,3.179-6.789h0Zm0.086,15.9q6.1-.173,6.188-9.109,0-9.282-6.274-9.282-6.015.174-6.187,9.282,0,9.11,6.273,9.109h0Zm13.761-10.742v-4.3H397.1v4.3h-9.882Zm9.882,2.75v4.469h-9.882v-4.469H397.1Zm-9.882,7.219H397.1V819.3h3.18V800.649H384.123V819.3h3.094v-1.461Z" transform="translate(-29.438 -704.906)"/>
  <path id="_2017年" data-name="2017年" class="cls-3" d="M34.966,707a4.762,4.762,0,0,0-3.7,1.518,5.767,5.767,0,0,0-1.452,4.158h1.364a4.766,4.766,0,0,1,1.056-3.344,3.394,3.394,0,0,1,2.706-1.144,3.688,3.688,0,0,1,2.574.858,3.065,3.065,0,0,1,.968,2.42,4.386,4.386,0,0,1-1.3,3.014,23.6,23.6,0,0,1-2.662,2.09,18.81,18.81,0,0,0-3.3,2.706,5.452,5.452,0,0,0-1.562,3.74H39.872v-1.232H31.314q0.374-1.826,3.718-4.092a22.869,22.869,0,0,0,3.256-2.508,5.3,5.3,0,0,0,1.562-3.7,4.1,4.1,0,0,0-1.386-3.256,5.022,5.022,0,0,0-3.5-1.232h0Zm13.442,0a4.508,4.508,0,0,0-4.224,2.6,14.112,14.112,0,0,0,0,11.132,4.734,4.734,0,0,0,8.448,0,11.842,11.842,0,0,0,1.144-5.566,11.685,11.685,0,0,0-1.144-5.566,4.508,4.508,0,0,0-4.224-2.6h0Zm0,1.188a3.405,3.405,0,0,1,3.278,2.332,12.047,12.047,0,0,1,.748,4.642,12.247,12.247,0,0,1-.748,4.642,3.43,3.43,0,0,1-3.278,2.332,3.378,3.378,0,0,1-3.278-2.332,12.364,12.364,0,0,1-.726-4.642,12.163,12.163,0,0,1,.726-4.642,3.379,3.379,0,0,1,3.278-2.332h0Zm13.662-.88a8.244,8.244,0,0,1-4.026,2.618v1.364a8.116,8.116,0,0,0,3.762-2.31v14.036h1.342V707.31H62.069Zm8.558,1.254h8.734l-6.006,14.454h1.474l5.94-14.586V707.31H70.627v1.254Zm23.782,0.286v3.938h-6.6v6.248H84.091v1.188H94.409v5.016h1.166v-5.016h7.766v-1.188H95.575V713.91h6.292v-1.122H95.575V708.85h7.062v-1.166h-13.9a18.9,18.9,0,0,0,.924-2.552l-1.21-.22a12.581,12.581,0,0,1-4.576,6.908l0.814,1.012a12.92,12.92,0,0,0,3.454-3.982h6.27Zm-5.39,5.06h5.39v5.126h-5.39V713.91Z" transform="translate(-29.438 -704.906)"/>
  <circle id="椭圆_1_拷贝_3" data-name="椭圆 1 拷贝 3" class="cls-1" cx="33.563" cy="59.094" r="12"/>
  <circle id="椭圆_1_拷贝_3-2" data-name="椭圆 1 拷贝 3" class="cls-2" cx="33.563" cy="59.094" r="8"/>
  <circle id="椭圆_1_拷贝_4" data-name="椭圆 1 拷贝 4" class="cls-1" cx="644.563" cy="59.094" r="12"/>
  <circle id="椭圆_1_拷贝_4-2" data-name="椭圆 1 拷贝 4" class="cls-2" cx="644.563" cy="59.094" r="8"/>
</svg>
