<svg id="mudi.svg" xmlns="http://www.w3.org/2000/svg" width="290.219" height="50.469" viewBox="0 0 290.219 50.469">
  <defs>
    <style>
      .cls-1 {
        fill: #ff9500;
      }

      .cls-2 {
        fill: #ffca7f;
      }

      .cls-2, .cls-3 {
        fill-rule: evenodd;
      }

      .cls-3 {
        fill: #fff;
      }
    </style>
  </defs>
  <rect id="矩形_38" data-name="矩形 38" class="cls-1" y="0.469" width="265" height="50"/>
  <path id="矩形_39" data-name="矩形 39" class="cls-2" d="M265,891.543l25.229,25.228L265,942l-25.229-25.229Z" transform="translate(0 -891.531)"/>
  <path id="活动目的与单位" class="cls-3" d="M33.527,910.551c0.687,0.562,1.156.97,1.406,1.219L37,909.613q-1.687-1.406-3.844-3l-1.875,1.969q0.844,0.751,2.25,1.969h0Zm0.844,7.219,2.063-2.25q-1.125-1.031-3.375-2.907c-0.313-.249-0.562-0.436-0.75-0.562l-1.875,2.25q1.874,1.5,3.938,3.469h0Zm-3.469,9q1.406,0.374,3,.937,1.031-2.907,2.438-8.344a20.887,20.887,0,0,1-3-.937q-1.314,5.063-2.437,8.344h0Zm9.656-2.532v-3.656h7.875v3.656H40.558ZM43,915.051v2.812H37.558V927.9h3V926.77h7.875V927.8h3.094v-9.938H46.089v-2.812h6.281v-2.625H46.089v-2.813q2.813-.091,5.531-0.375l-0.375-2.531q-6.75.471-14.25,0.75,0.281,1.407.375,2.25v0.281q0.936-.091,2.813-0.093Q42.057,909.8,43,909.8v2.625H36.714v2.625H43Zm14.962-7.406v2.906h8.531v-2.906H57.958Zm5.156,10.968a35.011,35.011,0,0,1,1.313,3.563,11.952,11.952,0,0,1-1.781.094q-1.219.094-1.875,0.093,1.125-3.093,2.25-6.281h4.313V913.27H57.021v2.812h2.719q-1.687,6-2.812,7.031l1.313,2.532a11.121,11.121,0,0,1,2.438-.375q1.031-.093,3.656-0.282,1.5-.091,2.25-0.187a3.224,3.224,0,0,1-.656.656,5.8,5.8,0,0,1-.469.563,26.084,26.084,0,0,1,2.719,1.875q3.938-4.406,3.938-12.094,0.092-1.407.094-3.094h2.906q0,6.939-.281,10.594,0,1.125-1.5,1.125H72.489q-0.938-.093-1.5-0.094,0.468,1.5.844,3.188c0.436,0,1.062-.033,1.875-0.094h1.219a2.847,2.847,0,0,0,2.906-3q0.187-4.687.281-14.625H72.3v-3.844H69.4q-0.095,1.97-.094,3.844H66.958v2.906h2.25q0.092,7.407-1.5,10.125-0.376-.936-1.125-2.812-0.844-1.875-1.219-2.813l-2.437.844a3.043,3.043,0,0,1,.188.562h0Zm25.65-5.812V910.27h11.249V912.8H88.765Zm11.249,2.812v2.438H88.765v-2.438h11.249Zm0,5.344v2.531H88.765v-2.531h11.249ZM88.765,926.3h11.249v1.5H103.2V907.363H85.577V927.8h3.188v-1.5Zm28.088-7.031v3.843h-3.188V919.27h3.188Zm-3.188-2.907V912.52h3.188v3.843h-3.188Zm10.407,5.532,2.812-1.875a35.26,35.26,0,0,0-3.469-4.688l-2.531,1.781a52.992,52.992,0,0,1,3.188,4.782h0Zm-11.157-12.282h-2.343v18h3.093v-1.781h3.188v1.594h3.094V914.3a12.828,12.828,0,0,1,2.625,1.406,14.22,14.22,0,0,0,.937-1.781c0.312-.563.53-0.968,0.656-1.219h3.844q0,3.189-.094,6.375-0.094,2.439-.093,3.844-0.095,1.595-2.063,1.594a31.152,31.152,0,0,1-3.469-.188,13.04,13.04,0,0,1,.844,3.188q2.718,0,4.313-.094,3.186-.189,3.468-3.656,0.188-7.594.282-14.063h-5.813q0.563-1.405,1.031-2.906l-3-.75a43.79,43.79,0,0,1-3.468,7.875v-4.313H116.2a2.977,2.977,0,0,0,.187-0.656q0.468-1.5.75-2.344l-3.281-.562q-0.282,1.314-.938,3.562h0Zm23.494,9.75v2.907h15.281v-2.907H136.408Zm6.656-10.687,0.188-2.531h-3.375l-0.656,10.875H153.1q0,3.469-.188,5.812-0.094,1.688-2.531,1.688-1.034,0-2.813-.094h-1.781a26.081,26.081,0,0,1,.844,3.094h4.781q4.593-.189,4.875-4.313,0.188-3.467.281-9.094H142.783l0.094-2.437h14.812v-3H143.064Zm29.025,3.187v1.782h-4.781v-1.782h4.781Zm0,4.125v1.782h-4.781v-1.782h4.781Zm3.094,0h4.781v1.782h-4.781v-1.782Zm0-2.343v-1.782h4.781v1.782h-4.781Zm-3.094,6.75v1.5h-9.562v2.812h9.562V927.8h3.094v-3.094h9.469V921.9h-9.469v-1.5h7.688V909.238h-4.219q0.468-.468,1.219-1.312l0.843-.844-3.375-1.219a28.633,28.633,0,0,1-2.437,3.375h-4.5l1.406-.562q-1.032-1.312-2.344-2.719l-2.625,1.219a10.731,10.731,0,0,1,.844,1.031c0.312,0.438.563,0.782,0.75,1.031h-4.125V920.4h7.781Zm26.682,0.093q0.468,1.6.75,2.532l3-1.032q-2.158-6.279-3-8.531l-2.813.938q0.656,1.594,2.063,6.093h0ZM210.4,912.52v-2.813h-6.844l1.781-.562a4.109,4.109,0,0,0-.375-0.75,15.884,15.884,0,0,0-1.125-2.438l-3.187.844q0.654,1.5,1.218,2.906h-5.906v2.813H210.4Zm-21.563,4.218q0.656,2.159.75,2.719,0.188,0.751.281,1.031,0.282-.468.844-1.406l0.844-1.406V927.9h3V911.488q0.186-.562.656-1.687l1.125-2.813-2.906-.937a52.676,52.676,0,0,1-4.594,10.687h0Zm22.313,10.125v-2.718h-4.969q1.217-3.375,2.719-7.594a20.981,20.981,0,0,1,.75-2.25l-3.469-.938q-1.407,5.625-3.188,10.782h-7.5v2.718h15.657Z" transform="translate(0 -891.531)"/>
</svg>
