<svg xmlns="http://www.w3.org/2000/svg" width="187.78" height="34.656" viewBox="0 0 187.78 34.656">
  <defs>
    <style>
      .cls-1 {
        fill: #fff;
        fill-rule: evenodd;
      }
    </style>
  </defs>
  <path id="biaoti2.svg" class="cls-1" d="M1135.81,192.9v-6.24h-2.11l2.93-6.576h-2.93l-3.69,7.248V192.9h5.8Zm9.36,0v-6.24h-2.11l2.93-6.576h-2.93l-3.69,7.248V192.9h5.8Zm29.19,13.584a1.493,1.493,0,0,1-.44,1.1,1.47,1.47,0,0,1-1.1.432h-5.23l-1.83,4.128h9.99a5.087,5.087,0,0,0,2.01-.408,5.251,5.251,0,0,0,3.22-4.872v-1.824h15.07v-3.7h-8.78l5.76-3.264v-3.7h-36.15v3.7h25.59l-6.39,3.264h-22.22v3.7h20.5v1.44Zm3.74-24.528,16.75-.336V177.49l-39.74.864v4.128l16.75-.384v2.448h-17.95v3.7h4.22l-4.27,4.128h8.74l4.32-4.128h4.94v4.128h6.24v-4.128h4.85l4.32,4.128H1196l-4.27-4.128h4.32v-3.7H1178.1v-2.592Zm45.22,24.528a1.493,1.493,0,0,1-.44,1.1,1.47,1.47,0,0,1-1.1.432h-5.23l-1.83,4.128h9.99a5.087,5.087,0,0,0,2.01-.408,5.251,5.251,0,0,0,3.22-4.872v-1.824h15.07v-3.7h-8.78l5.76-3.264v-3.7h-36.15v3.7h25.59l-6.39,3.264h-22.22v3.7h20.5v1.44Zm3.74-24.528,16.75-.336V177.49l-39.74.864v4.128l16.75-.384v2.448h-17.95v3.7h4.22l-4.27,4.128h8.74l4.32-4.128h4.94v4.128h6.24v-4.128h4.85l4.32,4.128h8.73l-4.27-4.128h4.32v-3.7h-17.95v-2.592Zm52.28-4.464h-27.67v4.032h4.99l-4.01,14.736h7.1l3.98-14.736h21.84l-4.13,6.912h4.8v2.4a1.364,1.364,0,0,1-.38.984,1.276,1.276,0,0,1-.96.408h-2.02l-1.82,4.128h7.34a4.434,4.434,0,0,0,1.76-.36,4.54,4.54,0,0,0,1.44-.96,4.614,4.614,0,0,0,.96-1.416,4.351,4.351,0,0,0,.36-1.776v-6.96h-2.45l3.65-7.392h-14.78Zm14.44,30.432h-0.86v-5.594a4.446,4.446,0,0,0-.36-1.761,4.428,4.428,0,0,0-2.4-2.411,4.419,4.419,0,0,0-1.76-.362h-35.85v10.128h-0.91v4.224h42.14v-4.224Zm-7.54,0h-4.7v-5.9h3.22a1.4,1.4,0,0,1,1.05.456,1.507,1.507,0,0,1,.43,1.08v4.368Zm-11.37,0h-4.32v-5.9h4.32v5.9Zm-15.65-5.9h4.75v5.9h-4.75v-5.9Zm21.46-15.7v-3.216h-17.24v3.216h11.81a16.037,16.037,0,0,1-3.31,2.928,16.369,16.369,0,0,1-2.45-2.016h-5.66a16.52,16.52,0,0,0,1.82,2.16,17.806,17.806,0,0,0,2.21,1.872c-0.7.256-1.42,0.488-2.14,0.7s-1.46.392-2.23,0.552v3.744a27.973,27.973,0,0,0,4.27-.936,29.108,29.108,0,0,0,4.18-1.608,32.365,32.365,0,0,0,4.2,1.608,27.224,27.224,0,0,0,4.25.936v-3.744q-1.11-.24-2.19-0.552t-2.13-.7a22.3,22.3,0,0,0,2.57-2.28,16.231,16.231,0,0,0,2.04-2.616v-0.048Zm21.98-6.24v6.24h2.11l-2.93,6.576h2.93l3.7-7.248v-5.568h-5.81Zm9.31,0v6.24h2.11l-2.92,6.576h2.92l3.7-7.248v-5.568h-5.81Z" transform="translate(-1130 -177.5)"/>
</svg>
