<svg xmlns="http://www.w3.org/2000/svg" width="750" height="1218" viewBox="0 0 750 1218"><defs><style>.cls-1{isolation:isolate;}.cls-2,.cls-61,.cls-62,.cls-65,.cls-70{fill:#fff;}.cls-3{fill:#7ad5c3;}.cls-4{fill:#8ba451;}.cls-5{fill:#637f3e;}.cls-6{fill:#b8c76c;}.cls-7{fill:#4b3a35;}.cls-8{fill:#bec65a;}.cls-9{fill:#f5b576;}.cls-10{fill:#a0d1e6;}.cls-11{fill:#2b9d62;}.cls-12{fill:#3cb97f;}.cls-13{fill:#6d7a7d;}.cls-14{fill:#7b6a5b;}.cls-15{fill:#a47b65;}.cls-16{fill:#c29e6a;}.cls-17{fill:#b98c58;}.cls-18{fill:#b68d61;}.cls-19{fill:#a78259;}.cls-20{fill:none;stroke:#a78259;}.cls-20,.cls-39,.cls-48,.cls-49,.cls-50,.cls-57{stroke-miterlimit:10;}.cls-21{fill:#c29e6c;}.cls-22{fill:#cff0f8;}.cls-23{fill:#907156;}.cls-24{fill:#d9dada;mix-blend-mode:multiply;}.cls-25{fill:#dcb88e;}.cls-26{fill:#b89269;}.cls-27{fill:#f4d6ac;}.cls-28{fill:#caa582;}.cls-29{fill:#746455;}.cls-30{fill:#89674d;opacity:0.46;}.cls-31{fill:#45281a;}.cls-32{fill:#f1aa86;}.cls-33{fill:#a67051;}.cls-34{fill:#c17a53;}.cls-35{fill:#e09271;}.cls-36{fill:#f8bd9c;}.cls-37{fill:#191818;}.cls-38{fill:#1e1e1e;}.cls-39{fill:#141414;stroke:#000;}.cls-40{fill:#b4bbc0;}.cls-41{fill:#5a5e60;}.cls-42,.cls-57{fill:#282828;}.cls-43,.cls-49{fill:#505050;}.cls-44{fill:#bfbfbf;}.cls-45{fill:#a61f24;}.cls-46,.cls-48{fill:#c1272d;}.cls-47{fill:#969696;}.cls-48{stroke:#ab272d;}.cls-49,.cls-50{stroke:#505050;}.cls-50{fill:#cdd8e0;}.cls-51{fill:#868b8e;}.cls-52{fill:#982021;}.cls-53{fill:#d6842b;}.cls-54{fill:#1b1929;}.cls-55{fill:#444748;}.cls-56{fill:#28211f;}.cls-57{stroke:#282828;}.cls-58{fill:#ebeceb;}.cls-59{fill:#8d99a5;}.cls-60{fill:#585d66;}.cls-61{opacity:0.19;}.cls-62{opacity:0.37;}.cls-63{fill:#871a1a;}.cls-64{fill:#c27826;}.cls-65{opacity:0.13;}.cls-66{fill:#b2704f;opacity:0.75;}.cls-67{fill:#c4c5c5;}.cls-68{fill:#939494;}.cls-69{fill:#313131;}.cls-70{opacity:0.34;}.cls-71{fill:#e1f7f9;}</style></defs><title>chawuliubg</title><g class="cls-1"><g id="图层_2" data-name="图层 2"><g id="图层_1-2" data-name="图层 1"><rect class="cls-2" width="750" height="1218"/><rect class="cls-3" width="750" height="1218"/><rect class="cls-4" y="1166" width="750" height="52"/><path class="cls-5" d="M262.7,1049.2a17.76,17.76,0,0,0-10.29-16.09,33.29,33.29,0,0,0-28.21-48.36,33.38,33.38,0,1,0-63.65,5.66,33.28,33.28,0,0,0-42.26,28.49,11.09,11.09,0,0,0,.6,20.74,24.47,24.47,0,1,0,45.29,17.22,28.89,28.89,0,0,0,25.1,14.59c.92,0,1.83-.05,2.73-.14a33.35,33.35,0,0,0,63.56-7.94A17.71,17.71,0,0,0,262.7,1049.2Z"/><path class="cls-6" d="M256,1018a33.34,33.34,0,0,0-31.83-33.29,33.38,33.38,0,1,0-63.65,5.66,33.26,33.26,0,0,0-42.13,27.67c-.11,0-.21,0-.33,0a6.67,6.67,0,1,0,1.21,13.23,33.34,33.34,0,0,0,53.48,16.9,33.18,33.18,0,0,0,14.29,3.25,33.52,33.52,0,0,0,6.55-.65c4.93,8.4,13.59,14,23.49,14,12.34,0,22.78-8.68,26.42-20.69A33.29,33.29,0,0,0,256,1018Z"/><path class="cls-4" d="M219.46,998.51A30,30,0,1,0,167.14,993a33,33,0,0,0-4.93,5.15,29.41,29.41,0,0,0-38.64,20,6.66,6.66,0,1,0-1,13.24c.18,0,.36,0,.54-.05A29.49,29.49,0,0,0,172.56,1047a32.15,32.15,0,0,0,19.78,3.64,32.82,32.82,0,0,0,17.12,12.06,25.47,25.47,0,0,0,8.21,1.36l.53,0,.57,0a32.79,32.79,0,0,0,.69-65.58Z"/><polygon class="cls-7" points="142.56 1058.1 178.16 1093.69 178.16 1120.39 178.03 1150.04 186.91 1152.55 187.06 1120.39 187.06 1098.14 227.1 1066.99 187.06 1089.24 187.06 1080.34 209.3 1053.65 187.06 1071.36 187.06 1026.95 182.6 1049.2 169.26 1035.85 182.6 1053.65 178.16 1084.79 169.26 1075.89 165.49 1058.91 164.81 1071.44 142.56 1058.1"/><circle class="cls-5" cx="187.05" cy="964.65" r="4.45"/><circle class="cls-5" cx="178.16" cy="978" r="4.45"/><circle class="cls-8" cx="140.33" cy="1024.72" r="6.67"/><circle class="cls-5" cx="231.55" cy="1040.3" r="4.45"/><circle class="cls-5" cx="240.45" cy="1022.5" r="4.45"/><circle class="cls-5" cx="224.88" cy="1024.72" r="2.22"/><circle class="cls-8" cx="149.23" cy="1011.37" r="2.22"/><circle class="cls-8" cx="140.33" cy="1006.92" r="2.22"/><circle class="cls-8" cx="153.68" cy="1042.52" r="2.22"/><circle class="cls-8" cx="158.13" cy="1033.62" r="2.22"/><path class="cls-5" d="M454.84,977.48a20.77,20.77,0,0,0-12-18.82,38.94,38.94,0,0,0-33-56.56,39,39,0,1,0-74.45,6.62A38.93,38.93,0,0,0,285.91,942a13,13,0,0,0,.7,24.26,28.62,28.62,0,1,0,53,20.14A33.8,33.8,0,0,0,369,1003.5c1.08,0,2.14-.06,3.19-.16A39,39,0,0,0,446.5,994,20.72,20.72,0,0,0,454.84,977.48Z"/><path class="cls-6" d="M447,941a39,39,0,0,0-37.23-38.95,39,39,0,1,0-74.45,6.62,38.9,38.9,0,0,0-49.28,32.37c-.13,0-.25,0-.38,0a7.81,7.81,0,1,0,1.41,15.47,39,39,0,0,0,62.55,19.77,38.81,38.81,0,0,0,16.71,3.8,39.21,39.21,0,0,0,7.66-.76c5.77,9.83,15.9,16.38,27.47,16.38,14.43,0,26.65-10.16,30.9-24.21A38.94,38.94,0,0,0,447,941Z"/><path class="cls-4" d="M404.26,918.19a35.12,35.12,0,1,0-61.2-6.48,38.59,38.59,0,0,0-5.77,6,34.4,34.4,0,0,0-45.2,23.43,7.79,7.79,0,1,0-1.22,15.49c.21,0,.42,0,.63-.06a34.5,34.5,0,0,0,57.89,18.35,37.6,37.6,0,0,0,23.14,4.25,38.39,38.39,0,0,0,20,14.11,29.79,29.79,0,0,0,9.6,1.59c.21,0,.41,0,.62,0s.44,0,.66,0a38.36,38.36,0,0,0,.81-76.71Z"/><polygon class="cls-7" points="314.31 987.89 355.94 1029.53 355.94 1060.76 355.8 1150.43 366.18 1153.37 366.35 1060.76 366.35 1034.73 413.2 998.3 366.35 1024.32 366.35 1013.91 392.38 982.68 366.35 1003.4 366.35 951.45 361.15 977.48 345.54 961.86 361.15 982.68 355.94 1019.12 345.54 1008.71 341.12 988.85 340.33 1003.5 314.31 987.89"/><circle class="cls-5" cx="366.35" cy="878.59" r="5.2"/><circle class="cls-5" cx="355.94" cy="894.2" r="5.2"/><circle class="cls-8" cx="311.7" cy="948.85" r="7.81"/><circle class="cls-5" cx="418.4" cy="967.07" r="5.2"/><circle class="cls-5" cx="428.81" cy="946.25" r="5.2"/><circle class="cls-5" cx="410.6" cy="948.85" r="2.6"/><circle class="cls-8" cx="322.11" cy="933.24" r="2.6"/><circle class="cls-8" cx="311.7" cy="928.03" r="2.6"/><circle class="cls-8" cx="327.32" cy="969.67" r="2.6"/><circle class="cls-8" cx="332.52" cy="959.26" r="2.6"/><rect class="cls-9" x="429.17" y="1147.92" width="64.57" height="6.51" rx="3.25" ry="3.25"/><rect class="cls-9" x="464.36" y="1144.99" width="64.57" height="6.51" rx="3.25" ry="3.25"/><path class="cls-10" d="M680.48,1193c0-.9-4.43-1.71-11.38-2.24,3.7-.62,5.95-1.44,5.95-2.34s-2-1.63-5.36-2.24c1.18-.32,1.84-.67,1.84-1,0-1.3-7.91-2.36-17.68-2.36s-17.68,1.06-17.68,2.36c0,.21.2.41.58.6-5.08.64-8.3,1.61-8.3,2.69,0,.79,1.71,1.51,4.6,2.09-9.08.51-15.16,1.43-15.16,2.49s4.95,1.8,12.59,2.33a.29.29,0,0,0,0,.12c0,1.1,6.66,2,14.87,2,7.5,0,13.7-.74,14.72-1.71C672,1195.36,680.48,1194.29,680.48,1193Z"/><path class="cls-11" d="M572.06,1139.6a8.24,8.24,0,0,0,4.59,3.75,7,7,0,0,0-.46-6.33,8.24,8.24,0,0,0-4.59-3.75A7,7,0,0,0,572.06,1139.6Z"/><path class="cls-11" d="M582,1140a8,8,0,0,1-4.78,3.4,7,7,0,0,1,.81-6.28,8,8,0,0,1,4.78-3.4A7,7,0,0,1,582,1140Z"/><path class="cls-12" d="M574.36,1137.69a9.49,9.49,0,0,0,2.53,6,8.42,8.42,0,0,0,2.37-6.64,9.49,9.49,0,0,0-2.53-6A8.42,8.42,0,0,0,574.36,1137.69Z"/><path class="cls-11" d="M576.1,1140.77a10,10,0,0,0,.82,2.91,9,9,0,0,0,.05-3.32,10,10,0,0,0-.82-2.91A9,9,0,0,0,576.1,1140.77Z"/><path class="cls-11" d="M569.56,1144.34a4.26,4.26,0,0,0,2.36,1.36,1.9,1.9,0,0,0-.24-2.29,4.26,4.26,0,0,0-2.36-1.36A1.9,1.9,0,0,0,569.56,1144.34Z"/><path class="cls-11" d="M574.66,1144.47a4.4,4.4,0,0,1-2.46,1.23,1.92,1.92,0,0,1,.41-2.28,4.4,4.4,0,0,1,2.46-1.23A1.92,1.92,0,0,1,574.66,1144.47Z"/><path class="cls-12" d="M570.75,1143.65a3.05,3.05,0,0,0,1.31,2.16,2.6,2.6,0,0,0,1.22-2.4,3.05,3.05,0,0,0-1.31-2.16A2.6,2.6,0,0,0,570.75,1143.65Z"/><path class="cls-11" d="M571.64,1144.76a2.86,2.86,0,0,0,.42,1.05,2.31,2.31,0,0,0,0-1.2,2.86,2.86,0,0,0-.42-1.05A2.31,2.31,0,0,0,571.64,1144.76Z"/><path class="cls-11" d="M659.34,1190.27a3.71,3.71,0,0,0,2.06,1.17,1.65,1.65,0,0,0-.22-2,3.71,3.71,0,0,0-2.06-1.17A1.65,1.65,0,0,0,659.34,1190.27Z"/><path class="cls-11" d="M663.78,1190.35a3.82,3.82,0,0,1-2.13,1.08,1.67,1.67,0,0,1,.35-2,3.82,3.82,0,0,1,2.13-1.08A1.67,1.67,0,0,1,663.78,1190.35Z"/><path class="cls-12" d="M660.37,1189.66a2.65,2.65,0,0,0,1.15,1.87,2.26,2.26,0,0,0,1-2.1,2.65,2.65,0,0,0-1.15-1.87A2.26,2.26,0,0,0,660.37,1189.66Z"/><path class="cls-11" d="M661.16,1190.62a2.49,2.49,0,0,0,.37.91,2,2,0,0,0,0-1,2.49,2.49,0,0,0-.37-.91A2,2,0,0,0,661.16,1190.62Z"/><path class="cls-11" d="M473.93,1170.09c1.2,3.34,3.12,5.69,5.22,6.78a19.55,19.55,0,0,0-.53-11.46c-1.2-3.34-3.12-5.69-5.22-6.78A19.55,19.55,0,0,0,473.93,1170.09Z"/><path class="cls-11" d="M485.21,1170.76c-1.31,3.19-3.31,5.32-5.44,6.16a19.26,19.26,0,0,1,.92-11.38c1.31-3.19,3.31-5.32,5.44-6.16A19.26,19.26,0,0,1,485.21,1170.76Z"/><path class="cls-12" d="M476.55,1166.64a23.14,23.14,0,0,0,2.89,10.81c1.81-2.75,2.89-7.11,2.7-12a23.14,23.14,0,0,0-2.89-10.81C477.44,1157.38,476.36,1161.74,476.55,1166.64Z"/><path class="cls-11" d="M478.53,1172.2a26.75,26.75,0,0,0,.93,5.26,25.75,25.75,0,0,0,.06-6,26.74,26.74,0,0,0-.93-5.26A25.76,25.76,0,0,0,478.53,1172.2Z"/><path class="cls-11" d="M480.87,1175.31a4.26,4.26,0,0,0,2.37,1.34,1.9,1.9,0,0,0-.25-2.29,4.26,4.26,0,0,0-2.37-1.34A1.9,1.9,0,0,0,480.87,1175.31Z"/><path class="cls-11" d="M486,1175.41a4.4,4.4,0,0,1-2.45,1.25,1.92,1.92,0,0,1,.4-2.28,4.4,4.4,0,0,1,2.45-1.25A1.92,1.92,0,0,1,486,1175.41Z"/><path class="cls-12" d="M482,1174.61a3.05,3.05,0,0,0,1.32,2.15,2.6,2.6,0,0,0,1.2-2.41,3.05,3.05,0,0,0-1.32-2.15A2.6,2.6,0,0,0,482,1174.61Z"/><path class="cls-11" d="M483,1175.71a2.86,2.86,0,0,0,.43,1,2.31,2.31,0,0,0,0-1.2,2.86,2.86,0,0,0-.43-1A2.31,2.31,0,0,0,483,1175.71Z"/><path class="cls-11" d="M364.91,1152.29a9.48,9.48,0,0,0,5.22,2.92,4,4,0,0,0-.53-4.94,9.48,9.48,0,0,0-5.22-2.92A4,4,0,0,0,364.91,1152.29Z"/><path class="cls-11" d="M376.19,1152.58a9.81,9.81,0,0,1-5.44,2.65,4.06,4.06,0,0,1,.92-4.9,9.81,9.81,0,0,1,5.44-2.65A4.06,4.06,0,0,1,376.19,1152.58Z"/><path class="cls-12" d="M367.53,1150.8a6.55,6.55,0,0,0,2.89,4.66,5.57,5.57,0,0,0,2.7-5.18,6.55,6.55,0,0,0-2.89-4.66A5.57,5.57,0,0,0,367.53,1150.8Z"/><path class="cls-11" d="M369.51,1153.2a6.08,6.08,0,0,0,.93,2.27,4.86,4.86,0,0,0,.06-2.59,6.08,6.08,0,0,0-.93-2.27A4.86,4.86,0,0,0,369.51,1153.2Z"/><path class="cls-11" d="M371.85,1154.54a6.91,6.91,0,0,0,2.37.58c.42-.3.37-.66-.25-1a6.91,6.91,0,0,0-2.37-.58C371.18,1153.85,371.23,1154.21,371.85,1154.54Z"/><path class="cls-11" d="M377,1154.58a7.54,7.54,0,0,1-2.45.54c-.38-.3-.27-.66.4-1a7.55,7.55,0,0,1,2.45-.54C377.73,1153.9,377.63,1154.26,377,1154.58Z"/><path class="cls-12" d="M373,1154.24c.08.37.58.7,1.32.93.81-.24,1.3-.62,1.2-1s-.58-.7-1.32-.93C373.42,1153.44,372.94,1153.81,373,1154.24Z"/><path class="cls-11" d="M373.94,1154.71a1.12,1.12,0,0,0,.43.45.46.46,0,0,0,0-.52,1.12,1.12,0,0,0-.43-.45A.46.46,0,0,0,373.94,1154.71Z"/><ellipse class="cls-10" cx="662.89" cy="1191.69" rx="7.72" ry="0.46"/><ellipse class="cls-10" cx="729.89" cy="1174.61" rx="7.72" ry="1.39"/><ellipse class="cls-13" cx="422.12" cy="1186.94" rx="74.55" ry="5.62"/><ellipse class="cls-13" cx="533.58" cy="1183.51" rx="51.57" ry="5.62"/><polygon class="cls-14" points="110.8 889.78 0 889.78 0 804 110.8 889.78"/><polygon class="cls-15" points="96.5 889.78 0 889.78 0 815.06 96.5 889.78"/><polygon class="cls-16" points="76.84 889.78 0 889.78 0 830.29 62.99 879.05 76.84 889.78"/><polygon class="cls-17" points="76.84 889.78 0 889.78 0 879.05 62.99 879.05 76.84 889.78"/><polygon class="cls-15" points="110.8 889.78 107.54 898.71 103.65 909.43 0 909.43 0 889.78 110.8 889.78"/><polygon class="cls-16" points="107.54 898.71 103.65 909.43 0 909.43 0 898.71 107.54 898.71"/><rect class="cls-18" y="909.43" width="103.65" height="296.65"/><rect class="cls-16" y="1038.1" width="103.65" height="16.98"/><rect class="cls-19" y="909.43" width="103.65" height="5.36"/><line class="cls-20" y1="1064.9" x2="103.65" y2="1064.9"/><line class="cls-20" y1="1075.63" x2="103.65" y2="1075.63"/><line class="cls-20" y1="1084.56" x2="103.65" y2="1084.56"/><line class="cls-20" y1="1093.5" x2="103.65" y2="1093.5"/><line class="cls-20" y1="923.73" x2="103.65" y2="923.73"/><line class="cls-20" y1="934.45" x2="103.65" y2="934.45"/><line class="cls-20" y1="943.39" x2="103.65" y2="943.39"/><line class="cls-20" y1="952.32" x2="103.65" y2="952.32"/><line class="cls-20" y1="963.04" x2="103.65" y2="963.04"/><line class="cls-20" y1="973.77" x2="103.65" y2="973.77"/><line class="cls-20" y1="982.7" x2="103.65" y2="982.7"/><line class="cls-20" y1="991.64" x2="103.65" y2="991.64"/><line class="cls-20" y1="1002.36" x2="103.65" y2="1002.36"/><line class="cls-20" y1="1013.08" x2="103.65" y2="1013.08"/><line class="cls-20" y1="1022.02" x2="103.65" y2="1022.02"/><line class="cls-20" y1="1030.95" x2="103.65" y2="1030.95"/><line class="cls-20" y1="1104.22" x2="103.65" y2="1104.22"/><line class="cls-20" y1="1113.15" x2="103.65" y2="1113.15"/><line class="cls-20" y1="1123.88" x2="103.65" y2="1123.88"/><line class="cls-20" y1="1134.6" x2="103.65" y2="1134.6"/><line class="cls-20" y1="1143.53" x2="103.65" y2="1143.53"/><line class="cls-20" y1="1154.26" x2="103.65" y2="1154.26"/><line class="cls-20" y1="1164.98" x2="103.65" y2="1164.98"/><line class="cls-20" y1="1173.91" x2="103.65" y2="1173.91"/><line class="cls-20" y1="1184.64" x2="103.65" y2="1184.64"/><line class="cls-20" y1="1195.36" x2="103.65" y2="1195.36"/><line class="cls-20" y1="1204.29" x2="103.65" y2="1204.29"/><polygon class="cls-21" points="60.76 1003.93 0 1003.93 0 992.27 66.12 992.27 60.76 1003.93"/><rect class="cls-19" y="923.73" width="51.82" height="67.91"/><rect class="cls-22" x="5.36" y="934.45" width="16.08" height="14.3"/><rect class="cls-22" x="25.02" y="968.41" width="16.08" height="14.3"/><rect class="cls-22" x="5.36" y="952.32" width="16.08" height="30.38"/><rect class="cls-22" x="25.02" y="934.45" width="16.08" height="30.38"/><rect class="cls-19" y="1102.28" width="27.54" height="103.79"/><path class="cls-23" d="M1,1175.2H17.69A16.28,16.28,0,0,0,1.41,1159H1Z"/><rect class="cls-23" x="1.14" y="1177.1" width="16.44" height="22.76"/><path class="cls-22" d="M0,1107H0v41.83H0c8.64,0,15.65-9.36,15.65-20.92S8.68,1107,0,1107Z"/><path class="cls-11" d="M116.84,1198.43a11.34,11.34,0,0,0,6.32,5.16,9.71,9.71,0,0,0-.64-8.72,11.34,11.34,0,0,0-6.32-5.16A9.71,9.71,0,0,0,116.84,1198.43Z"/><path class="cls-11" d="M130.48,1198.93a11,11,0,0,1-6.58,4.69A9.66,9.66,0,0,1,125,1195a11,11,0,0,1,6.58-4.69A9.66,9.66,0,0,1,130.48,1198.93Z"/><path class="cls-12" d="M120,1195.8a13.07,13.07,0,0,0,3.49,8.22,11.59,11.59,0,0,0,3.26-9.14,13.07,13.07,0,0,0-3.49-8.22A11.59,11.59,0,0,0,120,1195.8Z"/><path class="cls-11" d="M122.41,1200a13.78,13.78,0,0,0,1.13,4,12.4,12.4,0,0,0,.07-4.57,13.78,13.78,0,0,0-1.13-4A12.4,12.4,0,0,0,122.41,1200Z"/><path class="cls-11" d="M171.93,1176.76a4.26,4.26,0,0,0,2.36,1.36,1.9,1.9,0,0,0-.24-2.29,4.26,4.26,0,0,0-2.36-1.36A1.9,1.9,0,0,0,171.93,1176.76Z"/><path class="cls-11" d="M177,1176.89a4.4,4.4,0,0,1-2.46,1.23,1.92,1.92,0,0,1,.41-2.28,4.4,4.4,0,0,1,2.46-1.23A1.92,1.92,0,0,1,177,1176.89Z"/><path class="cls-12" d="M173.12,1176.07a3.05,3.05,0,0,0,1.31,2.16,2.6,2.6,0,0,0,1.22-2.4,3.05,3.05,0,0,0-1.31-2.16A2.6,2.6,0,0,0,173.12,1176.07Z"/><path class="cls-11" d="M174,1177.18a2.86,2.86,0,0,0,.42,1.05,2.31,2.31,0,0,0,0-1.2A2.86,2.86,0,0,0,174,1176,2.31,2.31,0,0,0,174,1177.18Z"/><ellipse class="cls-13" cx="256.43" cy="1182.25" rx="72.84" ry="4.4"/><ellipse class="cls-24" cx="182.12" cy="1165.87" rx="57.2" ry="5.62"/><rect class="cls-25" x="237.75" y="1088.22" width="55.83" height="46.52"/><rect class="cls-26" x="272.18" y="1088.22" width="21.4" height="46.53"/><rect class="cls-27" x="251.7" y="1088.22" width="5.58" height="12.1"/><rect class="cls-27" x="251.7" y="1122.65" width="5.58" height="12.1"/><rect class="cls-25" x="239.61" y="1134.74" width="83.75" height="46.53"/><rect class="cls-26" x="291.25" y="1134.74" width="32.1" height="46.53"/><rect class="cls-27" x="260.54" y="1134.74" width="8.37" height="12.1"/><rect class="cls-27" x="260.54" y="1169.17" width="8.37" height="12.1"/><rect class="cls-28" x="278.69" y="1075.19" width="35.73" height="29.78"/><rect class="cls-26" x="300.72" y="1075.19" width="13.7" height="29.78"/><rect class="cls-29" x="287.62" y="1075.19" width="3.57" height="7.74"/><rect class="cls-29" x="287.62" y="1097.22" width="3.57" height="7.74"/><rect class="cls-28" x="276.83" y="1104.96" width="35.73" height="29.78"/><rect class="cls-26" x="298.86" y="1104.96" width="13.7" height="29.78"/><rect class="cls-29" x="285.76" y="1104.97" width="3.57" height="7.74"/><rect class="cls-29" x="285.76" y="1127" width="3.57" height="7.74"/><rect class="cls-30" x="237.75" y="1131.02" width="74.81" height="3.72"/><rect class="cls-30" x="280.55" y="1103.11" width="33.87" height="1.86"/><rect class="cls-30" x="276.83" y="1104.97" width="1.86" height="26.05"/><rect class="cls-30" x="278.69" y="1088.22" width="1.86" height="16.75"/><rect class="cls-31" x="172.68" y="1171.46" width="5.02" height="8.37" transform="translate(350.39 2351.28) rotate(180)"/><rect class="cls-31" x="129.17" y="1171.46" width="5.02" height="8.37" transform="translate(263.36 2351.28) rotate(180)"/><rect class="cls-31" x="110.76" y="1171.46" width="5.02" height="8.37" transform="translate(226.54 2351.28) rotate(180)"/><rect class="cls-31" x="191.09" y="1171.46" width="5.02" height="8.37" transform="translate(387.21 2351.28) rotate(180)"/><path class="cls-32" d="M137.54,1116.46v28a8.6,8.6,0,0,0,8.6,8.6h46.39a8.28,8.28,0,0,0,2.74-.45,8.57,8.57,0,0,0,5.86-8.15v-28a8.57,8.57,0,0,0-5.86-8.15,8.28,8.28,0,0,0-2.74-.45H146.14A8.6,8.6,0,0,0,137.54,1116.46Z"/><path class="cls-33" d="M189.42,1116.46v28a8.57,8.57,0,0,0,5.86,8.15,8.57,8.57,0,0,0,5.86-8.15v-28a8.57,8.57,0,0,0-5.86-8.15A8.57,8.57,0,0,0,189.42,1116.46Z"/><rect class="cls-34" x="169.34" y="1134.64" width="33.47" height="37.66" rx="14.01" ry="14.01" transform="translate(372.15 2306.93) rotate(180)"/><rect class="cls-35" x="169.34" y="1134.64" width="13.39" height="37.66" rx="6.69" ry="6.69" transform="translate(352.06 2306.93) rotate(-180)"/><rect class="cls-34" x="105.74" y="1134.64" width="35.15" height="37.66" rx="12.91" ry="12.91" transform="translate(246.62 2306.93) rotate(180)"/><rect class="cls-35" x="105.74" y="1134.64" width="13.39" height="37.66" rx="6.69" ry="6.69" transform="translate(224.86 2306.93) rotate(180)"/><rect class="cls-35" x="112.43" y="1160.58" width="63.6" height="11.72" transform="translate(288.46 2332.87) rotate(180)"/><path class="cls-36" d="M119.13,1147.19h50.21a0,0,0,0,1,0,0v2.09a11.3,11.3,0,0,1-11.3,11.3H119.13a0,0,0,0,1,0,0v-13.39A0,0,0,0,1,119.13,1147.19Z" transform="translate(288.46 2307.77) rotate(180)"/><rect class="cls-25" x="187.5" y="1134.74" width="55.83" height="46.53"/><rect class="cls-26" x="221.93" y="1134.74" width="21.4" height="46.53"/><rect class="cls-29" x="201.46" y="1134.74" width="5.58" height="12.1"/><rect class="cls-29" x="201.46" y="1169.17" width="5.58" height="12.1"/><rect class="cls-30" x="235.88" y="1134.74" width="3.72" height="46.53"/><path class="cls-11" d="M279.83,1195.92c1.2,3.34,3.12,5.69,5.22,6.78a19.55,19.55,0,0,0-.53-11.46c-1.2-3.34-3.12-5.69-5.22-6.78A19.55,19.55,0,0,0,279.83,1195.92Z"/><path class="cls-11" d="M291.11,1196.58c-1.31,3.19-3.31,5.32-5.44,6.16a19.26,19.26,0,0,1,.92-11.38c1.31-3.19,3.31-5.32,5.44-6.16A19.26,19.26,0,0,1,291.11,1196.58Z"/><path class="cls-12" d="M282.45,1192.46a23.14,23.14,0,0,0,2.89,10.81c1.81-2.75,2.89-7.11,2.7-12a23.14,23.14,0,0,0-2.89-10.81C283.34,1183.2,282.26,1187.56,282.45,1192.46Z"/><path class="cls-11" d="M284.43,1198a26.74,26.74,0,0,0,.93,5.26,25.76,25.76,0,0,0,.06-6,26.75,26.75,0,0,0-.93-5.26A25.75,25.75,0,0,0,284.43,1198Z"/><path class="cls-11" d="M286.77,1201.13a4.26,4.26,0,0,0,2.37,1.34,1.9,1.9,0,0,0-.25-2.29,4.26,4.26,0,0,0-2.37-1.34A1.9,1.9,0,0,0,286.77,1201.13Z"/><path class="cls-11" d="M291.87,1201.23a4.4,4.4,0,0,1-2.45,1.25,1.92,1.92,0,0,1,.4-2.28,4.4,4.4,0,0,1,2.45-1.25A1.92,1.92,0,0,1,291.87,1201.23Z"/><path class="cls-12" d="M287.95,1200.43a3.05,3.05,0,0,0,1.32,2.15,2.6,2.6,0,0,0,1.2-2.41,3.05,3.05,0,0,0-1.32-2.15A2.6,2.6,0,0,0,287.95,1200.43Z"/><path class="cls-11" d="M288.85,1201.54a2.86,2.86,0,0,0,.43,1,2.31,2.31,0,0,0,0-1.2,2.86,2.86,0,0,0-.43-1A2.31,2.31,0,0,0,288.85,1201.54Z"/><ellipse class="cls-24" cx="557.08" cy="1177.12" rx="164.01" ry="10.27"/><rect class="cls-37" x="631.67" y="1153" width="44.13" height="11.03" rx="5.52" ry="5.52"/><path class="cls-38" d="M629,1132.8c-1.79-5.71-4.61-9.74-7.86-10.84h0a5.74,5.74,0,0,0-1.78-.29c-.36,0-9.59-.79-10.33-.79a5.44,5.44,0,0,0-1.51.21,7.79,7.79,0,0,0-3.31,2.09c-4.06,4.1-6.89,13.22-6.89,23.82s2.82,19.72,6.89,23.82a6.85,6.85,0,0,0,4.82,2.3h10.33c4,0,7.53-4.4,9.64-11.13a52.59,52.59,0,0,0,0-29.19Z"/><path class="cls-38" d="M496.74,1149.67c-2.2-5.71-5.67-9.74-9.67-10.84h0a8.55,8.55,0,0,0-2.19-.29c-.44,0-11.81-.79-12.72-.79a8.14,8.14,0,0,0-1.86.21,10.11,10.11,0,0,0-4.08,2.09c-5,4.1-8.48,13.22-8.48,23.82s3.48,19.72,8.48,23.82a9.33,9.33,0,0,0,5.93,2.3h12.72c4.92,0,9.27-4.4,11.87-11.13a43.16,43.16,0,0,0,0-29.19Z"/><path class="cls-37" d="M649.36,1158.52l-.6-8.42L482.07,1162l.19,2.66-41.95-1.43,42.35,7.15v0h.16l.88-.06,14.28-1,.11,1.6a4.14,4.14,0,0,0,4.42,3.84l42.62-3a4.12,4.12,0,0,0,2.16.44l63.78-4.54a4.14,4.14,0,0,0,3.84-4.42l-.16-2.18,29.24-2.08Z"/><path class="cls-39" d="M593.07,1157.27l-.28.23-.05,0-39.45,2.59h-.14l-3.91-.49a41.76,41.76,0,0,1,2.59-10.6,34.35,34.35,0,0,1,1.48-3.32c4.08-8,10.63-13.17,18-13.17,6.82,0,12.93,4.43,17,11.4a30.92,30.92,0,0,1,1.65,3.16A40.26,40.26,0,0,1,593.07,1157.27Z"/><path d="M715,1147.14a4.4,4.4,0,0,1-.47,2.21,10.83,10.83,0,0,1-4,4.33,11.31,11.31,0,0,1-1.95.95L693,1159.17l-43.56-.21,28-2.38c7.79-8.44,10.38-22.07,10.38-22.07,2.6-9.09,9.74-9.09,9.74-9.09h3.25c5.84,0,6.49,4.54,6.49,4.54l.4,3.24a1.67,1.67,0,0,0,2.14,1.39l2.75-.83a2.37,2.37,0,0,0,1.66-1.92l.35,4.14Z"/><polygon class="cls-40" points="388.62 1161.11 482.73 1165.01 482.73 1000.16 388.62 1013.14 388.62 1161.11"/><polygon class="cls-41" points="478.19 1015.09 478.19 1165.01 398.36 1161.32 393.81 1161.11 393.81 1025.47 398.36 1024.91 478.19 1015.09"/><path class="cls-42" d="M707.93,1144.28c-1.69-4.68-4.34-8-7.41-8.88h0a6.14,6.14,0,0,0-1.67-.24c-.34,0-9-.65-9.74-.65a5.84,5.84,0,0,0-1.42.18,7.57,7.57,0,0,0-3.12,1.71c-3.83,3.36-6.49,10.84-6.49,19.53s2.66,16.17,6.49,19.53a6.88,6.88,0,0,0,4.54,1.89h9.74c3.77,0,7.09-3.61,9.09-9.12a37.75,37.75,0,0,0,0-23.94Z"/><ellipse class="cls-43" cx="698.85" cy="1156.25" rx="11.03" ry="21.09"/><ellipse class="cls-44" cx="700.2" cy="1156.25" rx="7.47" ry="14.28"/><path class="cls-42" d="M587.28,1157.46c-2.48-5.71-6.38-9.74-10.88-10.84h0a10.61,10.61,0,0,0-2.45-.29c-.5,0-13.28-.79-14.3-.79a10.25,10.25,0,0,0-2.09.21,12,12,0,0,0-4.59,2.09c-5.63,4.1-9.54,13.22-9.54,23.82s3.91,19.72,9.54,23.82a11.28,11.28,0,0,0,6.68,2.3h14.3c5.54,0,10.42-4.4,13.35-11.13a38.67,38.67,0,0,0,0-29.19Z"/><ellipse class="cls-43" cx="573.93" cy="1172.06" rx="16.21" ry="25.73"/><ellipse class="cls-44" cx="575.61" cy="1172.66" rx="10.78" ry="17.11"/><path class="cls-45" d="M714.26,1131.29a2.38,2.38,0,0,1-1.69,2.47l-2.75.83a1.67,1.67,0,0,1-2.14-1.39l-.4-3.24s-.65-4.54-6.49-4.54h-3.25s-7.14,0-9.74,9.09c0,0-2.6,13.63-10.38,22.07L648.94,1159a1.86,1.86,0,0,1-2-1.86v-95.33h8.84c4.25,0,8.26,3.26,10.87,6.61l23.12,29.73L709.64,1109a6,6,0,0,1,3.11,4.76l.06.67,1.28,14.86Z"/><path class="cls-46" d="M714.26,1131.29a2.38,2.38,0,0,1-1.69,2.47l-2.75.83a1.67,1.67,0,0,1-2.14-1.39l-.4-3.24s-.65-4.54-6.49-4.54h-3.25s-7.14,0-9.74,9.09c0,0-2.6,13.63-10.38,22.07L648.94,1159a1.86,1.86,0,0,1-2-1.86v-94h8.84a13.77,13.77,0,0,1,10.87,5.32l23.12,29.73L709.64,1109a6,6,0,0,1,3.11,4.76l.06.67,1.28,14.86Z"/><path class="cls-47" d="M714.09,1129.24l-2-2.15a3.9,3.9,0,0,1-1-2.41l-.55-9.85a.42.42,0,0,1,.42-.44h1.84l0,.37L713.9,1127Z"/><path class="cls-48" d="M685.53,1097l1,32.34s-.31,1.57-3.25,10.38a74.48,74.48,0,0,1-5.84,12.33L650.82,1154s-.65-24-2.6-88.26Z"/><rect class="cls-49" x="695.6" y="1095.56" width="1.3" height="2.6"/><path class="cls-49" d="M691.44,1080h0a6.75,6.75,0,0,1,6.75,6.75v3.81a6.31,6.31,0,0,1-6.31,6.31h-.45a2.33,2.33,0,0,1-2.33-2.33v-12.21a2.33,2.33,0,0,1,2.33-2.33Z"/><rect class="cls-50" x="689.11" y="1079.99" width="5.84" height="16.87" rx="2.76" ry="2.76"/><polygon class="cls-51" points="398.36 1024.91 398.36 1161.32 393.81 1161.11 393.81 1025.47 398.36 1024.91"/><path class="cls-52" d="M390.08,1113.88h0a1.46,1.46,0,0,1-1.46-1.46v-9.23a1.46,1.46,0,0,1,1.46-1.46h0a1.46,1.46,0,0,1,1.46,1.46v9.23A1.46,1.46,0,0,1,390.08,1113.88Z"/><path class="cls-53" d="M390.08,1133.21h0a1.46,1.46,0,0,1-1.46-1.46v-9.23a1.46,1.46,0,0,1,1.46-1.46h0a1.46,1.46,0,0,1,1.46,1.46v9.23A1.46,1.46,0,0,1,390.08,1133.21Z"/><polygon class="cls-54" points="478.19 1148.13 393.81 1146.19 393.81 1141.64 478.19 1143.59 478.19 1148.13"/><polygon class="cls-55" points="478.19 1137.75 393.81 1141.64 478.19 1143.59 478.19 1137.75"/><polygon class="cls-55" points="478.19 1026.77 393.81 1025.47 478.19 1015.09 478.19 1026.77"/><path class="cls-56" d="M681,1101.69l-15.56-.6-4.32-.17-3.34-.13-1.11,0-8.44-35c13,0,16.23,3.25,16.23,3.25l4.74,6,2.17,2.76,2.81,3.58,10.42,13.28A4.37,4.37,0,0,1,681,1101.69Z"/><path class="cls-53" d="M713.9,1127h-.12a2.1,2.1,0,0,1-2.21-2l-.25-4.4-.21-3.75a2.09,2.09,0,0,1,1.72-2.17l.5,5.82Z"/><path class="cls-57" d="M696.94,1098.16h-1.38a.61.61,0,0,0-.61.61v0h-9.09v1.3h11.07a.61.61,0,0,0,.61-.61v-.73A.61.61,0,0,0,696.94,1098.16Z"/><path class="cls-58" d="M649.2,1021.58V1154l-56.06,3.71-.31,0a37.66,37.66,0,0,0-3.72-10.54,29.66,29.66,0,0,0-2-3.15c-3.64-5.1-8.52-8.22-13.89-8.22-5.86,0-11.14,3.72-14.87,9.68a31.38,31.38,0,0,0-1.81,3.34,39.68,39.68,0,0,0-3.34,11.52l-4.11.27-3.76.25L527.53,1162l-12.92.86L482.73,1165V1000.16l61.05,7.85,37.3,4.8,11.86,1.53,16.38,2.11Z"/><path class="cls-59" d="M553.31,1145.73l5.09-.25a31.38,31.38,0,0,0-1.81,3.34l-4.76.24-58.72,3v-3.25Z"/><path class="cls-59" d="M646.93,1141v3.25L590,1147.12l-.88,0a29.66,29.66,0,0,0-2-3.15l1.19-.06Z"/><path class="cls-60" d="M593.14,1157.69l-.31,0a2,2,0,0,0,0-.21,37.46,37.46,0,0,0-3.67-10.33,29.66,29.66,0,0,0-2-3.15c-3.64-5.1-8.52-8.22-13.89-8.22-5.86,0-11.14,3.72-14.87,9.68a31.38,31.38,0,0,0-1.81,3.34,39.56,39.56,0,0,0-3.3,11.32c0,.06,0,.14,0,.2l-4.11.27c0-.32.06-.64.1-1a41.76,41.76,0,0,1,2.59-10.6,34.35,34.35,0,0,1,1.48-3.32c4.08-8,10.63-13.17,18-13.17,6.82,0,12.93,4.43,17,11.4a30.92,30.92,0,0,1,1.65,3.16,40.26,40.26,0,0,1,3.07,10.15C593.09,1157.41,593.12,1157.54,593.14,1157.69Z"/><path class="cls-42" d="M716.69,1146.28a4.94,4.94,0,0,1-.78,2.94c-1,1.57-1.68,2.67-5.33,4.46l-.65-13c0-7.77-4.92-8.63-4.92-8.63l8.13-.47a2.58,2.58,0,0,1,2.92,2.12Z"/><path class="cls-2" d="M713.9,1127h-.12a2.1,2.1,0,0,1-2.21-2l-.25-4.4,2-.11Z"/><path class="cls-61" d="M669.19,1075l-11.42,25.79-1.11,0-8.44-35c13,0,16.23,3.25,16.23,3.25Z"/><polygon class="cls-62" points="581.08 1012.82 514.61 1162.9 482.73 1165.01 482.73 1145.86 543.78 1008.01 581.08 1012.82"/><polygon class="cls-62" points="609.32 1016.45 545.37 1160.85 527.53 1162.04 592.94 1014.34 609.32 1016.45"/><polygon class="cls-61" points="674.17 1081.35 665.43 1101.09 661.11 1100.92 671.36 1077.77 674.17 1081.35"/><path class="cls-52" d="M490.84,1102.23v7.44a3.42,3.42,0,0,1-3.13,3.41h-5.45a3.42,3.42,0,0,1-3.42-3.42v-7.44a3.42,3.42,0,0,1,3.42-3.42h5.17a3.36,3.36,0,0,1,1,.16,3,3,0,0,1,.61.26,3.33,3.33,0,0,1,1.13,1A3.37,3.37,0,0,1,490.84,1102.23Z"/><path class="cls-53" d="M490.84,1124.94v7.44a3.41,3.41,0,0,1-3,3.39,2.2,2.2,0,0,1-.42,0h-5.17a3.42,3.42,0,0,1-3.42-3.42v-7.44a3.42,3.42,0,0,1,3.42-3.42h5.17a3.33,3.33,0,0,1,1.14.2,2.57,2.57,0,0,1,.6.29,3.21,3.21,0,0,1,1.12,1.07A3.36,3.36,0,0,1,490.84,1124.94Z"/><path class="cls-63" d="M480.78,1113.09h0a2,2,0,0,1-1.95-1.95v-10.38a2,2,0,0,1,1.95-1.95h0a2,2,0,0,1,1.95,1.95v10.38A2,2,0,0,1,480.78,1113.09Z"/><path class="cls-64" d="M480.78,1135.8h0a2,2,0,0,1-1.95-1.95v-10.38a2,2,0,0,1,1.95-1.95h0a2,2,0,0,1,1.95,1.95v10.38A2,2,0,0,1,480.78,1135.8Z"/><path class="cls-65" d="M488.45,1099l-2.72,14.12h-2.65l2.76-14.28h1.58A3.36,3.36,0,0,1,488.45,1099Z"/><path class="cls-65" d="M490.19,1100.22l-2.48,12.85h-1.32l2.67-13.86A3.33,3.33,0,0,1,490.19,1100.22Z"/><path class="cls-65" d="M488.56,1121.73l-2.71,14.08h-2.64l2.75-14.28h1.46A3.33,3.33,0,0,1,488.56,1121.73Z"/><path class="cls-65" d="M490.28,1123.08l-2.45,12.69a2.2,2.2,0,0,1-.42,0h-.91l2.65-13.79A3.21,3.21,0,0,1,490.28,1123.08Z"/><path class="cls-11" d="M646.31,1183.73a10.37,10.37,0,0,0,4.54,5.9,17,17,0,0,0-.46-10,10.37,10.37,0,0,0-4.54-5.9A17,17,0,0,0,646.31,1183.73Z"/><path class="cls-11" d="M656.12,1184.31c-1.14,2.78-2.87,4.62-4.73,5.35a16.75,16.75,0,0,1,.8-9.89c1.14-2.78,2.87-4.62,4.73-5.35A16.75,16.75,0,0,1,656.12,1184.31Z"/><path class="cls-12" d="M648.59,1180.73a20.12,20.12,0,0,0,2.51,9.39c1.57-2.39,2.51-6.18,2.35-10.44a20.12,20.12,0,0,0-2.51-9.39C649.36,1172.68,648.42,1176.47,648.59,1180.73Z"/><path class="cls-11" d="M650.31,1185.57a23.25,23.25,0,0,0,.81,4.57,22.39,22.39,0,0,0,.05-5.22,23.25,23.25,0,0,0-.81-4.57A22.39,22.39,0,0,0,650.31,1185.57Z"/><path class="cls-11" d="M724.31,1167.73a10.37,10.37,0,0,0,4.54,5.9,17,17,0,0,0-.46-10,10.37,10.37,0,0,0-4.54-5.9A17,17,0,0,0,724.31,1167.73Z"/><path class="cls-11" d="M734.12,1168.31c-1.14,2.78-2.87,4.62-4.73,5.35a16.75,16.75,0,0,1,.8-9.89c1.14-2.78,2.87-4.62,4.73-5.35A16.75,16.75,0,0,1,734.12,1168.31Z"/><path class="cls-12" d="M726.59,1164.73a20.12,20.12,0,0,0,2.51,9.39c1.57-2.39,2.51-6.18,2.35-10.44a20.12,20.12,0,0,0-2.51-9.39C727.36,1156.68,726.42,1160.47,726.59,1164.73Z"/><path class="cls-11" d="M728.31,1169.57a23.25,23.25,0,0,0,.81,4.57,22.39,22.39,0,0,0,.05-5.22,23.25,23.25,0,0,0-.81-4.57A22.39,22.39,0,0,0,728.31,1169.57Z"/><path class="cls-11" d="M529.42,1197.71a8.24,8.24,0,0,0,4.59,3.75,7,7,0,0,0-.46-6.33,8.24,8.24,0,0,0-4.59-3.75A7,7,0,0,0,529.42,1197.71Z"/><path class="cls-11" d="M539.32,1198.07a8,8,0,0,1-4.78,3.4,7,7,0,0,1,.81-6.28,8,8,0,0,1,4.78-3.4A7,7,0,0,1,539.32,1198.07Z"/><path class="cls-12" d="M531.72,1195.8a9.49,9.49,0,0,0,2.53,6,8.42,8.42,0,0,0,2.37-6.64,9.49,9.49,0,0,0-2.53-6A8.42,8.42,0,0,0,531.72,1195.8Z"/><path class="cls-11" d="M533.46,1198.87a10,10,0,0,0,.82,2.91,9,9,0,0,0,.05-3.32,10,10,0,0,0-.82-2.91A9,9,0,0,0,533.46,1198.87Z"/><path class="cls-11" d="M526.92,1202.45a4.26,4.26,0,0,0,2.36,1.36,1.9,1.9,0,0,0-.24-2.29,4.26,4.26,0,0,0-2.36-1.36A1.9,1.9,0,0,0,526.92,1202.45Z"/><path class="cls-11" d="M532,1202.58a4.4,4.4,0,0,1-2.46,1.23,1.92,1.92,0,0,1,.41-2.28,4.4,4.4,0,0,1,2.46-1.23A1.92,1.92,0,0,1,532,1202.58Z"/><path class="cls-12" d="M528.1,1201.75a3.05,3.05,0,0,0,1.31,2.16,2.6,2.6,0,0,0,1.22-2.4,3.05,3.05,0,0,0-1.31-2.16A2.6,2.6,0,0,0,528.1,1201.75Z"/><path class="cls-11" d="M529,1202.87a2.86,2.86,0,0,0,.42,1.05,2.31,2.31,0,0,0,0-1.2,2.86,2.86,0,0,0-.42-1.05A2.31,2.31,0,0,0,529,1202.87Z"/><rect class="cls-31" x="444.55" y="1187.68" width="5.02" height="8.37"/><rect class="cls-31" x="488.06" y="1187.68" width="5.02" height="8.37"/><rect class="cls-31" x="506.47" y="1187.68" width="5.02" height="8.37"/><rect class="cls-31" x="426.14" y="1187.68" width="5.02" height="8.37"/><path class="cls-32" d="M484.71,1132.68v28a8.6,8.6,0,0,1-8.6,8.6H429.72a8.28,8.28,0,0,1-2.74-.45,8.57,8.57,0,0,1-5.86-8.15v-28a8.57,8.57,0,0,1,5.86-8.15,8.28,8.28,0,0,1,2.74-.45h46.39A8.6,8.6,0,0,1,484.71,1132.68Z"/><path class="cls-33" d="M432.83,1132.68v28a8.57,8.57,0,0,1-5.86,8.15,8.57,8.57,0,0,1-5.86-8.15v-28a8.57,8.57,0,0,1,5.86-8.15A8.57,8.57,0,0,1,432.83,1132.68Z"/><path class="cls-34" d="M452.91,1158v23.43a7.11,7.11,0,0,1-7.11,7.11H426.55a7.11,7.11,0,0,1-7.11-7.11V1158a7,7,0,0,1,1.08-3.76,7,7,0,0,1,1.17-1.43,7.1,7.1,0,0,1,4.87-1.93H445.8A7.11,7.11,0,0,1,452.91,1158Z"/><rect class="cls-35" x="439.52" y="1150.86" width="13.39" height="37.66" rx="6.69" ry="6.69"/><rect class="cls-34" x="481.37" y="1150.86" width="35.15" height="37.66" rx="12.91" ry="12.91"/><rect class="cls-35" x="503.13" y="1150.86" width="13.39" height="37.66" rx="6.69" ry="6.69"/><rect class="cls-35" x="446.22" y="1176.8" width="63.6" height="11.72"/><path class="cls-36" d="M452.91,1163.41h38.91a11.3,11.3,0,0,1,11.3,11.3v2.09a0,0,0,0,1,0,0H452.91a0,0,0,0,1,0,0v-13.39A0,0,0,0,1,452.91,1163.41Z"/><rect class="cls-25" x="310.69" y="1099.64" width="55.83" height="46.53"/><rect class="cls-26" x="345.12" y="1099.64" width="21.4" height="46.53"/><rect class="cls-27" x="324.65" y="1099.64" width="5.58" height="12.1"/><rect class="cls-27" x="324.65" y="1134.07" width="5.58" height="12.1"/><rect class="cls-25" x="260.44" y="1146.16" width="55.83" height="46.53"/><rect class="cls-26" x="294.87" y="1146.16" width="21.4" height="46.53"/><rect class="cls-29" x="274.4" y="1146.16" width="5.58" height="12.1"/><rect class="cls-29" x="274.4" y="1180.59" width="5.58" height="12.1"/><rect class="cls-28" x="349.77" y="1116.39" width="35.73" height="29.78"/><rect class="cls-26" x="371.8" y="1116.39" width="13.7" height="29.78"/><rect class="cls-29" x="358.7" y="1116.39" width="3.57" height="7.74"/><rect class="cls-29" x="358.7" y="1138.42" width="3.57" height="7.74"/><rect class="cls-30" x="310.79" y="1142.44" width="74.71" height="3.72"/><rect class="cls-30" x="308.83" y="1146.16" width="3.72" height="46.53"/><rect class="cls-30" x="349.77" y="1116.39" width="1.86" height="26.05"/><path class="cls-66" d="M398.78,1144.78v35.69H388.52v-34.59a6,6,0,0,1,1.17-1.1Z"/><rect class="cls-25" x="312.55" y="1146.16" width="83.75" height="46.53"/><rect class="cls-26" x="364.19" y="1146.16" width="32.1" height="46.53"/><rect class="cls-27" x="333.49" y="1146.16" width="8.37" height="12.1"/><rect class="cls-27" x="333.49" y="1180.59" width="8.37" height="12.1"/><path class="cls-48" d="M169.68,1120.72H140.05a1.7,1.7,0,0,1-1.64-2.11l5.86-23.38a1.7,1.7,0,0,1,1.64-1.29h17.91a1.68,1.68,0,0,1,1.64,1.29l5.86,23.38A1.69,1.69,0,0,1,169.68,1120.72Z"/><rect class="cls-67" x="152.96" y="1120.72" width="3.35" height="66.95"/><path class="cls-68" d="M161.33,1191H147.94a3.36,3.36,0,0,1,3.35-3.35H158A3.36,3.36,0,0,1,161.33,1191Z"/><rect class="cls-69" x="147.94" y="1191.02" width="13.39" height="1.67"/><path class="cls-70" d="M169.68,1120.72H156.31v66.95H158a3.36,3.36,0,0,1,3.35,3.35v1.67h-6.69v-98.75h9.19a1.68,1.68,0,0,1,1.64,1.29l5.86,23.38A1.69,1.69,0,0,1,169.68,1120.72Z"/><path class="cls-71" d="M667.93,233.49c15.35-2.83,24.9-6.82,24.9-11.23,0-8.6-36.3-15.58-81.08-15.58s-81.08,7-81.08,15.58c0,7,23.83,12.87,56.69,14.86-11.14,1.77-17.8,4-17.8,6.45,0,5.69,36.3,10.31,81.08,10.31s81.08-4.62,81.08-10.31C731.72,238.63,704.4,234.5,667.93,233.49Z"/><path class="cls-2" d="M663.26,237.61c15.35-2.83,24.9-6.82,24.9-11.23,0-8.6-36.3-15.58-81.08-15.58s-81.08,7-81.08,15.58c0,7,23.83,12.87,56.69,14.86-11.14,1.77-17.8,4-17.8,6.45,0,5.69,36.3,10.31,81.08,10.31s81.08-4.62,81.08-10.31C727.06,242.75,699.74,238.62,663.26,237.61Z"/><path class="cls-71" d="M86,168.29c-10.47-1.93-17-4.65-17-7.66,0-5.87,24.76-10.63,55.3-10.63s55.3,4.76,55.3,10.63c0,4.75-16.25,8.78-38.66,10.14,7.59,1.2,12.14,2.73,12.14,4.4,0,3.88-24.76,7-55.3,7s-55.3-3.15-55.3-7C42.51,171.79,61.14,169,86,168.29Z"/><path class="cls-2" d="M89.2,171.1c-10.47-1.93-17-4.65-17-7.66,0-5.87,24.76-10.63,55.3-10.63s55.3,4.76,55.3,10.63c0,4.75-16.25,8.78-38.66,10.14,7.59,1.2,12.14,2.73,12.14,4.4,0,3.88-24.76,7-55.3,7s-55.3-3.15-55.3-7C45.7,174.6,64.33,171.79,89.2,171.1Z"/></g></g></g></svg>