<svg xmlns="http://www.w3.org/2000/svg" width="24" height="24" viewBox="0 0 24 24">
  <defs>
    <style>
      .cls-1 {
        fill: #ccc;
        fill-rule: evenodd;
      }
    </style>
  </defs>
  <path id="å‰.svg" class="cls-1" d="M693.627,97.794a1.282,1.282,0,0,1,0,1.806l-0.026.026a1.283,1.283,0,0,1-1.807,0L670.367,78.2a1.282,1.282,0,0,1,0-1.806l0.027-.026a1.281,1.281,0,0,1,1.806,0Zm-1.833-21.427a1.282,1.282,0,0,1,1.807,0l0.026,0.026a1.282,1.282,0,0,1,0,1.806L672.2,99.627a1.281,1.281,0,0,1-1.806,0l-0.027-.026a1.282,1.282,0,0,1,0-1.806Z" transform="translate(-670 -76)"/>
</svg>
