<svg xmlns="http://www.w3.org/2000/svg" width="39" height="30" viewBox="0 0 39 30">
  <defs>
    <style>
      .cls-1 {
        fill-rule: evenodd;
      }
    </style>
  </defs>
  <path id="nav_ser.svg" class="cls-1" d="M653.7,102.706L647.5,94.666a11.321,11.321,0,0,0,3.583-8.248,11.529,11.529,0,1,0-5.9,9.951l6.229,8.07a1.446,1.446,0,0,0,1.148.562,1.431,1.431,0,0,0,1.147-2.294h0Zm-22.822-16.29a8.658,8.658,0,1,1,8.657,8.563,8.619,8.619,0,0,1-8.657-8.563h0Zm-5.781-5.74h-8.657a1.427,1.427,0,1,1,0-2.854H625.1a1.427,1.427,0,1,1,0,2.854h0Zm-2.886,11.418h-5.771a1.427,1.427,0,1,1,0-2.854h5.771a1.427,1.427,0,1,1,0,2.854h0Zm10.1,9.99H616.443a1.427,1.427,0,1,1,0-2.854h15.871a1.427,1.427,0,1,1,0,2.854h0Z" transform="translate(-615 -75)"/>
</svg>
