<svg xmlns="http://www.w3.org/2000/svg" xmlns:xlink="http://www.w3.org/1999/xlink" width="332.04" height="375.32" viewBox="0 0 332.04 375.32"><defs><style>.cls-1,.cls-2{fill:none;}.cls-11,.cls-2,.cls-3,.cls-5{stroke:#ccc;}.cls-2{stroke-linecap:round;stroke-linejoin:round;}.cls-3,.cls-8{fill:#f2f2f2;}.cls-11,.cls-3,.cls-5{stroke-miterlimit:10;}.cls-4{fill:#e5e5e5;}.cls-10,.cls-5{fill:#e2e2e2;}.cls-6{fill:#d8d8d8;}.cls-7{clip-path:url(#clip-path);}.cls-9{fill:#ccc;}.cls-11,.cls-12{fill:#fff;}</style><clipPath id="clip-path" transform="translate(0 -6.74)"><circle class="cls-1" cx="165.78" cy="209.77" r="123.03"/></clipPath></defs><title>没有搜索结果</title><g id="图层_2" data-name="图层 2"><g id="图层_1-2" data-name="图层 1"><line class="cls-2" x1="301.75" y1="248.66" x2="313.17" y2="248.66"/><line class="cls-2" x1="307.46" y1="242.95" x2="307.46" y2="254.37"/><circle class="cls-3" cx="326.12" cy="219.19" r="5.42"/><circle class="cls-3" cx="165.78" cy="203.65" r="123.03"/><path class="cls-4" d="M231.41,107.56A122.56,122.56,0,0,1,86.95,305,122.55,122.55,0,1,0,231.41,107.56Z" transform="translate(0 -6.74)"/><circle class="cls-5" cx="113.84" cy="248.66" r="9.15"/><path class="cls-6" d="M106.53,256.68a8.67,8.67,0,0,1,13.84-7,8.68,8.68,0,1,0-11.73,12.64A8.64,8.64,0,0,1,106.53,256.68Z" transform="translate(0 -6.74)"/><circle class="cls-5" cx="218.07" cy="193.38" r="22.61"/><path class="cls-6" d="M199.29,202.95a22.09,22.09,0,0,1,34.58-18.22,22.09,22.09,0,1,0-28.35,33.58A22,22,0,0,1,199.29,202.95Z" transform="translate(0 -6.74)"/><path class="cls-3" d="M289.85,102.8a7,7,0,0,0-7,7h0a7,7,0,0,0-7-7h0a7,7,0,0,0,7-7h0a7,7,0,0,0,7,7Z" transform="translate(0 -6.74)"/><path class="cls-3" d="M67.73,321.57a8,8,0,0,0-8,8h0a8,8,0,0,0-8-8h0a8,8,0,0,0,8-8h0a8,8,0,0,0,8,8Z" transform="translate(0 -6.74)"/><path class="cls-3" d="M16,225.93a8,8,0,0,0-8,8H8a8,8,0,0,0-2.35-5.67A8,8,0,0,0,0,225.93H0a8,8,0,0,0,5.67-2.35A8,8,0,0,0,8,217.91H8a8,8,0,0,0,8,8Z" transform="translate(0 -6.74)"/><path class="cls-3" d="M264.2,79.18a8,8,0,0,0-8,8h0a8,8,0,0,0-8-8h0a8,8,0,0,0,8-8h0a8,8,0,0,0,8,8Z" transform="translate(0 -6.74)"/><circle class="cls-5" cx="153.14" cy="102.78" r="7.57"/><path class="cls-6" d="M147.81,111.15a6.94,6.94,0,0,1,10.95-5.68,6.95,6.95,0,1,0-9.68,9.68A6.91,6.91,0,0,1,147.81,111.15Z" transform="translate(0 -6.74)"/><path class="cls-5" d="M225.67,113a12.54,12.54,0,0,0,9-3.81A122.74,122.74,0,0,0,213.42,97.6,12.55,12.55,0,0,0,225.67,113Z" transform="translate(0 -6.74)"/><g class="cls-7"><circle class="cls-5" cx="145.43" cy="318.76" r="14.16"/><path class="cls-6" d="M147.16,336a14.17,14.17,0,0,1-13.54-18.32,14.16,14.16,0,1,0,25.35,12A14.14,14.14,0,0,1,147.16,336Z" transform="translate(0 -6.74)"/></g><path class="cls-3" d="M324.8,159.43c-5.4-13.57-26.77-19.67-57.1-18.09q2.53,3.73,4.78,7.65c19.22-.21,32.22,4.11,35.62,12.66,8.56,21.52-46.82,63.77-123.71,94.36S38.25,294,29.68,272.45c-3.33-8.38,3-19.9,16.58-32.66-.7-2.86-1.3-5.75-1.8-8.68-22.27,19.29-33.29,37.7-28,51,11.06,27.8,89.05,22.87,174.2-11S335.87,187.23,324.8,159.43Z" transform="translate(0 -6.74)"/><ellipse class="cls-8" cx="159.9" cy="365.17" rx="87.94" ry="10.15"/><path class="cls-9" d="M64,39.1a.85.85,0,0,1-.58-.21,1.85,1.85,0,0,1-.23-.61c-.05-.22-.09-.42-.12-.6a.73.73,0,0,1,.24-.58l.62-1,1-1.49,1-1.49.64-1a4.13,4.13,0,0,1,.27-.36l.5-.61.6-.74.61-.75.49-.61.25-.34.16-.24.22-.35.21-.36.13-.23-.6,0-8.79.51s-.09,0-.16-.07l-.24-.17a1.27,1.27,0,0,1-.22-.19.43.43,0,0,1-.11-.17c-.07-.29,0-.48.21-.59a2.83,2.83,0,0,1,.59-.22l.33-.08a.53.53,0,0,1,.23,0l9.16-.62a1.86,1.86,0,0,1,.87.15.9.9,0,0,1,.53.66A1.8,1.8,0,0,1,71.63,28,9.68,9.68,0,0,1,71,29.14a6.06,6.06,0,0,1-.38.49q-.3.37-.69.87l-.83,1.07-.84,1.06c-.27.33-.5.62-.69.87s-.31.42-.36.5-.33.46-.54.8l-.62,1q-.3.47-.51.84a2.26,2.26,0,0,0-.2.4l0,.18,8.56-1.47a1,1,0,0,1,.55.16.71.71,0,0,1,.39.41.69.69,0,0,1-.18.59.94.94,0,0,1-.47.37l-.1,0-1.17.2-1.77.32-2.09.38L67,38.58l-1.77.32Z" transform="translate(0 -6.74)"/><path class="cls-9" d="M82.53,27.46q-.46-.08-.57-.24a1.83,1.83,0,0,1-.19-.63c0-.22-.07-.42-.08-.61a.73.73,0,0,1,.27-.56l.68-.94,1-1.43,1.06-1.43.7-.91a4.28,4.28,0,0,1,.3-.34l.53-.58.64-.71.66-.71.53-.58.27-.32.17-.23.25-.33.23-.34.15-.22-.6-.08-8.8,0s-.09,0-.16-.08L79.39,16a1.3,1.3,0,0,1-.21-.2.43.43,0,0,1-.1-.18c-.05-.29,0-.48.24-.57a2.82,2.82,0,0,1,.6-.19l.33-.06a.5.5,0,0,1,.24,0l9.18,0a1.87,1.87,0,0,1,.85.21.9.9,0,0,1,.49.69,1.81,1.81,0,0,1-.21,1.27A9.61,9.61,0,0,1,90.07,18a6.13,6.13,0,0,1-.41.47l-.74.83-.89,1-.91,1-.74.83c-.21.24-.34.4-.39.48s-.36.44-.59.76l-.68.94q-.33.46-.56.81a2.33,2.33,0,0,0-.22.38l0,.18,8.63-.93a1,1,0,0,1,.54.2.7.7,0,0,1,.37.44.69.69,0,0,1-.22.58.94.94,0,0,1-.5.34l-.1,0-1.18.13-1.79.21-2.11.25-2.11.25-1.79.21Z" transform="translate(0 -6.74)"/><path class="cls-9" d="M106,19.64c-.3-.09-.48-.2-.53-.32a1.89,1.89,0,0,1-.1-.65c0-.23,0-.43,0-.61a.73.73,0,0,1,.34-.52l.8-.84,1.22-1.27,1.24-1.28.81-.81.34-.3.6-.51.73-.62.74-.62.6-.51.31-.29.2-.2.29-.3.27-.31.17-.2-.58-.16-8.72-1.2s-.08,0-.15-.1l-.2-.21a1.28,1.28,0,0,1-.18-.23.43.43,0,0,1-.07-.19c0-.29.09-.47.32-.53a2.83,2.83,0,0,1,.62-.1h.34a.52.52,0,0,1,.23,0l9.11,1.16a1.87,1.87,0,0,1,.82.32A.91.91,0,0,1,116,9a1.81,1.81,0,0,1-.38,1.23,9.52,9.52,0,0,1-.88,1,6.12,6.12,0,0,1-.46.41l-.84.72-1,.89-1,.88-.84.72-.45.42c-.18.16-.41.39-.69.68l-.8.84q-.39.41-.66.73a2.27,2.27,0,0,0-.27.35V18l8.68.21a1,1,0,0,1,.51.27.72.72,0,0,1,.31.48.69.69,0,0,1-.29.55.94.94,0,0,1-.54.27h-.1l-1.19,0-1.8,0-2.12,0-2.12,0-1.8,0Z" transform="translate(0 -6.74)"/><ellipse class="cls-10" cx="79.1" cy="203.65" rx="7.84" ry="3.48"/><ellipse class="cls-10" cx="173.77" cy="203.25" rx="7.89" ry="3.51"/><ellipse class="cls-10" cx="127.95" cy="185.48" rx="8.67" ry="3.85"/><rect class="cls-5" x="110.57" y="102.66" width="34.04" height="35.98"/><path class="cls-3" d="M132.41,190.63c0,.5-.67.9-1.48.9h-7.44c-.82,0-1.48-.41-1.48-.9V142.78c0-.5.67-.9,1.48-.9h7.44c.82,0,1.48.41,1.48.9Z" transform="translate(0 -6.74)"/><path class="cls-3" d="M84.89,209.08a2.23,2.23,0,0,1-2.26.62l-6.44-1.5c-.9-.21-1.36-.83-1-1.38L114.54,144a2.23,2.23,0,0,1,2.26-.62l6.44,1.5c.9.21,1.36.83,1,1.38Z" transform="translate(0 -6.74)"/><path class="cls-3" d="M169.34,209.08a2.23,2.23,0,0,0,2.26.62l6.44-1.5c.9-.21,1.36-.83,1-1.38L139.69,144a2.23,2.23,0,0,0-2.26-.62l-6.44,1.5c-.9.21-1.36.83-1,1.38Z" transform="translate(0 -6.74)"/><path class="cls-5" d="M94.52,144.77c0,1,1.34,1.82,3,1.82h59.42c1.64,0,3-.82,3-1.82v-2.64c0-1-1.34-1.82-3-1.82H97.5c-1.64,0-3,.82-3,1.82Z" transform="translate(0 -6.74)"/><rect class="cls-6" x="66.24" y="106.64" width="2.69" height="17.98" transform="translate(-35.61 23.52) rotate(-20.09)"/><path class="cls-11" d="M27.88,136.34a2.38,2.38,0,0,0,3.05,1.42l50.68-18.54A2.39,2.39,0,0,0,83,116.16l-4.54-12.42a2.38,2.38,0,0,0-3-1.42L24.75,120.87a2.39,2.39,0,0,0-1.42,3.05Z" transform="translate(0 -6.74)"/><polygon class="cls-8" points="34.7 111.72 36.63 117.24 76.39 102.79 74.45 97.26 34.7 111.72"/><path class="cls-5" d="M19.35,111.48h6.9a2,2,0,0,1,2,2v7.2a2,2,0,0,1-2,2h-6.9a2,2,0,0,1-2-2v-7.2a2,2,0,0,1,2-2Z" transform="translate(-38.82 8.21) rotate(-20.09)"/><path class="cls-5" d="M16.69,113.26a2,2,0,0,0,2.6,1.21l4.52-1.66a2,2,0,0,0,1.21-2.6L23.1,105a1.82,1.82,0,0,0-2.53-1l-.34.16a26.49,26.49,0,0,1-3.8,1.39l-.4.11A1.82,1.82,0,0,0,14.77,108Z" transform="translate(0 -6.74)"/><path class="cls-6" d="M16.91,112.46c.06.16.43.17.82,0l6-2.18c.4-.14.67-.39.61-.55s-.43-.17-.82,0l-6,2.18C17.13,112.05,16.85,112.3,16.91,112.46Z" transform="translate(0 -6.74)"/><path class="cls-6" d="M16.57,111.53c.06.16.43.17.82,0l6-2.18c.4-.15.67-.39.62-.55s-.43-.17-.82,0l-6,2.18C16.79,111.13,16.52,111.37,16.57,111.53Z" transform="translate(0 -6.74)"/><path class="cls-5" d="M22.79,139a2.29,2.29,0,0,0,2.93,1.36L43.16,134A2.29,2.29,0,0,0,44.52,131l-5.05-13.81a2.29,2.29,0,0,0-2.93-1.36L19.1,122.25a2.29,2.29,0,0,0-1.36,2.93Z" transform="translate(0 -6.74)"/><path class="cls-11" d="M72.8,126.17a4.15,4.15,0,0,0,5.26,2.57l58.16-20a4.15,4.15,0,0,0,2.57-5.26l-9.56-27.75A4.15,4.15,0,0,0,124,73.12l-58.17,20a4.15,4.15,0,0,0-2.57,5.26Z" transform="translate(0 -6.74)"/><polygon class="cls-8" points="63.45 92.12 65.87 99.38 128.15 78.13 125.73 70.86 63.45 92.12"/><rect class="cls-5" x="121.57" y="73.44" width="9.26" height="37.63" transform="translate(-23.17 39.39) rotate(-19.01)"/><circle class="cls-6" cx="126.04" cy="103.22" r="6.83" transform="translate(-26.74 39.93) rotate(-19)"/><circle class="cls-12" cx="126.04" cy="103.22" r="3.34" transform="translate(-26.74 39.93) rotate(-19.01)"/><rect class="cls-5" x="149.35" y="45.81" width="12.59" height="10.62" transform="translate(-8.18 44.51) rotate(-18.23)"/><path class="cls-5" d="M131.3,50.67a1.83,1.83,0,0,0,2.3,1.16L145.27,48a1.83,1.83,0,0,0,1.16-2.3l-2.94-8.94a1.83,1.83,0,0,0-2.3-1.16l-11.67,3.84a1.83,1.83,0,0,0-1.16,2.3Z" transform="translate(0 -6.74)"/><path class="cls-11" d="M145,47.12a1.83,1.83,0,0,0,2.3,1.16l26.81-8.83a1.83,1.83,0,0,0,1.16-2.3l-3.51-10.67a1.83,1.83,0,0,0-2.3-1.16l-26.81,8.83a1.83,1.83,0,0,0-1.16,2.3Z" transform="translate(0 -6.74)"/><path class="cls-5" d="M173.09,39.31a1.83,1.83,0,0,0,2.3,1.16L181,38.62a1.83,1.83,0,0,0,1.16-2.3l-4.51-13.69a1.83,1.83,0,0,0-2.3-1.16l-5.62,1.85a1.83,1.83,0,0,0-1.16,2.3Z" transform="translate(0 -6.74)"/><path class="cls-11" d="M137.75,110.53a4.57,4.57,0,0,0,5.75,2.9l76.67-25.25a4.57,4.57,0,0,0,2.9-5.75L210,42.66a4.57,4.57,0,0,0-5.75-2.9L127.56,65a4.56,4.56,0,0,0-2.9,5.75Z" transform="translate(0 -6.74)"/><path class="cls-8" d="M210.58,44.41l-.12-.38a4.65,4.65,0,0,1,.21.47l3,8.51-85.32,28.1-3-8.51s0-.08,0-.12Z" transform="translate(0 -6.74)"/><path class="cls-5" d="M219,87.49a1.82,1.82,0,0,0,2.3,1.16l5.77-1.9a1.83,1.83,0,0,0,1.16-2.3L212.91,38a1.83,1.83,0,0,0-2.3-1.16l-5.76,1.9a1.83,1.83,0,0,0-1.16,2.3Z" transform="translate(0 -6.74)"/></g></g></svg>