<?xml version="1.0" encoding="utf-8"?>
<!-- Generator: Adobe Illustrator 21.0.2, SVG Export Plug-In . SVG Version: 6.00 Build 0)  -->
<svg version="1.1" id="图层_1" xmlns="http://www.w3.org/2000/svg" xmlns:xlink="http://www.w3.org/1999/xlink" x="0px" y="0px"
	 viewBox="0 0 39 30" style="enable-background:new 0 0 39 30;" xml:space="preserve">
<style type="text/css">
	.st0{fill:#FFFFFF;}
</style>
<path id="nav_ser.svg" class="st0" d="M38.7,27.7l-6.2-8c2.3-2.1,3.6-5.1,3.6-8.2C36.1,5.1,31-0.2,24.7-0.2
	C18.3-0.3,13.1,4.8,13,11.2s5.1,11.6,11.4,11.6c2,0,4-0.5,5.7-1.5l6.2,8.1c0.3,0.4,0.7,0.6,1.1,0.6c0.8,0,1.4-0.6,1.4-1.4
	C39,28.3,38.9,28,38.7,27.7L38.7,27.7L38.7,27.7z M15.9,11.4c-0.1-4.8,3.8-8.7,8.6-8.8c4.8-0.1,8.7,3.8,8.8,8.6
	c0.1,4.8-3.8,8.7-8.6,8.8c0,0-0.1,0-0.1,0C19.8,20,15.9,16.2,15.9,11.4L15.9,11.4z M10.1,5.7H1.4C0.7,5.7,0,5,0,4.3
	c0-0.8,0.6-1.4,1.4-1.4c0,0,0,0,0,0h8.7c0.8,0,1.4,0.6,1.4,1.4S10.9,5.7,10.1,5.7L10.1,5.7L10.1,5.7z M7.2,17.1H1.4
	c-0.8,0-1.4-0.6-1.4-1.4c0-0.8,0.6-1.4,1.4-1.4c0,0,0,0,0,0h5.8c0.8,0,1.4,0.6,1.4,1.4S8,17.1,7.2,17.1C7.2,17.1,7.2,17.1,7.2,17.1z
	 M17.3,27.1H1.4c-0.8,0-1.4-0.6-1.4-1.4s0.6-1.4,1.4-1.4l0,0h15.9c0.8,0,1.4,0.6,1.4,1.4S18.1,27.1,17.3,27.1L17.3,27.1L17.3,27.1z"
	/>
</svg>
