<svg xmlns="http://www.w3.org/2000/svg" width="594" height="549.1" viewBox="0 0 594 549.1"><defs><style>.cls-1{fill:#6ab7a8;}.cls-2{fill:#fff;}.cls-3{fill:#ff9500;}.cls-4{fill:#050551;}.cls-5{fill:#d1d3d4;}.cls-6{fill:#eaad6c;}.cls-7{fill:#f7c077;}.cls-8{fill:#231f20;}.cls-9{fill:#f9f7f7;}.cls-10{fill:#000021;}.cls-11{fill:#939598;}.cls-12{fill:#a97c50;}.cls-13{fill:#9b6d43;}.cls-14{fill:#bf8c5e;}.cls-15{fill:#be1e2d;}.cls-16{fill:#aa182a;}.cls-17{fill:#040442;}.cls-18{fill:#0a0a54;}</style></defs><title>bg2</title><g id="图层_2" data-name="图层 2"><g id="图层_1-2" data-name="图层 1"><rect class="cls-1" x="12" y="92.57" width="582" height="456.53" rx="20" ry="20"/><rect class="cls-2" y="81.1" width="582" height="456.53" rx="20" ry="20"/><path class="cls-3" d="M562,81.1H20a20.06,20.06,0,0,0-20,20v79H582v-79A20.06,20.06,0,0,0,562,81.1Z"/><path class="cls-4" d="M162.4,117.74l-4.9-1.15c8.45-33.91-9.8-57.57-10-57.81l4-3a64.81,64.81,0,0,1,8.91,17.34A77.41,77.41,0,0,1,162.4,117.74Z"/><path class="cls-4" d="M108.7,118.38l4.9-1.15c-8.45-33.91,9.8-57.57,10-57.81l-4-3a64.82,64.82,0,0,0-8.91,17.34A77.41,77.41,0,0,0,108.7,118.38Z"/><ellipse class="cls-5" cx="137.3" cy="203.2" rx="36.24" ry="4.18"/><rect class="cls-6" x="131.91" y="36.91" width="8.25" height="19.53" transform="translate(272.27 92.72) rotate(179.74)"/><path class="cls-7" d="M152.49,22.48l.08,16.75a8.91,8.91,0,0,1-.67,3.44l-1.13,2.73a6.16,6.16,0,0,1-5.66,3.81h-2a5.41,5.41,0,0,1-2.46-.58l-.22-.11a21.48,21.48,0,0,1-8.52-7.77L131,39.26l-.08-16.68Z"/><path class="cls-8" d="M130.91,22.57s23,7.62,29.29-6.81a5.68,5.68,0,0,1-4.92,0c-2.82-1.22-15.69-12-26-3,0,0-17.68,12.37,1.7,26.51Z"/><path class="cls-7" d="M131.84,33s-4.75-1.56-4.91,2,1.6,4.82,4.94,3.93Z"/><rect class="cls-8" x="130.58" y="20.81" width="3.55" height="16.51" rx="1.55" ry="1.55" transform="translate(264.85 57.43) rotate(179.7)"/><path class="cls-4" d="M120,56.51l.19,41.79,31.51-.15-.2-42.31L150,55.47l-3.52-.92-4.71-1.22-1.62-.42h0a4.09,4.09,0,0,1-8.12,0h-.09l-1.68.5-5,1.49L121.76,56Z"/><circle class="cls-8" cx="149.19" cy="32.02" r="0.85" transform="translate(109.02 179.22) rotate(-86.85)"/><circle class="cls-8" cx="140.1" cy="32.02" r="0.85" transform="matrix(0.06, -1, 1, 0.06, 100.41, 170.15)"/><path class="cls-9" d="M148.68,41.4,141.19,41s1.19,4.28,3.52,4.31S148.68,41.4,148.68,41.4Z"/><polygon class="cls-7" points="144.79 198.58 146.12 191.84 140.62 190.13 139.29 196.87 144.79 198.58"/><path class="cls-10" d="M136.79,196.47l0,.2a2.85,2.85,0,0,0,2.34,3.28l16.57,2.73a2.85,2.85,0,0,0,3.27-2.36l0-.2a2.85,2.85,0,0,0-2.34-3.28L145.41,195a.64.64,0,0,1,0,.12,2.82,2.82,0,1,1-5.56-.92.52.52,0,0,1,0-.11A2.86,2.86,0,0,0,136.79,196.47Z"/><path class="cls-10" d="M146.61,193.2c9.72-34.28-1.49-83.18-2-85.24l-6.88,1.61c.11.49,11.28,49.2,2.06,81.71Z"/><polygon class="cls-7" points="127.93 198.58 126.6 191.84 132.1 190.13 133.42 196.87 127.93 198.58"/><path class="cls-10" d="M135.93,196.47l0,.2a2.85,2.85,0,0,1-2.34,3.28l-16.57,2.73a2.85,2.85,0,0,1-3.27-2.36l0-.2a2.85,2.85,0,0,1,2.34-3.28L127.3,195a.6.6,0,0,0,0,.12,2.82,2.82,0,1,0,5.56-.92.55.55,0,0,0,0-.11A2.86,2.86,0,0,1,135.93,196.47Z"/><path class="cls-10" d="M126.11,193.2c-9.72-34.28,1.49-83.18,2-85.24l6.88,1.61c-.11.49-11.28,49.2-2.06,81.71Z"/><path class="cls-10" d="M120.21,100.3V98.21s0-.07,0-.1v-28h31.51V100.3h0v1.37a10.19,10.19,0,0,1-10.14,10.24L130.4,112a10.14,10.14,0,0,1-10.19-10.09V100.3h0Z"/><polygon class="cls-10" points="146.51 54.55 146.51 70.13 150.04 70.13 150.04 55.47 146.51 54.55"/><polygon class="cls-10" points="121.76 55.99 121.76 70.13 125.29 70.13 125.29 54.94 121.76 55.99"/><path class="cls-11" d="M130.26,53.45a5.79,5.79,0,0,0,11.54-.11l-1.62-.42h0a4.09,4.09,0,0,1-8.12,0h-.09Z"/><rect class="cls-12" x="105.51" y="77.25" width="59.54" height="40.94" transform="translate(270.57 195.44) rotate(180)"/><polygon class="cls-13" points="165.05 80.06 105.51 80.06 105.51 118.19 114.48 118.19 165.05 80.06"/><rect class="cls-14" x="102.22" y="70.13" width="66.13" height="9.94" transform="translate(270.57 150.19) rotate(180)"/><rect class="cls-15" x="146.25" y="70.12" width="6.96" height="12.83" transform="translate(299.46 153.08) rotate(180)"/><polygon class="cls-16" points="153.21 80.06 146.25 80.06 146.25 82.96 153.21 80.06"/><rect class="cls-15" x="117.36" y="70.12" width="6.96" height="12.83" transform="translate(241.67 153.08) rotate(180)"/><polygon class="cls-16" points="124.32 80.06 117.36 80.06 117.36 82.96 124.32 80.06"/><path class="cls-8" d="M159.76,116.15h-3.54a2.83,2.83,0,0,1-2.83-2.83v-4.89a2.83,2.83,0,0,1,2.83-2.83h3.54a2.83,2.83,0,0,1,2.83,2.83v4.89A2.83,2.83,0,0,1,159.76,116.15Zm-3.54-9.49a1.77,1.77,0,0,0-1.77,1.77v4.89a1.77,1.77,0,0,0,1.77,1.77h3.54a1.77,1.77,0,0,0,1.77-1.77v-4.89a1.77,1.77,0,0,0-1.77-1.77Z"/><polygon class="cls-8" points="158.25 109.09 158.96 108.48 159.66 107.87 160.36 108.48 161.06 109.08 160.43 109.08 160.43 113.88 158.88 113.88 158.88 109.08 158.25 109.09"/><polygon class="cls-8" points="157.99 112.67 157.29 113.27 156.59 113.88 155.88 113.28 155.18 112.67 155.81 112.67 155.81 107.87 157.36 107.87 157.36 112.67 157.99 112.67"/><path class="cls-8" d="M149.73,116.15h-3.54a2.83,2.83,0,0,1-2.83-2.83v-4.89a2.83,2.83,0,0,1,2.83-2.83h3.54a2.83,2.83,0,0,1,2.83,2.83v4.89A2.83,2.83,0,0,1,149.73,116.15Zm-3.54-9.49a1.77,1.77,0,0,0-1.77,1.77v4.89a1.77,1.77,0,0,0,1.77,1.77h3.54a1.77,1.77,0,0,0,1.77-1.77v-4.89a1.77,1.77,0,0,0-1.77-1.77Z"/><path class="cls-8" d="M146,107.62h4a.16.16,0,0,1,.12.28l-.92.95-1.05,1.09v3.79h.77a.19.19,0,1,1,0,.38h-1.79a.19.19,0,1,1,0-.38h.77V110l-1.06-1.1-.91-.95A.17.17,0,0,1,146,107.62Z"/><path class="cls-8" d="M139.92,116.15h-3.54a2.83,2.83,0,0,1-2.82-2.83v-4.89a2.83,2.83,0,0,1,2.82-2.83h3.54a2.83,2.83,0,0,1,2.83,2.83v4.89A2.83,2.83,0,0,1,139.92,116.15Zm-3.54-9.49a1.77,1.77,0,0,0-1.77,1.77v4.89a1.77,1.77,0,0,0,1.77,1.77h3.54a1.77,1.77,0,0,0,1.77-1.77v-4.89a1.77,1.77,0,0,0-1.77-1.77Z"/><path class="cls-8" d="M141.67,110.92s-.41-3.24-3.5-3.17a3.69,3.69,0,0,0-3.52,3.17,1,1,0,0,1,1.84,0s.73-1.3,1.68,0c0,0,.73-1.33,1.77,0C139.94,110.92,140.64,109.62,141.67,110.92Z"/><rect class="cls-8" x="137.98" y="107.07" width="0.34" height="6.68" rx="0.15" ry="0.15" transform="translate(276.31 220.82) rotate(180)"/><path class="cls-8" d="M138.9,114.68c1,0,1.09-.58,1.15-1.17a.26.26,0,0,0-.51-.05c-.06.57-.13.71-.64.71s-.49-.49-.49-.55a.26.26,0,1,0-.51,0A1,1,0,0,0,138.9,114.68Z"/><rect class="cls-8" x="119.32" y="85.4" width="0.81" height="9.28" transform="translate(239.45 180.07) rotate(180)"/><rect class="cls-8" x="118.64" y="85.4" width="0.41" height="9.28" transform="translate(237.69 180.07) rotate(180)"/><rect class="cls-8" x="117.65" y="85.4" width="0.81" height="9.28" transform="translate(236.11 180.07) rotate(180)"/><rect class="cls-8" x="117.04" y="85.4" width="0.41" height="9.28" transform="translate(234.48 180.07) rotate(180)"/><rect class="cls-8" x="116.47" y="85.4" width="0.41" height="9.28" transform="translate(233.35 180.07) rotate(180)"/><rect class="cls-8" x="114.87" y="85.4" width="0.41" height="9.28" transform="translate(230.14 180.07) rotate(180)"/><rect class="cls-8" x="115.87" y="85.4" width="0.41" height="9.28" transform="translate(232.15 180.07) rotate(180)"/><rect class="cls-8" x="114.27" y="85.4" width="0.41" height="9.28" transform="translate(228.95 180.07) rotate(180)"/><rect class="cls-8" x="112.93" y="85.4" width="0.81" height="9.28" transform="translate(226.68 180.07) rotate(180)"/><rect class="cls-8" x="112.25" y="85.4" width="0.41" height="9.28" transform="translate(224.91 180.07) rotate(180)"/><rect class="cls-8" x="111.26" y="85.4" width="0.81" height="9.28" transform="translate(223.33 180.07) rotate(180)"/><rect class="cls-8" x="110.65" y="85.4" width="0.41" height="9.28" transform="translate(221.71 180.07) rotate(180)"/><rect class="cls-8" x="110.09" y="85.4" width="0.41" height="9.28" transform="translate(220.58 180.07) rotate(180)"/><rect class="cls-8" x="109.49" y="85.4" width="0.41" height="9.28" transform="translate(219.38 180.07) rotate(180)"/><path class="cls-7" d="M113.77,119.5l.18,0a.61.61,0,0,0,.67-.56l.29-3.27a.61.61,0,0,0-.56-.67l-.18,0a.61.61,0,0,0-.67.56l-.29,3.27A.61.61,0,0,0,113.77,119.5Z"/><rect class="cls-7" x="111.88" y="114.53" width="1.41" height="5.05" rx="0.62" ry="0.62" transform="translate(217.64 240.9) rotate(-176.42)"/><path class="cls-7" d="M111,114.12h.18a.62.62,0,0,1,.62.62V119a.62.62,0,0,1-.62.62H111a.62.62,0,0,1-.62-.62v-4.23a.61.61,0,0,1,.61-.61Z" transform="matrix(-1, -0.04, 0.04, -1, 217.7, 237.82)"/><rect class="cls-7" x="108.92" y="114.41" width="1.41" height="5.05" rx="0.62" ry="0.62" transform="translate(219.24 233.86) rotate(180)"/><path class="cls-7" d="M109.12,118.93c-.48-1-1.75-3.15-3.12-2.45l1.5,2.78a.79.79,0,0,0,.92.38l.45-.14A.41.41,0,0,0,109.12,118.93Z"/><rect class="cls-7" x="155.37" y="114.36" width="1.41" height="4.51" rx="0.62" ry="0.62" transform="translate(-9.83 14.47) rotate(-5.15)"/><path class="cls-7" d="M157.8,118.92h-.18a.61.61,0,0,1-.65-.57l-.25-3.81a.61.61,0,0,1,.57-.65h.18a.61.61,0,0,1,.65.57l.25,3.81A.61.61,0,0,1,157.8,118.92Z"/><rect class="cls-7" x="158.32" y="113.48" width="1.41" height="5.46" rx="0.62" ry="0.62" transform="translate(-4.35 6.2) rotate(-2.21)"/><rect class="cls-7" x="159.81" y="113.76" width="1.41" height="5.05" rx="0.62" ry="0.62"/><path class="cls-7" d="M161,118.28c.48-1,1.75-3.15,3.12-2.45l-1.5,2.78a.79.79,0,0,1-.92.38l-.44-.14A.41.41,0,0,1,161,118.28Z"/><path class="cls-17" d="M122.15,27.7l9.24-3.9,1.54-.65,13.75-5.81,1.49-.63,5-2.12c-5-8.51-6.82-18.05-22.36-12.91l-.94.32-1.27.48-.2.08-.46.18C111.65,9.54,122.15,27.7,122.15,27.7Z"/><path class="cls-18" d="M153.21,14.58,174,15a24.08,24.08,0,0,1-15.18,5.82L133.28,23Z"/><path class="cls-10" d="M128,2.73l.06,0a1.59,1.59,0,1,1,2.72-1.12s0,.08,0,.12l.09,0c3.59.94,13.49,4.42,17.32,15l-1.49.63,0,0C142.83,6.63,132,3.61,129.71,3.09l-.13,0c-.8,3.09-2.48,12.27,3.36,20l-1.54.65C125.36,15.52,127.09,6.08,128,2.73Z"/><path class="cls-2" d="M225.25,127.18h3.14l-3.14,5.43V150.8l-5.86,2.38v-11l-1,1.74H212l7.41-12.2v-9.06h-1.49l-.47,5.73h-5.67l1.4-13.64,5.54,0-.28,3.1h1V113.3h5.86v4.54h3.31l-2.1,4.84h-1.21Zm1,23.3,5.45-25.38h5.71l-5.37,25.38Zm15.89,1.87v-4.8h3.06V119.37H235.14L234,123.44H227.9L230.6,113h6.17l-.49,1.74h15v32.32l-5.58,5.28Zm-8.57-1.87,5.3-25.38h5.69l-5.07,25.38Z"/><path class="cls-2" d="M260.77,126.1a4.14,4.14,0,0,1,1.87.52A3.63,3.63,0,0,1,264.1,128a3.88,3.88,0,0,1,.53,2,4.09,4.09,0,0,1-.53,2,3.8,3.8,0,0,1-1.41,1.43,3.73,3.73,0,0,1-1.92.53,3.57,3.57,0,0,1-1.93-.51,3.8,3.8,0,0,1-1.4-1.44,4,4,0,0,1,0-3.93,3.59,3.59,0,0,1,1.45-1.45A3.91,3.91,0,0,1,260.77,126.1Zm0-12.41a3.84,3.84,0,0,1,1.84.5,3.63,3.63,0,0,1,1.45,1.43,4,4,0,0,1,.54,2,3.7,3.7,0,0,1-.52,1.93,3.91,3.91,0,0,1-1.41,1.43,3.52,3.52,0,0,1-1.9.5,3.8,3.8,0,0,1-3.32-1.92,3.7,3.7,0,0,1-.5-2,3.9,3.9,0,0,1,.52-1.94,3.52,3.52,0,0,1,1.44-1.41A4.15,4.15,0,0,1,260.77,113.68Zm-3.14,24.57h6.45l0,11.88-6.47,2.65Zm28.29-8-1.21-4.1h6.24l2.72,9h-6.3l-.87-3.73-1.68,3.5H268.67v-4.35l5.58-10.25h-6.07v-4.69h8.7a6.6,6.6,0,0,1,.82-2q.69-1.23,3-1.22t3.06,1.19a8.45,8.45,0,0,1,.75,1.39l.13.66h9.23l-2,4.69h-10l-5.52,9.89Zm-17.17,7.21h6.37l0,12.39-6.3,2.8Zm8.89-.08H284l0,12.6-6.37,2.8Zm8.83-.06h6.39v9.91h2.25l-1.87,4.56h-6.77Z"/><path class="cls-2" d="M306.41,120.5h8.17l-7.41,5.9H299Zm8.93,7.57v-9H299.41V115h15.94V113.2h6.73V115h16l-2,4.12h-14v9h14.11l0,13.5L329,146.13l-27.8,0V128.07Zm20.9,24.25H300v-4.14h38.3ZM308.3,132.21V135H327l-2.08,4.07H308.3V142H329v-9.8ZM331,120.5l7.41,5.9h-8.17l-7.41-5.9Z"/><path class="cls-2" d="M342.76,124.65h9.08l0,22.81,3.16,0-2.36,5-7.55,0V129.77h-2.38Zm5.88-11.84a4,4,0,0,1,1.9.51,3.8,3.8,0,0,1,1.5,1.45,3.88,3.88,0,0,1,.55,2,4.09,4.09,0,0,1-.55,2,3.84,3.84,0,0,1-1.43,1.44,3.7,3.7,0,0,1-2,.5,4,4,0,0,1-2-.51,3.63,3.63,0,0,1-1.42-1.42,4.08,4.08,0,0,1-.52-2,3.8,3.8,0,0,1,.52-2,3.54,3.54,0,0,1,1.49-1.45A4.34,4.34,0,0,1,348.64,112.81Zm26,6.88H363.07l-1.34,3h-7.21l4-9.51h7l-.74,1.85h16.25V147l-5.77,5.52H372v-4.86h2.63Zm-17.76,4h16v22.66l-5.56,4.92h-10.4Zm9.53,4.69h-3.1v6.28h3.1Zm-3.1,10.95v7.24h3.1V136.34l-1.29,2.95Z"/></g></g></svg>