<svg xmlns="http://www.w3.org/2000/svg" width="55.46" height="62" viewBox="0 0 55.46 62"><title>资源 2</title><g id="图层_2" data-name="图层 2"><g id="图层_1-2" data-name="图层 1"><path d="M38.9,62c-5.32,0-8.25-1.81-9.47-2.83H26.53C25.58,60,22.62,62,16,62,7.66,62,4.55,57.62,4.55,54.86a6.41,6.41,0,0,1,3-5.41L7,48.16a4.89,4.89,0,0,1-2.76,1.05c-2.42,0-3.82-2.48-4.15-7.37C-.47,34,2.75,30.86,4.67,29c.42-.41,1.12-1.1,1.07-1.28C5,24.87,6.85,20.94,7.33,20c.18-4.61,5.29-20,20.06-20,14.93,0,21,14.27,21,20.22v.86a7.72,7.72,0,0,1,1.88,6.81A7,7,0,0,0,51,29c1.54,1.9,4.42,5.45,4.42,12.75,0,6.46-2.24,7.81-4.12,7.81a5.42,5.42,0,0,1-2.71-.86l-.41.76a7,7,0,0,1,2.84,5.79C51.07,60.17,43.61,62,38.9,62ZM26.14,57.24h3.6c.59,0,.72.26.72.26.83.77,3.32,2.57,8.45,2.57,4.13,0,10.23-1.52,10.23-4.79a5,5,0,0,0-2.58-4.56c-.29-.29-.82-.59-.46-1.31s1.14-2.19,1.41-2.59A1.17,1.17,0,0,1,49,46.6a4.36,4.36,0,0,0,2.38,1.06c1.91,0,2.19-3.68,2.19-5.88,0-6.61-2.49-9.69-4-11.53-.8-1-1.43-1.76-1.23-2.7a5.81,5.81,0,0,0-1.58-5.35l-.33-2c0-4-4.56-18.29-19-18.29S9.29,17.51,9.29,19.79L9,21.06c-.6,1.13-1.87,4.13-1.35,6.14C7.94,28.46,7,29.38,6,30.35c-1.79,1.77-4.5,4.44-4,11.36.24,3.54,1,5.57,2.22,5.57.92,0,1.9-1,2.39-1.35A1.06,1.06,0,0,1,8,45.8a15,15,0,0,1,2,3.9c.09.63-.26,1-.88,1.18-1.46.24-2.64,2.19-2.64,4s2.32,5.21,9.5,5.21,9.39-2.46,9.41-2.48S25.55,57.24,26.14,57.24Zm1.62-24c-14,0-21.26-4.33-21.56-4.52l-.3-.19-.11-.34c0-.14-1.07-3.41,1.66-8.42l.61-1.12.91.89s5.36,5,18.79,5c13.61,0,19-3.76,19.06-3.8l.67-.48.58.58c.13.13,3.21,3.27,2.13,7.22l-.1.38-.34.2C49.43,28.78,41.73,33.22,27.76,33.22Zm-20.21-6c1.58.83,8.49,4,20.21,4s19-3.33,20.66-4.17a5.85,5.85,0,0,0-1.25-4.38c-2,1.09-7.93,3.69-19.41,3.69-11.09,0-17-3.18-19.13-4.71A10,10,0,0,0,7.55,27.25Zm15.24,17H16c-.91,0-2.45-.34-2.45-2.64V29.73l1.64.33c.78.44,5.15,1,8.83,1.24l.9.06V41.9a2.33,2.33,0,0,1-.55,1.76A2.11,2.11,0,0,1,22.79,44.23ZM15.46,31.74v9.85c0,.71.08.71.51.71h7a2.73,2.73,0,0,0,0-.36V32.67A49.66,49.66,0,0,1,15.46,31.74ZM24.33,6.56a.92.92,0,0,0,.49-1.24.88.88,0,0,0-1.24-.54,15.19,15.19,0,0,0-8,6.41.87.87,0,0,0,.56,1.15c.75.35,1.14-.23,1.36-.55A13.19,13.19,0,0,1,24.33,6.56ZM13.17,17.23a.82.82,0,0,0,.71.89c1,.24,1.19-.53,1.19-.53A12.47,12.47,0,0,1,16,14.8c.13-.35.13-.81-.69-1.1-.6-.22-.93.07-1.19.56A14.65,14.65,0,0,0,13.17,17.23Z"/></g></g></svg>