<svg xmlns="http://www.w3.org/2000/svg" width="59.75" height="63.5" viewBox="0 0 59.75 63.5">
  <defs>
    <style>
      .cls-1 {
        fill-rule: evenodd;
      }
    </style>
  </defs>
  <path id="客服.svg" class="cls-1" d="M58.9,241.58a2.741,2.741,0,0,0,5.317,0v0A2.741,2.741,0,0,0,58.9,241.58Zm31.7-20.041a6.7,6.7,0,0,0-1.954-2.118c-0.156-12.967-6.171-22.2-16.326-25.931-1.444-4.257-5.871-7.194-10.934-7.194-5.017,0-9.428,2.9-10.9,7.107a22.185,22.185,0,0,0-9.513,6.575c-4.049,4.781-6.231,11.468-6.326,19.363a6.453,6.453,0,0,0-2.319,2.465c-2.061,3.6,1.127,8.391,2.885,9.555a8.47,8.47,0,0,0,4.8,1.473c0.088,0,.17,0,0.247,0,3.724,9.53,15.207,16.957,21.035,16.957,5.29,0,17.835-7.18,21.7-16.977a10.972,10.972,0,0,0,3.773-.888,10.415,10.415,0,0,0,4.346-5.571,5.761,5.761,0,0,0-.511-4.813h0ZM61.382,188.106a9.827,9.827,0,0,1,8.636,4.652,35.546,35.546,0,0,0-17.225-.077A9.862,9.862,0,0,1,61.382,188.106ZM36.2,229.852c-1.339-.888-3.714-4.7-2.313-7.145a4.421,4.421,0,0,1,1.947-1.946,0.85,0.85,0,0,0,.1-0.04,3.036,3.036,0,0,1,.416-0.136,4.094,4.094,0,0,1,2.589.351c0,2.183.014,4.743,0.155,6.841a16.19,16.19,0,0,0,.558,3.238,6.7,6.7,0,0,1-3.448-1.163h0ZM61.29,247.978c-5.368,0-19.644-9.011-20.4-20.322-0.134-2-.149-4.458-0.15-6.582,2.247,0.131,8.46.238,12.61-10.771a0.9,0.9,0,1,0-1.691-.639c-3.777,10.028-9,9.715-10.969,9.593a3.17,3.17,0,0,0-1,.035,6.072,6.072,0,0,0-3.232-.562c0.194-7.191,2.218-13.252,5.884-17.583,4.315-5.093,10.691-7.677,18.949-7.677a30.963,30.963,0,0,1,9.865,1.5,0.9,0.9,0,0,0,.288.1c9.469,3.3,15.012,11.606,15.375,23.609a6.115,6.115,0,0,0-3.854.657c-1.616-1.429-6.446-4.727-17.651-6.059-6.387-.761-10.281-7.483-10.5-9.053a0.893,0.893,0,0,0-1.017-.774,0.9,0.9,0,0,0-.772,1.018c0.326,2.395,4.982,9.762,12.071,10.606,11.813,1.405,16.11,5.052,16.953,5.885a60.126,60.126,0,0,1,.272,6.521c-0.006.153-.015,0.3-0.026,0.457a0.668,0.668,0,0,0-.09.168c-0.137.354-3.74,9.641-17.006,12.45a3.924,3.924,0,0,0-3.65-1.946c-2.176,0-3.88,1.308-3.88,2.978s1.7,2.979,3.88,2.979c1.976,0,3.563-1.079,3.839-2.527,7.343-1.55,11.965-4.7,14.746-7.459-4.463,7.771-14.534,13.406-18.85,13.406h0Zm1.924-6.578c0.086,0.491-.255.67,0.188,0.678a2.559,2.559,0,0,1-1.848.67c-1.187,0-2.074-.617-2.074-1.169s0.887-1.169,2.074-1.169a2.69,2.69,0,0,1,1.736.562,0.446,0.446,0,0,0-.076.428h0Zm26.166-15.576a8.938,8.938,0,0,1-3.37,4.453,8.642,8.642,0,0,1-2.4.657,15.322,15.322,0,0,0,.521-3.393,60.166,60.166,0,0,0-.267-6.642,4.215,4.215,0,0,1,2.673-.441,4,4,0,0,1,2.52,2.028,3.951,3.951,0,0,1,.324,3.338h0Zm-21.962,2.7a0.9,0.9,0,0,0,.9-0.905,2.928,2.928,0,1,1,5.857,0,0.9,0.9,0,1,0,1.806,0,4.735,4.735,0,1,0-9.47,0,0.9,0.9,0,0,0,.9.905h0ZM51.9,222.88a4.744,4.744,0,0,0-4.734,4.744,0.9,0.9,0,1,0,1.806,0,2.928,2.928,0,1,1,5.857,0,0.9,0.9,0,1,0,1.807,0A4.745,4.745,0,0,0,51.9,222.88Z" transform="translate(-31.656 -186.281)"/>
</svg>
