<svg xmlns="http://www.w3.org/2000/svg" width="24" height="25" viewBox="0 0 24 25">
  <defs>
    <style>
      .cls-1 {
        fill-rule: evenodd;
      }
    </style>
  </defs>
  <path id="分类图标.svg" class="cls-1" d="M702.583,188a0.911,0.911,0,0,1-.463-0.126l-5.164-3.049a0.915,0.915,0,0,1-.449-0.788V176.7l-8.348-12.267a0.915,0.915,0,0,1,.753-1.43h22.176a0.915,0.915,0,0,1,.753,1.43L703.493,176.7v10.388A0.912,0.912,0,0,1,702.583,188Zm-4.253-4.487,3.341,1.973v-9.071a0.911,0.911,0,0,1,.159-0.516l7.533-11.07H690.638l7.532,11.07a0.912,0.912,0,0,1,.16.516v7.1Z" transform="translate(-688 -163)"/>
</svg>
