<svg xmlns="http://www.w3.org/2000/svg" width="47" height="43" viewBox="0 0 47 43"><defs><style>.cls-1{fill:#ff9500;}</style></defs><title>B4</title><g id="图层_2" data-name="图层 2"><g id="图层_1-2" data-name="图层 1"><path class="cls-1" d="M22.83,21.07H18.64a.66.66,0,0,0-.66.55v1.2a.66.66,0,0,0,.66.55h4.19a.66.66,0,0,0,.66-.55v-1.2A.66.66,0,0,0,22.83,21.07Z"/><path class="cls-1" d="M22.83,27H18.64a.66.66,0,0,0-.66.55v1.2a.66.66,0,0,0,.66.55h4.19a.66.66,0,0,0,.66-.55v-1.2A.59.59,0,0,0,22.83,27Z"/><path class="cls-1" d="M22.83,15.12H18.64a.66.66,0,0,0-.66.55v1.2a.66.66,0,0,0,.66.55h4.19a.66.66,0,0,0,.66-.55v-1.2A.66.66,0,0,0,22.83,15.12Z"/><path class="cls-1" d="M14.45,21.07H10.26a.66.66,0,0,0-.66.55v1.2a.66.66,0,0,0,.66.55h4.19a.66.66,0,0,0,.66-.55v-1.2C15.22,21.34,14.89,21.07,14.45,21.07Z"/><path class="cls-1" d="M14.45,15.12H10.26a.66.66,0,0,0-.66.55v1.2a.66.66,0,0,0,.66.55h4.19a.66.66,0,0,0,.66-.55v-1.2C15.22,15.4,14.89,15.12,14.45,15.12Z"/><path class="cls-1" d="M14.45,27H10.26a.66.66,0,0,0-.66.55v1.2a.66.66,0,0,0,.66.55h4.19a.66.66,0,0,0,.66-.55v-1.2C15.22,27.2,14.89,27,14.45,27Z"/><path class="cls-1" d="M36.61,21.07H32.42a.66.66,0,0,0-.66.55v1.2a.66.66,0,0,0,.66.55h4.19a.66.66,0,0,0,.66-.55v-1.2C37.39,21.34,37.06,21.07,36.61,21.07Z"/><path class="cls-1" d="M46.32,40.24H42.9V13.89A4.19,4.19,0,0,0,38.71,9.7H29V4.19A4.19,4.19,0,0,0,24.81,0H8.27A4.19,4.19,0,0,0,4.08,4.19V40.24H.66A.71.71,0,0,0,0,40.9v1.43A.71.71,0,0,0,.66,43H46.32a.71.71,0,0,0,.66-.66V40.9C47.09,40.57,46.76,40.24,46.32,40.24Zm-20,0H6.84V4.19A1.46,1.46,0,0,1,8.27,2.76H24.92a1.46,1.46,0,0,1,1.43,1.43Zm13.79,0H29V12.46h9.71a1.46,1.46,0,0,1,1.43,1.43Z"/><path class="cls-1" d="M36.61,27H32.42a.66.66,0,0,0-.66.55v1.2a.66.66,0,0,0,.66.55h4.19a.66.66,0,0,0,.66-.55v-1.2C37.39,27.2,37.06,27,36.61,27Z"/></g></g></svg>