<svg xmlns="http://www.w3.org/2000/svg" xmlns:xlink="http://www.w3.org/1999/xlink" width="22.093" height="22.12" viewBox="0 0 22.093 22.12">
  <defs>
    <style>
      .cls-1 {
        fill: #282828;
        fill-rule: evenodd;
        filter: url(#filter);
      }
    </style>
    <filter id="filter" x="170.188" y="1171.72" width="22.093" height="22.12" filterUnits="userSpaceOnUse">
      <feFlood result="flood" flood-color="#ff9500"/>
      <feComposite result="composite" operator="in" in2="SourceGraphic"/>
      <feBlend result="blend" in2="SourceGraphic"/>
    </filter>
  </defs>
  <path id="zuantuo-cheng.svg" class="cls-1" d="M191.784,1178.74c-1.291-2.71-4.872-3.37-7.952-3.1l-2.063-3.57c-0.006-.01-0.018-0.01-0.023-0.02a0.692,0.692,0,0,0-.227-0.23h-0.008a0.564,0.564,0,0,0-.306-0.08,0.044,0.044,0,0,0-.034-0.01h-6.556a0.05,0.05,0,0,0-.036.01,0.57,0.57,0,0,0-.305.08h-0.008a0.692,0.692,0,0,0-.227.23c0,0.01-.017.01-0.023,0.02l-3.278,5.68a0.118,0.118,0,0,0-.008.03,0.654,0.654,0,0,0-.085.31,0.623,0.623,0,0,0,.085.31c0.005,0.01,0,.03.008,0.04l1.979,3.42a1.685,1.685,0,0,0-.131.11c-2.3,2.95-3,6.13-1.873,8.51a5.688,5.688,0,0,0,3.576,2.96,9.527,9.527,0,0,0,2.828.41,15.716,15.716,0,0,0,7.543-2.16C190.434,1188.44,193.63,1182.63,191.784,1178.74Zm-10.615,3.64-1.476-2.55a0.69,0.69,0,1,0-1.2.69l1.476,2.55h-4.161l1.476-2.55a0.7,0.7,0,0,0-.252-0.95,0.7,0.7,0,0,0-.944.26l-1.476,2.55-2.081-3.6h2.952a0.69,0.69,0,1,0,0-1.38h-2.952l2.08-3.6,1.477,2.55a0.676,0.676,0,0,0,.6.35,0.723,0.723,0,0,0,.346-0.09,0.7,0.7,0,0,0,.252-0.95l-1.476-2.55h4.161l-1.476,2.55a0.7,0.7,0,0,0,.253.95,0.716,0.716,0,0,0,.345.09,0.675,0.675,0,0,0,.6-0.35l1.478-2.55,2.079,3.6H180.3a0.69,0.69,0,1,0,0,1.38h2.952Zm2.812,8.1c-3.26,1.84-6.73,2.45-9.273,1.64a4.338,4.338,0,0,1-2.743-2.23c-0.866-1.82-.3-4.33,1.49-6.75l0.561,0.97c0.006,0.01.017,0.01,0.022,0.02a0.622,0.622,0,0,0,.231.23,0.633,0.633,0,0,0,.346.1s0-.01,0-0.01h6.551a0.038,0.038,0,0,0,0,.01,0.632,0.632,0,0,0,.345-0.1,0.622,0.622,0,0,0,.231-0.23c0.006-.01.016-0.01,0.022-0.02l3.278-5.67a0.108,0.108,0,0,1,.009-0.03,0.693,0.693,0,0,0,.085-0.32,0.654,0.654,0,0,0-.085-0.31,0.108,0.108,0,0,0-.009-0.03l-0.447-.78c2.894-.12,5.171.76,5.932,2.37C192.075,1182.58,189.136,1187.59,183.981,1190.48Z" transform="translate(-170.188 -1171.72)"/>
</svg>
