<svg xmlns="http://www.w3.org/2000/svg" xmlns:xlink="http://www.w3.org/1999/xlink" width="101.937" height="78.5" viewBox="0 0 101.937 78.5">
  <defs>
    <style>
      .cls-1 {
        fill: #ffb245;
        fill-rule: evenodd;
        filter: url(#filter);
      }
    </style>
    <filter id="filter" x="619.938" y="203.875" width="101.937" height="78.5" filterUnits="userSpaceOnUse">
      <feFlood result="flood"/>
      <feComposite result="composite" operator="in" in2="SourceGraphic"/>
      <feBlend result="blend" in2="SourceGraphic"/>
    </filter>
  </defs>
  <path id="运输车.svg" class="cls-1" d="M721.88,265.938a5.52,5.52,0,0,1-5.561,5.477h-1.854a11.124,11.124,0,0,1-22.246,0H657a11.124,11.124,0,0,1-22.245,0H632.9a5.52,5.52,0,0,1-5.562-5.477v-6.39H632.9V263.2a2.76,2.76,0,0,0,2.78,2.738h0.574a11.19,11.19,0,0,1,19.244,0h30.234V213c0-1.513-1.245-3.652-2.781-3.652H635.679c-1.535,0-2.78,2.139-2.78,3.652v1.825h-5.561v-5.476a5.52,5.52,0,0,1,5.562-5.477h52.832a5.52,5.52,0,0,1,5.562,5.477v16.43h17.611c0.145,0,.282.032,0.425,0.042a2.827,2.827,0,0,1,2.47.761l0.041,0.04a5.519,5.519,0,0,1,1.765,1.735l5.682,5.585A5.537,5.537,0,0,1,721,235.625l0.036,0.035a2.714,2.714,0,0,1,.784,2.333,5.484,5.484,0,0,1,.057.562v27.383h0Zm-76,0a5.478,5.478,0,1,0,5.561,5.477A5.52,5.52,0,0,0,645.876,265.938Zm57.467,10.954a5.478,5.478,0,1,0-5.562-5.477A5.52,5.52,0,0,0,703.343,276.892Zm5.29-45.64h-17.34v34.686h2.427a11.191,11.191,0,0,1,19.245,0h3.354V240.38h-9.27a1.84,1.84,0,0,1-1.854-1.825h0a1.84,1.84,0,0,1,1.853-1.827h7.157l-5.572-5.476h0Zm-72.026-7.3a1.84,1.84,0,0,1-1.854,1.826h-9.269a1.826,1.826,0,1,1,0-3.651h9.271A1.84,1.84,0,0,1,636.607,223.949ZM631.046,234.9a1.826,1.826,0,1,1,0-3.651H643.1a1.826,1.826,0,1,1,0,3.651H631.046Zm23.172,7.3a1.841,1.841,0,0,1-1.855,1.826H621.777a1.826,1.826,0,1,1,0-3.651h30.589a1.84,1.84,0,0,1,1.854,1.825h0Zm-25.953,7.3h8.342a1.826,1.826,0,1,1,0,3.652h-8.342A1.826,1.826,0,1,1,628.265,249.508Z" transform="translate(-619.938 -203.875)"/>
</svg>
