<svg xmlns="http://www.w3.org/2000/svg" width="333.72" height="373.91" viewBox="0 0 333.72 373.91"><defs><style>.cls-1,.cls-14,.cls-16{fill:#fff;}.cls-1,.cls-12,.cls-13,.cls-15,.cls-16,.cls-4,.cls-8,.cls-9{stroke:#ccc;}.cls-1,.cls-12,.cls-13,.cls-15,.cls-4,.cls-8{stroke-miterlimit:10;}.cls-2{fill:#e2e2e2;}.cls-3{fill:#ccc;}.cls-4,.cls-5{fill:#d8d8d8;}.cls-6,.cls-8{fill:#f2f2f2;}.cls-13,.cls-7{fill:#e5e5e5;}.cls-9{fill:none;}.cls-14,.cls-16,.cls-9{stroke-linecap:round;stroke-linejoin:round;}.cls-10,.cls-15{fill:#e8e8e8;}.cls-11{fill:#f4f4f4;}.cls-12{fill:#ddd;}.cls-14{stroke:#eaab52;}</style></defs><title>物流</title><g id="图层_2" data-name="图层 2"><g id="图层_1-2" data-name="图层 1"><path class="cls-1" d="M34.95,218.67h-.06a12.81,12.81,0,0,0-24.24-4.61c-.28,0-.57,0-.85,0a9.28,9.28,0,0,0-8.33,13.41H41.66a6.88,6.88,0,0,0-6.71-8.77Z"/><polygon class="cls-2" points="268.42 158.29 283.35 141.27 268.33 143.1 288 119.66 304.49 142.35 290.87 140.98 304.75 158.29 268.42 158.29"/><path class="cls-3" d="M288,120.47l15.46,21.27-13.7-1.38,14,17.43H269.53l15.06-17.18-15.06,1.84,18.45-22m.06-1.62-.82,1-18.45,22-1.63,1.94,2.52-.31,12.46-1.52-13.33,15.21-1.45,1.66h38.47l-1.3-1.63L292,141.6l11.33,1.14,2.22.22-1.31-1.81-15.46-21.27-.75-1Z"/><rect class="cls-4" x="287.01" y="158.95" width="0.94" height="13.87"/><polygon class="cls-5" points="289.73 140.36 303.43 141.74 287.98 120.47 287.95 120.5 287.95 157.79 303.71 157.79 289.73 140.36"/><polygon class="cls-6" points="297.36 163.75 307.56 152.11 297.26 153.37 311.16 136.8 322.81 152.84 313.47 151.9 322.98 163.75 297.36 163.75"/><path class="cls-3" d="M311.13,137.61l10.62,14.61-9.41-.95,9.6,12H298.46l10.34-11.8-10.34,1.27,12.67-15.1m.06-1.62-.82,1-12.67,15.1L296.06,154l2.52-.31,7.74-.95-8.62,9.83-1.45,1.66H324l-1.3-1.63-8.11-10.11,7,.71,2.22.22-1.31-1.81L311.94,137l-.75-1Z"/><rect class="cls-4" x="310.2" y="164.05" width="0.91" height="9.53"/><polygon class="cls-7" points="312.34 151.28 321.75 152.23 311.13 137.61 311.11 137.64 311.11 163.25 321.94 163.25 312.34 151.28"/><polygon class="cls-5" points="185.96 326.24 204.25 302.54 218.97 296.82 197.63 296.82 185.96 326.24"/><path class="cls-8" d="M225.05,31.88A6.08,6.08,0,0,0,219,38h0a6.08,6.08,0,0,0-6.08-6.08h0A6.08,6.08,0,0,0,219,25.8h0a6.08,6.08,0,0,0,6.08,6.08Z"/><path class="cls-8" d="M27.29,112.76a6.08,6.08,0,0,0-6.08,6.08h0a6.08,6.08,0,0,0-6.08-6.08h0a6.08,6.08,0,0,0,6.08-6.08h0a6.08,6.08,0,0,0,6.08,6.08Z"/><polygon class="cls-8" points="176.08 55.86 198.88 68.66 242.44 51.4 286.67 179.88 271.3 186.24 198.16 166.63 176.08 55.86"/><polygon class="cls-7" points="247.19 76 284.16 177.96 265.67 186.24 205.81 190.48 182.93 59.98 198.78 69.31 205.81 118.82 247.19 76"/><polygon class="cls-8" points="50.9 171.98 108.61 24.73 172.69 0.67 203.97 151.03 50.9 171.98"/><polygon class="cls-7" points="110.2 28.98 68.86 136.04 179.41 44.28 200.3 151.01 50.9 173.34 107.42 29.54 110.2 28.98"/><polygon class="cls-5" points="86.91 306.36 119.93 306.36 114.69 296.84 86.91 306.36"/><polygon class="cls-5" points="152 299.21 174.88 278.36 169.63 264.03 152 299.21"/><polygon class="cls-5" points="223.4 281.62 257.41 315.25 238.69 249.49 223.4 281.62"/><line class="cls-9" x1="26.05" y1="258.17" x2="36.72" y2="258.17"/><line class="cls-9" x1="31.39" y1="252.83" x2="31.39" y2="263.51"/><line class="cls-9" x1="281.62" y1="70.92" x2="281.53" y2="82.54"/><line class="cls-9" x1="287.39" y1="76.78" x2="275.76" y2="76.68"/><line class="cls-9" x1="31.39" y1="150.17" x2="37.94" y2="156.72"/><line class="cls-9" x1="37.94" y1="150.17" x2="31.39" y2="156.72"/><circle class="cls-8" cx="328.53" cy="239.32" r="4.69"/><path class="cls-8" d="M15.22,193.08,24.59,178s54.52-16.5,156.62-26.5c86.3-8.45,89,22.66,89,22.66s23.85-11.93,42.93,2.39c5.57.8,16.19,8.41,16.19,8.41l2.81,8.12-207,36.34Z"/><path class="cls-10" d="M160.93,191.34s62.4-19.08,96.48-14.4c9.56,3.27,14,2.83,16.53,3.43s11.28-3.91,27.39-3.21c23.84,1,29.36,11.32,30.25,12.22,1.27,1.27.58,3.7.58,3.7l-5.67,3.51-204.86,28Z"/><polygon class="cls-8" points="15.22 193.08 86.91 306.36 114.27 296.41 119.93 306.36 152 299.21 168.98 265.82 185.96 326.24 200.11 296.82 218.97 296.82 237.84 255.48 257.41 315.25 332.17 193.08 191.08 194.55 123.39 222.61 162.28 190.1 15.22 193.08"/><polygon class="cls-10" points="299.81 238.65 273.61 279.57 258.71 273.86 238.77 247.44 212.95 276.41 191.64 262.75 180.73 271.31 169.31 258.37 147.08 282.14 109.44 280.32 94.61 257.09 90.78 265.16 78.01 267.28 48.28 234.59 43.26 235.45 86.99 304.31 114.46 295.71 120.01 304.31 152.08 297.16 169.06 263.77 186.04 324.19 200.19 294.77 219.05 294.77 237.92 253.43 257.49 313.2 302.52 240.33 299.81 238.65"/><path class="cls-1" d="M315.4,100.67h-.09c-.47-4.32-5-7.72-10.49-7.72a11,11,0,0,0-9.44,4.71c-.24,0-.47-.06-.72-.06-4.24,0-7.67,2.74-7.67,6.13a5.11,5.11,0,0,0,.83,2.71h33.13a3.71,3.71,0,0,0,.22-1.18C321.15,102.73,318.58,100.67,315.4,100.67Z"/><polygon class="cls-11" points="164.02 189.39 126.73 220.56 196.43 182.36 164.02 189.39"/><polygon class="cls-10" points="84.43 172.78 36.28 190.38 99.43 190.38 139.04 182.57 207.01 167.65 199.5 153.86 84.43 172.78"/><path class="cls-4" d="M121.07,185.28s-8-2.16-11.53-2.81-8.44-9.27-2.76-17.37,16.45-8.89,16.45-8.89l8.21.36Z"/><path class="cls-12" d="M204.14,168.55s-5.89-1.6-8.53-2.08-6.24-6.86-2-12.85S205.74,147,205.74,147l6.08.27Z"/><path class="cls-4" d="M79.2,177.24s-8-2.16-11.53-2.81-8.44-9.27-2.76-17.37,16.45-8.89,16.45-8.89l8.21.36Z"/><path class="cls-8" d="M84.86,148.67c7.49-1.11,13.28,4.06,13.31,11.5s-5.75,15-13.25,16.84C77,179,70.2,174,70.2,165.77S76.94,149.85,84.86,148.67Z"/><path class="cls-8" d="M84.87,153.39a7.47,7.47,0,0,1,9,7.64,12,12,0,0,1-9,11.25c-5.24,1.23-9.64-2.13-9.65-7.53A12,12,0,0,1,84.87,153.39Z"/><path class="cls-8" d="M84.89,159.29a2.8,2.8,0,0,1,3.45,2.85,4.5,4.5,0,0,1-3.44,4.23,2.81,2.81,0,0,1-3.54-2.84A4.49,4.49,0,0,1,84.89,159.29Z"/><path class="cls-13" d="M101.51,172.38l-46-6.35a2.11,2.11,0,0,1-1.14-2v-12.5l48.38,4.36Z"/><polygon class="cls-1" points="96.05 88.91 49.09 93.83 49.09 151.52 99.45 154.97 96.05 88.91"/><polygon class="cls-14" points="212.53 125.32 193.67 126.02 193.52 107.2 209.13 107.7 212.53 125.32"/><path class="cls-15" d="M102.78,172.33l119.28-18.55a1.9,1.9,0,0,0,1.46-1.92l-.13-11.8L99.45,152.43v17.86C99.46,171.7,101,172.61,102.78,172.33Z"/><polygon class="cls-10" points="193.81 143.01 193.56 112.84 186 112.76 186.23 143.76 100.26 152.62 100.26 162.81 223.46 146.79 223.39 140.05 193.81 143.01"/><path class="cls-16" d="M99.44,89.08l86.43,6.31a2.12,2.12,0,0,1,1.94,2.06l.36,46.12a2.18,2.18,0,0,1-1.92,2.14L99.45,155c-1.86.2-3.38-.79-3.38-2.21V91.38C96.08,88.82,95.49,88.67,99.44,89.08Z"/><path class="cls-11" d="M187.2,97.9a2.08,2.08,0,0,0-1.92-2l-1.95-.14.34,44a2.15,2.15,0,0,1-1.9,2.1l-85.15,9v1.3c0,1.39,1.5,2.37,3.33,2.17l85.69-9.1a2.15,2.15,0,0,0,1.9-2.1Z"/><path class="cls-8" d="M221.1,126l-7.18-2L211.47,110a7.16,7.16,0,0,0-6.54-6.06l-11.45-.52a1.76,1.76,0,0,0-1.84,1.81l.27,34.13,31.43-2.7-.08-7.56A3.2,3.2,0,0,0,221.1,126Zm-22-2a3.58,3.58,0,0,1-3.62-3.63l-.08-9.34a1.77,1.77,0,0,1,1.79-1.82l9.55.24a1.76,1.76,0,0,1,1.64,1.5l2,11.5a1,1,0,0,1-.92,1.24Z"/><path class="cls-8" d="M207.85,147c5.38-.65,9.63,3.48,9.69,9.22s-4.1,11.25-9.49,12.35c-5.62,1.15-10.41-2.91-10.46-9.11S202.23,147.67,207.85,147Z"/><path class="cls-10" d="M207.89,150.58c3.61-.49,6.5,2.26,6.54,6.13A8.42,8.42,0,0,1,208,165c-3.72.71-6.85-2-6.88-6.09S204.17,151.08,207.89,150.58Z"/><path class="cls-6" d="M207.93,155.07a2.18,2.18,0,0,1,2.49,2.29,3.15,3.15,0,0,1-2.44,3.1,2.17,2.17,0,0,1-2.54-2.29A3.13,3.13,0,0,1,207.93,155.07Z"/><path class="cls-8" d="M193.92,156.25l.7-.1a2.18,2.18,0,0,0,1.62-1.28l3.81-8.59a3.94,3.94,0,0,1,3.09-2.38l9.17-1a2.8,2.8,0,0,1,2.85,1.62l3.43,7.08a1.29,1.29,0,0,0,1.37.75l3.54-.53A1.87,1.87,0,0,0,225,150l-.13-11.73a2.91,2.91,0,0,0-3-3.11l-30,2.37.14,17.13A1.6,1.6,0,0,0,193.92,156.25Z"/><path class="cls-8" d="M186.38,163.22l-21,3.55a1.82,1.82,0,0,1-2.28-1.73l0-8.44a2.55,2.55,0,0,1,2.26-2.4l20.95-2.67a1.68,1.68,0,0,1,2,1.69l.06,7.73A2.36,2.36,0,0,1,186.38,163.22Z"/><path class="cls-5" d="M172,156.74h0a2.51,2.51,0,0,0-2.16,2.37l0,6.19,4.31-.73,0-6.1A1.78,1.78,0,0,0,172,156.74Z"/><path class="cls-5" d="M180.35,155.56h0a2.4,2.4,0,0,0-2,2.29l0,6,4.07-.69,0-5.93A1.71,1.71,0,0,0,180.35,155.56Z"/><path class="cls-6" d="M177.34,138.48,106,145.56c-1.79.17-3.25-.83-3.26-2.22h0c0-1.39,1.46-2.64,3.25-2.78l71.3-6a1.81,1.81,0,0,1,2,1.8h0A2.19,2.19,0,0,1,177.34,138.48Z"/><path class="cls-8" d="M126.74,156.71c7.49-1.11,13.28,4.06,13.31,11.5s-5.75,15-13.25,16.84c-7.94,2-14.72-3-14.73-11.25S118.82,157.89,126.74,156.71Z"/><path class="cls-10" d="M126.75,161.43a7.47,7.47,0,0,1,9,7.64,12,12,0,0,1-9,11.25c-5.24,1.23-9.64-2.13-9.65-7.53A12,12,0,0,1,126.75,161.43Z"/><path class="cls-6" d="M126.76,167.33a2.8,2.8,0,0,1,3.45,2.85,4.5,4.5,0,0,1-3.44,4.23,2.81,2.81,0,0,1-3.54-2.84A4.49,4.49,0,0,1,126.76,167.33Z"/><path class="cls-8" d="M193.25,103.45h-5.38v11h3.78V105C191.65,103.8,193.25,103.45,193.25,103.45Z"/><path class="cls-1" d="M269.43,276.59a12.67,12.67,0,0,1,15.93-15.85A14.34,14.34,0,0,1,313,267.85a8.79,8.79,0,0,1,9.84,8.74H269.43Z"/><ellipse class="cls-6" cx="178.35" cy="363.75" rx="88" ry="10.16"/></g></g></svg>