<svg xmlns="http://www.w3.org/2000/svg" width="44" height="43" viewBox="0 0 44 43"><defs><style>.cls-1{fill:#ff9500;fill-rule:evenodd;}</style></defs><title>图标</title><g id="图层_2" data-name="图层 2"><g id="图层_1-2" data-name="图层 1"><path class="cls-1" d="M22.73,30.05v4.74a2.71,2.71,0,0,0,2.38-2.37c0-1.09-.73-1.82-2.38-2.37Z"/><path class="cls-1" d="M22,14.57C13.93,14.57.37,21.67.37,32.24.37,43.89,10.08,43,22,43s21.63.73,21.63-10.75c0-10.56-13.57-17.67-21.63-17.67Zm.73,22.22v1.09h-2V36.79c-3.85-.36-4.58-2.73-4.58-4.55v-.36H18.7v.55c0,.91.18,2,2.2,2.37V29.51c-.18,0-.18,0-.37-.18-2.75-.73-4-2.37-4-4.55a4.89,4.89,0,0,1,4.4-4.55V19.12h2v1.09c2.57.36,4.22,1.82,4.58,4.19V25H24.93v-.36a2.22,2.22,0,0,0-2-2.19v5.28c3.3.91,5,2.55,4.77,4.74-.18,1.82-1.1,4-4.95,4.37Z"/><path class="cls-1" d="M18.88,24.77c0,.91.55,1.64,1.83,2.19V22.4a2.23,2.23,0,0,0-1.83,2.37Z"/><path class="cls-1" d="M1.83,21.31c1.1,0,2-.73,3.67-2,3.3-2.55,9-7.1,16.5-7.1,7.33,0,13.2,4.55,16.5,7.1,1.83,1.46,2.75,2,3.67,2A1.73,1.73,0,0,0,44,19.49a2,2,0,0,0-1.47-1.82,18,18,0,0,1-1.83-1.27c-2.75-2.19-7.52-5.83-13.57-7.1a10.12,10.12,0,0,0,1.28-2.91,3.34,3.34,0,0,0,2.38-3.1,3.3,3.3,0,0,0-6.6,0A3.21,3.21,0,0,0,25.67,6a5.27,5.27,0,0,1-2.2,2.73H20.53A4.66,4.66,0,0,1,18.33,6,3.21,3.21,0,0,0,19.8,3.28a3.3,3.3,0,0,0-6.6,0,3.13,3.13,0,0,0,2.38,3.1,14,14,0,0,0,1.28,2.91c-6,1.46-10.82,5.1-13.57,7.1a18,18,0,0,1-1.83,1.27A2,2,0,0,0,0,19.49a1.73,1.73,0,0,0,1.83,1.82Z"/></g></g></svg>